<svg width="266" height="50" viewBox="0 0 266 50" fill="none" xmlns="http://www.w3.org/2000/svg">
<g clip-path="url(#clip0_791_5574)">
<path fill-rule="evenodd" clip-rule="evenodd" d="M50.4676 24.9994C50.4676 38.7965 39.2828 49.9812 25.4857 49.9812C11.6887 49.9812 0.503906 38.7965 0.503906 24.9994C0.503906 11.2023 11.6887 0.0175781 25.4857 0.0175781C29.8158 0.0175781 33.8885 1.1192 37.4389 3.05746C34.5287 1.47155 31.2669 0.44809 27.7988 0.132812V16.6721H17.1584V33.3267H27.7988V49.8652C40.5211 48.7086 50.4675 37.9988 50.4675 24.999C50.4675 24.7046 50.4624 24.4114 50.4524 24.1195C50.4625 24.4115 50.4676 24.7049 50.4676 24.9994ZM27.7988 33.3267H33.813V16.6721H27.7988V33.3267ZM50.4524 24.1195C50.1375 15.0237 44.96 7.16338 37.4389 3.05746C44.9634 7.15779 50.138 15.018 50.4524 24.1195Z" fill="white"/>
<path fill-rule="evenodd" clip-rule="evenodd" d="M27.7988 49.8671C40.5211 48.7105 50.4675 38.0007 50.4675 25.0009C50.4675 11.978 40.5211 1.29133 27.7988 0.134766V49.8671Z" fill="white"/>
<path d="M68.8576 37.2836C66.7295 36.0807 64.9946 34.2996 63.8381 32.1484C62.6815 29.9047 62.0801 27.4065 62.0801 24.8852C62.0801 22.3639 62.6815 19.8657 63.8381 17.6219C64.9946 15.4707 66.7295 13.6896 68.8576 12.4868C71.1244 11.2146 73.692 10.59 76.3058 10.6363C78.5496 10.6132 80.7702 11.0758 82.8057 11.9779C84.7025 12.8106 86.368 14.1291 87.5939 15.7946C88.8199 17.4138 89.537 19.3568 89.6989 21.3924H82.2506C82.0424 20.1201 81.3253 18.9636 80.2844 18.2234C79.1973 17.3906 77.8788 16.9511 76.514 16.9511C74.4322 16.9511 72.7899 17.6913 71.587 19.1717C70.3842 20.6522 69.7828 22.5721 69.7828 24.9083C69.7828 27.2446 70.3842 29.1413 71.6102 30.5986C72.8361 32.0559 74.5016 32.7961 76.6297 32.7961C77.9713 32.8192 79.2667 32.4029 80.3538 31.6164C81.3947 30.8762 82.1118 29.7659 82.3894 28.5399H89.9071C89.6526 30.5292 88.8661 32.4029 87.6171 33.9758C86.3217 35.6181 84.6562 36.9366 82.7595 37.7925C80.7239 38.7177 78.5264 39.1803 76.2827 39.1572C73.692 39.2035 71.1244 38.5558 68.8576 37.2836ZM98.9051 37.2836C96.7308 36.1039 94.9497 34.3459 93.7237 32.1947C92.4978 29.9509 91.8501 27.4296 91.8501 24.8852C91.8501 22.3176 92.4978 19.8194 93.7237 17.5757C94.9497 15.4245 96.7308 13.6665 98.9051 12.4868C101.195 11.2377 103.786 10.6132 106.4 10.6594C109.014 10.6132 111.604 11.2608 113.917 12.4868C116.092 13.6665 117.896 15.4245 119.122 17.5757C120.348 19.8194 120.996 22.3407 120.996 24.8852C120.996 27.4528 120.348 29.9509 119.122 32.1947C117.896 34.3459 116.092 36.1039 113.894 37.2836C111.581 38.5327 109.014 39.1572 106.377 39.1109C103.786 39.1572 101.195 38.5327 98.9051 37.2836ZM111.558 30.5755C112.876 29.1182 113.524 27.2214 113.524 24.8852C113.524 22.5489 112.876 20.629 111.558 19.1486C110.91 18.4547 110.101 17.8995 109.222 17.5063C108.343 17.1362 107.394 16.928 106.423 16.928C105.474 16.928 104.503 17.1131 103.624 17.5063C102.745 17.8764 101.935 18.4315 101.288 19.1255C99.9692 20.5828 99.3215 22.5027 99.3215 24.8852C99.3215 27.2677 99.9692 29.1645 101.288 30.5755C102.606 32.0328 104.318 32.773 106.423 32.773C107.371 32.7961 108.343 32.6342 109.222 32.2409C110.101 31.8708 110.887 31.2926 111.558 30.5755ZM148.429 47.2532C146.533 49.0112 144.011 49.8901 140.865 49.8901H127.056V44.061H139.778C140.333 44.0842 140.888 43.9685 141.397 43.7603C141.906 43.5522 142.369 43.2283 142.762 42.812C143.572 41.9098 143.988 40.7301 143.942 39.5273V35.8726C143.155 36.9597 142.068 37.7925 140.819 38.2782C139.385 38.8796 137.835 39.1803 136.262 39.1803C133.51 39.1803 131.173 38.6021 129.207 37.4224C127.241 36.2427 125.668 34.5078 124.72 32.426C123.679 30.0666 123.147 27.499 123.147 24.9083C123.147 22.3176 123.679 19.7732 124.72 17.3906C125.668 15.3319 127.218 13.5971 129.184 12.3943C131.127 11.2146 133.44 10.6363 136.147 10.6363C137.696 10.6132 139.246 10.9139 140.68 11.5153C141.953 12.0242 143.04 12.8338 143.896 13.9209V11.0527H151.298V40.2675C151.274 43.1589 150.326 45.4952 148.429 47.2532ZM142.461 30.6217C143.734 29.1876 144.381 27.2677 144.381 24.8852C144.381 22.4795 143.734 20.5365 142.461 19.1024C141.189 17.6682 139.477 16.928 137.373 16.928C135.291 16.928 133.625 17.6451 132.353 19.1024C131.081 20.5365 130.456 22.4795 130.456 24.8852C130.456 27.2908 131.081 29.2107 132.353 30.6449C133.625 32.079 135.291 32.773 137.373 32.773C139.477 32.773 141.166 32.0559 142.461 30.6217ZM163.071 11.0758V15.0312C163.835 13.6434 165.014 12.5099 166.449 11.7929C168.022 11.0064 169.756 10.6132 171.514 10.6363C173.411 10.59 175.285 11.0758 176.904 12.0242C178.454 12.9494 179.703 14.2679 180.512 15.864C181.391 17.6219 181.854 19.565 181.808 21.5311V38.6946H174.406V23.1272C174.452 21.5774 173.92 20.0507 172.902 18.871C172.416 18.3159 171.815 17.8995 171.121 17.5988C170.45 17.3212 169.71 17.1825 168.97 17.2056C168.16 17.1825 167.374 17.3212 166.634 17.6219C165.893 17.9227 165.223 18.3853 164.691 18.9867C163.603 20.1664 163.048 21.6931 163.048 23.5667V38.6946H155.646V11.0758H163.071ZM193.373 11.0758V38.6946H185.971V11.0758H193.373ZM197.815 32.8886H210.259C210.468 32.9118 210.699 32.8655 210.884 32.7961C211.092 32.7267 211.277 32.611 211.416 32.4491C211.578 32.3103 211.693 32.1253 211.763 31.9171C211.855 31.7089 211.879 31.5007 211.879 31.2926C211.879 30.9918 211.786 30.7143 211.601 30.4598C211.416 30.2054 211.161 29.9972 210.884 29.8584L201.053 25.0008C199.758 24.3532 198.671 23.4048 197.838 22.2251C197.051 21.0916 196.635 19.75 196.658 18.3622C196.658 17.0668 196.982 15.8177 197.606 14.6843C198.231 13.574 199.133 12.6487 200.243 12.0242C201.354 11.3765 202.603 11.0527 203.898 11.0758H218.031V16.9049H205.355C204.962 16.9049 204.615 17.0437 204.338 17.3212C204.199 17.4369 204.083 17.5988 204.014 17.7607C203.944 17.9227 203.898 18.1077 203.898 18.2928C203.898 18.5935 203.991 18.871 204.153 19.1255C204.338 19.4031 204.592 19.6112 204.893 19.7269L214.839 24.5613C216.135 25.1859 217.222 26.1574 218.031 27.3602C218.818 28.5168 219.234 29.9047 219.234 31.3157C219.234 32.611 218.887 33.9064 218.217 35.0167C217.569 36.1501 216.62 37.0985 215.51 37.7693C214.377 38.4401 213.104 38.8102 211.786 38.7871H197.815V32.8886ZM229.898 11.0758V15.0775C230.661 13.7359 231.748 12.6256 233.067 11.8391C234.501 11.0064 236.12 10.59 237.786 10.6363C239.937 10.6363 241.741 11.0758 243.152 11.9548C244.586 12.8338 245.673 14.1522 246.275 15.7252C246.969 14.291 248.125 13.0882 249.814 12.1167C251.526 11.122 253.492 10.6132 255.481 10.6363C257.285 10.6132 259.066 11.0527 260.616 11.9548C262.097 12.8106 263.299 14.0597 264.086 15.5633C264.919 17.1362 265.335 18.8942 265.312 20.6522V38.6946H257.956V22.9653C257.956 21.1379 257.493 19.6575 256.591 18.5472C256.152 18.0152 255.62 17.5757 254.972 17.275C254.348 16.9743 253.654 16.8355 252.96 16.8586C252.22 16.8355 251.479 16.9511 250.809 17.2518C250.138 17.5526 249.536 17.9689 249.051 18.5241C248.079 19.6344 247.593 21.1148 247.593 22.9422V38.6715H240.191V22.9422C240.191 21.1148 239.729 19.6344 238.827 18.5241C238.387 17.992 237.855 17.5526 237.207 17.2518C236.583 16.9511 235.889 16.8123 235.195 16.8355C234.455 16.8123 233.738 16.9511 233.067 17.2287C232.396 17.5063 231.795 17.9458 231.309 18.5009C230.314 19.6112 229.828 21.0916 229.828 22.919V38.6483H222.426V11.0758H229.898Z" fill="white"/>
</g>
<defs>
<clipPath id="clip0_791_5574">
<rect width="264.831" height="50" fill="white" transform="translate(0.503906)"/>
</clipPath>
</defs>
</svg>
