<svg width="249" height="50" viewBox="0 0 249 50" fill="none" xmlns="http://www.w3.org/2000/svg">
<path fill-rule="evenodd" clip-rule="evenodd" d="M24.0873 0C32.5632 0 40.0208 4.72781 44.213 11.8102L43.6973 11.7851C29.1996 11.1858 12.9307 12.2398 1.94908 16.0502C5.37495 6.68071 14.0139 0 24.0873 0ZM44.7685 12.8006C45.2936 13.7844 45.7576 14.8092 46.154 15.8672C28.6561 15.3992 9.63873 18.5135 0.378001 25.4236C0.376675 25.2844 0.374023 25.1412 0.374023 24.998C0.374023 22.8582 0.632555 20.7793 1.11647 18.7946C11.1846 13.8374 27.9852 12.0953 43.4891 12.7357C43.924 12.7555 44.3496 12.7768 44.7685 12.8006ZM46.4934 16.8337C46.862 17.954 47.159 19.1101 47.3751 20.2954C28.4572 19.9003 9.21978 24.8349 1.82445 33.5972C1.27767 32.0323 0.882964 30.4184 0.645813 28.7779C8.10213 20.3829 27.7094 16.2716 46.4934 16.8337ZM47.5302 21.2553C47.6866 22.3491 47.7794 23.4667 47.7953 24.6016C27.6378 24.0395 10.714 30.4921 5.64276 40.677C4.61419 39.3359 3.72277 37.8951 2.98188 36.376C8.73188 26.6089 27.8115 20.7965 47.5302 21.2553ZM47.794 25.5602C47.7715 26.5983 47.688 27.6218 47.5487 28.6241C27.9574 27.9771 15.5545 35.7887 11.4511 46.1366C10.0521 45.2003 8.75464 44.1205 7.57976 42.9149C11.4617 32.1573 27.2825 24.9543 47.794 25.5602ZM47.3234 29.9936C45.1185 41.3849 35.5277 50 24.0873 50C20.3844 50 16.875 49.0958 13.7474 47.4876C17.2409 37.2723 28.2278 29.4487 47.3234 29.9936ZM216.044 9.87458V37.4553H223.9V26.9005H230.755V37.4553H238.61V9.87458H230.755V19.1539H223.9V9.87458H216.044ZM207.144 20.3458H214.786C214.734 19.4376 214.539 18.3305 214.196 17.026C213.853 15.72 213.234 14.4725 212.334 13.2792C211.435 12.0873 210.18 11.0665 208.571 10.2153C206.961 9.36414 204.853 8.93856 202.243 8.93856C200.619 8.92933 199.007 9.22525 197.492 9.81093C195.993 10.3937 194.652 11.3196 193.577 12.5142C192.46 13.734 191.575 15.2958 190.914 17.1957C190.257 19.0982 189.928 21.3666 189.928 24.0063C189.928 28.3205 191.015 31.6973 193.196 34.1368C195.377 36.5762 198.469 37.8556 202.471 37.967C204.219 38.0519 205.84 37.8119 207.337 37.2444C208.794 36.7009 210.131 35.8765 211.271 34.8182C212.398 33.7704 213.32 32.5219 213.99 31.1365C214.674 29.7316 215.075 28.2057 215.169 26.646H207.146C206.996 27.5555 206.76 28.2979 206.445 28.8813C206.129 29.4646 205.766 29.9247 205.363 30.2641C204.988 30.5895 204.545 30.8289 204.068 30.9654C203.648 31.0893 203.213 31.154 202.775 31.1577C201.71 31.1577 200.838 30.7825 200.151 30.0308C199.467 29.2803 198.955 28.3351 198.613 27.2002C198.271 26.064 198.106 24.831 198.119 23.4972C198.132 22.1634 198.308 20.9291 198.652 19.7942C198.994 18.6594 199.48 17.7154 200.116 16.9636C200.748 16.2119 201.534 15.8354 202.471 15.8354C202.673 15.8354 202.966 15.8433 203.344 15.8566C203.724 15.8712 204.137 16.0064 204.579 16.261C205.025 16.5155 205.476 16.9557 205.932 17.5815C206.385 18.2019 206.788 19.126 207.144 20.3458ZM168.076 9.87458V37.4553H189.452V30.9018H176.006V26.9005H187.227V20.3458H176.006V16.6852H188.987V9.87458H168.076ZM144.253 9.87458V17.3229H150.996V37.4553H158.819V17.3229H165.707V9.87458H144.253ZM119.281 9.87458V37.4553H126.637V27.2399L126.419 22.7296L134.494 37.4553H141.848V9.87458H134.206V19.7492L134.494 24.2198L126.419 9.87458H119.281ZM94.274 9.87458V37.4553H101.63V27.2399L101.413 22.7296L109.485 37.4553H116.841V9.87458H109.199V19.7492L109.485 24.2198L101.413 9.87458H94.274ZM83.5111 9.87458V37.4553H91.2963V9.87458H83.5111ZM63.8137 9.87458H54.4138V37.4553H61.589V26.6447L61.0865 20.3458L65.0692 37.4553H70.6654L74.6826 20.6428L74.1099 26.6447V37.4553H81.248V9.87458H71.8852L67.7951 26.6447L63.8137 9.87458ZM244.628 3.02415C245.263 3.02415 245.884 3.18722 246.489 3.51337C247.095 3.84084 247.566 4.3062 247.905 4.91474C248.242 5.52196 248.413 6.1557 248.413 6.81595C248.413 7.46957 248.247 8.09535 247.911 8.69726C247.579 9.3005 247.11 9.76851 246.512 10.1013C245.937 10.4276 245.288 10.5998 244.627 10.6011C243.969 10.6011 243.339 10.4354 242.741 10.1013C242.148 9.77789 241.661 9.29045 241.337 8.69726C241.009 8.12447 240.836 7.47606 240.835 6.81595C240.835 6.1557 241.003 5.52196 241.343 4.91474C241.669 4.31948 242.162 3.83244 242.761 3.51337C243.333 3.19619 243.975 3.02796 244.628 3.02415ZM244.628 3.65126C244.083 3.65508 243.548 3.79596 243.072 4.06093C242.569 4.33404 242.175 4.72384 241.89 5.22897C241.612 5.71126 241.465 6.25789 241.463 6.81463C241.463 7.35953 241.603 7.8819 241.882 8.38305C242.162 8.8842 242.553 9.27398 243.056 9.55373C243.558 9.83347 244.08 9.97401 244.628 9.97401C245.172 9.97401 245.698 9.83347 246.2 9.55373C246.703 9.27531 247.091 8.8842 247.368 8.38305C247.646 7.8819 247.785 7.36086 247.785 6.81463C247.785 6.26442 247.646 5.73675 247.36 5.22897C247.088 4.73321 246.678 4.32735 246.179 4.06093C245.705 3.79607 245.171 3.65517 244.628 3.65126ZM242.965 8.90674V4.83122H244.364C244.845 4.83122 245.19 4.86702 245.405 4.94259C245.62 5.01816 245.788 5.14941 245.918 5.33635C246.042 5.51138 246.109 5.72003 246.11 5.93429C246.11 6.2326 246.002 6.49113 245.789 6.71121C245.577 6.93262 245.295 7.05592 244.942 7.08376C245.087 7.14342 245.203 7.21634 245.29 7.29987C245.455 7.46161 245.654 7.72943 245.893 8.10861L246.39 8.90541H245.588L245.226 8.2624C244.941 7.75859 244.713 7.44173 244.539 7.31445C244.417 7.22032 244.241 7.17524 244.012 7.17524H243.626V8.90541L242.965 8.90674ZM243.624 6.61443H244.423C244.803 6.61443 245.064 6.5561 245.202 6.4434C245.27 6.3897 245.324 6.32081 245.361 6.24228C245.397 6.16376 245.414 6.07779 245.412 5.9913C245.413 5.87511 245.378 5.76143 245.311 5.66647C245.242 5.56979 245.145 5.49593 245.034 5.45435C244.914 5.40662 244.694 5.38408 244.371 5.38408H243.626L243.624 6.61443Z" fill="white"/>
</svg>
