<svg width="251" height="50" viewBox="0 0 251 50" fill="none" xmlns="http://www.w3.org/2000/svg">
<g clip-path="url(#clip0_791_5571)">
<path d="M242.455 36.4738C242.455 34.55 244.016 33.1309 245.861 33.1309C247.687 33.1309 249.248 34.55 249.248 36.4738C249.248 38.4157 247.687 39.8349 245.861 39.8349C244.016 39.8349 242.455 38.4143 242.455 36.4738Z" stroke="white" stroke-width="9.20076"/>
<path d="M245.182 38.6111H244.206V34.4261H245.968C246.34 34.4261 246.721 34.4317 247.041 34.6394C247.384 34.8652 247.574 35.2737 247.574 35.6821C247.579 35.9151 247.512 36.1438 247.382 36.3372C247.252 36.5306 247.065 36.6791 246.848 36.7625L247.623 38.6111H246.535L245.896 36.9577H245.182V38.6111ZM245.182 36.2384H245.719C245.919 36.2384 246.14 36.2565 246.317 36.1519C246.393 36.0991 246.456 36.028 246.499 35.945C246.541 35.8621 246.562 35.7698 246.561 35.6766C246.559 35.5916 246.536 35.5083 246.495 35.434C246.453 35.3597 246.395 35.2965 246.324 35.25C246.158 35.1454 245.877 35.1705 245.695 35.1705H245.182V36.2384ZM170.968 39.5102C170.968 39.5102 168.986 39.6217 168.19 38.303C167.214 36.6887 167.707 35.7672 168.07 34.5599L170.299 30.75H182.374C182.374 30.75 181.9 31.8053 181.167 33.1659C180.774 33.8964 182.013 34.0107 182.013 34.0107H187.447C187.447 34.0107 189.863 34.132 190.588 32.8034C191.084 31.8903 196.867 21.8127 196.867 21.8127C196.867 21.8127 198.27 19.9224 198.075 19.157C197.838 18.2328 196.142 18.1909 196.142 18.1909H192.399C192.399 18.1909 190.345 18.0697 189.862 18.7946C189.105 19.9307 188.051 21.4516 188.051 21.4516H175.613L178.027 17.7072C178.027 17.7072 179.381 15.8085 180.927 14.809C182.979 13.4804 185.274 13.4804 185.274 13.4804L207.364 13.5362C207.364 13.5362 209.901 13.2936 211.108 15.9507C212.093 18.1157 209.055 22.5989 209.055 22.5989L202.06 34.3731C202.06 34.3731 200.175 36.895 198.195 38.1162C195.436 39.8197 192.277 39.4447 192.277 39.4447L170.968 39.5102ZM126.038 45.7249C125.313 47.4159 125.434 48.987 125.434 48.987H110.761C110.761 48.987 111.283 48.1701 111.849 47.4159C112.936 45.9661 113.781 44.3964 113.781 44.3964L123.744 27.368C125.612 24.3318 128.937 18.5534 129.903 16.7411C130.621 15.3931 130.507 13.4804 130.507 13.4804H143.49V15.1728C143.49 15.1728 144.576 14.328 145.301 13.9656C145.931 13.6505 147.475 13.4818 147.475 13.4818L158.943 13.5376C158.943 13.5376 161.48 13.295 162.687 15.9521C163.671 18.1171 160.749 22.6003 160.749 22.6003L153.875 34.3676C153.875 34.3676 152.105 36.8894 149.78 38.2263C146.969 39.8434 143.862 39.5548 143.862 39.5548L133.828 39.4461C133.828 39.4461 132.015 39.3262 131.413 38.3587C130.808 37.394 131.051 37.5139 131.051 37.5139L126.038 45.7249ZM144.697 18.1909C144.697 18.1909 143.368 18.0697 142.522 18.6733C141.677 19.2769 141.194 20.1231 141.194 20.1231L134.07 31.8373C134.07 31.8373 133.224 32.8034 133.586 33.5283C133.949 34.2532 134.915 34.0107 134.915 34.0107H139.624C139.624 34.0107 140.228 34.132 141.194 33.6482C142.16 33.1659 143.006 31.7161 143.006 31.7161L149.767 20.4856C149.767 20.4856 150.613 19.6394 150.13 18.7946C149.748 18.1226 148.924 18.1909 148.924 18.1909H144.697ZM101.342 39.4447L102.429 36.6677C102.429 36.6677 100.135 38.48 98.0812 39.0822C96.6481 39.5046 95.9064 39.4447 95.9064 39.4447H84.9185C84.9185 39.4447 82.9362 39.5548 82.1402 38.2374C81.1643 36.6231 81.4069 35.7756 81.899 34.6143C82.6058 32.947 84.9687 29.2597 86.1258 27.368C88.4036 23.6473 90.8683 22.5306 92.2847 22.1752C95.1829 21.4502 97.4775 21.6928 97.4775 21.6928H107.622C107.622 21.6928 109.348 21.6733 110.279 21.3304C111.074 21.0376 111.367 20.243 111.367 20.243L111.729 19.3982C111.969 18.0697 110.761 18.1909 110.761 18.1909H96.7526C96.7526 18.1909 95.9078 18.0697 94.6992 18.3108C93.4919 18.5534 92.4046 19.157 92.4046 19.157L95.7866 13.4804H121.139C121.139 13.4804 123.675 13.2393 124.882 15.8963C125.866 18.0613 122.828 22.6575 122.828 22.6575C122.828 22.6575 115.462 34.493 114.737 36.184C114.012 37.875 114.134 39.4461 114.134 39.4461H101.342V39.4447ZM106.535 27.1268H101.945C101.945 27.1268 100.518 27.0571 99.1685 27.368C98.1634 27.5994 96.6258 31.1124 96.6258 31.1124C96.6258 31.1124 95.399 32.6738 95.6653 33.407C95.8702 33.9661 96.7986 34.0107 96.7986 34.0107H101.583C101.583 34.0107 102.871 33.9479 103.515 33.2858C104.683 32.0883 107.14 27.8517 107.14 27.8517C107.14 27.8517 107.144 28.2086 107.14 27.6106C107.131 26.9595 106.535 27.1268 106.535 27.1268ZM46.3841 24.8936C46.3841 24.8936 49.2795 20.3545 48.4375 18.1296C47.3459 15.2439 44.6945 15.5938 44.6945 15.5938L26.7084 15.5339C26.7084 15.5339 25.8636 15.775 25.621 14.6877C25.3798 13.6003 26.5885 12.2732 26.5885 12.2732C26.5885 12.2732 27.0708 11.3071 27.7957 10.7035C28.5206 10.0999 30.0903 10.0999 30.0903 10.0999H51.1029C51.1029 10.0999 51.7079 9.97857 52.7939 10.341C53.4631 10.5641 54.1225 11.5483 54.1225 11.5483L60.0402 1.40374H32.385C32.385 1.40374 27.8125 1.0148 25.2599 2.4911C22.1791 4.27131 21.5155 5.02828 20.187 7.08033C19.4537 8.2137 18.6173 9.85729 18.6173 9.85729L12.9421 19.3982C12.9421 19.3982 11.5229 21.3011 11.7334 22.7788C11.8547 23.625 12.0959 24.3499 13.1832 24.8322C14.2706 25.316 16.2028 25.1947 16.2028 25.1947H23.8101C23.8101 25.1947 25.2599 25.316 25.8636 24.8322C27.0931 23.848 28.5402 22.2574 29.7279 21.934C31.0564 21.5715 32.8645 21.5395 34.1958 22.4289C35.5021 23.3015 35.1996 23.2569 36.2493 24.7123C37.0969 25.8861 37.0941 26.6445 37.0941 26.6445L33.8348 25.4358C33.8348 25.4358 32.7112 24.8685 32.1438 25.0734C31.5471 25.2909 30.6758 25.0832 29.8492 27.368C29.2163 29.1175 29.2846 30.2872 30.4528 30.8713C32.1438 31.7161 35.2832 32.441 35.2832 32.441C35.2832 32.441 33.5922 34.0107 31.2976 34.2532C29.2567 34.4665 27.4612 33.6287 26.5885 32.8034C25.3255 31.6073 26.1284 31.8931 25.1387 31.2323C24.0513 30.5074 21.9993 30.5074 21.9993 30.5074H9.5601C9.5601 30.5074 8.95648 30.75 7.50666 30.2662C6.26735 29.8536 6.4193 29.5413 6.4193 29.5413L0.50293 39.4517H28.7618C28.7618 39.4517 33.3134 39.6901 36.0081 38.48C39.0973 37.0915 40.9598 34.0121 40.9598 34.0121L46.3841 24.895M216.79 13.4735C216.79 13.4735 216.906 15.3861 216.187 16.7342C215.221 18.5464 212.012 24.2091 210.144 27.2453C208.211 30.3861 207.728 31.2323 205.192 35.579C203.537 38.4173 201.69 39.4433 201.69 39.4433H217.631C217.631 39.4433 217.027 39.3234 217.51 37.3913C217.992 35.4577 221.858 29.2988 223.186 27.1254C224.348 25.2253 227.533 19.7593 227.533 19.7593C227.533 19.7593 228.724 18.1896 230.433 18.1896H235.383C235.383 18.1896 237.436 18.0683 236.47 19.8791C235.642 21.4307 231.686 27.9256 229.828 31.111C228.315 33.704 227.155 35.6598 226.135 36.9479C224.303 39.2579 223.186 39.4433 223.186 39.4433H238.885C238.885 39.4433 238.765 37.8736 239.49 36.1826C240.215 34.4916 247.581 22.6575 247.581 22.6575C247.581 22.6575 250.503 18.1756 249.519 16.0092C248.311 13.3522 245.774 13.4721 245.774 13.4721L235.56 13.5111C235.56 13.5111 233.246 13.4135 232.128 13.9572C231.165 14.4342 230.333 15.1408 229.708 16.0148L230.558 13.4735H216.79ZM161 29.059C161 29.059 162.563 25.8596 164.02 24.8308C166.073 23.381 168.127 23.5023 168.127 23.5023H186.966L183.584 29.0576L161 29.059ZM54.7289 13.4735C54.7289 13.4735 54.8432 15.2718 54.1238 16.6185C53.1578 18.4307 49.8343 24.2091 47.9649 27.2467C46.0328 30.3861 45.549 31.2323 43.0132 35.579C41.3585 38.4173 39.5114 39.4433 39.5114 39.4433H55.4524C55.4524 39.4433 54.8488 39.3234 55.3325 37.3913C55.8148 35.4577 59.6792 29.2988 61.0063 27.1254C62.1689 25.2253 65.3557 19.7593 65.3557 19.7593C65.3557 19.7593 66.5463 18.1896 68.254 18.1896H73.2057C73.2057 18.1896 75.2577 18.0683 74.2916 19.8805C73.465 21.4307 69.5072 27.927 67.6504 31.111C66.1378 33.704 64.978 35.6598 63.9561 36.9479C62.1243 39.2579 61.0077 39.4433 61.0077 39.4433H76.7075C76.7075 39.4433 76.5862 37.8736 77.3111 36.1826C78.0361 34.4916 85.4009 22.6589 85.4009 22.6589C85.4009 22.6589 88.4385 18.177 87.4543 16.0106C86.2457 13.3536 83.7099 13.4749 83.7099 13.4749L73.4956 13.5125C73.4956 13.5125 71.1815 13.4149 70.0635 13.9586C69.0792 14.4534 68.2137 15.1553 67.5263 16.0162L68.4938 13.4749H54.7275" fill="white"/>
</g>
<defs>
<clipPath id="clip0_791_5571">
<rect width="250" height="50" fill="white" transform="translate(0.50293)"/>
</clipPath>
</defs>
</svg>
