<svg width="340" height="50" viewBox="0 0 340 50" fill="none" xmlns="http://www.w3.org/2000/svg">
<g clip-path="url(#clip0_791_5568)">
<path d="M15.8053 38.9323C10.4527 42.0203 5.39782 42.0724 1.84599 41.4548L0.980359 46.3386C0.749688 47.6829 1.68229 48.7916 3.05391 48.7916H45.6808C47.05 48.7916 48.3844 47.6829 48.6076 46.3386L54.0495 15.5205C34.7352 12.3804 27.8746 31.9502 15.8053 38.9323ZM54.0817 1.20898H11.4548C10.0782 1.20898 8.75619 2.31273 8.51808 3.66699L3.43588 32.476C6.90834 33.3268 12.5561 33.7509 18.5659 30.2784C30.3226 23.4749 36.893 5.0659 55.6518 6.44496L56.1429 3.66699C56.3785 2.31273 55.4484 1.20898 54.0817 1.20898Z" fill="white"/>
<path d="M303.519 5.1881L296.215 46.4037H306.654L309.804 28.404H324.892L321.693 46.4037H332.194L339.504 5.1881H329L326.122 21.2458H311.092L313.961 5.1881H303.519ZM195.565 46.4062H206.256L212.308 12.3488H221.368L226.403 5.19058H191.518L190.262 12.3488H201.622L195.565 46.4062ZM252.558 21.2458H238.371L239.901 12.3488H256.291L261.272 5.1881H230.769L223.457 46.4062H255.612L253.01 39.243H235.228L237.059 28.404H251.212L252.558 21.2458ZM67.1563 16.868C67.2183 23.3664 73.5878 26.38 78.1591 28.2155C82.4748 29.9914 85.037 31.5391 85.0668 34.2724C85.0916 37.0132 82.1822 39.1041 77.7399 39.2678C74.8131 39.3819 70.6164 38.4964 67.3969 37.2786C67.2332 37.4423 62.0568 42.2144 60.7422 43.4298C63.4879 44.9106 69.2051 47.1503 76.269 47.2818C85.9845 47.2818 96.3498 43.0999 96.2159 32.1567C96.1662 27.3449 93.2122 23.5946 86.359 20.71L85.4785 20.3379C82.0185 18.8696 78.1987 17.5277 78.1715 14.8143C78.1467 12.7804 80.4038 10.7391 85.4785 10.5828C88.6459 10.4836 91.1783 11.064 92.7508 11.7188C93.4577 11.069 98.3266 6.58453 99.8346 5.1881C95.5085 3.59127 90.9381 2.75709 86.3268 2.72266C76.9189 2.72266 67.0422 7.08803 67.1563 16.868ZM176.199 5.1881H186.247L178.94 46.4062H175.487L155.739 23.9096L151.693 46.4062H141.685L148.992 5.20795H152.485L172.171 27.6301L176.199 5.1881ZM280.653 39.9921C272.902 39.9921 268.217 35.5721 268.132 28.466C268.07 23.2003 270.077 18.8101 273.944 16.2578C276.367 14.6282 279.574 13.522 283.478 13.522C286.467 13.522 288.526 14.0255 289.939 14.405L294.677 7.58906C291.177 6.28966 287.477 5.6155 283.744 5.59736C277.067 5.59736 273.202 6.62173 268.834 8.95324C261.857 12.7457 257.117 19.7179 257.226 29.3837C257.385 42.708 267.011 48.2739 277.823 48.2739C282.727 48.2739 287.571 47.2446 290.339 46.2524L287.739 38.8635C285.8 39.5183 283.714 39.9921 280.653 39.9921ZM131.04 6.32409L126.997 29.1183C125.64 36.6784 122.736 40.1012 117.47 40.1012C112.918 40.1012 110.825 36.9487 110.716 33.9252C110.691 31.5044 110.964 29.5524 111.162 28.5974L115.106 6.32409H104.847L100.986 28.1014C100.705 29.8699 100.477 31.8268 100.502 33.5953C100.604 43.3802 106.43 48.4029 116.272 48.2739C129.685 48.2739 134.976 41.8498 137.384 28.399L141.303 6.32409H131.04Z" fill="white"/>
</g>
<defs>
<clipPath id="clip0_791_5568">
<rect width="338.753" height="50" fill="white" transform="translate(0.75)"/>
</clipPath>
</defs>
</svg>
