<svg width="227" height="50" viewBox="0 0 227 50" fill="none" xmlns="http://www.w3.org/2000/svg">
<g clip-path="url(#clip0_794_6956)">
<path fill-rule="evenodd" clip-rule="evenodd" d="M62.5669 9.98063H36.7848C34.9485 9.97851 33.1365 10.3993 31.4892 11.2105C29.8418 12.0216 28.4034 13.2013 27.2855 14.658L21.595 22.1399L13.3284 11.2597H0.414062L15.1353 30.6376L0.415354 49.9987H13.3284L21.5847 39.1288L29.8436 49.9987H42.7579L28.0444 30.6298L35.649 20.6208H60.9019C61.2972 20.621 61.6886 20.699 62.0537 20.8504C62.4188 21.0018 62.7505 21.2237 63.0298 21.5033C63.3092 21.7829 63.5308 22.1148 63.6819 22.48C63.833 22.8452 63.9106 23.2367 63.9105 23.6319L63.9118 39.3598H52.5359C52.359 39.3598 52.1839 39.325 52.0205 39.2572C51.8571 39.1895 51.7086 39.0902 51.5836 38.9651C51.4586 38.84 51.3594 38.6914 51.2919 38.5279C51.2243 38.3645 51.1896 38.1893 51.1898 38.0124V34.5173H60.2424V25.4375H40.5509V38.0124C40.5506 39.5864 40.8603 41.1451 41.4625 42.5995C42.0647 44.0538 42.9474 45.3752 44.0604 46.4883C45.1734 47.6014 46.4947 48.4843 47.949 49.0866C49.4032 49.6889 50.9619 49.9989 52.5359 49.9987H74.5506V21.9657C74.5508 20.3918 74.241 18.8334 73.6388 17.3793C73.0366 15.9252 72.1539 14.604 71.0411 13.4911C69.9283 12.3781 68.6072 11.4953 67.1532 10.893C65.6992 10.2907 64.1407 9.98063 62.5669 9.98063ZM167.763 39.3611H147.409C147.014 39.3611 146.622 39.2832 146.257 39.1318C145.892 38.9803 145.56 38.7584 145.28 38.4787C145.001 38.1989 144.779 37.8668 144.628 37.5013C144.477 37.1359 144.399 36.7442 144.4 36.3487V20.6221H155.775C155.952 20.6216 156.127 20.656 156.291 20.7234C156.454 20.7908 156.603 20.8898 156.728 21.0148C156.853 21.1397 156.952 21.2882 157.02 21.4516C157.087 21.615 157.122 21.7901 157.122 21.967V25.4621H148.069V34.5418H167.762V21.9657C167.762 20.3915 167.452 18.8327 166.85 17.3783C166.248 15.9239 165.365 14.6024 164.252 13.4893C163.139 12.3762 161.817 11.4933 160.363 10.8911C158.908 10.2888 157.35 9.979 155.775 9.97934H133.761V38.0111C133.76 39.5851 134.07 41.1438 134.672 42.5981C135.274 44.0524 136.157 45.3738 137.269 46.4869C138.382 47.6 139.704 48.483 141.158 49.0853C142.612 49.6876 144.171 49.9976 145.744 49.9974H167.762L167.763 39.3611ZM194.259 9.98192H170.331V38.0137C170.331 39.5877 170.641 41.1463 171.243 42.6007C171.845 44.055 172.727 45.3764 173.84 46.4895C174.953 47.6026 176.274 48.4855 177.728 49.0879C179.183 49.6902 180.741 50.0002 182.315 50H194.08V39.3611H183.979C183.583 39.3611 183.192 39.2832 182.826 39.1318C182.461 38.9803 182.129 38.7584 181.85 38.4787C181.57 38.1989 181.349 37.8668 181.197 37.5013C181.046 37.1359 180.969 36.7442 180.969 36.3487V20.6221H194.259V9.98192ZM107.739 21.9682C107.739 20.394 107.429 18.8352 106.826 17.3808C106.224 15.9264 105.341 14.6049 104.228 13.4918C103.115 12.3787 101.793 11.4959 100.339 10.8936C98.884 10.2914 97.3252 9.98158 95.7509 9.98192H77.2068V49.9987H87.8457V20.6221C91.3369 20.6221 89.9869 20.626 94.0873 20.626C94.4825 20.6256 94.8738 20.7032 95.239 20.8543C95.6042 21.0054 95.936 21.227 96.2154 21.5064C96.4948 21.7858 96.7164 22.1176 96.8675 22.4828C97.0186 22.8479 97.0962 23.2393 97.0958 23.6345V49.9987H107.737L107.739 21.9682ZM131.481 20.6221V9.98192H120.664V0H110.024V38.0124C110.024 39.5865 110.334 41.1452 110.936 42.5996C111.539 44.0539 112.422 45.3753 113.535 46.4884C114.648 47.6014 115.969 48.4843 117.423 49.0867C118.878 49.689 120.437 49.9989 122.011 49.9987H130.572V39.3598C126.422 39.3598 127.773 39.3547 123.674 39.3547C123.279 39.355 122.888 39.2774 122.522 39.1264C122.157 38.9753 121.825 38.7537 121.546 38.4743C121.266 38.1949 121.044 37.8631 120.893 37.498C120.742 37.1328 120.664 36.7414 120.664 36.3461V20.6221H131.481ZM215.258 9.98192H207.353V0H196.715V49.9987H207.353V20.6221C210.846 20.6221 209.493 20.626 213.594 20.626C213.989 20.6256 214.381 20.7032 214.746 20.8543C215.111 21.0053 215.443 21.2269 215.723 21.5063C216.002 21.7857 216.224 22.1175 216.375 22.4827C216.526 22.8479 216.604 23.2392 216.604 23.6345V49.9987H227.244V21.9682C227.244 20.3941 226.934 18.8354 226.332 17.3811C225.73 15.9268 224.847 14.6053 223.734 13.4923C222.621 12.3792 221.299 11.4963 219.845 10.894C218.391 10.2917 216.832 9.98175 215.258 9.98192Z" fill="white"/>
</g>
<defs>
<clipPath id="clip0_794_6956">
<rect width="227" height="50" fill="white"/>
</clipPath>
</defs>
</svg>
