<svg width="64" height="64" viewBox="0 0 64 64" fill="none" xmlns="http://www.w3.org/2000/svg">
<mask id="path-1-inside-1_462_1334" fill="white">
<path fill-rule="evenodd" clip-rule="evenodd" d="M16.8802 8.5L34.5048 18.657L34.5155 33.0022L22.3005 39.8341L9 32.169V48.5C9 51.8137 11.6863 54.5 15 54.5H40.499L31.9836 49.5559L31.9839 41.5L38.9834 37.5L55 46.7994V14.5C55 11.1863 52.3137 8.5 49 8.5H16.8802Z"/>
</mask>
<path fill-rule="evenodd" clip-rule="evenodd" d="M16.8802 8.5L34.5048 18.657L34.5155 33.0022L22.3005 39.8341L9 32.169V48.5C9 51.8137 11.6863 54.5 15 54.5H40.499L31.9836 49.5559L31.9839 41.5L38.9834 37.5L55 46.7994V14.5C55 11.1863 52.3137 8.5 49 8.5H16.8802Z" fill="white"/>
<path d="M16.8802 8.5L15.8816 10.2328L9.40427 6.5H16.8802V8.5ZM34.5048 18.657L35.5034 16.9242L36.5039 17.5007L36.5048 18.6555L34.5048 18.657ZM34.5155 33.0022L36.5155 33.0008L36.5163 34.1747L35.4917 34.7478L34.5155 33.0022ZM22.3005 39.8341L23.2768 41.5796L22.2857 42.1339L21.3019 41.5669L22.3005 39.8341ZM9 32.169H7V28.7081L9.99863 30.4362L9 32.169ZM40.499 54.5L41.5032 52.7704L47.9269 56.5H40.499V54.5ZM31.9836 49.5559L30.9794 51.2855L29.9836 50.7073L29.9836 49.5558L31.9836 49.5559ZM31.9839 41.5L29.9839 41.5L29.984 40.3394L30.9916 39.7636L31.9839 41.5ZM38.9834 37.5L37.9911 35.7635L38.9913 35.1919L39.9876 35.7704L38.9834 37.5ZM55 46.7994H57V50.2732L53.9958 48.529L55 46.7994ZM17.8788 6.76716L35.5034 16.9242L33.5062 20.3898L15.8816 10.2328L17.8788 6.76716ZM36.5048 18.6555L36.5155 33.0008L32.5155 33.0037L32.5048 18.6585L36.5048 18.6555ZM35.4917 34.7478L23.2768 41.5796L21.3242 38.0885L33.5392 31.2567L35.4917 34.7478ZM21.3019 41.5669L8.00137 33.9019L9.99863 30.4362L23.2991 38.1012L21.3019 41.5669ZM11 32.169V48.5H7V32.169H11ZM11 48.5C11 50.7091 12.7909 52.5 15 52.5V56.5C10.5817 56.5 7 52.9183 7 48.5H11ZM15 52.5H40.499V56.5H15V52.5ZM39.4948 56.2296L30.9794 51.2855L32.9879 47.8263L41.5032 52.7704L39.4948 56.2296ZM29.9836 49.5558L29.9839 41.5L33.9839 41.5001L33.9836 49.556L29.9836 49.5558ZM30.9916 39.7636L37.9911 35.7635L39.9757 39.2364L32.9763 43.2365L30.9916 39.7636ZM39.9876 35.7704L56.0042 45.0698L53.9958 48.529L37.9792 39.2296L39.9876 35.7704ZM53 46.7994V14.5H57V46.7994H53ZM53 14.5C53 12.2909 51.2091 10.5 49 10.5V6.5C53.4183 6.5 57 10.0817 57 14.5H53ZM49 10.5H16.8802V6.5H49V10.5Z" fill="#25316D" mask="url(#path-1-inside-1_462_1334)"/>
<path d="M39 37.5L45.9282 41.5V49.5L39 53.5L32.0718 49.5V41.5L39 37.5Z" fill="#CB2027"/>
<path d="M22.5 14.5L32.4593 20.25V31.75L22.5 37.5L12.5407 31.75V20.25L22.5 14.5Z" fill="#CB2027"/>
</svg>
