<svg width="64" height="64" viewBox="0 0 64 64" fill="none" xmlns="http://www.w3.org/2000/svg">
<path d="M5 24.4565L56 18L33.9773 45L27.0227 37.3696L15.4318 42.6522L16.0114 28.5652L5 24.4565Z" fill="white"/>
<path d="M23.001 31.9995L27.5 37.5L18.001 41.9995L23.001 31.9995Z" fill="#CB2027"/>
<path d="M17.4999 29.0002L48 21.5L23 31L17 41.5L17.4999 29.0002Z" fill="#CB2027"/>
<path d="M17.2191 43.2322L27.9727 37.8414M17.6302 29.4644L16.7578 43.2583L22.7122 31.7907" stroke="#25316D" stroke-width="2" stroke-miterlimit="1.5" stroke-linecap="round" stroke-linejoin="round"/>
<path d="M5.0498 25.3734L17.8871 29.0775L57.5201 18.7451L5.0498 25.3734Z" stroke="#25316D" stroke-width="2" stroke-miterlimit="1.5" stroke-linecap="round" stroke-linejoin="round"/>
<path d="M36.5591 43.2087L57.7133 18.8196L22.9697 31.2959M23.1542 31.8715L34.351 44.4862" stroke="#25316D" stroke-width="2" stroke-miterlimit="1.5" stroke-linecap="round" stroke-linejoin="round"/>
<path d="M33.5 16.5L20.5 17.5M32 49.5L24.5 57M15 18L5 18.5" stroke="#25316D" stroke-width="2" stroke-linecap="round" stroke-linejoin="round"/>
</svg>
