<svg width="64" height="64" viewBox="0 0 64 64" fill="none" xmlns="http://www.w3.org/2000/svg">
<path d="M41.949 10.5688L42.1914 10.5697L42.2148 10.3382C42.5737 6.78095 45.6985 4 49.5 4C53.5425 4 56.8196 7.14459 56.8196 11.0236C56.8196 11.6444 56.7357 12.2461 56.5784 12.8188L56.4448 13.3052L56.9327 13.1214C57.3523 12.9634 57.8093 12.8766 58.2882 12.8766C60.3382 12.8766 62 14.4712 62 16.4383C62 18.4053 60.3382 20 58.2882 20H58.2592H58.2303H58.2014H58.1725H58.1436H58.1148H58.086H58.0572H58.0284H57.9996H57.9708H57.9421H57.9134H57.8846H57.8559H57.8273H57.7986H57.7699H57.7413H57.7127H57.6841H57.6555H57.6269H57.5984H57.5698H57.5413H57.5128H57.4843H57.4558H57.4273H57.3988H57.3704H57.3419H57.3135H57.2851H57.2567H57.2283H57.1999H57.1716H57.1432H57.1149H57.0866H57.0583H57.0299H57.0016H56.9734H56.9451H56.9168H56.8886H56.8603H56.8321H56.8039H56.7757H56.7475H56.7193H56.6911H56.6629H56.6347H56.6066H56.5784H56.5503H56.5221H56.494H56.4659H56.4377H56.4097H56.3815H56.3535H56.3253H56.2973H56.2692H56.2411H56.2131H56.185H56.1569H56.1289H56.1009H56.0728H56.0448H56.0168H55.9887H55.9607H55.9327H55.9047H55.8767H55.8486H55.8207H55.7927H55.7647H55.7367H55.7087H55.6807H55.6527H55.6247H55.5967H55.5687H55.5408H55.5128H55.4848H55.4568H55.4289H55.4009H55.3729H55.3449H55.317H55.289H55.261H55.233H55.2051H55.1771H55.1491H55.1211H55.0932H55.0652H55.0372H55.0092H54.9812H54.9532H54.9252H54.8972H54.8692H54.8412H54.8132H54.7852H54.7572H54.7292H54.7012H54.6732H54.6451H54.6171H54.5891H54.561H54.533H54.5049H54.4769H54.4488H54.4208H54.3927H54.3646H54.3365H54.3084H54.2803H54.2522H54.2241H54.196H54.1679H54.1398H54.1116H54.0835H54.0553H54.0272H53.999H53.9708H53.9426H53.9144H53.8862H53.858H53.8298H53.8015H53.7733H53.745H53.7168H53.6885H53.6602H53.6319H53.6036H53.5753H53.5469H53.5186H53.4902H53.4619H53.4335H53.4051H53.3767H53.3483H53.3199H53.2914H53.263H53.2345H53.206H53.1776H53.149H53.1205H53.092H53.0635H53.0349H53.0063H52.9777H52.9491H52.9205H52.8919H52.8632H52.8345H52.8059H52.7772H52.7484H52.7197H52.691H52.6622H52.6334H52.6046H52.5758H52.547H52.5181H52.4892H52.4603H52.4314H52.4025H52.3736H52.3446H52.3156H52.2866H52.2576H52.2286H52.1995H52.1705H52.1414H52.1122H52.0831H52.0539H52.0248H51.9956H51.9664H51.9371H51.9078H51.8786H51.8493H51.8199H51.7906H51.7612H51.7318H51.7024H51.673H51.6435H51.614H51.5845H51.5549H51.5254H51.4958H51.4662H51.4366H51.4069H51.3773H51.3476H51.3178H51.2881H51.2583H51.2285H51.1987H51.1688H51.1389H51.109H51.0791H51.0491H51.0191H50.9891H50.9591H50.929H50.8989H50.8688H50.8386H50.8085H50.7782H50.748H50.7177H50.6874H50.6571H50.6268H50.5964H50.566H50.5356H50.5051H50.4746H50.4441H50.4135H50.3829H50.3523H50.3216H50.291H50.2602H50.2295H50.1987H50.1679H50.1371H50.1062H50.0753H50.0444H50.0134H49.9824H49.9514H49.9203H49.8892H49.858H49.8269H49.7957H49.7644H49.7332H49.7019H49.6705H49.6391H49.6077H49.5763H49.5448H49.5133H49.4817H49.4502H49.4185H49.3869H49.3552H49.3234H49.2917H49.2599H49.228H49.1961H49.1642H49.1323H49.1003H49.0682H49.0362H49.0041H48.9719H48.9397H48.9075H48.8752H48.8429H48.8106H48.7782H48.7458H48.7133H48.6808H48.6483H48.6157H48.5831H48.5504H48.5177H48.4849H48.4522H48.4193H48.3865H48.3536H48.3206H48.2876H48.2546H48.2215H48.1884H48.1552H48.122H48.0887H48.0554H48.0221H47.9887H47.9553H47.9218H47.8883H47.8547H47.8211H47.7874H47.7537H47.72H47.6862H47.6524H47.6185H47.5846H47.5506H47.5166H47.4825H47.4484H47.4143H47.38H47.3458H47.3115H47.2771H47.2427H47.2083H47.1738H47.1393H47.1047H47.07H47.0353H47.0006H46.9658H46.931H46.8961H46.8612H46.8262H46.7911H46.7561H46.7209H46.6857H46.6505H46.6152H46.5799H46.5445H46.509H46.4735H46.438H46.4024H46.3667H46.331H46.2953H46.2595H46.2236H46.1877H46.1517H46.1157H46.0796H46.0435H46.0073H45.9711H45.9348H45.8984H45.862H45.8256H45.7891H45.7525H45.7159H45.6792H45.6425H45.6057H45.5688H45.5319H45.495H45.458H45.4209H45.3837H45.3466H45.3093H45.272H45.2347H45.1972H45.1598H45.1222H45.0846H45.047H45.0093H44.9715H44.9337H44.8958H44.8578H44.8198H44.7818H44.7436H44.7054H44.6672H44.6289H44.5905H44.5521H44.5136H44.475H44.4364H44.3977H44.359H44.3202H44.2813H44.2424H44.2034H44.1643H44.1252H44.086H44.0468H44.0075H43.9681H43.9287H43.8892H43.8496H43.81H43.7703H43.7306H43.6907H43.6509H43.6109H43.5709H43.5308H43.4907H43.4505H43.4102H43.3698H43.3294H43.2889H43.2484H43.2078H43.1671H43.1263H43.0855H43.0446H43.0037H42.9627H42.9216H42.8804H42.8392H42.7979H42.7565H42.7151H42.6736H42.632H42.5904H42.5486H42.5069H42.465H42.4231H42.3811H42.339H42.2969H42.2547H42.2124H42.1701H42.1276H42.0851H42.0426H41.9999H41.9572H41.9144C39.2003 20 37 17.8887 37 15.2843C37 12.6801 39.2 10.5689 41.914 10.5686H41.9144L41.949 10.5688Z" fill="white" stroke="#25316D" stroke-width="2"/>
<path d="M34.3105 31.2928C41.6236 31.2928 47.5519 27.0201 47.5519 21.7495V20.2583" stroke="#25316D" stroke-width="2" stroke-linecap="round"/>
<path d="M34 37.9137V31.293" stroke="#25316D" stroke-width="2" stroke-linecap="round"/>
<path d="M5.55312 10.1582L5.77612 10.1591L5.7976 9.94203C6.12778 6.60714 9.00265 4 12.5 4C16.2191 4 19.234 6.94805 19.234 10.5846C19.234 11.1666 19.1569 11.7307 19.0121 12.2676L18.8892 12.7236L19.3381 12.5513C19.7241 12.4032 20.1446 12.3218 20.5851 12.3218C22.4711 12.3218 24 13.8167 24 15.6609C24 17.505 22.4711 19 20.5851 19H20.5585H20.5319H20.5053H20.4787H20.4522H20.4256H20.3991H20.3726H20.3461H20.3196H20.2932H20.2667H20.2403H20.2139H20.1875H20.1611H20.1347H20.1084H20.082H20.0557H20.0293H20.003H19.9768H19.9505H19.9242H19.898H19.8717H19.8455H19.8193H19.7931H19.7669H19.7408H19.7146H19.6885H19.6623H19.6362H19.6101H19.584H19.5579H19.5318H19.5057H19.4796H19.4536H19.4276H19.4015H19.3755H19.3495H19.3235H19.2975H19.2715H19.2455H19.2196H19.1936H19.1677H19.1417H19.1158H19.0899H19.064H19.038H19.0121H18.9862H18.9604H18.9345H18.9086H18.8827H18.8569H18.831H18.8052H18.7793H18.7535H18.7277H18.7018H18.676H18.6502H18.6244H18.5986H18.5728H18.547H18.5212H18.4954H18.4696H18.4438H18.4181H18.3923H18.3665H18.3408H18.315H18.2892H18.2635H18.2377H18.212H18.1862H18.1605H18.1347H18.109H18.0833H18.0575H18.0318H18.006H17.9803H17.9545H17.9288H17.9031H17.8773H17.8516H17.8259H17.8001H17.7744H17.7486H17.7229H17.6972H17.6715H17.6457H17.6199H17.5942H17.5685H17.5427H17.517H17.4912H17.4655H17.4397H17.4139H17.3882H17.3624H17.3367H17.3109H17.2851H17.2593H17.2335H17.2077H17.1819H17.1562H17.1304H17.1046H17.0787H17.0529H17.0271H17.0013H16.9754H16.9496H16.9238H16.8979H16.8721H16.8462H16.8203H16.7944H16.7686H16.7427H16.7168H16.6909H16.665H16.639H16.6131H16.5872H16.5613H16.5353H16.5093H16.4834H16.4574H16.4314H16.4054H16.3794H16.3534H16.3274H16.3013H16.2753H16.2492H16.2232H16.1971H16.171H16.1449H16.1188H16.0927H16.0666H16.0404H16.0143H15.9881H15.9619H15.9358H15.9096H15.8833H15.8571H15.8309H15.8046H15.7784H15.7521H15.7258H15.6995H15.6732H15.6469H15.6205H15.5941H15.5678H15.5414H15.515H15.4886H15.4621H15.4357H15.4092H15.3827H15.3562H15.3297H15.3032H15.2767H15.2501H15.2235H15.1969H15.1703H15.1437H15.1171H15.0904H15.0637H15.037H15.0103H14.9836H14.9568H14.93H14.9033H14.8765H14.8496H14.8228H14.7959H14.769H14.7421H14.7152H14.6883H14.6613H14.6343H14.6073H14.5803H14.5533H14.5262H14.4991H14.472H14.4449H14.4177H14.3906H14.3634H14.3362H14.3089H14.2817H14.2544H14.2271H14.1997H14.1724H14.145H14.1176H14.0902H14.0628H14.0353H14.0078H13.9803H13.9527H13.9252H13.8976H13.87H13.8423H13.8147H13.787H13.7593H13.7316H13.7038H13.676H13.6482H13.6203H13.5925H13.5646H13.5366H13.5087H13.4807H13.4527H13.4247H13.3966H13.3685H13.3404H13.3123H13.2841H13.2559H13.2277H13.1994H13.1711H13.1428H13.1145H13.0861H13.0577H13.0293H13.0008H12.9723H12.9438H12.9152H12.8867H12.858H12.8294H12.8007H12.772H12.7433H12.7145H12.6857H12.6569H12.628H12.5991H12.5702H12.5412H12.5122H12.4832H12.4541H12.4251H12.3959H12.3667H12.3376H12.3083H12.2791H12.2498H12.2205H12.1911H12.1617H12.1322H12.1028H12.0733H12.0437H12.0142H11.9846H11.9549H11.9252H11.8955H11.8657H11.836H11.8061H11.7763H11.7464H11.7164H11.6864H11.6564H11.6264H11.5963H11.5662H11.536H11.5058H11.4755H11.4453H11.415H11.3846H11.3542H11.3238H11.2933H11.2628H11.2322H11.2016H11.171H11.1403H11.1096H11.0788H11.048H11.0172H10.9863H10.9554H10.9245H10.8935H10.8624H10.8313H10.8002H10.769H10.7378H10.7066H10.6752H10.6439H10.6125H10.5811H10.5496H10.5181H10.4866H10.455H10.4233H10.3916H10.3599H10.3281H10.2963H10.2644H10.2325H10.2006H10.1686H10.1365H10.1044H10.0723H10.0401H10.0079H9.97558H9.94323H9.91086H9.87846H9.84599H9.81348H9.78091H9.74832H9.71565H9.68294H9.6502H9.61739H9.58455H9.55167H9.51871H9.48573H9.45267H9.41959H9.38646H9.35326H9.32003H9.28673H9.2534H9.22H9.18656H9.15308H9.11954H9.08594H9.0523H9.01861H8.98487H8.95108H8.91721H8.88332H8.84936H8.81538H8.78132H8.74721H8.71305H8.67884H8.64456H8.61026H8.57588H8.54146H8.50698H8.47243H8.43786H8.40321H8.36852H8.33377H8.29898H8.26411H8.22919H8.19423H8.15921H8.12413H8.08899H8.05381H8.01855H7.98326H7.94791H7.91248H7.87702H7.8415H7.8059H7.77027H7.73457H7.6988H7.663H7.62713H7.59119H7.5552H7.51915H7.48306H7.4469H7.41069H7.3744H7.33807H7.30166H7.2652H7.22869H7.19211H7.15549H7.11878H7.08203H7.04521H7.00833H6.97141H6.93442H6.89735H6.86023H6.82304H6.7858H6.74851H6.71114H6.67371H6.63622H6.59866H6.56106H6.52338H6.48565H6.44784H6.40997H6.37204H6.33404H6.29599H6.25787H6.21968H6.18144H6.14314H6.10475H6.06631H6.0278H5.98924H5.9506H5.91189H5.87314H5.83431H5.7954H5.75645H5.71742H5.67832H5.63917H5.59993H5.56063H5.52129C3.02424 19 1 17.0207 1 14.5791C1 12.1376 3.024 10.1583 5.52085 10.1581H5.52129L5.55312 10.1582Z" fill="white" stroke="#25316D" stroke-width="2"/>
<path d="M27.6896 31.2928C19.7671 31.2928 13.3447 27.0201 13.3447 21.7495V20.2583" stroke="#25316D" stroke-width="2" stroke-linecap="round"/>
<path d="M28 37.9137V31.293" stroke="#25316D" stroke-width="2" stroke-linecap="round"/>
<path d="M26 60.5347H36" stroke="#25316D" stroke-width="2" stroke-linecap="round"/>
<path d="M31 60.5V58" stroke="#25316D" stroke-width="2" stroke-linecap="round"/>
<rect x="16" y="41.2241" width="29.7931" height="16.5517" rx="1" fill="#CB2027"/>
</svg>
