<svg width="64" height="64" viewBox="0 0 64 64" fill="none" xmlns="http://www.w3.org/2000/svg">
<rect x="14" y="8" width="36" height="48" rx="2" fill="white"/>
<path d="M50 5H14C12.3431 5 11 6.34315 11 8V56C11 57.6569 12.3431 59 14 59H50C51.6569 59 53 57.6569 53 56V54.2V18.5V8C53 6.34315 51.6569 5 50 5Z" stroke="#25316D" stroke-width="2" stroke-linecap="round"/>
<path d="M21 37H27" stroke="#25316D" stroke-width="2" stroke-linecap="round"/>
<path d="M21 42H26" stroke="#25316D" stroke-width="2" stroke-linecap="round"/>
<rect x="20" y="47" width="16" height="6" rx="2" fill="#CB2027"/>
<path d="M24.2812 23.25H27.5625M31.5 27V17H35.4375C36.1337 17 36.8014 17.2634 37.2937 17.7322C37.7859 18.2011 38.0625 18.837 38.0625 19.5V20.75C38.0625 21.413 37.7859 22.0489 37.2937 22.5178C36.8014 22.9866 36.1337 23.25 35.4375 23.25H34.7812M42 17V27M27.5625 27V20.125C27.5625 19.2962 27.2168 18.5013 26.6014 17.9153C25.9861 17.3292 25.1515 17 24.2812 17C23.411 17 22.5764 17.3292 21.9611 17.9153C21.3457 18.5013 21 19.2962 21 20.125V27" stroke="#CB2027" stroke-width="2" stroke-linecap="round" stroke-linejoin="round"/>
</svg>
