<svg width="20" height="20" viewBox="0 0 20 20" fill="none" xmlns="http://www.w3.org/2000/svg">
<mask id="mask0_734_9545" style="mask-type:alpha" maskUnits="userSpaceOnUse" x="0" y="0" width="20" height="20">
<rect width="20" height="20" fill="#D9D9D9"/>
</mask>
<g mask="url(#mask0_734_9545)">
<path d="M3.33854 18.3327C2.88021 18.3327 2.48785 18.1695 2.16146 17.8431C1.83507 17.5167 1.67188 17.1243 1.67188 16.666V3.33268C1.67188 2.87435 1.83507 2.48199 2.16146 2.1556C2.48785 1.82921 2.88021 1.66602 3.33854 1.66602H10.0052L15.0052 6.66601V10.2077H13.3385V7.49935H9.17188V3.33268H3.33854V16.666H12.5052V18.3327H3.33854ZM4.17188 15.8327C4.22743 15.1521 4.43576 14.5271 4.79688 13.9577C5.15799 13.3882 5.63021 12.9368 6.21354 12.6035L5.42188 11.1868C5.42188 11.173 5.44965 11.0688 5.50521 10.8743C5.57465 10.8466 5.64063 10.8327 5.70313 10.8327C5.76563 10.8327 5.81076 10.8674 5.83854 10.9368L6.65104 12.3952C6.92882 12.2841 7.2066 12.1973 7.48438 12.1348C7.76215 12.0723 8.04688 12.041 8.33854 12.041C8.63021 12.041 8.91493 12.0723 9.19271 12.1348C9.47049 12.1973 9.74827 12.2841 10.026 12.3952L10.8385 10.9368L11.151 10.8535C11.2205 10.8813 11.2622 10.9299 11.276 10.9993C11.2899 11.0688 11.283 11.1313 11.2552 11.1868L10.4635 12.6035C11.0469 12.9368 11.5191 13.3882 11.8802 13.9577C12.2413 14.5271 12.4497 15.1521 12.5052 15.8327H4.17188ZM6.46354 14.5827C6.57465 14.5827 6.67188 14.541 6.75521 14.4577C6.83854 14.3743 6.88021 14.2771 6.88021 14.166C6.88021 14.0549 6.83854 13.9577 6.75521 13.8743C6.67188 13.791 6.57465 13.7493 6.46354 13.7493C6.35243 13.7493 6.25521 13.791 6.17188 13.8743C6.08854 13.9577 6.04688 14.0549 6.04688 14.166C6.04688 14.2771 6.08854 14.3743 6.17188 14.4577C6.25521 14.541 6.35243 14.5827 6.46354 14.5827ZM10.2135 14.5827C10.3247 14.5827 10.4219 14.541 10.5052 14.4577C10.5885 14.3743 10.6302 14.2771 10.6302 14.166C10.6302 14.0549 10.5885 13.9577 10.5052 13.8743C10.4219 13.791 10.3247 13.7493 10.2135 13.7493C10.1024 13.7493 10.0052 13.791 9.92188 13.8743C9.83854 13.9577 9.79688 14.0549 9.79688 14.166C9.79688 14.2771 9.83854 14.3743 9.92188 14.4577C10.0052 14.541 10.1024 14.5827 10.2135 14.5827ZM16.6719 18.3327L13.3385 14.9993L14.5052 13.8118L15.8385 15.1243V11.666H17.5052V15.1243L18.8385 13.8118L20.0052 14.9993L16.6719 18.3327Z" fill="#303030"/>
</g>
</svg>
