<svg width="30" height="30" viewBox="0 0 30 30" fill="none" xmlns="http://www.w3.org/2000/svg">
<rect width="30" height="30" rx="15" fill="#CB2027"/>
<mask id="mask0_259_1021" style="mask-type:alpha" maskUnits="userSpaceOnUse" x="3" y="3" width="24" height="24">
<rect x="3" y="3" width="24" height="24" fill="#D9D9D9"/>
</mask>
<g mask="url(#mask0_259_1021)">
<path d="M15.7071 22.2929C15.3166 22.6834 14.6834 22.6834 14.2929 22.2929L7.70003 15.7C7.31241 15.3124 7.30964 14.6848 7.69381 14.2938C8.08281 13.8979 8.72003 13.895 9.11253 14.2875L12.2929 17.4679C12.9229 18.0979 14 17.6517 14 16.7608V8C14 7.44772 14.4477 7 15 7C15.5523 7 16 7.44772 16 8V16.7608C16 17.6517 17.0771 18.0979 17.7071 17.4679L20.8875 14.2875C21.28 13.895 21.9172 13.8979 22.3062 14.2938C22.6904 14.6848 22.6876 15.3124 22.3 15.7L15.7071 22.2929Z" fill="white"/>
</g>
</svg>
