<svg width="64" height="64" viewBox="0 0 64 64" fill="none" xmlns="http://www.w3.org/2000/svg">
<path d="M17.802 23.8534C17.802 15.6501 24.3825 9 32.5 9C40.6175 9 47.198 15.6501 47.198 23.8534C47.198 32.0567 40.6175 38.7068 32.5 38.7068C24.3825 38.7068 17.802 32.0567 17.802 23.8534Z" fill="white"/>
<path d="M32.5 38.7068C24.3825 38.7068 17.802 32.0567 17.802 23.8534C17.802 15.6501 24.3825 9 32.5 9C40.6175 9 47.198 15.6501 47.198 23.8534C47.198 32.0567 40.6175 38.7068 32.5 38.7068ZM32.5 38.7068L41.4213 53.1347C42.4243 54.7568 44.9069 53.9339 44.7643 52.0266L44.4034 47.1969C44.2934 45.725 45.8637 44.7334 47.1246 45.4786L51.2618 47.9236C52.8957 48.8892 54.7159 46.995 53.7129 45.3729L45.1343 31.4477M32.5 38.7068L23.5787 53.1347C22.5757 54.7568 20.0931 53.9339 20.2357 52.0266L20.5966 47.1969C20.7066 45.725 19.1363 44.7334 17.8754 45.4786L13.7382 47.9236C12.1043 48.8892 10.2841 46.995 11.2871 45.3729L19.8657 31.4477" stroke="#25316D" stroke-width="2" stroke-linecap="round" stroke-linejoin="round"/>
<circle cx="32.5" cy="24.5" r="6.5" fill="#CB2027"/>
<path d="M37.3993 23.8535C37.3993 26.5879 35.2058 28.8046 32.4999 28.8046C29.7941 28.8046 27.6006 26.5879 27.6006 23.8535C27.6006 21.119 29.7941 18.9023 32.4999 18.9023C35.2058 18.9023 37.3993 21.119 37.3993 23.8535Z" stroke="#25316D" stroke-width="2" stroke-linecap="round" stroke-linejoin="round"/>
</svg>
