<svg width="64" height="64" viewBox="0 0 64 64" fill="none" xmlns="http://www.w3.org/2000/svg">
<rect x="9" y="14" width="46" height="29" fill="white"/>
<mask id="mask0_518_3697" style="mask-type:alpha" maskUnits="userSpaceOnUse" x="9" y="14" width="46" height="29">
<rect x="9" y="14" width="46" height="29" fill="#D9D9D9"/>
</mask>
<g mask="url(#mask0_518_3697)">
<path d="M9 43V14H13.1818V43H9ZM15.2727 43V14H19.4545V43H15.2727ZM21.5455 43V14H23.6364V43H21.5455ZM27.8182 43V14H32V43H27.8182ZM34.0909 43V14H40.3636V43H34.0909ZM42.4545 43V14H44.5455V43H42.4545ZM48.7273 43V14H55V43H48.7273Z" fill="#25316D"/>
</g>
<rect x="9" y="10" width="46" height="2" fill="#CB2027"/>
<path d="M9.48 50V49.22H10.584V46.442L9.468 47.27V46.34L10.494 45.62H11.484V49.22H12.36V50H9.48ZM14.6377 50V49.154L16.0297 47.81C16.1937 47.65 16.3157 47.502 16.3957 47.366C16.4797 47.23 16.5217 47.082 16.5217 46.922C16.5217 46.746 16.4737 46.61 16.3777 46.514C16.2857 46.418 16.1577 46.37 15.9937 46.37C15.8137 46.37 15.6717 46.424 15.5677 46.532C15.4677 46.636 15.4177 46.782 15.4177 46.97H14.5177C14.5177 46.682 14.5777 46.434 14.6977 46.226C14.8217 46.014 14.9957 45.85 15.2197 45.734C15.4437 45.618 15.7077 45.56 16.0117 45.56C16.2957 45.56 16.5417 45.614 16.7497 45.722C16.9617 45.826 17.1257 45.972 17.2417 46.16C17.3617 46.348 17.4217 46.57 17.4217 46.826C17.4217 47.11 17.3517 47.382 17.2117 47.642C17.0717 47.902 16.8477 48.174 16.5397 48.458L15.7477 49.19H17.4697V50H14.6377ZM21.6853 50V49.196H19.7653V47.942L21.4093 45.62H22.4293L20.6053 48.194V48.416H21.6853V47.48H22.5853V50H21.6853ZM26.447 50.06C26.011 50.06 25.665 49.952 25.409 49.736C25.153 49.52 25.021 49.228 25.013 48.86H25.913C25.921 48.992 25.971 49.096 26.063 49.172C26.155 49.244 26.283 49.28 26.447 49.28C26.623 49.28 26.757 49.236 26.849 49.148C26.945 49.056 26.993 48.93 26.993 48.77V48.344C26.993 48.18 26.947 48.056 26.855 47.972C26.763 47.884 26.627 47.84 26.447 47.84C26.339 47.84 26.245 47.856 26.165 47.888C26.089 47.916 26.029 47.96 25.985 48.02H25.115L25.145 45.62H27.731V46.43H25.991L25.979 47.57H26.165L25.973 47.72C25.973 47.536 26.043 47.392 26.183 47.288C26.327 47.18 26.521 47.126 26.765 47.126C27.121 47.126 27.397 47.234 27.593 47.45C27.793 47.662 27.893 47.96 27.893 48.344V48.77C27.893 49.17 27.765 49.486 27.509 49.718C27.253 49.946 26.899 50.06 26.447 50.06ZM31.6706 50.06C31.3666 50.06 31.1026 50.01 30.8786 49.91C30.6586 49.806 30.4866 49.664 30.3626 49.484C30.2426 49.3 30.1826 49.088 30.1826 48.848C30.1826 48.576 30.2586 48.346 30.4106 48.158C30.5666 47.97 30.7846 47.816 31.0646 47.696L31.7966 47.378C31.9206 47.322 32.0186 47.244 32.0906 47.144C32.1626 47.04 32.1986 46.924 32.1986 46.796C32.1986 46.652 32.1506 46.536 32.0546 46.448C31.9626 46.36 31.8346 46.316 31.6706 46.316C31.5066 46.316 31.3746 46.36 31.2746 46.448C31.1786 46.536 31.1306 46.652 31.1306 46.796C31.1306 46.92 31.1686 47.034 31.2446 47.138C31.3206 47.238 31.4206 47.316 31.5446 47.372L32.2766 47.696C32.5846 47.832 32.8086 47.996 32.9486 48.188C33.0886 48.376 33.1586 48.596 33.1586 48.848C33.1586 49.22 33.0246 49.516 32.7566 49.736C32.4886 49.952 32.1266 50.06 31.6706 50.06ZM31.6706 49.304C31.8506 49.304 31.9946 49.254 32.1026 49.154C32.2146 49.054 32.2706 48.928 32.2706 48.776C32.2706 48.656 32.2306 48.538 32.1506 48.422C32.0706 48.306 31.9666 48.22 31.8386 48.164L31.0226 47.798C30.7826 47.69 30.5926 47.548 30.4526 47.372C30.3126 47.192 30.2426 46.98 30.2426 46.736C30.2426 46.516 30.3006 46.318 30.4166 46.142C30.5326 45.962 30.6966 45.82 30.9086 45.716C31.1246 45.612 31.3786 45.56 31.6706 45.56C31.9626 45.56 32.2126 45.612 32.4206 45.716C32.6326 45.82 32.7966 45.962 32.9126 46.142C33.0286 46.318 33.0866 46.516 33.0866 46.736C33.0866 46.992 33.0186 47.208 32.8826 47.384C32.7466 47.556 32.5606 47.694 32.3246 47.798L31.5026 48.164C31.3746 48.22 31.2706 48.306 31.1906 48.422C31.1106 48.534 31.0706 48.65 31.0706 48.77C31.0706 48.926 31.1246 49.054 31.2326 49.154C31.3446 49.254 31.4906 49.304 31.6706 49.304ZM35.8923 50L37.4823 46.46H36.2583V47.09H35.3583V45.62H38.3883V46.46L36.8523 50H35.8923ZM42.1059 50.06C41.8019 50.06 41.5339 49.998 41.3019 49.874C41.0739 49.746 40.8959 49.568 40.7679 49.34C40.6399 49.112 40.5759 48.848 40.5759 48.548C40.5759 48.348 40.6139 48.13 40.6899 47.894C40.7659 47.654 40.8659 47.432 40.9899 47.228L41.9739 45.62H42.9759L41.6439 47.696L41.6859 47.72C41.7739 47.592 41.8859 47.494 42.0219 47.426C42.1619 47.358 42.3179 47.324 42.4899 47.324C42.7179 47.324 42.9179 47.38 43.0899 47.492C43.2619 47.6 43.3959 47.754 43.4919 47.954C43.5879 48.15 43.6359 48.38 43.6359 48.644C43.6359 48.928 43.5719 49.176 43.4439 49.388C43.3159 49.6 43.1379 49.766 42.9099 49.886C42.6819 50.002 42.4139 50.06 42.1059 50.06ZM42.1059 49.31C42.3019 49.31 42.4599 49.25 42.5799 49.13C42.6999 49.01 42.7599 48.852 42.7599 48.656C42.7599 48.456 42.6999 48.296 42.5799 48.176C42.4599 48.052 42.3019 47.99 42.1059 47.99C41.9099 47.99 41.7519 48.052 41.6319 48.176C41.5119 48.296 41.4519 48.456 41.4519 48.656C41.4519 48.852 41.5119 49.01 41.6319 49.13C41.7519 49.25 41.9099 49.31 42.1059 49.31ZM46.0036 50V49.22H47.1076V46.442L45.9916 47.27V46.34L47.0176 45.62H48.0076V49.22H48.8836V50H46.0036ZM52.5172 50.06C52.2172 50.06 51.9572 50.01 51.7372 49.91C51.5212 49.806 51.3532 49.66 51.2332 49.472C51.1132 49.28 51.0532 49.056 51.0532 48.8H51.9532C51.9532 48.96 52.0012 49.086 52.0972 49.178C52.1972 49.266 52.3372 49.31 52.5172 49.31C52.7012 49.31 52.8412 49.266 52.9372 49.178C53.0332 49.09 53.0812 48.964 53.0812 48.8V48.44C53.0812 48.276 53.0312 48.15 52.9312 48.062C52.8352 47.97 52.6972 47.924 52.5172 47.924H52.0012V47.15L52.8832 46.37H51.2632V45.62H53.8012V46.394L52.5172 47.528V47.162C52.9692 47.162 53.3252 47.276 53.5852 47.504C53.8492 47.732 53.9812 48.042 53.9812 48.434V48.8C53.9812 49.056 53.9212 49.28 53.8012 49.472C53.6852 49.66 53.5172 49.806 53.2972 49.91C53.0772 50.01 52.8172 50.06 52.5172 50.06Z" fill="#25316D"/>
<rect x="9" y="52" width="46" height="2" fill="#CB2027"/>
</svg>
