<svg width="588" height="340" viewBox="0 0 588 340" fill="none" xmlns="http://www.w3.org/2000/svg">
<path d="M45 260.103H295" stroke="#25316D" stroke-width="2" stroke-linecap="round" stroke-linejoin="round"/>
<path d="M101.086 269.31L101.23 269.205L101.329 269.056C102.104 267.895 103.501 267.201 105.439 266.988C107.373 266.774 109.708 267.06 112.107 267.72C114.497 268.377 116.895 269.391 118.938 270.582C120.996 271.782 122.625 273.122 123.548 274.398C127.463 279.809 126.755 286.688 122.419 289.852C121.421 290.58 119.804 291.033 117.742 291.146C115.707 291.258 113.358 291.033 111.01 290.52C108.664 290.007 106.353 289.214 104.392 288.212C102.417 287.204 100.866 286.021 99.9566 284.764C96.0419 279.353 96.7496 272.474 101.086 269.31Z" fill="white" stroke="#25316D" stroke-width="2"/>
<path d="M123.968 288.047C122.715 286.637 120.02 283.816 119.268 283.816" stroke="#25316D" stroke-width="2"/>
<path d="M229.617 256.792C231.274 265.112 236.249 274.696 231.037 289.598C225.825 304.5 213.864 316.401 200.869 312.5C190.897 309.507 194.871 299.752 200.369 297C205.528 294.418 210.869 296 212.369 302.5C215.809 317.405 199.724 319.64 174.869 317.5C150.014 315.36 146.138 305.202 143.369 301C134.869 288.098 128.776 291.737 124.515 289.598" stroke="#303030" stroke-width="2" stroke-linecap="round"/>
<path d="M120.808 278.92L120.803 278.923C120.513 279.097 120.127 279.028 119.912 278.749C118.987 277.534 117.453 275.621 115.638 273.729C113.833 271.849 111.696 269.932 109.563 268.768L108.562 270.481C108.554 270.494 108.554 270.494 108.554 270.494L108.554 270.494L108.555 270.495L108.57 270.504C108.584 270.513 108.606 270.527 108.636 270.547C108.696 270.587 108.786 270.648 108.901 270.73C109.131 270.894 109.459 271.139 109.837 271.456C110.6 272.095 111.547 273.01 112.332 274.131C113.117 275.253 113.71 276.541 113.831 277.94C113.948 279.307 113.622 280.863 112.439 282.575C111.734 283.408 110.493 283.843 109.935 284.026L109.823 284.063L109.723 284.124L109.723 284.125L109.722 284.125L109.721 284.126L109.712 284.131L109.676 284.153C109.664 284.16 109.649 284.169 109.631 284.18C109.604 284.196 109.571 284.216 109.532 284.239C109.406 284.313 109.222 284.42 108.995 284.547C108.54 284.801 107.921 285.132 107.255 285.442C106.583 285.755 105.892 286.033 105.289 286.197C104.632 286.375 104.283 286.358 104.17 286.317L103.528 286.085L103.082 286.593L103.082 286.593L103.081 286.594C103.081 286.595 103.08 286.595 103.079 286.596C103.077 286.599 103.073 286.603 103.068 286.608C103.064 286.612 103.059 286.617 103.054 286.623C103.028 286.649 102.986 286.691 102.93 286.742C102.815 286.846 102.647 286.984 102.439 287.115C102.019 287.379 101.515 287.568 100.983 287.505C100.98 287.502 100.878 287.465 100.66 287.294C100.42 287.107 100.129 286.83 99.7973 286.474C99.1366 285.764 98.3925 284.822 97.6846 283.864C96.9801 282.91 96.3266 281.962 95.8483 281.25C95.6094 280.895 95.415 280.6 95.2806 280.394C95.2134 280.291 95.1613 280.211 95.1261 280.156L95.0864 280.094L95.0766 280.079L95.0742 280.075L95.0737 280.075L95.0736 280.074L95.0736 280.074L94.8824 279.775L94.545 279.663L94.545 279.663L94.5448 279.663L94.5441 279.663L94.5392 279.661L94.5172 279.654C94.4971 279.647 94.4664 279.637 94.4258 279.623C94.3446 279.595 94.2236 279.552 94.0684 279.496C93.7579 279.384 93.3108 279.218 92.7704 279.002C91.6874 278.569 90.2398 277.942 88.7692 277.16C87.2924 276.375 85.8278 275.452 84.6888 274.439C83.5375 273.414 82.8301 272.395 82.65 271.429L82.6477 271.414C82.6449 271.394 82.6404 271.361 82.6351 271.317C82.6243 271.227 82.6099 271.091 82.5971 270.914C82.5715 270.559 82.5526 270.045 82.5824 269.424C82.6421 268.176 82.8963 266.529 83.6588 264.883C84.416 263.249 85.6804 261.601 87.796 260.33C89.8849 259.075 92.8591 258.153 97.0987 258.029C97.1058 258.032 97.1131 258.035 97.1206 258.038C97.2617 258.098 97.4714 258.187 97.7413 258.306C98.281 258.544 99.0609 258.9 100.013 259.367C101.92 260.302 104.511 261.681 107.251 263.452C112.775 267.025 118.717 272.081 121.056 278.191C121.151 278.438 121.066 278.744 120.808 278.92Z" fill="white" stroke="#25316D" stroke-width="2"/>
<path fill-rule="evenodd" clip-rule="evenodd" d="M106.205 148.524C141.83 177.116 100.466 224.121 100.466 224.121C100.466 224.121 101.248 229.823 99.056 232.111C91.5 240 104.697 260.314 104.697 260.314C104.697 260.314 89.3341 270.044 84.9545 279.116C84.7461 279.548 83.5444 280.526 83.0741 280.526C83.0741 280.526 74.5897 266.539 72.7334 260.314C64.7426 233.522 65.2122 216.13 65.2122 216.13C71.3228 202.028 74.6369 193.397 81.1942 178.996C87.1597 165.885 98.325 157.601 106.205 148.524Z" fill="#58B9FD"/>
<path fill-rule="evenodd" clip-rule="evenodd" d="M155.525 122.828C155.525 122.828 160.449 118.767 162.935 119.425L163.115 122.663C163.115 122.663 170.491 127.767 180.513 127.932C190.54 128.152 198.299 123.322 199.954 119.425C199.954 119.425 205.85 120.741 206.091 124.693C206.091 124.693 237.237 134.295 245.114 139.676C252.988 144.996 257.049 148.509 258.848 157.73C260.64 166.893 267.13 196.525 268.61 220.341C252.764 215.29 239.652 215.183 223.457 215.183C185.123 169.685 158.64 224.872 123.413 259.58C123.413 259.58 134.5 195.357 130.572 195.85C126.648 196.289 72.6829 217.267 72.6829 217.267C72.6829 217.267 71.7485 202.439 72.6828 198.268C73.6171 194.097 91.8513 149.167 96.0205 143.077C100.19 136.93 107.566 132.046 120.702 129.303C133.844 126.561 155.525 122.828 155.525 122.828Z" fill="#58B9FD"/>
<path d="M121.652 46C121.117 47.0658 120.714 48.172 120.32 49.2985C120.009 50.1994 119.711 51.1686 119.228 51.9933M118.193 52.7065C116.434 53.3521 114.702 54.0699 113 54.8579M113.01 54.9237C113.483 55.2335 113.931 55.5684 114.433 55.8296C115.829 56.5504 117.31 57.0604 118.736 57.7074M119.454 58.887C120.129 60.6048 121.049 62.1882 121.769 63.8807M121.816 64C122.018 63.3732 122.324 62.7793 122.602 62.1882C123.284 60.7317 124.065 59.316 124.635 57.8087M124.635 57.89C125.354 57.4893 126.165 57.271 126.91 56.9309C128.002 56.4285 129.913 55.6142 131 55.0559M121.945 46.1017C122.831 48.0274 123.727 49.9636 124.54 51.9248M124.538 52.0849C126.014 52.8664 129.482 54.0716 131 54.7743" stroke="#25316D" stroke-width="2" stroke-miterlimit="1.5" stroke-linecap="round" stroke-linejoin="round"/>
<path d="M85.5 167C87.5 163.5 88.3416 160.194 89.5 157C90.9673 152.9 93.1631 146.878 96.0004 143.5" stroke="#25316D" stroke-width="2" stroke-miterlimit="1.5" stroke-linecap="round" stroke-linejoin="round"/>
<path d="M131.86 174.749C134.9 189.083 134.444 205.364 129.774 219.305M141.363 172.735C143.245 179.165 143.5 185.841 143.478 192.502C143.485 201.041 142.676 209.701 139.767 217.795" stroke="#25316D" stroke-width="2" stroke-miterlimit="1.5" stroke-linecap="round" stroke-linejoin="round"/>
<path d="M155.795 126.874C158.517 131.1 163.178 133.68 167.735 135.437C178.974 139.716 194.761 139.223 202.815 129.124M199.875 119.412C200.547 119.412 201.225 119.521 201.87 119.686C204.164 120.453 205.328 122.321 205.897 124.513M149.528 128.191C151.277 130.606 153.184 133.076 155.402 135.051C158.309 137.632 161.839 139.55 165.478 140.868" stroke="#25316D" stroke-width="2" stroke-miterlimit="1.5" stroke-linecap="round" stroke-linejoin="round"/>
<path d="M162.92 119.77C160.445 119.825 157.27 120.922 155.932 123.171" stroke="#25316D" stroke-width="2" stroke-miterlimit="1.5" stroke-linecap="round" stroke-linejoin="round"/>
<path d="M68.9729 218.01C70.853 226.471 81.1921 226.505 85.4246 228.351C90.0476 230.402 95.8875 222.029 100.001 225M75.5535 267.366C80.724 257.965 84.3944 254.691 97.1757 253.264" stroke="#25316D" stroke-width="2" stroke-miterlimit="1.5" stroke-linecap="round" stroke-linejoin="round"/>
<path d="M199.46 100.597L161.636 91.1965L162.576 122.22C162.576 122.22 173.585 127.956 181.378 127.86C189.605 127.759 199.46 122.491 199.46 122.491L199.46 100.597Z" fill="white"/>
<path d="M148 71C152 83 155 82.5 156.5 80.4324C158.133 84.897 160.028 89.3876 162.001 93.0001C163.501 95.7466 179.501 106 189.075 110.434C200.415 103.811 205.501 97.0001 208.001 94.5001C208.001 92.7505 208.75 87.5816 209.5 80.4324C209.5 77.7562 215.5 80.4324 215.5 68C215.706 65.7112 213 60.5 210.815 64.5C210.932 62.6101 211.001 60.9068 211.001 59.5001C230.501 34.5001 208.5 28.5001 201 27.0001C200 16.5001 177.5 23.0001 170.501 30.0001C166.374 32.0976 162.382 38.5729 159.501 42.0001C155 42.5 153.189 45.9753 151.5 50C151.5 51.5 153.037 60.3109 154 64.5C147.5 61 146.839 68.9413 148 71Z" fill="white"/>
<path d="M190.923 66.9642C190.901 70.3118 191.289 73.5489 192.448 76.6766C192.732 77.4997 193.038 78.2685 193.426 78.9823C193.453 79.037 193.819 79.6402 193.803 79.6402C193.552 79.9695 192.35 80.9999 192 80.9999C190.508 81.1097 188.899 80.9937 187.5 80.4999M181.946 64.221C179.093 62.6294 175.668 62.6294 172.952 64.4952M206.311 65.373C203.256 63.7268 200.021 63.6717 196.814 64.8242M195.5 90.5C190 92.5 184.415 90.7253 181.044 88.311M163.111 64.8249C163.739 71.0806 158.47 64.2443 159 70.5M171.87 55.9904C170.236 59.9412 166.821 62.7402 162.875 64.167" stroke="#25316D" stroke-width="2" stroke-miterlimit="1.5" stroke-linecap="round" stroke-linejoin="round"/>
<path d="M159.405 72.8922C159.405 72.8922 160.93 87.7625 161.328 91.7133C161.392 92.3124 161.654 92.8729 162.072 93.3052C168.58 100.329 176.475 105.103 185.71 107.792C186.327 107.957 186.988 107.957 187.589 107.738C194.556 105.104 201.217 101.097 207.517 95.4453C208.053 94.9515 208.386 94.2928 208.446 93.5795C208.949 87.5433 211.293 59.283 211.293 59.283" stroke="#25316D" stroke-width="2" stroke-miterlimit="1.5" stroke-linecap="round" stroke-linejoin="round"/>
<path d="M199.64 101.591L199.104 122.336C199.104 122.336 180.143 134.296 163.767 122.336M162.106 94.019L162.412 118.822" stroke="#25316D" stroke-width="2" stroke-miterlimit="1.5" stroke-linecap="round" stroke-linejoin="round"/>
<path d="M202.602 72.3246C202.382 72.3278 202.164 72.2872 201.961 72.2051C201.757 72.123 201.572 72.001 201.416 71.8464C201.259 71.6917 201.135 71.5074 201.051 71.3042C200.966 71.1009 200.922 70.8828 200.922 70.6624C200.922 70.4421 200.966 70.224 201.051 70.0208C201.135 69.8175 201.26 69.6332 201.416 69.4786C201.572 69.324 201.757 69.2021 201.961 69.1201C202.165 69.038 202.383 68.9974 202.602 69.0007C203.037 69.0072 203.451 69.1852 203.756 69.4962C204.061 69.8072 204.232 70.2262 204.232 70.6628C204.232 71.0994 204.061 71.5184 203.756 71.8294C203.451 72.1403 203.036 72.3182 202.602 72.3246ZM179.656 72.3246C179.217 72.3246 178.796 72.1494 178.485 71.8377C178.175 71.526 178 71.1031 178 70.6623C178 70.2214 178.175 69.7986 178.485 69.4869C178.796 69.1751 179.217 69 179.656 69C180.09 69.0064 180.505 69.1844 180.81 69.4954C181.116 69.8065 181.287 70.2256 181.287 70.6623C181.287 71.0989 181.116 71.5181 180.81 71.8291C180.505 72.1402 180.09 72.3181 179.656 72.3246Z" fill="#25316D"/>
<path fill-rule="evenodd" clip-rule="evenodd" d="M166.371 98.642C166.371 98.642 176.693 111.866 186.178 112.579C194.255 113.238 199.287 106.817 199.287 106.817V101.989C199.287 101.989 187.987 108.409 186.178 107.915C184.375 107.366 166.371 98.642 166.371 98.642Z" fill="#25316D"/>
<path d="M176.029 53.9561C180.817 56.8759 185.851 59.5813 191.583 59.8315C194.238 59.9455 197.489 59.0883 197.978 55.9988M213.428 51.9473C213.743 52.6517 214.024 53.3977 214.128 54.1788C214.618 58.0106 210.808 59.3112 207.661 59.1378C202.592 58.8579 197.978 55.8849 194.799 52.038M215.839 50.7061C216.783 49.6321 217.657 48.4397 218.181 47.1179C221.643 38.4982 213.463 30.9559 206.054 28.522C202.977 27.5107 198.574 26.7159 195.567 28.3721C193.401 29.5506 196.51 32.0264 198.085 31.8347C200.601 31.5208 201.371 28.2849 200.635 26.2449C200.042 24.6828 198.713 23.6752 197.211 23.0231C194.275 21.7504 191.198 21.8478 188.086 22.3361C181.55 23.3683 175.294 26.7124 170.121 30.698C168.059 32.2811 165.822 33.9512 164.319 36.1061M160.614 41.9154C159.601 42.0061 158.587 42.2256 157.644 42.5952C150.722 45.2838 152.5 55 153.5 60.5M160.125 88.5001C159.877 87.7694 159.615 84.2195 157.644 79.5C157.147 78.3106 154 86.5 149 75C144.5 59.8315 153.5 63.5 154.5 65M161.208 32.9084C160.823 34.2752 160.579 35.6109 160.544 37.03C160.544 37.4205 160.544 37.8146 160.579 38.2051C160.579 38.2435 160.649 38.5435 160.614 38.5678C160.579 38.5958 160.159 38.4038 160.125 38.3864C159.563 38.1981 159.039 37.9994 158.481 37.8112C156.419 37.0929 154.182 36.4267 151.979 36.3673" stroke="#25316D" stroke-width="2" stroke-miterlimit="1.5" stroke-linecap="round" stroke-linejoin="round"/>
<path d="M153 72C154.065 73.6166 154.247 74.1565 155.238 75.8189" stroke="#25316D" stroke-width="2" stroke-miterlimit="1.5" stroke-linecap="round" stroke-linejoin="round"/>
<path d="M210.012 71.2369C210 69.9362 210.025 68.6358 210.151 67.3592C210.468 64.3245 211.898 61.6751 213.531 63.7224C213.809 64.0596 214.05 64.4929 214.252 64.9746C215.822 68.8283 214.72 74.4885 212.797 77.0417C212 78.1014 210.962 78.9203 210 79.2576" stroke="#25316D" stroke-width="2" stroke-miterlimit="1.5" stroke-linecap="round" stroke-linejoin="round"/>
<path d="M299.5 167C298.3 167.4 292.667 175.167 290 179L280.5 188L299 196.5L304.5 188C306.5 188.833 312 190.6 314 191C316.5 191.5 321.5 193.5 327 191C332.5 188.5 333.74 181.06 334 179.5C334.5 176.5 332.5 176.5 326 177.5C319.576 178.488 314 173.5 315 172.5L321 166.5C323 164.5 321.5 162 320.5 161.5C319.5 161 312.5 164.5 311 165.5C309.5 166.5 301 166.5 299.5 167Z" fill="white"/>
<path d="M298.226 169.006C292.119 176.561 286.288 184.403 279.469 191.342C273.095 197.803 265.985 203.651 259.833 210.302M244.796 194.082C244.952 202.6 244.89 211.122 245.108 219.594C245.223 223.97 245.024 229.073 247.134 233.081C250.432 239.325 261.31 243.607 267.535 239.097M305 188.5C299.026 196.339 293.022 205.505 287.286 213.585C281.573 221.614 276.156 227.268 270.758 235.537M299.375 167.201C301.899 166.204 304.498 166.11 307.164 165.73C308.97 165.54 310.743 165.063 312.478 164.539C314.207 164.019 315.809 163.208 317.453 162.451C318.351 162.07 319.449 161.5 320.456 161.5C321.545 161.547 321.792 162.924 321.683 163.732C321.435 165.586 320.119 167.248 318.66 168.342M312.259 171.381C314.141 172.571 315.809 174.043 317.657 175.28C318.394 175.804 319.188 176.468 320.057 176.705C321.511 177.085 323.104 177.135 324.605 177.135C325.598 177.135 332.859 176.281 333.5 177.135C335.125 179.416 332.964 184.059 331.686 186.054C330.545 187.765 328.543 190.883 326.5 191.5C321.5 194 308.517 189.07 304.644 187.976" stroke="#25316D" stroke-width="2" stroke-miterlimit="1.5" stroke-linecap="round" stroke-linejoin="round"/>
<path fill-rule="evenodd" clip-rule="evenodd" d="M233.5 236.5C233.5 236.5 258.5 250 265 249C277.034 247.148 298.5 210 303.5 198.5C315.5 187 286.596 184.137 290.5 174.5C294.404 164.867 256 211.5 256 203.5C256 203.5 255.33 194.93 255 192C253.373 177.556 259.428 148.563 246 143C238.77 140.004 232.275 149.243 232.275 149.243L227.678 144.918C227.678 144.918 225.832 141.265 221.525 137.057C215.95 150.401 211.198 171.179 212.467 202.578L218.5 215C218.79 215.233 232.517 235.575 233.5 236.5Z" fill="#58B9FD"/>
<path d="M271.561 192.137C265.006 198.223 258.919 206.063 255.194 213.792" stroke="#25316D" stroke-width="2" stroke-miterlimit="1.5" stroke-linecap="round" stroke-linejoin="round"/>
<path d="M221.572 183C222.696 185.846 223.494 188.81 224.559 191.63C226.331 196.283 228.323 200.87 230.106 205.517" stroke="#25316D" stroke-width="2" stroke-miterlimit="1.5" stroke-linecap="round" stroke-linejoin="round"/>
<path d="M330 180.084C326.293 180.511 321.965 181.702 318.5 180.084C316.956 179.373 315.706 178.232 314.342 177.235M328.057 184.643C326.275 184.834 324.488 184.83 322.701 184.83C321.29 184.88 319.854 184.927 318.5 184.5C316.257 183.739 314.294 182.122 312.46 180.651M325.965 188.206C322.253 188.49 319.012 188.3 315.538 186.875C313.942 186.258 313.026 185.638 311.5 184.83M318.5 168.5C318.5 168.5 317.85 169.154 317.5 169.627C316.642 170.785 315.774 172.143 314.5 173" stroke="#25316D" stroke-width="2" stroke-miterlimit="1.5" stroke-linecap="round" stroke-linejoin="round"/>
<path d="M259 158.5C258 153 253.126 145.987 248.5 142.5C242.588 138.005 235.128 134.679 228 132.432" stroke="#25316D" stroke-width="2" stroke-miterlimit="1.5" stroke-linecap="round" stroke-linejoin="round"/>
<path d="M205.2 283.488L205.2 283.488L205.206 283.5C205.395 283.885 205.352 284.349 205.076 284.711C205.075 284.712 205.075 284.713 205.074 284.713L197.094 295.019H166.97L166.866 294.889L166.223 294.078C165.678 293.392 164.92 292.436 164.068 291.364C162.365 289.218 160.287 286.601 158.788 284.718L158.785 284.714C158.52 284.384 158.458 283.908 158.653 283.492C158.748 283.298 158.894 283.135 159.075 283.021C159.257 282.906 159.467 282.845 159.681 282.843C159.682 282.843 159.683 282.843 159.683 282.843L204.181 282.843H204.183C204.395 282.843 204.603 282.903 204.783 283.017C204.963 283.131 205.108 283.294 205.2 283.488ZM262.569 193.025L262.568 193.027C259.999 207.635 251.517 255.874 249.323 268.361C249.105 269.597 248.033 270.495 246.787 270.495H117.441C116.212 270.495 115.146 269.613 114.91 268.388C113.759 262.364 110.984 247.856 108.113 232.85C105.082 217.005 101.944 200.605 100.501 193.052L100.501 193.051C100.358 192.307 100.553 191.528 101.047 190.917C101.541 190.325 102.272 189.977 103.032 189.977L260.032 189.977L260.033 189.977C260.409 189.976 260.779 190.058 261.12 190.217C261.46 190.377 261.762 190.609 262.003 190.899L262.004 190.9C262.495 191.489 262.702 192.274 262.569 193.025Z" fill="white" stroke="#25316D" stroke-width="2"/>
<path d="M182.091 227.496C190.24 227.496 196.858 234.136 196.858 242.323V295.024H167.323V242.323C167.323 234.136 173.938 227.496 182.091 227.496Z" fill="white" stroke="#25316D" stroke-width="2"/>
<path fill-rule="evenodd" clip-rule="evenodd" d="M188.87 242.265C188.87 238.504 185.834 235.457 182.091 235.457C178.348 235.457 175.314 238.504 175.314 242.265V254.44C175.314 258.194 178.348 261.24 182.091 261.24C185.834 261.24 188.87 258.194 188.87 254.44V242.265Z" fill="#58B9FD"/>
<path d="M120 267.011L106.463 197.382C106.223 196.147 107.169 195 108.426 195H225" stroke="#25316D" stroke-width="2"/>
<path d="M225.332 249.983C225.692 249.983 225.986 250.274 225.986 250.639V256.876C225.986 257.242 225.692 257.533 225.332 257.533H222.875C222.511 257.533 222.221 257.242 222.221 256.876V250.639C222.221 250.274 222.511 249.983 222.875 249.983H225.332Z" fill="#686868"/>
<path d="M234.646 249.983C235.005 249.983 235.3 250.274 235.3 250.639V256.876C235.3 257.242 235.005 257.533 234.646 257.533H232.188C231.825 257.533 231.535 257.242 231.535 256.876V250.639C231.535 250.274 231.825 249.983 232.188 249.983H234.646Z" fill="#686868"/>
<path d="M383.221 220.851C407.054 207.976 447.325 182.225 453.899 114.833" stroke="#303030" stroke-width="2" stroke-dasharray="6.57 4.93"/>
<path d="M531.5 220.851C483.833 199.483 448.969 197.839 383.221 220.851" stroke="#303030" stroke-width="2" stroke-dasharray="6.57 4.93"/>
<path d="M370.795 195.801L370.532 197.604C370.29 199.263 369.244 200.695 367.738 201.432C365.991 202.287 363.909 202.068 362.377 200.869L362.095 200.649C359.924 198.95 356.83 199.121 354.859 201.049C353.024 202.844 352.674 205.669 354.016 207.857L354.579 208.774C355.277 209.911 355.484 211.282 355.154 212.575C354.668 214.474 353.104 215.906 351.168 216.222L350.906 216.264C348.342 216.682 346.459 218.897 346.459 221.495C346.459 224.093 348.342 226.307 350.906 226.725L351.446 226.814C353.238 227.106 354.726 228.356 355.324 230.07C355.842 231.558 355.621 233.204 354.728 234.502L354.277 235.157C352.801 237.305 353.083 240.204 354.946 242.027C356.867 243.906 359.883 244.073 361.999 242.416L362.286 242.192C363.894 240.933 366.048 240.617 367.951 241.362L368.534 241.59C370.35 242.3 371.661 243.911 371.989 245.833L372.114 246.567C372.497 248.815 374.444 250.459 376.724 250.459C379.004 250.459 380.952 248.815 381.335 246.567L381.46 245.833C381.788 243.911 383.098 242.3 384.915 241.59L385.84 241.228C387.5 240.578 389.387 240.962 390.661 242.209C392.423 243.932 395.239 243.932 397.001 242.209L397.231 241.984C399.031 240.223 399.189 237.379 397.595 235.43L397.221 234.974C395.943 233.41 395.623 231.273 396.387 229.404L396.576 228.941C397.323 227.114 398.966 225.807 400.914 225.489L401.862 225.335C404.06 224.976 405.674 223.078 405.674 220.851C405.674 218.625 404.06 216.726 401.862 216.368L401.315 216.279C399.186 215.932 397.493 214.305 397.061 212.192L396.828 211.051C396.59 209.887 396.703 208.679 397.152 207.579L397.959 205.607C398.645 203.928 398.246 202 396.949 200.731C395.216 199.035 392.415 199.065 390.682 200.761C389.407 202.008 387.5 202.412 385.84 201.762L385.103 201.474C383.177 200.72 381.803 198.991 381.505 196.945L381.338 195.801C380.955 193.184 378.711 191.244 376.066 191.244C373.422 191.244 371.177 193.184 370.795 195.801Z" fill="white" stroke="#CB2027" stroke-width="2"/>
<circle cx="376.066" cy="220.851" r="12.4579" stroke="#CB2027" stroke-width="2"/>
<path d="M435.49 114.883C435.49 112.392 437.509 110.374 439.999 110.374H446.52C446.52 110.374 449.392 114.678 453.245 114.678C457.098 114.678 459.97 110.374 459.97 110.374H466.491C468.981 110.374 471 112.392 471 114.883V116.292C471 126.098 463.051 134.047 453.245 134.047C443.439 134.047 435.49 126.098 435.49 116.292V114.883Z" fill="white"/>
<path d="M463.466 95.3085C463.466 101.846 458.89 108.221 453.244 108.221C447.598 108.221 443.021 101.846 443.021 95.3085C443.021 88.7713 445.174 83.4719 453.244 83.4719C461.314 83.4719 463.466 88.7713 463.466 95.3085Z" fill="white"/>
<path fill-rule="evenodd" clip-rule="evenodd" d="M463.862 93.7722C463.862 102.841 457.012 108.221 453.247 108.221C448.404 108.221 442.633 102.841 442.633 93.7722C442.633 86.7001 446.254 83.4719 453.247 83.4719C460.241 83.4719 463.862 86.7001 463.862 93.7722Z" stroke="#CB2027" stroke-width="2" stroke-linecap="round" stroke-linejoin="round"/>
<path d="M445.828 110.416C442.472 110.416 436.574 108.864 436.169 113.063C435.586 119.106 436.169 123.56 436.169 123.56C436.169 123.56 441.539 134.315 453.246 134.315C466.849 134.315 470.321 123.56 470.321 123.56C470.321 123.56 470.905 119.106 470.321 113.063C469.916 108.864 464.019 110.416 460.663 110.416" stroke="#CB2027" stroke-width="2" stroke-linecap="round" stroke-linejoin="round"/>
<path d="M518.857 216.392C518.857 214.068 520.742 212.183 523.066 212.183H529.152C529.152 212.183 531.833 216.201 535.429 216.201C539.025 216.201 541.706 212.183 541.706 212.183H547.791C550.116 212.183 552 214.068 552 216.392V217.707C552 226.859 544.581 234.278 535.429 234.278C526.277 234.278 518.857 226.859 518.857 217.707V216.392Z" fill="white"/>
<path d="M544.969 198.123C544.969 204.224 540.697 210.174 535.428 210.174C530.158 210.174 525.887 204.224 525.887 198.123C525.887 192.021 527.895 187.075 535.428 187.075C542.96 187.075 544.969 192.021 544.969 198.123Z" fill="white"/>
<path fill-rule="evenodd" clip-rule="evenodd" d="M545.337 196.689C545.337 205.153 538.944 210.174 535.43 210.174C530.91 210.174 525.523 205.153 525.523 196.689C525.523 190.088 528.903 187.075 535.43 187.075C541.957 187.075 545.337 190.088 545.337 196.689Z" stroke="#25316D" stroke-width="2" stroke-linecap="round" stroke-linejoin="round"/>
<path d="M528.505 212.223C525.372 212.223 519.868 210.775 519.49 214.694C518.946 220.334 519.49 224.491 519.49 224.491C519.49 224.491 524.502 234.529 535.428 234.529C548.125 234.529 551.365 224.491 551.365 224.491C551.365 224.491 551.91 220.334 551.365 214.694C550.987 210.775 545.483 212.223 542.351 212.223" stroke="#25316D" stroke-width="2" stroke-linecap="round" stroke-linejoin="round"/>
</svg>
