<svg width="427" height="387" viewBox="0 0 427 387" fill="none" xmlns="http://www.w3.org/2000/svg">
<g clip-path="url(#clip0_930_8141)">
<path d="M364.866 217.143C362.217 217.026 359.609 217.219 356.972 217.452C354.865 217.644 352.635 217.923 350.519 217.693M405.677 301.738C405.765 299.72 405.614 297.738 405.436 295.733C405.289 294.131 405.073 292.429 405.244 290.822M348.109 216.223C345.17 213.225 342.056 210.298 338.883 207.547M407.249 288.071C409.532 285.835 410.867 284.389 412.956 281.978M338.763 207.629C338.584 208.884 338.33 210.111 338.279 211.387C338.143 214.915 338.516 218.425 338.557 221.947M412.895 281.883C411.938 281.75 411.005 281.554 410.034 281.515C407.347 281.411 405.891 281.577 403.207 281.603M336.859 224.513C334.037 227.48 331.72 230.83 328.991 233.868M400.043 280.421C397.783 278.271 395.23 276.507 392.919 274.429M328.797 234.075C330.249 233.911 331.731 233.992 333.183 234.017C336.757 234.075 340.342 234.374 343.911 234.154M392.761 274.277C392.887 275.383 392.827 276.514 392.806 277.617C392.768 280.336 392.54 283.063 392.713 285.782M343.748 234.229C345.235 235.335 346.439 236.8 347.823 238.015C349.865 239.795 353.304 242.964 355.45 244.682M392.655 285.655C391.817 286.786 390.701 287.701 389.778 288.752C388.426 290.303 387.227 291.985 385.785 293.454M364.936 217.841C361.896 221.434 358.843 225.055 355.664 228.537M405.148 301.791C402.411 299.473 399.649 297.15 397 294.726M355.338 228.677C355.158 232.428 356.001 240.661 356.019 244.421M396.892 294.481C394.038 294.339 391.136 294.539 388.272 294.547M288.836 153.445C288.782 155.078 288.782 156.694 288.848 158.32M335.04 285.046C336.024 285.575 337.065 286.091 338.051 286.623" stroke="#25316D" stroke-width="2" stroke-miterlimit="1.5" stroke-linecap="round" stroke-linejoin="round"/>
<path d="M72.5695 107.492C74.2934 109.505 76.2158 111.275 78.188 113.039C79.7682 114.445 81.4957 115.881 82.7739 117.581M106.525 19.9276C104.991 21.2415 103.644 22.7059 102.301 24.2058C101.23 25.4076 100.133 26.7278 98.841 27.701M83.3451 120.343C83.162 124.536 83.1494 128.806 83.3066 133M95.4613 28.118C92.2659 27.9804 90.2976 27.9952 87.1073 28.1186M83.4488 133.032C84.4885 132.305 85.5586 131.651 86.5258 130.817C89.1983 128.506 91.5093 125.835 94.0561 123.399M87.0797 28.2281C87.6363 29.0167 88.1304 29.8315 88.7653 30.5658C90.5246 32.597 91.641 33.5454 93.4938 35.4854M97.0917 122.885C101.189 122.917 105.221 122.318 109.306 122.232M94.7915 38.6007C94.7645 41.7178 95.219 44.786 95.2789 47.8912M109.59 122.232C108.478 121.285 107.524 120.149 106.551 119.073C104.151 116.426 101.921 113.607 99.321 111.154M95.2756 48.1099C95.9983 47.2621 96.866 46.5339 97.6864 45.7951C99.7001 43.9651 101.849 42.2682 103.719 40.2844M99.4873 111.222C99.2801 109.382 99.5283 107.503 99.4716 105.663C99.3771 102.958 99.3435 98.2841 99.1338 95.5448M103.666 40.4137C105.065 40.2523 106.497 40.441 107.895 40.396C109.952 40.3226 112.001 40.0475 114.06 40.0957M73.0314 106.965C77.7349 106.727 82.4682 106.48 87.1851 106.42M106.926 20.2769C107.101 23.8566 107.29 27.4588 107.328 31.0471M87.5107 106.561C90.3748 104.13 95.8176 97.8905 98.5539 95.3076M107.223 31.2932C109.069 33.4719 111.198 35.4518 113.16 37.5357M77.9515 206.469C79.1818 205.392 80.3633 204.288 81.5069 203.129M142.585 82.854C142.299 81.7747 141.965 80.6631 141.68 79.5801" stroke="#25316D" stroke-width="2" stroke-miterlimit="1.5" stroke-linecap="round" stroke-linejoin="round"/>
<path fill-rule="evenodd" clip-rule="evenodd" d="M0 389.922C0 389.922 32.5269 305.759 52.3894 288.208C72.2519 270.652 113.191 258.525 113.191 258.525C113.191 258.525 112.408 238.709 124.555 237.373C136.696 236.037 135.481 237.373 135.481 237.373C135.481 237.373 138.951 221.614 149.619 218.585C160.286 215.544 167.398 215.809 167.398 215.809L169.222 243.35C169.222 243.35 191.34 254.788 215.277 250.048C239.305 245.302 252.573 233.439 252.573 233.439L251.014 210.718C251.014 210.718 265.934 208.643 270.1 218.585C274.26 228.508 273.219 229.229 273.219 229.229C273.219 229.229 285.452 230.349 288.397 237.373C291.263 244.391 290.739 246.188 290.739 246.188C290.739 246.188 303.822 247.66 298.966 253.151C298.966 253.151 380.622 250.048 385.806 272.542C405.64 301.533 425.424 354.772 426.226 389.922H0Z" fill="#58B9FD"/>
<path d="M180.672 129.651C185.788 136.404 186.657 145.151 184.315 153.105C183.532 155.542 182.577 157.906 181.363 160.116C181.104 160.442 179.717 162.178 179.804 162.474C179.804 162.64 182.577 162.751 182.928 162.794C186.484 163.243 190.04 162.948 193.596 162.917M203.222 121.716C208.775 116.354 218.752 115.8 224.736 120.94M145.545 123.476C150.746 119.21 159.423 116.422 165.321 120.897M226.542 87.4888C227.756 93.2999 229.839 98.6248 234.436 102.571C236.174 104.054 238.602 104.879 240.248 106.344C240.599 106.689 240.685 108.24 240.772 108.751C241.203 111.09 241.462 113.51 241.548 115.892C241.813 122.387 241.986 130.808 246.928 135.72M253.738 134.132C260.677 125.692 273.342 123.002 280.798 132.39C282.278 134.181 283.313 136.293 284.009 138.46C288.52 151.787 281.236 168.347 269.089 174.946C264.319 177.556 259.636 178.793 254.262 176.922M184.401 186.353C192.123 188.883 204.522 187.319 209.12 179.778C210.456 192.488 197.47 199.106 189.578 201.442C193.596 193.131 187.222 189.433 184.401 186.353Z" stroke="#25316D" stroke-width="2" stroke-miterlimit="1.5" stroke-linecap="round" stroke-linejoin="round"/>
<path d="M269.527 144.892C266.057 149.275 262.415 153.418 258.945 157.746M220.829 83.2745C208.947 90.5293 196.455 97.2516 182.232 97.8733C175.644 98.1565 167.577 96.0265 166.363 88.3501M128.024 78.2834C127.242 80.0335 126.545 81.887 126.286 83.828C125.072 93.3487 134.526 96.5805 142.334 96.1496C154.912 95.454 166.363 88.0669 174.251 78.5086M122.04 75.1992C119.698 72.5306 117.529 69.5678 116.229 66.2836C107.638 44.866 127.938 26.1256 146.321 20.078C153.957 17.5652 164.884 15.5903 172.347 19.7055C177.721 22.6339 170.005 28.7855 166.098 28.309C159.855 27.5291 157.944 19.4889 159.769 14.4201C161.241 10.5388 164.538 8.03519 168.267 6.41495C175.551 3.25266 183.187 3.49458 190.909 4.70791C207.129 7.27246 222.653 15.5817 235.49 25.4847C240.605 29.4183 246.158 33.5681 249.886 38.9225M259.081 53.3568C261.595 53.5821 264.11 54.1275 266.452 55.046C283.627 61.7264 283.455 81.9917 282.672 97.4732C282.499 101.376 282.24 105.248 281.63 109.108C281.026 113.115 279.985 117.141 278.685 120.989M257.608 30.977C258.563 34.3732 259.167 37.6919 259.254 41.218C259.254 42.1882 259.253 43.1676 259.167 44.1377C259.167 44.2332 258.995 44.9786 259.081 45.039C259.167 45.1085 260.209 44.6314 260.295 44.5884C261.688 44.1205 262.988 43.6268 264.375 43.1589C269.49 41.3743 275.042 39.719 280.509 39.5713M134.181 103.568C135.654 133.202 138.082 160.516 141.724 184.807C142.331 188.904 144.51 192.604 147.8 195.124C161.765 205.793 176.852 213.063 192.641 218.086C196.628 219.36 200.966 219.003 204.781 217.089C220.57 208.987 235.576 198.375 249.886 185.33M167.312 207.559L168.439 239.921" stroke="#25316D" stroke-width="2" stroke-miterlimit="1.5" stroke-linecap="round" stroke-linejoin="round"/>
<path d="M249.887 185.331L251.97 233.771C251.97 233.771 222.654 264.416 173.302 244.2M113.019 256.444C112.495 247.825 116.747 238.776 125.856 236.997C128.025 236.572 130.194 236.585 132.357 237.003C133.054 237.133 133.75 237.348 134.44 237.607C134.527 237.65 135.309 238.05 135.309 238.044C135.741 237.403 135.654 235.704 135.827 234.916C136.264 232.86 136.955 230.835 137.91 228.982C142.507 220.185 151.788 215.045 161.68 215.587M119.779 264.219C159.769 289.833 213.545 287.506 257.522 275.151C265.238 272.991 272.35 269.605 279.813 266.927M251.711 210.434C259.864 208.403 268.19 212.749 271.228 220.45C272.005 222.358 272.529 224.377 272.788 226.415V229.561C274.606 230.084 277.04 229.567 278.944 229.998C284.842 231.309 287.966 235.938 289.698 241.331M185.098 284.108L194.465 382.861M220.829 282.539L232.28 382.861" stroke="#25316D" stroke-width="2" stroke-miterlimit="1.5" stroke-linecap="round" stroke-linejoin="round"/>
<path d="M158.486 287.992C159.287 296.617 159.83 305.266 160.717 313.866C161.21 318.778 161.795 323.715 162.547 328.621C163.342 334.426 164.119 340.472 166.584 345.839C166.898 346.412 167.126 346.972 167.533 347.502C170.312 351.958 172.537 343.556 172.568 341.555C172.673 339.751 172.519 337.941 172.451 336.138C171.822 320.145 170.947 297.83 168.223 282.015M233.419 280.655C234.22 289.273 235.274 303.905 236.167 312.505C236.66 317.418 237.24 322.355 237.998 327.261C238.787 333.066 239.563 339.111 242.034 344.479C242.348 345.052 242.577 345.612 242.977 346.141C245.763 350.598 247.987 342.195 248.018 340.195C248.123 338.391 247.969 336.581 247.901 334.777C247.266 318.784 246.835 302.397 244.191 286.589M337.791 372.268C337.877 362.172 337.13 344.738 342.721 328.621C348.312 312.505 352.341 312.149 353.814 306.092M53.6025 301.985C68.4362 324.909 75.4617 352.063 80.1454 378.706M72.4235 310.899C77.4523 321.487 81.5321 332.567 84.0465 344.03" stroke="#25316D" stroke-width="2" stroke-miterlimit="1.5" stroke-linecap="round" stroke-linejoin="round"/>
<path d="M159.121 146.388C160.175 146.37 161.179 145.939 161.917 145.188C162.656 144.438 163.07 143.427 163.07 142.375C163.07 141.322 162.656 140.312 161.917 139.561C161.179 138.81 160.175 138.38 159.121 138.361C158.068 138.38 157.064 138.81 156.325 139.561C155.587 140.312 155.173 141.322 155.173 142.375C155.173 143.427 155.587 144.438 156.325 145.188C157.064 145.939 158.068 146.37 159.121 146.388ZM215.362 146.388C217.587 146.388 219.38 144.591 219.38 142.375C219.38 140.159 217.587 138.361 215.362 138.361C214.309 138.38 213.305 138.81 212.566 139.561C211.828 140.312 211.414 141.322 211.414 142.375C211.414 143.427 211.828 144.438 212.566 145.188C213.305 145.939 214.309 146.37 215.362 146.388Z" fill="#25316D"/>
<path fill-rule="evenodd" clip-rule="evenodd" d="M167.835 207.769C167.835 207.769 185.701 219.293 198.451 217.883C211.202 216.479 238.263 194.927 238.263 194.927C238.263 194.927 224.908 220.234 198.451 226.643C185.96 229.665 167.835 217.883 167.835 217.883V207.769Z" fill="#25316D"/>
<path d="M362.997 41.5524C363.013 41.5575 363.03 41.5622 363.047 41.5665C380.591 46.1017 391.181 63.1781 386.139 79.256C386.135 79.2693 386.131 79.2827 386.127 79.2961C384.93 83.7588 382.714 88.0999 379.585 91.4905L378.456 92.6755C371.229 99.922 366.505 108.319 363.613 118.111L363.613 118.111C363.272 119.266 362.377 120.227 361.196 120.821C360.014 121.415 358.631 121.595 357.425 121.272L332.839 114.692C330.153 113.973 328.412 111.43 328.709 108.625L327.714 108.52L328.709 108.625C329.574 100.458 328.257 91.977 326.144 84.3467C326.131 84.298 326.114 84.2505 326.093 84.2044C323.126 77.5889 322.784 70.0034 324.105 62.8173C327.774 46.381 346.727 36.4407 362.997 41.5524Z" fill="white" stroke="#25316D" stroke-width="2" stroke-linecap="round" stroke-linejoin="round"/>
<path d="M326.955 132.047L351.602 138.644L348.738 149.321C348.572 149.943 348.015 150.521 347.021 150.862C346.036 151.2 344.726 151.256 343.345 150.886L327.978 146.773C326.597 146.404 325.491 145.701 324.807 144.916C324.117 144.124 323.924 143.346 324.091 142.724L326.955 132.047Z" stroke="#25316D" stroke-width="2" stroke-linecap="round" stroke-linejoin="round"/>
<path d="M364.363 16.7644C366.543 16.9019 368.834 17.1629 370.976 17.6017M371.864 17.2896C368.697 23.2313 366.344 29.4981 363.367 35.5099M364.851 17.404C364.183 22.9959 364.111 28.6316 363.566 34.2122M398.154 17.3264C392.364 25.379 387.344 33.971 381.239 41.7827M397.671 17.4547C399.067 19.4579 400.611 21.3771 401.959 23.3969M402.648 24.6318C394.872 30.5809 387.224 36.8382 379.027 42.1735M389.558 53.6222C396.245 53.1991 403.034 53.4386 409.728 53.493M410.204 53.6915C409.293 56.119 408.674 58.6322 407.828 61.0869M389.124 54.8639C394.257 56.8197 399.289 59.025 404.398 61.0441" stroke="#25316D" stroke-width="2" stroke-miterlimit="1.5" stroke-linecap="round" stroke-linejoin="round"/>
<path d="M356.695 125.82L331.076 118.206C330.261 117.964 329.478 118.259 329.384 118.844L329.079 120.746C328.823 122.337 329.079 124.025 329.827 125.683C329.952 125.96 330.276 126.188 330.653 126.266C338.434 127.888 345.868 130.074 352.925 132.875C353.311 133.028 353.738 133.002 353.991 132.807L354.223 132.628C355.383 131.733 356.258 130.648 356.803 129.429L357.763 127.278C358.004 126.737 357.51 126.062 356.695 125.82Z" fill="#58B9FD"/>
<path d="M333.981 157.747L329.435 156.396C328.935 156.247 328.538 155.864 328.369 155.367L326.661 150.33L339.623 154.182L335.436 157.467C335.023 157.791 334.481 157.895 333.981 157.747Z" fill="#58B9FD"/>
<path d="M328.188 134.33L349.166 140.564L347.928 146.161C347.194 148.624 344.616 150.034 342.174 149.308L330.045 145.704C327.603 144.978 326.216 142.389 326.949 139.927L328.188 134.33Z" fill="#58B9FD"/>
<path d="M335.578 157.433L329.817 155.892C329.499 155.807 329.239 155.571 329.122 155.255L327.472 150.796L340.159 154.192L336.499 157.229C336.239 157.444 335.896 157.519 335.578 157.433Z" stroke="#25316D" stroke-width="2" stroke-linecap="round" stroke-linejoin="round"/>
<path d="M326.812 116.463L326.812 116.463C326.897 115.972 327.377 115.674 327.833 115.796L360.293 124.484C360.748 124.606 361.015 125.103 360.843 125.571L359.366 129.594C358.571 131.757 357.383 133.754 355.861 135.48L355.541 135.844C355.474 135.92 355.372 135.943 355.281 135.905C346.331 132.222 336.828 129.721 326.821 128.305C326.73 128.292 326.657 128.228 326.632 128.14L325.669 128.412L326.632 128.14C325.879 125.468 325.735 122.657 326.212 119.915L326.812 116.463Z" stroke="#25316D" stroke-width="2" stroke-linecap="round" stroke-linejoin="round"/>
<path d="M340.277 106.599C345.409 97.8381 349.885 88.4414 350.014 78.0783C349.931 74.6475 349.528 70.6774 347.444 67.8239C346.092 65.9968 343.748 65.4677 342.409 67.6901C340.405 71.0211 343.728 74.7527 346.638 76.2599C352.394 79.166 360.688 78.1427 366.588 75.7484C368.569 74.8938 374.355 71.5498 372.034 68.5428C367.992 63.0536 361.588 71.3909 360.21 74.796C358.437 79.2978 357.59 84.1343 356.791 88.7988C355.393 96.7074 354.565 104.865 354.071 112.832" stroke="#CB2027" stroke-width="2" stroke-miterlimit="1.5" stroke-linecap="round" stroke-linejoin="round"/>
<path d="M361.381 46.293C370.368 49.2273 377.174 56.5312 381.227 64.83M383.006 71.9908C383.238 74.9114 383.006 77.3302 381.227 80.8302" stroke="#25316D" stroke-width="2" stroke-miterlimit="1.5" stroke-linecap="round" stroke-linejoin="round"/>
</g>
<defs>
<clipPath id="clip0_930_8141">
<rect width="426.226" height="386.049" fill="white" transform="translate(0 0.379395)"/>
</clipPath>
</defs>
</svg>
