<svg width="64" height="64" viewBox="0 0 64 64" fill="none" xmlns="http://www.w3.org/2000/svg">
<path fill-rule="evenodd" clip-rule="evenodd" d="M18.099 3.88745C19.2496 3.88745 20.1823 4.82019 20.1823 5.97078V8.91706C20.1823 10.0677 19.2496 11.0004 18.099 11.0004C16.9484 11.0004 16.0156 10.0677 16.0156 8.91706L16.0156 5.97078C16.0156 4.82019 16.9484 3.88745 18.099 3.88745Z" fill="#CB2027"/>
<path fill-rule="evenodd" clip-rule="evenodd" d="M46.0531 3.88745C47.2037 3.88745 48.1364 4.82019 48.1364 5.97078V8.91706C48.1364 10.0677 47.2037 11.0004 46.0531 11.0004C44.9025 11.0004 43.9697 10.0677 43.9697 8.91706L43.9697 5.97078C43.9697 4.82019 44.9025 3.88745 46.0531 3.88745Z" fill="#CB2027"/>
<rect x="7" y="9.5271" width="50" height="49.9819" rx="6.25" fill="#25316D"/>
<rect x="9" y="20" width="46" height="37.4958" rx="4.16667" fill="white"/>
<circle cx="20.7943" cy="27.3043" r="2.86458" fill="#CB2027"/>
<circle cx="20.7943" cy="37.7208" r="2.86458" fill="#25316D"/>
<circle cx="20.7943" cy="49.1793" r="2.86458" fill="#25316D"/>
<circle cx="32.2523" cy="27.3043" r="2.86458" fill="#CB2027"/>
<circle cx="32.2523" cy="37.7208" r="2.86458" fill="#25316D"/>
<circle cx="32.2523" cy="49.1793" r="2.86458" fill="#25316D"/>
<circle cx="43.7103" cy="27.3043" r="2.86458" fill="#25316D"/>
<circle cx="43.7103" cy="37.7208" r="2.86458" fill="#25316D"/>
<circle cx="43.7103" cy="49.1793" r="2.86458" fill="#25316D"/>
</svg>
