<svg width="64" height="64" viewBox="0 0 64 64" fill="none" xmlns="http://www.w3.org/2000/svg">
<path d="M6 27C6 26.4477 6.44771 26 7 26H56.1429C56.6951 26 57.1429 26.4477 57.1429 27V34.3333H6V27Z" fill="white" stroke="#25316D" stroke-width="2"/>
<path d="M6 33.3809H57.1429V53.9999C57.1429 54.5522 56.6951 54.9999 56.1429 54.9999H7C6.44772 54.9999 6 54.5522 6 53.9999V33.3809Z" fill="white" stroke="#25316D" stroke-width="2"/>
<path d="M12.5393 46.9544V47.3834C12.5393 47.6434 12.4783 47.8484 12.3563 47.9984C12.2343 48.1464 12.0553 48.2204 11.8193 48.2204C11.5833 48.2204 11.4043 48.1464 11.2823 47.9984C11.1603 47.8484 11.0993 47.6434 11.0993 47.3834V46.9544C11.0993 46.6944 11.1603 46.4904 11.2823 46.3424C11.4043 46.1944 11.5833 46.1204 11.8193 46.1204C12.0553 46.1204 12.2343 46.1944 12.3563 46.3424C12.4783 46.4904 12.5393 46.6944 12.5393 46.9544ZM12.1763 46.9544C12.1763 46.6204 12.0573 46.4534 11.8193 46.4534C11.6973 46.4534 11.6073 46.4954 11.5493 46.5794C11.4913 46.6634 11.4623 46.7884 11.4623 46.9544V47.3834C11.4623 47.5494 11.4913 47.6754 11.5493 47.7614C11.6073 47.8454 11.6973 47.8874 11.8193 47.8874C12.0573 47.8874 12.1763 47.7194 12.1763 47.3834V46.9544ZM14.9014 48.1904H13.6654V47.9054C13.6654 47.7614 13.6844 47.6414 13.7224 47.5454C13.7604 47.4474 13.8114 47.3674 13.8754 47.3054C13.9394 47.2414 14.0094 47.1904 14.0854 47.1524L14.2894 47.0504C14.3674 47.0104 14.4304 46.9684 14.4784 46.9244C14.5284 46.8784 14.5534 46.8194 14.5534 46.7474V46.6934C14.5534 46.6194 14.5274 46.5614 14.4754 46.5194C14.4254 46.4754 14.3444 46.4534 14.2324 46.4534C14.1644 46.4534 14.0954 46.4634 14.0254 46.4834C13.9574 46.5034 13.8744 46.5314 13.7764 46.5674L13.6654 46.2584C13.7774 46.2084 13.8794 46.1734 13.9714 46.1534C14.0654 46.1314 14.1564 46.1204 14.2444 46.1204C14.4064 46.1204 14.5354 46.1464 14.6314 46.1984C14.7294 46.2504 14.7994 46.3204 14.8414 46.4084C14.8854 46.4944 14.9074 46.5894 14.9074 46.6934V46.7474C14.9074 46.8554 14.8854 46.9474 14.8414 47.0234C14.7994 47.0994 14.7434 47.1634 14.6734 47.2154C14.6034 47.2674 14.5274 47.3134 14.4454 47.3534L14.2414 47.4554C14.1674 47.4914 14.1124 47.5414 14.0764 47.6054C14.0424 47.6694 14.0234 47.7514 14.0194 47.8514H14.9014V48.1904ZM17.505 46.9544V47.3834C17.505 47.6434 17.444 47.8484 17.322 47.9984C17.2 48.1464 17.021 48.2204 16.785 48.2204C16.549 48.2204 16.37 48.1464 16.248 47.9984C16.126 47.8484 16.065 47.6434 16.065 47.3834V46.9544C16.065 46.6944 16.126 46.4904 16.248 46.3424C16.37 46.1944 16.549 46.1204 16.785 46.1204C17.021 46.1204 17.2 46.1944 17.322 46.3424C17.444 46.4904 17.505 46.6944 17.505 46.9544ZM17.142 46.9544C17.142 46.6204 17.023 46.4534 16.785 46.4534C16.663 46.4534 16.573 46.4954 16.515 46.5794C16.457 46.6634 16.428 46.7884 16.428 46.9544V47.3834C16.428 47.5494 16.457 47.6754 16.515 47.7614C16.573 47.8454 16.663 47.8874 16.785 47.8874C17.023 47.8874 17.142 47.7194 17.142 47.3834V46.9544ZM19.8491 47.6354C19.8491 47.7414 19.8271 47.8394 19.7831 47.9294C19.7391 48.0174 19.6681 48.0884 19.5701 48.1424C19.4741 48.1944 19.3451 48.2204 19.1831 48.2204C19.0911 48.2204 18.9951 48.2094 18.8951 48.1874C18.7971 48.1654 18.6891 48.1284 18.5711 48.0764L18.6821 47.7674C18.7881 47.8054 18.8771 47.8354 18.9491 47.8574C19.0231 47.8774 19.0971 47.8874 19.1711 47.8874C19.2771 47.8874 19.3571 47.8664 19.4111 47.8244C19.4671 47.7804 19.4951 47.7124 19.4951 47.6204V47.5784C19.4951 47.5024 19.4711 47.4414 19.4231 47.3954C19.3771 47.3474 19.3051 47.3234 19.2071 47.3234H18.8891V46.9994H19.2071C19.3011 46.9994 19.3701 46.9774 19.4141 46.9334C19.4581 46.8874 19.4801 46.8284 19.4801 46.7564V46.7144C19.4801 46.6224 19.4541 46.5564 19.4021 46.5164C19.3521 46.4744 19.2781 46.4534 19.1801 46.4534C19.1101 46.4534 19.0391 46.4634 18.9671 46.4834C18.8971 46.5014 18.8121 46.5294 18.7121 46.5674L18.6011 46.2584C18.7131 46.2064 18.8171 46.1704 18.9131 46.1504C19.0091 46.1304 19.1021 46.1204 19.1921 46.1204C19.3461 46.1204 19.4701 46.1464 19.5641 46.1984C19.6581 46.2504 19.7261 46.3204 19.7681 46.4084C19.8121 46.4964 19.8341 46.5934 19.8341 46.6994V46.7414C19.8341 46.8354 19.8101 46.9184 19.7621 46.9904C19.7161 47.0604 19.6551 47.1164 19.5791 47.1584C19.6611 47.2024 19.7261 47.2614 19.7741 47.3354C19.8241 47.4074 19.8491 47.4934 19.8491 47.5934V47.6354ZM22.336 47.3864C22.336 47.6664 22.27 47.8754 22.138 48.0134C22.006 48.1514 21.82 48.2204 21.58 48.2204C21.496 48.2204 21.409 48.2104 21.319 48.1904C21.229 48.1704 21.128 48.1344 21.016 48.0824L21.145 47.7734C21.235 47.8154 21.314 47.8454 21.382 47.8634C21.452 47.8794 21.515 47.8874 21.571 47.8874C21.697 47.8874 21.798 47.8494 21.874 47.7734C21.952 47.6974 21.991 47.5684 21.991 47.3864V47.2784C21.923 47.3404 21.851 47.3864 21.775 47.4164C21.701 47.4464 21.626 47.4614 21.55 47.4614C21.432 47.4614 21.328 47.4344 21.238 47.3804C21.15 47.3264 21.082 47.2514 21.034 47.1554C20.986 47.0594 20.962 46.9484 20.962 46.8224V46.7624C20.962 46.6504 20.989 46.5454 21.043 46.4474C21.097 46.3494 21.174 46.2704 21.274 46.2104C21.374 46.1504 21.493 46.1204 21.631 46.1204C21.853 46.1204 22.026 46.1954 22.15 46.3454C22.274 46.4954 22.336 46.7014 22.336 46.9634V47.3864ZM21.313 46.8224C21.313 46.9144 21.338 46.9904 21.388 47.0504C21.44 47.1084 21.512 47.1374 21.604 47.1374C21.746 47.1374 21.875 47.0834 21.991 46.9754V46.9634C21.991 46.7914 21.959 46.6634 21.895 46.5794C21.833 46.4954 21.743 46.4534 21.625 46.4534C21.527 46.4534 21.45 46.4854 21.394 46.5494C21.34 46.6134 21.313 46.6844 21.313 46.7624V46.8224ZM24.857 47.7284H24.644V48.1904H24.296V47.7284H23.42V47.4374C23.51 47.2974 23.599 47.1554 23.687 47.0114C23.777 46.8654 23.861 46.7204 23.939 46.5764C24.017 46.4304 24.081 46.2884 24.131 46.1504H24.524C24.45 46.3544 24.35 46.5644 24.224 46.7804C24.098 46.9944 23.968 47.2034 23.834 47.4074H24.296V47.0984H24.644V47.4074H24.857V47.7284ZM27.303 47.5784C27.303 47.7004 27.276 47.8104 27.222 47.9084C27.168 48.0044 27.091 48.0804 26.991 48.1364C26.893 48.1924 26.774 48.2204 26.634 48.2204C26.412 48.2204 26.239 48.1454 26.115 47.9954C25.991 47.8454 25.929 47.6394 25.929 47.3774V46.9544C25.929 46.6744 25.995 46.4654 26.127 46.3274C26.259 46.1894 26.445 46.1204 26.685 46.1204C26.769 46.1204 26.856 46.1304 26.946 46.1504C27.038 46.1704 27.139 46.2064 27.249 46.2584L27.12 46.5674C27.03 46.5254 26.951 46.4964 26.883 46.4804C26.815 46.4624 26.752 46.4534 26.694 46.4534C26.568 46.4534 26.466 46.4914 26.388 46.5674C26.312 46.6414 26.274 46.7704 26.274 46.9544V47.0624C26.344 47.0004 26.416 46.9544 26.49 46.9244C26.566 46.8944 26.641 46.8794 26.715 46.8794C26.835 46.8794 26.939 46.9064 27.027 46.9604C27.115 47.0144 27.183 47.0894 27.231 47.1854C27.279 47.2814 27.303 47.3924 27.303 47.5184V47.5784ZM26.274 47.3774C26.274 47.5494 26.306 47.6774 26.37 47.7614C26.434 47.8454 26.524 47.8874 26.64 47.8874C26.74 47.8874 26.817 47.8594 26.871 47.8034C26.925 47.7454 26.952 47.6704 26.952 47.5784V47.5184C26.952 47.4244 26.927 47.3484 26.877 47.2904C26.827 47.2324 26.755 47.2034 26.661 47.2034C26.519 47.2034 26.39 47.2574 26.274 47.3654V47.3774ZM29.887 46.9544V47.3834C29.887 47.6434 29.826 47.8484 29.704 47.9984C29.582 48.1464 29.403 48.2204 29.167 48.2204C28.931 48.2204 28.752 48.1464 28.63 47.9984C28.508 47.8484 28.447 47.6434 28.447 47.3834V46.9544C28.447 46.6944 28.508 46.4904 28.63 46.3424C28.752 46.1944 28.931 46.1204 29.167 46.1204C29.403 46.1204 29.582 46.1944 29.704 46.3424C29.826 46.4904 29.887 46.6944 29.887 46.9544ZM29.524 46.9544C29.524 46.6204 29.405 46.4534 29.167 46.4534C29.045 46.4534 28.955 46.4954 28.897 46.5794C28.839 46.6634 28.81 46.7884 28.81 46.9544V47.3834C28.81 47.5494 28.839 47.6754 28.897 47.7614C28.955 47.8454 29.045 47.8874 29.167 47.8874C29.405 47.8874 29.524 47.7194 29.524 47.3834V46.9544ZM30.9231 46.4414L31.4421 46.1504H31.7421V48.1904H31.3881V46.5464L31.0821 46.7144L30.9231 46.4414ZM34.1719 47.6354C34.1719 47.7414 34.1499 47.8394 34.1059 47.9294C34.0619 48.0174 33.9909 48.0884 33.8929 48.1424C33.7969 48.1944 33.6679 48.2204 33.5059 48.2204C33.4139 48.2204 33.3179 48.2094 33.2179 48.1874C33.1199 48.1654 33.0119 48.1284 32.8939 48.0764L33.0049 47.7674C33.1109 47.8054 33.1999 47.8354 33.2719 47.8574C33.3459 47.8774 33.4199 47.8874 33.4939 47.8874C33.5999 47.8874 33.6799 47.8664 33.7339 47.8244C33.7899 47.7804 33.8179 47.7124 33.8179 47.6204V47.5784C33.8179 47.5024 33.7939 47.4414 33.7459 47.3954C33.6999 47.3474 33.6279 47.3234 33.5299 47.3234H33.2119V46.9994H33.5299C33.6239 46.9994 33.6929 46.9774 33.7369 46.9334C33.7809 46.8874 33.8029 46.8284 33.8029 46.7564V46.7144C33.8029 46.6224 33.7769 46.5564 33.7249 46.5164C33.6749 46.4744 33.6009 46.4534 33.5029 46.4534C33.4329 46.4534 33.3619 46.4634 33.2899 46.4834C33.2199 46.5014 33.1349 46.5294 33.0349 46.5674L32.9239 46.2584C33.0359 46.2064 33.1399 46.1704 33.2359 46.1504C33.3319 46.1304 33.4249 46.1204 33.5149 46.1204C33.6689 46.1204 33.7929 46.1464 33.8869 46.1984C33.9809 46.2504 34.0489 46.3204 34.0909 46.4084C34.1349 46.4964 34.1569 46.5934 34.1569 46.6994V46.7414C34.1569 46.8354 34.1329 46.9184 34.0849 46.9904C34.0389 47.0604 33.9779 47.1164 33.9019 47.1584C33.9839 47.2024 34.0489 47.2614 34.0969 47.3354C34.1469 47.4074 34.1719 47.4934 34.1719 47.5934V47.6354ZM36.5029 48.1904H35.2669V47.9054C35.2669 47.7614 35.2859 47.6414 35.3239 47.5454C35.3619 47.4474 35.4129 47.3674 35.4769 47.3054C35.5409 47.2414 35.6109 47.1904 35.6869 47.1524L35.8909 47.0504C35.9689 47.0104 36.0319 46.9684 36.0799 46.9244C36.1299 46.8784 36.1549 46.8194 36.1549 46.7474V46.6934C36.1549 46.6194 36.1289 46.5614 36.0769 46.5194C36.0269 46.4754 35.9459 46.4534 35.8339 46.4534C35.7659 46.4534 35.6969 46.4634 35.6269 46.4834C35.5589 46.5034 35.4759 46.5314 35.3779 46.5674L35.2669 46.2584C35.3789 46.2084 35.4809 46.1734 35.5729 46.1534C35.6669 46.1314 35.7579 46.1204 35.8459 46.1204C36.0079 46.1204 36.1369 46.1464 36.2329 46.1984C36.3309 46.2504 36.4009 46.3204 36.4429 46.4084C36.4869 46.4944 36.5089 46.5894 36.5089 46.6934V46.7474C36.5089 46.8554 36.4869 46.9474 36.4429 47.0234C36.4009 47.0994 36.3449 47.1634 36.2749 47.2154C36.2049 47.2674 36.1289 47.3134 36.0469 47.3534L35.8429 47.4554C35.7689 47.4914 35.7139 47.5414 35.6779 47.6054C35.6439 47.6694 35.6249 47.7514 35.6209 47.8514H36.5029V48.1904Z" fill="black"/>
<rect x="10.9043" y="38.2856" width="38.381" height="4.42857" fill="#CB2027"/>
<path d="M31.889 5.28037L41.0906 8.84389L45.0773 17.8702L43.1751 25.0414L32.4875 25.0414L21.2143 25.0414L19.2992 18.4686L22.8627 9.26705L31.889 5.28037Z" fill="white"/>
<path d="M36 19.5C36 21.433 34.433 23 32.5 23C30.567 23 29 21.433 29 19.5C29 17.567 30.567 16 32.5 16C34.433 16 36 17.567 36 19.5Z" fill="white"/>
<circle cx="32.5" cy="19.5" r="5.5" fill="#CB2027"/>
<path d="M43.4655 25.9188L42.0977 23.1831L45 22.2158V15.7849L42.0989 14.8176L43.467 12.0814L38.9198 7.53408L36.1828 8.90228L35.2154 6H28.7846L27.8173 8.90188L25.0819 7.53388L20.5346 12.0813L21.9026 14.8172L19 15.7847V22.2157L21.9025 23.1829L20.5347 25.9185" stroke="#25316D" stroke-width="2" stroke-linecap="round"/>
</svg>
