<svg width="20" height="20" viewBox="0 0 20 20" fill="none" xmlns="http://www.w3.org/2000/svg">
<mask id="mask0_1094_13564" style="mask-type:alpha" maskUnits="userSpaceOnUse" x="0" y="0" width="20" height="20">
<rect width="20" height="20" fill="#D9D9D9"/>
</mask>
<g mask="url(#mask0_1094_13564)">
<path d="M15.2105 19L13.8842 17.5176L15.3763 15.8235H11.4211V13.7059H15.3763L13.8842 12.0118L15.2105 10.5294L19 14.7647L15.2105 19ZM1 19V3.11765C1 2.53529 1.18553 2.03676 1.55658 1.62206C1.92763 1.20735 2.37368 1 2.89474 1H14.2632C14.7842 1 15.2303 1.20735 15.6013 1.62206C15.9724 2.03676 16.1579 2.53529 16.1579 3.11765V8.49118C16 8.45588 15.8421 8.43382 15.6842 8.425C15.5263 8.41618 15.3684 8.41177 15.2105 8.41177C15.0526 8.41177 14.8947 8.41618 14.7368 8.425C14.5789 8.43382 14.4211 8.45588 14.2632 8.49118V3.11765H2.89474V13.7059H9.59737C9.56579 13.8824 9.54605 14.0588 9.53816 14.2353C9.53026 14.4118 9.52632 14.5882 9.52632 14.7647C9.52632 14.9412 9.53026 15.1176 9.53816 15.2941C9.54605 15.4706 9.56579 15.6471 9.59737 15.8235H3.84211L1 19ZM4.78947 7.35294H12.3684V5.23529H4.78947V7.35294ZM4.78947 11.5882H9.52632V9.47059H4.78947V11.5882Z" fill="#303030"/>
</g>
</svg>
