<svg width="28" height="28" viewBox="0 0 28 28" fill="none" xmlns="http://www.w3.org/2000/svg">
<mask id="mask0_985_22957" style="mask-type:alpha" maskUnits="userSpaceOnUse" x="0" y="0" width="28" height="28">
<rect width="28" height="28" fill="#D9D9D9"/>
</mask>
<g mask="url(#mask0_985_22957)">
<path d="M11.1471 20.5038C10.9915 20.5038 10.8457 20.4795 10.7096 20.4309C10.5734 20.3823 10.4471 20.2996 10.3304 20.183L5.31372 15.1663C5.09983 14.9524 4.99775 14.6753 5.00747 14.3351C5.01719 13.9948 5.129 13.7177 5.34289 13.5038C5.55678 13.2899 5.829 13.183 6.15955 13.183C6.49011 13.183 6.76233 13.2899 6.97622 13.5038L11.1471 17.6746L21.0346 7.78714C21.2484 7.57325 21.5255 7.46631 21.8658 7.46631C22.2061 7.46631 22.4832 7.57325 22.6971 7.78714C22.9109 8.00103 23.0179 8.27811 23.0179 8.61839C23.0179 8.95867 22.9109 9.23575 22.6971 9.44964L11.9637 20.183C11.8471 20.2996 11.7207 20.3823 11.5846 20.4309C11.4484 20.4795 11.3026 20.5038 11.1471 20.5038Z" fill="#303030"/>
</g>
</svg>
