<svg width="3773" height="453" viewBox="0 0 3773 453" fill="none" xmlns="http://www.w3.org/2000/svg">
<path d="M1789 294.133C1788.1 294.133 1787.2 294.133 1786.3 294.213C1778.2 286.979 1763.6 282.209 1747 282.209C1730.3 282.209 1715.7 287.058 1707.6 294.292C1690.4 295.485 1677 303.514 1677 313.212C1677 323.785 1692.7 332.291 1712 332.291C1723.9 332.53 1732.6 332.371 1738.9 331.894C1741.5 332.132 1744.2 332.291 1747 332.291C1751 332.291 1754.8 332.053 1758.5 331.496C1765.5 331.973 1775.4 332.291 1789 332.291C1808.3 332.291 1824 323.785 1824 313.212C1824 302.639 1808.3 294.133 1789 294.133Z" fill="#E2EEFF"/>
<path d="M853 11.9243C852.1 11.9243 851.2 11.9243 850.3 12.0038C842.2 4.76974 827.6 0 811 0C794.3 0 779.7 4.84923 771.6 12.0833C754.4 13.2758 741 21.3048 741 31.0033C741 41.5762 756.7 50.0822 776 50.0822C787.9 50.3207 796.6 50.1617 802.9 49.6848C805.5 49.9232 808.2 50.0822 811 50.0822C815 50.0822 818.8 49.8437 822.5 49.2873C829.5 49.7643 839.4 50.0822 853 50.0822C872.3 50.0822 888 41.5762 888 31.0033C888 20.4304 872.3 11.9243 853 11.9243Z" fill="#E2EEFF"/>
<path d="M221 294.756C220.1 294.756 219.2 294.756 218.3 294.836C210.2 287.602 195.6 282.832 179 282.832C162.3 282.832 147.7 287.681 139.6 294.915C122.4 296.108 109 304.137 109 313.835C109 324.408 124.7 332.914 144 332.914C155.9 333.153 164.6 332.994 170.9 332.517C173.5 332.755 176.2 332.914 179 332.914C183 332.914 186.8 332.676 190.5 332.119C197.5 332.596 207.4 332.914 221 332.914C240.3 332.914 256 324.408 256 313.835C256 303.262 240.3 294.756 221 294.756Z" fill="#E2EEFF"/>
<path d="M1511.57 191.366C1511.02 191.366 1510.47 191.366 1509.92 191.415C1504.96 186.946 1496.02 184 1485.86 184C1475.63 184 1466.69 186.995 1461.73 191.464C1451.2 192.2 1443 197.16 1443 203.151C1443 209.681 1452.61 214.936 1464.43 214.936C1471.71 215.083 1477.04 214.985 1480.9 214.69C1482.49 214.837 1484.14 214.936 1485.86 214.936C1488.31 214.936 1490.63 214.788 1492.9 214.445C1497.18 214.739 1503.24 214.936 1511.57 214.936C1523.39 214.936 1533 209.681 1533 203.151C1533 196.62 1523.39 191.366 1511.57 191.366Z" fill="#E2EEFF"/>
<path d="M1909.57 84.3656C1909.02 84.3656 1908.47 84.3656 1907.92 84.4147C1902.96 79.9462 1894.02 77 1883.86 77C1873.63 77 1864.69 79.9954 1859.73 84.4638C1849.2 85.2004 1841 90.1599 1841 96.1506C1841 102.681 1850.61 107.936 1862.43 107.936C1869.71 108.083 1875.04 107.985 1878.9 107.69C1880.49 107.837 1882.14 107.936 1883.86 107.936C1886.31 107.936 1888.63 107.788 1890.9 107.445C1895.18 107.739 1901.24 107.936 1909.57 107.936C1921.39 107.936 1931 102.681 1931 96.1506C1931 89.6198 1921.39 84.3656 1909.57 84.3656Z" fill="#E2EEFF"/>
<path d="M2392.57 32.3656C2392.02 32.3656 2391.47 32.3656 2390.92 32.4147C2385.96 27.9462 2377.02 25 2366.86 25C2356.63 25 2347.69 27.9954 2342.73 32.4638C2332.2 33.2004 2324 38.1599 2324 44.1506C2324 50.6815 2333.61 55.9356 2345.43 55.9356C2352.71 56.0829 2358.04 55.9847 2361.9 55.6901C2363.49 55.8374 2365.14 55.9356 2366.86 55.9356C2369.31 55.9356 2371.63 55.7883 2373.9 55.4446C2378.18 55.7392 2384.24 55.9356 2392.57 55.9356C2404.39 55.9356 2414 50.6815 2414 44.1506C2414 37.6198 2404.39 32.3656 2392.57 32.3656Z" fill="#E2EEFF"/>
<path d="M2594.57 182.366C2594.02 182.366 2593.47 182.366 2592.92 182.415C2587.96 177.946 2579.02 175 2568.86 175C2558.63 175 2549.69 177.995 2544.73 182.464C2534.2 183.2 2526 188.16 2526 194.151C2526 200.681 2535.61 205.936 2547.43 205.936C2554.71 206.083 2560.04 205.985 2563.9 205.69C2565.49 205.837 2567.14 205.936 2568.86 205.936C2571.31 205.936 2573.63 205.788 2575.9 205.445C2580.18 205.739 2586.24 205.936 2594.57 205.936C2606.39 205.936 2616 200.681 2616 194.151C2616 187.62 2606.39 182.366 2594.57 182.366Z" fill="#E2EEFF"/>
<path d="M2950.57 253.366C2950.02 253.366 2949.47 253.366 2948.92 253.415C2943.96 248.946 2935.02 246 2924.86 246C2914.63 246 2905.69 248.995 2900.73 253.464C2890.2 254.2 2882 259.16 2882 265.151C2882 271.681 2891.61 276.936 2903.43 276.936C2910.71 277.083 2916.04 276.985 2919.9 276.69C2921.49 276.837 2923.14 276.936 2924.86 276.936C2927.31 276.936 2929.63 276.788 2931.9 276.445C2936.18 276.739 2942.24 276.936 2950.57 276.936C2962.39 276.936 2972 271.681 2972 265.151C2972 258.62 2962.39 253.366 2950.57 253.366Z" fill="#E2EEFF"/>
<path d="M698.571 222.366C698.02 222.366 697.469 222.366 696.918 222.415C691.959 217.946 683.02 215 672.857 215C662.633 215 653.694 217.995 648.735 222.464C638.204 223.2 630 228.16 630 234.151C630 240.681 639.612 245.936 651.429 245.936C658.714 246.083 664.041 245.985 667.898 245.69C669.49 245.837 671.143 245.936 672.857 245.936C675.306 245.936 677.633 245.788 679.898 245.445C684.184 245.739 690.245 245.936 698.571 245.936C710.388 245.936 720 240.681 720 234.151C720 227.62 710.388 222.366 698.571 222.366Z" fill="#E2EEFF"/>
<path d="M433 69.9556C432.1 69.9556 431.2 69.9556 430.3 70.0351C422.2 62.801 407.6 58.0312 391 58.0312C374.3 58.0312 359.7 62.8805 351.6 70.1146C334.4 71.307 321 79.3361 321 89.0345C321 99.6075 336.7 108.113 356 108.113C367.9 108.352 376.6 108.193 382.9 107.716C385.5 107.954 388.2 108.113 391 108.113C395 108.113 398.8 107.875 402.5 107.319C409.5 107.796 419.4 108.113 433 108.113C452.3 108.113 468 99.6075 468 89.0345C468 78.4616 452.3 69.9556 433 69.9556Z" fill="#E2EEFF"/>
<path d="M1095 294.924C1094.1 294.924 1093.2 294.924 1092.3 295.004C1084.2 287.77 1069.6 283 1053 283C1036.3 283 1021.7 287.849 1013.6 295.083C996.4 296.276 983 304.305 983 314.003C983 324.576 998.7 333.082 1018 333.082C1029.9 333.321 1038.6 333.162 1044.9 332.685C1047.5 332.923 1050.2 333.082 1053 333.082C1057 333.082 1060.8 332.844 1064.5 332.287C1071.5 332.764 1081.4 333.082 1095 333.082C1114.3 333.082 1130 324.576 1130 314.003C1130 303.43 1114.3 294.924 1095 294.924Z" fill="#E2EEFF"/>
<path d="M1333 69.9243C1332.1 69.9243 1331.2 69.9243 1330.3 70.0038C1322.2 62.7697 1307.6 58 1291 58C1274.3 58 1259.7 62.8492 1251.6 70.0833C1234.4 71.2758 1221 79.3048 1221 89.0033C1221 99.5762 1236.7 108.082 1256 108.082C1267.9 108.321 1276.6 108.162 1282.9 107.685C1285.5 107.923 1288.2 108.082 1291 108.082C1295 108.082 1298.8 107.844 1302.5 107.287C1309.5 107.764 1319.4 108.082 1333 108.082C1352.3 108.082 1368 99.5762 1368 89.0033C1368 78.4304 1352.3 69.9243 1333 69.9243Z" fill="#E2EEFF"/>
<path d="M3738 294.758C3737.1 294.758 3736.2 294.758 3735.3 294.838C3727.2 287.604 3712.6 282.834 3696 282.834C3679.3 282.834 3664.7 287.683 3656.6 294.917C3639.4 296.11 3626 304.139 3626 313.837C3626 324.41 3641.7 332.916 3661 332.916C3672.9 333.155 3681.6 332.996 3687.9 332.519C3690.5 332.757 3693.2 332.916 3696 332.916C3700 332.916 3703.8 332.678 3707.5 332.121C3714.5 332.598 3724.4 332.916 3738 332.916C3757.3 332.916 3773 324.41 3773 313.837C3773 303.264 3757.3 294.758 3738 294.758Z" fill="#E2EEFF"/>
<path d="M2802 11.9243C2801.1 11.9243 2800.2 11.9243 2799.3 12.0038C2791.2 4.76974 2776.6 0 2760 0C2743.3 0 2728.7 4.84923 2720.6 12.0833C2703.4 13.2758 2690 21.3048 2690 31.0033C2690 41.5762 2705.7 50.0822 2725 50.0822C2736.9 50.3207 2745.6 50.1617 2751.9 49.6848C2754.5 49.9232 2757.2 50.0822 2760 50.0822C2764 50.0822 2767.8 49.8437 2771.5 49.2873C2778.5 49.7643 2788.4 50.0822 2802 50.0822C2821.3 50.0822 2837 41.5762 2837 31.0033C2837 20.4304 2821.3 11.9243 2802 11.9243Z" fill="#E2EEFF"/>
<path d="M2170 217.819C2169.1 217.819 2168.2 217.819 2167.3 217.898C2159.2 210.664 2144.6 205.895 2128 205.895C2111.3 205.895 2096.7 210.744 2088.6 217.978C2071.4 219.17 2058 227.199 2058 236.898C2058 247.471 2073.7 255.977 2093 255.977C2104.9 256.215 2113.6 256.056 2119.9 255.579C2122.5 255.818 2125.2 255.977 2128 255.977C2132 255.977 2135.8 255.738 2139.5 255.182C2146.5 255.659 2156.4 255.977 2170 255.977C2189.3 255.977 2205 247.471 2205 236.898C2205 226.325 2189.3 217.819 2170 217.819Z" fill="#E2EEFF"/>
<path d="M3206 104.924C3205.1 104.924 3204.2 104.924 3203.3 105.004C3195.2 97.7697 3180.6 93 3164 93C3147.3 93 3132.7 97.8492 3124.6 105.083C3107.4 106.276 3094 114.305 3094 124.003C3094 134.576 3109.7 143.082 3129 143.082C3140.9 143.321 3149.6 143.162 3155.9 142.685C3158.5 142.923 3161.2 143.082 3164 143.082C3168 143.082 3171.8 142.844 3175.5 142.287C3182.5 142.764 3192.4 143.082 3206 143.082C3225.3 143.082 3241 134.576 3241 124.003C3241 113.43 3225.3 104.924 3206 104.924Z" fill="#E2EEFF"/>
<path d="M3470.57 191.366C3470.02 191.366 3469.47 191.366 3468.92 191.415C3463.96 186.946 3455.02 184 3444.86 184C3434.63 184 3425.69 186.995 3420.73 191.464C3410.2 192.2 3402 197.16 3402 203.151C3402 209.681 3411.61 214.936 3423.43 214.936C3430.71 215.083 3436.04 214.985 3439.9 214.69C3441.49 214.837 3443.14 214.936 3444.86 214.936C3447.31 214.936 3449.63 214.788 3451.9 214.445C3456.18 214.739 3462.24 214.936 3470.57 214.936C3482.39 214.936 3492 209.681 3492 203.151C3492 196.62 3482.39 191.366 3470.57 191.366Z" fill="#E2EEFF"/>
<path d="M3584.57 59.3656C3584.02 59.3656 3583.47 59.3656 3582.92 59.4147C3577.96 54.9462 3569.02 52 3558.86 52C3548.63 52 3539.69 54.9954 3534.73 59.4638C3524.2 60.2004 3516 65.1599 3516 71.1506C3516 77.6815 3525.61 82.9356 3537.43 82.9356C3544.71 83.0829 3550.04 82.9847 3553.9 82.6901C3555.49 82.8374 3557.14 82.9356 3558.86 82.9356C3561.31 82.9356 3563.63 82.7883 3565.9 82.4446C3570.18 82.7392 3576.24 82.9356 3584.57 82.9356C3596.39 82.9356 3606 77.6815 3606 71.1506C3606 64.6198 3596.39 59.3656 3584.57 59.3656Z" fill="#E2EEFF"/>
</svg>
