<svg width="64" height="64" viewBox="0 0 64 64" fill="none" xmlns="http://www.w3.org/2000/svg">
<path d="M19.7285 19.7271L27.0922 27.0907" stroke="#25316D" stroke-width="2" stroke-linecap="round" stroke-linejoin="round"/>
<path d="M19.7285 44.2727L27.0922 36.9091" stroke="#25316D" stroke-width="2" stroke-linecap="round" stroke-linejoin="round"/>
<path d="M36.9092 36.9089L44.2728 44.2726" stroke="#25316D" stroke-width="2" stroke-linecap="round" stroke-linejoin="round"/>
<path d="M36.9092 27.0911L44.2728 19.7274" stroke="#25316D" stroke-width="2" stroke-linecap="round" stroke-linejoin="round"/>
<path fill-rule="evenodd" clip-rule="evenodd" d="M28.2309 22.1968C28.3105 21.7696 28.6272 21.4378 29.0389 21.3275C29.4506 21.2171 29.9072 21.3417 30.1734 21.6763C31.4424 23.1188 33.1295 25.0671 33.8927 25.9392C34.1412 26.2079 34.5162 26.3548 34.8917 26.3071C36.039 26.1761 38.6011 25.8601 40.4995 25.6337C40.9244 25.5728 41.3497 25.7765 41.5709 26.1408C41.825 26.4963 41.8293 26.9718 41.6079 27.3312C40.6183 28.973 39.291 31.199 38.708 32.1847C38.5107 32.5023 38.4922 32.896 38.6551 33.2406C39.1319 34.2953 40.2179 36.6336 41.0326 38.3566C41.2132 38.7671 41.1583 39.223 40.8743 39.5462C40.6112 39.8815 40.159 40.0382 39.7482 39.9541C37.8842 39.5182 35.3484 38.9447 34.2401 38.6946C33.8623 38.6017 33.483 38.7033 33.2187 38.9683C32.3675 39.7435 30.4581 41.5082 29.0617 42.8178C28.748 43.096 28.2825 43.2028 27.8825 43.0276C27.4914 42.8853 27.2001 42.5221 27.1513 42.0764C26.9908 40.1603 26.7661 37.6089 26.6681 36.4527C26.6369 36.0728 26.408 35.7455 26.0783 35.5691C25.0641 35.0114 22.818 33.7429 21.14 32.8159C20.7686 32.6154 20.5339 32.2016 20.5762 31.7667C20.602 31.3362 20.8685 30.9472 21.2505 30.7919C23.0077 30.0386 25.3851 29.031 26.4443 28.5707C26.7933 28.4243 27.0439 28.1097 27.1247 27.7527C27.366 26.6115 27.8697 24.0762 28.2309 22.1968Z" fill="#CB2027"/>
<path fill-rule="evenodd" clip-rule="evenodd" d="M33.3107 21.6812C33.5933 21.351 34.0335 21.222 34.4452 21.3323C34.8569 21.4426 35.1901 21.7788 35.2533 22.2017C35.6309 24.0854 36.1179 26.6162 36.3428 27.7531C36.4236 28.11 36.6749 28.4247 37.0239 28.5712C38.083 29.0315 40.4599 30.0388 42.2171 30.7921C42.6155 30.9518 42.882 31.3409 42.8914 31.7669C42.9337 32.2018 42.6996 32.6158 42.3282 32.8163C40.6503 33.7433 38.3877 35.0074 37.39 35.5695C37.0603 35.7459 36.8475 36.0776 36.8163 36.4575C36.7018 37.6093 36.4731 40.1773 36.3171 42.0769C36.2683 42.5226 35.9928 42.89 35.5852 43.0279C35.1897 43.1867 34.7197 43.0963 34.406 42.8181C33.0097 41.5086 31.1005 39.7439 30.2657 38.9732C29.9849 38.7038 29.6057 38.6022 29.2443 38.6995C28.1195 38.9452 25.5835 39.5187 23.7195 39.9547C23.3087 40.0387 22.8521 39.8985 22.5934 39.5468C22.3258 39.228 22.2551 38.7678 22.4357 38.3573C23.2548 36.6178 24.336 34.2959 24.8292 33.2456C24.9921 32.901 24.9575 32.503 24.7603 32.1854C24.1608 31.1953 22.8498 28.9737 21.8602 27.3319C21.6388 26.9726 21.6425 26.4969 21.8966 26.1414C22.1342 25.7815 22.5595 25.5778 22.968 25.6343C24.8663 25.8606 27.4291 26.1768 28.5764 26.3077C28.9519 26.3554 29.3263 26.2083 29.5748 25.9396C30.3544 25.0719 32.0582 23.1281 33.3107 21.6812Z" fill="#CB2027"/>
<circle cx="50.4083" cy="13.5909" r="7.59091" fill="white" stroke="#25316D" stroke-width="2"/>
<circle cx="50.4083" cy="50.4088" r="7.59091" fill="white" stroke="#25316D" stroke-width="2"/>
<circle cx="13.5909" cy="13.5909" r="7.59091" fill="white" stroke="#25316D" stroke-width="2"/>
<circle cx="13.5909" cy="50.4088" r="7.59091" fill="white" stroke="#25316D" stroke-width="2"/>
</svg>
