<svg width="64" height="64" viewBox="0 0 64 64" fill="none" xmlns="http://www.w3.org/2000/svg">
<path d="M5.57324 20.9935V28.2598L7.7271 32.6195L10.5989 35.526L17.7785 36.2526L23.2756 34.0728L27.8298 36.2526H34.2914L40.035 34.0728L45.0607 36.2526L50.8044 35.526L56.548 31.1663L57.9839 24.6266L55.83 18.087L51.5223 14.4539L45.0607 13.0007L42.9069 10.0942L38.5991 6.46106L30.7016 5.00781L22.0862 7.91431L17.7785 13.0007L11.3169 14.4539L5.57324 20.9935Z" fill="white"/>
<ellipse cx="46.8984" cy="24.662" rx="11.0869" ry="10.5829" fill="#CB2027"/>
<mask id="path-3-inside-1_466_1579" fill="white">
<path fill-rule="evenodd" clip-rule="evenodd" d="M31.9512 37.7866C34.8739 37.7866 37.6233 37.0443 40.0211 35.7381C42.0333 37.0353 44.4295 37.788 47.0016 37.788C54.1262 37.788 59.9019 32.0123 59.9019 24.8877C59.9019 17.763 54.1262 11.9874 47.0016 11.9874C46.7729 11.9874 46.5457 11.9933 46.32 12.0051C43.3415 7.20016 38.0201 4 31.9512 4C25.8824 4 20.561 7.20017 17.5825 12.0051C17.3566 11.9933 17.1291 11.9874 16.9003 11.9874C9.77567 11.9874 4 17.763 4 24.8877C4 32.0123 9.77567 37.788 16.9003 37.788C19.4725 37.788 21.8688 37.0352 23.8811 35.7379C26.2789 37.0443 29.0284 37.7866 31.9512 37.7866Z"/>
</mask>
<path d="M40.0211 35.7381L41.1048 34.0571L40.1069 33.4138L39.0643 33.9818L40.0211 35.7381ZM46.32 12.0051L44.6201 13.0588L45.2431 14.0638L46.424 14.0024L46.32 12.0051ZM17.5825 12.0051L17.4784 14.0024L18.6593 14.0639L19.2824 13.0588L17.5825 12.0051ZM23.8811 35.7379L24.8379 33.9816L23.7952 33.4136L22.7973 34.057L23.8811 35.7379ZM39.0643 33.9818C36.9527 35.1321 34.5314 35.7866 31.9512 35.7866V39.7866C35.2165 39.7866 38.2939 38.9565 40.9779 37.4944L39.0643 33.9818ZM47.0016 35.788C44.8253 35.788 42.8036 35.1523 41.1048 34.0571L38.9374 37.4191C41.263 38.9182 44.0337 39.788 47.0016 39.788V35.788ZM57.9019 24.8877C57.9019 30.9078 53.0217 35.788 47.0016 35.788V39.788C55.2308 39.788 61.9019 33.1169 61.9019 24.8877H57.9019ZM47.0016 13.9874C53.0217 13.9874 57.9019 18.8676 57.9019 24.8877H61.9019C61.9019 16.6585 55.2308 9.98736 47.0016 9.98736V13.9874ZM46.424 14.0024C46.6151 13.9924 46.8077 13.9874 47.0016 13.9874V9.98736C46.7382 9.98736 46.4763 9.99421 46.216 10.0078L46.424 14.0024ZM31.9512 6C37.2993 6 41.991 8.81756 44.6201 13.0588L48.0199 10.9513C44.6919 5.58276 38.7408 2 31.9512 2V6ZM19.2824 13.0588C21.9115 8.81757 26.6031 6 31.9512 6V2C25.1616 2 19.2105 5.58278 15.8826 10.9513L19.2824 13.0588ZM16.9003 13.9874C17.0944 13.9874 17.2871 13.9924 17.4784 14.0024L17.6865 10.0078C17.426 9.99423 17.1639 9.98736 16.9003 9.98736V13.9874ZM6 24.8877C6 18.8676 10.8802 13.9874 16.9003 13.9874V9.98736C8.6711 9.98736 2 16.6585 2 24.8877H6ZM16.9003 35.788C10.8802 35.788 6 30.9078 6 24.8877H2C2 33.1169 8.6711 39.788 16.9003 39.788V35.788ZM22.7973 34.057C21.0985 35.1522 19.0767 35.788 16.9003 35.788V39.788C19.8683 39.788 22.6392 38.9182 24.9648 37.4189L22.7973 34.057ZM31.9512 35.7866C29.371 35.7866 26.9495 35.1321 24.8379 33.9816L22.9242 37.4942C25.6083 38.9565 28.6858 39.7866 31.9512 39.7866V35.7866Z" fill="#25316D" mask="url(#path-3-inside-1_466_1579)"/>
<path d="M32.3104 40V56M32.3104 40L25.8276 44.8782M32.3104 40L38.7932 44.8782M43.6551 41.6464V49.7564H55M55 49.7564L50.1379 44.8782M55 49.7564L50.1379 54.6345M20.9654 41.6464V49.7564H8M8 49.7564L12.8621 44.8782M8 49.7564L13.7693 54.6345" stroke="#25316D" stroke-width="2"/>
</svg>
