<svg width="1824" height="512" viewBox="0 0 1824 512" fill="none" xmlns="http://www.w3.org/2000/svg">
<path d="M1629 70.7894C1628.1 70.7894 1627.2 70.7894 1626.3 70.8689C1618.2 63.6348 1603.6 58.8651 1587 58.8651C1570.3 58.8651 1555.7 63.7143 1547.6 70.9484C1530.4 72.1408 1517 80.1699 1517 89.8683C1517 100.441 1532.7 108.947 1552 108.947C1563.9 109.186 1572.6 109.027 1578.9 108.55C1581.5 108.788 1584.2 108.947 1587 108.947C1591 108.947 1594.8 108.709 1598.5 108.152C1605.5 108.629 1615.4 108.947 1629 108.947C1648.3 108.947 1664 100.441 1664 89.8683C1664 79.2954 1648.3 70.7894 1629 70.7894Z" fill="#E2EEFF"/>
<path d="M1789 294.967C1788.1 294.967 1787.2 294.967 1786.3 295.047C1778.2 287.812 1763.6 283.043 1747 283.043C1730.3 283.043 1715.7 287.892 1707.6 295.126C1690.4 296.318 1677 304.348 1677 314.046C1677 324.619 1692.7 333.125 1712 333.125C1723.9 333.363 1732.6 333.204 1738.9 332.727C1741.5 332.966 1744.2 333.125 1747 333.125C1751 333.125 1754.8 332.886 1758.5 332.33C1765.5 332.807 1775.4 333.125 1789 333.125C1808.3 333.125 1824 324.619 1824 314.046C1824 303.473 1808.3 294.967 1789 294.967Z" fill="#E2EEFF"/>
<path d="M1161 473.037C1160.1 473.037 1159.2 473.037 1158.3 473.117C1150.2 465.883 1135.6 461.113 1119 461.113C1102.3 461.113 1087.7 465.962 1079.6 473.196C1062.4 474.389 1049 482.418 1049 492.116C1049 502.689 1064.7 511.195 1084 511.195C1095.9 511.434 1104.6 511.275 1110.9 510.798C1113.5 511.036 1116.2 511.195 1119 511.195C1123 511.195 1126.8 510.957 1130.5 510.4C1137.5 510.877 1147.4 511.195 1161 511.195C1180.3 511.195 1196 502.689 1196 492.116C1196 481.543 1180.3 473.037 1161 473.037Z" fill="#E2EEFF"/>
<path d="M853 12.7576C852.1 12.7576 851.2 12.7576 850.3 12.8371C842.2 5.60299 827.6 0.833252 811 0.833252C794.3 0.833252 779.7 5.68248 771.6 12.9166C754.4 14.109 741 22.1381 741 31.8365C741 42.4095 756.7 50.9155 776 50.9155C787.9 51.154 796.6 50.995 802.9 50.518C805.5 50.7565 808.2 50.9155 811 50.9155C815 50.9155 818.8 50.677 822.5 50.1205C829.5 50.5975 839.4 50.9155 853 50.9155C872.3 50.9155 888 42.4095 888 31.8365C888 21.2636 872.3 12.7576 853 12.7576Z" fill="#E2EEFF"/>
<path d="M221 218.651C220.1 218.651 219.2 218.651 218.3 218.731C210.2 211.497 195.6 206.727 179 206.727C162.3 206.727 147.7 211.576 139.6 218.81C122.4 220.003 109 228.032 109 237.73C109 248.303 124.7 256.809 144 256.809C155.9 257.048 164.6 256.889 170.9 256.412C173.5 256.65 176.2 256.809 179 256.809C183 256.809 186.8 256.571 190.5 256.014C197.5 256.491 207.4 256.809 221 256.809C240.3 256.809 256 248.303 256 237.73C256 227.157 240.3 218.651 221 218.651Z" fill="#E2EEFF"/>
<path d="M422 418.185C421.1 418.185 420.2 418.185 419.3 418.265C411.2 411.031 396.6 406.261 380 406.261C363.3 406.261 348.7 411.11 340.6 418.344C323.4 419.537 310 427.566 310 437.264C310 447.837 325.7 456.343 345 456.343C356.9 456.582 365.6 456.423 371.9 455.946C374.5 456.184 377.2 456.343 380 456.343C384 456.343 387.8 456.105 391.5 455.548C398.5 456.025 408.4 456.343 422 456.343C441.3 456.343 457 447.837 457 437.264C457 426.691 441.3 418.185 422 418.185Z" fill="#E2EEFF"/>
<path d="M1463.57 143.341C1463.02 143.341 1462.47 143.341 1461.92 143.391C1456.96 138.922 1448.02 135.976 1437.86 135.976C1427.63 135.976 1418.69 138.971 1413.73 143.44C1403.2 144.176 1395 149.136 1395 155.126C1395 161.657 1404.61 166.911 1416.43 166.911C1423.71 167.059 1429.04 166.961 1432.9 166.666C1434.49 166.813 1436.14 166.911 1437.86 166.911C1440.31 166.911 1442.63 166.764 1444.9 166.42C1449.18 166.715 1455.24 166.911 1463.57 166.911C1475.39 166.911 1485 161.657 1485 155.126C1485 148.596 1475.39 143.341 1463.57 143.341Z" fill="#E2EEFF"/>
<path d="M1558.57 452.579C1558.02 452.579 1557.47 452.579 1556.92 452.628C1551.96 448.16 1543.02 445.214 1532.86 445.214C1522.63 445.214 1513.69 448.209 1508.73 452.678C1498.2 453.414 1490 458.374 1490 464.364C1490 470.895 1499.61 476.149 1511.43 476.149C1518.71 476.297 1524.04 476.198 1527.9 475.904C1529.49 476.051 1531.14 476.149 1532.86 476.149C1535.31 476.149 1537.63 476.002 1539.9 475.658C1544.18 475.953 1550.24 476.149 1558.57 476.149C1570.39 476.149 1580 470.895 1580 464.364C1580 457.834 1570.39 452.579 1558.57 452.579Z" fill="#E2EEFF"/>
<path d="M68.5714 473.248C68.0204 473.248 67.4694 473.248 66.9184 473.297C61.9592 468.829 53.0204 465.883 42.8571 465.883C32.6327 465.883 23.6939 468.878 18.7347 473.346C8.20408 474.083 0 479.043 0 485.033C0 491.564 9.61225 496.818 21.4286 496.818C28.7143 496.966 34.0408 496.867 37.898 496.573C39.4898 496.72 41.1429 496.818 42.8571 496.818C45.3061 496.818 47.6327 496.671 49.898 496.327C54.1837 496.622 60.2449 496.818 68.5714 496.818C80.3878 496.818 90 491.564 90 485.033C90 478.502 80.3878 473.248 68.5714 473.248Z" fill="#E2EEFF"/>
</svg>
