<svg width="588" height="340" viewBox="0 0 588 340" fill="none" xmlns="http://www.w3.org/2000/svg">
<path d="M199.46 100.597L161.636 91.1965L160.5 122.491C160.5 122.491 173.585 127.956 181.378 127.86C189.605 127.759 199.46 122.491 199.46 122.491L199.46 100.597Z" fill="white"/>
<path d="M45 260.103H295" stroke="#25316D" stroke-width="2" stroke-linecap="round" stroke-linejoin="round"/>
<path d="M99.6254 270.609L99.7694 270.504L99.8685 270.356C100.643 269.194 102.04 268.501 103.978 268.287C105.912 268.073 108.248 268.359 110.646 269.019C113.036 269.677 115.434 270.69 117.477 271.882C119.535 273.082 121.164 274.421 122.087 275.697C126.002 281.108 125.294 287.987 120.958 291.152C119.96 291.879 118.343 292.332 116.281 292.446C114.246 292.558 111.897 292.332 109.55 291.819C107.203 291.306 104.893 290.513 102.931 289.511C100.956 288.503 99.4046 287.32 98.4957 286.064C94.581 280.653 95.2887 273.774 99.6254 270.609Z" fill="white" stroke="#25316D" stroke-width="2"/>
<path d="M122.507 289.346C121.254 287.936 118.559 285.116 117.807 285.116" stroke="#25316D" stroke-width="2"/>
<path d="M181.5 274.5C187.5 288 197 316.037 173 313.5C159.507 312.074 162.795 303.54 166 301.5C171.5 298 173.854 300.358 176 304C179.626 310.153 173.775 318.065 159.5 315.5C136.504 311.368 147 306.5 137.5 299C134.34 296.505 126.761 294.64 122.5 292.5" stroke="#303030" stroke-width="2" stroke-linecap="round"/>
<path d="M120.808 278.92L120.803 278.923C120.513 279.097 120.127 279.027 119.912 278.749C118.987 277.534 117.453 275.621 115.638 273.729C113.833 271.849 111.696 269.932 109.563 268.768L108.562 270.481C108.554 270.494 108.554 270.494 108.554 270.493L108.554 270.494L108.555 270.495L108.57 270.504C108.584 270.513 108.606 270.527 108.636 270.547C108.696 270.587 108.786 270.648 108.901 270.73C109.131 270.894 109.459 271.139 109.837 271.456C110.6 272.095 111.547 273.01 112.332 274.131C113.117 275.253 113.71 276.541 113.831 277.94C113.948 279.307 113.622 280.863 112.439 282.575C111.734 283.408 110.493 283.843 109.935 284.026L109.823 284.063L109.723 284.124L109.723 284.124L109.722 284.124L109.721 284.126L109.712 284.131L109.676 284.152C109.664 284.16 109.649 284.169 109.631 284.179C109.604 284.196 109.571 284.216 109.532 284.239C109.406 284.313 109.222 284.42 108.995 284.547C108.54 284.801 107.921 285.132 107.255 285.442C106.583 285.755 105.892 286.033 105.289 286.196C104.632 286.375 104.283 286.358 104.17 286.317L103.528 286.084L103.082 286.593L103.082 286.593L103.081 286.594C103.081 286.594 103.08 286.595 103.079 286.596C103.077 286.598 103.073 286.602 103.068 286.608C103.064 286.612 103.059 286.617 103.054 286.623C103.028 286.649 102.986 286.69 102.93 286.742C102.815 286.846 102.647 286.984 102.439 287.115C102.019 287.379 101.515 287.567 100.983 287.505C100.98 287.502 100.878 287.465 100.66 287.294C100.42 287.107 100.129 286.83 99.7973 286.474C99.1366 285.764 98.3925 284.822 97.6846 283.864C96.9801 282.91 96.3266 281.962 95.8483 281.25C95.6094 280.895 95.415 280.6 95.2806 280.394C95.2134 280.291 95.1613 280.211 95.1261 280.156L95.0864 280.094L95.0766 280.079L95.0742 280.075L95.0737 280.074L95.0736 280.074L95.0736 280.074L94.8824 279.775L94.545 279.663L94.545 279.663L94.5448 279.663L94.5441 279.663L94.5392 279.661L94.5172 279.654C94.4971 279.647 94.4664 279.636 94.4258 279.622C94.3446 279.594 94.2236 279.552 94.0684 279.496C93.7579 279.384 93.3108 279.218 92.7704 279.002C91.6874 278.569 90.2398 277.942 88.7692 277.16C87.2924 276.375 85.8278 275.452 84.6888 274.438C83.5375 273.414 82.8301 272.395 82.65 271.429L82.6477 271.414C82.6449 271.394 82.6404 271.361 82.6351 271.316C82.6243 271.227 82.6099 271.091 82.5971 270.914C82.5715 270.559 82.5526 270.045 82.5824 269.424C82.6421 268.176 82.8963 266.529 83.6588 264.883C84.416 263.249 85.6804 261.601 87.796 260.33C89.8849 259.074 92.8591 258.153 97.0987 258.029C97.1058 258.032 97.1131 258.035 97.1206 258.038C97.2617 258.098 97.4714 258.187 97.7413 258.306C98.281 258.544 99.0609 258.9 100.013 259.367C101.92 260.302 104.511 261.68 107.251 263.452C112.775 267.025 118.717 272.081 121.056 278.19C121.151 278.438 121.066 278.744 120.808 278.92Z" fill="white" stroke="#25316D" stroke-width="2"/>
<path fill-rule="evenodd" clip-rule="evenodd" d="M106.204 148.524C141.83 177.116 100.466 224.121 100.466 224.121C100.466 224.121 101.247 229.823 99.0555 232.111C91.4995 240 104.696 260.314 104.696 260.314C104.696 260.314 89.3336 270.044 84.954 279.116C84.7456 279.548 83.5439 280.526 83.0736 280.526C83.0736 280.526 74.5893 266.538 72.7329 260.314C64.7421 233.521 65.2117 216.13 65.2117 216.13C71.3224 202.028 74.6364 193.397 81.1937 178.996C87.1592 165.885 98.3245 157.601 106.204 148.524Z" fill="#58B9FD"/>
<path fill-rule="evenodd" clip-rule="evenodd" d="M241.204 25.5007C239.215 25.5007 237.601 27.1037 237.601 29.112C237.601 31.1008 239.215 32.7228 241.204 32.7228C243.189 32.7228 244.802 31.1008 244.802 29.112C244.803 28.6373 244.71 28.1671 244.53 27.7285C244.349 27.2898 244.084 26.8913 243.75 26.5558C243.415 26.2202 243.018 25.9543 242.581 25.7733C242.144 25.5922 241.676 25.4996 241.204 25.5007ZM241.204 26.698C242.527 26.698 243.603 27.7795 243.603 29.112C243.603 30.4441 242.527 31.5256 241.204 31.5256C239.88 31.5256 238.804 30.4441 238.804 29.112C238.804 27.7795 239.88 26.698 241.204 26.698Z" fill="#25316D"/>
<path fill-rule="evenodd" clip-rule="evenodd" d="M155.525 122.828C155.525 122.828 159.014 120.842 161.5 121.5L163.115 122.663C163.115 122.663 170.491 127.767 180.512 127.932C190.539 128.152 199.954 127 199.954 119.425C199.954 119.425 205.85 120.741 206.09 124.693C206.09 124.693 237.237 134.295 245.114 139.676C252.988 144.996 257.048 148.509 258.848 157.73C260.639 166.893 267.13 196.525 268.61 220.341C252.764 215.29 239.652 215.183 223.457 215.183C185.123 169.685 158.64 224.872 123.413 259.58C123.413 259.58 134.5 195.357 130.571 195.85C126.648 196.289 72.6826 217.267 72.6826 217.267C72.6826 217.267 71.7483 202.439 72.6826 198.268C73.6169 194.097 91.8511 149.167 96.0202 143.077C100.189 136.93 107.566 132.046 120.702 129.303C133.843 126.561 155.525 122.828 155.525 122.828Z" fill="#58B9FD"/>
<path d="M85.5001 167C87.5001 163.5 88.3418 160.193 89.5001 157C90.9674 152.9 93.1632 146.877 96.0005 143.5" stroke="#25316D" stroke-width="2" stroke-miterlimit="1.5" stroke-linecap="round" stroke-linejoin="round"/>
<path d="M131.86 174.749C134.899 189.083 134.443 205.364 129.774 219.305M141.362 172.735C143.245 179.165 143.499 185.841 143.477 192.502C143.484 201.041 142.676 209.701 139.767 217.795" stroke="#25316D" stroke-width="2" stroke-miterlimit="1.5" stroke-linecap="round" stroke-linejoin="round"/>
<path d="M68.9724 218.01C70.8525 226.471 81.1916 226.505 85.4241 228.351C90.0472 230.402 95.887 222.029 100 225M75.553 267.366C80.7235 257.965 84.3939 254.691 97.1752 253.264" stroke="#25316D" stroke-width="2" stroke-miterlimit="1.5" stroke-linecap="round" stroke-linejoin="round"/>
<path d="M165 97.0001C165.846 98.5001 162.5 108 193 112C212.99 97.7879 213 97.5001 210 75.5001C211.626 73.0555 216.5 74.0001 224.5 63.5001C229 52 227.5 41 204.5 40.0001C199.88 33.6556 194.933 22.4709 177.5 24.0001C149 26.5 146.204 47.6939 144.5 62.5C139.5 66 133 78 137.5 85.5001C144.5 94.5 146.173 87.6318 147 91.5C148.108 96.6821 163.765 94.8098 165 97.0001Z" fill="white"/>
<path d="M157.047 87.573L149.239 84.6902M157.271 75.5433C157.271 75.5433 142.377 73.0806 144.958 87.1349C146.402 95.0631 157.514 96.0242 160.757 95.784C160.757 95.784 161.476 113.262 160.757 121.61M198.956 108.517V124.134C198.956 124.134 183.279 131.281 164.899 124.134M205.859 55.7231C201.538 59.8071 195.592 60.5878 190.007 58.9063M191.387 55.9044C190.187 57.7064 188.203 58.9674 186.283 59.8084C181.835 61.7305 176.852 61.8506 172.166 60.9498M168.384 62.9916C168.802 67.8567 167.363 73.0815 164.238 76.8655M164.179 77.5253C165.623 81.4293 166.761 85.5735 167.961 89.5976" stroke="#25316D" stroke-width="2" stroke-miterlimit="1.5" stroke-linecap="round" stroke-linejoin="round"/>
<path d="M207.541 61.7294C210.006 73.5616 211.386 82.691 211.809 94.583C211.868 95.5441 211.566 96.3851 210.905 97.1055C205.5 103.232 199.613 108.217 193.069 111.641C192.646 111.881 192.228 112.001 191.747 111.941C182.977 111.1 175.17 108.397 168.204 104.072C167.543 103.652 167.003 102.991 166.702 102.211C164.899 96.9854 157.694 76.1439 157.694 76.1439M211.566 58.7864C211.566 58.7864 206.161 50.4382 192.048 50.9788C180.697 51.339 161.539 58.1258 151.389 74.8829" stroke="#25316D" stroke-width="2" stroke-miterlimit="1.5" stroke-linecap="round" stroke-linejoin="round"/>
<path d="M215.47 72.5403C215.47 72.5403 236.072 58.3664 222.198 45.3329C208.382 32.3 152.405 44.0116 137.812 72.5403C133.787 80.4082 136.373 90.6789 146.523 90.9195" stroke="#25316D" stroke-width="2" stroke-miterlimit="1.5" stroke-linecap="round" stroke-linejoin="round"/>
<path d="M204.182 39.6274C204.182 39.6274 194.09 17.0441 166.104 26.1735C151.749 30.8582 146.523 42.7503 145.259 54.7021M199.496 120C202.437 121.261 204 121.032 206 125M199.496 134.043C195.412 135.064 191.446 136.145 187.182 136.505C179.312 137.226 171.087 136.145 163.397 134.283C160.815 133.682 156.912 132.721 155.108 130.56C152.347 127.196 157.631 122.331 160.397 121.31M224 131.5C221.054 129.998 219.684 129.341 216.5 128.5C215.421 128.2 212.607 126.775 211.528 127.496" stroke="#25316D" stroke-width="2" stroke-miterlimit="1.5" stroke-linecap="round" stroke-linejoin="round"/>
<path d="M189.409 74.2161C190.035 77.672 191.065 80.9342 192.868 83.9339C193.322 84.7273 193.787 85.4605 194.326 86.121M193.332 87.3617L188.633 87.3086M179.599 73.133C176.343 72.0466 172.802 72.7127 170.358 75.1646M205.002 69.5835C201.526 68.48 198.172 69.0522 195.081 70.8641M195.762 99.032C191.575 99.9952 187.293 99.9809 183.341 98.1471" stroke="#25316D" stroke-width="2" stroke-miterlimit="1.5" stroke-linecap="round" stroke-linejoin="round"/>
<path d="M201.971 76.2634C202.198 76.2997 202.433 76.2947 202.661 76.2486C203.114 76.1573 203.516 75.9102 203.781 75.5609C204.045 75.2116 204.15 74.788 204.074 74.3818C203.997 73.9755 203.745 73.6192 203.372 73.3897C202.999 73.1603 202.535 73.0762 202.08 73.1556C201.85 73.1957 201.629 73.2762 201.431 73.3926C201.233 73.509 201.061 73.6588 200.924 73.8334C200.788 74.008 200.691 74.2039 200.638 74.4097C200.585 74.6154 200.577 74.827 200.616 75.032C200.655 75.237 200.738 75.4314 200.862 75.6039C200.986 75.7764 201.148 75.9235 201.339 76.0368C201.529 76.15 201.744 76.227 201.971 76.2634Z" fill="#25316D"/>
<path d="M177.384 80.5354C177.763 80.7645 178.233 80.8447 178.692 80.7584C179.145 80.667 179.547 80.4199 179.811 80.0705C180.076 79.721 180.181 79.2974 180.105 78.8911C180.028 78.4847 179.776 78.1283 179.403 77.8989C179.029 77.6694 178.565 77.5854 178.11 77.6648C177.651 77.7511 177.242 77.9968 176.972 78.3479C176.703 78.699 176.595 79.1267 176.672 79.5369C176.749 79.9472 177.005 80.3064 177.384 80.5354Z" fill="#25316D"/>
<path d="M299.5 167C298.3 167.4 292.667 175.167 290 179L280.5 188L299 196.5L305.5 186.5C307.5 187.333 312 189.1 314 189.5C316.5 190 323 192 328.5 189.5C334 187 333.5 181 334 179.5C334.5 178 332.5 177.5 326 177.5C319.5 177.5 315 174.5 316 173.5C317 172.5 319 168.5 321 166.5C323 164.5 321.5 162 320.5 161.5C319.5 161 312.5 164.5 311 165.5C309.5 166.5 301 166.5 299.5 167Z" fill="white"/>
<path d="M298.226 169.006C292.119 176.561 286.288 184.403 279.47 191.342C273.095 197.803 265.986 203.651 259.833 210.302M244.796 194.082C244.952 202.6 244.89 211.122 245.108 219.594C245.224 223.97 245.024 229.073 247.134 233.081C250.432 239.325 261.31 243.607 267.535 239.097M305.677 187.019C299.703 194.858 293.022 205.505 287.286 213.585C281.574 221.614 276.156 227.268 270.758 235.537M299.376 167.201C301.899 166.204 304.499 166.11 307.165 165.73C308.97 165.54 310.743 165.063 312.478 164.539C314.207 164.019 315.809 163.208 317.453 162.451C318.351 162.07 319.449 161.5 320.457 161.5C321.545 161.547 321.792 162.924 321.683 163.732C321.436 165.586 320.119 167.248 318.66 168.342M312.259 171.381C314.141 172.571 315.809 174.043 317.658 175.28C318.394 175.804 319.188 176.468 320.058 176.705C321.512 177.085 323.104 177.135 324.606 177.135C325.599 177.135 332.536 177.644 333.178 178.498C334.803 180.78 332.964 184.059 331.686 186.054C330.545 187.765 329.044 189.383 327 190C322 192.5 309.194 187.589 305.321 186.495" stroke="#25316D" stroke-width="2" stroke-miterlimit="1.5" stroke-linecap="round" stroke-linejoin="round"/>
<path fill-rule="evenodd" clip-rule="evenodd" d="M233.5 236.5C233.5 236.5 258.5 250 265 249C277.034 247.148 298.5 210 303.5 198.5C315.5 187 286.596 184.137 290.5 174.5C294.404 164.867 256 211.5 256 203.5C256 203.5 255.33 194.93 255 192C253.373 177.556 259.428 148.563 246 143C238.769 140.004 232.275 149.243 232.275 149.243L227.678 144.918C227.678 144.918 225.832 141.265 221.525 137.057C215.949 150.401 211.198 171.179 212.467 202.578L218.5 215C218.79 215.233 232.517 235.575 233.5 236.5Z" fill="#58B9FD"/>
<path d="M271.56 192.137C265.006 198.223 258.919 206.063 255.194 213.792" stroke="#25316D" stroke-width="2" stroke-miterlimit="1.5" stroke-linecap="round" stroke-linejoin="round"/>
<path d="M221.572 183C222.696 185.846 223.494 188.81 224.559 191.63C226.331 196.283 228.323 200.87 230.106 205.517" stroke="#25316D" stroke-width="2" stroke-miterlimit="1.5" stroke-linecap="round" stroke-linejoin="round"/>
<path d="M330 180.084C326.293 180.511 322.13 180.654 318.666 179.037C317.121 178.326 315.871 177.185 314.507 176.188M329.064 183.316C327.282 183.506 325.495 183.503 323.708 183.503C322.297 183.553 320.861 183.6 319.507 183.173C317.264 182.412 315.301 180.795 313.467 179.323M327.03 186.879C323.318 187.163 320.077 186.972 316.604 185.548C315.007 184.931 313.591 183.98 312.065 183.173M318.5 168.5C318.5 168.5 317.85 169.154 317.5 169.627C316.642 170.785 315.774 172.143 314.5 173" stroke="#25316D" stroke-width="2" stroke-miterlimit="1.5" stroke-linecap="round" stroke-linejoin="round"/>
<path d="M259 158.5C258 153 253.125 145.987 248.499 142.5C242.588 138.005 235.128 134.679 228 132.432" stroke="#25316D" stroke-width="2" stroke-miterlimit="1.5" stroke-linecap="round" stroke-linejoin="round"/>
<path d="M205.2 283.488L205.2 283.488L205.206 283.5C205.395 283.885 205.352 284.349 205.076 284.711C205.075 284.712 205.075 284.713 205.074 284.713L197.094 295.019H166.97L166.866 294.889L166.223 294.078C165.678 293.392 164.92 292.436 164.068 291.364C162.365 289.218 160.287 286.601 158.788 284.718L158.785 284.714C158.52 284.384 158.458 283.908 158.653 283.492C158.748 283.298 158.894 283.135 159.075 283.021C159.257 282.906 159.467 282.845 159.681 282.843C159.682 282.843 159.683 282.843 159.683 282.843L204.181 282.843H204.183C204.395 282.843 204.603 282.903 204.783 283.017C204.963 283.131 205.108 283.294 205.2 283.488ZM262.569 193.025L262.568 193.027C259.999 207.635 251.517 255.874 249.323 268.361C249.105 269.597 248.033 270.495 246.787 270.495H117.441C116.212 270.495 115.146 269.613 114.91 268.388C113.759 262.364 110.984 247.856 108.113 232.85C105.082 217.005 101.944 200.605 100.501 193.052L100.501 193.051C100.358 192.307 100.553 191.528 101.047 190.917C101.541 190.325 102.272 189.977 103.032 189.977L260.032 189.977L260.033 189.977C260.409 189.976 260.779 190.058 261.12 190.217C261.46 190.377 261.762 190.609 262.003 190.899L262.004 190.9C262.495 191.489 262.702 192.274 262.569 193.025Z" fill="white" stroke="#25316D" stroke-width="2"/>
<path d="M182.091 227.496C190.24 227.496 196.858 234.136 196.858 242.323V295.024H167.323V242.323C167.323 234.136 173.939 227.496 182.091 227.496Z" fill="white" stroke="#25316D" stroke-width="2"/>
<path fill-rule="evenodd" clip-rule="evenodd" d="M188.87 242.265C188.87 238.504 185.834 235.457 182.091 235.457C178.348 235.457 175.314 238.504 175.314 242.265V254.44C175.314 258.194 178.348 261.24 182.091 261.24C185.834 261.24 188.87 258.194 188.87 254.44V242.265Z" fill="#58B9FD"/>
<path d="M120 267.011L106.463 197.382C106.223 196.147 107.169 195 108.426 195H225" stroke="#25316D" stroke-width="2"/>
<path d="M225.332 249.983C225.692 249.983 225.986 250.274 225.986 250.639V256.876C225.986 257.242 225.692 257.533 225.332 257.533H222.875C222.511 257.533 222.221 257.242 222.221 256.876V250.639C222.221 250.274 222.511 249.983 222.875 249.983H225.332Z" fill="#686868"/>
<path d="M234.646 249.983C235.005 249.983 235.3 250.274 235.3 250.639V256.876C235.3 257.242 235.005 257.533 234.646 257.533H232.188C231.825 257.533 231.535 257.242 231.535 256.876V250.639C231.535 250.274 231.825 249.983 232.188 249.983H234.646Z" fill="#686868"/>
<path d="M314.776 299.501C315.644 299.365 316.48 299.076 317.073 298.387C318.023 297.309 318.425 295.33 317.396 294.183C317.002 293.767 316.491 293.54 315.98 293.374M314.115 299.262C313.549 299.677 313.013 300.089 312.355 300.272C311.16 300.594 309.838 300.3 308.697 299.987C306.886 299.495 305.101 298.915 303.347 298.248M297.648 294.232C298.144 292.774 298.581 291.284 299.107 289.835M305.639 296.508C306.195 295.034 306.781 293.543 307.428 292.101M276.757 289.232C274.769 288.108 273.405 286.373 272.011 284.602M272.128 284.259C274.042 283.856 275.957 283.521 277.904 283.357" stroke="#25316D" stroke-width="2" stroke-miterlimit="1.5" stroke-linecap="round" stroke-linejoin="round"/>
<path d="M277.922 283.355C288.821 285.668 305.464 290.246 316.161 293.49M276.986 289.264C287.107 291.731 302.491 296.251 312.554 299.003" stroke="#25316D" stroke-width="2" stroke-miterlimit="1.5" stroke-linecap="round" stroke-linejoin="round"/>
<circle cx="442.484" cy="168.646" r="67.2331" stroke="#303030" stroke-width="2" stroke-linecap="round" stroke-linejoin="round" stroke-dasharray="10.42 10.42"/>
<path d="M366.811 168.04C367.305 170.265 369.076 171.336 369.591 171.439H386.277C389.676 170.821 389.367 168.658 389.367 166.495C389.614 161.304 391.942 155.68 393.075 153.517C398.946 142.702 396.517 138.068 395.547 135.287C390.912 122 377.316 121.382 370.519 123.854C357.541 128.18 353.833 140.54 360.013 152.281C364.957 157.843 366.193 165.259 366.811 168.04Z" fill="white"/>
<path d="M376.766 122.61C376.774 122.611 376.783 122.611 376.791 122.611C388.047 122.511 397.164 131.057 396.723 141.538C396.723 141.545 396.722 141.552 396.722 141.559C396.722 144.431 396.09 147.396 394.754 149.94L394.268 150.83C391.123 156.293 389.651 162.042 389.491 168.332L389.491 168.332C389.478 168.864 389.289 169.378 388.973 169.829C389.115 169.432 389.191 168.996 389.203 168.54C389.361 162.32 391.083 156.184 394.182 150.793L394.184 150.791L394.584 150.088L394.586 150.085C396.115 147.348 396.642 144.74 396.643 141.669C396.646 131.149 388.063 122.9 376.984 122.903C365.919 122.906 357.121 130.95 357.118 141.483C357.116 146.169 359.132 150.679 362.091 154.287C363.768 157.541 365.121 160.894 366.027 164.386C364.976 160.784 363.334 157.335 361.505 154.228C361.492 154.206 361.478 154.185 361.462 154.165C358.613 150.667 357.19 146.168 356.828 141.65C356.385 131.175 366.173 122.159 376.766 122.61Z" stroke="#25316D" stroke-linecap="round" stroke-linejoin="round"/>
<path d="M370.102 182.894L385.106 182.889L385.104 189.339C385.104 189.571 384.964 189.9 384.494 190.216C384.031 190.528 383.335 190.753 382.517 190.754L372.686 190.756C371.869 190.757 371.173 190.532 370.709 190.22C370.24 189.904 370.1 189.575 370.1 189.343L370.102 182.894Z" stroke="#25316D" stroke-width="2" stroke-linecap="round" stroke-linejoin="round"/>
<path d="M386.476 174.038L369.966 173.59C369.441 173.576 369.021 173.878 369.058 174.242L369.18 175.426C369.282 176.417 369.704 177.383 370.416 178.253C370.535 178.399 370.765 178.483 371.003 178.469C375.907 178.193 380.694 178.309 385.355 178.852C385.61 178.882 385.86 178.798 385.98 178.641L386.09 178.497C386.639 177.777 386.988 176.989 387.118 176.175L387.347 174.737C387.404 174.376 387.001 174.052 386.476 174.038Z" fill="#58B9FD"/>
<path d="M378.025 196.729L375.095 196.649C374.773 196.641 374.475 196.475 374.295 196.206L372.469 193.472L380.823 193.698L378.849 196.329C378.654 196.589 378.347 196.737 378.025 196.729Z" fill="#58B9FD"/>
<path d="M370.821 183.677L384.34 184.043L384.497 187.582C384.453 189.17 383.139 190.424 381.565 190.381L373.749 190.169C372.175 190.127 370.933 188.803 370.977 187.216L370.821 183.677Z" fill="#58B9FD"/>
<path d="M378.928 195.904L375.243 195.905C375.164 195.905 375.087 195.867 375.038 195.797L373.767 194.002L380.406 194.001L379.133 195.796L379.949 196.374L379.133 195.796C379.084 195.866 379.007 195.904 378.928 195.904Z" stroke="#25316D" stroke-width="2" stroke-linecap="round" stroke-linejoin="round"/>
<path d="M367.522 173.197L367.522 173.197C367.515 173.111 367.581 173.052 367.645 173.052L388.41 173.047C388.474 173.047 388.54 173.105 388.532 173.192L388.294 175.829C388.17 177.2 387.793 178.536 387.182 179.768L387.124 179.883C381.263 179.141 375.267 179.168 369.152 179.901C368.351 178.51 367.86 176.958 367.716 175.354L367.522 173.197Z" stroke="#25316D" stroke-width="2" stroke-linecap="round" stroke-linejoin="round"/>
<path d="M373.602 165.19C375.264 159.14 376.433 152.815 374.852 146.608C374.254 144.573 373.379 142.268 371.678 140.898C370.579 140.024 369.095 140.083 368.651 141.623C367.988 143.932 370.568 145.628 372.546 146.063C376.447 146.877 381.235 144.939 384.373 142.566C385.419 141.739 388.338 138.818 386.472 137.394C383.181 134.764 380.691 140.765 380.413 143.018C380.075 145.989 380.343 149.011 380.612 151.923C381.043 156.868 381.853 161.87 382.833 166.704" stroke="#CB2027" stroke-width="2" stroke-miterlimit="1.5" stroke-linecap="round" stroke-linejoin="round"/>
<path d="M376.553 125.816C382.387 126.131 387.618 129.402 391.365 133.707M393.572 137.697C394.178 139.404 394.426 140.885 393.924 143.258" stroke="#25316D" stroke-width="2" stroke-miterlimit="1.5" stroke-linecap="round" stroke-linejoin="round"/>
<path d="M454.574 113.469C454.574 111.831 455.903 110.503 457.541 110.503H468.138C468.138 110.503 471.67 115.796 476.408 115.796C481.146 115.796 484.679 110.503 484.679 110.503H495.276C496.914 110.503 498.242 111.831 498.242 113.469V139.615H454.574V113.469Z" fill="white"/>
<path d="M488.979 91.9771C488.979 100.016 483.351 107.856 476.408 107.856C469.465 107.856 463.837 100.016 463.837 91.9771C463.837 83.938 466.484 77.4211 476.408 77.4211C486.333 77.4211 488.979 83.938 488.979 91.9771Z" fill="white"/>
<path fill-rule="evenodd" clip-rule="evenodd" d="M489.462 90.0878C489.462 101.24 481.039 107.856 476.409 107.856C470.453 107.856 463.356 101.24 463.356 90.0878C463.356 81.3909 467.809 77.4211 476.409 77.4211C485.009 77.4211 489.462 81.3909 489.462 90.0878Z" stroke="#25316D" stroke-width="2" stroke-linecap="round" stroke-linejoin="round"/>
<path d="M467.287 110.556C463.16 110.556 455.908 108.647 455.409 113.811C454.692 121.242 453.609 139.945 453.609 139.945H460.856C460.856 139.945 463.175 131.176 463.175 127.705C463.175 134.306 463.175 139.945 463.175 139.945H476.409H490.824C490.824 139.945 490.824 133.467 490.824 127.705C490.824 131.114 492.989 139.945 492.989 139.945H499.209C499.209 139.945 498.125 121.242 497.408 113.811C496.909 108.647 489.658 110.556 485.531 110.556" stroke="#25316D" stroke-width="2" stroke-linecap="round" stroke-linejoin="round"/>
<path d="M486.5 107.5C479.5 121 471 115.5 467.5 109V105C471 106.5 473.5 112.5 486.5 107.5Z" fill="#E2EEFF"/>
<circle cx="503.535" cy="122.412" r="22.0522" fill="white"/>
<mask id="mask0_653_6745" style="mask-type:alpha" maskUnits="userSpaceOnUse" x="477" y="95" width="54" height="54">
<rect x="477.07" y="95.9468" width="52.9306" height="52.9306" fill="#D9D9D9"/>
</mask>
<g mask="url(#mask0_653_6745)">
<path d="M500.447 126.382L495.706 121.64C495.301 121.236 494.787 121.034 494.162 121.034C493.537 121.034 493.022 121.236 492.618 121.64C492.214 122.045 492.011 122.559 492.011 123.184C492.011 123.809 492.214 124.324 492.618 124.728L498.903 131.013C499.345 131.455 499.859 131.675 500.447 131.675C501.035 131.675 501.55 131.455 501.991 131.013L514.452 118.553C514.856 118.148 515.058 117.634 515.058 117.009C515.058 116.384 514.856 115.869 514.452 115.465C514.047 115.061 513.533 114.859 512.908 114.859C512.283 114.859 511.769 115.061 511.364 115.465L500.447 126.382ZM503.535 144.467C500.484 144.467 497.617 143.888 494.934 142.73C492.25 141.572 489.916 140.001 487.931 138.016C485.946 136.031 484.375 133.697 483.217 131.013C482.059 128.33 481.48 125.463 481.48 122.412C481.48 119.361 482.059 116.494 483.217 113.811C484.375 111.128 485.946 108.794 487.931 106.809C489.916 104.824 492.25 103.252 494.934 102.095C497.617 100.937 500.484 100.358 503.535 100.358C506.586 100.358 509.453 100.937 512.136 102.095C514.819 103.252 517.153 104.824 519.138 106.809C521.123 108.794 522.695 111.128 523.853 113.811C525.01 116.494 525.589 119.361 525.589 122.412C525.589 125.463 525.01 128.33 523.853 131.013C522.695 133.697 521.123 136.031 519.138 138.016C517.153 140.001 514.819 141.572 512.136 142.73C509.453 143.888 506.586 144.467 503.535 144.467Z" fill="#CB2027"/>
</g>
<path d="M478.762 200.41L478.14 199.628L478.762 200.41C479.24 200.03 479.763 199.923 480.165 200.055C481.572 200.522 482.932 201.097 484.229 201.771L484.229 201.771C484.586 201.956 484.869 202.376 484.951 202.954L484.951 202.955C485.695 208.124 489.781 212.208 494.949 212.952C495.528 213.036 495.946 213.318 496.132 213.676L496.132 213.676C496.806 214.974 497.381 216.332 497.848 217.738C497.98 218.14 497.874 218.663 497.493 219.141L498.275 219.764L497.493 219.141C495.886 221.159 494.926 223.716 494.926 226.496C494.926 229.272 495.885 231.829 497.492 233.847C497.876 234.331 497.981 234.85 497.848 235.249L497.848 235.25C497.382 236.659 496.807 238.017 496.132 239.315L496.132 239.315C495.946 239.673 495.527 239.955 494.948 240.04C489.781 240.784 485.695 244.868 484.951 250.036L484.951 250.037C484.869 250.615 484.586 251.035 484.229 251.22L484.229 251.22C482.931 251.895 481.574 252.469 480.166 252.936C479.765 253.068 479.242 252.961 478.762 252.579L478.762 252.578C476.745 250.974 474.188 250.013 471.408 250.013C468.63 250.013 466.072 250.974 464.055 252.581L464.678 253.363L464.055 252.581C463.577 252.962 463.054 253.069 462.652 252.936C461.243 252.469 459.886 251.895 458.588 251.22L458.588 251.22C458.231 251.035 457.949 250.615 457.866 250.037L457.866 250.036C457.12 244.868 453.037 240.784 447.869 240.04C447.289 239.955 446.869 239.672 446.683 239.315L446.683 239.315C446.009 238.017 445.434 236.66 444.967 235.254C444.835 234.85 444.943 234.33 445.326 233.847C446.929 231.83 447.891 229.273 447.891 226.496C447.891 223.716 446.929 221.158 445.325 219.141L445.325 219.141C444.942 218.661 444.836 218.139 444.969 217.74L444.97 217.738C445.434 216.333 446.008 214.975 446.683 213.678C446.871 213.318 447.291 213.036 447.868 212.952C453.036 212.208 457.12 208.124 457.864 202.956C457.948 202.376 458.231 201.956 458.588 201.771L458.588 201.771C459.886 201.097 461.244 200.522 462.652 200.055C463.055 199.923 463.577 200.029 464.055 200.41L464.055 200.41C466.072 202.017 468.63 202.979 471.408 202.979C474.188 202.979 476.745 202.017 478.762 200.41ZM459.403 226.496C459.403 233.021 464.694 238.313 471.22 238.313C477.745 238.313 483.037 233.021 483.037 226.496C483.037 219.97 477.745 214.678 471.22 214.678C464.694 214.678 459.403 219.97 459.403 226.496Z" fill="white" stroke="#CB2027" stroke-width="2"/>
<ellipse cx="471.251" cy="226.496" rx="10.8413" ry="10.9983" fill="#E2EEFF"/>
</svg>
