<svg width="64" height="64" viewBox="0 0 64 64" fill="none" xmlns="http://www.w3.org/2000/svg">
<path d="M9.02596 50.8033C9.25204 42.1664 10.5138 20.1373 10.6025 18.5933C10.606 18.5331 10.6037 18.4777 10.5963 18.4178L9.44565 9.12286C9.37181 8.52639 9.83705 8 10.4381 8H18.5207L27.0905 9.1001C30.5769 9.54765 34.1065 9.545 37.5923 9.0922L44.8716 8.14663C45.47 8.0689 46.0004 8.52706 46.0004 9.13049V49.5945C46.0004 50.4856 44.4929 51.8913 43.602 51.9134C39.3199 52.0193 30.2976 52.4392 24.5 50.5C19.1077 48.6963 13.9528 50.8236 10.181 51.7477C9.57169 51.8969 9.00955 51.4304 9.02596 50.8033Z" fill="white"/>
<path d="M36.5 25.2131L30.5 25.2131M16.4785 25.2131H20.5M24.6307 25.2131H27.4036" stroke="#25316D" stroke-width="2" stroke-linecap="round"/>
<path d="M37.9349 31H32.783M16.4785 31H22.5M29.5 31H25.7954" stroke="#25316D" stroke-width="2" stroke-linecap="round"/>
<path d="M16.4785 37.5244H20.2496" stroke="#25316D" stroke-width="2" stroke-linecap="round"/>
<path d="M37.5 43.4756C37.5 43.4756 36.0996 45.2711 35 44.9756C34.0571 44.7222 33.5 42.9756 33.5 42.9756L31.5 44.4756" stroke="#25316D" stroke-width="2" stroke-linecap="round"/>
<path d="M16.9229 18V19.5528L19.2336 18L19.973 19.5528L21.5443 18L22.1121 19.5528L23.855 18L24.1402 19.5528M27.9718 19.5528L27.9692 18L30 19.5528L30.2799 18L32 19.5528L33 18L34 19.5528L35 18" stroke="#25316D" stroke-width="2" stroke-linecap="round" stroke-linejoin="round"/>
<path d="M46.0004 24.5C46.0004 17.5478 46.0004 12.9641 46.0004 9.13814C46.0004 8.53471 45.47 8.0689 44.8716 8.14663L37.5923 9.0922C34.1065 9.545 30.5769 9.54765 27.0905 9.1001L18.5207 8H10.4381C9.83705 8 9.37181 8.52639 9.44565 9.12286L10.5963 18.4178C10.6037 18.4777 10.606 18.5331 10.6025 18.5933C10.5138 20.1373 9.25204 42.1664 9.02596 50.8033C9.00955 51.4304 9.57169 51.8969 10.181 51.7477C13.9528 50.8236 19.1077 48.6963 24.5 50.5C30.2976 52.4392 39.3199 52.0193 43.602 51.9134C44.4929 51.8913 46.0004 50.4758 46.0004 49.5847C46.0004 48.3653 46.0004 46.9908 46.0004 45.5" stroke="#25316D" stroke-width="2" stroke-linecap="round"/>
<path d="M57.025 27.1749L52.775 22.9749L54.175 21.5749C54.5583 21.1916 55.0292 20.9999 55.5875 20.9999C56.1458 20.9999 56.6167 21.1916 57 21.5749L58.4 22.9749C58.7833 23.3582 58.9833 23.8207 59 24.3624C59.0167 24.9041 58.8333 25.3666 58.45 25.7499L57.025 27.1749ZM55.575 28.6499L43.25 41.4002H39V37.1502L51.325 24.3999L55.575 28.6499Z" fill="#CB2027"/>
<path d="M57.025 27.1749L52.775 22.9749L54.175 21.5749C54.5583 21.1916 55.0292 20.9999 55.5875 20.9999C56.1458 20.9999 56.6167 21.1916 57 21.5749L58.4 22.9749C58.7833 23.3582 58.9833 23.8207 59 24.3624C59.0167 24.9041 58.8333 25.3666 58.45 25.7499L57.025 27.1749ZM55.575 28.6499L43.25 41.4002H39V37.1502L51.325 24.3999L55.575 28.6499Z" stroke="#25316D" stroke-width="2"/>
</svg>
