<svg width="24" height="24" viewBox="0 0 24 24" fill="none" xmlns="http://www.w3.org/2000/svg">
<path d="M13.6877 9.45508L11.4377 9.45508M6.17969 9.45508H7.68774M9.23678 9.45508H10.2766" stroke="#303030" stroke-linecap="round"/>
<path d="M14.2258 11.625H12.2939M6.17969 11.625H8.43774M11.0627 11.625H9.6735" stroke="#303030" stroke-linecap="round"/>
<path d="M6.17969 14.0718H7.59385" stroke="#303030" stroke-linecap="round"/>
<path d="M14.0625 16.3032C14.0625 16.3032 13.5373 16.9765 13.125 16.8657C12.7714 16.7707 12.5625 16.1157 12.5625 16.1157L11.8125 16.6782" stroke="#303030" stroke-linecap="round"/>
<path d="M6.34668 6.75V7.3323L7.2132 6.75L7.49049 7.3323L8.07972 6.75L8.29264 7.3323L8.94624 6.75L9.0532 7.3323M10.4901 7.3323L10.4891 6.75L11.2506 7.3323L11.3556 6.75L12.0006 7.3323L12.3756 6.75L12.7506 7.3323L13.1256 6.75" stroke="#303030" stroke-linecap="round" stroke-linejoin="round"/>
<path d="M17.2502 9.1875C17.2502 6.58041 17.2502 4.86155 17.2502 3.4268C17.2502 3.20052 17.0512 3.02584 16.8268 3.05499L14.0971 3.40958C12.7899 3.57938 11.4663 3.58037 10.1589 3.41254L6.94527 3H3.91428C3.68889 3 3.51443 3.1974 3.54212 3.42107L3.97362 6.90668C3.9764 6.92913 3.97725 6.94992 3.97595 6.9725C3.94266 7.5515 3.46951 15.8124 3.38474 19.0512C3.37858 19.2864 3.58939 19.4613 3.81789 19.4054C5.23229 19.0589 7.16538 18.2611 9.1875 18.9375C11.3616 19.6647 14.745 19.5072 16.3508 19.4675C16.6848 19.4593 17.2502 18.9284 17.2502 18.5943C17.2502 18.137 17.2502 17.6215 17.2502 17.0625" stroke="#303030" stroke-linecap="round"/>
<path d="M21.3844 10.1906L19.7906 8.61559L20.3156 8.09059C20.4594 7.94684 20.6359 7.87496 20.8453 7.87496C21.0547 7.87496 21.2312 7.94684 21.375 8.09059L21.9 8.61559C22.0438 8.75934 22.1188 8.93278 22.125 9.1359C22.1312 9.33903 22.0625 9.51246 21.9188 9.65621L21.3844 10.1906ZM20.8406 10.7437L16.2188 15.5251H14.625V13.9313L19.2469 9.14996L20.8406 10.7437Z" fill="#303030"/>
<path d="M21.3844 10.1906L19.7906 8.61559L20.3156 8.09059C20.4594 7.94684 20.6359 7.87496 20.8453 7.87496C21.0547 7.87496 21.2313 7.94684 21.375 8.09059L21.9 8.61559C22.0438 8.75934 22.1187 8.93278 22.125 9.1359C22.1313 9.33903 22.0625 9.51246 21.9188 9.65621L21.3844 10.1906ZM20.8406 10.7437L16.2188 15.5251H14.625V13.9313L19.2469 9.14996L20.8406 10.7437Z" stroke="#303030"/>
</svg>
