<svg width="24" height="24" viewBox="0 0 24 24" fill="none" xmlns="http://www.w3.org/2000/svg">
<path d="M8.2207 11.2075C9.5563 10.5613 12.3568 10.0443 15.1357 11.2075" stroke="#303030" stroke-linecap="round"/>
<path d="M8.96902 9.0293C7.95044 9.33079 7.09788 9.75543 6.50116 10.1573C6.48616 10.1674 6.46584 10.1678 6.4499 10.1592C3.83292 8.75711 4.56119 10.1769 5.28139 11.102C5.29879 11.1244 5.29365 11.1564 5.27065 11.1729C4.51912 11.7125 3.95657 13.1282 3.7645 13.7864C3.76322 13.7908 3.76274 13.7951 3.7623 13.7997C3.74266 13.9993 2.87384 14.0924 2.42163 14.1151C2.41097 14.1157 2.401 14.1197 2.39296 14.1267C1.73917 14.6978 1.90922 15.9797 2.07957 16.5622C2.08145 16.5687 2.08435 16.5741 2.08871 16.5792C2.80228 17.4134 5.23546 18.7708 6.32233 19.3374C6.33837 19.3458 6.34767 19.362 6.34767 19.38V21.9518C6.34767 21.9786 6.36937 22.0003 6.39614 22.0003H8.12618C8.14509 22.0003 8.16227 21.9893 8.17019 21.9721L8.91673 20.3546C8.9261 20.3343 8.94851 20.3231 8.97046 20.3274C12.2909 20.9729 14.7322 20.3257 15.5993 19.8954C15.6276 19.8814 15.661 19.8974 15.6684 19.9281L16.1618 21.9632C16.1671 21.985 16.1866 22.0003 16.2089 22.0003H17.8672C17.894 22.0003 17.9157 21.9786 17.9157 21.9518V18.4657C17.9157 18.453 17.921 18.4405 17.9298 18.4314C20.7035 15.5916 19.5012 12.434 18.4327 11.4663C17.1457 10.2085 15.8462 9.44515 14.5268 9.0293" stroke="#303030" stroke-linecap="round"/>
<path d="M19.3092 12.6291C20.2025 11.6942 21.2241 9.32882 19.6263 8.2805C19.5133 8.20641 19.3663 8.20974 19.2594 8.29234C18.5017 8.87808 17.7431 10.341 20.2621 11.3943C20.2724 11.3987 20.2839 11.3996 20.2946 11.3964C20.7408 11.2638 22.0174 10.929 22.3749 10.3672" stroke="#303030" stroke-linecap="round"/>
<circle cx="5.93015" cy="13.5986" r="0.904762" fill="#303030"/>
<path fill-rule="evenodd" clip-rule="evenodd" d="M11.7477 10.7551C13.8892 10.7551 15.6252 9.01906 15.6252 6.87755C15.6252 4.73604 13.8892 3 11.7477 3C9.60616 3 7.87012 4.73604 7.87012 6.87755C7.87012 9.01906 9.60616 10.7551 11.7477 10.7551ZM11.311 6.20744C11.311 6.39172 11.4617 6.54249 11.646 6.54249H11.981C12.5339 6.54249 12.9862 6.9948 12.9862 7.54762C12.9862 8.05019 12.6176 8.45224 12.1486 8.536V8.8878C12.1486 9.07207 11.9978 9.22284 11.8135 9.22284C11.6292 9.22284 11.4785 9.07207 11.4785 8.8878V8.536C11.0094 8.45224 10.6409 8.05019 10.6409 7.54762C10.6409 7.36335 10.7916 7.21258 10.9759 7.21258C11.1602 7.21258 11.311 7.36335 11.311 7.54762C11.311 7.73189 11.4617 7.88266 11.646 7.88266H11.981C12.1653 7.88266 12.3161 7.73189 12.3161 7.54762C12.3161 7.36335 12.1653 7.21258 11.981 7.21258H11.646C11.0932 7.21258 10.6409 6.76027 10.6409 6.20744C10.6409 5.70488 11.0094 5.30283 11.4785 5.21907V4.86727C11.4785 4.683 11.6292 4.53223 11.8135 4.53223C11.9978 4.53223 12.1486 4.683 12.1486 4.86727V5.21907C12.6176 5.30283 12.9862 5.70488 12.9862 6.20744C12.9862 6.39172 12.8354 6.54249 12.6511 6.54249C12.4669 6.54249 12.3161 6.39172 12.3161 6.20744C12.3161 6.02317 12.1653 5.8724 11.981 5.8724H11.646C11.4617 5.8724 11.311 6.02317 11.311 6.20744Z" fill="#303030"/>
<path d="M15.001 6.9375C15.001 8.69791 13.5739 10.125 11.8135 10.125C10.0531 10.125 8.62598 8.69791 8.62598 6.9375C8.62598 5.17709 10.0531 3.75 11.8135 3.75C13.5739 3.75 15.001 5.17709 15.001 6.9375Z" stroke="#303030" stroke-linecap="round" stroke-linejoin="round"/>
</svg>
