<svg width="65" height="65" viewBox="0 0 65 65" fill="none" xmlns="http://www.w3.org/2000/svg">
<path d="M53.2499 38.4473L62.2498 28.4473L55.58 28.4473L53.2499 25.4473L50.9197 28.4473L44.2498 28.4473L53.2499 38.4473Z" fill="#CB2027"/>
<path d="M45.0002 12.2808L56.0002 12.2808L56.0002 28.1973L62.5002 28.1973L53.2502 38.9473L44.0002 28.3095L50.5002 28.3095L50.5002 19.2808L45.0002 19.2808" stroke="#25316D" stroke-width="2" stroke-linecap="round" stroke-linejoin="round"/>
<path d="M13.2506 30.7808L4.25073 40.7808L10.9205 40.7808L13.2506 43.7808L15.5808 40.7808L22.2507 40.7808L13.2506 30.7808Z" fill="#CB2027"/>
<path d="M21.5002 56.9473L10.5002 56.9473L10.5002 41.0308L4.00024 41.0308L13.2502 30.2808L22.5002 40.9185L16.0002 40.9185L16.0002 49.9473L21.5002 49.9473" stroke="#25316D" stroke-width="2" stroke-linecap="round" stroke-linejoin="round"/>
<path d="M4.00024 5.28076C4.00024 4.72848 4.44796 4.28076 5.00024 4.28076H37.0002C37.5525 4.28076 38.0002 4.72848 38.0002 5.28076V9.28076H4.00024V5.28076Z" fill="white" stroke="#25316D" stroke-width="2"/>
<path d="M4.00024 9.28076H38.0002V22.2808C38.0002 22.833 37.5525 23.2808 37.0002 23.2808H5.00025C4.44796 23.2808 4.00024 22.833 4.00024 22.2808V9.28076Z" fill="white" stroke="#25316D" stroke-width="2"/>
<path d="M8.63524 18.0448V18.4738C8.63524 18.7338 8.57424 18.9388 8.45224 19.0888C8.33024 19.2368 8.15124 19.3108 7.91524 19.3108C7.67924 19.3108 7.50024 19.2368 7.37824 19.0888C7.25624 18.9388 7.19524 18.7338 7.19524 18.4738V18.0448C7.19524 17.7848 7.25624 17.5808 7.37824 17.4328C7.50024 17.2848 7.67924 17.2108 7.91524 17.2108C8.15124 17.2108 8.33024 17.2848 8.45224 17.4328C8.57424 17.5808 8.63524 17.7848 8.63524 18.0448ZM8.27224 18.0448C8.27224 17.7108 8.15324 17.5438 7.91524 17.5438C7.79324 17.5438 7.70324 17.5858 7.64524 17.6698C7.58724 17.7538 7.55824 17.8788 7.55824 18.0448V18.4738C7.55824 18.6398 7.58724 18.7658 7.64524 18.8518C7.70324 18.9358 7.79324 18.9778 7.91524 18.9778C8.15324 18.9778 8.27224 18.8098 8.27224 18.4738V18.0448ZM10.9973 19.2808H9.7613V18.9958C9.7613 18.8518 9.7803 18.7318 9.8183 18.6358C9.8563 18.5378 9.9073 18.4578 9.9713 18.3958C10.0353 18.3318 10.1053 18.2808 10.1813 18.2428L10.3853 18.1408C10.4633 18.1008 10.5263 18.0588 10.5743 18.0148C10.6243 17.9688 10.6493 17.9098 10.6493 17.8378V17.7838C10.6493 17.7098 10.6233 17.6518 10.5713 17.6098C10.5213 17.5658 10.4403 17.5438 10.3283 17.5438C10.2603 17.5438 10.1913 17.5538 10.1213 17.5738C10.0533 17.5938 9.9703 17.6218 9.8723 17.6578L9.7613 17.3488C9.8733 17.2988 9.9753 17.2638 10.0673 17.2438C10.1613 17.2218 10.2523 17.2108 10.3403 17.2108C10.5023 17.2108 10.6313 17.2368 10.7273 17.2888C10.8253 17.3408 10.8953 17.4108 10.9373 17.4988C10.9813 17.5848 11.0033 17.6798 11.0033 17.7838V17.8378C11.0033 17.9458 10.9813 18.0378 10.9373 18.1138C10.8953 18.1898 10.8393 18.2538 10.7693 18.3058C10.6993 18.3578 10.6233 18.4038 10.5413 18.4438L10.3373 18.5458C10.2633 18.5818 10.2083 18.6318 10.1723 18.6958C10.1383 18.7598 10.1193 18.8418 10.1153 18.9418H10.9973V19.2808ZM13.6009 18.0448V18.4738C13.6009 18.7338 13.5399 18.9388 13.4179 19.0888C13.2959 19.2368 13.1169 19.3108 12.8809 19.3108C12.6449 19.3108 12.4659 19.2368 12.3439 19.0888C12.2219 18.9388 12.1609 18.7338 12.1609 18.4738V18.0448C12.1609 17.7848 12.2219 17.5808 12.3439 17.4328C12.4659 17.2848 12.6449 17.2108 12.8809 17.2108C13.1169 17.2108 13.2959 17.2848 13.4179 17.4328C13.5399 17.5808 13.6009 17.7848 13.6009 18.0448ZM13.2379 18.0448C13.2379 17.7108 13.1189 17.5438 12.8809 17.5438C12.7589 17.5438 12.6689 17.5858 12.6109 17.6698C12.5529 17.7538 12.5239 17.8788 12.5239 18.0448V18.4738C12.5239 18.6398 12.5529 18.7658 12.6109 18.8518C12.6689 18.9358 12.7589 18.9778 12.8809 18.9778C13.1189 18.9778 13.2379 18.8098 13.2379 18.4738V18.0448ZM15.945 18.7258C15.945 18.8318 15.923 18.9298 15.879 19.0198C15.835 19.1078 15.764 19.1788 15.666 19.2328C15.57 19.2848 15.441 19.3108 15.279 19.3108C15.187 19.3108 15.091 19.2998 14.991 19.2778C14.893 19.2558 14.785 19.2188 14.667 19.1668L14.778 18.8578C14.884 18.8958 14.973 18.9258 15.045 18.9478C15.119 18.9678 15.193 18.9778 15.267 18.9778C15.373 18.9778 15.453 18.9568 15.507 18.9148C15.563 18.8708 15.591 18.8028 15.591 18.7108V18.6688C15.591 18.5928 15.567 18.5318 15.519 18.4858C15.473 18.4378 15.401 18.4138 15.303 18.4138H14.985V18.0898H15.303C15.397 18.0898 15.466 18.0678 15.51 18.0238C15.554 17.9778 15.576 17.9188 15.576 17.8468V17.8048C15.576 17.7128 15.55 17.6468 15.498 17.6068C15.448 17.5648 15.374 17.5438 15.276 17.5438C15.206 17.5438 15.135 17.5538 15.063 17.5738C14.993 17.5918 14.908 17.6198 14.808 17.6578L14.697 17.3488C14.809 17.2968 14.913 17.2608 15.009 17.2408C15.105 17.2208 15.198 17.2108 15.288 17.2108C15.442 17.2108 15.566 17.2368 15.66 17.2888C15.754 17.3408 15.822 17.4108 15.864 17.4988C15.908 17.5868 15.93 17.6838 15.93 17.7898V17.8318C15.93 17.9258 15.906 18.0088 15.858 18.0808C15.812 18.1508 15.751 18.2068 15.675 18.2488C15.757 18.2928 15.822 18.3518 15.87 18.4258C15.92 18.4978 15.945 18.5838 15.945 18.6838V18.7258ZM18.4319 18.4768C18.4319 18.7568 18.3659 18.9658 18.2339 19.1038C18.1019 19.2418 17.9159 19.3108 17.6759 19.3108C17.5919 19.3108 17.5049 19.3008 17.4149 19.2808C17.3249 19.2608 17.2239 19.2248 17.1119 19.1728L17.2409 18.8638C17.3309 18.9058 17.4099 18.9358 17.4779 18.9538C17.5479 18.9698 17.6109 18.9778 17.6669 18.9778C17.7929 18.9778 17.8939 18.9398 17.9699 18.8638C18.0479 18.7878 18.0869 18.6588 18.0869 18.4768V18.3688C18.0189 18.4308 17.9469 18.4768 17.8709 18.5068C17.7969 18.5368 17.7219 18.5518 17.6459 18.5518C17.5279 18.5518 17.4239 18.5248 17.3339 18.4708C17.2459 18.4168 17.1779 18.3418 17.1299 18.2458C17.0819 18.1498 17.0579 18.0388 17.0579 17.9128V17.8528C17.0579 17.7408 17.0849 17.6358 17.1389 17.5378C17.1929 17.4398 17.2699 17.3608 17.3699 17.3008C17.4699 17.2408 17.5889 17.2108 17.7269 17.2108C17.9489 17.2108 18.1219 17.2858 18.2459 17.4358C18.3699 17.5858 18.4319 17.7918 18.4319 18.0538V18.4768ZM17.4089 17.9128C17.4089 18.0048 17.4339 18.0808 17.4839 18.1408C17.5359 18.1988 17.6079 18.2278 17.6999 18.2278C17.8419 18.2278 17.9709 18.1738 18.0869 18.0658V18.0538C18.0869 17.8818 18.0549 17.7538 17.9909 17.6698C17.9289 17.5858 17.8389 17.5438 17.7209 17.5438C17.6229 17.5438 17.5459 17.5758 17.4899 17.6398C17.4359 17.7038 17.4089 17.7748 17.4089 17.8528V17.9128ZM20.9529 18.8188H20.7399V19.2808H20.3919V18.8188H19.5159V18.5278C19.6059 18.3878 19.6949 18.2458 19.7829 18.1018C19.8729 17.9558 19.9569 17.8108 20.0349 17.6668C20.1129 17.5208 20.1769 17.3788 20.2269 17.2408H20.6199C20.5459 17.4448 20.4459 17.6548 20.3199 17.8708C20.1939 18.0848 20.0639 18.2938 19.9299 18.4978H20.3919V18.1888H20.7399V18.4978H20.9529V18.8188ZM23.399 18.6688C23.399 18.7908 23.372 18.9008 23.318 18.9988C23.264 19.0948 23.187 19.1708 23.087 19.2268C22.989 19.2828 22.87 19.3108 22.73 19.3108C22.508 19.3108 22.335 19.2358 22.211 19.0858C22.087 18.9358 22.025 18.7298 22.025 18.4678V18.0448C22.025 17.7648 22.091 17.5558 22.223 17.4178C22.355 17.2798 22.541 17.2108 22.781 17.2108C22.865 17.2108 22.952 17.2208 23.042 17.2408C23.134 17.2608 23.235 17.2968 23.345 17.3488L23.216 17.6578C23.126 17.6158 23.047 17.5868 22.979 17.5708C22.911 17.5528 22.848 17.5438 22.79 17.5438C22.664 17.5438 22.562 17.5818 22.484 17.6578C22.408 17.7318 22.37 17.8608 22.37 18.0448V18.1528C22.44 18.0908 22.512 18.0448 22.586 18.0148C22.662 17.9848 22.737 17.9698 22.811 17.9698C22.931 17.9698 23.035 17.9968 23.123 18.0508C23.211 18.1048 23.279 18.1798 23.327 18.2758C23.375 18.3718 23.399 18.4828 23.399 18.6088V18.6688ZM22.37 18.4678C22.37 18.6398 22.402 18.7678 22.466 18.8518C22.53 18.9358 22.62 18.9778 22.736 18.9778C22.836 18.9778 22.913 18.9498 22.967 18.8938C23.021 18.8358 23.048 18.7608 23.048 18.6688V18.6088C23.048 18.5148 23.023 18.4388 22.973 18.3808C22.923 18.3228 22.851 18.2938 22.757 18.2938C22.615 18.2938 22.486 18.3478 22.37 18.4558V18.4678ZM25.983 18.0448V18.4738C25.983 18.7338 25.922 18.9388 25.8 19.0888C25.678 19.2368 25.499 19.3108 25.263 19.3108C25.027 19.3108 24.848 19.2368 24.726 19.0888C24.604 18.9388 24.543 18.7338 24.543 18.4738V18.0448C24.543 17.7848 24.604 17.5808 24.726 17.4328C24.848 17.2848 25.027 17.2108 25.263 17.2108C25.499 17.2108 25.678 17.2848 25.8 17.4328C25.922 17.5808 25.983 17.7848 25.983 18.0448ZM25.62 18.0448C25.62 17.7108 25.501 17.5438 25.263 17.5438C25.141 17.5438 25.051 17.5858 24.993 17.6698C24.935 17.7538 24.906 17.8788 24.906 18.0448V18.4738C24.906 18.6398 24.935 18.7658 24.993 18.8518C25.051 18.9358 25.141 18.9778 25.263 18.9778C25.501 18.9778 25.62 18.8098 25.62 18.4738V18.0448ZM27.019 17.5318L27.538 17.2408H27.838V19.2808H27.484V17.6368L27.178 17.8048L27.019 17.5318ZM30.2679 18.7258C30.2679 18.8318 30.2459 18.9298 30.2019 19.0198C30.1579 19.1078 30.0869 19.1788 29.9889 19.2328C29.8929 19.2848 29.7639 19.3108 29.6019 19.3108C29.5099 19.3108 29.4139 19.2998 29.3139 19.2778C29.2159 19.2558 29.1079 19.2188 28.9899 19.1668L29.1009 18.8578C29.2069 18.8958 29.2959 18.9258 29.3679 18.9478C29.4419 18.9678 29.5159 18.9778 29.5899 18.9778C29.6959 18.9778 29.7759 18.9568 29.8299 18.9148C29.8859 18.8708 29.9139 18.8028 29.9139 18.7108V18.6688C29.9139 18.5928 29.8899 18.5318 29.8419 18.4858C29.7959 18.4378 29.7239 18.4138 29.6259 18.4138H29.3079V18.0898H29.6259C29.7199 18.0898 29.7889 18.0678 29.8329 18.0238C29.8769 17.9778 29.8989 17.9188 29.8989 17.8468V17.8048C29.8989 17.7128 29.8729 17.6468 29.8209 17.6068C29.7709 17.5648 29.6969 17.5438 29.5989 17.5438C29.5289 17.5438 29.4579 17.5538 29.3859 17.5738C29.3159 17.5918 29.2309 17.6198 29.1309 17.6578L29.0199 17.3488C29.1319 17.2968 29.2359 17.2608 29.3319 17.2408C29.4279 17.2208 29.5209 17.2108 29.6109 17.2108C29.7649 17.2108 29.8889 17.2368 29.9829 17.2888C30.0769 17.3408 30.1449 17.4108 30.1869 17.4988C30.2309 17.5868 30.2529 17.6838 30.2529 17.7898V17.8318C30.2529 17.9258 30.2289 18.0088 30.1809 18.0808C30.1349 18.1508 30.0739 18.2068 29.9979 18.2488C30.0799 18.2928 30.1449 18.3518 30.1929 18.4258C30.2429 18.4978 30.2679 18.5838 30.2679 18.6838V18.7258ZM32.5988 19.2808H31.3628V18.9958C31.3628 18.8518 31.3818 18.7318 31.4198 18.6358C31.4578 18.5378 31.5088 18.4578 31.5728 18.3958C31.6368 18.3318 31.7068 18.2808 31.7828 18.2428L31.9868 18.1408C32.0648 18.1008 32.1278 18.0588 32.1758 18.0148C32.2258 17.9688 32.2508 17.9098 32.2508 17.8378V17.7838C32.2508 17.7098 32.2248 17.6518 32.1728 17.6098C32.1228 17.5658 32.0418 17.5438 31.9298 17.5438C31.8618 17.5438 31.7928 17.5538 31.7228 17.5738C31.6548 17.5938 31.5718 17.6218 31.4738 17.6578L31.3628 17.3488C31.4748 17.2988 31.5768 17.2638 31.6688 17.2438C31.7628 17.2218 31.8538 17.2108 31.9418 17.2108C32.1038 17.2108 32.2328 17.2368 32.3288 17.2888C32.4268 17.3408 32.4968 17.4108 32.5388 17.4988C32.5828 17.5848 32.6048 17.6798 32.6048 17.7838V17.8378C32.6048 17.9458 32.5828 18.0378 32.5388 18.1138C32.4968 18.1898 32.4408 18.2538 32.3708 18.3058C32.3008 18.3578 32.2248 18.4038 32.1428 18.4438L31.9388 18.5458C31.8648 18.5818 31.8098 18.6318 31.7738 18.6958C31.7398 18.7598 31.7208 18.8418 31.7168 18.9418H32.5988V19.2808Z" fill="black"/>
<rect x="7.00024" y="12.2808" width="26" height="3" fill="#D9D9D9"/>
<path d="M27.0002 43.2808C27.0002 42.7285 27.448 42.2808 28.0002 42.2808H60.0002C60.5525 42.2808 61.0002 42.7285 61.0002 43.2808V47.2808H27.0002V43.2808Z" fill="white" stroke="#25316D" stroke-width="2"/>
<path d="M27.0002 47.2808H61.0002V60.2808C61.0002 60.833 60.5525 61.2808 60.0002 61.2808H28.0002C27.448 61.2808 27.0002 60.833 27.0002 60.2808V47.2808Z" fill="white" stroke="#25316D" stroke-width="2"/>
<path d="M31.6352 56.0448V56.4738C31.6352 56.7338 31.5742 56.9388 31.4522 57.0888C31.3302 57.2368 31.1512 57.3108 30.9152 57.3108C30.6792 57.3108 30.5002 57.2368 30.3782 57.0888C30.2562 56.9388 30.1952 56.7338 30.1952 56.4738V56.0448C30.1952 55.7848 30.2562 55.5808 30.3782 55.4328C30.5002 55.2848 30.6792 55.2108 30.9152 55.2108C31.1512 55.2108 31.3302 55.2848 31.4522 55.4328C31.5742 55.5808 31.6352 55.7848 31.6352 56.0448ZM31.2722 56.0448C31.2722 55.7108 31.1532 55.5438 30.9152 55.5438C30.7932 55.5438 30.7032 55.5858 30.6452 55.6698C30.5872 55.7538 30.5582 55.8788 30.5582 56.0448V56.4738C30.5582 56.6398 30.5872 56.7658 30.6452 56.8518C30.7032 56.9358 30.7932 56.9778 30.9152 56.9778C31.1532 56.9778 31.2722 56.8098 31.2722 56.4738V56.0448ZM33.9973 57.2808H32.7613V56.9958C32.7613 56.8518 32.7803 56.7318 32.8183 56.6358C32.8563 56.5378 32.9073 56.4578 32.9713 56.3958C33.0353 56.3318 33.1053 56.2808 33.1813 56.2428L33.3853 56.1408C33.4633 56.1008 33.5263 56.0588 33.5743 56.0148C33.6243 55.9688 33.6493 55.9098 33.6493 55.8378V55.7838C33.6493 55.7098 33.6233 55.6518 33.5713 55.6098C33.5213 55.5658 33.4403 55.5438 33.3283 55.5438C33.2603 55.5438 33.1913 55.5538 33.1213 55.5738C33.0533 55.5938 32.9703 55.6218 32.8723 55.6578L32.7613 55.3488C32.8733 55.2988 32.9753 55.2638 33.0673 55.2438C33.1613 55.2218 33.2523 55.2108 33.3403 55.2108C33.5023 55.2108 33.6313 55.2368 33.7273 55.2888C33.8253 55.3408 33.8953 55.4108 33.9373 55.4988C33.9813 55.5848 34.0033 55.6798 34.0033 55.7838V55.8378C34.0033 55.9458 33.9813 56.0378 33.9373 56.1138C33.8953 56.1898 33.8393 56.2538 33.7693 56.3058C33.6993 56.3578 33.6233 56.4038 33.5413 56.4438L33.3373 56.5458C33.2633 56.5818 33.2083 56.6318 33.1723 56.6958C33.1383 56.7598 33.1193 56.8418 33.1153 56.9418H33.9973V57.2808ZM36.6009 56.0448V56.4738C36.6009 56.7338 36.5399 56.9388 36.4179 57.0888C36.2959 57.2368 36.1169 57.3108 35.8809 57.3108C35.6449 57.3108 35.4659 57.2368 35.3439 57.0888C35.2219 56.9388 35.1609 56.7338 35.1609 56.4738V56.0448C35.1609 55.7848 35.2219 55.5808 35.3439 55.4328C35.4659 55.2848 35.6449 55.2108 35.8809 55.2108C36.1169 55.2108 36.2959 55.2848 36.4179 55.4328C36.5399 55.5808 36.6009 55.7848 36.6009 56.0448ZM36.2379 56.0448C36.2379 55.7108 36.1189 55.5438 35.8809 55.5438C35.7589 55.5438 35.6689 55.5858 35.6109 55.6698C35.5529 55.7538 35.5239 55.8788 35.5239 56.0448V56.4738C35.5239 56.6398 35.5529 56.7658 35.6109 56.8518C35.6689 56.9358 35.7589 56.9778 35.8809 56.9778C36.1189 56.9778 36.2379 56.8098 36.2379 56.4738V56.0448ZM38.945 56.7258C38.945 56.8318 38.923 56.9298 38.879 57.0198C38.835 57.1078 38.764 57.1788 38.666 57.2328C38.57 57.2848 38.441 57.3108 38.279 57.3108C38.187 57.3108 38.091 57.2998 37.991 57.2778C37.893 57.2558 37.785 57.2188 37.667 57.1668L37.778 56.8578C37.884 56.8958 37.973 56.9258 38.045 56.9478C38.119 56.9678 38.193 56.9778 38.267 56.9778C38.373 56.9778 38.453 56.9568 38.507 56.9148C38.563 56.8708 38.591 56.8028 38.591 56.7108V56.6688C38.591 56.5928 38.567 56.5318 38.519 56.4858C38.473 56.4378 38.401 56.4138 38.303 56.4138H37.985V56.0898H38.303C38.397 56.0898 38.466 56.0678 38.51 56.0238C38.554 55.9778 38.576 55.9188 38.576 55.8468V55.8048C38.576 55.7128 38.55 55.6468 38.498 55.6068C38.448 55.5648 38.374 55.5438 38.276 55.5438C38.206 55.5438 38.135 55.5538 38.063 55.5738C37.993 55.5918 37.908 55.6198 37.808 55.6578L37.697 55.3488C37.809 55.2968 37.913 55.2608 38.009 55.2408C38.105 55.2208 38.198 55.2108 38.288 55.2108C38.442 55.2108 38.566 55.2368 38.66 55.2888C38.754 55.3408 38.822 55.4108 38.864 55.4988C38.908 55.5868 38.93 55.6838 38.93 55.7898V55.8318C38.93 55.9258 38.906 56.0088 38.858 56.0808C38.812 56.1508 38.751 56.2068 38.675 56.2488C38.757 56.2928 38.822 56.3518 38.87 56.4258C38.92 56.4978 38.945 56.5838 38.945 56.6838V56.7258ZM41.4319 56.4768C41.4319 56.7568 41.3659 56.9658 41.2339 57.1038C41.1019 57.2418 40.9159 57.3108 40.6759 57.3108C40.5919 57.3108 40.5049 57.3008 40.4149 57.2808C40.3249 57.2608 40.2239 57.2248 40.1119 57.1728L40.2409 56.8638C40.3309 56.9058 40.4099 56.9358 40.4779 56.9538C40.5479 56.9698 40.6109 56.9778 40.6669 56.9778C40.7929 56.9778 40.8939 56.9398 40.9699 56.8638C41.0479 56.7878 41.0869 56.6588 41.0869 56.4768V56.3688C41.0189 56.4308 40.9469 56.4768 40.8709 56.5068C40.7969 56.5368 40.7219 56.5518 40.6459 56.5518C40.5279 56.5518 40.4239 56.5248 40.3339 56.4708C40.2459 56.4168 40.1779 56.3418 40.1299 56.2458C40.0819 56.1498 40.0579 56.0388 40.0579 55.9128V55.8528C40.0579 55.7408 40.0849 55.6358 40.1389 55.5378C40.1929 55.4398 40.2699 55.3608 40.3699 55.3008C40.4699 55.2408 40.5889 55.2108 40.7269 55.2108C40.9489 55.2108 41.1219 55.2858 41.2459 55.4358C41.3699 55.5858 41.4319 55.7918 41.4319 56.0538V56.4768ZM40.4089 55.9128C40.4089 56.0048 40.4339 56.0808 40.4839 56.1408C40.5359 56.1988 40.6079 56.2278 40.6999 56.2278C40.8419 56.2278 40.9709 56.1738 41.0869 56.0658V56.0538C41.0869 55.8818 41.0549 55.7538 40.9909 55.6698C40.9289 55.5858 40.8389 55.5438 40.7209 55.5438C40.6229 55.5438 40.5459 55.5758 40.4899 55.6398C40.4359 55.7038 40.4089 55.7748 40.4089 55.8528V55.9128ZM43.9529 56.8188H43.7399V57.2808H43.3919V56.8188H42.5159V56.5278C42.6059 56.3878 42.6949 56.2458 42.7829 56.1018C42.8729 55.9558 42.9569 55.8108 43.0349 55.6668C43.1129 55.5208 43.1769 55.3788 43.2269 55.2408H43.6199C43.5459 55.4448 43.4459 55.6548 43.3199 55.8708C43.1939 56.0848 43.0639 56.2938 42.9299 56.4978H43.3919V56.1888H43.7399V56.4978H43.9529V56.8188ZM46.399 56.6688C46.399 56.7908 46.372 56.9008 46.318 56.9988C46.264 57.0948 46.187 57.1708 46.087 57.2268C45.989 57.2828 45.87 57.3108 45.73 57.3108C45.508 57.3108 45.335 57.2358 45.211 57.0858C45.087 56.9358 45.025 56.7298 45.025 56.4678V56.0448C45.025 55.7648 45.091 55.5558 45.223 55.4178C45.355 55.2798 45.541 55.2108 45.781 55.2108C45.865 55.2108 45.952 55.2208 46.042 55.2408C46.134 55.2608 46.235 55.2968 46.345 55.3488L46.216 55.6578C46.126 55.6158 46.047 55.5868 45.979 55.5708C45.911 55.5528 45.848 55.5438 45.79 55.5438C45.664 55.5438 45.562 55.5818 45.484 55.6578C45.408 55.7318 45.37 55.8608 45.37 56.0448V56.1528C45.44 56.0908 45.512 56.0448 45.586 56.0148C45.662 55.9848 45.737 55.9698 45.811 55.9698C45.931 55.9698 46.035 55.9968 46.123 56.0508C46.211 56.1048 46.279 56.1798 46.327 56.2758C46.375 56.3718 46.399 56.4828 46.399 56.6088V56.6688ZM45.37 56.4678C45.37 56.6398 45.402 56.7678 45.466 56.8518C45.53 56.9358 45.62 56.9778 45.736 56.9778C45.836 56.9778 45.913 56.9498 45.967 56.8938C46.021 56.8358 46.048 56.7608 46.048 56.6688V56.6088C46.048 56.5148 46.023 56.4388 45.973 56.3808C45.923 56.3228 45.851 56.2938 45.757 56.2938C45.615 56.2938 45.486 56.3478 45.37 56.4558V56.4678ZM48.983 56.0448V56.4738C48.983 56.7338 48.922 56.9388 48.8 57.0888C48.678 57.2368 48.499 57.3108 48.263 57.3108C48.027 57.3108 47.848 57.2368 47.726 57.0888C47.604 56.9388 47.543 56.7338 47.543 56.4738V56.0448C47.543 55.7848 47.604 55.5808 47.726 55.4328C47.848 55.2848 48.027 55.2108 48.263 55.2108C48.499 55.2108 48.678 55.2848 48.8 55.4328C48.922 55.5808 48.983 55.7848 48.983 56.0448ZM48.62 56.0448C48.62 55.7108 48.501 55.5438 48.263 55.5438C48.141 55.5438 48.051 55.5858 47.993 55.6698C47.935 55.7538 47.906 55.8788 47.906 56.0448V56.4738C47.906 56.6398 47.935 56.7658 47.993 56.8518C48.051 56.9358 48.141 56.9778 48.263 56.9778C48.501 56.9778 48.62 56.8098 48.62 56.4738V56.0448ZM50.019 55.5318L50.538 55.2408H50.838V57.2808H50.484V55.6368L50.178 55.8048L50.019 55.5318ZM53.2679 56.7258C53.2679 56.8318 53.2459 56.9298 53.2019 57.0198C53.1579 57.1078 53.0869 57.1788 52.9889 57.2328C52.8929 57.2848 52.7639 57.3108 52.6019 57.3108C52.5099 57.3108 52.4139 57.2998 52.3139 57.2778C52.2159 57.2558 52.1079 57.2188 51.9899 57.1668L52.1009 56.8578C52.2069 56.8958 52.2959 56.9258 52.3679 56.9478C52.4419 56.9678 52.5159 56.9778 52.5899 56.9778C52.6959 56.9778 52.7759 56.9568 52.8299 56.9148C52.8859 56.8708 52.9139 56.8028 52.9139 56.7108V56.6688C52.9139 56.5928 52.8899 56.5318 52.8419 56.4858C52.7959 56.4378 52.7239 56.4138 52.6259 56.4138H52.3079V56.0898H52.6259C52.7199 56.0898 52.7889 56.0678 52.8329 56.0238C52.8769 55.9778 52.8989 55.9188 52.8989 55.8468V55.8048C52.8989 55.7128 52.8729 55.6468 52.8209 55.6068C52.7709 55.5648 52.6969 55.5438 52.5989 55.5438C52.5289 55.5438 52.4579 55.5538 52.3859 55.5738C52.3159 55.5918 52.2309 55.6198 52.1309 55.6578L52.0199 55.3488C52.1319 55.2968 52.2359 55.2608 52.3319 55.2408C52.4279 55.2208 52.5209 55.2108 52.6109 55.2108C52.7649 55.2108 52.8889 55.2368 52.9829 55.2888C53.0769 55.3408 53.1449 55.4108 53.1869 55.4988C53.2309 55.5868 53.2529 55.6838 53.2529 55.7898V55.8318C53.2529 55.9258 53.2289 56.0088 53.1809 56.0808C53.1349 56.1508 53.0739 56.2068 52.9979 56.2488C53.0799 56.2928 53.1449 56.3518 53.1929 56.4258C53.2429 56.4978 53.2679 56.5838 53.2679 56.6838V56.7258ZM55.5988 57.2808H54.3628V56.9958C54.3628 56.8518 54.3818 56.7318 54.4198 56.6358C54.4578 56.5378 54.5088 56.4578 54.5728 56.3958C54.6368 56.3318 54.7068 56.2808 54.7828 56.2428L54.9868 56.1408C55.0648 56.1008 55.1278 56.0588 55.1758 56.0148C55.2258 55.9688 55.2508 55.9098 55.2508 55.8378V55.7838C55.2508 55.7098 55.2248 55.6518 55.1728 55.6098C55.1228 55.5658 55.0418 55.5438 54.9298 55.5438C54.8618 55.5438 54.7928 55.5538 54.7228 55.5738C54.6548 55.5938 54.5718 55.6218 54.4738 55.6578L54.3628 55.3488C54.4748 55.2988 54.5768 55.2638 54.6688 55.2438C54.7628 55.2218 54.8538 55.2108 54.9418 55.2108C55.1038 55.2108 55.2328 55.2368 55.3288 55.2888C55.4268 55.3408 55.4968 55.4108 55.5388 55.4988C55.5828 55.5848 55.6048 55.6798 55.6048 55.7838V55.8378C55.6048 55.9458 55.5828 56.0378 55.5388 56.1138C55.4968 56.1898 55.4408 56.2538 55.3708 56.3058C55.3008 56.3578 55.2248 56.4038 55.1428 56.4438L54.9388 56.5458C54.8648 56.5818 54.8098 56.6318 54.7738 56.6958C54.7398 56.7598 54.7208 56.8418 54.7168 56.9418H55.5988V57.2808Z" fill="black"/>
<rect x="30.0002" y="50.2808" width="26" height="3" fill="#D9D9D9"/>
</svg>
