<svg width="64" height="64" viewBox="0 0 64 64" fill="none" xmlns="http://www.w3.org/2000/svg">
<path d="M17.028 58.5352V51.7759L6.01021 44.8194C5.31715 42.5468 4.34688 38.0017 6.01021 38.0017C7.67354 38.0017 9.37886 36.8412 10.0236 36.261C9.83018 34.8684 12.5215 31.4257 13.8914 29.8784C10.1005 23.2638 14.8233 25.258 17.6585 27.082C27.1283 21.9908 30.5392 25.7316 40.5499 24.829C57.4931 31.8226 52.4762 44.1455 47.8499 49.4327V58.5352H43.0733L41.6314 53.308C38.1706 55.1826 28.3531 54.8101 23.877 54.3895L21.9844 58.5352H17.028Z" fill="white"/>
<path d="M21.9209 29.8868C25.4825 28.1635 32.9504 26.7848 40.3608 29.8868" stroke="#25316D" stroke-width="2" stroke-linecap="round"/>
<path d="M23.9145 24.0774C21.1982 24.8814 18.9248 26.0137 17.3335 27.0855C17.2935 27.1125 17.2393 27.1133 17.1968 27.0906C10.2182 23.3516 12.1602 27.1377 14.0808 29.6046C14.1272 29.6642 14.1135 29.7496 14.0521 29.7937C12.0481 31.2327 10.5479 35.0077 10.0357 36.763C10.0323 36.7747 10.0311 36.7863 10.0299 36.7985C9.97751 37.3308 7.66064 37.579 6.45475 37.6396C6.42633 37.641 6.39973 37.6517 6.3783 37.6705C4.63487 39.1935 5.08833 42.6117 5.54258 44.1652C5.54761 44.1823 5.55533 44.1968 5.56697 44.2104C7.46982 46.4351 13.9583 50.0549 16.8566 51.5657C16.8994 51.588 16.9242 51.6312 16.9242 51.6794V58.5374C16.9242 58.6088 16.9821 58.6667 17.0534 58.6667H21.6669C21.7173 58.6667 21.7631 58.6374 21.7842 58.5916L23.775 54.2782C23.8 54.2241 23.8598 54.1943 23.9183 54.2056C32.7728 55.927 39.2828 54.2012 41.5952 53.0538C41.6706 53.0164 41.7598 53.0589 41.7796 53.1408L43.0953 58.5679C43.1093 58.6258 43.1612 58.6667 43.2209 58.6667H47.643C47.7144 58.6667 47.7723 58.6088 47.7723 58.5374V49.2411C47.7723 49.2072 47.7863 49.174 47.8099 49.1497C55.2063 41.5769 52.0004 33.1566 49.151 30.576C45.719 27.222 42.2535 25.1863 38.7353 24.0774" stroke="#25316D" stroke-width="2" stroke-linecap="round"/>
<path d="M51.4883 33.6783C53.8705 31.1853 56.5946 24.8775 52.3337 22.082C52.0326 21.8844 51.6404 21.8933 51.3555 22.1136C49.3349 23.6755 47.3121 27.5767 54.0293 30.3856C54.0568 30.3971 54.0874 30.3997 54.1159 30.3912C55.3058 30.0375 58.7101 29.1448 59.6635 27.6465" stroke="#25316D" stroke-width="2" stroke-linecap="round"/>
<circle cx="15.8131" cy="36.263" r="2.4127" fill="#25316D"/>
<path fill-rule="evenodd" clip-rule="evenodd" d="M31.3245 28.6803C37.0352 28.6803 41.6646 24.0508 41.6646 18.3401C41.6646 12.6294 37.0352 8 31.3245 8C25.6138 8 20.9844 12.6294 20.9844 18.3401C20.9844 24.0508 25.6138 28.6803 31.3245 28.6803ZM30.1597 16.5532C30.1597 17.0446 30.5618 17.4466 31.0532 17.4466H31.9466C33.4208 17.4466 34.627 18.6528 34.627 20.127C34.627 21.4672 33.6442 22.5393 32.3933 22.7627V23.7008C32.3933 24.1922 31.9913 24.5942 31.4999 24.5942C31.0085 24.5942 30.6064 24.1922 30.6064 23.7008V22.7627C29.3556 22.5393 28.3728 21.4672 28.3728 20.127C28.3728 19.6356 28.7749 19.2335 29.2663 19.2335C29.7577 19.2335 30.1597 19.6356 30.1597 20.127C30.1597 20.6184 30.5618 21.0204 31.0532 21.0204H31.9466C32.438 21.0204 32.8401 20.6184 32.8401 20.127C32.8401 19.6356 32.438 19.2335 31.9466 19.2335H31.0532C29.579 19.2335 28.3728 18.0274 28.3728 16.5532C28.3728 15.213 29.3556 14.1409 30.6064 13.9175V12.9794C30.6064 12.488 31.0085 12.0859 31.4999 12.0859C31.9913 12.0859 32.3933 12.488 32.3933 12.9794V13.9175C33.6442 14.1409 34.627 15.213 34.627 16.5532C34.627 17.0446 34.2249 17.4466 33.7335 17.4466C33.2421 17.4466 32.8401 17.0446 32.8401 16.5532C32.8401 16.0618 32.438 15.6597 31.9466 15.6597H31.0532C30.5618 15.6597 30.1597 16.0618 30.1597 16.5532Z" fill="#CB2027"/>
<path d="M40 18.5C40 23.1944 36.1944 27 31.5 27C26.8056 27 23 23.1944 23 18.5C23 13.8056 26.8056 10 31.5 10C36.1944 10 40 13.8056 40 18.5Z" stroke="#25316D" stroke-width="2" stroke-linecap="round" stroke-linejoin="round"/>
</svg>
