<svg width="64" height="64" viewBox="0 0 64 64" fill="none" xmlns="http://www.w3.org/2000/svg">
<path fill-rule="evenodd" clip-rule="evenodd" d="M42.5 50L43.5 59C43.5809 59.7284 46 59.5 47.5 59C47.6548 58.9484 47.8043 58.8968 47.949 58.8469C49.2064 58.4128 50.1032 58.1032 51 59C51.8 59.8 54.3333 58.3333 55.5 57.5L54.5 45L57 28L49 18H41.5L40.5 14.5L37.5 13L6.5 20.5L4.5 23L8 40.5L11.5 42L30 37.5L31.5 35.5L42.5 50ZM40.5 35L46.5 33L44.5 38.5L41 37L40.5 35ZM45.5 24L42.5 23.5L45 31L46.5 32L48.5 28L45.5 24Z" fill="white"/>
<path d="M4.35721 23.053C4.10815 21.9769 4.77862 20.9026 5.85475 20.6535L38.2793 13.1492C39.3554 12.9001 40.4297 13.5706 40.6788 14.6467L41.5375 18.357L5.21592 26.7633L4.35721 23.053Z" fill="white" stroke="#25316D" stroke-width="2"/>
<path d="M32.1773 36.8847L10.7572 41.8422C9.68109 42.0913 8.60682 41.4208 8.35776 40.3447L5.27051 27.0054L41.5921 18.5991L44.6793 31.9384C44.9284 33.0145 44.2579 34.0888 43.1818 34.3379L39.5715 35.1734" stroke="#25316D" stroke-width="2"/>
<path d="M12.9692 34.637L13.0659 35.055C13.1245 35.3083 13.1113 35.5218 13.0263 35.6954C12.9408 35.8671 12.7831 35.9796 12.5532 36.0328C12.3232 36.086 12.1322 36.0542 11.9799 35.9376C11.8272 35.8189 11.7216 35.633 11.663 35.3797L11.5662 34.9617C11.5076 34.7084 11.521 34.4959 11.6065 34.3242C11.692 34.1525 11.8497 34.0401 12.0796 33.9868C12.3096 33.9336 12.5006 33.9654 12.6529 34.082C12.8051 34.1987 12.9105 34.3837 12.9692 34.637ZM12.6155 34.7189C12.5402 34.3935 12.3866 34.2576 12.1547 34.3113C12.0359 34.3388 11.9577 34.4 11.9201 34.4949C11.8825 34.5898 11.8825 34.7181 11.9199 34.8799L12.0166 35.2978C12.0541 35.4595 12.1107 35.5758 12.1866 35.6465C12.2621 35.7152 12.3592 35.7358 12.4781 35.7083C12.7099 35.6547 12.788 35.4642 12.7122 35.1368L12.6155 34.7189ZM15.5491 35.3086L14.3449 35.5873L14.2806 35.3096C14.2482 35.1693 14.2396 35.0481 14.255 34.946C14.2699 34.842 14.3016 34.7526 14.3499 34.6777C14.3979 34.6009 14.4546 34.5355 14.52 34.4813L14.6958 34.3359C14.7628 34.2794 14.8147 34.2243 14.8515 34.1706C14.8899 34.1145 14.9009 34.0514 14.8847 33.9812L14.8725 33.9286C14.8558 33.8565 14.8174 33.8059 14.7573 33.7767C14.6986 33.7451 14.6148 33.7419 14.5056 33.7672C14.4394 33.7825 14.3744 33.8078 14.3107 33.8431C14.249 33.8779 14.1745 33.9239 14.0871 33.9811L13.9093 33.705C14.0071 33.6311 14.0986 33.574 14.1837 33.5337C14.2703 33.4911 14.3565 33.4599 14.4423 33.44C14.6001 33.4035 14.7316 33.3998 14.8369 33.4288C14.9441 33.4573 15.0281 33.5098 15.0888 33.586C15.1511 33.6599 15.1939 33.7475 15.2174 33.8488L15.2296 33.9014C15.2539 34.0066 15.2532 34.1012 15.2275 34.1852C15.2037 34.2687 15.1636 34.3437 15.1071 34.4101C15.0506 34.4766 14.987 34.5385 14.9161 34.596L14.7403 34.7413C14.6764 34.7931 14.6341 34.8542 14.6134 34.9247C14.5947 34.9947 14.5947 35.0789 14.6134 35.1772L15.4726 34.9783L15.5491 35.3086ZM17.807 33.5174L17.9037 33.9353C17.9623 34.1886 17.9491 34.4021 17.8641 34.5757C17.7786 34.7474 17.6209 34.8599 17.391 34.9131C17.1611 34.9663 16.97 34.9346 16.8178 34.8179C16.6651 34.6993 16.5594 34.5133 16.5008 34.26L16.4041 33.842C16.3454 33.5887 16.3589 33.3762 16.4444 33.2045C16.5298 33.0328 16.6876 32.9204 16.9175 32.8672C17.1474 32.814 17.3385 32.8457 17.4907 32.9624C17.6429 33.0791 17.7484 33.264 17.807 33.5174ZM17.4533 33.5992C17.378 33.2738 17.2244 33.1379 16.9926 33.1916C16.8737 33.2191 16.7955 33.2803 16.7579 33.3752C16.7204 33.4702 16.7203 33.5985 16.7577 33.7602L16.8544 34.1781C16.8919 34.3399 16.9485 34.4561 17.0244 34.5268C17.0999 34.5956 17.197 34.6162 17.3159 34.5887C17.5478 34.535 17.6258 34.3445 17.5501 34.0172L17.4533 33.5992ZM20.2442 33.6523C20.2681 33.7555 20.2688 33.856 20.2462 33.9536C20.2232 34.0492 20.17 34.1344 20.0867 34.2091C20.0049 34.2814 19.8851 34.3359 19.7273 34.3724C19.6377 34.3931 19.5416 34.4041 19.4393 34.4052C19.3388 34.4058 19.2253 34.3941 19.0986 34.3701L19.137 34.044C19.2489 34.0571 19.3424 34.0663 19.4175 34.0715C19.4941 34.0743 19.5684 34.0673 19.6405 34.0507C19.7438 34.0268 19.817 33.9883 19.8601 33.9352C19.9048 33.8797 19.9167 33.8071 19.896 33.7175L19.8865 33.6766C19.8694 33.6025 19.8322 33.5485 19.7751 33.5145C19.7194 33.4781 19.6439 33.471 19.5484 33.4931L19.2386 33.5648L19.1655 33.2491L19.4754 33.1774C19.5669 33.1562 19.6292 33.1192 19.6621 33.0664C19.6946 33.0117 19.7028 32.9493 19.6865 32.8791L19.6771 32.8382C19.6563 32.7486 19.6161 32.6901 19.5564 32.6629C19.4982 32.6332 19.4214 32.6295 19.3259 32.6516C19.2577 32.6673 19.1908 32.6931 19.1252 32.7288C19.061 32.7621 18.9845 32.8086 18.8957 32.8682L18.7179 32.5921C18.8153 32.5162 18.9085 32.4577 18.9975 32.4166C19.0865 32.3754 19.1749 32.3447 19.2625 32.3244C19.4126 32.2897 19.5392 32.2871 19.6425 32.3165C19.7459 32.346 19.8279 32.3989 19.8886 32.4751C19.9514 32.551 19.9947 32.6405 20.0186 32.7438L20.028 32.7847C20.0492 32.8763 20.0446 32.9625 20.014 33.0435C19.985 33.1221 19.9382 33.1904 19.8736 33.2484C19.9634 33.2728 20.0401 33.3156 20.1035 33.3769C20.1685 33.4358 20.2122 33.5139 20.2348 33.6114L20.2442 33.6523ZM22.611 32.8489C22.6741 33.1217 22.6569 33.3402 22.5594 33.5044C22.462 33.6686 22.2963 33.7778 22.0625 33.8319C21.9806 33.8509 21.8936 33.8607 21.8014 33.8615C21.7092 33.8624 21.6027 33.8501 21.4819 33.8246L21.5379 33.4945C21.635 33.5151 21.7188 33.5266 21.7891 33.5288C21.8609 33.5286 21.9241 33.5222 21.9786 33.5095C22.1014 33.4811 22.1912 33.4213 22.2481 33.3301C22.307 33.2385 22.3159 33.104 22.2749 32.9267L22.2505 32.8215C22.1982 32.8972 22.1385 32.9583 22.0712 33.0047C22.0058 33.0506 21.9362 33.0821 21.8621 33.0992C21.7472 33.1258 21.6397 33.123 21.5399 33.0907C21.442 33.0579 21.3588 33.0002 21.2904 32.9175C21.222 32.8348 21.1736 32.732 21.1452 32.6093L21.1316 32.5508C21.1064 32.4417 21.109 32.3333 21.1395 32.2257C21.17 32.118 21.2273 32.0237 21.3111 31.9427C21.395 31.8617 21.5042 31.8056 21.6387 31.7745C21.8549 31.7244 22.0404 31.7585 22.195 31.8767C22.3497 31.9949 22.4565 32.1816 22.5156 32.4368L22.611 32.8489ZM21.4871 32.5301C21.5079 32.6198 21.5494 32.6882 21.6116 32.7353C21.6754 32.7801 21.752 32.7921 21.8417 32.7714C21.98 32.7394 22.0935 32.6577 22.1822 32.5263L22.1795 32.5146C22.1407 32.347 22.0807 32.2296 21.9994 32.1622C21.92 32.0943 21.8229 32.0737 21.7079 32.1003C21.6124 32.1224 21.5446 32.1709 21.5045 32.2459C21.4663 32.3204 21.456 32.3957 21.4736 32.4717L21.4871 32.5301ZM25.1442 32.6137L24.9367 32.6617L25.0408 33.1118L24.7018 33.1903L24.5976 32.7402L23.7442 32.9377L23.6786 32.6542C23.7347 32.4975 23.7894 32.3391 23.8426 32.179C23.8974 32.0164 23.9465 31.8562 23.9901 31.6983C24.0331 31.5385 24.0635 31.3857 24.0811 31.24L24.4639 31.1514C24.4378 31.3668 24.3878 31.594 24.3137 31.8328C24.2392 32.0697 24.1597 32.3027 24.0751 32.5316L24.5252 32.4275L24.4556 32.1264L24.7946 32.0479L24.8643 32.349L25.0718 32.301L25.1442 32.6137ZM27.4934 31.916C27.5209 32.0349 27.5194 32.1481 27.4889 32.2558C27.4579 32.3615 27.4 32.4529 27.3152 32.53C27.2324 32.6067 27.1228 32.6608 26.9864 32.6923C26.7701 32.7424 26.5846 32.7083 26.43 32.5902C26.2754 32.472 26.1685 32.2853 26.1094 32.03L26.0141 31.6179C25.9509 31.3451 25.9681 31.1266 26.0656 30.9624C26.1631 30.7982 26.3287 30.689 26.5625 30.6349C26.6444 30.616 26.7314 30.6061 26.8236 30.6053C26.9177 30.604 27.0242 30.6163 27.1431 30.6422L27.0871 30.9723C26.99 30.9517 26.9065 30.9413 26.8366 30.941C26.7663 30.9388 26.7029 30.9442 26.6464 30.9573C26.5236 30.9857 26.4328 31.0457 26.374 31.1374C26.3166 31.2266 26.3087 31.3608 26.3502 31.5401L26.3745 31.6453C26.4288 31.5691 26.4885 31.5081 26.5539 31.4622C26.6211 31.4158 26.6908 31.3843 26.7629 31.3676C26.8798 31.3405 26.9872 31.3434 27.0851 31.3762C27.1831 31.4089 27.2662 31.4667 27.3346 31.5494C27.403 31.6321 27.4514 31.7348 27.4799 31.8576L27.4934 31.916ZM26.4456 31.9522C26.4843 32.1198 26.5444 32.2373 26.6257 32.3047C26.707 32.3721 26.8041 32.3927 26.9171 32.3666C27.0146 32.344 27.0833 32.2994 27.1232 32.2326C27.1628 32.164 27.1722 32.0848 27.1514 31.9952L27.1379 31.9367C27.1167 31.8451 27.0752 31.7767 27.0134 31.7315C26.9516 31.6863 26.8749 31.6742 26.7834 31.6954C26.645 31.7275 26.5315 31.8092 26.4429 31.9405L26.4456 31.9522ZM29.8701 30.7254L29.9669 31.1434C30.0255 31.3967 30.0123 31.6102 29.9273 31.7838C29.8418 31.9555 29.6841 32.068 29.4541 32.1212C29.2242 32.1744 29.0331 32.1427 28.8809 32.026C28.7282 31.9074 28.6226 31.7214 28.564 31.4681L28.4672 31.0501C28.4086 30.7968 28.422 30.5843 28.5075 30.4126C28.593 30.2409 28.7507 30.1285 28.9806 30.0753C29.2106 30.0221 29.4016 30.0538 29.5539 30.1705C29.7061 30.2872 29.8115 30.4721 29.8701 30.7254ZM29.5165 30.8073C29.4412 30.4819 29.2876 30.346 29.0557 30.3997C28.9369 30.4272 28.8587 30.4884 28.8211 30.5833C28.7835 30.6782 28.7835 30.8066 28.8209 30.9683L28.9176 31.3862C28.955 31.548 29.0117 31.6642 29.0876 31.7349C29.1631 31.8037 29.2602 31.8243 29.3791 31.7968C29.6109 31.7431 29.689 31.5526 29.6132 31.2252L29.5165 30.8073ZM30.7639 29.992L31.2039 29.5915L31.4961 29.5239L31.9561 31.5113L31.6112 31.5912L31.2406 29.9895L30.9803 30.2222L30.7639 29.992ZM34.1983 30.4227C34.2222 30.526 34.2228 30.6265 34.2003 30.7241C34.1772 30.8197 34.1241 30.9049 34.0408 30.9796C33.959 31.0519 33.8392 31.1063 33.6813 31.1429C33.5917 31.1636 33.4957 31.1745 33.3933 31.1756C33.2929 31.1763 33.1793 31.1646 33.0526 31.1406L33.0911 30.8145C33.2029 30.8276 33.2964 30.8368 33.3715 30.842C33.4481 30.8448 33.5225 30.8378 33.5946 30.8211C33.6978 30.7972 33.771 30.7587 33.8142 30.7056C33.8588 30.6501 33.8707 30.5776 33.85 30.488L33.8405 30.447C33.8234 30.373 33.7863 30.319 33.7291 30.285C33.6735 30.2486 33.5979 30.2414 33.5025 30.2635L33.1926 30.3352L33.1196 30.0196L33.4294 29.9479C33.521 29.9267 33.5832 29.8897 33.6162 29.8369C33.6487 29.7822 33.6568 29.7197 33.6406 29.6496L33.6311 29.6087C33.6104 29.519 33.5701 29.4606 33.5105 29.4334C33.4523 29.4037 33.3755 29.3999 33.28 29.422C33.2118 29.4378 33.1449 29.4636 33.0792 29.4993C33.0151 29.5326 32.9386 29.5791 32.8497 29.6386L32.6719 29.3626C32.7693 29.2867 32.8625 29.2282 32.9515 29.187C33.0406 29.1459 33.1289 29.1152 33.2166 29.0949C33.3666 29.0602 33.4933 29.0575 33.5966 29.087C33.6999 29.1165 33.7819 29.1693 33.8427 29.2456C33.9054 29.3214 33.9487 29.411 33.9726 29.5142L33.9821 29.5552C34.0033 29.6467 33.9986 29.733 33.9681 29.814C33.939 29.8925 33.8922 29.9609 33.8277 30.0189C33.9175 30.0433 33.9941 30.0861 34.0576 30.1474C34.1225 30.2063 34.1663 30.2844 34.1888 30.3818L34.1983 30.4227ZM36.5943 30.4379L35.3901 30.7166L35.3259 30.4389C35.2934 30.2986 35.2849 30.1774 35.3002 30.0753C35.3152 29.9713 35.3468 29.8818 35.3952 29.807C35.4431 29.7302 35.4998 29.6648 35.5653 29.6106L35.741 29.4652C35.808 29.4087 35.8599 29.3535 35.8967 29.2999C35.9351 29.2438 35.9461 29.1806 35.9299 29.1105L35.9177 29.0579C35.901 28.9858 35.8626 28.9352 35.8025 28.906C35.7439 28.8744 35.66 28.8712 35.5509 28.8965C35.4846 28.9118 35.4197 28.9371 35.356 28.9724C35.2942 29.0072 35.2197 29.0532 35.1323 29.1103L34.9545 28.8343C35.0524 28.7604 35.1438 28.7033 35.229 28.663C35.3156 28.6204 35.4018 28.5892 35.4875 28.5693C35.6453 28.5328 35.7769 28.529 35.8821 28.5581C35.9893 28.5866 36.0733 28.639 36.1341 28.7153C36.1963 28.7892 36.2392 28.8768 36.2626 28.9781L36.2748 29.0307C36.2991 29.1359 36.2985 29.2305 36.2727 29.3145C36.2489 29.398 36.2088 29.4729 36.1523 29.5394C36.0959 29.6058 36.0322 29.6678 35.9613 29.7252L35.7856 29.8706C35.7216 29.9224 35.6793 29.9835 35.6587 30.054C35.64 30.124 35.6399 30.2082 35.6586 30.3065L36.5179 30.1076L36.5943 30.4379Z" fill="black"/>
<rect x="10.0449" y="29.2515" width="26.9256" height="3.1068" transform="rotate(-13.0311 10.0449 29.2515)" fill="#CB2027"/>
<path d="M42.2985 59.0958C42.3513 59.6455 42.8398 60.0483 43.3896 59.9955C43.9393 59.9426 44.3421 59.4541 44.2893 58.9044L42.2985 59.0958ZM42.4376 50.0931L43.433 49.9975L43.406 49.716L43.2355 49.4903L42.4376 50.0931ZM33.1852 32.1743L33.7694 32.9859L33.8356 32.9383L33.8931 32.8806L33.1852 32.1743ZM44.3574 39.5L43.576 40.124L44.746 41.589L45.3109 39.8013L44.3574 39.5ZM45.5995 23.5129L46.4394 22.9702L46.1439 22.5129L45.5995 22.5129L45.5995 23.5129ZM48.8425 18.0842L49.6171 17.4518L49.317 17.0842L48.8424 17.0842L48.8425 18.0842ZM54.6417 45.0476L53.6503 44.9164L53.6368 45.0187L53.6445 45.1217L54.6417 45.0476ZM54.5932 57.8921C54.6341 58.4428 55.1138 58.8561 55.6646 58.8152C56.2153 58.7743 56.6287 58.2946 56.5877 57.7439L54.5932 57.8921ZM56.0829 26.9532L56.8575 26.3209L56.0829 26.9532ZM47.8053 26.9272L46.9653 27.4698L47.8053 26.9272ZM31.6431 35.8056L30.8452 36.4085L31.6431 35.8056ZM32.0704 32.9768L31.4862 32.1652L32.0704 32.9768ZM44.2893 58.9044L43.433 49.9975L41.4422 50.1888L42.2985 59.0958L44.2893 58.9044ZM43.2355 49.4903L32.441 35.2028L30.8452 36.4085L41.6398 50.696L43.2355 49.4903ZM32.6546 33.7884L33.7694 32.9859L32.601 31.3627L31.4862 32.1652L32.6546 33.7884ZM33.8931 32.8806C33.9357 32.8379 34.1486 32.6851 34.5464 32.7201C34.9343 32.7541 35.5974 32.9797 36.4709 33.8722L37.9003 32.4733C36.7944 31.3433 35.7118 30.8147 34.7214 30.7277C33.7411 30.6416 32.9435 31.0008 32.4773 31.468L33.8931 32.8806ZM36.4709 33.8722C37.5087 34.9326 39.0645 36.1924 40.4441 37.3225C41.8867 38.5043 43.0778 39.5002 43.576 40.124L45.1388 38.876C44.4745 38.0442 43.0693 36.8877 41.7115 35.7754C40.2905 34.6113 38.8417 33.4353 37.9003 32.4733L36.4709 33.8722ZM48.6452 26.3845L46.4394 22.9702L44.7595 24.0555L46.9653 27.4698L48.6452 26.3845ZM45.5995 22.5129L42.1829 22.5129L42.1829 24.5129L45.5995 24.5129L45.5995 22.5129ZM45.3109 39.8013L47.1922 33.8484L45.2852 33.2457L43.4039 39.1987L45.3109 39.8013ZM47.1423 33.9755L48.8997 30.2688L47.0926 29.412L45.3351 33.1186L47.1423 33.9755ZM43.509 31.0612L45.3903 34.0764L47.0871 33.0177L45.2058 30.0025L43.509 31.0612ZM40.8778 19.0845L48.8425 19.0842L48.8424 17.0842L40.8777 17.0845L40.8778 19.0845ZM48.0678 18.7166L55.3082 27.5856L56.8575 26.3209L49.6171 17.4518L48.0678 18.7166ZM55.7417 29.1128L53.6503 44.9164L55.6331 45.1788L57.7244 29.3752L55.7417 29.1128ZM53.6445 45.1217L54.5932 57.8921L56.5877 57.7439L55.639 44.9735L53.6445 45.1217ZM55.3082 27.5856C55.6572 28.0131 55.814 28.5658 55.7417 29.1128L57.7244 29.3752C57.8692 28.2811 57.5555 27.1758 56.8575 26.3209L55.3082 27.5856ZM46.9653 27.4698C47.3411 28.0515 47.3893 28.7862 47.0926 29.412L48.8997 30.2688C49.4931 29.0173 49.3968 27.5479 48.6452 26.3845L46.9653 27.4698ZM32.441 35.2028C32.1026 34.7549 32.199 34.1163 32.6546 33.7884L31.4862 32.1652C30.1195 33.149 29.83 35.0648 30.8452 36.4085L32.441 35.2028Z" fill="#25316D"/>
<path d="M3.03711 15.3086V15.3086C9.28277 15.3086 14.3459 10.2455 14.3459 3.99983V3.99983M3.03711 8.78431H3.47206C6.11445 8.78431 8.25654 6.64222 8.25654 3.99983V3.99983" stroke="#CB2027" stroke-width="2"/>
</svg>
