<svg width="64" height="64" viewBox="0 0 64 64" fill="none" xmlns="http://www.w3.org/2000/svg">
<path d="M52.5841 38.1172L61.584 28.1172L54.9142 28.1172L52.5841 25.1172L50.254 28.1172L43.584 28.1172L52.5841 38.1172Z" fill="#CB2027"/>
<path d="M44.334 11.9507L55.334 11.9507L55.334 27.8672L61.834 27.8672L52.584 38.6172L43.334 27.9794L49.834 27.9794L49.834 18.9507L44.334 18.9507" stroke="#25316D" stroke-width="2" stroke-linecap="round" stroke-linejoin="round"/>
<path d="M12.5839 30.4507L3.58398 40.4507L10.2538 40.4507L12.5839 43.4507L14.914 40.4507L21.584 40.4507L12.5839 30.4507Z" fill="#CB2027"/>
<path d="M20.834 56.6172L9.83399 56.6172L9.83399 40.7007L3.33398 40.7007L12.584 29.9507L21.834 40.5884L15.334 40.5884L15.334 49.6172L20.834 49.6172" stroke="#25316D" stroke-width="2" stroke-linecap="round" stroke-linejoin="round"/>
<path d="M3.33398 4.95068C3.33398 4.3984 3.7817 3.95068 4.33398 3.95068H36.334C36.8863 3.95068 37.334 4.3984 37.334 4.95068V8.95068H3.33398V4.95068Z" fill="white" stroke="#25316D" stroke-width="2"/>
<path d="M3.33398 8.95068H37.334V21.9507C37.334 22.503 36.8863 22.9507 36.334 22.9507H4.33399C3.7817 22.9507 3.33398 22.503 3.33398 21.9507V8.95068Z" fill="white" stroke="#25316D" stroke-width="2"/>
<path d="M7.96898 17.7147V18.1437C7.96898 18.4037 7.90798 18.6087 7.78598 18.7587C7.66398 18.9067 7.48498 18.9807 7.24898 18.9807C7.01298 18.9807 6.83398 18.9067 6.71198 18.7587C6.58998 18.6087 6.52898 18.4037 6.52898 18.1437V17.7147C6.52898 17.4547 6.58998 17.2507 6.71198 17.1027C6.83398 16.9547 7.01298 16.8807 7.24898 16.8807C7.48498 16.8807 7.66398 16.9547 7.78598 17.1027C7.90798 17.2507 7.96898 17.4547 7.96898 17.7147ZM7.60598 17.7147C7.60598 17.3807 7.48698 17.2137 7.24898 17.2137C7.12698 17.2137 7.03698 17.2557 6.97898 17.3397C6.92098 17.4237 6.89198 17.5487 6.89198 17.7147V18.1437C6.89198 18.3097 6.92098 18.4357 6.97898 18.5217C7.03698 18.6057 7.12698 18.6477 7.24898 18.6477C7.48698 18.6477 7.60598 18.4797 7.60598 18.1437V17.7147ZM10.331 18.9507H9.09504V18.6657C9.09504 18.5217 9.11404 18.4017 9.15204 18.3057C9.19004 18.2077 9.24104 18.1277 9.30504 18.0657C9.36904 18.0017 9.43904 17.9507 9.51504 17.9127L9.71904 17.8107C9.79704 17.7707 9.86004 17.7287 9.90804 17.6847C9.95804 17.6387 9.98304 17.5797 9.98304 17.5077V17.4537C9.98304 17.3797 9.95704 17.3217 9.90504 17.2797C9.85504 17.2357 9.77404 17.2137 9.66204 17.2137C9.59404 17.2137 9.52504 17.2237 9.45504 17.2437C9.38704 17.2637 9.30404 17.2917 9.20604 17.3277L9.09504 17.0187C9.20704 16.9687 9.30904 16.9337 9.40104 16.9137C9.49504 16.8917 9.58604 16.8807 9.67404 16.8807C9.83604 16.8807 9.96504 16.9067 10.061 16.9587C10.159 17.0107 10.229 17.0807 10.271 17.1687C10.315 17.2547 10.337 17.3497 10.337 17.4537V17.5077C10.337 17.6157 10.315 17.7077 10.271 17.7837C10.229 17.8597 10.173 17.9237 10.103 17.9757C10.033 18.0277 9.95704 18.0737 9.87504 18.1137L9.67104 18.2157C9.59704 18.2517 9.54204 18.3017 9.50604 18.3657C9.47204 18.4297 9.45304 18.5117 9.44904 18.6117H10.331V18.9507ZM12.9347 17.7147V18.1437C12.9347 18.4037 12.8737 18.6087 12.7517 18.7587C12.6297 18.9067 12.4507 18.9807 12.2147 18.9807C11.9787 18.9807 11.7997 18.9067 11.6777 18.7587C11.5557 18.6087 11.4947 18.4037 11.4947 18.1437V17.7147C11.4947 17.4547 11.5557 17.2507 11.6777 17.1027C11.7997 16.9547 11.9787 16.8807 12.2147 16.8807C12.4507 16.8807 12.6297 16.9547 12.7517 17.1027C12.8737 17.2507 12.9347 17.4547 12.9347 17.7147ZM12.5717 17.7147C12.5717 17.3807 12.4527 17.2137 12.2147 17.2137C12.0927 17.2137 12.0027 17.2557 11.9447 17.3397C11.8867 17.4237 11.8577 17.5487 11.8577 17.7147V18.1437C11.8577 18.3097 11.8867 18.4357 11.9447 18.5217C12.0027 18.6057 12.0927 18.6477 12.2147 18.6477C12.4527 18.6477 12.5717 18.4797 12.5717 18.1437V17.7147ZM15.2787 18.3957C15.2787 18.5017 15.2567 18.5997 15.2127 18.6897C15.1687 18.7777 15.0977 18.8487 14.9997 18.9027C14.9037 18.9547 14.7747 18.9807 14.6127 18.9807C14.5207 18.9807 14.4247 18.9697 14.3247 18.9477C14.2267 18.9257 14.1187 18.8887 14.0007 18.8367L14.1117 18.5277C14.2177 18.5657 14.3067 18.5957 14.3787 18.6177C14.4527 18.6377 14.5267 18.6477 14.6007 18.6477C14.7067 18.6477 14.7867 18.6267 14.8407 18.5847C14.8967 18.5407 14.9247 18.4727 14.9247 18.3807V18.3387C14.9247 18.2627 14.9007 18.2017 14.8527 18.1557C14.8067 18.1077 14.7347 18.0837 14.6367 18.0837H14.3187V17.7597H14.6367C14.7307 17.7597 14.7997 17.7377 14.8437 17.6937C14.8877 17.6477 14.9097 17.5887 14.9097 17.5167V17.4747C14.9097 17.3827 14.8837 17.3167 14.8317 17.2767C14.7817 17.2347 14.7077 17.2137 14.6097 17.2137C14.5397 17.2137 14.4687 17.2237 14.3967 17.2437C14.3267 17.2617 14.2417 17.2897 14.1417 17.3277L14.0307 17.0187C14.1427 16.9667 14.2467 16.9307 14.3427 16.9107C14.4387 16.8907 14.5317 16.8807 14.6217 16.8807C14.7757 16.8807 14.8997 16.9067 14.9937 16.9587C15.0877 17.0107 15.1557 17.0807 15.1977 17.1687C15.2417 17.2567 15.2637 17.3537 15.2637 17.4597V17.5017C15.2637 17.5957 15.2397 17.6787 15.1917 17.7507C15.1457 17.8207 15.0847 17.8767 15.0087 17.9187C15.0907 17.9627 15.1557 18.0217 15.2037 18.0957C15.2537 18.1677 15.2787 18.2537 15.2787 18.3537V18.3957ZM17.7657 18.1467C17.7657 18.4267 17.6997 18.6357 17.5677 18.7737C17.4357 18.9117 17.2497 18.9807 17.0097 18.9807C16.9257 18.9807 16.8387 18.9707 16.7487 18.9507C16.6587 18.9307 16.5577 18.8947 16.4457 18.8427L16.5747 18.5337C16.6647 18.5757 16.7437 18.6057 16.8117 18.6237C16.8817 18.6397 16.9447 18.6477 17.0007 18.6477C17.1267 18.6477 17.2277 18.6097 17.3037 18.5337C17.3817 18.4577 17.4207 18.3287 17.4207 18.1467V18.0387C17.3527 18.1007 17.2807 18.1467 17.2047 18.1767C17.1307 18.2067 17.0557 18.2217 16.9797 18.2217C16.8617 18.2217 16.7577 18.1947 16.6677 18.1407C16.5797 18.0867 16.5117 18.0117 16.4637 17.9157C16.4157 17.8197 16.3917 17.7087 16.3917 17.5827V17.5227C16.3917 17.4107 16.4187 17.3057 16.4727 17.2077C16.5267 17.1097 16.6037 17.0307 16.7037 16.9707C16.8037 16.9107 16.9227 16.8807 17.0607 16.8807C17.2827 16.8807 17.4557 16.9557 17.5797 17.1057C17.7037 17.2557 17.7657 17.4617 17.7657 17.7237V18.1467ZM16.7427 17.5827C16.7427 17.6747 16.7677 17.7507 16.8177 17.8107C16.8697 17.8687 16.9417 17.8977 17.0337 17.8977C17.1757 17.8977 17.3047 17.8437 17.4207 17.7357V17.7237C17.4207 17.5517 17.3887 17.4237 17.3247 17.3397C17.2627 17.2557 17.1727 17.2137 17.0547 17.2137C16.9567 17.2137 16.8797 17.2457 16.8237 17.3097C16.7697 17.3737 16.7427 17.4447 16.7427 17.5227V17.5827ZM20.2867 18.4887H20.0737V18.9507H19.7257V18.4887H18.8497V18.1977C18.9397 18.0577 19.0287 17.9157 19.1167 17.7717C19.2067 17.6257 19.2907 17.4807 19.3687 17.3367C19.4467 17.1907 19.5107 17.0487 19.5607 16.9107H19.9537C19.8797 17.1147 19.7797 17.3247 19.6537 17.5407C19.5277 17.7547 19.3977 17.9637 19.2637 18.1677H19.7257V17.8587H20.0737V18.1677H20.2867V18.4887ZM22.7327 18.3387C22.7327 18.4607 22.7057 18.5707 22.6517 18.6687C22.5977 18.7647 22.5207 18.8407 22.4207 18.8967C22.3227 18.9527 22.2037 18.9807 22.0637 18.9807C21.8417 18.9807 21.6687 18.9057 21.5447 18.7557C21.4207 18.6057 21.3587 18.3997 21.3587 18.1377V17.7147C21.3587 17.4347 21.4247 17.2257 21.5567 17.0877C21.6887 16.9497 21.8747 16.8807 22.1147 16.8807C22.1987 16.8807 22.2857 16.8907 22.3757 16.9107C22.4677 16.9307 22.5687 16.9667 22.6787 17.0187L22.5497 17.3277C22.4597 17.2857 22.3807 17.2567 22.3127 17.2407C22.2447 17.2227 22.1817 17.2137 22.1237 17.2137C21.9977 17.2137 21.8957 17.2517 21.8177 17.3277C21.7417 17.4017 21.7037 17.5307 21.7037 17.7147V17.8227C21.7737 17.7607 21.8457 17.7147 21.9197 17.6847C21.9957 17.6547 22.0707 17.6397 22.1447 17.6397C22.2647 17.6397 22.3687 17.6667 22.4567 17.7207C22.5447 17.7747 22.6127 17.8497 22.6607 17.9457C22.7087 18.0417 22.7327 18.1527 22.7327 18.2787V18.3387ZM21.7037 18.1377C21.7037 18.3097 21.7357 18.4377 21.7997 18.5217C21.8637 18.6057 21.9537 18.6477 22.0697 18.6477C22.1697 18.6477 22.2467 18.6197 22.3007 18.5637C22.3547 18.5057 22.3817 18.4307 22.3817 18.3387V18.2787C22.3817 18.1847 22.3567 18.1087 22.3067 18.0507C22.2567 17.9927 22.1847 17.9637 22.0907 17.9637C21.9487 17.9637 21.8197 18.0177 21.7037 18.1257V18.1377ZM25.3167 17.7147V18.1437C25.3167 18.4037 25.2557 18.6087 25.1337 18.7587C25.0117 18.9067 24.8327 18.9807 24.5967 18.9807C24.3607 18.9807 24.1817 18.9067 24.0597 18.7587C23.9377 18.6087 23.8767 18.4037 23.8767 18.1437V17.7147C23.8767 17.4547 23.9377 17.2507 24.0597 17.1027C24.1817 16.9547 24.3607 16.8807 24.5967 16.8807C24.8327 16.8807 25.0117 16.9547 25.1337 17.1027C25.2557 17.2507 25.3167 17.4547 25.3167 17.7147ZM24.9537 17.7147C24.9537 17.3807 24.8347 17.2137 24.5967 17.2137C24.4747 17.2137 24.3847 17.2557 24.3267 17.3397C24.2687 17.4237 24.2397 17.5487 24.2397 17.7147V18.1437C24.2397 18.3097 24.2687 18.4357 24.3267 18.5217C24.3847 18.6057 24.4747 18.6477 24.5967 18.6477C24.8347 18.6477 24.9537 18.4797 24.9537 18.1437V17.7147ZM26.3528 17.2017L26.8718 16.9107H27.1718V18.9507H26.8178V17.3067L26.5118 17.4747L26.3528 17.2017ZM29.6016 18.3957C29.6016 18.5017 29.5796 18.5997 29.5356 18.6897C29.4916 18.7777 29.4206 18.8487 29.3226 18.9027C29.2266 18.9547 29.0976 18.9807 28.9356 18.9807C28.8436 18.9807 28.7476 18.9697 28.6476 18.9477C28.5496 18.9257 28.4416 18.8887 28.3236 18.8367L28.4346 18.5277C28.5406 18.5657 28.6296 18.5957 28.7016 18.6177C28.7756 18.6377 28.8496 18.6477 28.9236 18.6477C29.0296 18.6477 29.1096 18.6267 29.1636 18.5847C29.2196 18.5407 29.2476 18.4727 29.2476 18.3807V18.3387C29.2476 18.2627 29.2236 18.2017 29.1756 18.1557C29.1296 18.1077 29.0576 18.0837 28.9596 18.0837H28.6416V17.7597H28.9596C29.0536 17.7597 29.1226 17.7377 29.1666 17.6937C29.2106 17.6477 29.2326 17.5887 29.2326 17.5167V17.4747C29.2326 17.3827 29.2066 17.3167 29.1546 17.2767C29.1046 17.2347 29.0306 17.2137 28.9326 17.2137C28.8626 17.2137 28.7916 17.2237 28.7196 17.2437C28.6496 17.2617 28.5646 17.2897 28.4646 17.3277L28.3536 17.0187C28.4656 16.9667 28.5696 16.9307 28.6656 16.9107C28.7616 16.8907 28.8546 16.8807 28.9446 16.8807C29.0986 16.8807 29.2226 16.9067 29.3166 16.9587C29.4106 17.0107 29.4786 17.0807 29.5206 17.1687C29.5646 17.2567 29.5866 17.3537 29.5866 17.4597V17.5017C29.5866 17.5957 29.5626 17.6787 29.5146 17.7507C29.4686 17.8207 29.4076 17.8767 29.3316 17.9187C29.4136 17.9627 29.4786 18.0217 29.5266 18.0957C29.5766 18.1677 29.6016 18.2537 29.6016 18.3537V18.3957ZM31.9326 18.9507H30.6966V18.6657C30.6966 18.5217 30.7156 18.4017 30.7536 18.3057C30.7916 18.2077 30.8426 18.1277 30.9066 18.0657C30.9706 18.0017 31.0406 17.9507 31.1166 17.9127L31.3206 17.8107C31.3986 17.7707 31.4616 17.7287 31.5096 17.6847C31.5596 17.6387 31.5846 17.5797 31.5846 17.5077V17.4537C31.5846 17.3797 31.5586 17.3217 31.5066 17.2797C31.4566 17.2357 31.3756 17.2137 31.2636 17.2137C31.1956 17.2137 31.1266 17.2237 31.0566 17.2437C30.9886 17.2637 30.9056 17.2917 30.8076 17.3277L30.6966 17.0187C30.8086 16.9687 30.9106 16.9337 31.0026 16.9137C31.0966 16.8917 31.1876 16.8807 31.2756 16.8807C31.4376 16.8807 31.5666 16.9067 31.6626 16.9587C31.7606 17.0107 31.8306 17.0807 31.8726 17.1687C31.9166 17.2547 31.9386 17.3497 31.9386 17.4537V17.5077C31.9386 17.6157 31.9166 17.7077 31.8726 17.7837C31.8306 17.8597 31.7746 17.9237 31.7046 17.9757C31.6346 18.0277 31.5586 18.0737 31.4766 18.1137L31.2726 18.2157C31.1986 18.2517 31.1436 18.3017 31.1076 18.3657C31.0736 18.4297 31.0546 18.5117 31.0506 18.6117H31.9326V18.9507Z" fill="black"/>
<rect x="6.33398" y="11.9507" width="26" height="3" fill="#D9D9D9"/>
<path d="M26.334 42.9507C26.334 42.3984 26.7817 41.9507 27.334 41.9507H59.334C59.8863 41.9507 60.334 42.3984 60.334 42.9507V46.9507H26.334V42.9507Z" fill="white" stroke="#25316D" stroke-width="2"/>
<path d="M26.334 46.9507H60.334V59.9507C60.334 60.503 59.8863 60.9507 59.334 60.9507H27.334C26.7817 60.9507 26.334 60.503 26.334 59.9507V46.9507Z" fill="white" stroke="#25316D" stroke-width="2"/>
<path d="M30.969 55.7147V56.1437C30.969 56.4037 30.908 56.6087 30.786 56.7587C30.664 56.9067 30.485 56.9807 30.249 56.9807C30.013 56.9807 29.834 56.9067 29.712 56.7587C29.59 56.6087 29.529 56.4037 29.529 56.1437V55.7147C29.529 55.4547 29.59 55.2507 29.712 55.1027C29.834 54.9547 30.013 54.8807 30.249 54.8807C30.485 54.8807 30.664 54.9547 30.786 55.1027C30.908 55.2507 30.969 55.4547 30.969 55.7147ZM30.606 55.7147C30.606 55.3807 30.487 55.2137 30.249 55.2137C30.127 55.2137 30.037 55.2557 29.979 55.3397C29.921 55.4237 29.892 55.5487 29.892 55.7147V56.1437C29.892 56.3097 29.921 56.4357 29.979 56.5217C30.037 56.6057 30.127 56.6477 30.249 56.6477C30.487 56.6477 30.606 56.4797 30.606 56.1437V55.7147ZM33.331 56.9507H32.095V56.6657C32.095 56.5217 32.114 56.4017 32.152 56.3057C32.19 56.2077 32.241 56.1277 32.305 56.0657C32.369 56.0017 32.439 55.9507 32.515 55.9127L32.719 55.8107C32.797 55.7707 32.86 55.7287 32.908 55.6847C32.958 55.6387 32.983 55.5797 32.983 55.5077V55.4537C32.983 55.3797 32.957 55.3217 32.905 55.2797C32.855 55.2357 32.774 55.2137 32.662 55.2137C32.594 55.2137 32.525 55.2237 32.455 55.2437C32.387 55.2637 32.304 55.2917 32.206 55.3277L32.095 55.0187C32.207 54.9687 32.309 54.9337 32.401 54.9137C32.495 54.8917 32.586 54.8807 32.674 54.8807C32.836 54.8807 32.965 54.9067 33.061 54.9587C33.159 55.0107 33.229 55.0807 33.271 55.1687C33.315 55.2547 33.337 55.3497 33.337 55.4537V55.5077C33.337 55.6157 33.315 55.7077 33.271 55.7837C33.229 55.8597 33.173 55.9237 33.103 55.9757C33.033 56.0277 32.957 56.0737 32.875 56.1137L32.671 56.2157C32.597 56.2517 32.542 56.3017 32.506 56.3657C32.472 56.4297 32.453 56.5117 32.449 56.6117H33.331V56.9507ZM35.9347 55.7147V56.1437C35.9347 56.4037 35.8737 56.6087 35.7517 56.7587C35.6297 56.9067 35.4507 56.9807 35.2147 56.9807C34.9787 56.9807 34.7997 56.9067 34.6777 56.7587C34.5557 56.6087 34.4947 56.4037 34.4947 56.1437V55.7147C34.4947 55.4547 34.5557 55.2507 34.6777 55.1027C34.7997 54.9547 34.9787 54.8807 35.2147 54.8807C35.4507 54.8807 35.6297 54.9547 35.7517 55.1027C35.8737 55.2507 35.9347 55.4547 35.9347 55.7147ZM35.5717 55.7147C35.5717 55.3807 35.4527 55.2137 35.2147 55.2137C35.0927 55.2137 35.0027 55.2557 34.9447 55.3397C34.8867 55.4237 34.8577 55.5487 34.8577 55.7147V56.1437C34.8577 56.3097 34.8867 56.4357 34.9447 56.5217C35.0027 56.6057 35.0927 56.6477 35.2147 56.6477C35.4527 56.6477 35.5717 56.4797 35.5717 56.1437V55.7147ZM38.2787 56.3957C38.2787 56.5017 38.2567 56.5997 38.2127 56.6897C38.1687 56.7777 38.0977 56.8487 37.9997 56.9027C37.9037 56.9547 37.7747 56.9807 37.6127 56.9807C37.5207 56.9807 37.4247 56.9697 37.3247 56.9477C37.2267 56.9257 37.1187 56.8887 37.0007 56.8367L37.1117 56.5277C37.2177 56.5657 37.3067 56.5957 37.3787 56.6177C37.4527 56.6377 37.5267 56.6477 37.6007 56.6477C37.7067 56.6477 37.7867 56.6267 37.8407 56.5847C37.8967 56.5407 37.9247 56.4727 37.9247 56.3807V56.3387C37.9247 56.2627 37.9007 56.2017 37.8527 56.1557C37.8067 56.1077 37.7347 56.0837 37.6367 56.0837H37.3187V55.7597H37.6367C37.7307 55.7597 37.7997 55.7377 37.8437 55.6937C37.8877 55.6477 37.9097 55.5887 37.9097 55.5167V55.4747C37.9097 55.3827 37.8837 55.3167 37.8317 55.2767C37.7817 55.2347 37.7077 55.2137 37.6097 55.2137C37.5397 55.2137 37.4687 55.2237 37.3967 55.2437C37.3267 55.2617 37.2417 55.2897 37.1417 55.3277L37.0307 55.0187C37.1427 54.9667 37.2467 54.9307 37.3427 54.9107C37.4387 54.8907 37.5317 54.8807 37.6217 54.8807C37.7757 54.8807 37.8997 54.9067 37.9937 54.9587C38.0877 55.0107 38.1557 55.0807 38.1977 55.1687C38.2417 55.2567 38.2637 55.3537 38.2637 55.4597V55.5017C38.2637 55.5957 38.2397 55.6787 38.1917 55.7507C38.1457 55.8207 38.0847 55.8767 38.0087 55.9187C38.0907 55.9627 38.1557 56.0217 38.2037 56.0957C38.2537 56.1677 38.2787 56.2537 38.2787 56.3537V56.3957ZM40.7657 56.1467C40.7657 56.4267 40.6997 56.6357 40.5677 56.7737C40.4357 56.9117 40.2497 56.9807 40.0097 56.9807C39.9257 56.9807 39.8387 56.9707 39.7487 56.9507C39.6587 56.9307 39.5577 56.8947 39.4457 56.8427L39.5747 56.5337C39.6647 56.5757 39.7437 56.6057 39.8117 56.6237C39.8817 56.6397 39.9447 56.6477 40.0007 56.6477C40.1267 56.6477 40.2277 56.6097 40.3037 56.5337C40.3817 56.4577 40.4207 56.3287 40.4207 56.1467V56.0387C40.3527 56.1007 40.2807 56.1467 40.2047 56.1767C40.1307 56.2067 40.0557 56.2217 39.9797 56.2217C39.8617 56.2217 39.7577 56.1947 39.6677 56.1407C39.5797 56.0867 39.5117 56.0117 39.4637 55.9157C39.4157 55.8197 39.3917 55.7087 39.3917 55.5827V55.5227C39.3917 55.4107 39.4187 55.3057 39.4727 55.2077C39.5267 55.1097 39.6037 55.0307 39.7037 54.9707C39.8037 54.9107 39.9227 54.8807 40.0607 54.8807C40.2827 54.8807 40.4557 54.9557 40.5797 55.1057C40.7037 55.2557 40.7657 55.4617 40.7657 55.7237V56.1467ZM39.7427 55.5827C39.7427 55.6747 39.7677 55.7507 39.8177 55.8107C39.8697 55.8687 39.9417 55.8977 40.0337 55.8977C40.1757 55.8977 40.3047 55.8437 40.4207 55.7357V55.7237C40.4207 55.5517 40.3887 55.4237 40.3247 55.3397C40.2627 55.2557 40.1727 55.2137 40.0547 55.2137C39.9567 55.2137 39.8797 55.2457 39.8237 55.3097C39.7697 55.3737 39.7427 55.4447 39.7427 55.5227V55.5827ZM43.2867 56.4887H43.0737V56.9507H42.7257V56.4887H41.8497V56.1977C41.9397 56.0577 42.0287 55.9157 42.1167 55.7717C42.2067 55.6257 42.2907 55.4807 42.3687 55.3367C42.4467 55.1907 42.5107 55.0487 42.5607 54.9107H42.9537C42.8797 55.1147 42.7797 55.3247 42.6537 55.5407C42.5277 55.7547 42.3977 55.9637 42.2637 56.1677H42.7257V55.8587H43.0737V56.1677H43.2867V56.4887ZM45.7327 56.3387C45.7327 56.4607 45.7057 56.5707 45.6517 56.6687C45.5977 56.7647 45.5207 56.8407 45.4207 56.8967C45.3227 56.9527 45.2037 56.9807 45.0637 56.9807C44.8417 56.9807 44.6687 56.9057 44.5447 56.7557C44.4207 56.6057 44.3587 56.3997 44.3587 56.1377V55.7147C44.3587 55.4347 44.4247 55.2257 44.5567 55.0877C44.6887 54.9497 44.8747 54.8807 45.1147 54.8807C45.1987 54.8807 45.2857 54.8907 45.3757 54.9107C45.4677 54.9307 45.5687 54.9667 45.6787 55.0187L45.5497 55.3277C45.4597 55.2857 45.3807 55.2567 45.3127 55.2407C45.2447 55.2227 45.1817 55.2137 45.1237 55.2137C44.9977 55.2137 44.8957 55.2517 44.8177 55.3277C44.7417 55.4017 44.7037 55.5307 44.7037 55.7147V55.8227C44.7737 55.7607 44.8457 55.7147 44.9197 55.6847C44.9957 55.6547 45.0707 55.6397 45.1447 55.6397C45.2647 55.6397 45.3687 55.6667 45.4567 55.7207C45.5447 55.7747 45.6127 55.8497 45.6607 55.9457C45.7087 56.0417 45.7327 56.1527 45.7327 56.2787V56.3387ZM44.7037 56.1377C44.7037 56.3097 44.7357 56.4377 44.7997 56.5217C44.8637 56.6057 44.9537 56.6477 45.0697 56.6477C45.1697 56.6477 45.2467 56.6197 45.3007 56.5637C45.3547 56.5057 45.3817 56.4307 45.3817 56.3387V56.2787C45.3817 56.1847 45.3567 56.1087 45.3067 56.0507C45.2567 55.9927 45.1847 55.9637 45.0907 55.9637C44.9487 55.9637 44.8197 56.0177 44.7037 56.1257V56.1377ZM48.3167 55.7147V56.1437C48.3167 56.4037 48.2557 56.6087 48.1337 56.7587C48.0117 56.9067 47.8327 56.9807 47.5967 56.9807C47.3607 56.9807 47.1817 56.9067 47.0597 56.7587C46.9377 56.6087 46.8767 56.4037 46.8767 56.1437V55.7147C46.8767 55.4547 46.9377 55.2507 47.0597 55.1027C47.1817 54.9547 47.3607 54.8807 47.5967 54.8807C47.8327 54.8807 48.0117 54.9547 48.1337 55.1027C48.2557 55.2507 48.3167 55.4547 48.3167 55.7147ZM47.9537 55.7147C47.9537 55.3807 47.8347 55.2137 47.5967 55.2137C47.4747 55.2137 47.3847 55.2557 47.3267 55.3397C47.2687 55.4237 47.2397 55.5487 47.2397 55.7147V56.1437C47.2397 56.3097 47.2687 56.4357 47.3267 56.5217C47.3847 56.6057 47.4747 56.6477 47.5967 56.6477C47.8347 56.6477 47.9537 56.4797 47.9537 56.1437V55.7147ZM49.3528 55.2017L49.8718 54.9107H50.1718V56.9507H49.8178V55.3067L49.5118 55.4747L49.3528 55.2017ZM52.6016 56.3957C52.6016 56.5017 52.5796 56.5997 52.5356 56.6897C52.4916 56.7777 52.4206 56.8487 52.3226 56.9027C52.2266 56.9547 52.0976 56.9807 51.9356 56.9807C51.8436 56.9807 51.7476 56.9697 51.6476 56.9477C51.5496 56.9257 51.4416 56.8887 51.3236 56.8367L51.4346 56.5277C51.5406 56.5657 51.6296 56.5957 51.7016 56.6177C51.7756 56.6377 51.8496 56.6477 51.9236 56.6477C52.0296 56.6477 52.1096 56.6267 52.1636 56.5847C52.2196 56.5407 52.2476 56.4727 52.2476 56.3807V56.3387C52.2476 56.2627 52.2236 56.2017 52.1756 56.1557C52.1296 56.1077 52.0576 56.0837 51.9596 56.0837H51.6416V55.7597H51.9596C52.0536 55.7597 52.1226 55.7377 52.1666 55.6937C52.2106 55.6477 52.2326 55.5887 52.2326 55.5167V55.4747C52.2326 55.3827 52.2066 55.3167 52.1546 55.2767C52.1046 55.2347 52.0306 55.2137 51.9326 55.2137C51.8626 55.2137 51.7916 55.2237 51.7196 55.2437C51.6496 55.2617 51.5646 55.2897 51.4646 55.3277L51.3536 55.0187C51.4656 54.9667 51.5696 54.9307 51.6656 54.9107C51.7616 54.8907 51.8546 54.8807 51.9446 54.8807C52.0986 54.8807 52.2226 54.9067 52.3166 54.9587C52.4106 55.0107 52.4786 55.0807 52.5206 55.1687C52.5646 55.2567 52.5866 55.3537 52.5866 55.4597V55.5017C52.5866 55.5957 52.5626 55.6787 52.5146 55.7507C52.4686 55.8207 52.4076 55.8767 52.3316 55.9187C52.4136 55.9627 52.4786 56.0217 52.5266 56.0957C52.5766 56.1677 52.6016 56.2537 52.6016 56.3537V56.3957ZM54.9326 56.9507H53.6966V56.6657C53.6966 56.5217 53.7156 56.4017 53.7536 56.3057C53.7916 56.2077 53.8426 56.1277 53.9066 56.0657C53.9706 56.0017 54.0406 55.9507 54.1166 55.9127L54.3206 55.8107C54.3986 55.7707 54.4616 55.7287 54.5096 55.6847C54.5596 55.6387 54.5846 55.5797 54.5846 55.5077V55.4537C54.5846 55.3797 54.5586 55.3217 54.5066 55.2797C54.4566 55.2357 54.3756 55.2137 54.2636 55.2137C54.1956 55.2137 54.1266 55.2237 54.0566 55.2437C53.9886 55.2637 53.9056 55.2917 53.8076 55.3277L53.6966 55.0187C53.8086 54.9687 53.9106 54.9337 54.0026 54.9137C54.0966 54.8917 54.1876 54.8807 54.2756 54.8807C54.4376 54.8807 54.5666 54.9067 54.6626 54.9587C54.7606 55.0107 54.8306 55.0807 54.8726 55.1687C54.9166 55.2547 54.9386 55.3497 54.9386 55.4537V55.5077C54.9386 55.6157 54.9166 55.7077 54.8726 55.7837C54.8306 55.8597 54.7746 55.9237 54.7046 55.9757C54.6346 56.0277 54.5586 56.0737 54.4766 56.1137L54.2726 56.2157C54.1986 56.2517 54.1436 56.3017 54.1076 56.3657C54.0736 56.4297 54.0546 56.5117 54.0506 56.6117H54.9326V56.9507Z" fill="black"/>
<rect x="29.334" y="49.9507" width="26" height="3" fill="#D9D9D9"/>
</svg>
