<svg width="64" height="64" viewBox="0 0 64 64" fill="none" xmlns="http://www.w3.org/2000/svg">
<path d="M37.6522 21.8261C37.6522 30.5666 30.5666 37.6522 21.8261 37.6522C13.0856 37.6522 6 30.5666 6 21.8261C6 13.0856 13.0856 6 21.8261 6C30.5666 6 37.6522 13.0856 37.6522 21.8261Z" fill="white" stroke="#25316D" stroke-width="2"/>
<path d="M28.8882 28.7324C28.2466 29.4795 27.3721 30.1123 26.2646 30.6309C25.166 31.1406 23.7686 31.3955 22.0723 31.3955C19.2158 31.3955 17.0229 30.5869 15.4937 28.9697C13.9731 27.3438 13.2129 24.8608 13.2129 21.521C13.2129 18.1636 13.9731 15.6895 15.4937 14.0986C17.0229 12.499 19.2158 11.6992 22.0723 11.6992C23.6455 11.6992 24.9463 11.9189 25.9746 12.3584C27.0117 12.7891 27.8071 13.3296 28.3608 13.98C28.7651 14.4634 28.8179 14.8369 28.519 15.1006L27.6094 15.8784C27.3281 16.1245 27.0249 16.0234 26.6997 15.5752C26.3306 15.0742 25.7549 14.6479 24.9727 14.2964C24.1904 13.936 23.3203 13.7559 22.3623 13.7559C20.209 13.7559 18.6445 14.3228 17.6689 15.4565C16.6934 16.5815 16.1265 18.1064 15.9683 20.0312H24.7749C25.2583 20.0312 25.5 20.229 25.5 20.6245V21.6001C25.5 21.9956 25.2583 22.1934 24.7749 22.1934H15.9155C15.9946 24.6279 16.522 26.4297 17.4976 27.5986C18.4819 28.7588 20.0508 29.3389 22.2041 29.3389C23.3906 29.3389 24.353 29.1499 25.0913 28.772C25.8296 28.394 26.4756 27.8799 27.0293 27.2295C27.4072 26.7812 27.7412 26.6758 28.0312 26.9131L29.0464 27.7305C29.3276 27.9502 29.2749 28.2842 28.8882 28.7324Z" fill="#25316D"/>
<circle cx="41.8264" cy="41.8259" r="16.1458" fill="white"/>
<path fill-rule="evenodd" clip-rule="evenodd" d="M58.6522 41.8261C58.6522 51.1189 51.1189 58.6522 41.8261 58.6522C32.5333 58.6522 25 51.1189 25 41.8261C25 32.5333 32.5333 25 41.8261 25C51.1189 25 58.6522 32.5333 58.6522 41.8261ZM38.7143 38.2857C38.7143 39.3071 39.55 40.1429 40.5714 40.1429H42.4286C45.4929 40.1429 48 42.65 48 45.7143C48 48.5 45.9571 50.7286 43.3571 51.1929V53.1429C43.3571 54.1643 42.5214 55 41.5 55C40.4786 55 39.6429 54.1643 39.6429 53.1429V51.1929C37.0429 50.7286 35 48.5 35 45.7143C35 44.6929 35.8357 43.8571 36.8571 43.8571C37.8786 43.8571 38.7143 44.6929 38.7143 45.7143C38.7143 46.7357 39.55 47.5714 40.5714 47.5714H42.4286C43.45 47.5714 44.2857 46.7357 44.2857 45.7143C44.2857 44.6929 43.45 43.8571 42.4286 43.8571H40.5714C37.5071 43.8571 35 41.35 35 38.2857C35 35.5 37.0429 33.2714 39.6429 32.8071V30.8571C39.6429 29.8357 40.4786 29 41.5 29C42.5214 29 43.3571 29.8357 43.3571 30.8571V32.8071C45.9571 33.2714 48 35.5 48 38.2857C48 39.3071 47.1643 40.1429 46.1429 40.1429C45.1214 40.1429 44.2857 39.3071 44.2857 38.2857C44.2857 37.2643 43.45 36.4286 42.4286 36.4286H40.5714C39.55 36.4286 38.7143 37.2643 38.7143 38.2857Z" fill="#CB2027"/>
<path d="M53 20.9868V20.9868C53 17.5545 50.2278 14.7668 46.7955 14.7476L44 14.7319M44 14.7319L47.7198 18.4639M44 14.7319L48.4138 10.9999" stroke="#25316D" stroke-width="2" stroke-linecap="round" stroke-linejoin="round"/>
<path d="M9 44V44C9 47.4323 11.7722 50.2201 15.2045 50.2393L18 50.2549M18 50.2549L14.2802 46.5229M18 50.2549L13.5862 53.9869" stroke="#CB2027" stroke-width="2" stroke-linecap="round" stroke-linejoin="round"/>
</svg>
