<svg width="588" height="340" viewBox="0 0 588 340" fill="none" xmlns="http://www.w3.org/2000/svg">
<path d="M45 260.104H295" stroke="#25316D" stroke-width="2" stroke-linecap="round" stroke-linejoin="round"/>
<path d="M101.086 269.311L101.23 269.205L101.329 269.057C102.104 267.896 103.501 267.202 105.439 266.988C107.373 266.775 109.708 267.061 112.107 267.72C114.497 268.378 116.895 269.391 118.938 270.583C120.996 271.783 122.625 273.122 123.548 274.399C127.463 279.809 126.755 286.689 122.419 289.853C121.421 290.581 119.804 291.033 117.742 291.147C115.707 291.259 113.358 291.033 111.01 290.52C108.664 290.007 106.353 289.214 104.392 288.213C102.417 287.204 100.866 286.021 99.9566 284.765C96.0419 279.354 96.7496 272.475 101.086 269.311Z" fill="white" stroke="#25316D" stroke-width="2"/>
<path d="M123.968 288.047C122.715 286.637 120.02 283.817 119.268 283.817" stroke="#25316D" stroke-width="2"/>
<path d="M229.618 256.792C231.275 265.112 236.25 274.695 231.038 289.598C225.826 304.5 213.865 316.4 200.87 312.5C190.898 309.507 194.872 299.752 200.37 297C205.529 294.417 210.87 296 212.37 302.5C215.81 317.405 199.725 319.639 174.87 317.5C150.015 315.36 146.139 305.202 143.37 301C134.87 288.098 128.777 291.737 124.516 289.598" stroke="#303030" stroke-width="2" stroke-linecap="round"/>
<path d="M120.807 278.92L120.802 278.923C120.512 279.097 120.126 279.028 119.911 278.749C118.986 277.534 117.452 275.621 115.637 273.729C113.832 271.849 111.695 269.932 109.562 268.768L108.561 270.481C108.553 270.494 108.553 270.494 108.553 270.494L108.553 270.494L108.554 270.495L108.569 270.504C108.583 270.513 108.605 270.527 108.635 270.547C108.695 270.587 108.785 270.648 108.9 270.73C109.13 270.894 109.458 271.139 109.836 271.456C110.599 272.095 111.546 273.01 112.331 274.131C113.116 275.253 113.709 276.541 113.83 277.94C113.947 279.307 113.622 280.863 112.438 282.575C111.733 283.408 110.492 283.843 109.934 284.026L109.822 284.063L109.722 284.124L109.722 284.125L109.721 284.125L109.72 284.126L109.711 284.131L109.675 284.153C109.663 284.16 109.648 284.169 109.63 284.18C109.603 284.196 109.57 284.216 109.531 284.239C109.405 284.313 109.221 284.42 108.994 284.547C108.539 284.801 107.92 285.132 107.254 285.442C106.582 285.755 105.891 286.033 105.288 286.197C104.631 286.375 104.282 286.358 104.169 286.317L103.527 286.085L103.081 286.593L103.081 286.593L103.08 286.594C103.08 286.595 103.079 286.595 103.078 286.596C103.076 286.599 103.072 286.603 103.067 286.608C103.063 286.612 103.058 286.617 103.053 286.623C103.027 286.649 102.985 286.691 102.929 286.742C102.814 286.846 102.646 286.984 102.438 287.115C102.018 287.379 101.514 287.568 100.982 287.505C100.979 287.502 100.877 287.465 100.659 287.294C100.419 287.107 100.128 286.83 99.7963 286.474C99.1356 285.764 98.3915 284.822 97.6836 283.864C96.9791 282.91 96.3256 281.962 95.8473 281.25C95.6085 280.895 95.414 280.6 95.2796 280.394C95.2125 280.291 95.1603 280.211 95.1252 280.156L95.0854 280.094L95.0756 280.079L95.0732 280.075L95.0727 280.075L95.0727 280.074L95.0726 280.074L94.8814 279.775L94.544 279.663L94.544 279.663L94.5438 279.663L94.5431 279.663L94.5382 279.661L94.5162 279.654C94.4961 279.647 94.4654 279.637 94.4248 279.623C94.3436 279.595 94.2227 279.552 94.0674 279.496C93.7569 279.384 93.3098 279.218 92.7694 279.002C91.6864 278.569 90.2388 277.942 88.7683 277.16C87.2914 276.375 85.8268 275.452 84.6878 274.439C83.5365 273.414 82.8291 272.395 82.649 271.429L82.6468 271.414C82.6439 271.394 82.6395 271.361 82.6341 271.317C82.6233 271.227 82.6089 271.091 82.5961 270.914C82.5705 270.559 82.5516 270.045 82.5814 269.424C82.6411 268.176 82.8953 266.529 83.6578 264.883C84.415 263.249 85.6794 261.601 87.7951 260.33C89.8839 259.075 92.8581 258.153 97.0978 258.029C97.1049 258.032 97.1121 258.035 97.1196 258.038C97.2607 258.098 97.4705 258.187 97.7403 258.306C98.2801 258.544 99.0599 258.9 100.012 259.367C101.919 260.302 104.51 261.681 107.25 263.452C112.774 267.025 118.716 272.081 121.055 278.191C121.15 278.438 121.065 278.744 120.807 278.92Z" fill="white" stroke="#25316D" stroke-width="2"/>
<path fill-rule="evenodd" clip-rule="evenodd" d="M106.203 148.524C141.828 177.116 100.464 224.121 100.464 224.121C100.464 224.121 101.246 229.823 99.054 232.112C91.498 240 104.695 260.314 104.695 260.314C104.695 260.314 89.3321 270.044 84.9526 279.116C84.7442 279.548 83.5424 280.526 83.0722 280.526C83.0722 280.526 74.5878 266.539 72.7314 260.314C64.7406 233.522 65.2103 216.13 65.2103 216.13C71.3209 202.029 74.6349 193.397 81.1922 178.996C87.1578 165.885 98.3231 157.602 106.203 148.524Z" fill="#58B9FD"/>
<path fill-rule="evenodd" clip-rule="evenodd" d="M155.523 122.829C155.523 122.829 160.447 118.767 162.933 119.426L163.113 122.663C163.113 122.663 170.489 127.767 180.511 127.932C190.538 128.152 198.297 123.322 199.952 119.426C199.952 119.426 205.848 120.741 206.089 124.693C206.089 124.693 237.235 134.296 245.112 139.676C252.986 144.996 257.047 148.509 258.846 157.73C260.638 166.893 267.128 196.525 268.608 220.341C252.762 215.29 239.65 215.184 223.455 215.184C185.121 169.685 158.638 224.872 123.411 259.58C123.411 259.58 134.498 195.357 130.57 195.851C126.646 196.29 72.6809 217.267 72.6809 217.267C72.6809 217.267 71.7465 202.44 72.6809 198.268C73.6152 194.097 91.8494 149.167 96.0185 143.078C100.188 136.93 107.564 132.046 120.7 129.304C133.842 126.561 155.523 122.829 155.523 122.829Z" fill="#58B9FD"/>
<path d="M121.652 46C121.117 47.0658 120.714 48.172 120.32 49.2985C120.009 50.1994 119.711 51.1686 119.228 51.9933M118.193 52.7065C116.434 53.3521 114.702 54.0699 113 54.8579M113.01 54.9237C113.483 55.2335 113.931 55.5684 114.433 55.8296C115.829 56.5504 117.31 57.0604 118.736 57.7074M119.454 58.887C120.129 60.6048 121.049 62.1882 121.769 63.8807M121.816 64C122.018 63.3732 122.324 62.7793 122.602 62.1882C123.284 60.7317 124.065 59.316 124.635 57.8087M124.635 57.89C125.354 57.4893 126.165 57.271 126.91 56.9309C128.002 56.4285 129.913 55.6142 131 55.0559M121.945 46.1017C122.831 48.0274 123.727 49.9636 124.54 51.9248M124.538 52.0849C126.014 52.8664 129.482 54.0716 131 54.7743" stroke="#25316D" stroke-width="2" stroke-miterlimit="1.5" stroke-linecap="round" stroke-linejoin="round"/>
<path d="M85.5 167C87.5 163.5 88.3416 160.193 89.5 157C90.9673 152.9 93.1631 146.877 96.0004 143.5" stroke="#25316D" stroke-width="2" stroke-miterlimit="1.5" stroke-linecap="round" stroke-linejoin="round"/>
<path d="M131.859 174.749C134.899 189.083 134.443 205.364 129.773 219.305M141.362 172.735C143.244 179.165 143.499 185.841 143.477 192.502C143.484 201.041 142.675 209.701 139.766 217.795" stroke="#25316D" stroke-width="2" stroke-miterlimit="1.5" stroke-linecap="round" stroke-linejoin="round"/>
<path d="M155.795 126.874C158.516 131.1 163.177 133.68 167.734 135.437C178.973 139.716 194.76 139.223 202.814 129.124M199.874 119.412C200.546 119.412 201.224 119.521 201.869 119.686C204.164 120.453 205.327 122.321 205.896 124.513M149.527 128.191C151.276 130.606 153.183 133.076 155.401 135.051C158.308 137.632 161.838 139.55 165.477 140.868" stroke="#25316D" stroke-width="2" stroke-miterlimit="1.5" stroke-linecap="round" stroke-linejoin="round"/>
<path d="M162.918 119.77C160.443 119.825 157.268 120.922 155.93 123.171" stroke="#25316D" stroke-width="2" stroke-miterlimit="1.5" stroke-linecap="round" stroke-linejoin="round"/>
<path d="M68.971 218.01C70.851 226.471 81.1901 226.505 85.4226 228.351C90.0457 230.402 95.8856 222.029 99.999 225M75.5515 267.366C80.722 257.965 84.3924 254.69 97.1737 253.264" stroke="#25316D" stroke-width="2" stroke-miterlimit="1.5" stroke-linecap="round" stroke-linejoin="round"/>
<path d="M199.461 100.598L161.637 91.1968L162.577 122.22C162.577 122.22 173.586 127.956 181.379 127.86C189.606 127.76 199.461 122.491 199.461 122.491L199.461 100.598Z" fill="white"/>
<path d="M148 71.0002C152 83.0002 155 82.5002 156.5 80.4327C158.133 84.8973 160.028 89.3878 162.001 93.0003C163.501 95.7468 179.501 106 189.075 110.434C200.415 103.811 205.501 97.0003 208.001 94.5003C208.001 92.7508 208.75 87.5819 209.5 80.4327C209.5 77.7564 215.5 80.4327 215.5 68.0002C215.706 65.7114 213 60.5002 210.815 64.5002C210.932 62.6104 211.001 60.9071 211.001 59.5003C230.501 34.5003 208.5 28.5004 201 27.0004C200 16.5004 177.5 23.0003 170.501 30.0003C166.374 32.0978 162.382 38.5732 159.501 42.0003C155 42.5002 153.189 45.9755 151.5 50.0002C151.5 51.5002 153.037 60.3112 154 64.5002C147.5 61.0002 146.839 68.9416 148 71.0002Z" fill="white"/>
<path d="M190.923 66.9646C190.901 70.3122 191.289 73.5493 192.448 76.677C192.732 77.5001 193.038 78.2689 193.426 78.9826C193.453 79.0373 193.819 79.6405 193.803 79.6405C193.552 79.9699 192.35 81.0003 192 81.0003C190.508 81.1101 188.899 80.9941 187.5 80.5003M181.946 64.2213C179.093 62.6298 175.668 62.6298 172.952 64.4956M206.311 65.3734C203.256 63.7272 200.021 63.6721 196.814 64.8245M195.5 90.5004C190 92.5004 184.415 90.7256 181.044 88.3113M163.111 64.8253C163.739 71.081 158.47 64.2446 159 70.5004M171.87 55.9907C170.236 59.9415 166.821 62.7406 162.875 64.1673" stroke="#25316D" stroke-width="2" stroke-miterlimit="1.5" stroke-linecap="round" stroke-linejoin="round"/>
<path d="M159.405 72.8924C159.405 72.8924 160.93 87.7627 161.328 91.7135C161.392 92.3127 161.654 92.8731 162.072 93.3055C168.58 100.329 176.475 105.104 185.71 107.792C186.327 107.957 186.988 107.957 187.589 107.738C194.556 105.104 201.217 101.098 207.517 95.4455C208.053 94.9517 208.386 94.2931 208.446 93.5797C208.949 87.5435 211.293 59.2832 211.293 59.2832" stroke="#25316D" stroke-width="2" stroke-miterlimit="1.5" stroke-linecap="round" stroke-linejoin="round"/>
<path d="M199.641 101.591L199.105 122.336C199.105 122.336 180.144 134.296 163.768 122.336M162.107 94.0195L162.413 118.823" stroke="#25316D" stroke-width="2" stroke-miterlimit="1.5" stroke-linecap="round" stroke-linejoin="round"/>
<path d="M202.602 72.325C202.382 72.3283 202.164 72.2876 201.961 72.2056C201.757 72.1235 201.572 72.0015 201.416 71.8469C201.259 71.6922 201.135 71.5079 201.051 71.3046C200.966 71.1014 200.922 70.8833 200.922 70.6629C200.922 70.4426 200.966 70.2245 201.051 70.0213C201.135 69.818 201.26 69.6337 201.416 69.4791C201.572 69.3245 201.757 69.2026 201.961 69.1205C202.165 69.0385 202.383 68.9979 202.602 69.0012C203.037 69.0077 203.451 69.1856 203.756 69.4966C204.061 69.8077 204.232 70.2267 204.232 70.6633C204.232 71.0999 204.061 71.5189 203.756 71.8299C203.451 72.1408 203.036 72.3187 202.602 72.325ZM179.656 72.325C179.217 72.325 178.796 72.1499 178.485 71.8382C178.175 71.5264 178 71.1036 178 70.6628C178 70.2219 178.175 69.7991 178.485 69.4874C178.796 69.1756 179.217 69.0005 179.656 69.0005C180.09 69.0069 180.505 69.1849 180.81 69.4959C181.116 69.8069 181.287 70.2261 181.287 70.6628C181.287 71.0994 181.116 71.5186 180.81 71.8296C180.505 72.1406 180.09 72.3186 179.656 72.325Z" fill="#25316D"/>
<path fill-rule="evenodd" clip-rule="evenodd" d="M166.371 98.6421C166.371 98.6421 176.693 111.866 186.178 112.58C194.255 113.238 199.287 106.818 199.287 106.818V101.989C199.287 101.989 187.987 108.409 186.178 107.915C184.375 107.366 166.371 98.6421 166.371 98.6421Z" fill="#25316D"/>
<path d="M176.029 53.9565C180.817 56.8762 185.851 59.5817 191.583 59.8319C194.238 59.9459 197.489 59.0886 197.978 55.9992M213.428 51.9477C213.743 52.6521 214.024 53.398 214.128 54.1792C214.618 58.0109 210.808 59.3116 207.661 59.1382C202.592 58.8582 197.978 55.8852 194.799 52.0384M215.839 50.7065C216.783 49.6325 217.657 48.44 218.181 47.1183C221.643 38.4985 213.463 30.9563 206.054 28.5223C202.977 27.511 198.574 26.7162 195.567 28.3724C193.401 29.551 196.51 32.0268 198.085 31.835C200.601 31.5211 201.371 28.2852 200.635 26.2453C200.042 24.6832 198.713 23.6756 197.211 23.0235C194.275 21.7508 191.198 21.8482 188.086 22.3365C181.55 23.3686 175.294 26.7128 170.121 30.6983C168.059 32.2815 165.822 33.9516 164.319 36.1065M160.614 41.9158C159.601 42.0065 158.587 42.2259 157.644 42.5956C150.722 45.2842 152.5 55.0004 153.5 60.5004M160.125 88.5005C159.877 87.7697 159.615 84.2199 157.644 79.5004C157.147 78.311 154 86.5004 149 75.0004C144.5 59.8319 153.5 63.5004 154.5 65.0004M161.208 32.9088C160.823 34.2756 160.579 35.6113 160.544 37.0304C160.544 37.4208 160.544 37.815 160.579 38.2054C160.579 38.2438 160.649 38.5439 160.614 38.5682C160.579 38.5961 160.159 38.4041 160.125 38.3868C159.563 38.1985 159.039 37.9998 158.481 37.8115C156.419 37.0933 154.182 36.4271 151.979 36.3676" stroke="#25316D" stroke-width="2" stroke-miterlimit="1.5" stroke-linecap="round" stroke-linejoin="round"/>
<path d="M153 72.0004C154.065 73.6169 154.247 74.1569 155.238 75.8193" stroke="#25316D" stroke-width="2" stroke-miterlimit="1.5" stroke-linecap="round" stroke-linejoin="round"/>
<path d="M210.012 71.2369C210 69.9362 210.025 68.6358 210.151 67.3592C210.468 64.3245 211.898 61.6751 213.531 63.7224C213.809 64.0596 214.05 64.4929 214.252 64.9746C215.822 68.8283 214.72 74.4885 212.797 77.0417C212 78.1014 210.962 78.9203 210 79.2576" stroke="#25316D" stroke-width="2" stroke-miterlimit="1.5" stroke-linecap="round" stroke-linejoin="round"/>
<path fill-rule="evenodd" clip-rule="evenodd" d="M233.5 236.5C233.5 236.5 236.258 254.792 242.758 253.792C254.792 251.94 274.28 246.966 266.805 202.578C255.925 204.461 233.679 229.202 237.583 219.565C241.487 209.932 256 211.5 256 203.5C256 203.5 255.33 194.93 255 192C253.373 177.557 259.428 148.564 246 143C238.77 140.004 232.275 149.244 232.275 149.244L227.678 144.918C227.678 144.918 225.832 141.266 221.525 137.057C215.95 150.402 211.198 171.18 212.467 202.578L218.5 215C218.79 215.233 232.517 235.575 233.5 236.5Z" fill="#58B9FD"/>
<path d="M264.903 239.988C267.287 231.367 268.352 221.499 267.465 212.965" stroke="#25316D" stroke-width="2" stroke-miterlimit="1.5" stroke-linecap="round" stroke-linejoin="round"/>
<path d="M221.572 183C222.696 185.846 223.494 188.81 224.559 191.63C226.331 196.283 228.323 200.87 230.106 205.517" stroke="#25316D" stroke-width="2" stroke-miterlimit="1.5" stroke-linecap="round" stroke-linejoin="round"/>
<path d="M259 158.5C258 153 253.126 145.987 248.5 142.5C242.588 138.005 235.128 134.679 228 132.432" stroke="#25316D" stroke-width="2" stroke-miterlimit="1.5" stroke-linecap="round" stroke-linejoin="round"/>
<path d="M205.2 283.488L205.2 283.488L205.206 283.5C205.395 283.885 205.352 284.349 205.076 284.711C205.075 284.712 205.075 284.713 205.074 284.713L197.094 295.019H166.97L166.866 294.889L166.223 294.078C165.678 293.392 164.92 292.436 164.068 291.364C162.365 289.218 160.287 286.601 158.788 284.718L158.785 284.714C158.52 284.384 158.458 283.908 158.653 283.492C158.748 283.298 158.894 283.135 159.075 283.021C159.257 282.906 159.467 282.845 159.681 282.843C159.682 282.843 159.683 282.843 159.683 282.843L204.181 282.843H204.183C204.395 282.843 204.603 282.903 204.783 283.017C204.963 283.131 205.108 283.294 205.2 283.488ZM262.569 193.025L262.568 193.027C259.999 207.635 251.517 255.874 249.323 268.361C249.105 269.597 248.033 270.495 246.787 270.495H117.441C116.212 270.495 115.146 269.613 114.91 268.388C113.759 262.364 110.984 247.856 108.113 232.85C105.082 217.005 101.944 200.605 100.501 193.052L100.501 193.051C100.358 192.307 100.553 191.528 101.047 190.917C101.541 190.325 102.272 189.977 103.032 189.977L260.032 189.977L260.033 189.977C260.409 189.976 260.779 190.058 261.12 190.217C261.46 190.377 261.762 190.609 262.003 190.899L262.004 190.9C262.495 191.489 262.702 192.274 262.569 193.025Z" fill="white" stroke="#25316D" stroke-width="2"/>
<path d="M182.092 227.496C190.241 227.496 196.859 234.137 196.859 242.324V295.024H167.324V242.324C167.324 234.136 173.939 227.496 182.092 227.496Z" fill="white" stroke="#25316D" stroke-width="2"/>
<path fill-rule="evenodd" clip-rule="evenodd" d="M188.87 242.265C188.87 238.504 185.834 235.457 182.091 235.457C178.348 235.457 175.314 238.504 175.314 242.265V254.44C175.314 258.194 178.348 261.24 182.091 261.24C185.834 261.24 188.87 258.194 188.87 254.44V242.265Z" fill="#58B9FD"/>
<path d="M120 267.011L106.463 197.382C106.223 196.147 107.169 195 108.426 195H225" stroke="#25316D" stroke-width="2"/>
<path d="M225.332 249.983C225.692 249.983 225.986 250.274 225.986 250.64V256.877C225.986 257.242 225.692 257.533 225.332 257.533H222.875C222.511 257.533 222.221 257.242 222.221 256.877V250.64C222.221 250.274 222.511 249.983 222.875 249.983H225.332Z" fill="#686868"/>
<path d="M234.646 249.983C235.005 249.983 235.3 250.274 235.3 250.64V256.877C235.3 257.242 235.005 257.533 234.646 257.533H232.188C231.825 257.533 231.535 257.242 231.535 256.877V250.64C231.535 250.274 231.825 249.983 232.188 249.983H234.646Z" fill="#686868"/>
<path d="M454.749 211.666C454.749 212.977 455.811 214.039 457.122 214.039H497.462C504.015 214.039 509.327 208.727 509.327 202.174V161.834C509.327 160.523 508.264 159.461 506.954 159.461H498.778C498.166 159.461 497.577 159.698 497.135 160.122L486.968 169.882C484.213 172.527 479.862 172.527 477.108 169.882L466.941 160.122C466.499 159.698 465.91 159.461 465.297 159.461H457.122C455.811 159.461 454.749 160.523 454.749 161.834V170.01C454.749 171.847 454.038 173.614 452.765 174.94L443.005 185.107C442.123 186.025 442.123 187.475 443.005 188.393L452.765 198.56C454.038 199.886 454.749 201.653 454.749 203.49V211.666Z" fill="white"/>
<path d="M449.467 102.373C449.467 101.062 448.405 99.9999 447.094 99.9999H406.754C400.201 99.9999 394.889 105.312 394.889 111.865V152.205C394.889 153.516 395.951 154.578 397.262 154.578H405.437C406.05 154.578 406.639 154.341 407.081 153.917L417.248 144.157C420.002 141.512 424.353 141.512 427.108 144.157L437.275 153.917C437.717 154.341 438.306 154.578 438.918 154.578H447.094C448.405 154.578 449.467 153.516 449.467 152.205V144.029C449.467 142.192 450.178 140.425 451.45 139.099L461.211 128.932C462.092 128.014 462.092 126.564 461.211 125.646L451.45 115.479C450.178 114.153 449.467 112.386 449.467 110.549V102.373Z" fill="white"/>
<path d="M506.955 154.578C508.265 154.578 509.328 153.516 509.328 152.205V111.865C509.328 105.312 504.016 99.9998 497.463 99.9998H457.122C455.812 99.9998 454.749 101.062 454.749 102.373V110.549C454.749 111.161 454.986 111.75 455.411 112.192L465.171 122.359C467.816 125.114 467.816 129.464 465.171 132.219L455.411 142.386C454.986 142.828 454.749 143.417 454.749 144.029V152.205C454.749 153.516 455.812 154.578 457.122 154.578H465.298C467.136 154.578 468.903 155.289 470.228 156.561L480.395 166.322C481.313 167.203 482.764 167.203 483.682 166.322L493.849 156.561C495.175 155.289 496.941 154.578 498.779 154.578H506.955Z" fill="white"/>
<path d="M497.827 160.843L497.827 160.843L487.66 170.604C484.519 173.62 479.557 173.62 476.415 170.604L466.248 160.843L466.248 160.843C465.993 160.598 465.652 160.461 465.297 160.461H457.122C456.363 160.461 455.749 161.076 455.749 161.834V170.01C455.749 172.105 454.938 174.12 453.487 175.632L453.487 175.632L443.726 185.799C443.726 185.799 443.726 185.799 443.726 185.799C443.216 186.33 443.216 187.17 443.726 187.701C443.726 187.701 443.726 187.701 443.726 187.701L453.487 197.868L453.487 197.868C454.938 199.38 455.749 201.395 455.749 203.49V211.666C455.749 212.424 456.363 213.039 457.122 213.039H497.462C503.462 213.039 508.327 208.175 508.327 202.174V161.834C508.327 161.076 507.712 160.461 506.954 160.461H498.778C498.424 160.461 498.083 160.598 497.827 160.843ZM406.388 153.196L406.388 153.196L416.555 143.435C419.697 140.419 424.659 140.419 427.8 143.435L437.967 153.196L437.967 153.196C438.223 153.441 438.564 153.578 438.918 153.578H447.094C447.852 153.578 448.467 152.963 448.467 152.205V144.029C448.467 141.934 449.277 139.919 450.729 138.407L451.45 139.099L450.729 138.407L460.489 128.24C460.999 127.709 460.999 126.869 460.489 126.338L450.729 116.171L451.45 115.479L450.729 116.171C449.277 114.659 448.467 112.644 448.467 110.549V102.373C448.467 101.615 447.852 101 447.094 101H406.754C400.753 101 395.889 105.864 395.889 111.865V152.205C395.889 152.963 396.503 153.578 397.262 153.578H405.437C405.792 153.578 406.133 153.441 406.388 153.196ZM456.132 111.499L456.132 111.499L465.892 121.666C468.908 124.808 468.908 129.77 465.892 132.912L456.132 143.078L456.132 143.079C455.887 143.334 455.749 143.675 455.749 144.029V152.205C455.749 152.963 456.364 153.578 457.122 153.578H465.298C467.394 153.578 469.409 154.389 470.921 155.84L470.228 156.561L470.921 155.84L481.088 165.6C481.619 166.11 482.458 166.11 482.989 165.6L493.156 155.84L493.849 156.561L493.156 155.84C494.668 154.389 496.683 153.578 498.779 153.578H506.955C507.713 153.578 508.328 152.963 508.328 152.205V111.865C508.328 105.864 503.463 101 497.463 101H457.122C456.364 101 455.749 101.614 455.749 102.373V110.549C455.749 110.903 455.887 111.244 456.132 111.499Z" stroke="#25316D" stroke-width="2"/>
<path d="M377.746 179.798C375.125 179.798 373 181.923 373 184.544L373 224.885C373 232.748 379.374 239.123 387.238 239.123L427.578 239.123C430.199 239.123 432.324 236.998 432.324 234.377V226.201C432.324 224.976 431.85 223.798 431.002 222.914L421.242 212.747C419.479 210.911 419.479 208.01 421.242 206.174L431.002 196.007C431.85 195.123 432.324 193.945 432.324 192.72V184.544C432.324 181.923 430.199 179.798 427.578 179.798H419.402C418.177 179.798 417 179.325 416.116 178.476L405.949 168.716C404.112 166.953 401.212 166.953 399.375 168.716L389.208 178.476C388.325 179.325 387.147 179.798 385.922 179.798H377.746Z" fill="#CB2027"/>
<path d="M495.047 80.8339C495.176 84.1896 495.083 87.5937 494.972 90.9509M514.198 78.7064C511.533 83.0179 508.901 87.436 505.888 91.5086M522.218 95.4159C519.937 96.2958 517.655 97.1805 515.371 98.0822" stroke="#25316D" stroke-width="2" stroke-miterlimit="1.5" stroke-linecap="round" stroke-linejoin="round"/>
</svg>
