<svg width="64" height="65" viewBox="0 0 64 65" fill="none" xmlns="http://www.w3.org/2000/svg">
<path d="M8.01465 46.1169V19.3982H55.9766V46.1169C36.3296 57.2662 16.0003 50.2121 8.01465 46.1169Z" fill="white"/>
<path d="M48.5914 25.6667C44.086 27.6834 38.5668 28.7127 32 28.7127C25.4332 28.7127 19.914 27.6834 15.4086 25.6667C10.8173 23.6115 9 21.3474 9 19.0461C9 16.7447 10.8173 14.4806 15.4086 12.4255C19.914 10.4088 25.4332 9.37939 32 9.37939C38.5668 9.37939 44.086 10.4088 48.5914 12.4255C53.1827 14.4806 55 16.7447 55 19.0461C55 21.3474 53.1827 23.6115 48.5914 25.6667ZM32 37.3794C33.8849 37.3794 36.2121 37.1845 38.9702 36.8033C41.7625 36.4174 44.456 35.7926 47.0496 34.9281C49.6664 34.0558 51.9427 32.9107 53.8635 31.4817C54.2821 31.1703 54.6615 30.8409 55 30.4937V32.3794C55 33.965 54.2849 35.3422 52.6698 36.5437C50.9462 37.8259 48.867 38.8808 46.4171 39.6974C43.944 40.5217 41.3708 41.1192 38.6964 41.4888C35.9879 41.8632 33.7595 42.0461 32 42.0461C30.2405 42.0461 28.0121 41.8632 25.3036 41.4888C22.6292 41.1192 20.056 40.5217 17.5829 39.6974C15.133 38.8808 13.0538 37.8259 11.3302 36.5437C9.71507 35.3422 9 33.965 9 32.3794V30.4937C9.3385 30.8409 9.71787 31.1703 10.1365 31.4817C12.0573 32.9107 14.3336 34.0558 16.9504 34.9281C19.544 35.7926 22.2375 36.4174 25.0298 36.8033C27.7879 37.1845 30.1151 37.3794 32 37.3794ZM32 50.7127C33.8849 50.7127 36.2121 50.5179 38.9702 50.1367C41.7625 49.7507 44.456 49.1259 47.0496 48.2614C49.6664 47.3891 51.9427 46.244 53.8635 44.8151C54.2821 44.5037 54.6615 44.1742 55 43.827V45.7127C55 47.2983 54.2849 48.6756 52.6698 49.8771C50.9462 51.1592 48.867 52.2141 46.4171 53.0307C43.944 53.8551 41.3708 54.4525 38.6964 54.8221C35.9879 55.1965 33.7595 55.3794 32 55.3794C30.2405 55.3794 28.0121 55.1965 25.3036 54.8221C22.6292 54.4525 20.056 53.8551 17.5829 53.0307C15.133 52.2141 13.0538 51.1592 11.3302 49.8771C9.71507 48.6756 9 47.2983 9 45.7127V43.827C9.3385 44.1742 9.71787 44.5037 10.1365 44.8151C12.0573 46.244 14.3336 47.3891 16.9504 48.2614C19.544 49.1259 22.2375 49.7507 25.0298 50.1366C27.7879 50.5179 30.1151 50.7127 32 50.7127Z" fill="#CB2027" stroke="#25316D" stroke-width="2"/>
</svg>
