<svg width="64" height="65" viewBox="0 0 64 65" fill="none" xmlns="http://www.w3.org/2000/svg">
<path d="M8.01465 46.5938V19.875H55.9766V46.5938C36.3296 57.743 16.0003 50.6889 8.01465 46.5938Z" fill="white"/>
<path d="M48.5914 26.1435C44.086 28.1602 38.5668 29.1895 32 29.1895C25.4332 29.1895 19.914 28.1602 15.4086 26.1435C10.8173 24.0883 9 21.8242 9 19.5229C9 17.2215 10.8173 14.9574 15.4086 12.9023C19.914 10.8856 25.4332 9.8562 32 9.8562C38.5668 9.8562 44.086 10.8856 48.5914 12.9023C53.1827 14.9574 55 17.2215 55 19.5229C55 21.8242 53.1827 24.0883 48.5914 26.1435ZM32 37.8562C33.8849 37.8562 36.2121 37.6613 38.9702 37.2801C41.7625 36.8942 44.456 36.2694 47.0496 35.4049C49.6664 34.5326 51.9427 33.3875 53.8635 31.9585C54.2821 31.6471 54.6615 31.3177 55 30.9705V32.8562C55 34.4418 54.2849 35.819 52.6698 37.0205C50.9462 38.3027 48.867 39.3576 46.4171 40.1742C43.944 40.9985 41.3708 41.596 38.6964 41.9656C35.9879 42.34 33.7595 42.5229 32 42.5229C30.2405 42.5229 28.0121 42.34 25.3036 41.9656C22.6292 41.596 20.056 40.9985 17.5829 40.1742C15.133 39.3576 13.0538 38.3027 11.3302 37.0205C9.71507 35.819 9 34.4418 9 32.8562V30.9705C9.3385 31.3177 9.71787 31.6471 10.1365 31.9585C12.0573 33.3875 14.3336 34.5326 16.9504 35.4049C19.544 36.2694 22.2375 36.8942 25.0298 37.2801C27.7879 37.6613 30.1151 37.8562 32 37.8562ZM32 51.1895C33.8849 51.1895 36.2121 50.9947 38.9702 50.6135C41.7625 50.2275 44.456 49.6028 47.0496 48.7382C49.6664 47.866 51.9427 46.7208 53.8635 45.2919C54.2821 44.9805 54.6615 44.651 55 44.3038V46.1895C55 47.7751 54.2849 49.1524 52.6698 50.3539C50.9462 51.636 48.867 52.6909 46.4171 53.5075C43.944 54.3319 41.3708 54.9293 38.6964 55.299C35.9879 55.6733 33.7595 55.8562 32 55.8562C30.2405 55.8562 28.0121 55.6733 25.3036 55.299C22.6292 54.9293 20.056 54.3319 17.5829 53.5075C15.133 52.6909 13.0538 51.636 11.3302 50.3539C9.71507 49.1524 9 47.7751 9 46.1895V44.3038C9.3385 44.651 9.71787 44.9805 10.1365 45.2919C12.0573 46.7208 14.3336 47.866 16.9504 48.7382C19.544 49.6028 22.2375 50.2275 25.0298 50.6135C27.7879 50.9947 30.1151 51.1895 32 51.1895Z" fill="#CB2027" stroke="#25316D" stroke-width="2"/>
</svg>
