<svg width="64" height="64" viewBox="0 0 64 64" fill="none" xmlns="http://www.w3.org/2000/svg">
<path d="M54 35C54 49.0676 42.2352 60 28.2991 60C14.3629 60 4 49.5393 4 35.4717C4 21.4041 14.3629 10 28.2991 10C31.4238 10 32.5047 13.7736 30.1682 14.717C28.2991 20.3774 31.1028 26.754 37.1776 26.9811C49.7944 27.4528 54 28.1642 54 35Z" fill="white"/>
<path d="M29.7252 19.3163C28.8568 17.2513 28.7432 15.1716 30.8272 14.4636C33.4323 13.5785 31.7463 9.5667 26.4846 10.0384C18.5221 10.7522 0.782215 20.2679 5.91742 42.6298C9.74151 59.2822 28.7916 63.7796 41.2473 56.9033C49.6654 52.256 54 43.5813 54 35.0172C54 23.3402 45.7455 29.3162 42.3294 27.4047M23.8802 41.8996C26.4853 43.6696 32.7375 45.6167 36.9056 39.2445" stroke="#25316D" stroke-width="2" stroke-linecap="round"/>
<path d="M57.6083 7.03557C57.7 7.17864 57.8055 7.57196 57.4839 8.41857C57.1743 9.23379 56.5346 10.2757 55.5176 11.4921C53.4911 13.9158 50.1048 16.8682 45.4045 19.8804C40.6717 22.9135 36.3184 25.2968 33.0032 26.6509C31.3369 27.3315 29.9924 27.7269 29.0213 27.8382C27.9573 27.9601 27.7627 27.7051 27.7571 27.6964C27.7447 27.6769 27.693 27.581 27.7227 27.3185C27.7528 27.0529 27.8605 26.6852 28.085 26.2127C28.5337 25.268 29.3692 24.0693 30.5809 22.703C32.9952 19.9808 36.7697 16.7428 41.4652 13.7336C46.1974 10.7009 50.1615 8.60573 53.0805 7.53523C54.5479 6.99709 55.6836 6.74358 56.488 6.72535C57.3103 6.70671 57.5396 6.92842 57.6083 7.03557Z" fill="white" stroke="#25316D" stroke-width="2"/>
<path d="M28.463 27.9622C29.8488 30.1246 29.738 32.475 26.1614 34.7671C21.7796 36.1958 16.4028 37.6456 15.5112 36.2625C14.6195 34.8794 17.6698 30.0632 21.143 26.9363C24.7196 24.6443 27.0772 25.7998 28.463 27.9622Z" fill="#CB2027"/>
<circle cx="20.4488" cy="18.9806" r="3.72031" fill="#25316D"/>
<circle cx="16.7271" cy="48.7433" r="3.72031" fill="#25316D"/>
<circle cx="33.4693" cy="52.4635" r="3.72031" fill="#CB2027"/>
<circle cx="46.4898" cy="41.3023" r="3.72031" fill="#CB2027"/>
</svg>
