<svg width="64" height="65" viewBox="0 0 64 65" fill="none" xmlns="http://www.w3.org/2000/svg">
<g clip-path="url(#clip0_1028_6033)">
<path fill-rule="evenodd" clip-rule="evenodd" d="M30.0838 58.0061C44.3594 50.8447 52.9546 37.5161 53 14.8935L30 6.04944L7 14.8935C7.04541 37.5629 15.6755 50.8962 30 58.0494L30.0838 58.0061Z" fill="white"/>
<path d="M13.284 42.1935C17.0503 48.8875 22.4108 53.8648 29.0951 57.4562C29.6593 57.7594 30.3381 57.7594 30.9024 57.4564C37.602 53.8583 42.9718 48.8672 46.7398 42.1507C50.5044 35.4403 52.7005 26.9526 52.9716 16.3117C52.9929 15.4762 52.4781 14.722 51.6974 14.4233L30.7147 6.39366C30.2545 6.21752 29.7454 6.21752 29.2851 6.39366L8.30237 14.4233C7.52176 14.722 7.00695 15.4762 7.02823 16.3117C7.29989 26.9759 9.50482 35.4766 13.284 42.1935Z" stroke="#25316D" stroke-width="2"/>
<path d="M21 32.5494C21 33.9302 18.8807 35.5494 17.5 35.5494C16.1193 35.5494 16 33.9302 16 32.5494C16 31.1687 17.1193 30.0494 18.5 30.0494C19.8807 30.0494 21 31.1687 21 32.5494Z" fill="#CB2027"/>
<path d="M32.5 46.5494C32.5 47.9302 30.8807 48.5494 29.5 48.5494C28.1193 48.5494 26.5 47.9302 26.5 46.5494C26.5 45.1687 28.1193 44.5494 29.5 44.5494C30.8807 44.5494 32.5 45.1687 32.5 46.5494Z" fill="#25316D"/>
<path d="M42 39.0494C42 40.4302 40.8807 42.0494 39.5 42.0494C38.1193 42.0494 37 40.9302 37 39.5494C37 38.1687 38.1193 37.0494 39.5 37.0494C40.8807 37.0494 42 37.6687 42 39.0494Z" fill="#25316D"/>
<circle cx="28.5" cy="14.5494" r="2.5" fill="#25316D"/>
<path d="M21 19.8494C21 20.4418 20.6104 21.2487 19.8778 21.9538C19.15 22.6543 18.2945 23.0494 17.6364 23.0494C16.144 23.0494 15 21.8945 15 20.5494C15 19.2044 16.144 18.0494 17.6364 18.0494C18.5196 18.0494 19.4353 18.2438 20.0922 18.6023C20.7341 18.9527 21 19.3705 21 19.8494Z" stroke="#25316D" stroke-width="2"/>
<path d="M54.2226 7.72644C54.2285 7.73134 54.2312 7.73354 54.2308 7.73306C54.2849 7.78699 54.3478 7.84782 54.4191 7.91678C54.5499 8.04321 54.7089 8.19694 54.8934 8.3855C55.0258 8.52086 55.1419 8.64527 55.2259 8.74441C55.2458 8.76788 55.2618 8.78749 55.2744 8.80342C55.3147 8.98709 55.2913 9.27286 55.0404 9.75086C54.7506 10.3032 54.2278 10.973 53.4586 11.8029C52.697 12.6245 51.7466 13.548 50.6415 14.614C50.5491 14.7031 50.4557 14.7931 50.3614 14.8841C49.3335 15.875 48.1907 16.9767 46.9855 18.198C44.0413 21.1814 41.4126 23.7247 39.3647 25.3533C38.3326 26.1741 37.5077 26.7135 36.902 26.9743C36.6355 27.089 36.4753 27.1253 36.3873 27.1347C36.3758 27.0327 36.3775 26.8156 36.4915 26.4094C36.684 25.7234 37.1234 24.7909 37.8219 23.6573C39.2102 21.4043 41.5014 18.5493 44.4091 15.6029C46.1215 13.8676 47.5777 12.2277 48.7905 10.8616C49.3776 10.2004 49.9077 9.60339 50.3823 9.09081C51.1316 8.28155 51.7332 7.69115 52.2368 7.31516C52.6443 7.01096 52.8902 6.92181 53.0221 6.90102C53.0379 6.9095 53.056 6.91942 53.0763 6.93093C53.2051 7.00387 53.3699 7.10891 53.545 7.22797C53.7176 7.3454 53.8872 7.4676 54.0224 7.56955C54.1383 7.657 54.2013 7.70894 54.2226 7.72644ZM55.3111 8.85336C55.311 8.85331 55.3091 8.85065 55.3061 8.84555C55.3097 8.85086 55.3113 8.8534 55.3111 8.85336ZM36.2968 27.1325C36.2972 27.132 36.3021 27.1327 36.3106 27.1361C36.3007 27.1348 36.2965 27.1331 36.2968 27.1325ZM52.935 6.85885C52.9348 6.85862 52.9387 6.86001 52.9472 6.86369C52.9393 6.86091 52.9351 6.85908 52.935 6.85885Z" fill="white" stroke="#25316D" stroke-width="2"/>
<path d="M37 26.0496C38.3555 27.3872 37.2121 30.6492 34.9996 32.8912C32.0637 34.6402 26.3709 39.404 25.5001 38.5493C24.6292 37.6945 28.0896 30.8759 30.0909 28.047C32.3034 25.8051 35.6445 24.7119 37 26.0496Z" fill="#CB2027"/>
</g>
<defs>
<clipPath id="clip0_1028_6033">
<rect width="52" height="54" fill="white" transform="translate(6 5.04944)"/>
</clipPath>
</defs>
</svg>
