<svg width="548" height="444" viewBox="0 0 548 444" fill="none" xmlns="http://www.w3.org/2000/svg">
<g clip-path="url(#clip0_247_13859)">
<path fill-rule="evenodd" clip-rule="evenodd" d="M263.782 20.1632C369.294 24.1023 402.956 15.1723 448.132 111.011C481.89 182.626 577.418 188.66 539.92 258.373C492.104 347.27 536.184 423.375 435.578 422.684C336.471 422.003 86.1035 441.923 33.2366 357.733C-11.4956 286.498 -1.68812 214.032 33.2369 137.466C78.2485 38.7869 155.778 16.131 263.782 20.1632Z" fill="#E2EEFF"/>
<path d="M56.2939 325.644C56.2939 320.757 60.2472 316.808 65.1147 316.808C69.981 316.808 73.9344 320.757 73.9344 325.644C73.9344 330.539 69.9742 334.532 65.1147 334.532C60.2541 334.532 56.2939 330.539 56.2939 325.644Z" stroke="#25316D" stroke-width="2"/>
<path d="M61.0373 250.418C65.6843 255.901 68.4996 262.959 68.4996 270.711C68.4996 287.852 54.6244 301.783 37.5346 301.783M30.9571 301.088C17.0202 298.062 6.56543 285.583 6.56543 270.711C6.56543 253.506 20.4406 239.579 37.5346 239.579C44.3631 239.579 50.6772 241.784 55.7975 245.566" stroke="#25316D" stroke-width="2" stroke-miterlimit="1.5" stroke-linecap="round" stroke-linejoin="round"/>
<path d="M35.4386 252.488C35.7267 251.571 36.5582 250.979 37.5049 250.979C38.4516 250.979 39.283 251.571 39.5794 252.488C41.1682 257.394 43.0986 263.38 43.0986 263.38H54.5165C55.4591 263.38 56.2906 263.972 56.5869 264.889C56.8792 265.752 56.554 266.777 55.7925 267.316C53.1459 269.257 51.7999 270.228 49.9559 271.576M46.5643 274.056C46.5643 274.056 48.4948 280.042 50.0918 284.947C50.3799 285.864 50.0589 286.836 49.2974 287.373C48.5318 287.968 47.5028 287.968 46.7414 287.373C42.5677 284.356 37.5049 280.635 37.5049 280.635C37.5049 280.635 37.5584 280.635 35.0229 282.469M31.9112 284.732C30.4212 285.811 29.812 286.298 28.2685 287.373C27.507 287.968 26.478 287.968 25.7124 287.373C24.951 286.836 24.6299 285.864 24.9262 284.947C26.515 280.042 28.4454 274.056 28.4454 274.056M25.2597 271.738C25.2597 271.738 23.391 270.336 19.2173 267.316C18.4558 266.777 18.1348 265.752 18.4229 264.89C18.7193 263.973 19.5507 263.381 20.4974 263.381H31.9112C31.9112 263.381 32.7797 260.685 34.1915 256.317" stroke="#25316D" stroke-width="2" stroke-miterlimit="1.5" stroke-linecap="round" stroke-linejoin="round"/>
<path d="M36.3243 253.673C36.6229 252.75 37.9286 252.75 38.2272 253.673L41.6309 264.193C41.7644 264.606 42.1487 264.885 42.5824 264.885H53.6062C54.5739 264.885 54.9773 266.123 54.1956 266.693L45.2698 273.206C44.9208 273.46 44.7748 273.91 44.9078 274.321L48.3154 284.853C48.6137 285.776 47.5574 286.54 46.7746 285.969L37.8651 279.468C37.514 279.212 37.0375 279.212 36.6863 279.468L27.7769 285.969C26.994 286.54 25.9377 285.776 26.236 284.853L29.6436 274.321C29.7766 273.91 29.6306 273.46 29.2816 273.206L20.3558 266.693C19.5741 266.123 19.9776 264.885 20.9452 264.885H31.9691C32.4028 264.885 32.787 264.606 32.9205 264.193L36.3243 253.673Z" fill="#CB2027"/>
<path d="M527.5 356.579H0" stroke="#25316D" stroke-width="2" stroke-linecap="round" stroke-linejoin="round"/>
<path d="M188.605 371.444C192.784 377.22 192.038 384.58 187.389 387.972C182.74 391.364 175.54 389.803 171.361 384.027C167.182 378.25 167.928 370.89 172.577 367.498C177.225 364.106 184.426 365.668 188.605 371.444Z" fill="white" stroke="#25316D" stroke-width="2"/>
<path d="M189 386C187.667 384.5 184.8 381.5 184 381.5" stroke="#25316D" stroke-width="2"/>
<path d="M301.554 352.222C303.317 361.073 306.087 380.443 303.065 387.119C299.288 395.464 287.957 411.395 273.604 409.877C259.252 408.36 267.561 398.498 271.338 397.739C275.115 396.981 282.669 400.015 281.914 402.291C281.158 404.567 270.583 420.498 244.144 418.222C217.705 415.946 210.906 401.533 207.129 397.739C204.108 394.705 194.287 389.395 189.755 387.119" stroke="#303030" stroke-width="2" stroke-linecap="round"/>
<path d="M185.667 376.349L185.675 376.344C185.973 376.141 186.073 375.785 185.963 375.493C183.467 368.974 177.13 363.586 171.252 359.785C168.335 357.898 165.577 356.431 163.547 355.435C162.533 354.938 161.703 354.559 161.128 354.306C160.84 354.179 160.617 354.084 160.466 354.02C160.454 354.015 160.442 354.01 160.43 354.005C155.905 354.135 152.726 355.119 150.49 356.462C148.228 357.822 146.875 359.585 146.064 361.333C145.249 363.093 144.977 364.854 144.913 366.187C144.882 366.851 144.902 367.4 144.929 367.78C144.943 367.969 144.958 368.115 144.97 368.211C144.976 368.259 144.98 368.294 144.984 368.316L144.986 368.334C145.181 369.382 145.946 370.478 147.175 371.572C148.392 372.655 149.955 373.639 151.528 374.475C153.095 375.308 154.637 375.977 155.791 376.438C156.366 376.668 156.843 376.845 157.173 376.964C157.339 377.024 157.468 377.069 157.554 377.099C157.598 377.114 157.631 377.125 157.652 377.132L157.676 377.14L157.681 377.142L157.682 377.142L157.682 377.142L157.682 377.142L158.019 377.254L158.211 377.554L158.211 377.554L158.211 377.554L158.211 377.555L158.214 377.559L158.224 377.575L158.267 377.641C158.304 377.699 158.36 377.785 158.431 377.894C158.574 378.113 158.781 378.428 159.035 378.806C159.545 379.563 160.24 380.573 160.99 381.588C161.744 382.608 162.537 383.612 163.242 384.37C163.596 384.75 163.908 385.047 164.167 385.249C164.419 385.446 164.534 385.483 164.533 385.486C164.533 385.486 164.533 385.486 164.533 385.486C165.122 385.558 165.676 385.349 166.133 385.062C166.358 384.921 166.54 384.772 166.664 384.659C166.725 384.603 166.771 384.558 166.799 384.529C166.807 384.521 166.813 384.515 166.818 384.509C166.822 384.505 166.825 384.502 166.827 384.5C166.828 384.499 166.829 384.498 166.829 384.497L166.83 384.496L185.667 376.349ZM185.667 376.349C185.331 376.551 184.883 376.471 184.635 376.149C183.652 374.857 182.021 372.824 180.093 370.814C178.175 368.815 175.907 366.782 173.647 365.549L172.645 367.262C172.637 367.274 172.637 367.274 172.637 367.274L172.638 367.274L172.639 367.275L172.655 367.286C172.67 367.295 172.694 367.311 172.726 367.332C172.79 367.375 172.887 367.44 173.01 367.528C173.256 367.703 173.605 367.964 174.01 368.303C174.823 368.985 175.836 369.962 176.675 371.161C177.514 372.36 178.151 373.741 178.28 375.243C178.407 376.714 178.055 378.385 176.786 380.219L185.667 376.349ZM173.88 381.882L174.404 382.734C173.88 381.882 173.88 381.882 173.88 381.882L173.88 381.882ZM167.578 385.16C166.827 384.5 166.827 384.5 166.827 384.5L166.827 384.5L167.578 385.16Z" fill="white" stroke="#25316D" stroke-width="2"/>
<path fill-rule="evenodd" clip-rule="evenodd" d="M170.104 237.586C208 268 164 318 164 318C164 318 162.815 323.144 162.5 326.5C161.383 338.395 168.5 356.5 168.5 356.5C168.5 356.5 152.159 366.85 147.5 376.5C147.278 376.959 146 378 145.5 378C145.5 378 136.475 363.121 134.5 356.5C126 328 126.5 309.5 126.5 309.5C133 294.5 136.525 285.319 143.5 270C149.846 256.053 161.722 247.242 170.104 237.586Z" fill="#58B9FD"/>
<path fill-rule="evenodd" clip-rule="evenodd" d="M313.706 106.724C311.59 106.724 309.874 108.429 309.874 110.565C309.874 112.681 311.59 114.406 313.706 114.406C315.818 114.406 317.534 112.681 317.534 110.565C317.535 110.06 317.436 109.56 317.244 109.093C317.052 108.627 316.77 108.203 316.414 107.846C316.059 107.489 315.636 107.206 315.172 107.014C314.707 106.821 314.209 106.722 313.706 106.724ZM313.706 107.997C315.114 107.997 316.258 109.148 316.258 110.565C316.258 111.982 315.114 113.132 313.706 113.132C312.298 113.132 311.154 111.982 311.154 110.565C311.154 109.148 312.298 107.997 313.706 107.997Z" fill="#25316D"/>
<path fill-rule="evenodd" clip-rule="evenodd" d="M222.568 210.253C222.568 210.253 227.805 205.933 230.45 206.633L230.641 210.077C230.641 210.077 238.488 215.506 249.148 215.682C259.814 215.916 268.067 210.778 269.828 206.633C269.828 206.633 276.1 208.033 276.355 212.236C276.355 212.236 309.486 222.451 317.866 228.175C326.241 233.833 330.561 237.57 332.474 247.378C334.381 257.126 341.285 288.646 342.859 313.979C326.003 308.607 312.055 308.493 294.828 308.493C254.052 260.096 225.881 318.799 188.409 355.719C188.409 355.719 200.203 287.404 196.024 287.928C191.851 288.395 134.447 310.71 134.447 310.71C134.447 310.71 133.453 294.937 134.447 290.5C135.44 286.063 154.837 238.27 159.271 231.793C163.706 225.253 171.553 220.058 185.526 217.141C199.505 214.223 222.568 210.253 222.568 210.253Z" fill="#58B9FD"/>
<path d="M197.395 265.482C200.628 280.73 200.143 298.048 195.176 312.878M207.503 263.34C209.505 270.18 209.776 277.281 209.752 284.367C209.76 293.45 208.9 302.662 205.805 311.271" stroke="#25316D" stroke-width="2" stroke-miterlimit="1.5" stroke-linecap="round" stroke-linejoin="round"/>
<path d="M222.855 214.557C225.75 219.051 230.708 221.796 235.555 223.665C247.511 228.217 264.303 227.692 272.87 216.95M269.743 206.619C270.458 206.619 271.179 206.735 271.865 206.911C274.306 207.727 275.544 209.714 276.149 212.045M216.188 215.958C218.048 218.527 220.077 221.153 222.437 223.255C225.529 226 229.284 228.041 233.155 229.442" stroke="#25316D" stroke-width="2" stroke-miterlimit="1.5" stroke-linecap="round" stroke-linejoin="round"/>
<path d="M230.434 207C227.801 207.058 224.424 208.225 223 210.618" stroke="#25316D" stroke-width="2" stroke-miterlimit="1.5" stroke-linecap="round" stroke-linejoin="round"/>
<path d="M130.5 311.5C132.5 320.5 143.498 320.536 148 322.5C152.918 324.682 157.977 325.478 162.352 328.638M137.5 364.001C143 354.001 146.904 350.518 160.5 349.001" stroke="#25316D" stroke-width="2" stroke-miterlimit="1.5" stroke-linecap="round" stroke-linejoin="round"/>
<path d="M269.302 186.606L229.069 176.606L230.069 209.606C230.069 209.606 241.779 215.708 250.069 215.606C258.82 215.499 269.303 209.894 269.303 209.894L269.302 186.606Z" fill="white"/>
<path d="M224.84 156.888C224.84 177.871 242.932 197.069 258.255 197.069C279.519 181.951 283.772 176.581 283.772 159.275C292.44 146.242 282.618 110.586 253.914 110.586C216.143 110.586 218.41 145.483 224.84 156.888Z" fill="white"/>
<path d="M260.222 150.83C260.199 154.391 260.612 157.834 261.844 161.161C262.146 162.036 262.472 162.854 262.884 163.613C262.913 163.672 263.303 164.313 263.285 164.313C263.018 164.664 262.036 164.663 261.664 164.663C260.077 164.78 258.49 164.255 257.002 163.729M250.673 147.912C247.639 146.219 243.995 146.219 241.106 148.203M276.59 149.137C273.341 147.386 269.9 147.327 266.488 148.553M261.896 176.747C257.554 176.922 253.3 176.105 249.714 173.537M230.637 148.554C231.306 155.208 231.835 161.63 232.399 168.284M239.955 139.156C238.217 143.359 234.584 146.336 230.387 147.854M222.941 141.689C228.7 133.226 234.596 118.057 244.849 115.138C250.103 113.679 255.603 111.227 257.004 117.414C257.236 118.465 273.22 133.803 282.617 137.138" stroke="#25316D" stroke-width="2" stroke-miterlimit="1.5" stroke-linecap="round" stroke-linejoin="round"/>
<path d="M290.578 135.212C290.52 146.011 279.786 140.148 271.341 139.681C269.574 139.565 267.836 139.272 266.086 138.98M262.878 141.549C256.374 143.067 248.103 142.426 243.191 137.289M226.696 157.135C226.696 157.135 228.317 172.953 228.742 177.156C228.809 177.793 229.088 178.389 229.532 178.849C236.455 186.32 244.854 191.399 254.676 194.259C255.333 194.434 256.037 194.435 256.676 194.201C264.087 191.399 271.172 187.138 277.874 181.125C278.443 180.6 278.798 179.9 278.862 179.141C279.396 172.72 281.89 142.659 281.89 142.659" stroke="#25316D" stroke-width="2" stroke-miterlimit="1.5" stroke-linecap="round" stroke-linejoin="round"/>
<path d="M269.494 187.663L268.924 209.729C268.924 209.729 248.755 222.451 231.336 209.729M229.569 179.608L229.894 205.992" stroke="#25316D" stroke-width="2" stroke-miterlimit="1.5" stroke-linecap="round" stroke-linejoin="round"/>
<path d="M270.878 155.705C270.645 155.708 270.413 155.665 270.197 155.578C269.98 155.49 269.783 155.361 269.617 155.196C269.451 155.032 269.319 154.836 269.229 154.619C269.139 154.403 269.092 154.171 269.092 153.937C269.092 153.702 269.139 153.47 269.229 153.254C269.319 153.038 269.451 152.842 269.617 152.678C269.783 152.513 269.981 152.383 270.197 152.296C270.414 152.209 270.646 152.166 270.879 152.169C271.341 152.176 271.782 152.365 272.107 152.696C272.431 153.027 272.613 153.473 272.613 153.937C272.613 154.402 272.431 154.847 272.107 155.178C271.782 155.509 271.341 155.698 270.878 155.705ZM246.47 155.705C246.003 155.705 245.556 155.519 245.225 155.187C244.895 154.855 244.71 154.406 244.71 153.937C244.71 153.468 244.895 153.018 245.225 152.686C245.556 152.355 246.003 152.168 246.47 152.168C246.933 152.175 247.374 152.365 247.699 152.695C248.023 153.026 248.205 153.472 248.205 153.937C248.205 154.401 248.023 154.847 247.699 155.178C247.374 155.509 246.933 155.698 246.47 155.705Z" fill="#25316D"/>
<path fill-rule="evenodd" clip-rule="evenodd" d="M234.105 184.526C234.105 184.526 245.085 198.593 255.175 199.351C263.766 200.052 269.119 193.222 269.119 193.222V188.086C269.119 188.086 257.099 194.915 255.175 194.39C253.257 193.806 234.105 184.526 234.105 184.526Z" fill="#25316D"/>
<path d="M223.306 143.55L213.072 144.661C210.327 144.959 208.341 147.426 208.636 150.172L211.388 175.754C211.684 178.499 214.149 180.483 216.894 180.185L227.129 179.075L223.306 143.55Z" fill="white" stroke="#25316D" stroke-width="2"/>
<path d="M284.425 143.522L294.689 144.307C297.443 144.517 299.506 146.92 299.297 149.673L297.351 175.33C297.143 178.084 294.741 180.145 291.988 179.935L281.724 179.15L284.425 143.522Z" fill="white" stroke="#25316D" stroke-width="2"/>
<mask id="path-27-inside-1_247_13859" fill="white">
<path d="M290.638 145.768C292.831 145.915 294.754 144.261 294.688 142.064C294.557 137.699 293.679 133.373 292.079 129.26C289.994 123.903 286.732 119.029 282.511 114.963C278.289 110.898 273.205 107.734 267.596 105.683C261.987 103.631 255.983 102.739 249.983 103.066C243.983 103.393 238.125 104.931 232.8 107.578C227.474 110.225 222.803 113.92 219.098 118.417C215.392 122.914 212.738 128.11 211.31 133.658C210.211 137.934 209.859 142.343 210.261 146.71C210.461 148.882 212.54 150.29 214.687 149.909L215.277 149.804C217.481 149.412 218.907 147.287 218.771 145.053C218.578 141.885 218.882 138.7 219.679 135.603C220.815 131.184 222.929 127.046 225.88 123.465C228.831 119.884 232.551 116.941 236.792 114.833C241.033 112.725 245.698 111.501 250.476 111.24C255.254 110.98 260.035 111.691 264.502 113.324C268.968 114.958 273.017 117.478 276.379 120.715C279.741 123.953 282.339 127.834 283.999 132.1C285.168 135.104 285.853 138.25 286.039 141.432C286.168 143.649 287.811 145.579 290.027 145.727L290.638 145.768Z"/>
</mask>
<path d="M290.638 145.768C292.831 145.915 294.754 144.261 294.688 142.064C294.557 137.699 293.679 133.373 292.079 129.26C289.994 123.903 286.732 119.029 282.511 114.963C278.289 110.898 273.205 107.734 267.596 105.683C261.987 103.631 255.983 102.739 249.983 103.066C243.983 103.393 238.125 104.931 232.8 107.578C227.474 110.225 222.803 113.92 219.098 118.417C215.392 122.914 212.738 128.11 211.31 133.658C210.211 137.934 209.859 142.343 210.261 146.71C210.461 148.882 212.54 150.29 214.687 149.909L215.277 149.804C217.481 149.412 218.907 147.287 218.771 145.053C218.578 141.885 218.882 138.7 219.679 135.603C220.815 131.184 222.929 127.046 225.88 123.465C228.831 119.884 232.551 116.941 236.792 114.833C241.033 112.725 245.698 111.501 250.476 111.24C255.254 110.98 260.035 111.691 264.502 113.324C268.968 114.958 273.017 117.478 276.379 120.715C279.741 123.953 282.339 127.834 283.999 132.1C285.168 135.104 285.853 138.25 286.039 141.432C286.168 143.649 287.811 145.579 290.027 145.727L290.638 145.768Z" fill="white" stroke="#25316D" stroke-width="4" mask="url(#path-27-inside-1_247_13859)"/>
<path fill-rule="evenodd" clip-rule="evenodd" d="M322.814 304.654L322.444 307.919C322.444 307.919 338.093 327.761 348.647 329.199C359.221 330.658 365.642 318.171 369.795 307.919C373.948 297.672 376.912 286.313 374.051 283.622C374.051 283.622 375.582 276.268 374.051 275.591H353.475L327.54 242.232L322.65 237.632C322.65 237.632 320.686 233.746 316.105 229.27C310.174 243.464 305.119 265.567 306.469 298.966L320.666 302.496C320.974 302.744 321.769 303.67 322.814 304.654Z" fill="#58B9FD"/>
<mask id="path-29-inside-2_247_13859" fill="white">
<path d="M330.029 264.871C332.108 265.194 334.229 265.104 336.272 264.606C338.316 264.109 340.241 263.214 341.939 261.972C343.637 260.731 345.073 259.167 346.166 257.37C347.259 255.574 347.988 253.579 348.311 251.501C348.633 249.423 348.543 247.301 348.046 245.258C347.548 243.214 346.653 241.289 345.412 239.591C344.17 237.894 342.607 236.457 340.81 235.364C339.013 234.271 337.019 233.542 334.941 233.22L333.483 242.615C334.327 242.746 335.137 243.042 335.867 243.487C336.597 243.931 337.233 244.514 337.737 245.204C338.242 245.894 338.605 246.676 338.807 247.507C339.009 248.337 339.046 249.199 338.915 250.043C338.784 250.888 338.488 251.698 338.044 252.428C337.6 253.158 337.016 253.793 336.326 254.298C335.636 254.802 334.854 255.166 334.024 255.368C333.194 255.57 332.332 255.607 331.487 255.476L330.029 264.871Z"/>
</mask>
<path d="M330.029 264.871C332.108 265.194 334.229 265.104 336.272 264.606C338.316 264.109 340.241 263.214 341.939 261.972C343.637 260.731 345.073 259.167 346.166 257.37C347.259 255.574 347.988 253.579 348.311 251.501C348.633 249.423 348.543 247.301 348.046 245.258C347.548 243.214 346.653 241.289 345.412 239.591C344.17 237.894 342.607 236.457 340.81 235.364C339.013 234.271 337.019 233.542 334.941 233.22L333.483 242.615C334.327 242.746 335.137 243.042 335.867 243.487C336.597 243.931 337.233 244.514 337.737 245.204C338.242 245.894 338.605 246.676 338.807 247.507C339.009 248.337 339.046 249.199 338.915 250.043C338.784 250.888 338.488 251.698 338.044 252.428C337.6 253.158 337.016 253.793 336.326 254.298C335.636 254.802 334.854 255.166 334.024 255.368C333.194 255.57 332.332 255.607 331.487 255.476L330.029 264.871Z" fill="white" stroke="#25316D" stroke-width="4" mask="url(#path-29-inside-2_247_13859)"/>
<path d="M337.175 232.345L337.176 232.343C337.268 231.73 337.089 231.104 336.687 230.632C336.487 230.401 336.241 230.216 335.965 230.089C335.689 229.962 335.389 229.896 335.085 229.896C335.085 229.896 335.085 229.896 335.085 229.896C335.085 229.896 335.085 229.896 335.085 229.896L301.027 229.896C300.414 229.896 299.828 230.165 299.426 230.632C299.227 230.864 299.081 231.138 298.996 231.433C298.911 231.729 298.891 232.039 298.937 232.344L337.175 232.345ZM337.175 232.345C336.631 236.003 335.737 242.007 334.816 248.189C333.663 255.93 332.468 263.95 331.867 267.997L331.867 267.997M337.175 232.345L331.867 267.997M331.867 267.997C331.715 269.03 330.827 269.796 329.777 269.796H306.373C305.329 269.796 304.439 269.031 304.283 267.995L331.867 267.997ZM304.283 267.995C303.865 265.208 303.162 260.519 302.385 255.333C301.138 247.015 299.699 237.419 298.937 232.344L304.283 267.995Z" fill="white" stroke="#25316D" stroke-width="2"/>
<path d="M323.103 178.579C326.294 184.209 326.122 190.167 323.103 195.774C318.172 204.943 308.12 211.94 310.394 222.387C310.789 224.167 311.587 225.922 312.734 227.55M332.892 195.324C334.435 199.19 333.861 203.116 331.554 206.691C327.79 212.536 321.02 216.713 321.62 223.717C321.725 224.909 322.081 226.107 322.668 227.239" stroke="#25316D" stroke-width="2" stroke-miterlimit="1.5" stroke-linecap="round" stroke-linejoin="round"/>
<path fill-rule="evenodd" clip-rule="evenodd" d="M351.344 279.099C351.344 279.099 363.441 282.224 373.18 275.114C373.18 275.114 375.621 260.122 371.282 247.961C369.739 243.645 355.786 240.71 355.786 240.71C355.786 240.71 351.455 242.004 349.817 243.811C349.817 243.811 341.408 244.245 338.066 244.427C337.309 244.468 336.716 245.084 336.716 245.844V250.9C336.716 251.536 337.144 252.111 337.761 252.276C338.918 252.603 340.626 253.074 340.626 253.074C340.626 253.074 339.675 258.109 341.811 259.692C341.811 259.692 340.194 263.735 342.223 265.669C342.223 265.669 340.486 270.001 342.964 272.179C345.446 274.358 350.566 274.829 351.344 279.099Z" fill="white"/>
<path d="M349.76 244.168L349.765 244.169C349.763 244.168 349.762 244.168 349.76 244.168Z" fill="#25316D" stroke="#25316D" stroke-width="2" stroke-linecap="round" stroke-linejoin="round"/>
<path d="M361.5 245.079L350.5 244.079H339C338.167 244.079 336.5 244.579 336.5 246.579C336.5 248.579 336.5 250.079 336.5 250.579C336.333 250.745 336.4 251.279 338 252.079C339.6 252.879 340.667 253.079 341 253.079L350 254.079M340.5 253.579C340.167 255.412 340 259.179 342 259.579C344 259.979 348.167 259.745 350 259.579M341.5 260.579C341 262.079 340.6 265.179 343 265.579C345.4 265.979 348 266.079 349 266.079M342 266.579C341.333 268.245 341 271.879 345 273.079C349 274.279 351 277.579 351.5 279.079C352.167 279.412 354.9 279.979 360.5 279.579C366.1 279.179 371.5 276.412 373.5 275.079C374.167 267.245 374.6 250.579 371 246.579C367.4 242.579 359.5 240.912 356 240.579C354.333 241.079 350.9 242.279 350.5 243.079M346.5 275.079C343.667 280.412 337.9 292.079 337.5 296.079C337 301.079 335 309.579 341 315.579M371 285.579C367 286.745 357.6 288.679 352 287.079" stroke="#25316D" stroke-width="2" stroke-linecap="round" stroke-linejoin="round"/>
<path d="M315.08 197.439C313.088 200.955 313.195 204.675 315.08 208.176C318.159 213.901 324.436 218.27 323.016 224.793C322.769 225.905 322.271 227 321.554 228.017M308.967 207.895C308.004 210.309 308.362 212.76 309.803 214.992C312.153 218.642 316.38 221.251 316.006 225.624C315.94 226.368 315.718 227.116 315.351 227.823" stroke="#25316D" stroke-width="0.004" stroke-miterlimit="1.5" stroke-linecap="round" stroke-linejoin="round"/>
<path fill-rule="evenodd" clip-rule="evenodd" d="M272.426 382.709C272.809 382.217 272.879 381.539 272.603 380.964C272.332 380.41 271.759 380.059 271.134 380.059H223.796C223.167 380.059 222.594 380.41 222.321 380.985C222.187 381.265 222.134 381.577 222.169 381.886C222.203 382.194 222.324 382.487 222.518 382.729C225.705 386.735 231.356 393.845 231.356 393.845H263.803C263.803 393.845 269.323 386.714 272.426 382.709Z" fill="white"/>
<path fill-rule="evenodd" clip-rule="evenodd" d="M272.928 383.101C273.463 382.402 273.561 381.476 273.179 380.695C272.995 380.307 272.705 379.979 272.343 379.75C271.98 379.521 271.561 379.4 271.133 379.401H223.796C223.367 379.403 222.948 379.525 222.586 379.754C222.223 379.982 221.932 380.309 221.745 380.695C221.365 381.497 221.47 382.444 222.016 383.122C225.203 387.127 230.856 394.253 230.856 394.253C230.977 394.398 231.16 394.481 231.355 394.481H263.802C264 394.481 264.185 394.398 264.309 394.233L272.928 383.101ZM271.923 382.32L263.489 393.203H231.663L223.016 382.32C222.898 382.17 222.825 381.991 222.803 381.802C222.782 381.612 222.814 381.421 222.895 381.249C222.981 381.083 223.11 380.944 223.269 380.847C223.427 380.749 223.609 380.697 223.796 380.695H271.133C271.516 380.695 271.861 380.902 272.03 381.249C272.195 381.6 272.154 382.01 271.923 382.32ZM330.034 285.11C330.231 284.002 329.927 282.849 329.202 281.981C328.846 281.553 328.4 281.209 327.896 280.973C327.393 280.737 326.844 280.616 326.288 280.617H174.176C173.041 280.617 171.965 281.138 171.243 282.006C170.521 282.894 170.226 284.043 170.439 285.151C173.429 300.801 183.249 352.111 185.767 365.289C186.112 367.087 187.679 368.394 189.503 368.394H312.199C314.043 368.394 315.623 367.067 315.944 365.244C318.278 351.962 327.301 300.648 330.034 285.11Z" fill="#25316D"/>
<path fill-rule="evenodd" clip-rule="evenodd" d="M263.765 337.363C263.765 328.426 256.545 321.172 247.635 321.172C238.725 321.172 231.503 328.426 231.503 337.363V393.845H263.765V337.363Z" fill="white"/>
<path fill-rule="evenodd" clip-rule="evenodd" d="M264.407 337.363C264.407 328.071 256.895 320.527 247.635 320.527C238.372 320.527 230.863 328.071 230.863 337.363V393.844C230.863 394.2 231.15 394.485 231.503 394.485H263.769C264.119 394.485 264.407 394.2 264.407 393.844V337.363ZM263.127 337.363V393.224H232.141V337.363C232.141 328.782 239.078 321.812 247.635 321.812C256.191 321.812 263.127 328.782 263.127 337.363Z" fill="#25316D"/>
<path fill-rule="evenodd" clip-rule="evenodd" d="M315.607 285.16H179.537C179.066 285.16 178.601 285.266 178.176 285.469C177.751 285.672 177.376 285.967 177.078 286.334C176.78 286.699 176.566 287.126 176.452 287.584C176.338 288.042 176.326 288.52 176.417 288.983L191.054 362.557C191.124 362.888 191.459 363.115 191.807 363.053C192.153 362.991 192.377 362.64 192.308 362.292C192.308 362.292 180.506 302.992 177.672 288.735C177.561 288.181 177.704 287.586 178.066 287.152C178.243 286.932 178.468 286.755 178.722 286.634C178.977 286.513 179.255 286.452 179.537 286.453H315.607C315.956 286.453 316.244 286.168 316.244 285.817C316.244 285.449 315.956 285.16 315.607 285.16Z" fill="white"/>
<path fill-rule="evenodd" clip-rule="evenodd" d="M254.846 337.301C254.846 333.3 251.617 330.059 247.636 330.059C243.654 330.059 240.427 333.3 240.427 337.301V350.252C240.427 354.245 243.654 357.485 247.636 357.485C251.617 357.485 254.846 354.245 254.846 350.252V337.301ZM294.327 346.209C294.327 345.82 294.014 345.51 293.632 345.51H291.018C290.631 345.51 290.322 345.82 290.322 346.209V352.843C290.322 353.232 290.631 353.542 291.018 353.542H293.632C294.014 353.542 294.327 353.232 294.327 352.843V346.209ZM304.235 346.209C304.235 345.82 303.922 345.51 303.539 345.51H300.925C300.538 345.51 300.23 345.82 300.23 346.209V352.843C300.23 353.232 300.538 353.542 300.925 353.542H303.539C303.922 353.542 304.235 353.232 304.235 352.843V346.209Z" fill="#25316D"/>
<path fill-rule="evenodd" clip-rule="evenodd" d="M437.849 205.583C437.849 205.583 438.99 204.922 440.286 204.174C442.319 202.992 443.023 200.383 441.842 198.332C441.558 197.842 441.27 197.336 440.986 196.845C440.707 196.358 440.336 195.932 439.893 195.589C439.45 195.247 438.943 194.996 438.404 194.851C437.864 194.705 437.3 194.668 436.746 194.742C436.192 194.816 435.658 194.998 435.174 195.28L432.737 196.691L437.849 205.583Z" fill="#25316D"/>
<path fill-rule="evenodd" clip-rule="evenodd" d="M513.959 347.767C513.959 345.217 511.901 343.15 509.361 343.15H473.379C470.839 343.15 468.781 345.217 468.781 347.767V357.729H513.959V347.767Z" fill="#25316D"/>
<path fill-rule="evenodd" clip-rule="evenodd" d="M426.148 235.429C439.303 227.802 444.37 211.892 437.467 199.884C430.564 187.877 414.306 184.328 401.155 191.955L426.148 235.429Z" fill="#CB2027"/>
<path fill-rule="evenodd" clip-rule="evenodd" d="M425.592 235.751C425.769 236.053 426.16 236.16 426.465 235.982C439.936 228.17 445.086 211.854 438.018 199.561C430.951 187.271 414.31 183.591 400.834 191.403C400.529 191.58 400.426 191.973 400.599 192.275L425.592 235.751ZM426.382 234.556L402.032 192.203C414.767 185.176 430.276 188.66 436.911 200.206C443.55 211.751 438.809 226.996 426.382 234.556Z" fill="#25316D"/>
<path d="M493.426 344.635V264.98L439.037 202.015" stroke="#25316D" stroke-width="2" stroke-linecap="round"/>
<path d="M400 81.4995L374 108.5L393.999 113L418.999 84.5L400 81.4995Z" fill="white"/>
<path d="M373.873 109.337L400.054 81.9297M373.873 109.337L374.632 112.213L376.104 112.719L377.639 113.987C381.456 114.823 389.83 116.618 392.793 117.108C395.756 117.598 398.276 115.403 399.165 114.244L400.016 114.457C402.64 111.55 408.49 105.108 410.896 102.595C413.903 99.4554 414.942 99.64 422.236 97.7973C428.07 96.3231 428.242 87.632 427.598 83.4707M373.873 109.337L393.728 113.309L419.298 84.6905M400.054 81.9297L408.59 80.6753L410.061 81.1817L411.562 80.5757L424.952 82.5106L425.393 83.2166L427.598 83.4707M400.054 81.9297L419.298 84.6905M427.598 83.4707L419.298 84.6905" stroke="#25316D" stroke-width="2"/>
<path d="M399.696 107.995L416.456 89.3196L416.455 98.2042C416.455 98.2042 415.596 98.4362 414.395 98.8594C408.652 104.528 399.696 113.361 399.696 113.361L399.696 107.995Z" fill="#CB2027"/>
<rect x="381.516" y="106" width="2.25421" height="1.93218" transform="rotate(15.4646 381.516 106)" fill="#25316D"/>
<path d="M387.236 107L388.21 109.385L385.365 108.807L387.236 107Z" fill="#25316D"/>
<rect x="390" y="108.1" width="2.25421" height="2.25421" rx="1.12711" transform="rotate(-8.36037 390 108.1)" fill="#25316D"/>
<ellipse cx="397.511" cy="97.2672" rx="5.43099" ry="9.5" transform="rotate(38.7856 397.511 97.2672)" fill="#CB2027"/>
<path d="M397.369 96.4843C397.069 96.2258 397.053 95.7462 397.335 95.4186C397.617 95.091 398.094 95.0345 398.394 95.293L398.94 95.763C399.241 96.0215 399.256 96.501 398.974 96.8286C398.692 97.1562 398.708 97.6358 399.008 97.8943C399.309 98.1528 399.785 98.0962 400.067 97.7686C400.836 96.8752 400.849 95.6434 400.213 94.8365L400.751 94.2111C401.033 93.8835 401.017 93.404 400.717 93.1455C400.416 92.887 399.94 92.9435 399.658 93.2711L399.12 93.8965C398.227 93.3874 397.011 93.5852 396.243 94.4787C395.397 95.4614 395.443 96.9 396.344 97.6755L396.891 98.1455C397.191 98.404 397.206 98.8836 396.925 99.2112C396.643 99.5388 396.166 99.5953 395.866 99.3368L395.32 98.8668C395.019 98.6083 395.004 98.1288 395.286 97.8012C395.567 97.4736 395.552 96.994 395.252 96.7355C394.951 96.477 394.475 96.5336 394.193 96.8612C393.424 97.7546 393.41 98.9864 394.047 99.7933L393.509 100.419C393.227 100.746 393.243 101.226 393.543 101.484C393.844 101.743 394.32 101.686 394.602 101.359L395.14 100.733C396.033 101.242 397.249 101.045 398.017 100.151C398.863 99.1684 398.817 97.7298 397.915 96.9543L397.369 96.4843Z" fill="white"/>
<path d="M127 143L120.297 153.055C120.111 153.333 119.799 153.5 119.465 153.5L112 153.5M113 161L125.5 161M113 170L128 170C128.552 170 129 170.448 129 171L129 176" stroke="#25316D" stroke-width="2"/>
<circle cx="129" cy="140" r="3" transform="rotate(90 129 140)" stroke="#25316D" stroke-width="2"/>
<circle cx="129" cy="161" r="3" transform="rotate(90 129 161)" stroke="#25316D" stroke-width="2"/>
<circle cx="129" cy="180" r="3" transform="rotate(90 129 180)" stroke="#25316D" stroke-width="2"/>
<path d="M82.1104 138.571C82.1104 137.151 83.1288 136 84.3851 136H105.616C106.872 136 107.891 137.151 107.891 138.571V181.429C107.891 182.849 106.872 184 105.616 184H84.3851C83.1288 184 82.1104 182.849 82.1104 181.429V138.571Z" fill="white"/>
<path d="M80 136.786C80 135.247 81.1851 134 82.6471 134H107.353C108.815 134 110 135.247 110 136.786V183.214C110 184.753 108.815 186 107.353 186H82.6471C81.1851 186 80 184.753 80 183.214V136.786Z" stroke="#25316D" stroke-width="2"/>
<path d="M92 139H99" stroke="#25316D" stroke-width="2" stroke-linecap="round"/>
<path d="M89.1429 152.857C88.75 152.857 88.4286 152.568 88.4286 152.214C88.4286 151.861 88.75 151.571 89.1429 151.571H89.8571C90.25 151.571 90.5714 151.861 90.5714 152.214C90.5714 152.568 90.8929 152.857 91.2857 152.857C91.6786 152.857 92 152.568 92 152.214C92 151.25 91.2143 150.479 90.2143 150.318V149.643C90.2143 149.289 89.8929 149 89.5 149C89.1071 149 88.7857 149.289 88.7857 149.643V150.318C87.7857 150.479 87 151.25 87 152.214C87 153.275 87.9643 154.143 89.1429 154.143H89.8571C90.25 154.143 90.5714 154.432 90.5714 154.786C90.5714 155.139 90.25 155.429 89.8571 155.429H89.1429C88.75 155.429 88.4286 155.139 88.4286 154.786C88.4286 154.432 88.1071 154.143 87.7143 154.143C87.3214 154.143 87 154.432 87 154.786C87 155.75 87.7857 156.521 88.7857 156.682V157.357C88.7857 157.711 89.1071 158 89.5 158C89.8929 158 90.2143 157.711 90.2143 157.357V156.682C91.2143 156.521 92 155.75 92 154.786C92 153.725 91.0357 152.857 89.8571 152.857H89.1429Z" fill="#25316D"/>
<path d="M97.9802 155.68C97.9802 155.92 97.9202 156.14 97.8002 156.34C97.6802 156.54 97.5202 156.7 97.3202 156.82C97.1202 156.94 96.9002 157 96.6602 157H94.7402C94.5002 157 94.2768 156.94 94.0702 156.82C93.8702 156.7 93.7102 156.54 93.5902 156.34C93.4702 156.14 93.4102 155.92 93.4102 155.68V155.38C93.4102 155.254 93.4535 155.147 93.5402 155.06C93.6335 154.967 93.7435 154.92 93.8702 154.92H94.1502C94.2702 154.92 94.3735 154.967 94.4602 155.06C94.5535 155.147 94.6002 155.254 94.6002 155.38V155.68C94.6002 155.714 94.6135 155.747 94.6402 155.78C94.6735 155.807 94.7068 155.82 94.7402 155.82H96.6602C96.6935 155.82 96.7235 155.807 96.7502 155.78C96.7768 155.747 96.7902 155.714 96.7902 155.68V154.62C96.7902 154.534 96.7502 154.49 96.6702 154.49H94.7402C94.5002 154.49 94.2768 154.43 94.0702 154.31C93.8702 154.19 93.7102 154.03 93.5902 153.83C93.4702 153.624 93.4102 153.4 93.4102 153.16V151.57C93.4102 151.324 93.4702 151.1 93.5902 150.9C93.7102 150.7 93.8702 150.54 94.0702 150.42C94.2768 150.3 94.5002 150.24 94.7402 150.24H96.6602C96.9002 150.24 97.1202 150.3 97.3202 150.42C97.5202 150.54 97.6802 150.7 97.8002 150.9C97.9202 151.1 97.9802 151.324 97.9802 151.57V155.68ZM96.7902 153.17V151.57C96.7902 151.477 96.7468 151.43 96.6602 151.43H94.7402C94.7068 151.43 94.6735 151.444 94.6402 151.47C94.6135 151.497 94.6002 151.53 94.6002 151.57V153.16C94.6002 153.2 94.6135 153.234 94.6402 153.26C94.6735 153.287 94.7068 153.3 94.7402 153.3H96.6702C96.7502 153.3 96.7902 153.257 96.7902 153.17Z" fill="#25316D"/>
<path d="M103.371 155.68C103.371 155.92 103.311 156.14 103.191 156.34C103.071 156.54 102.911 156.7 102.711 156.82C102.511 156.94 102.291 157 102.051 157H100.131C99.8908 157 99.6674 156.94 99.4608 156.82C99.2608 156.7 99.1008 156.54 98.9808 156.34C98.8608 156.14 98.8008 155.92 98.8008 155.68V155.38C98.8008 155.254 98.8441 155.147 98.9308 155.06C99.0241 154.967 99.1341 154.92 99.2608 154.92H99.5408C99.6608 154.92 99.7641 154.967 99.8508 155.06C99.9441 155.147 99.9908 155.254 99.9908 155.38V155.68C99.9908 155.714 100.004 155.747 100.031 155.78C100.064 155.807 100.097 155.82 100.131 155.82H102.051C102.084 155.82 102.114 155.807 102.141 155.78C102.167 155.747 102.181 155.714 102.181 155.68V154.62C102.181 154.534 102.141 154.49 102.061 154.49H100.131C99.8908 154.49 99.6674 154.43 99.4608 154.31C99.2608 154.19 99.1008 154.03 98.9808 153.83C98.8608 153.624 98.8008 153.4 98.8008 153.16V151.57C98.8008 151.324 98.8608 151.1 98.9808 150.9C99.1008 150.7 99.2608 150.54 99.4608 150.42C99.6674 150.3 99.8908 150.24 100.131 150.24H102.051C102.291 150.24 102.511 150.3 102.711 150.42C102.911 150.54 103.071 150.7 103.191 150.9C103.311 151.1 103.371 151.324 103.371 151.57V155.68ZM102.181 153.17V151.57C102.181 151.477 102.137 151.43 102.051 151.43H100.131C100.097 151.43 100.064 151.444 100.031 151.47C100.004 151.497 99.9908 151.53 99.9908 151.57V153.16C99.9908 153.2 100.004 153.234 100.031 153.26C100.064 153.287 100.097 153.3 100.131 153.3H102.061C102.141 153.3 102.181 153.257 102.181 153.17Z" fill="#25316D"/>
<rect x="84" y="171" width="22" height="7" rx="1" fill="#CB2027"/>
<g clip-path="url(#clip1_247_13859)">
<rect x="286" y="24" width="42" height="31" rx="2" fill="white" stroke="#25316D" stroke-width="2"/>
<path d="M298.72 38.3201C298.016 38.3201 297.44 37.7441 297.44 37.0401C297.44 36.3361 298.016 35.7601 298.72 35.7601H300C300.704 35.7601 301.28 36.3361 301.28 37.0401C301.28 37.7441 301.856 38.3201 302.56 38.3201C303.264 38.3201 303.84 37.7441 303.84 37.0401C303.84 35.1201 302.432 33.5841 300.64 33.2641V31.9201C300.64 31.2161 300.064 30.6401 299.36 30.6401C298.656 30.6401 298.08 31.2161 298.08 31.9201V33.2641C296.288 33.5841 294.88 35.1201 294.88 37.0401C294.88 39.1521 296.608 40.8801 298.72 40.8801H300C300.704 40.8801 301.28 41.4561 301.28 42.1601C301.28 42.8641 300.704 43.4401 300 43.4401H298.72C298.016 43.4401 297.44 42.8641 297.44 42.1601C297.44 41.4561 296.864 40.8801 296.16 40.8801C295.456 40.8801 294.88 41.4561 294.88 42.1601C294.88 44.0801 296.288 45.6161 298.08 45.9361V47.2801C298.08 47.9841 298.656 48.5601 299.36 48.5601C300.064 48.5601 300.64 47.9841 300.64 47.2801V45.9361C302.432 45.6161 303.84 44.0801 303.84 42.1601C303.84 40.0481 302.112 38.3201 300 38.3201H298.72Z" fill="#25316D"/>
<path d="M290 9L300.055 15.7031C300.333 15.8886 300.5 16.2008 300.5 16.5352V24M308 23V10.5M317 23V8C317 7.44772 317.448 7 318 7H323" stroke="#25316D" stroke-width="2"/>
<circle cx="287" cy="7" r="3" stroke="#25316D" stroke-width="2"/>
<circle cx="308" cy="7" r="3" stroke="#25316D" stroke-width="2"/>
<circle cx="327" cy="7" r="3" stroke="#25316D" stroke-width="2"/>
<path d="M314 39.5C314 37.0147 316.015 35 318.5 35H330C330.552 35 331 35.4477 331 36V43C331 43.5523 330.552 44 330 44H318.5C316.015 44 314 41.9853 314 39.5Z" fill="#CB2027" stroke="#25316D" stroke-width="2"/>
<circle cx="318.5" cy="39.5" r="1.5" fill="white"/>
</g>
<rect x="162" y="52" width="48" height="23" fill="white"/>
<path d="M161.5 77.9999L173.5 69L173.5 75.6698L176.5 77.9999L173.5 80.33L173.5 87L161.5 77.9999Z" fill="#CB2027"/>
<path d="M210.5 47.9999L198.5 39L198.5 45.6698L195.5 47.9999L198.5 50.33L198.5 57L210.5 47.9999Z" fill="#CB2027"/>
<path d="M189.75 59.25C190.082 59.25 190.399 59.1183 190.634 58.8839C190.868 58.6495 191 58.3315 191 58C191 57.6685 190.868 57.3505 190.634 57.1161C190.399 56.8817 190.082 56.75 189.75 56.75H187.25V55.5C187.25 55.1685 187.118 54.8505 186.884 54.6161C186.649 54.3817 186.332 54.25 186 54.25C185.668 54.25 185.351 54.3817 185.116 54.6161C184.882 54.8505 184.75 55.1685 184.75 55.5V56.75H182.25C181.918 56.75 181.601 56.8817 181.366 57.1161C181.132 57.3505 181 57.6685 181 58V63C181 63.3315 181.132 63.6495 181.366 63.8839C181.601 64.1183 181.918 64.25 182.25 64.25H188.5V66.75H182.25C181.918 66.75 181.601 66.8817 181.366 67.1161C181.132 67.3505 181 67.6685 181 68C181 68.3315 181.132 68.6495 181.366 68.8839C181.601 69.1183 181.918 69.25 182.25 69.25H184.75V70.5C184.75 70.8315 184.882 71.1495 185.116 71.3839C185.351 71.6183 185.668 71.75 186 71.75C186.332 71.75 186.649 71.6183 186.884 71.3839C187.118 71.1495 187.25 70.8315 187.25 70.5V69.25H189.75C190.082 69.25 190.399 69.1183 190.634 68.8839C190.868 68.6495 191 68.3315 191 68V63C191 62.6685 190.868 62.3505 190.634 62.1161C190.399 61.8817 190.082 61.75 189.75 61.75H183.5V59.25H189.75Z" fill="#25316D"/>
<path d="M199.75 81.75L174.75 81.75L174.75 89.25L160 78L174.638 66.75L174.638 74.25L209.75 74.25L209.75 58" stroke="#25316D" stroke-width="2" stroke-linecap="round" stroke-linejoin="round"/>
<path d="M172.25 44.25H197.25V36.75L212 48L197.362 59.25V51.75H162.25V68" stroke="#25316D" stroke-width="2" stroke-linecap="round" stroke-linejoin="round"/>
</g>
<defs>
<clipPath id="clip0_247_13859">
<rect width="548" height="443" fill="white" transform="translate(0 0.5)"/>
</clipPath>
<clipPath id="clip1_247_13859">
<rect width="64" height="64" fill="white" transform="translate(276 -2)"/>
</clipPath>
</defs>
</svg>
