<svg width="486" height="444" viewBox="0 0 486 444" fill="none" xmlns="http://www.w3.org/2000/svg">
<g clip-path="url(#clip0_351_2119)">
<path fill-rule="evenodd" clip-rule="evenodd" d="M180 42.8302C180 42.8302 181 -0.169471 268.118 7.4102C330.122 10.3887 358.557 20.8904 394.132 96.361C427.89 167.976 500.5 120.83 482 199.33C463.5 277.83 482.184 408.725 381.578 408.034C282.471 407.352 153.367 452.02 100.5 367.83C77.8044 331.687 0.49982 315.33 0.5 244.83C1.99634 208.758 0.5 119.83 0.5 119.83C0.5 119.83 5.0002 11.9103 100.5 7.4102C178.061 3.75546 180 42.8302 180 42.8302Z" fill="#E2EEFF"/>
<path d="M2.29395 310.994C2.29395 306.107 6.24722 302.158 11.1147 302.158C15.981 302.158 19.9344 306.107 19.9344 310.994C19.9344 315.889 15.9742 319.882 11.1147 319.882C6.25406 319.882 2.29395 315.889 2.29395 310.994Z" stroke="#25316D" stroke-width="2"/>
<path d="M464.474 45.2938C468.16 51.4642 469.781 58.8882 468.511 66.5352C465.703 83.4452 449.733 94.9141 432.874 92.1143M426.499 90.3517C413.246 85.0835 404.977 71.0601 407.413 56.3888C410.232 39.416 426.201 27.9504 443.064 30.7508C449.801 31.8695 455.668 35.0798 460.1 39.6489" stroke="#25316D" stroke-width="2" stroke-miterlimit="1.5" stroke-linecap="round" stroke-linejoin="round"/>
<path d="M417 55.8301L432.5 82.3301L439.5 73.8301M441.5 71.3301L469 36.3301L447.5 52.8301M445 54.3301L433.5 64.8301L417.5 52.8301" stroke="#25316D" stroke-width="2" stroke-linecap="round" stroke-linejoin="round"/>
<path d="M433.5 65.3301L417.5 54.3301L432.5 81.8301L462.599 43.7886C463.344 42.8472 462.101 41.6322 461.176 42.3981L433.5 65.3301Z" fill="#CB2027"/>
<path fill-rule="evenodd" clip-rule="evenodd" d="M146.832 352.33C144.716 352.33 143 354.035 143 356.171C143 358.287 144.716 360.012 146.832 360.012C148.944 360.012 150.66 358.287 150.66 356.171C150.661 355.667 150.562 355.166 150.37 354.7C150.178 354.233 149.896 353.809 149.54 353.452C149.185 353.095 148.762 352.813 148.298 352.62C147.833 352.427 147.335 352.329 146.832 352.33ZM146.832 353.604C148.24 353.604 149.384 354.754 149.384 356.171C149.384 357.588 148.24 358.739 146.832 358.739C145.424 358.739 144.28 357.588 144.28 356.171C144.28 354.754 145.424 353.604 146.832 353.604Z" fill="#25316D"/>
<path fill-rule="evenodd" clip-rule="evenodd" d="M116.248 168.249C118.217 168.249 120.061 167.177 121.057 165.373C121.612 164.366 122.147 163.36 122.662 162.352L134.767 170.876C136.426 172.044 138.674 171.1 139.133 169.042L142.761 152.735C142.984 151.733 142.714 150.677 142.042 149.933L131.164 137.876C135.347 114.852 128.403 92.5035 108.485 74.1188C106.486 72.2742 103.514 72.2742 101.515 74.1188C81.5397 92.5567 74.6128 114.981 78.8722 138.074L78.8124 137.903L67.9576 149.933C67.2859 150.677 67.0156 151.732 67.239 152.735L70.8672 169.042C71.3256 171.1 73.5735 172.044 75.2333 170.876L87.3379 162.352C87.8532 163.36 88.388 164.366 88.9429 165.373C89.939 167.177 91.7826 168.249 93.7516 168.249H116.248ZM105 121.515C99.4489 121.515 93.5974 116.735 93.5974 110.839C93.5974 104.943 99.4489 98.811 105 98.811C110.551 98.811 116.403 104.943 116.403 110.839C116.403 116.735 110.551 121.515 105 121.515Z" fill="#58B9FD"/>
<path d="M126.992 167.158L126.091 166.571L125.571 167.512C124.951 168.634 124.307 169.755 123.639 170.876C122.621 172.582 120.719 173.619 118.658 173.619H91.341C89.28 173.619 87.3788 172.582 86.3608 170.876C85.6924 169.755 85.0484 168.634 84.428 167.512L83.9079 166.571L83.0071 167.158L68.3087 176.732C66.8565 177.678 64.9156 176.898 64.5249 175.276L60.1194 156.959L60.1194 156.959C59.9292 156.169 60.1579 155.336 60.7352 154.744L60.7595 154.72L60.782 154.693L71.2787 142.33L73.9132 139.653L74.2848 139.276L74.1812 138.756C69.0899 113.222 77.3953 90.156 101.417 69.6446C103.47 67.8919 106.529 67.8919 108.583 69.6446C132.531 90.0927 140.791 113.495 135.789 138.958L135.693 139.444L136.022 139.814L149.231 154.709L149.247 154.727L149.264 154.744C149.841 155.336 150.07 156.17 149.88 156.959L149.88 156.959L145.474 175.276C145.474 175.276 145.474 175.276 145.474 175.276C145.084 176.898 143.143 177.678 141.691 176.732L126.992 167.158ZM91.7946 110.131C91.7946 117.323 97.7235 123.124 105 123.124C112.276 123.124 118.205 117.323 118.205 110.131C118.205 102.939 112.276 97.1384 105 97.1384C97.7234 97.1384 91.7946 102.939 91.7946 110.131Z" stroke="#25316D" stroke-width="2"/>
<path d="M107.877 151.918C107.877 152.334 107.769 152.726 107.553 153.094C107.345 153.454 107.033 153.754 106.617 153.994C106.209 154.226 105.725 154.362 105.165 154.402V155.374H104.397V154.39C103.597 154.318 102.953 154.078 102.465 153.67C101.977 153.254 101.725 152.694 101.709 151.99H103.509C103.557 152.566 103.853 152.914 104.397 153.034V150.742C103.821 150.598 103.357 150.454 103.005 150.31C102.653 150.166 102.349 149.934 102.093 149.614C101.837 149.294 101.709 148.858 101.709 148.306C101.709 147.61 101.957 147.042 102.453 146.602C102.957 146.162 103.605 145.91 104.397 145.846V144.874H105.165V145.846C105.933 145.91 106.545 146.142 107.001 146.542C107.465 146.942 107.725 147.494 107.781 148.198H105.969C105.945 147.966 105.861 147.766 105.717 147.598C105.581 147.422 105.397 147.298 105.165 147.226V149.494C105.765 149.646 106.237 149.794 106.581 149.938C106.933 150.074 107.237 150.302 107.493 150.622C107.749 150.934 107.877 151.366 107.877 151.918ZM103.461 148.222C103.461 148.486 103.541 148.702 103.701 148.87C103.861 149.03 104.093 149.162 104.397 149.266V147.19C104.109 147.23 103.881 147.338 103.713 147.514C103.545 147.69 103.461 147.926 103.461 148.222ZM105.165 153.058C105.469 153.002 105.705 152.878 105.873 152.686C106.049 152.494 106.137 152.262 106.137 151.99C106.137 151.726 106.053 151.514 105.885 151.354C105.717 151.194 105.477 151.062 105.165 150.958V153.058Z" fill="white"/>
<circle cx="129.324" cy="264.627" r="25.6757" fill="#CB2027"/>
<circle cx="80.6757" cy="264.627" r="25.6757" fill="#CB2027"/>
<circle cx="105" cy="288.952" r="25.6757" fill="#CB2027"/>
<path d="M94.1894 184.609C94.1894 199.163 92.6768 237.312 90.811 237.312C88.9452 237.312 87.4326 199.163 87.4326 184.609C87.4326 170.056 88.9452 184.609 90.811 184.609C92.6768 184.609 94.1894 170.056 94.1894 184.609Z" fill="#25316D"/>
<path d="M121.216 184.609C121.216 199.163 119.703 237.312 117.837 237.312C115.972 237.312 114.459 199.163 114.459 184.609C114.459 170.056 115.972 184.609 117.837 184.609C119.703 184.609 121.216 170.056 121.216 184.609Z" fill="#25316D"/>
<path d="M107.703 194.069C107.703 208.622 106.19 246.772 104.325 246.772C102.459 246.772 100.946 208.622 100.946 194.069C100.946 179.515 102.459 194.069 104.325 194.069C106.19 194.069 107.703 179.515 107.703 194.069Z" fill="#25316D"/>
<path fill-rule="evenodd" clip-rule="evenodd" d="M402.772 171.307C402.772 171.307 423.796 174.216 429.816 182.693C435.836 191.204 442.163 209.411 442.902 217.063C443.643 224.712 444.87 237.462 444.87 237.462H438.151C438.151 237.462 437.016 196.769 423.168 184.703C409.319 172.671 402.772 171.307 402.772 171.307ZM247.358 237.748C247.358 237.748 264.192 240.946 267.115 250.319C270.038 259.658 273.31 276.538 274.657 281.026C276.007 285.48 278.442 295.751 287.532 298.983C287.532 298.983 274.632 303.293 267.115 274.202C259.598 245.148 259.153 243.889 247.358 237.748ZM430.446 398.107C430.446 398.107 443.85 385.395 450.367 372.716C456.878 360.038 462.562 343.911 464.107 338.956C465.652 334 473.086 303.545 474.163 294.89C475.24 286.234 476.786 268.024 475.6 262.135C474.45 256.207 472.008 243.673 457.422 240.192C457.422 240.192 471.399 250.248 468.669 272.407C465.902 294.566 462.633 351.419 419.328 398.107H430.446Z" fill="#DAE8F1"/>
<path d="M216.357 398.286C229.954 398.178 262.417 397.606 276 398.286M400 398.286C408.113 398 468.886 398 477 398.286M216.443 242.06C201.007 252.905 203.621 270.754 205.273 287.419C208.459 319.598 222.268 373.255 247.225 395.666M463.752 242.06C479.19 252.905 476.575 270.754 474.922 287.419C471.738 319.598 457.927 373.255 432.972 395.666M221.098 240.838C226.47 238.862 231.99 237.425 237.737 237.283C247.312 237.031 259.709 239.185 265.66 247.518C268.329 251.252 269.356 256.21 270.268 260.591C271.691 267.486 272.768 274.417 274.395 281.241C275.673 286.628 277.351 292.196 281.851 295.788C285.669 298.805 290.707 300.347 295.387 301.425M459.099 240.838C453.725 238.862 448.207 237.425 442.46 237.283C432.885 237.031 420.487 239.185 414.535 247.518C411.867 251.252 410.84 256.21 409.928 260.591C408.505 267.486 407.428 274.417 405.801 281.241C404.523 286.628 402.845 292.196 398.345 295.788C394.528 298.805 389.489 300.347 384.809 301.425M300.893 302.323C316.429 304.407 331.941 304.586 347.6 304.623C357.666 304.623 368.746 305.161 378.633 302.825" stroke="#25316D" stroke-width="2" stroke-miterlimit="1.5" stroke-linecap="round" stroke-linejoin="round"/>
<path d="M278.197 281.672C308.214 274.919 339.69 273.986 370.221 277.003C381.85 278.154 394.039 278.908 405.27 282.319M231.727 238.037C232.409 224.46 234.417 210.525 238.988 197.668C241.021 191.958 243.431 185.959 247.827 181.615C252.026 177.448 258.013 174.97 263.504 173.031M444.687 233.26C443.796 221.228 441.757 209.017 437.718 197.668C435.687 191.958 433.278 185.959 428.882 181.615C424.683 177.448 418.695 174.97 413.204 173.031M384 167.5C391 167.5 396.5 168.5 403.7 171.593" stroke="#25316D" stroke-width="2" stroke-miterlimit="1.5" stroke-linecap="round" stroke-linejoin="round"/>
<path d="M319.5 399.434C327.613 399.148 349.386 399.148 357.5 399.434" stroke="#25316D" stroke-width="2" stroke-miterlimit="1.5" stroke-linecap="round" stroke-linejoin="round"/>
<path d="M244.821 208.118C246.925 200.721 250.236 192.389 256.015 187.036C259.158 184.127 263.166 182.656 267.123 181.218C275.344 178.202 284 176.405 292.702 175.543M303.66 173.927C311.399 172.671 319.401 172.132 327.244 172.061M225.538 245.074C221.619 247.157 217.503 249.743 214.971 253.514C209.15 262.135 211.994 277.794 213.679 287.311M214.825 296.721C215.798 301.282 216.8 305.878 217.784 310.44" stroke="#25316D" stroke-width="2" stroke-miterlimit="1.5" stroke-linecap="round" stroke-linejoin="round"/>
<path d="M271.789 170.479C281.396 168.038 282 168 285.5 168" stroke="#25316D" stroke-width="2" stroke-miterlimit="1.5" stroke-linecap="round" stroke-linejoin="round"/>
<path fill-rule="evenodd" clip-rule="evenodd" d="M264.614 73.7168C264.614 73.7168 267.87 79.9777 271.099 81.4891L276.088 100.74L276.551 103.547L270.309 108.729L272.946 117.977L279.798 141.69L284.769 163.352L290.861 186.67C290.861 186.67 294.018 197.896 294.626 200.092C295.238 202.322 296.057 208.186 296.057 208.186L297.421 214.196L302.816 210.346C302.816 210.346 298.351 184.296 294.626 179.258C290.905 174.256 284.769 140.071 284.769 140.071L274.104 106.39L279.798 102.575L274.104 80.8052C274.104 80.8052 266.505 77.4592 264.614 73.7168ZM396.701 274.074C396.701 274.074 390.242 277.347 384.993 274.577L371.41 269.036L361.998 263.855L363.97 258.6C363.97 258.6 374.433 265.581 383.096 269.036C391.756 272.454 396.701 274.074 396.701 274.074ZM328.758 244.062C328.758 244.062 334.496 250.253 338.555 249.028C342.616 247.77 347.179 246.835 349.959 248.201C352.731 249.532 364.153 255.939 364.153 255.939L365.344 250.431C365.344 250.431 352.062 244.928 348.266 244.856C344.474 244.747 339.141 247.266 336.02 245.682C332.899 244.099 328.758 244.062 328.758 244.062ZM370.811 377.059L371.454 387.962H368.889V391.344C368.889 391.344 370.292 403.83 368.889 410.054C367.489 416.317 363.897 426.212 366.546 432.976L368.889 437.619L373.198 438.231C373.198 438.231 368.602 426.716 371.454 418.405C374.307 410.127 375.121 396.958 373.198 387.962H376.239L375.402 376.196L370.811 377.059ZM354.816 296.311L363.536 350.288L364.848 358.346L362.567 357.951V359.966L365.693 376.447H371.444L367.682 358.346H371.444C366.985 333.698 363.027 307.177 354.816 296.311ZM304.273 272.348C304.273 272.348 292.463 275.802 290.458 282.891C288.453 289.978 287.314 299.587 287.314 299.587L284.015 328.156L281.452 355.793L279.754 355V373.065L284.015 374.935L285.379 357.628L288.303 358.563C288.303 358.563 290.179 324.126 292.566 308.185C294.954 292.247 297.134 276.629 304.273 272.348ZM285.433 375.692L284.206 387.711L282.113 388.43C282.113 388.43 282.601 393.971 282.113 397.247C281.625 400.521 279.168 408.868 274.91 414.555C270.655 420.275 266.214 429.992 272.107 438.053L276.235 439.383C276.235 439.383 270.365 431.036 276.235 421.464C282.108 411.891 287.993 401.996 285.433 388.43C285.433 388.43 287.394 388.719 287.394 388.43C287.394 388.107 289.125 375.692 289.125 375.692H285.433Z" fill="#DAE8F1"/>
<path d="M294 98.5002C288.4 96.5002 275.667 104.334 270 108.5L277.5 135C279.833 144 285.3 165.1 288.5 177.5C291.7 189.9 295.167 206.667 296.5 213.5L300.5 218.5L308 213.5L325 184.5L322.5 172L317 162L306 137L294 98.5002Z" fill="white"/>
<path d="M377 186H372.5C371.833 190.167 370 200.2 368 207C366 213.8 371.167 232.5 374 241L366 237.5C365 237 363.6 237 366 241C368.4 245 365 258.667 363 265C368.167 267.833 380.5 274.1 388.5 276.5C398.5 279.5 403.5 261.5 403.5 259C403.5 257 402.167 246.167 401.5 241C400 236.167 396.6 223 395 209C393.4 195 382.333 187.833 377 186Z" fill="white"/>
<path d="M315 273C299.4 268.2 291.5 279.333 289.5 285.5C289.5 287 289.1 291.2 287.5 296C285.901 300.8 283.167 337.333 282 355H279.5C279.5 363.5 279.5 369.5 279.5 373C293.9 379.8 309.167 378.167 315 376.5V362V359L325 304.5H356L364.5 355L363 359C363 362 363 369.5 366 376.5C373.6 378.1 390.834 372.5 398.5 369.5L397 353H394.5V348C392.334 331.5 387 295.9 383 285.5C378 272.5 351.5 279.5 344 281.5C336.5 283.5 334.5 279 315 273Z" fill="white"/>
<path fill-rule="evenodd" clip-rule="evenodd" d="M322.498 170.212C322.498 170.212 327.161 171.473 328.257 174.271C328.257 174.271 324.616 181.319 330.817 184.04C330.817 184.04 340.958 188.786 352.778 184.807C352.778 184.807 356.912 183.645 357.428 178.09C357.428 178.09 370.698 179.785 373.829 184.04C373.829 184.04 371.323 205.587 371.455 216.183C371.584 226.819 373.021 235.761 372.971 239.737L365.518 237.1L364.859 239.737L359.1 237.691L351.135 234.854C351.135 234.854 345.267 230.323 343.632 229.93C342.002 229.537 336.573 228.946 336.196 228.907C335.822 228.866 332.158 228.08 332.158 228.08C332.158 228.08 332.339 231.072 334.282 232.728L326.639 231.899L317.721 233.632C317.721 233.632 316.894 235.327 316.189 236.508C315.207 238.164 312.967 245.489 314.657 246.041C315.447 246.318 316.106 247.736 317.227 247.537C318.044 247.38 319.108 245.804 320.643 244.977C324.291 243.047 328.779 243.52 328.779 243.52C328.779 243.52 334.682 248.483 336.196 248.917C337.713 249.39 345.916 247.065 347.68 247.537C349.45 248.051 359.661 253.25 359.661 253.25L364.513 256.164L362.373 263.964C362.373 263.964 371.351 269.4 372.971 270.03C374.594 270.661 377.165 271.684 377.165 271.684V279.249C377.165 279.249 371.372 276.804 367.515 277.673C367.515 277.673 358.844 278.184 356.281 279.249C353.713 280.31 342.526 282.083 340.172 282.005C337.819 281.886 333.899 279.522 332.158 278.815C330.412 278.107 313.729 272.591 310.166 272.591C306.596 272.552 300.648 270.78 294.189 277.673C294.189 277.673 293.538 268.927 295.401 266.051C297.261 263.176 297.587 262.899 297.861 259.12C298.134 255.337 297.68 218.743 296.982 213.426C296.982 213.426 317.773 197.826 322.498 170.212Z" fill="#58B9FD"/>
<path d="M320.278 236.684H322.754M337.343 236.684H339.818M320.366 239.242H322.847M337.431 239.242H339.017M233.014 83.6235C238.43 82.5993 243.977 81.9304 249.451 81.3M225 52.584C232.632 55.9321 240.429 59.2016 247.756 63.1801M250.208 35.3301C252.18 38.8753 254.159 42.4203 256.166 45.9655M422.571 155.354C426.101 158.112 429.893 160.436 433.591 162.917" stroke="#25316D" stroke-width="2" stroke-miterlimit="1.5" stroke-linecap="round" stroke-linejoin="round"/>
<path d="M323.499 136.33C323.499 136.33 322.499 138.33 322.499 140.33L324.999 159.33L328.499 163.33C328.333 166.83 328.499 174.13 330.499 175.33C332.999 176.83 342.499 177.33 348.499 176.83C354.499 176.33 351.499 173.33 352.499 166.33C353.499 159.33 341.999 165.33 352.499 159.33C353.348 158.845 359.261 171.83 362.499 180.83C370.999 182.83 389.999 195.83 397.499 189.33C399.999 173.33 371.558 164.253 371.499 160.83C367.999 154.33 365.938 130.99 364.999 126.83C364.056 122.648 358.903 116.479 357.499 115.33C353.099 111.73 340.499 113.164 336.499 115.33C335.333 113.497 331.099 111.43 323.499 117.83C313.999 125.83 320.584 136.33 323.499 136.33Z" fill="white"/>
<path d="M334.583 142.75C334.248 144.641 334.007 146.492 333.302 148.304C333.067 148.895 332.785 149.485 332.408 149.997C332.312 150.115 331.938 150.431 331.93 150.588C331.922 150.667 332.896 150.864 332.992 150.903C334.149 151.14 335.33 151.021 336.469 150.746M325.226 138.667C327.125 137.643 329.879 137.289 331.814 138.391M339.454 138.667C341.559 137.604 344.272 137.565 346.411 138.589" stroke="#25316D" stroke-width="2" stroke-miterlimit="1.5" stroke-linecap="round" stroke-linejoin="round"/>
<path d="M322.273 139.349C322.273 139.349 323.859 153.484 324.399 158.324C324.518 159.361 325.071 160.32 325.915 160.935C329.796 163.739 333.506 165.314 337.611 165.622C337.906 165.622 338.203 165.621 338.492 165.544C343.068 164.43 347.274 162.549 351.119 159.898M335.092 114.24C329.587 113.806 324.071 116.524 321.004 121.133C317.71 126.057 318.407 133.187 323.673 136.417" stroke="#25316D" stroke-width="2" stroke-miterlimit="1.5" stroke-linecap="round" stroke-linejoin="round"/>
<path d="M333.452 119.232C327.078 121.753 327.535 130.892 332.411 134.634M342.078 121.242C337.883 124.433 338.565 131.169 341.691 134.872M322.399 140.149C321.813 144.285 320.673 147.949 318.061 151.219C317.054 152.518 315.813 153.503 314.669 154.645M338.663 113.482C342.44 113.009 346.215 112.418 350.028 112.812C358.275 113.718 363.404 120.257 365.285 127.978C366.974 134.911 366.765 142.04 367.612 149.091C368.145 153.503 369.253 158.348 371.997 161.932C374.921 165.792 379.505 167.683 383.672 169.851C389.552 172.923 395.546 176.863 397.128 183.714C397.541 185.528 399.499 191.33 391.499 191.33" stroke="#25316D" stroke-width="2" stroke-miterlimit="1.5" stroke-linecap="round" stroke-linejoin="round"/>
<path d="M350.434 129.671C347.908 138.455 348.207 148.421 351.718 156.89C354.868 164.493 359.919 170.755 361.869 178.909M357.237 138.731C356.607 144.403 357.056 150.745 359.759 155.866C362.725 161.499 367.639 165.793 370.488 171.505M328.965 163.036V174.892C328.965 174.892 342.379 180.684 351.372 174.892M351.372 160.042V173.238M351.628 173.553C353.674 173.711 355.648 174.892 356.09 176.979M356.26 177.491C357.906 178.121 359.508 178.87 361.208 179.382M330.091 181.077C332.228 182.258 334.772 182.692 337.167 182.968C341.996 183.441 347.543 183.164 351.853 180.682M270.048 108.597C276.055 104.107 283.346 100.286 290.745 98.7104M271.846 116.71C276.367 112.613 282.178 110.132 287.818 107.926C289.503 107.295 291.216 106.743 292.952 106.271C293.936 105.995 294.936 105.601 295.954 105.483" stroke="#25316D" stroke-width="2" stroke-miterlimit="1.5" stroke-linecap="round" stroke-linejoin="round"/>
<path d="M270.521 109.504C275.197 125.457 279.537 141.725 283.449 157.875M284.418 161.579C286.206 173.318 290.572 184.268 293.605 195.651C294.605 199.395 295.377 203.293 295.943 207.153C296.189 208.771 296.049 210.463 296.439 212.078M293.59 98.2773C296.432 108.086 299.666 117.737 302.87 127.387C304.113 131.169 304.965 135.108 306.415 138.811C310.53 149.328 316.186 159.412 321.221 169.495M301.738 136.085C299.568 135.923 297.713 136.193 295.615 136.598M303.443 138.377C300.462 140.268 298.09 142.71 295.618 145.152M378.019 207.43C376.542 215.111 375.537 222.988 373.604 230.592M375.123 185.252C380.091 187.458 385.496 190.53 388.803 194.943C392.24 199.552 393.097 205.735 394.56 211.171C397.745 222.95 400.502 235.082 402.326 247.176M402.858 252.336C403.091 260.017 403.628 269.351 396.265 274.079C395.2 274.748 394.015 275.301 392.795 275.616M389.705 276.009C386.129 275.536 382.825 273.999 379.513 272.7C373.627 270.336 367.53 267.698 362.293 264.073M364.897 238.549C365.949 247.215 365.352 256.787 361.766 264.902M374.284 240.676C374.674 249.933 374.26 260.017 369.824 268.406" stroke="#25316D" stroke-width="2" stroke-miterlimit="1.5" stroke-linecap="round" stroke-linejoin="round"/>
<path d="M365.285 237.289C371.382 240.084 377.751 242.21 383.887 244.89C387.489 246.466 390.891 248.476 394.322 250.367M339.18 281.936C353.139 282.016 367.639 272.798 381.024 281.187M382.711 283.69C387.354 290.583 388.532 303.465 389.561 311.42C391.255 324.617 392.759 337.853 394.736 351.009M354.47 296.177C357.126 315.164 360.952 336.396 364.394 357.548M362.642 357.943C368.184 359.201 374.02 358.178 379.515 357.155C384.936 356.171 390.651 354.988 395.686 352.665M362.368 359.083C363.035 364.521 364.13 369.838 365.264 375.194M396.583 353.373C397.138 358.612 397.722 363.811 398.373 369.011M397.578 370.037C392.932 372.479 387.737 373.698 382.644 374.801C377.805 375.866 372.504 376.889 367.502 376.615M370.633 376.966C370.775 380.434 370.995 383.859 371.271 387.327M390.108 373.936C390.049 378.307 390.268 382.601 390.666 386.934M334.377 280.164C327.784 277.169 320.697 274.805 313.644 273.19C309.983 272.364 306.2 271.576 302.488 272.56C298.509 273.625 295.212 276.539 292.631 279.613C291.06 281.463 289.89 283.67 288.965 285.915M288.965 289.242C287.144 299.21 285.694 313.981 284.604 324.064C283.578 333.559 282.351 343.09 281.736 352.585M326.531 294.523C325.598 299.329 323.802 309.017 322.741 313.823C319.55 328.32 317.008 344.824 314.225 359.4M324.717 304.202C333.979 305.217 343.552 305.093 352.84 304.284M279.145 354.672C289.57 360.819 302.803 362.038 314.662 361.488M279.912 355.46C279.527 361.447 279.589 367.435 279.47 373.463M279.499 372.833C285.565 375.905 292.569 377.204 299.297 377.677C303.5 377.992 307.745 378.111 311.895 377.243M316.23 360.739C315.044 366.017 314.636 371.492 313.737 376.85M366.367 361.607C366.706 365.071 367.127 368.577 367.734 372.006M370.243 364.756C370.349 366.294 370.512 367.87 370.602 369.446M283.015 360.385V369.562M286.188 80.5119C286.978 86.3418 288.756 91.8563 290.241 97.4893M271.526 81.8509C272.334 85.0417 272.962 88.2717 273.758 91.4625C274.647 95.0077 275.631 98.5532 276.145 102.177M271.257 81.7732C270.079 81.1428 268.921 80.3941 267.927 79.488C265.953 77.7156 264.873 75.2338 263.865 72.7918M278.651 55.9717C280.199 56.8778 281.963 57.3896 283.705 57.7836C284.449 57.9412 285.785 57.9016 286.392 58.4137C286.865 58.8075 287.113 59.4779 287.306 60.0292C287.715 61.211 287.932 62.471 288.283 63.692C288.637 64.9526 289.006 66.1739 289.44 67.3951C289.913 68.7342 290.492 69.916 290.347 71.3734C290.019 74.6034 287.33 77.0062 286.077 79.8425" stroke="#25316D" stroke-width="2" stroke-miterlimit="1.5" stroke-linecap="round" stroke-linejoin="round"/>
<path d="M278.08 56.7988C278.202 58.2958 278.507 59.7534 279.483 60.8957C279.964 61.4865 280.558 61.9198 281.188 62.3135C281.452 62.4711 281.865 62.5897 282.077 62.7869C282.63 63.3382 282.953 64.9532 283.023 65.741C283.036 65.8593 282.767 66.1344 282.689 66.2528C282.323 66.7253 281.901 67.1196 281.48 67.5528C279.84 69.1679 278.6 70.9402 277.406 72.91M261.044 64.9912C261.269 63.8883 261.85 62.6672 262.974 62.234C263.214 62.1159 263.485 62.1154 263.741 62.1154C263.798 62.1154 264.023 62.1547 264.056 62.1547C264.304 61.9971 264.491 61.4462 264.656 61.2098C264.999 60.6978 265.446 60.2645 266.002 60.0283C266.816 59.6343 267.593 59.7126 268.415 59.949C268.508 59.949 268.986 59.3974 269.071 59.3582C269.583 58.8461 270.229 58.4523 270.926 58.334C271.34 58.2552 271.758 58.2945 272.164 58.4125C272.267 58.4125 272.65 58.649 272.722 58.6094C273.231 58.4126 273.621 57.7829 274.055 57.4677C274.972 56.7981 276.347 56.6402 277.427 56.9554M261.114 66.7646C261.263 67.2717 261.437 67.7711 261.636 68.261C262.253 69.9153 263.297 72.6335 265.24 73.1456C265.976 73.3425 266.805 73.1459 267.503 72.9095C268.066 72.6731 268.604 72.3974 268.986 71.9246M264.919 64.6372C265.123 65.2281 265.348 65.7797 265.614 66.3706C265.798 66.7646 265.986 67.1586 266.18 67.5523C267.004 69.2069 268.095 71.6882 270.355 71.373C270.67 71.3337 270.975 71.2549 271.262 71.1368C271.663 70.94 272.035 70.7426 272.365 70.4274M269.43 61.7216C269.663 62.4308 269.919 63.14 270.187 63.849C270.368 64.3215 270.549 64.8333 270.73 65.3061C270.88 65.7001 271.024 66.0546 271.172 66.4486C271.51 67.3547 272.117 69.1668 273.252 69.5213C273.768 69.6396 274.386 69.4423 274.853 69.2451C275.22 69.0875 275.572 68.8906 275.882 68.6542" stroke="#25316D" stroke-width="2" stroke-miterlimit="1.5" stroke-linecap="round" stroke-linejoin="round"/>
<path d="M274.021 60.8442C274.239 61.3814 274.44 61.9544 274.642 62.4915C275.357 64.4613 275.964 68.1145 278.879 67.434C279.341 67.3268 279.791 67.1472 280.217 66.9682M332.212 227.952C333.987 228.659 335.899 228.858 337.798 228.936C339.271 228.975 340.578 228.858 341.981 229.37C344.084 230.117 346.259 231.104 348.109 232.364C349.342 233.23 350.323 234.452 351.675 235.121C353.276 235.948 355.025 236.421 356.707 237.051C359.193 237.917 361.681 238.862 364.117 239.888M332.106 228.308C332.347 229.765 332.837 231.145 334.114 232.01M317.723 233.664C320.893 231.892 335.263 231.615 339.206 233.387M316.561 235.24C315.649 238.074 311.587 244.732 315.018 246.701C315.142 246.781 315.269 246.858 315.388 246.9C317.325 248 319.186 245.401 320.366 244.812C321.971 244.024 323.668 243.394 325.456 243.197C327.704 242.96 329.983 243.394 332.222 243.551" stroke="#25316D" stroke-width="2" stroke-miterlimit="1.5" stroke-linecap="round" stroke-linejoin="round"/>
<path d="M339.263 233.269C339.679 233.664 340.084 234.098 340.358 234.609C341.72 237.17 338.612 239.888 336.989 241.425C335.78 242.606 334.369 243.905 332.566 243.867M328.518 243.748C330.156 245.205 331.9 246.585 333.76 247.765C334.677 248.357 335.685 249.026 336.795 249.145C337.865 249.264 338.971 248.949 340.007 248.752C342.523 248.199 345.569 247.215 348.166 247.726C350.564 248.238 361.249 253.793 364.117 255.88" stroke="#25316D" stroke-width="2" stroke-miterlimit="1.5" stroke-linecap="round" stroke-linejoin="round"/>
<path d="M285.108 375.904C284.769 379.842 284.656 383.743 284.242 387.642M306.151 378.819C305.712 382.286 305.702 385.831 305.252 389.298" stroke="#25316D" stroke-width="2" stroke-miterlimit="1.5" stroke-linecap="round" stroke-linejoin="round"/>
<path d="M282.496 388.076C290.461 388.311 298.61 388.233 306.536 389.337M282.103 390.832C282.245 397.056 281.406 403.676 278.455 409.23C276.293 413.287 273.12 416.793 271.097 420.929C269.358 424.474 268.772 428.649 269.542 432.547M307.337 392.527C307.229 399.617 306.8 406.59 307.255 413.679C307.474 417.108 308.479 420.456 308.918 423.843C309.239 426.323 309.089 428.726 308.97 431.209M271.001 432.312C274.603 433.573 278.388 433.808 282.163 434.085C290.588 434.635 299.367 434.4 307.58 432.232M269.95 432.708C270.301 434.165 270.717 435.661 271.324 437.04M272.365 438.26C278.907 440.544 286.58 440.27 293.404 439.836C297.832 439.559 302.325 439.244 306.598 437.986M308.397 432.429C308.316 433.966 308.298 435.581 308.074 437.118M286.792 412.437C290.022 412.437 293.543 412.16 296.719 412.868M286.415 417.123C289.51 416.57 292.686 416.532 295.809 416.847M292.758 408.535C293.964 406.807 295.53 405.572 297.222 404.549C298.077 404.056 298.985 403.665 299.93 403.384C301.359 403.032 303.924 402.82 304.146 405.112C304.17 405.396 304.092 405.678 304.035 405.959C303.945 406.347 303.764 406.665 303.555 406.983C302.465 408.641 300.465 409.171 298.793 409.558C297.3 409.876 295.721 410.122 294.197 410.228M291.567 408.525C290.709 407.117 289.637 405.877 288.345 404.939C287.151 404.035 285.648 403.329 284.165 403.632C283.868 403.699 283.581 403.8 283.315 403.968C281.493 405.006 283.01 407.419 284.191 408.223C285.048 408.827 286.051 409.127 287.025 409.396C288.441 409.765 289.864 409.964 291.309 410.132M369.207 388.272C374.483 388.667 379.862 388.667 385.148 388.51C387.796 388.471 390.455 388.195 393.103 388.233M394.519 389.021C395.209 395.914 396.371 402.65 399.727 408.796C403.122 415.018 409.129 421.203 409.039 428.687M368.659 391.029C370.204 398.395 369.553 406.629 368.081 413.956C366.877 419.903 364.642 425.458 366.28 431.563M366.502 432.312C372.147 434.162 378.056 434.516 383.952 434.281C392.16 433.966 400.652 432.351 408.287 429.199M366.639 433.573C367.021 434.557 367.45 435.462 367.977 436.369M368.967 437.433C373.367 438.771 378.247 439.009 382.82 439.009C391.175 438.97 399.301 437.671 406.972 434.281M407.408 434.123C407.736 433.02 408.003 431.878 408.145 430.775M379.087 413.356C382.613 412.607 386.106 412.134 389.775 412.488M379.836 416.821C382.954 416.232 386.401 416.033 389.594 416.348M385.512 408.008C386.192 406.59 387.31 405.409 388.62 404.502C390.036 403.557 392.299 402.611 394.087 403.084C394.41 403.161 394.65 403.28 394.935 403.477C396.785 404.66 395.821 406.905 394.418 408.008C393.607 408.639 392.625 409.031 391.669 409.385C390.4 409.897 389.018 410.292 387.667 410.489M383.463 408.316C382.389 407.132 381.226 406.029 379.826 405.241C378.043 404.218 375.661 403.51 373.692 404.414C372.002 405.164 371.266 407.014 372.253 408.67C372.772 409.535 373.715 410.127 374.648 410.481C376.637 411.191 378.808 411.111 380.885 410.954M324.237 203.05C332.078 204.779 340.035 205.678 348.047 206.001M352.649 205.714H356.343" stroke="#25316D" stroke-width="2" stroke-miterlimit="1.5" stroke-linecap="round" stroke-linejoin="round"/>
<path d="M333.46 156.922L341.955 154.742C341.955 154.742 342.658 157.776 338.976 159.305C335.493 160.788 333.46 156.922 333.46 156.922Z" stroke="#25316D" stroke-width="2" stroke-miterlimit="1.5" stroke-linecap="round" stroke-linejoin="round"/>
<path d="M329.62 144.624C329.937 144.624 330.24 144.498 330.464 144.275C330.688 144.051 330.814 143.747 330.814 143.431C330.814 143.114 330.688 142.811 330.464 142.587C330.241 142.363 329.937 142.237 329.62 142.237C329.304 142.237 329 142.363 328.776 142.587C328.553 142.811 328.427 143.114 328.427 143.431C328.427 143.747 328.553 144.051 328.777 144.275C329 144.498 329.304 144.624 329.62 144.624ZM342.634 144.624C342.951 144.624 343.254 144.498 343.478 144.275C343.702 144.051 343.828 143.747 343.828 143.431C343.828 143.114 343.702 142.811 343.478 142.587C343.254 142.363 342.951 142.237 342.634 142.237C342.317 142.237 342.014 142.363 341.79 142.587C341.566 142.811 341.44 143.114 341.44 143.431C341.441 143.747 341.566 144.051 341.79 144.275C342.014 144.498 342.318 144.624 342.634 144.624Z" fill="#25316D"/>
<path fill-rule="evenodd" clip-rule="evenodd" d="M329.621 163.359C329.621 163.359 335.84 165.723 338.106 165.408C340.374 165.093 348.332 162.218 348.332 162.218C348.332 162.218 344.045 167.063 338.106 168.401C334.398 169.269 329.081 165.408 329.081 165.408L329.621 163.359Z" fill="#25316D"/>
</g>
<defs>
<clipPath id="clip0_351_2119">
<rect width="485" height="443" fill="white" transform="translate(0.5 0.428711)"/>
</clipPath>
</defs>
</svg>
