<svg width="362" height="372" viewBox="0 0 362 372" fill="none" xmlns="http://www.w3.org/2000/svg">
<mask id="path-1-inside-1_1333_6552" fill="white">
<path fill-rule="evenodd" clip-rule="evenodd" d="M198.754 260.841C206.917 261.687 213.502 254.274 211.699 246.269L208.376 231.51C207.376 227.07 208.974 222.447 212.501 219.572L224.191 210.043C230.531 204.876 229.957 195.02 223.06 190.623L210.113 182.369C206.302 179.939 204.179 175.575 204.621 171.077L206.117 155.842C206.913 147.73 199.564 141.201 191.602 142.949L176.65 146.23C172.235 147.199 167.651 145.605 164.79 142.107L155.067 130.223C149.888 123.893 140.033 124.484 135.649 131.389L127.564 144.12C125.125 147.962 120.722 150.093 116.196 149.624L101.148 148.064C92.986 147.217 86.4011 154.63 88.2036 162.635L91.5268 177.394C92.5264 181.834 90.9289 186.457 87.4016 189.332L75.7114 198.861C69.3719 204.028 69.9459 213.884 76.8424 218.281L89.7901 226.535C93.6009 228.965 95.7236 233.329 95.2819 237.827L93.7858 253.062C92.9892 261.174 100.339 267.703 108.301 265.955L123.253 262.674C127.667 261.705 132.251 263.299 135.113 266.797L144.836 278.681C150.015 285.011 159.87 284.42 164.254 277.515L172.339 264.784C174.778 260.942 179.18 258.811 183.707 259.28L198.754 260.841ZM126.054 165.142C104.157 178.561 97.2839 207.189 110.702 229.086C124.121 250.983 152.749 257.856 174.646 244.438C196.543 231.019 203.416 202.391 189.998 180.494C176.58 158.597 147.951 151.724 126.054 165.142Z"/>
</mask>
<path fill-rule="evenodd" clip-rule="evenodd" d="M198.754 260.841C206.917 261.687 213.502 254.274 211.699 246.269L208.376 231.51C207.376 227.07 208.974 222.447 212.501 219.572L224.191 210.043C230.531 204.876 229.957 195.02 223.06 190.623L210.113 182.369C206.302 179.939 204.179 175.575 204.621 171.077L206.117 155.842C206.913 147.73 199.564 141.201 191.602 142.949L176.65 146.23C172.235 147.199 167.651 145.605 164.79 142.107L155.067 130.223C149.888 123.893 140.033 124.484 135.649 131.389L127.564 144.12C125.125 147.962 120.722 150.093 116.196 149.624L101.148 148.064C92.986 147.217 86.4011 154.63 88.2036 162.635L91.5268 177.394C92.5264 181.834 90.9289 186.457 87.4016 189.332L75.7114 198.861C69.3719 204.028 69.9459 213.884 76.8424 218.281L89.7901 226.535C93.6009 228.965 95.7236 233.329 95.2819 237.827L93.7858 253.062C92.9892 261.174 100.339 267.703 108.301 265.955L123.253 262.674C127.667 261.705 132.251 263.299 135.113 266.797L144.836 278.681C150.015 285.011 159.87 284.42 164.254 277.515L172.339 264.784C174.778 260.942 179.18 258.811 183.707 259.28L198.754 260.841ZM126.054 165.142C104.157 178.561 97.2839 207.189 110.702 229.086C124.121 250.983 152.749 257.856 174.646 244.438C196.543 231.019 203.416 202.391 189.998 180.494C176.58 158.597 147.951 151.724 126.054 165.142Z" fill="white"/>
<path d="M211.699 246.269L209.748 246.708L211.699 246.269ZM198.754 260.841L198.548 262.83L198.754 260.841ZM208.376 231.51L206.425 231.949L208.376 231.51ZM212.501 219.572L213.765 221.122L213.765 221.122L212.501 219.572ZM224.191 210.043L222.928 208.493L222.928 208.493L224.191 210.043ZM223.06 190.623L221.985 192.31L221.985 192.31L223.06 190.623ZM210.113 182.369L209.037 184.055L210.113 182.369ZM204.621 171.077L206.611 171.273L206.611 171.273L204.621 171.077ZM206.117 155.842L208.107 156.038L206.117 155.842ZM191.602 142.949L191.173 140.995L191.602 142.949ZM176.65 146.23L177.078 148.183L177.078 148.183L176.65 146.23ZM164.79 142.107L163.242 143.374L164.79 142.107ZM155.067 130.223L153.519 131.489L155.067 130.223ZM135.649 131.389L133.96 130.317L135.649 131.389ZM127.564 144.12L125.876 143.048L125.876 143.048L127.564 144.12ZM116.196 149.624L116.402 147.635L116.402 147.635L116.196 149.624ZM101.148 148.064L101.355 146.074L101.148 148.064ZM88.2036 162.635L86.2525 163.075L88.2036 162.635ZM91.5268 177.394L89.5756 177.834L91.5268 177.394ZM87.4016 189.332L88.6652 190.882L88.6652 190.882L87.4016 189.332ZM75.7114 198.861L76.975 200.411L75.7114 198.861ZM76.8424 218.281L75.7672 219.967L76.8424 218.281ZM89.7901 226.535L90.8653 224.849L89.7901 226.535ZM95.2819 237.827L93.2915 237.631L95.2819 237.827ZM93.7859 253.062L95.7763 253.257L95.7763 253.257L93.7859 253.062ZM108.301 265.955L107.872 264.002L108.301 265.955ZM123.253 262.674L123.682 264.628L123.253 262.674ZM135.113 266.797L133.565 268.063L133.565 268.063L135.113 266.797ZM144.836 278.681L143.288 279.948L143.288 279.948L144.836 278.681ZM164.254 277.515L165.942 278.588L165.942 278.588L164.254 277.515ZM172.339 264.784L174.027 265.856L172.339 264.784ZM183.707 259.28L183.5 261.269L183.707 259.28ZM110.702 229.086L112.408 228.041L110.702 229.086ZM126.054 165.142L125.009 163.437L126.054 165.142ZM174.646 244.438L175.691 246.143L174.646 244.438ZM189.998 180.494L188.293 181.539L189.998 180.494ZM209.748 246.708C211.25 253.379 205.763 259.557 198.961 258.851L198.548 262.83C208.071 263.817 215.753 255.169 213.65 245.829L209.748 246.708ZM206.425 231.949L209.748 246.708L213.65 245.829L210.327 231.07L206.425 231.949ZM211.237 218.022C207.122 221.376 205.259 226.77 206.425 231.949L210.327 231.07C209.494 227.371 210.825 223.518 213.765 221.122L211.237 218.022ZM222.928 208.493L211.237 218.022L213.765 221.122L225.455 211.594L222.928 208.493ZM221.985 192.31C227.732 195.973 228.21 204.187 222.928 208.493L225.455 211.594C232.851 205.565 232.181 194.066 224.135 188.937L221.985 192.31ZM209.037 184.055L221.985 192.31L224.135 188.937L211.188 180.682L209.037 184.055ZM202.63 170.882C202.115 176.129 204.591 181.221 209.037 184.055L211.188 180.682C208.012 178.658 206.243 175.021 206.611 171.273L202.63 170.882ZM204.126 155.647L202.63 170.882L206.611 171.273L208.107 156.038L204.126 155.647ZM192.031 144.902C198.665 143.446 204.79 148.887 204.126 155.647L208.107 156.038C209.037 146.574 200.462 138.957 191.173 140.995L192.031 144.902ZM177.078 148.183L192.031 144.902L191.173 140.995L176.221 144.276L177.078 148.183ZM163.242 143.374C166.58 147.455 171.928 149.314 177.078 148.183L176.221 144.276C172.542 145.084 168.722 143.756 166.338 140.841L163.242 143.374ZM153.519 131.489L163.242 143.374L166.338 140.841L156.615 128.956L153.519 131.489ZM137.337 132.461C140.99 126.707 149.203 126.214 153.519 131.489L156.615 128.956C150.573 121.571 139.075 122.261 133.96 130.317L137.337 132.461ZM129.252 145.193L137.337 132.461L133.96 130.317L125.876 143.048L129.252 145.193ZM115.99 151.613C121.27 152.161 126.407 149.674 129.252 145.193L125.876 143.048C123.843 146.25 120.174 148.026 116.402 147.635L115.99 151.613ZM100.942 150.053L115.99 151.613L116.402 147.635L101.355 146.074L100.942 150.053ZM90.1548 162.196C88.6527 155.525 94.1401 149.348 100.942 150.053L101.355 146.074C91.8319 145.087 84.1495 153.735 86.2525 163.075L90.1548 162.196ZM93.4779 176.955L90.1548 162.196L86.2525 163.075L89.5756 177.834L93.4779 176.955ZM88.6652 190.882C92.7804 187.528 94.6441 182.134 93.4779 176.955L89.5756 177.834C90.4086 181.533 89.0774 185.386 86.138 187.782L88.6652 190.882ZM76.975 200.411L88.6652 190.882L86.138 187.782L74.4478 197.31L76.975 200.411ZM77.9175 216.594C72.1705 212.931 71.6921 204.717 76.975 200.411L74.4478 197.31C67.0517 203.339 67.7214 214.838 75.7672 219.967L77.9175 216.594ZM90.8653 224.849L77.9175 216.594L75.7672 219.967L88.715 228.222L90.8653 224.849ZM97.2723 238.022C97.7876 232.775 95.3112 227.683 90.8653 224.849L88.715 228.222C91.8906 230.246 93.6596 233.883 93.2915 237.631L97.2723 238.022ZM95.7763 253.257L97.2723 238.022L93.2915 237.631L91.7954 252.866L95.7763 253.257ZM107.872 264.002C101.237 265.458 95.1124 260.017 95.7763 253.257L91.7954 252.866C90.866 262.33 99.4407 269.947 108.729 267.909L107.872 264.002ZM122.824 260.721L107.872 264.002L108.729 267.909L123.682 264.628L122.824 260.721ZM136.661 265.53C133.322 261.449 127.974 259.59 122.824 260.721L123.682 264.628C127.36 263.82 131.18 265.148 133.565 268.063L136.661 265.53ZM146.384 277.415L136.661 265.53L133.565 268.063L143.288 279.948L146.384 277.415ZM162.566 276.443C158.912 282.197 150.7 282.69 146.384 277.415L143.288 279.948C149.33 287.333 160.828 286.643 165.942 278.588L162.566 276.443ZM170.65 263.711L162.566 276.443L165.942 278.588L174.027 265.856L170.65 263.711ZM183.913 257.291C178.632 256.743 173.496 259.23 170.65 263.711L174.027 265.856C176.06 262.654 179.728 260.878 183.5 261.269L183.913 257.291ZM198.961 258.851L183.913 257.291L183.5 261.269L198.548 262.83L198.961 258.851ZM112.408 228.041C99.5664 207.086 106.144 179.689 127.099 166.848L125.009 163.437C102.17 177.433 95.0015 207.293 108.997 230.131L112.408 228.041ZM173.601 242.733C152.646 255.574 125.249 248.996 112.408 228.041L108.997 230.131C122.993 252.97 152.853 260.139 175.691 246.143L173.601 242.733ZM188.293 181.539C201.134 202.494 194.556 229.891 173.601 242.733L175.691 246.143C198.53 232.148 205.699 202.288 191.703 179.449L188.293 181.539ZM127.099 166.848C148.054 154.006 175.451 160.584 188.293 181.539L191.703 179.449C177.708 156.61 147.848 149.442 125.009 163.437L127.099 166.848Z" fill="#25316D" mask="url(#path-1-inside-1_1333_6552)"/>
<path d="M136.274 214.642L119.036 207.037V202.825L136.274 195.22V199.744L122.507 205.75V204.151L136.274 210.118V214.642Z" fill="#CB2027"/>
<path d="M140.314 220.18L153.34 188.005H158.215L145.189 220.18H140.314Z" fill="#CB2027"/>
<path d="M162.288 214.642V210.118L176.055 204.151V205.75L162.288 199.744V195.22L179.565 202.825V207.037L162.288 214.642Z" fill="#CB2027"/>
<mask id="path-4-inside-2_1333_6552" fill="white">
<path fill-rule="evenodd" clip-rule="evenodd" d="M242.986 362.462C248.305 365.667 255.19 364.286 258.861 359.277L269.351 344.959C270.365 343.576 271.664 342.425 273.16 341.586L288.677 332.882C294.044 329.871 296.264 323.289 293.816 317.643L286.638 301.088C285.964 299.533 285.627 297.853 285.649 296.158L285.885 278.116C285.966 271.963 281.379 266.746 275.266 266.038L257.592 263.993C255.888 263.796 254.246 263.236 252.777 262.35L237.576 253.188C232.257 249.982 225.371 251.364 221.701 256.373L211.211 270.69C210.197 272.074 208.898 273.224 207.402 274.063L191.885 282.767C186.518 285.778 184.298 292.361 186.746 298.007L193.923 314.561C194.598 316.116 194.935 317.797 194.913 319.492L194.676 337.533C194.596 343.687 199.183 348.904 205.296 349.611L222.969 351.656C224.673 351.853 226.315 352.413 227.785 353.299L242.986 362.462ZM233.494 273.999C215.083 277.693 203.153 295.612 206.847 314.023C210.541 332.433 228.46 344.364 246.871 340.67C265.282 336.976 277.212 319.057 273.518 300.646C269.824 282.235 251.905 270.305 233.494 273.999Z"/>
</mask>
<path fill-rule="evenodd" clip-rule="evenodd" d="M242.986 362.462C248.305 365.667 255.19 364.286 258.861 359.277L269.351 344.959C270.365 343.576 271.664 342.425 273.16 341.586L288.677 332.882C294.044 329.871 296.264 323.289 293.816 317.643L286.638 301.088C285.964 299.533 285.627 297.853 285.649 296.158L285.885 278.116C285.966 271.963 281.379 266.746 275.266 266.038L257.592 263.993C255.888 263.796 254.246 263.236 252.777 262.35L237.576 253.188C232.257 249.982 225.371 251.364 221.701 256.373L211.211 270.69C210.197 272.074 208.898 273.224 207.402 274.063L191.885 282.767C186.518 285.778 184.298 292.361 186.746 298.007L193.923 314.561C194.598 316.116 194.935 317.797 194.913 319.492L194.676 337.533C194.596 343.687 199.183 348.904 205.296 349.611L222.969 351.656C224.673 351.853 226.315 352.413 227.785 353.299L242.986 362.462ZM233.494 273.999C215.083 277.693 203.153 295.612 206.847 314.023C210.541 332.433 228.46 344.364 246.871 340.67C265.282 336.976 277.212 319.057 273.518 300.646C269.824 282.235 251.905 270.305 233.494 273.999Z" fill="white"/>
<path d="M258.861 359.277L260.474 360.459L258.861 359.277ZM242.986 362.462L244.019 360.749L244.019 360.749L242.986 362.462ZM269.351 344.959L270.964 346.141L269.351 344.959ZM273.16 341.586L274.139 343.33L274.139 343.33L273.16 341.586ZM288.677 332.882L287.698 331.138L288.677 332.882ZM293.816 317.643L295.651 316.847L295.651 316.847L293.816 317.643ZM286.638 301.088L284.803 301.884L286.638 301.088ZM285.649 296.158L283.649 296.132L285.649 296.158ZM285.885 278.116L283.886 278.09L283.886 278.09L285.885 278.116ZM275.266 266.038L275.036 268.025L275.036 268.025L275.266 266.038ZM257.592 263.993L257.822 262.007L257.822 262.007L257.592 263.993ZM252.777 262.35L251.745 264.063L251.745 264.063L252.777 262.35ZM237.575 253.188L236.543 254.901L237.575 253.188ZM221.701 256.373L220.088 255.191L220.088 255.191L221.701 256.373ZM211.21 270.69L212.824 271.872L212.824 271.872L211.21 270.69ZM207.402 274.063L206.423 272.319L207.402 274.063ZM191.885 282.767L190.906 281.023L191.885 282.767ZM186.746 298.007L188.581 297.211L186.746 298.007ZM193.923 314.561L192.088 315.357L192.088 315.357L193.923 314.561ZM194.913 319.492L192.913 319.466L192.913 319.466L194.913 319.492ZM194.676 337.533L196.676 337.56L194.676 337.533ZM205.296 349.611L205.066 351.598L205.296 349.611ZM222.969 351.656L222.739 353.643L222.739 353.643L222.969 351.656ZM227.785 353.299L228.817 351.586L228.817 351.586L227.785 353.299ZM206.847 314.023L208.808 313.629L206.847 314.023ZM233.494 273.999L233.101 272.038L233.494 273.999ZM246.871 340.67L246.477 338.709L246.871 340.67ZM273.518 300.646L275.479 300.253L273.518 300.646ZM257.247 358.095C254.189 362.269 248.451 363.42 244.019 360.749L241.954 364.175C248.159 367.915 256.192 366.303 260.474 360.459L257.247 358.095ZM267.738 343.777L257.247 358.095L260.474 360.459L270.964 346.141L267.738 343.777ZM272.182 339.842C270.436 340.821 268.921 342.163 267.738 343.777L270.964 346.141C271.809 344.988 272.892 344.03 274.139 343.33L272.182 339.842ZM287.698 331.138L272.182 339.842L274.139 343.33L289.655 334.626L287.698 331.138ZM291.981 318.438C294.021 323.143 292.171 328.629 287.698 331.138L289.655 334.626C295.917 331.114 298.507 323.434 295.651 316.847L291.981 318.438ZM284.803 301.884L291.981 318.438L295.651 316.847L288.473 300.293L284.803 301.884ZM283.649 296.132C283.623 298.109 284.017 300.07 284.803 301.884L288.473 300.293C287.911 298.997 287.63 297.596 287.649 296.184L283.649 296.132ZM283.886 278.09L283.649 296.132L287.649 296.184L287.885 278.142L283.886 278.09ZM275.036 268.025C280.13 268.615 283.953 272.962 283.886 278.09L287.885 278.142C287.979 270.963 282.627 264.877 275.496 264.052L275.036 268.025ZM257.362 265.98L275.036 268.025L275.496 264.052L257.822 262.007L257.362 265.98ZM251.745 264.063C253.459 265.096 255.374 265.75 257.362 265.98L257.822 262.007C256.402 261.842 255.034 261.375 253.809 260.638L251.745 264.063ZM236.543 254.901L251.745 264.063L253.809 260.638L238.608 251.475L236.543 254.901ZM223.314 257.555C226.373 253.38 232.111 252.229 236.543 254.901L238.608 251.475C232.403 247.735 224.37 249.347 220.088 255.191L223.314 257.555ZM212.824 271.872L223.314 257.555L220.088 255.191L209.597 269.508L212.824 271.872ZM208.38 275.808C210.126 274.829 211.641 273.487 212.824 271.872L209.597 269.508C208.752 270.661 207.67 271.62 206.423 272.319L208.38 275.808ZM192.863 284.512L208.38 275.808L206.423 272.319L190.906 281.023L192.863 284.512ZM188.581 297.211C186.541 292.506 188.391 287.021 192.863 284.512L190.906 281.023C184.645 284.536 182.055 292.215 184.911 298.802L188.581 297.211ZM195.758 313.765L188.581 297.211L184.911 298.802L192.088 315.357L195.758 313.765ZM196.912 319.518C196.938 317.54 196.545 315.58 195.758 313.765L192.088 315.357C192.65 316.653 192.931 318.053 192.913 319.466L196.912 319.518ZM196.676 337.56L196.912 319.518L192.913 319.466L192.677 337.507L196.676 337.56ZM205.526 347.624C200.432 347.035 196.609 342.687 196.676 337.56L192.677 337.507C192.582 344.686 197.934 350.773 205.066 351.598L205.526 347.624ZM223.199 349.669L205.526 347.624L205.066 351.598L222.739 353.643L223.199 349.669ZM228.817 351.586C227.103 350.553 225.187 349.899 223.199 349.669L222.739 353.643C224.16 353.807 225.528 354.274 226.752 355.012L228.817 351.586ZM244.019 360.749L228.817 351.586L226.752 355.012L241.954 364.175L244.019 360.749ZM208.808 313.629C205.331 296.301 216.56 279.436 233.888 275.96L233.101 272.038C213.607 275.949 200.975 294.922 204.886 314.416L208.808 313.629ZM246.477 338.709C229.15 342.186 212.284 330.957 208.808 313.629L204.886 314.416C208.797 333.91 227.77 346.542 247.264 342.631L246.477 338.709ZM271.557 301.04C275.034 318.367 263.805 335.233 246.477 338.709L247.264 342.631C266.758 338.72 279.39 319.746 275.479 300.253L271.557 301.04ZM233.888 275.96C251.215 272.483 268.081 283.712 271.557 301.04L275.479 300.253C271.568 280.759 252.595 268.127 233.101 272.038L233.888 275.96Z" fill="#25316D" mask="url(#path-4-inside-2_1333_6552)"/>
<mask id="path-6-inside-3_1333_6552" fill="white">
<path fill-rule="evenodd" clip-rule="evenodd" d="M256.018 81.1316C261.119 74.6888 258.381 65.1406 250.641 62.38L247.45 61.2422C243.158 59.7113 240.103 55.8811 239.566 51.3557L239.167 47.9984C238.201 39.8769 229.572 35.0793 222.165 38.5456L218.832 40.1051C214.744 42.0177 209.93 41.4754 206.37 38.7017L203.473 36.4441C197.052 31.4411 187.62 34.1459 184.826 41.791L183.565 45.2409C182.016 49.4794 178.221 52.4907 173.741 53.0347L170.088 53.4783C161.969 54.4643 157.194 63.1055 160.679 70.5044L162.12 73.563C164.062 77.6857 163.501 82.5527 160.672 86.1256L158.569 88.7811C153.468 95.2239 156.206 104.772 163.946 107.533L167.136 108.671C171.429 110.201 174.484 114.032 175.021 118.557L175.42 121.914C176.386 130.036 185.015 134.833 192.422 131.367L195.755 129.808C199.843 127.895 204.657 128.437 208.217 131.211L211.114 133.469C217.535 138.472 226.967 135.767 229.761 128.122L231.022 124.672C232.571 120.433 236.366 117.422 240.846 116.878L244.499 116.434C252.618 115.448 257.393 106.807 253.908 99.4083L252.467 96.3497C250.525 92.227 251.086 87.36 253.915 83.7871L256.018 81.1316ZM186.626 90.8826C189.823 102.031 201.453 108.478 212.601 105.281C223.75 102.084 230.196 90.4545 226.999 79.3058C223.802 68.1571 212.173 61.7108 201.024 64.9077C189.876 68.1045 183.43 79.7339 186.626 90.8826Z"/>
</mask>
<path fill-rule="evenodd" clip-rule="evenodd" d="M256.018 81.1316C261.119 74.6888 258.381 65.1406 250.641 62.38L247.45 61.2422C243.158 59.7113 240.103 55.8811 239.566 51.3557L239.167 47.9984C238.201 39.8769 229.572 35.0793 222.165 38.5456L218.832 40.1051C214.744 42.0177 209.93 41.4754 206.37 38.7017L203.473 36.4441C197.052 31.4411 187.62 34.1459 184.826 41.791L183.565 45.2409C182.016 49.4794 178.221 52.4907 173.741 53.0347L170.088 53.4783C161.969 54.4643 157.194 63.1055 160.679 70.5044L162.12 73.563C164.062 77.6857 163.501 82.5527 160.672 86.1256L158.569 88.7811C153.468 95.2239 156.206 104.772 163.946 107.533L167.136 108.671C171.429 110.201 174.484 114.032 175.021 118.557L175.42 121.914C176.386 130.036 185.015 134.833 192.422 131.367L195.755 129.808C199.843 127.895 204.657 128.437 208.217 131.211L211.114 133.469C217.535 138.472 226.967 135.767 229.761 128.122L231.022 124.672C232.571 120.433 236.366 117.422 240.846 116.878L244.499 116.434C252.618 115.448 257.393 106.807 253.908 99.4083L252.467 96.3497C250.525 92.227 251.086 87.36 253.915 83.7871L256.018 81.1316ZM186.626 90.8826C189.823 102.031 201.453 108.478 212.601 105.281C223.75 102.084 230.196 90.4545 226.999 79.3058C223.802 68.1571 212.173 61.7108 201.024 64.9077C189.876 68.1045 183.43 79.7339 186.626 90.8826Z" fill="white"/>
<path d="M250.641 62.38L251.313 60.4962L250.641 62.38ZM256.018 81.1316L254.45 79.8901L254.45 79.8901L256.018 81.1316ZM247.45 61.2422L246.779 63.126L246.779 63.126L247.45 61.2422ZM239.566 51.3557L237.58 51.5917L239.566 51.3557ZM239.167 47.9984L241.153 47.7624L239.167 47.9984ZM222.165 38.5456L223.012 40.3571L222.165 38.5456ZM218.832 40.1051L219.679 41.9166L218.832 40.1051ZM206.37 38.7017L205.141 40.2793L206.37 38.7017ZM203.473 36.4441L204.702 34.8665L204.702 34.8665L203.473 36.4441ZM184.826 41.791L182.947 41.1045L182.947 41.1045L184.826 41.791ZM183.565 45.2409L185.444 45.9273L185.444 45.9273L183.565 45.2409ZM173.741 53.0347L173.5 51.0493L173.741 53.0347ZM170.088 53.4783L170.329 55.4637L170.329 55.4637L170.088 53.4783ZM160.679 70.5044L158.87 71.3567L158.87 71.3567L160.679 70.5044ZM162.12 73.563L163.929 72.7107L163.929 72.7107L162.12 73.563ZM160.672 86.1256L159.104 84.8841L160.672 86.1256ZM158.569 88.7811L160.137 90.0226L158.569 88.7811ZM163.946 107.533L163.274 109.416L163.946 107.533ZM167.136 108.671L167.808 106.787L167.808 106.787L167.136 108.671ZM175.021 118.557L173.035 118.793L175.021 118.557ZM175.42 121.914L177.406 121.678L175.42 121.914ZM192.422 131.367L191.575 129.556L192.422 131.367ZM195.755 129.808L196.603 131.619L195.755 129.808ZM208.217 131.211L209.446 129.633L209.446 129.633L208.217 131.211ZM211.114 133.469L209.885 135.046L209.885 135.046L211.114 133.469ZM229.761 128.122L231.639 128.808L229.761 128.122ZM231.022 124.672L232.9 125.358L231.022 124.672ZM240.846 116.878L241.087 118.863L241.087 118.863L240.846 116.878ZM244.499 116.434L244.258 114.449L244.258 114.449L244.499 116.434ZM253.908 99.4083L255.717 98.556L255.717 98.556L253.908 99.4083ZM252.467 96.3497L250.658 97.202L252.467 96.3497ZM253.915 83.7871L255.483 85.0286L255.483 85.0286L253.915 83.7871ZM212.601 105.281L213.153 107.203L212.601 105.281ZM186.626 90.8826L188.549 90.3313L186.626 90.8826ZM226.999 79.3058L228.922 78.7545L226.999 79.3058ZM249.969 64.2638C256.419 66.5643 258.701 74.5211 254.45 79.8901L257.586 82.3731C263.537 74.8565 260.343 63.7169 251.313 60.4962L249.969 64.2638ZM246.779 63.126L249.969 64.2638L251.313 60.4962L248.122 59.3584L246.779 63.126ZM237.58 51.5917C238.207 56.8713 241.771 61.3399 246.779 63.126L248.122 59.3584C244.545 58.0826 242 54.8908 241.552 51.1197L237.58 51.5917ZM237.181 48.2345L237.58 51.5917L241.552 51.1197L241.153 47.7624L237.181 48.2345ZM223.012 40.3571C229.185 37.4685 236.376 41.4665 237.181 48.2345L241.153 47.7624C240.027 38.2873 229.959 32.6901 221.317 36.7341L223.012 40.3571ZM219.679 41.9166L223.012 40.3571L221.317 36.7341L217.984 38.2936L219.679 41.9166ZM205.141 40.2793C209.294 43.5153 214.911 44.1479 219.679 41.9166L217.984 38.2936C214.578 39.8874 210.566 39.4355 207.599 37.1241L205.141 40.2793ZM202.244 38.0217L205.141 40.2793L207.599 37.1241L204.702 34.8665L202.244 38.0217ZM186.704 42.4774C189.033 36.1065 196.893 33.8525 202.244 38.0217L204.702 34.8665C197.212 29.0297 186.207 32.1853 182.947 41.1045L186.704 42.4774ZM185.444 45.9273L186.704 42.4774L182.947 41.1045L181.687 44.5545L185.444 45.9273ZM173.982 55.0201C179.208 54.3854 183.637 50.8723 185.444 45.9273L181.687 44.5545C180.396 48.0866 177.233 50.5959 173.5 51.0493L173.982 55.0201ZM170.329 55.4637L173.982 55.0201L173.5 51.0493L169.847 51.4929L170.329 55.4637ZM162.488 69.6522C159.584 63.4864 163.563 56.2854 170.329 55.4637L169.847 51.4929C160.375 52.6432 154.803 62.7247 158.87 71.3567L162.488 69.6522ZM163.929 72.7107L162.488 69.6522L158.87 71.3567L160.31 74.4152L163.929 72.7107ZM162.24 87.3671C165.54 83.1987 166.195 77.5205 163.929 72.7107L160.31 74.4152C161.929 77.8509 161.461 81.9067 159.104 84.8841L162.24 87.3671ZM160.137 90.0226L162.24 87.3671L159.104 84.8841L157.001 87.5396L160.137 90.0226ZM164.618 105.649C158.168 103.348 155.886 95.3916 160.137 90.0226L157.001 87.5396C151.05 95.0562 154.244 106.196 163.274 109.416L164.618 105.649ZM167.808 106.787L164.618 105.649L163.274 109.416L166.465 110.554L167.808 106.787ZM177.007 118.321C176.38 113.041 172.816 108.573 167.808 106.787L166.465 110.554C170.042 111.83 172.587 115.022 173.035 118.793L177.007 118.321ZM177.406 121.678L177.007 118.321L173.035 118.793L173.434 122.15L177.406 121.678ZM191.575 129.556C185.402 132.444 178.211 128.446 177.406 121.678L173.434 122.15C174.56 131.625 184.628 137.223 193.27 133.179L191.575 129.556ZM194.908 127.996L191.575 129.556L193.27 133.179L196.603 131.619L194.908 127.996ZM209.446 129.633C205.293 126.397 199.676 125.765 194.908 127.996L196.603 131.619C200.009 130.025 204.021 130.477 206.988 132.789L209.446 129.633ZM212.343 131.891L209.446 129.633L206.988 132.789L209.885 135.046L212.343 131.891ZM227.882 127.435C225.554 133.806 217.694 136.06 212.343 131.891L209.885 135.046C217.375 140.883 228.38 137.727 231.639 128.808L227.882 127.435ZM229.143 123.985L227.882 127.435L231.639 128.808L232.9 125.358L229.143 123.985ZM240.605 114.893C235.379 115.527 230.95 119.04 229.143 123.985L232.9 125.358C234.191 121.826 237.354 119.317 241.087 118.863L240.605 114.893ZM244.258 114.449L240.605 114.893L241.087 118.863L244.74 118.42L244.258 114.449ZM252.099 100.261C255.003 106.426 251.024 113.627 244.258 114.449L244.74 118.42C254.212 117.27 259.784 107.188 255.717 98.556L252.099 100.261ZM250.658 97.202L252.099 100.261L255.717 98.556L254.277 95.4975L250.658 97.202ZM252.347 82.5456C249.047 86.714 248.392 92.3922 250.658 97.202L254.277 95.4975C252.658 92.0619 253.126 88.006 255.483 85.0286L252.347 82.5456ZM254.45 79.8901L252.347 82.5456L255.483 85.0286L257.586 82.3731L254.45 79.8901ZM212.05 103.358C201.963 106.251 191.441 100.418 188.549 90.3313L184.704 91.4338C188.205 103.644 200.942 110.704 213.153 107.203L212.05 103.358ZM225.077 79.8571C227.969 89.944 222.137 100.466 212.05 103.358L213.153 107.203C225.363 103.702 232.423 90.965 228.922 78.7545L225.077 79.8571ZM201.576 66.8302C211.663 63.9378 222.184 69.7702 225.077 79.8571L228.922 78.7545C225.421 66.544 212.684 59.4839 200.473 62.9852L201.576 66.8302ZM188.549 90.3313C185.656 80.2444 191.489 69.7226 201.576 66.8302L200.473 62.9852C188.263 66.4865 181.203 79.2234 184.704 91.4338L188.549 90.3313Z" fill="#25316D" mask="url(#path-6-inside-3_1333_6552)"/>
<circle cx="117.773" cy="95.5" r="9" fill="#CB2027"/>
<circle cx="272.773" cy="183.5" r="9" fill="#CB2027"/>
<circle cx="272.773" cy="183.5" r="25" stroke="#25316D" stroke-width="2"/>
</svg>
