<svg width="64" height="64" viewBox="0 0 64 64" fill="none" xmlns="http://www.w3.org/2000/svg">
<path d="M26.834 4.95068C26.834 4.3984 27.2817 3.95068 27.834 3.95068H59.834C60.3863 3.95068 60.834 4.3984 60.834 4.95068V8.95068H26.834V4.95068Z" fill="white" stroke="#25316D" stroke-width="2"/>
<path d="M26.834 8.95068H60.834V21.9507C60.834 22.503 60.3863 22.9507 59.834 22.9507H27.834C27.2817 22.9507 26.834 22.503 26.834 21.9507V8.95068Z" fill="white" stroke="#25316D" stroke-width="2"/>
<path d="M31.469 17.7147V18.1437C31.469 18.4037 31.408 18.6087 31.286 18.7587C31.164 18.9067 30.985 18.9807 30.749 18.9807C30.513 18.9807 30.334 18.9067 30.212 18.7587C30.09 18.6087 30.029 18.4037 30.029 18.1437V17.7147C30.029 17.4547 30.09 17.2507 30.212 17.1027C30.334 16.9547 30.513 16.8807 30.749 16.8807C30.985 16.8807 31.164 16.9547 31.286 17.1027C31.408 17.2507 31.469 17.4547 31.469 17.7147ZM31.106 17.7147C31.106 17.3807 30.987 17.2137 30.749 17.2137C30.627 17.2137 30.537 17.2557 30.479 17.3397C30.421 17.4237 30.392 17.5487 30.392 17.7147V18.1437C30.392 18.3097 30.421 18.4357 30.479 18.5217C30.537 18.6057 30.627 18.6477 30.749 18.6477C30.987 18.6477 31.106 18.4797 31.106 18.1437V17.7147ZM33.831 18.9507H32.595V18.6657C32.595 18.5217 32.614 18.4017 32.652 18.3057C32.69 18.2077 32.741 18.1277 32.805 18.0657C32.869 18.0017 32.939 17.9507 33.015 17.9127L33.219 17.8107C33.297 17.7707 33.36 17.7287 33.408 17.6847C33.458 17.6387 33.483 17.5797 33.483 17.5077V17.4537C33.483 17.3797 33.457 17.3217 33.405 17.2797C33.355 17.2357 33.274 17.2137 33.162 17.2137C33.094 17.2137 33.025 17.2237 32.955 17.2437C32.887 17.2637 32.804 17.2917 32.706 17.3277L32.595 17.0187C32.707 16.9687 32.809 16.9337 32.901 16.9137C32.995 16.8917 33.086 16.8807 33.174 16.8807C33.336 16.8807 33.465 16.9067 33.561 16.9587C33.659 17.0107 33.729 17.0807 33.771 17.1687C33.815 17.2547 33.837 17.3497 33.837 17.4537V17.5077C33.837 17.6157 33.815 17.7077 33.771 17.7837C33.729 17.8597 33.673 17.9237 33.603 17.9757C33.533 18.0277 33.457 18.0737 33.375 18.1137L33.171 18.2157C33.097 18.2517 33.042 18.3017 33.006 18.3657C32.972 18.4297 32.953 18.5117 32.949 18.6117H33.831V18.9507ZM36.4347 17.7147V18.1437C36.4347 18.4037 36.3737 18.6087 36.2517 18.7587C36.1297 18.9067 35.9507 18.9807 35.7147 18.9807C35.4787 18.9807 35.2997 18.9067 35.1777 18.7587C35.0557 18.6087 34.9947 18.4037 34.9947 18.1437V17.7147C34.9947 17.4547 35.0557 17.2507 35.1777 17.1027C35.2997 16.9547 35.4787 16.8807 35.7147 16.8807C35.9507 16.8807 36.1297 16.9547 36.2517 17.1027C36.3737 17.2507 36.4347 17.4547 36.4347 17.7147ZM36.0717 17.7147C36.0717 17.3807 35.9527 17.2137 35.7147 17.2137C35.5927 17.2137 35.5027 17.2557 35.4447 17.3397C35.3867 17.4237 35.3577 17.5487 35.3577 17.7147V18.1437C35.3577 18.3097 35.3867 18.4357 35.4447 18.5217C35.5027 18.6057 35.5927 18.6477 35.7147 18.6477C35.9527 18.6477 36.0717 18.4797 36.0717 18.1437V17.7147ZM38.7787 18.3957C38.7787 18.5017 38.7567 18.5997 38.7127 18.6897C38.6687 18.7777 38.5977 18.8487 38.4997 18.9027C38.4037 18.9547 38.2747 18.9807 38.1127 18.9807C38.0207 18.9807 37.9247 18.9697 37.8247 18.9477C37.7267 18.9257 37.6187 18.8887 37.5007 18.8367L37.6117 18.5277C37.7177 18.5657 37.8067 18.5957 37.8787 18.6177C37.9527 18.6377 38.0267 18.6477 38.1007 18.6477C38.2067 18.6477 38.2867 18.6267 38.3407 18.5847C38.3967 18.5407 38.4247 18.4727 38.4247 18.3807V18.3387C38.4247 18.2627 38.4007 18.2017 38.3527 18.1557C38.3067 18.1077 38.2347 18.0837 38.1367 18.0837H37.8187V17.7597H38.1367C38.2307 17.7597 38.2997 17.7377 38.3437 17.6937C38.3877 17.6477 38.4097 17.5887 38.4097 17.5167V17.4747C38.4097 17.3827 38.3837 17.3167 38.3317 17.2767C38.2817 17.2347 38.2077 17.2137 38.1097 17.2137C38.0397 17.2137 37.9687 17.2237 37.8967 17.2437C37.8267 17.2617 37.7417 17.2897 37.6417 17.3277L37.5307 17.0187C37.6427 16.9667 37.7467 16.9307 37.8427 16.9107C37.9387 16.8907 38.0317 16.8807 38.1217 16.8807C38.2757 16.8807 38.3997 16.9067 38.4937 16.9587C38.5877 17.0107 38.6557 17.0807 38.6977 17.1687C38.7417 17.2567 38.7637 17.3537 38.7637 17.4597V17.5017C38.7637 17.5957 38.7397 17.6787 38.6917 17.7507C38.6457 17.8207 38.5847 17.8767 38.5087 17.9187C38.5907 17.9627 38.6557 18.0217 38.7037 18.0957C38.7537 18.1677 38.7787 18.2537 38.7787 18.3537V18.3957ZM41.2657 18.1467C41.2657 18.4267 41.1997 18.6357 41.0677 18.7737C40.9357 18.9117 40.7497 18.9807 40.5097 18.9807C40.4257 18.9807 40.3387 18.9707 40.2487 18.9507C40.1587 18.9307 40.0577 18.8947 39.9457 18.8427L40.0747 18.5337C40.1647 18.5757 40.2437 18.6057 40.3117 18.6237C40.3817 18.6397 40.4447 18.6477 40.5007 18.6477C40.6267 18.6477 40.7277 18.6097 40.8037 18.5337C40.8817 18.4577 40.9207 18.3287 40.9207 18.1467V18.0387C40.8527 18.1007 40.7807 18.1467 40.7047 18.1767C40.6307 18.2067 40.5557 18.2217 40.4797 18.2217C40.3617 18.2217 40.2577 18.1947 40.1677 18.1407C40.0797 18.0867 40.0117 18.0117 39.9637 17.9157C39.9157 17.8197 39.8917 17.7087 39.8917 17.5827V17.5227C39.8917 17.4107 39.9187 17.3057 39.9727 17.2077C40.0267 17.1097 40.1037 17.0307 40.2037 16.9707C40.3037 16.9107 40.4227 16.8807 40.5607 16.8807C40.7827 16.8807 40.9557 16.9557 41.0797 17.1057C41.2037 17.2557 41.2657 17.4617 41.2657 17.7237V18.1467ZM40.2427 17.5827C40.2427 17.6747 40.2677 17.7507 40.3177 17.8107C40.3697 17.8687 40.4417 17.8977 40.5337 17.8977C40.6757 17.8977 40.8047 17.8437 40.9207 17.7357V17.7237C40.9207 17.5517 40.8887 17.4237 40.8247 17.3397C40.7627 17.2557 40.6727 17.2137 40.5547 17.2137C40.4567 17.2137 40.3797 17.2457 40.3237 17.3097C40.2697 17.3737 40.2427 17.4447 40.2427 17.5227V17.5827ZM43.7867 18.4887H43.5737V18.9507H43.2257V18.4887H42.3497V18.1977C42.4397 18.0577 42.5287 17.9157 42.6167 17.7717C42.7067 17.6257 42.7907 17.4807 42.8687 17.3367C42.9467 17.1907 43.0107 17.0487 43.0607 16.9107H43.4537C43.3797 17.1147 43.2797 17.3247 43.1537 17.5407C43.0277 17.7547 42.8977 17.9637 42.7637 18.1677H43.2257V17.8587H43.5737V18.1677H43.7867V18.4887ZM46.2327 18.3387C46.2327 18.4607 46.2057 18.5707 46.1517 18.6687C46.0977 18.7647 46.0207 18.8407 45.9207 18.8967C45.8227 18.9527 45.7037 18.9807 45.5637 18.9807C45.3417 18.9807 45.1687 18.9057 45.0447 18.7557C44.9207 18.6057 44.8587 18.3997 44.8587 18.1377V17.7147C44.8587 17.4347 44.9247 17.2257 45.0567 17.0877C45.1887 16.9497 45.3747 16.8807 45.6147 16.8807C45.6987 16.8807 45.7857 16.8907 45.8757 16.9107C45.9677 16.9307 46.0687 16.9667 46.1787 17.0187L46.0497 17.3277C45.9597 17.2857 45.8807 17.2567 45.8127 17.2407C45.7447 17.2227 45.6817 17.2137 45.6237 17.2137C45.4977 17.2137 45.3957 17.2517 45.3177 17.3277C45.2417 17.4017 45.2037 17.5307 45.2037 17.7147V17.8227C45.2737 17.7607 45.3457 17.7147 45.4197 17.6847C45.4957 17.6547 45.5707 17.6397 45.6447 17.6397C45.7647 17.6397 45.8687 17.6667 45.9567 17.7207C46.0447 17.7747 46.1127 17.8497 46.1607 17.9457C46.2087 18.0417 46.2327 18.1527 46.2327 18.2787V18.3387ZM45.2037 18.1377C45.2037 18.3097 45.2357 18.4377 45.2997 18.5217C45.3637 18.6057 45.4537 18.6477 45.5697 18.6477C45.6697 18.6477 45.7467 18.6197 45.8007 18.5637C45.8547 18.5057 45.8817 18.4307 45.8817 18.3387V18.2787C45.8817 18.1847 45.8567 18.1087 45.8067 18.0507C45.7567 17.9927 45.6847 17.9637 45.5907 17.9637C45.4487 17.9637 45.3197 18.0177 45.2037 18.1257V18.1377ZM48.8167 17.7147V18.1437C48.8167 18.4037 48.7557 18.6087 48.6337 18.7587C48.5117 18.9067 48.3327 18.9807 48.0967 18.9807C47.8607 18.9807 47.6817 18.9067 47.5597 18.7587C47.4377 18.6087 47.3767 18.4037 47.3767 18.1437V17.7147C47.3767 17.4547 47.4377 17.2507 47.5597 17.1027C47.6817 16.9547 47.8607 16.8807 48.0967 16.8807C48.3327 16.8807 48.5117 16.9547 48.6337 17.1027C48.7557 17.2507 48.8167 17.4547 48.8167 17.7147ZM48.4537 17.7147C48.4537 17.3807 48.3347 17.2137 48.0967 17.2137C47.9747 17.2137 47.8847 17.2557 47.8267 17.3397C47.7687 17.4237 47.7397 17.5487 47.7397 17.7147V18.1437C47.7397 18.3097 47.7687 18.4357 47.8267 18.5217C47.8847 18.6057 47.9747 18.6477 48.0967 18.6477C48.3347 18.6477 48.4537 18.4797 48.4537 18.1437V17.7147ZM49.8528 17.2017L50.3718 16.9107H50.6718V18.9507H50.3178V17.3067L50.0118 17.4747L49.8528 17.2017ZM53.1016 18.3957C53.1016 18.5017 53.0796 18.5997 53.0356 18.6897C52.9916 18.7777 52.9206 18.8487 52.8226 18.9027C52.7266 18.9547 52.5976 18.9807 52.4356 18.9807C52.3436 18.9807 52.2476 18.9697 52.1476 18.9477C52.0496 18.9257 51.9416 18.8887 51.8236 18.8367L51.9346 18.5277C52.0406 18.5657 52.1296 18.5957 52.2016 18.6177C52.2756 18.6377 52.3496 18.6477 52.4236 18.6477C52.5296 18.6477 52.6096 18.6267 52.6636 18.5847C52.7196 18.5407 52.7476 18.4727 52.7476 18.3807V18.3387C52.7476 18.2627 52.7236 18.2017 52.6756 18.1557C52.6296 18.1077 52.5576 18.0837 52.4596 18.0837H52.1416V17.7597H52.4596C52.5536 17.7597 52.6226 17.7377 52.6666 17.6937C52.7106 17.6477 52.7326 17.5887 52.7326 17.5167V17.4747C52.7326 17.3827 52.7066 17.3167 52.6546 17.2767C52.6046 17.2347 52.5306 17.2137 52.4326 17.2137C52.3626 17.2137 52.2916 17.2237 52.2196 17.2437C52.1496 17.2617 52.0646 17.2897 51.9646 17.3277L51.8536 17.0187C51.9656 16.9667 52.0696 16.9307 52.1656 16.9107C52.2616 16.8907 52.3546 16.8807 52.4446 16.8807C52.5986 16.8807 52.7226 16.9067 52.8166 16.9587C52.9106 17.0107 52.9786 17.0807 53.0206 17.1687C53.0646 17.2567 53.0866 17.3537 53.0866 17.4597V17.5017C53.0866 17.5957 53.0626 17.6787 53.0146 17.7507C52.9686 17.8207 52.9076 17.8767 52.8316 17.9187C52.9136 17.9627 52.9786 18.0217 53.0266 18.0957C53.0766 18.1677 53.1016 18.2537 53.1016 18.3537V18.3957ZM55.4326 18.9507H54.1966V18.6657C54.1966 18.5217 54.2156 18.4017 54.2536 18.3057C54.2916 18.2077 54.3426 18.1277 54.4066 18.0657C54.4706 18.0017 54.5406 17.9507 54.6166 17.9127L54.8206 17.8107C54.8986 17.7707 54.9616 17.7287 55.0096 17.6847C55.0596 17.6387 55.0846 17.5797 55.0846 17.5077V17.4537C55.0846 17.3797 55.0586 17.3217 55.0066 17.2797C54.9566 17.2357 54.8756 17.2137 54.7636 17.2137C54.6956 17.2137 54.6266 17.2237 54.5566 17.2437C54.4886 17.2637 54.4056 17.2917 54.3076 17.3277L54.1966 17.0187C54.3086 16.9687 54.4106 16.9337 54.5026 16.9137C54.5966 16.8917 54.6876 16.8807 54.7756 16.8807C54.9376 16.8807 55.0666 16.9067 55.1626 16.9587C55.2606 17.0107 55.3306 17.0807 55.3726 17.1687C55.4166 17.2547 55.4386 17.3497 55.4386 17.4537V17.5077C55.4386 17.6157 55.4166 17.7077 55.3726 17.7837C55.3306 17.8597 55.2746 17.9237 55.2046 17.9757C55.1346 18.0277 55.0586 18.0737 54.9766 18.1137L54.7726 18.2157C54.6986 18.2517 54.6436 18.3017 54.6076 18.3657C54.5736 18.4297 54.5546 18.5117 54.5506 18.6117H55.4326V18.9507Z" fill="black"/>
<rect x="29.834" y="11.9507" width="26" height="3" fill="#D9D9D9"/>
<path d="M3.33398 42.9507C3.33398 42.3984 3.7817 41.9507 4.33398 41.9507H36.334C36.8863 41.9507 37.334 42.3984 37.334 42.9507V46.9507H3.33398V42.9507Z" fill="white" stroke="#25316D" stroke-width="2"/>
<path d="M3.33398 46.9507H37.334V59.9507C37.334 60.503 36.8863 60.9507 36.334 60.9507H4.33399C3.7817 60.9507 3.33398 60.503 3.33398 59.9507V46.9507Z" fill="white" stroke="#25316D" stroke-width="2"/>
<path d="M7.96898 55.7147V56.1437C7.96898 56.4037 7.90798 56.6087 7.78598 56.7587C7.66398 56.9067 7.48498 56.9807 7.24898 56.9807C7.01298 56.9807 6.83398 56.9067 6.71198 56.7587C6.58998 56.6087 6.52898 56.4037 6.52898 56.1437V55.7147C6.52898 55.4547 6.58998 55.2507 6.71198 55.1027C6.83398 54.9547 7.01298 54.8807 7.24898 54.8807C7.48498 54.8807 7.66398 54.9547 7.78598 55.1027C7.90798 55.2507 7.96898 55.4547 7.96898 55.7147ZM7.60598 55.7147C7.60598 55.3807 7.48698 55.2137 7.24898 55.2137C7.12698 55.2137 7.03698 55.2557 6.97898 55.3397C6.92098 55.4237 6.89198 55.5487 6.89198 55.7147V56.1437C6.89198 56.3097 6.92098 56.4357 6.97898 56.5217C7.03698 56.6057 7.12698 56.6477 7.24898 56.6477C7.48698 56.6477 7.60598 56.4797 7.60598 56.1437V55.7147ZM10.331 56.9507H9.09504V56.6657C9.09504 56.5217 9.11404 56.4017 9.15204 56.3057C9.19004 56.2077 9.24104 56.1277 9.30504 56.0657C9.36904 56.0017 9.43904 55.9507 9.51504 55.9127L9.71904 55.8107C9.79704 55.7707 9.86004 55.7287 9.90804 55.6847C9.95804 55.6387 9.98304 55.5797 9.98304 55.5077V55.4537C9.98304 55.3797 9.95704 55.3217 9.90504 55.2797C9.85504 55.2357 9.77404 55.2137 9.66204 55.2137C9.59404 55.2137 9.52504 55.2237 9.45504 55.2437C9.38704 55.2637 9.30404 55.2917 9.20604 55.3277L9.09504 55.0187C9.20704 54.9687 9.30904 54.9337 9.40104 54.9137C9.49504 54.8917 9.58604 54.8807 9.67404 54.8807C9.83604 54.8807 9.96504 54.9067 10.061 54.9587C10.159 55.0107 10.229 55.0807 10.271 55.1687C10.315 55.2547 10.337 55.3497 10.337 55.4537V55.5077C10.337 55.6157 10.315 55.7077 10.271 55.7837C10.229 55.8597 10.173 55.9237 10.103 55.9757C10.033 56.0277 9.95704 56.0737 9.87504 56.1137L9.67104 56.2157C9.59704 56.2517 9.54204 56.3017 9.50604 56.3657C9.47204 56.4297 9.45304 56.5117 9.44904 56.6117H10.331V56.9507ZM12.9347 55.7147V56.1437C12.9347 56.4037 12.8737 56.6087 12.7517 56.7587C12.6297 56.9067 12.4507 56.9807 12.2147 56.9807C11.9787 56.9807 11.7997 56.9067 11.6777 56.7587C11.5557 56.6087 11.4947 56.4037 11.4947 56.1437V55.7147C11.4947 55.4547 11.5557 55.2507 11.6777 55.1027C11.7997 54.9547 11.9787 54.8807 12.2147 54.8807C12.4507 54.8807 12.6297 54.9547 12.7517 55.1027C12.8737 55.2507 12.9347 55.4547 12.9347 55.7147ZM12.5717 55.7147C12.5717 55.3807 12.4527 55.2137 12.2147 55.2137C12.0927 55.2137 12.0027 55.2557 11.9447 55.3397C11.8867 55.4237 11.8577 55.5487 11.8577 55.7147V56.1437C11.8577 56.3097 11.8867 56.4357 11.9447 56.5217C12.0027 56.6057 12.0927 56.6477 12.2147 56.6477C12.4527 56.6477 12.5717 56.4797 12.5717 56.1437V55.7147ZM15.2787 56.3957C15.2787 56.5017 15.2567 56.5997 15.2127 56.6897C15.1687 56.7777 15.0977 56.8487 14.9997 56.9027C14.9037 56.9547 14.7747 56.9807 14.6127 56.9807C14.5207 56.9807 14.4247 56.9697 14.3247 56.9477C14.2267 56.9257 14.1187 56.8887 14.0007 56.8367L14.1117 56.5277C14.2177 56.5657 14.3067 56.5957 14.3787 56.6177C14.4527 56.6377 14.5267 56.6477 14.6007 56.6477C14.7067 56.6477 14.7867 56.6267 14.8407 56.5847C14.8967 56.5407 14.9247 56.4727 14.9247 56.3807V56.3387C14.9247 56.2627 14.9007 56.2017 14.8527 56.1557C14.8067 56.1077 14.7347 56.0837 14.6367 56.0837H14.3187V55.7597H14.6367C14.7307 55.7597 14.7997 55.7377 14.8437 55.6937C14.8877 55.6477 14.9097 55.5887 14.9097 55.5167V55.4747C14.9097 55.3827 14.8837 55.3167 14.8317 55.2767C14.7817 55.2347 14.7077 55.2137 14.6097 55.2137C14.5397 55.2137 14.4687 55.2237 14.3967 55.2437C14.3267 55.2617 14.2417 55.2897 14.1417 55.3277L14.0307 55.0187C14.1427 54.9667 14.2467 54.9307 14.3427 54.9107C14.4387 54.8907 14.5317 54.8807 14.6217 54.8807C14.7757 54.8807 14.8997 54.9067 14.9937 54.9587C15.0877 55.0107 15.1557 55.0807 15.1977 55.1687C15.2417 55.2567 15.2637 55.3537 15.2637 55.4597V55.5017C15.2637 55.5957 15.2397 55.6787 15.1917 55.7507C15.1457 55.8207 15.0847 55.8767 15.0087 55.9187C15.0907 55.9627 15.1557 56.0217 15.2037 56.0957C15.2537 56.1677 15.2787 56.2537 15.2787 56.3537V56.3957ZM17.7657 56.1467C17.7657 56.4267 17.6997 56.6357 17.5677 56.7737C17.4357 56.9117 17.2497 56.9807 17.0097 56.9807C16.9257 56.9807 16.8387 56.9707 16.7487 56.9507C16.6587 56.9307 16.5577 56.8947 16.4457 56.8427L16.5747 56.5337C16.6647 56.5757 16.7437 56.6057 16.8117 56.6237C16.8817 56.6397 16.9447 56.6477 17.0007 56.6477C17.1267 56.6477 17.2277 56.6097 17.3037 56.5337C17.3817 56.4577 17.4207 56.3287 17.4207 56.1467V56.0387C17.3527 56.1007 17.2807 56.1467 17.2047 56.1767C17.1307 56.2067 17.0557 56.2217 16.9797 56.2217C16.8617 56.2217 16.7577 56.1947 16.6677 56.1407C16.5797 56.0867 16.5117 56.0117 16.4637 55.9157C16.4157 55.8197 16.3917 55.7087 16.3917 55.5827V55.5227C16.3917 55.4107 16.4187 55.3057 16.4727 55.2077C16.5267 55.1097 16.6037 55.0307 16.7037 54.9707C16.8037 54.9107 16.9227 54.8807 17.0607 54.8807C17.2827 54.8807 17.4557 54.9557 17.5797 55.1057C17.7037 55.2557 17.7657 55.4617 17.7657 55.7237V56.1467ZM16.7427 55.5827C16.7427 55.6747 16.7677 55.7507 16.8177 55.8107C16.8697 55.8687 16.9417 55.8977 17.0337 55.8977C17.1757 55.8977 17.3047 55.8437 17.4207 55.7357V55.7237C17.4207 55.5517 17.3887 55.4237 17.3247 55.3397C17.2627 55.2557 17.1727 55.2137 17.0547 55.2137C16.9567 55.2137 16.8797 55.2457 16.8237 55.3097C16.7697 55.3737 16.7427 55.4447 16.7427 55.5227V55.5827ZM20.2867 56.4887H20.0737V56.9507H19.7257V56.4887H18.8497V56.1977C18.9397 56.0577 19.0287 55.9157 19.1167 55.7717C19.2067 55.6257 19.2907 55.4807 19.3687 55.3367C19.4467 55.1907 19.5107 55.0487 19.5607 54.9107H19.9537C19.8797 55.1147 19.7797 55.3247 19.6537 55.5407C19.5277 55.7547 19.3977 55.9637 19.2637 56.1677H19.7257V55.8587H20.0737V56.1677H20.2867V56.4887ZM22.7327 56.3387C22.7327 56.4607 22.7057 56.5707 22.6517 56.6687C22.5977 56.7647 22.5207 56.8407 22.4207 56.8967C22.3227 56.9527 22.2037 56.9807 22.0637 56.9807C21.8417 56.9807 21.6687 56.9057 21.5447 56.7557C21.4207 56.6057 21.3587 56.3997 21.3587 56.1377V55.7147C21.3587 55.4347 21.4247 55.2257 21.5567 55.0877C21.6887 54.9497 21.8747 54.8807 22.1147 54.8807C22.1987 54.8807 22.2857 54.8907 22.3757 54.9107C22.4677 54.9307 22.5687 54.9667 22.6787 55.0187L22.5497 55.3277C22.4597 55.2857 22.3807 55.2567 22.3127 55.2407C22.2447 55.2227 22.1817 55.2137 22.1237 55.2137C21.9977 55.2137 21.8957 55.2517 21.8177 55.3277C21.7417 55.4017 21.7037 55.5307 21.7037 55.7147V55.8227C21.7737 55.7607 21.8457 55.7147 21.9197 55.6847C21.9957 55.6547 22.0707 55.6397 22.1447 55.6397C22.2647 55.6397 22.3687 55.6667 22.4567 55.7207C22.5447 55.7747 22.6127 55.8497 22.6607 55.9457C22.7087 56.0417 22.7327 56.1527 22.7327 56.2787V56.3387ZM21.7037 56.1377C21.7037 56.3097 21.7357 56.4377 21.7997 56.5217C21.8637 56.6057 21.9537 56.6477 22.0697 56.6477C22.1697 56.6477 22.2467 56.6197 22.3007 56.5637C22.3547 56.5057 22.3817 56.4307 22.3817 56.3387V56.2787C22.3817 56.1847 22.3567 56.1087 22.3067 56.0507C22.2567 55.9927 22.1847 55.9637 22.0907 55.9637C21.9487 55.9637 21.8197 56.0177 21.7037 56.1257V56.1377ZM25.3167 55.7147V56.1437C25.3167 56.4037 25.2557 56.6087 25.1337 56.7587C25.0117 56.9067 24.8327 56.9807 24.5967 56.9807C24.3607 56.9807 24.1817 56.9067 24.0597 56.7587C23.9377 56.6087 23.8767 56.4037 23.8767 56.1437V55.7147C23.8767 55.4547 23.9377 55.2507 24.0597 55.1027C24.1817 54.9547 24.3607 54.8807 24.5967 54.8807C24.8327 54.8807 25.0117 54.9547 25.1337 55.1027C25.2557 55.2507 25.3167 55.4547 25.3167 55.7147ZM24.9537 55.7147C24.9537 55.3807 24.8347 55.2137 24.5967 55.2137C24.4747 55.2137 24.3847 55.2557 24.3267 55.3397C24.2687 55.4237 24.2397 55.5487 24.2397 55.7147V56.1437C24.2397 56.3097 24.2687 56.4357 24.3267 56.5217C24.3847 56.6057 24.4747 56.6477 24.5967 56.6477C24.8347 56.6477 24.9537 56.4797 24.9537 56.1437V55.7147ZM26.3528 55.2017L26.8718 54.9107H27.1718V56.9507H26.8178V55.3067L26.5118 55.4747L26.3528 55.2017ZM29.6016 56.3957C29.6016 56.5017 29.5796 56.5997 29.5356 56.6897C29.4916 56.7777 29.4206 56.8487 29.3226 56.9027C29.2266 56.9547 29.0976 56.9807 28.9356 56.9807C28.8436 56.9807 28.7476 56.9697 28.6476 56.9477C28.5496 56.9257 28.4416 56.8887 28.3236 56.8367L28.4346 56.5277C28.5406 56.5657 28.6296 56.5957 28.7016 56.6177C28.7756 56.6377 28.8496 56.6477 28.9236 56.6477C29.0296 56.6477 29.1096 56.6267 29.1636 56.5847C29.2196 56.5407 29.2476 56.4727 29.2476 56.3807V56.3387C29.2476 56.2627 29.2236 56.2017 29.1756 56.1557C29.1296 56.1077 29.0576 56.0837 28.9596 56.0837H28.6416V55.7597H28.9596C29.0536 55.7597 29.1226 55.7377 29.1666 55.6937C29.2106 55.6477 29.2326 55.5887 29.2326 55.5167V55.4747C29.2326 55.3827 29.2066 55.3167 29.1546 55.2767C29.1046 55.2347 29.0306 55.2137 28.9326 55.2137C28.8626 55.2137 28.7916 55.2237 28.7196 55.2437C28.6496 55.2617 28.5646 55.2897 28.4646 55.3277L28.3536 55.0187C28.4656 54.9667 28.5696 54.9307 28.6656 54.9107C28.7616 54.8907 28.8546 54.8807 28.9446 54.8807C29.0986 54.8807 29.2226 54.9067 29.3166 54.9587C29.4106 55.0107 29.4786 55.0807 29.5206 55.1687C29.5646 55.2567 29.5866 55.3537 29.5866 55.4597V55.5017C29.5866 55.5957 29.5626 55.6787 29.5146 55.7507C29.4686 55.8207 29.4076 55.8767 29.3316 55.9187C29.4136 55.9627 29.4786 56.0217 29.5266 56.0957C29.5766 56.1677 29.6016 56.2537 29.6016 56.3537V56.3957ZM31.9326 56.9507H30.6966V56.6657C30.6966 56.5217 30.7156 56.4017 30.7536 56.3057C30.7916 56.2077 30.8426 56.1277 30.9066 56.0657C30.9706 56.0017 31.0406 55.9507 31.1166 55.9127L31.3206 55.8107C31.3986 55.7707 31.4616 55.7287 31.5096 55.6847C31.5596 55.6387 31.5846 55.5797 31.5846 55.5077V55.4537C31.5846 55.3797 31.5586 55.3217 31.5066 55.2797C31.4566 55.2357 31.3756 55.2137 31.2636 55.2137C31.1956 55.2137 31.1266 55.2237 31.0566 55.2437C30.9886 55.2637 30.9056 55.2917 30.8076 55.3277L30.6966 55.0187C30.8086 54.9687 30.9106 54.9337 31.0026 54.9137C31.0966 54.8917 31.1876 54.8807 31.2756 54.8807C31.4376 54.8807 31.5666 54.9067 31.6626 54.9587C31.7606 55.0107 31.8306 55.0807 31.8726 55.1687C31.9166 55.2547 31.9386 55.3497 31.9386 55.4537V55.5077C31.9386 55.6157 31.9166 55.7077 31.8726 55.7837C31.8306 55.8597 31.7746 55.9237 31.7046 55.9757C31.6346 56.0277 31.5586 56.0737 31.4766 56.1137L31.2726 56.2157C31.1986 56.2517 31.1436 56.3017 31.1076 56.3657C31.0736 56.4297 31.0546 56.5117 31.0506 56.6117H31.9326V56.9507Z" fill="black"/>
<rect x="6.33398" y="49.9507" width="26" height="3" fill="#D9D9D9"/>
<circle cx="31.9043" cy="35.4971" r="18" fill="white"/>
<path d="M31.9043 46.2971C34.9043 46.2971 37.4543 45.2471 39.5543 43.1471C41.6543 41.0471 42.7043 38.4971 42.7043 35.4971C42.7043 32.8871 41.8718 30.5921 40.2068 28.6121C38.5418 26.6321 36.4343 25.3871 33.8843 24.8771C33.3443 24.8171 32.8793 24.9671 32.4893 25.3271C32.0993 25.6871 31.9043 26.1371 31.9043 26.6771V35.4971L25.6943 41.7071C25.3043 42.0971 25.1243 42.5621 25.1543 43.1021C25.1843 43.6421 25.4093 44.0771 25.8293 44.4071C26.6993 45.0971 27.6593 45.5846 28.7093 45.8696C29.7593 46.1546 30.8243 46.2971 31.9043 46.2971ZM31.9043 53.4971C29.4143 53.4971 27.0743 53.0246 24.8843 52.0796C22.6943 51.1346 20.7893 49.8521 19.1693 48.2321C17.5493 46.6121 16.2668 44.7071 15.3218 42.5171C14.3768 40.3271 13.9043 37.9871 13.9043 35.4971C13.9043 33.0071 14.3768 30.6671 15.3218 28.4771C16.2668 26.2871 17.5493 24.3821 19.1693 22.7621C20.7893 21.1421 22.6943 19.8596 24.8843 18.9146C27.0743 17.9696 29.4143 17.4971 31.9043 17.4971C34.3943 17.4971 36.7343 17.9696 38.9243 18.9146C41.1143 19.8596 43.0193 21.1421 44.6393 22.7621C46.2593 24.3821 47.5418 26.2871 48.4868 28.4771C49.4318 30.6671 49.9043 33.0071 49.9043 35.4971C49.9043 37.9871 49.4318 40.3271 48.4868 42.5171C47.5418 44.7071 46.2593 46.6121 44.6393 48.2321C43.0193 49.8521 41.1143 51.1346 38.9243 52.0796C36.7343 53.0246 34.3943 53.4971 31.9043 53.4971Z" fill="#CB2027"/>
<path fill-rule="evenodd" clip-rule="evenodd" d="M24.9316 13.501C24.9316 12.3964 25.8271 11.501 26.9316 11.501H36.8789C37.9835 11.501 38.8789 12.3964 38.8789 13.501C38.8789 14.6055 37.9835 15.501 36.8789 15.501H26.9316C25.8271 15.501 24.9316 14.6055 24.9316 13.501Z" fill="#CB2027"/>
<path fill-rule="evenodd" clip-rule="evenodd" d="M41.6584 24.161C40.8773 23.38 40.8773 22.1137 41.6584 21.3326L43.6584 19.3326C44.4394 18.5516 45.7057 18.5516 46.4868 19.3326C47.2678 20.1137 47.2678 21.38 46.4868 22.161L44.4868 24.161C43.7057 24.9421 42.4394 24.9421 41.6584 24.161Z" fill="#CB2027"/>
</svg>
