<svg width="32" height="32" viewBox="0 0 32 32" fill="none" xmlns="http://www.w3.org/2000/svg">
<rect x="0.5" y="0.5" width="31" height="31" rx="7.5" fill="#E2EEFF"/>
<mask id="mask0_692_4024" style="mask-type:alpha" maskUnits="userSpaceOnUse" x="6" y="6" width="20" height="20">
<rect x="6" y="6" width="20" height="20" fill="#D9D9D9"/>
</mask>
<g mask="url(#mask0_692_4024)">
<path d="M9.33366 22.6634C8.87533 22.6634 8.48296 22.5002 8.15658 22.1738C7.83019 21.8474 7.66699 21.4551 7.66699 20.9967V10.9967C7.66699 10.5384 7.83019 10.1461 8.15658 9.81966C8.48296 9.49327 8.87533 9.33008 9.33366 9.33008H22.667C23.1253 9.33008 23.5177 9.49327 23.8441 9.81966C24.1705 10.1461 24.3337 10.5384 24.3337 10.9967V20.9967C24.3337 21.4551 24.1705 21.8474 23.8441 22.1738C23.5177 22.5002 23.1253 22.6634 22.667 22.6634H9.33366ZM16.0003 16.8301L9.33366 12.6634V20.9967H22.667V12.6634L16.0003 16.8301ZM16.0003 15.1634L22.667 10.9967H9.33366L16.0003 15.1634ZM9.33366 12.6634V10.9967V20.9967V12.6634Z" fill="#303030"/>
</g>
<rect x="0.5" y="0.5" width="31" height="31" rx="7.5" stroke="#686868"/>
</svg>
