<svg width="588" height="340" viewBox="0 0 588 340" fill="none" xmlns="http://www.w3.org/2000/svg">
<path d="M45 260.103H295" stroke="#25316D" stroke-width="2" stroke-linecap="round" stroke-linejoin="round"/>
<path d="M101.086 269.31L101.23 269.205L101.329 269.056C102.104 267.895 103.501 267.201 105.439 266.988C107.373 266.774 109.708 267.06 112.107 267.72C114.497 268.377 116.895 269.391 118.938 270.582C120.996 271.782 122.625 273.122 123.548 274.398C127.463 279.809 126.755 286.688 122.419 289.852C121.421 290.58 119.804 291.033 117.742 291.146C115.707 291.258 113.358 291.033 111.01 290.52C108.664 290.007 106.353 289.214 104.392 288.212C102.417 287.204 100.866 286.021 99.9566 284.764C96.0419 279.353 96.7496 272.474 101.086 269.31Z" fill="white" stroke="#25316D" stroke-width="2"/>
<path d="M123.968 288.047C122.715 286.637 120.02 283.816 119.268 283.816" stroke="#25316D" stroke-width="2"/>
<path d="M183.5 271.5C189.5 285 199 313.037 175 310.5C161.507 309.074 164.795 300.54 168 298.5C173.5 295 175.854 297.358 178 301C181.626 307.153 175.775 315.065 161.5 312.5C138.504 308.368 149 303.5 139.5 296C136.34 293.505 128.761 291.64 124.5 289.5" stroke="#303030" stroke-width="2" stroke-linecap="round"/>
<path d="M120.809 278.92L120.804 278.923C120.514 279.097 120.128 279.028 119.913 278.749C118.988 277.534 117.454 275.621 115.639 273.729C113.834 271.849 111.697 269.932 109.564 268.768L108.563 270.481C108.555 270.494 108.555 270.494 108.554 270.494L108.555 270.494L108.556 270.495L108.571 270.504C108.585 270.513 108.607 270.527 108.637 270.547C108.697 270.587 108.787 270.648 108.902 270.73C109.132 270.894 109.46 271.139 109.838 271.456C110.601 272.095 111.548 273.01 112.333 274.131C113.118 275.253 113.711 276.541 113.832 277.94C113.949 279.307 113.623 280.863 112.44 282.575C111.735 283.408 110.494 283.843 109.936 284.026L109.824 284.063L109.724 284.124L109.724 284.125L109.723 284.125L109.722 284.126L109.713 284.131L109.677 284.153C109.665 284.16 109.65 284.169 109.632 284.18C109.605 284.196 109.572 284.216 109.533 284.239C109.407 284.313 109.223 284.42 108.996 284.547C108.541 284.801 107.922 285.132 107.256 285.442C106.584 285.755 105.893 286.033 105.29 286.197C104.633 286.375 104.284 286.358 104.171 286.317L103.529 286.085L103.083 286.593L103.083 286.593L103.082 286.594C103.082 286.595 103.081 286.595 103.08 286.596C103.078 286.599 103.074 286.603 103.069 286.608C103.065 286.612 103.06 286.617 103.055 286.623C103.029 286.649 102.987 286.691 102.931 286.742C102.816 286.846 102.648 286.984 102.44 287.115C102.02 287.379 101.516 287.568 100.983 287.505C100.981 287.502 100.879 287.465 100.661 287.294C100.421 287.107 100.13 286.83 99.7983 286.474C99.1376 285.764 98.3935 284.822 97.6856 283.864C96.981 282.91 96.3275 281.962 95.8492 281.25C95.6104 280.895 95.416 280.6 95.2816 280.394C95.2144 280.291 95.1623 280.211 95.1271 280.156L95.0874 280.094L95.0775 280.079L95.0752 280.075L95.0747 280.075L95.0746 280.074L95.0746 280.074L94.8833 279.775L94.546 279.663L94.5459 279.663L94.5458 279.663L94.5451 279.663L94.5402 279.661L94.5181 279.654C94.4981 279.647 94.4674 279.637 94.4268 279.623C94.3455 279.595 94.2246 279.552 94.0694 279.496C93.7589 279.384 93.3118 279.218 92.7713 279.002C91.6884 278.569 90.2408 277.942 88.7702 277.16C87.2934 276.375 85.8288 275.452 84.6897 274.439C83.5385 273.414 82.8311 272.395 82.651 271.429L82.6487 271.414C82.6459 271.394 82.6414 271.361 82.636 271.317C82.6253 271.227 82.6109 271.091 82.5981 270.914C82.5724 270.559 82.5536 270.045 82.5833 269.424C82.6431 268.176 82.8973 266.529 83.6598 264.883C84.417 263.249 85.6814 261.601 87.797 260.33C89.8858 259.075 92.8601 258.153 97.0997 258.029C97.1068 258.032 97.1141 258.035 97.1216 258.038C97.2627 258.098 97.4724 258.187 97.7422 258.306C98.282 258.544 99.0619 258.9 100.014 259.367C101.921 260.302 104.512 261.681 107.252 263.452C112.775 267.025 118.718 272.081 121.057 278.191C121.152 278.438 121.067 278.744 120.809 278.92Z" fill="white" stroke="#25316D" stroke-width="2"/>
<path fill-rule="evenodd" clip-rule="evenodd" d="M113.5 148C131 187.5 99.0005 222.5 99.0005 222.5C99.0005 222.5 97.9907 229.121 97.5005 232C95.6671 242.769 100.5 256 100.5 256C100.5 256 95.5005 262 85.3045 271.186C85.0961 271.618 81.3045 273.186 80.3045 272.186C80.3045 272.186 80.3568 263.224 78.5005 257C70.5097 230.207 74.5005 215 74.5005 215C80.6111 200.899 89.4432 179.901 96.0005 165.5C101.966 152.389 105.621 157.078 113.5 148Z" fill="#58B9FD"/>
<path d="M91 177.5C93 174 94.8416 170.693 96 167.5C97.4673 163.4 101.664 157.478 104.501 154.1" stroke="#25316D" stroke-width="2" stroke-miterlimit="1.5" stroke-linecap="round" stroke-linejoin="round"/>
<path d="M131.859 174.749C134.899 189.083 134.443 205.364 129.773 219.305M141.362 172.735C143.244 179.165 143.499 185.841 143.477 192.502C143.484 201.041 142.675 209.701 139.766 217.795" stroke="#25316D" stroke-width="2" stroke-miterlimit="1.5" stroke-linecap="round" stroke-linejoin="round"/>
<path d="M82.4996 218C84.584 227.38 92.5865 219.09 97.9995 223M80.4997 258.5C83.9997 256.5 83.7184 251.926 96.4997 250.5" stroke="#25316D" stroke-width="2" stroke-miterlimit="1.5" stroke-linecap="round" stroke-linejoin="round"/>
<path d="M223.5 132C229.1 138.4 226.833 146.333 225 149.5C220.5 144 203 141 201 140C199.574 139.287 194.337 136.139 191.091 134.165C192.185 135.388 190.681 137.755 179 141C164.6 145 156 137.666 153.5 133.5L143 139L124 143.5C123.667 144.5 121.7 145.9 116.5 143.5C110 140.5 111.5 132 113 128.5C114.5 125 132 112.5 137.5 108C141.9 104.4 137.667 87.1664 135 78.9998C134.667 70.8331 138.8 52.1998 158 42.9998C182 31.4998 201.5 45.9998 202 46.4998C202.5 46.9998 202.5 48.9998 208 59.9998C212.053 68.1055 211.892 73.4396 211.19 75.5333C211.588 76.0972 212.42 77.6425 214 80.9998C218 89.4998 214 92.9998 210 97.4998C206 102 209 102.5 208 105C207 107.5 207 113.5 209 117.5C211 121.5 216.5 124 223.5 132Z" fill="white"/>
<path fill-rule="evenodd" clip-rule="evenodd" d="M181.934 146.275C181.505 146.525 181.075 146.834 180.732 147.198C178.7 149.271 179.987 152.444 180.846 154.75C181.047 155.36 181.275 155.973 181.505 156.575C181.791 157.289 182.105 157.994 182.42 158.696C183.164 160.319 183.966 162.998 186.284 162.585C188.347 162.213 187.145 159.792 186.486 158.761C184.826 156.239 183.508 153.331 183.022 150.337C182.792 148.927 182.908 147.265 184.366 146.588" fill="#DAE8F1"/>
<path fill-rule="evenodd" clip-rule="evenodd" d="M184.024 161.011C180.991 165.506 179.96 170.613 180.303 175.954C180.417 177.952 180.619 180.036 181.276 181.938C182.106 184.334 182.193 186.681 184.024 188.463C184.969 189.382 188.232 189.734 188.805 188.463C189.692 186.484 187.859 184.005 187.203 182.207C186.143 179.286 185.885 176.095 186.257 173.015C186.745 168.691 190.209 164.326 187.174 160.165" fill="#DAE8F1"/>
<path fill-rule="evenodd" clip-rule="evenodd" d="M227.814 151.541C227.814 151.541 216.204 141.4 193.988 139.09C193.988 139.09 192.871 135.365 190.123 134.355C190.123 134.355 184.998 141.772 173.776 142.407C162.527 143.044 157.001 136.661 154.11 134.033C154.11 134.033 152.164 134.42 150.789 135.768L149.902 136.574C149.902 136.574 127.173 142.086 120.359 144.62C113.546 147.15 112 148.759 112 148.759V197C112 197 118.692 217.429 120.359 231C122.074 244.954 122 260 122 260L162 264.5L184.597 189.362C184.597 189.362 179.988 182.439 179.988 175.729C179.96 169.015 182.764 163.224 183.938 160.393C183.938 160.393 179.016 152.031 179.846 148.145C180.676 144.256 186.086 146.587 188.72 148.442C191.325 150.294 195.474 154.497 195.474 154.497C195.474 154.497 203.061 150.329 211.666 151.946C220.26 153.563 224.665 155.418 224.665 155.418L227.814 151.541ZM256 189.362C256 189.362 250.117 170.017 235.97 158.292L234.922 163.173C234.922 163.173 238.449 167.333 238.298 173.498C238.146 179.664 236.274 184.865 231.874 189.362H256Z" fill="#58B9FD"/>
<path d="M185.771 47.396C186.717 47.9777 187.518 48.7018 188.234 49.5479C192.613 54.6551 190.237 62.2376 185.342 66.0024M172.459 49.5682C176.354 53.7073 176.925 60.8281 172.402 64.7373" stroke="#25316D" stroke-width="2" stroke-miterlimit="1.5" stroke-linecap="round" stroke-linejoin="round"/>
<path d="M202.26 66.6123C203.292 65.8272 204.178 64.9384 204.951 63.9072C208.586 58.9891 206.698 52.6473 203.062 48.2622C199.311 43.757 194.188 41.4058 188.519 40.3807C186.172 39.9576 182.853 39.7543 179.932 39.8316M208.387 60.478C211.944 64.8956 212.786 71.0503 210.886 76.3365M163.042 54.1056C161.897 57.3396 161.696 60.7749 162.355 64.137C163.071 67.9465 164.73 71.3472 164.56 75.3358C164.415 78.5372 163.042 81.3725 161.039 83.8112M178.958 78.0023C176.354 76.3568 173.348 75.9582 170.629 77.5772M199.97 78.7162C197.251 77.4307 193.901 76.969 191.182 78.5575M186.888 81.2057C185.428 84.9563 185.544 89.5712 186.831 93.3727C187.146 94.2981 187.547 95.2154 188.062 96.0513C188.176 96.273 188.806 96.8568 188.834 97.0846C188.863 97.1741 187.689 97.4568 187.547 97.4893C186.144 97.8534 184.712 98.1178 183.225 98.1015M186.774 107.832C183.166 108.656 178.586 107.846 176.783 104.181M208.273 104.757C207.614 106.589 207.185 108.464 207.099 110.407C206.755 119.602 215.418 123.544 221.166 128.979C225.274 132.859 227.371 138.119 226.842 143.749C226.676 145.535 226.31 147.312 225.549 148.95M203.863 116.031C204.321 119.104 205.295 122.031 207.384 124.388C210.339 127.683 214.486 129.402 216.699 133.415M217.93 135.754C218.44 136.669 218.853 137.67 219.081 138.695M160.923 41.5319C138.108 48.9639 134.758 67.975 135.932 83.5671C136.534 91.4485 140.484 99.8446 137.651 107.663C136.333 111.235 132.84 113.82 129.806 115.864C123.881 119.867 116.783 122.757 112.975 129.225M235.027 163.61C240.059 170.186 239.518 181.356 233.394 187.07M235.173 161.969C236.309 158.497 237.202 154.787 237.551 151.142C237.672 149.902 237.763 147.862 236.235 147.384C234.382 146.804 232.57 147.579 231.1 148.714C228.777 150.502 226.94 152.818 224.766 154.767M224.666 155.418C222.895 154.441 220.983 153.921 219.053 153.347C211.519 151.114 202.948 151.195 195.648 154.295M194.216 153.107C191.639 150.487 188.519 147.815 185.027 146.578C183.538 146.06 181.535 145.787 180.39 147.091C179.387 148.238 179.702 150.079 180.046 151.415C180.876 154.582 182.279 157.578 183.939 160.393M183.253 162.632C178.958 169.588 179.074 179.841 183.31 186.797M192.156 118.736C191.383 124.012 190.724 129.273 189.809 134.525M157.146 108.975C156.172 117.168 154.884 125.307 153.796 133.484M188.434 136.626C180.103 143.096 169.254 144.542 160.065 139.173C157.803 137.853 155.629 136.201 154.111 134.033" stroke="#25316D" stroke-width="2" stroke-miterlimit="1.5" stroke-linecap="round" stroke-linejoin="round"/>
<path d="M192.755 136.462C195.074 139.057 195.762 143.554 193.386 146.367C192.298 147.634 190.752 148.313 189.149 148.659M178.5 153.587C174.007 158.074 165.017 156.768 162.126 151.069M151.906 134.883C147.155 137.908 144.893 144.53 148.843 149.135C149.587 149.995 150.474 150.724 151.448 151.303C154.654 153.217 158.232 152.863 161.638 151.871M139.597 143.29C132.039 144.858 124.94 147.866 118.385 151.962M133.3 150.78C131.524 151.275 129.291 151.696 127.773 152.841" stroke="#25316D" stroke-width="2" stroke-miterlimit="1.5" stroke-linecap="round" stroke-linejoin="round"/>
<path d="M153.481 138.093C155.828 141.262 159.379 143.708 163.128 144.913C164.33 145.295 165.591 145.696 166.85 145.736M214.102 179.046C213.799 180.008 213.264 180.994 212.336 181.476C210.63 182.363 209.131 180.634 209.017 179.074M203.91 179.046C204.213 180.008 204.748 180.994 205.675 181.476C207.382 182.363 208.883 180.634 208.997 179.074M206.469 70.9487C206.469 83.2153 205.352 95.4901 203.349 107.771C203.09 109.239 202.374 110.592 201.315 111.619C195.16 117.41 188.175 120.493 180.56 121.581C179.989 121.659 179.417 121.612 178.872 121.447C170.944 119.008 163.701 114.723 157.146 108.684M208.157 78.6878C209.847 80.7482 210.457 83.3964 210.634 85.9957C210.799 88.4364 210.543 91.0073 209.273 93.1572C208.273 94.8535 206.727 96.1409 205.094 97.1965M206.841 74.6281C208.301 75.3013 209.703 76.1169 210.86 77.2824C213.404 79.8716 214.673 84.1082 214.879 87.6615" stroke="#25316D" stroke-width="2" stroke-miterlimit="1.5" stroke-linecap="round" stroke-linejoin="round"/>
<path d="M214.223 91.3163C212.589 96.0086 209.244 99.5436 204.348 100.746M154.883 77.6138C161.495 81.6186 163.299 91.2655 160.981 98.1584C160.322 100.119 159.435 102.041 158.003 103.561" stroke="#25316D" stroke-width="2" stroke-miterlimit="1.5" stroke-linecap="round" stroke-linejoin="round"/>
<path d="M149.989 77.3902C154.569 79.9143 157.661 85.827 157.862 91.0257M158.118 94.0928C157.919 98.1078 157.717 102.349 155.199 105.682M149.415 77.3211C143.891 79.772 141.342 85.4364 141.43 91.2779M154.827 106.083C148.241 105.835 142.632 100.858 141.745 94.2779M176.727 39.3721C163.014 46.3973 155.456 58.2245 155.199 75.7468" stroke="#25316D" stroke-width="2" stroke-miterlimit="1.5" stroke-linecap="round" stroke-linejoin="round"/>
<path d="M165.236 40.6638C153.27 47.811 148.517 59.2559 148.289 75.747M173.117 39C170.026 39.2197 167.622 40.0617 165.246 40.6617" stroke="#25316D" stroke-width="2" stroke-miterlimit="1.5" stroke-linecap="round" stroke-linejoin="round"/>
<path d="M195.668 87.6676C194.561 87.6676 193.664 86.7706 193.664 85.6641C193.664 84.5557 194.561 83.6587 195.668 83.6587C196.774 83.6587 197.671 84.5557 197.671 85.6641C197.671 86.7706 196.774 87.6676 195.668 87.6676ZM175.939 87.6676C174.832 87.6676 173.935 86.7706 173.935 85.6641C173.935 84.5557 174.832 83.6587 175.939 83.6587C177.045 83.6587 177.942 84.5557 177.942 85.6641C177.942 86.7706 177.045 87.6676 175.939 87.6676ZM223.763 174.404C222.445 174.404 221.377 173.337 221.377 172.019C221.377 170.701 222.445 169.631 223.763 169.631C225.081 169.631 226.15 170.701 226.15 172.019C226.15 173.337 225.081 174.404 223.763 174.404ZM196.321 174.404C195.003 174.404 193.935 173.337 193.935 172.019C193.935 170.701 195.003 169.631 196.321 169.631C197.639 169.631 198.707 170.701 198.707 172.019C198.707 173.337 197.639 174.404 196.321 174.404Z" fill="#25316D"/>
<path d="M178.974 121.49C182.786 121.988 192.115 118.433 192.115 118.433L191.743 122.342C185.794 125.72 178.974 126.052 178.974 126.052C167.505 122.401 160.006 111.534 160.006 111.534C163.197 113.663 175.193 120.987 178.974 121.49Z" fill="#25316D"/>
<path d="M113 138.212C113.933 140.505 116.089 143.081 118.668 143.53" stroke="#25316D" stroke-width="2" stroke-miterlimit="1.5" stroke-linecap="round" stroke-linejoin="round"/>
<path d="M215.2 283.488L215.2 283.488L215.206 283.5C215.395 283.885 215.352 284.349 215.076 284.711C215.075 284.712 215.075 284.713 215.074 284.713L207.094 295.019H176.97L176.866 294.889L176.223 294.078C175.678 293.392 174.92 292.436 174.068 291.364C172.365 289.218 170.287 286.601 168.788 284.718L168.785 284.714C168.52 284.384 168.458 283.908 168.653 283.492C168.748 283.298 168.894 283.135 169.075 283.021C169.257 282.906 169.467 282.845 169.681 282.843C169.682 282.843 169.683 282.843 169.683 282.843L214.181 282.843H214.183C214.395 282.843 214.603 282.903 214.783 283.017C214.963 283.131 215.108 283.294 215.2 283.488ZM272.569 193.025L272.568 193.027C269.999 207.635 261.517 255.874 259.323 268.361C259.105 269.597 258.033 270.495 256.787 270.495H127.441C126.212 270.495 125.146 269.613 124.91 268.388C123.759 262.364 120.984 247.856 118.113 232.85C115.082 217.005 111.944 200.605 110.501 193.052L110.501 193.051C110.358 192.307 110.553 191.528 111.047 190.917C111.541 190.325 112.272 189.977 113.032 189.977L270.032 189.977L270.033 189.977C270.409 189.976 270.779 190.058 271.12 190.217C271.46 190.377 271.762 190.609 272.003 190.899L272.004 190.9C272.495 191.489 272.702 192.274 272.569 193.025Z" fill="white" stroke="#25316D" stroke-width="2"/>
<path d="M192.092 227.496C200.241 227.496 206.859 234.137 206.859 242.324V295.024H177.324V242.324C177.324 234.136 183.939 227.496 192.092 227.496Z" fill="white" stroke="#25316D" stroke-width="2"/>
<path fill-rule="evenodd" clip-rule="evenodd" d="M198.87 242.265C198.87 238.504 195.834 235.457 192.091 235.457C188.348 235.457 185.314 238.504 185.314 242.265V254.44C185.314 258.194 188.348 261.24 192.091 261.24C195.834 261.24 198.87 258.194 198.87 254.44V242.265Z" fill="#58B9FD"/>
<path d="M130 267.011L116.463 197.382C116.223 196.147 117.169 195 118.426 195H235" stroke="#25316D" stroke-width="2"/>
<path d="M235.332 249.983C235.692 249.983 235.986 250.274 235.986 250.64V256.877C235.986 257.242 235.692 257.533 235.332 257.533H232.875C232.511 257.533 232.221 257.242 232.221 256.877V250.64C232.221 250.274 232.511 249.983 232.875 249.983H235.332Z" fill="#686868"/>
<path d="M244.646 249.983C245.005 249.983 245.3 250.274 245.3 250.64V256.877C245.3 257.242 245.005 257.533 244.646 257.533H242.188C241.825 257.533 241.535 257.242 241.535 256.877V250.64C241.535 250.274 241.825 249.983 242.188 249.983H244.646Z" fill="#686868"/>
<path d="M101.346 43C101.388 45.2331 101.536 47.5089 101.641 49.7422M101.599 57.3863V64M93 53.5215H97.9573M104.803 53.4785C106.531 53.3496 108.263 53.1771 110 53.2202" stroke="#25316D" stroke-width="2" stroke-miterlimit="1.5" stroke-linecap="round" stroke-linejoin="round"/>
<path d="M432.232 195.437C427.896 195.437 423.794 194.44 419.911 192.442C416.032 190.445 412.782 187.683 410.153 184.144C408.06 181.072 405.438 178.635 402.289 176.844C400.486 175.819 399.123 174.211 398.648 172.716C398.414 171.981 398.407 171.321 398.602 170.769C398.793 170.23 399.211 169.692 400.024 169.246C402.426 167.928 405.328 166.749 408.74 165.715C417.063 163.195 424.892 161.942 432.232 161.942C439.572 161.942 447.401 163.195 455.724 165.715C459.173 166.76 462.1 167.953 464.517 169.289C465.318 169.731 465.733 170.268 465.922 170.808C466.117 171.362 466.11 172.023 465.878 172.757C465.407 174.248 464.058 175.843 462.27 176.84C459.057 178.632 456.398 181.076 454.301 184.159C451.792 187.808 448.608 190.592 444.74 192.526C440.86 194.466 436.695 195.437 432.232 195.437Z" fill="#CB2027" stroke="#25316D" stroke-width="2"/>
<path d="M402.643 195.224L402.66 195.251L402.68 195.278C406.2 200.012 410.546 203.721 415.712 206.395C420.883 209.072 426.394 210.411 432.233 210.411C438.187 210.411 443.758 209.073 448.932 206.395C454.096 203.722 458.384 200.012 461.787 195.276C463.247 193.37 464.949 191.868 466.893 190.757C468.822 189.655 470.811 189.114 472.875 189.114H496.124C499.895 189.114 503.008 190.379 505.533 192.903C508.057 195.428 509.322 198.541 509.322 202.312V207.474C509.322 221.693 502.333 235.003 490.628 243.076C487.526 245.215 483.425 245.215 480.323 243.076L461.428 230.044L458.047 222.468L457.548 221.35L456.552 222.061C454.846 223.28 453.627 224.586 452.553 225.735C452.264 226.045 451.984 226.344 451.709 226.626C450.409 227.962 449.104 229.056 446.924 229.756C442.234 231.261 437.339 232.015 432.233 232.015C427.252 232.015 422.388 231.234 417.638 229.669C415.387 228.928 413.858 227.824 412.356 226.506C411.938 226.139 411.512 225.745 411.068 225.335C409.943 224.295 408.704 223.149 407.181 222.061L406.099 221.289L405.657 222.543L403.002 230.069L384.143 243.076C381.042 245.215 376.94 245.215 373.838 243.076C362.134 235.003 355.145 221.693 355.145 207.474V202.312C355.145 198.548 356.434 195.437 359.015 192.911C361.607 190.373 364.698 189.114 368.342 189.114H391.592C393.783 189.114 395.864 189.66 397.85 190.763C399.839 191.868 401.432 193.353 402.643 195.224Z" fill="white" stroke="#25316D" stroke-width="2"/>
<path fill-rule="evenodd" clip-rule="evenodd" d="M392.332 151.866C392.332 166.935 380.959 175.875 374.707 175.875C366.665 175.875 357.082 166.935 357.082 151.866C357.082 140.114 363.095 134.75 374.707 134.75C386.319 134.75 392.332 140.114 392.332 151.866Z" fill="white" stroke="#25316D" stroke-width="2" stroke-linecap="round" stroke-linejoin="round"/>
<path fill-rule="evenodd" clip-rule="evenodd" d="M506.895 151.866C506.895 166.935 495.522 175.875 489.27 175.875C481.227 175.875 471.645 166.935 471.645 151.866C471.645 140.114 477.657 134.75 489.27 134.75C500.882 134.75 506.895 140.114 506.895 151.866Z" fill="white" stroke="#25316D" stroke-width="2" stroke-linecap="round" stroke-linejoin="round"/>
<path fill-rule="evenodd" clip-rule="evenodd" d="M451.082 125.428C451.082 140.497 439.709 149.438 433.457 149.438C425.415 149.438 415.832 140.497 415.832 125.428C415.832 113.677 421.845 108.312 433.457 108.312C445.069 108.312 451.082 113.677 451.082 125.428Z" fill="white" stroke="#25316D" stroke-width="2" stroke-linecap="round" stroke-linejoin="round"/>
<rect x="365.895" y="205.25" width="8.8125" height="11.75" fill="#CB2027"/>
<path d="M420.923 182.533L419.48 183.24C417.415 184.249 414.956 183.991 413.146 182.575L410.665 180.633C408.296 178.779 404.921 178.966 402.771 181.069L400.37 183.418C398.369 185.376 397.988 188.457 399.451 190.844L401.369 193.97C402.217 195.353 402.469 197.021 402.067 198.593L401.753 199.825C401.162 202.136 399.259 203.877 396.905 204.261L394.322 204.682C391.419 205.156 389.287 207.663 389.287 210.604V213.52C389.287 216.461 391.419 218.968 394.322 219.441L397.255 219.92C399.427 220.274 401.231 221.789 401.955 223.868L402.392 225.121C403.02 226.925 402.752 228.92 401.67 230.494L399.809 233.201C398.156 235.605 398.472 238.849 400.557 240.889L402.771 243.055C404.921 245.158 408.296 245.344 410.665 243.491L413.409 241.343C415.08 240.036 417.317 239.708 419.293 240.481L422.524 241.745C424.484 242.512 425.899 244.25 426.252 246.325L426.747 249.232C427.239 252.116 429.737 254.225 432.662 254.225H434.027C436.952 254.225 439.45 252.116 439.942 249.232L440.437 246.325C440.79 244.25 442.205 242.512 444.165 241.745L446.974 240.646C449.171 239.786 451.669 240.294 453.356 241.945L454.051 242.624C456.383 244.906 460.11 244.906 462.442 242.624L463.901 241.198C466.122 239.025 466.316 235.516 464.349 233.111L462.422 230.754C461.029 229.051 460.681 226.722 461.513 224.685L462.721 221.731C463.511 219.799 465.249 218.416 467.31 218.08L470.452 217.568C473.355 217.094 475.486 214.587 475.486 211.646V210.604C475.486 207.663 473.355 205.156 470.452 204.682L468.077 204.295C465.618 203.894 463.663 202.016 463.164 199.575L462.443 196.046C462.205 194.881 462.318 193.673 462.767 192.573L464.381 188.627C465.305 186.368 464.768 183.774 463.023 182.067L462.442 181.499C460.11 179.218 456.383 179.218 454.051 181.499L453.356 182.179C451.669 183.829 449.171 184.338 446.974 183.478L444.253 182.413C442.246 181.628 440.814 179.826 440.503 177.693L439.841 173.158C439.41 170.211 436.882 168.025 433.904 168.025H430.87C427.891 168.025 425.363 170.211 424.933 173.158L424.224 178.011C423.938 179.971 422.703 181.663 420.923 182.533Z" fill="white" stroke="#CB2027" stroke-width="2"/>
<circle cx="432.388" cy="211.124" r="18.5907" stroke="#CB2027" stroke-width="2"/>
<path d="M408.232 78.456V81.62H403.024V98H399.104V81.62H393.896V78.456H408.232ZM415.012 81.62V86.52H421.592V89.628H415.012V94.808H422.432V98H411.092V78.428H422.432V81.62H415.012ZM437.979 94.276H430.195L428.907 98H424.791L431.819 78.428H436.383L443.411 98H439.267L437.979 94.276ZM436.915 91.14L434.087 82.964L431.258 91.14H436.915ZM467.345 78.456V98H463.425V85.288L458.189 98H455.221L449.957 85.288V98H446.037V78.456H450.489L456.705 92.988L462.921 78.456H467.345Z" fill="#25316D"/>
</svg>
