<svg width="24" height="24" viewBox="0 0 24 24" fill="none" xmlns="http://www.w3.org/2000/svg">
<mask id="path-1-inside-1_650_5192" fill="white">
<rect x="3.375" y="9.375" width="16.5" height="12.375" rx="0.9375"/>
</mask>
<rect x="3.375" y="9.375" width="16.5" height="12.375" rx="0.9375" stroke="#303030" stroke-width="2" mask="url(#path-1-inside-1_650_5192)"/>
<path d="M8.52008 15.1202C8.25608 15.1202 8.04008 14.9042 8.04008 14.6402C8.04008 14.3762 8.25608 14.1602 8.52008 14.1602H9.00008C9.26408 14.1602 9.48008 14.3762 9.48008 14.6402C9.48008 14.9042 9.69608 15.1202 9.96008 15.1202C10.2241 15.1202 10.4401 14.9042 10.4401 14.6402C10.4401 13.9202 9.91208 13.3442 9.24008 13.2242V12.7202C9.24008 12.4562 9.02408 12.2402 8.76008 12.2402C8.49608 12.2402 8.28008 12.4562 8.28008 12.7202V13.2242C7.60808 13.3442 7.08008 13.9202 7.08008 14.6402C7.08008 15.4322 7.72808 16.0802 8.52008 16.0802H9.00008C9.26408 16.0802 9.48008 16.2962 9.48008 16.5602C9.48008 16.8242 9.26408 17.0402 9.00008 17.0402H8.52008C8.25608 17.0402 8.04008 16.8242 8.04008 16.5602C8.04008 16.2962 7.82408 16.0802 7.56008 16.0802C7.29608 16.0802 7.08008 16.2962 7.08008 16.5602C7.08008 17.2802 7.60808 17.8562 8.28008 17.9762V18.4802C8.28008 18.7442 8.49608 18.9602 8.76008 18.9602C9.02408 18.9602 9.24008 18.7442 9.24008 18.4802V17.9762C9.91208 17.8562 10.4401 17.2802 10.4401 16.5602C10.4401 15.7682 9.79208 15.1202 9.00008 15.1202H8.52008Z" fill="#303030"/>
<path d="M5.25 4.125L9.04834 6.65723C9.13528 6.71519 9.1875 6.81276 9.1875 6.91724V9.75M12 9.375V4.6875M15.375 9.375V3.6875C15.375 3.51491 15.5149 3.375 15.6875 3.375H17.625" stroke="#303030" stroke-width="0.625"/>
<circle cx="4.125" cy="3.375" r="1.1875" stroke="#303030" stroke-width="0.625"/>
<circle cx="12" cy="3.375" r="1.1875" stroke="#303030" stroke-width="0.625"/>
<circle cx="19.125" cy="3.375" r="1.1875" stroke="#303030" stroke-width="0.625"/>
<path d="M14.1875 15.5625C14.1875 14.596 14.971 13.8125 15.9375 13.8125H20.375C20.5476 13.8125 20.6875 13.9524 20.6875 14.125V17C20.6875 17.1726 20.5476 17.3125 20.375 17.3125H15.9375C14.971 17.3125 14.1875 16.529 14.1875 15.5625Z" fill="#303030" stroke="#303030" stroke-width="0.625"/>
<circle cx="15.9375" cy="15.5625" r="0.5625" fill="white"/>
</svg>
