<svg width="588" height="340" viewBox="0 0 588 340" fill="none" xmlns="http://www.w3.org/2000/svg">
<path d="M45 260.103H295" stroke="#25316D" stroke-width="2" stroke-linecap="round" stroke-linejoin="round"/>
<path d="M101.086 269.31L101.23 269.205L101.329 269.056C102.104 267.895 103.501 267.201 105.439 266.988C107.373 266.774 109.708 267.06 112.107 267.72C114.497 268.377 116.895 269.391 118.938 270.582C120.996 271.782 122.625 273.122 123.548 274.398C127.463 279.809 126.755 286.688 122.419 289.852C121.421 290.58 119.804 291.033 117.742 291.146C115.707 291.258 113.358 291.033 111.01 290.52C108.664 290.007 106.353 289.214 104.392 288.212C102.417 287.204 100.866 286.021 99.9566 284.764C96.0419 279.353 96.7496 272.474 101.086 269.31Z" fill="white" stroke="#25316D" stroke-width="2"/>
<path d="M123.968 288.047C122.715 286.637 120.02 283.816 119.268 283.816" stroke="#25316D" stroke-width="2"/>
<path d="M229.618 256.792C231.275 265.112 236.25 274.695 231.038 289.598C225.826 304.5 213.865 316.4 200.87 312.5C190.898 309.507 194.872 299.752 200.37 297C205.529 294.417 210.87 296 212.37 302.5C215.81 317.405 199.725 319.639 174.87 317.5C150.015 315.36 146.139 305.202 143.37 301C134.87 288.098 128.777 291.737 124.516 289.598" stroke="#303030" stroke-width="2" stroke-linecap="round"/>
<path d="M120.807 278.919L120.802 278.923C120.512 279.096 120.126 279.027 119.911 278.749C118.986 277.534 117.452 275.62 115.637 273.729C113.832 271.848 111.695 269.932 109.562 268.768L108.561 270.481C108.553 270.493 108.553 270.493 108.553 270.493L108.553 270.493L108.554 270.494L108.569 270.504C108.583 270.512 108.605 270.527 108.635 270.547C108.695 270.587 108.785 270.648 108.9 270.73C109.13 270.894 109.458 271.138 109.836 271.456C110.599 272.095 111.546 273.009 112.331 274.131C113.116 275.253 113.709 276.541 113.83 277.939C113.947 279.307 113.622 280.863 112.438 282.575C111.733 283.407 110.492 283.843 109.934 284.026L109.822 284.062L109.722 284.124L109.722 284.124L109.721 284.124L109.72 284.125L109.711 284.13L109.675 284.152C109.663 284.16 109.648 284.169 109.63 284.179C109.603 284.196 109.57 284.215 109.531 284.238C109.405 284.313 109.221 284.42 108.994 284.547C108.539 284.801 107.92 285.131 107.254 285.442C106.582 285.754 105.891 286.032 105.288 286.196C104.631 286.374 104.282 286.358 104.169 286.317L103.527 286.084L103.081 286.593L103.081 286.593L103.08 286.594C103.08 286.594 103.079 286.595 103.078 286.596C103.076 286.598 103.072 286.602 103.067 286.608C103.063 286.612 103.058 286.617 103.053 286.622C103.027 286.648 102.985 286.69 102.929 286.742C102.814 286.846 102.646 286.983 102.438 287.114C102.018 287.379 101.514 287.567 100.982 287.505C100.979 287.501 100.877 287.464 100.659 287.293C100.419 287.106 100.128 286.83 99.7963 286.473C99.1356 285.764 98.3915 284.821 97.6836 283.863C96.9791 282.91 96.3256 281.962 95.8473 281.25C95.6085 280.895 95.414 280.599 95.2796 280.394C95.2125 280.291 95.1603 280.21 95.1252 280.156L95.0854 280.094L95.0756 280.079L95.0732 280.075L95.0727 280.074L95.0727 280.074L95.0726 280.074L94.8814 279.774L94.544 279.663L94.544 279.663L94.5438 279.663L94.5431 279.662L94.5382 279.661L94.5162 279.653C94.4961 279.647 94.4654 279.636 94.4248 279.622C94.3436 279.594 94.2227 279.552 94.0674 279.496C93.7569 279.384 93.3098 279.217 92.7694 279.002C91.6864 278.569 90.2388 277.941 88.7683 277.159C87.2914 276.374 85.8268 275.452 84.6878 274.438C83.5365 273.414 82.8291 272.394 82.649 271.429L82.6468 271.413C82.6439 271.393 82.6395 271.361 82.6341 271.316C82.6233 271.227 82.6089 271.09 82.5961 270.913C82.5705 270.559 82.5516 270.045 82.5814 269.423C82.6411 268.176 82.8953 266.528 83.6578 264.883C84.415 263.248 85.6794 261.601 87.7951 260.329C89.8839 259.074 92.8581 258.152 97.0978 258.029C97.1049 258.032 97.1121 258.035 97.1196 258.038C97.2607 258.097 97.4705 258.187 97.7403 258.306C98.2801 258.544 99.0599 258.9 100.012 259.367C101.919 260.302 104.51 261.68 107.25 263.452C112.774 267.024 118.716 272.08 121.055 278.19C121.15 278.438 121.065 278.743 120.807 278.919Z" fill="white" stroke="#25316D" stroke-width="2"/>
<path fill-rule="evenodd" clip-rule="evenodd" d="M106.203 148.523C141.828 177.116 100.464 224.12 100.464 224.12C100.464 224.12 101.246 229.823 99.054 232.111C91.498 240 104.695 260.314 104.695 260.314C104.695 260.314 89.3321 270.044 84.9526 279.116C84.7442 279.548 83.5424 280.526 83.0722 280.526C83.0722 280.526 74.5878 266.538 72.7314 260.314C64.7406 233.521 65.2103 216.129 65.2103 216.129C71.3209 202.028 74.6349 193.397 81.1922 178.996C87.1578 165.884 98.3231 157.601 106.203 148.523Z" fill="#58B9FD"/>
<path fill-rule="evenodd" clip-rule="evenodd" d="M155.523 122.828C155.523 122.828 160.447 118.766 162.933 119.425L163.113 122.662C163.113 122.662 170.489 127.766 180.511 127.931C190.538 128.151 198.297 123.321 199.952 119.425C199.952 119.425 205.848 120.74 206.089 124.692C206.089 124.692 237.235 134.295 245.112 139.675C252.986 144.995 257.047 148.508 258.846 157.729C260.638 166.892 267.128 196.524 268.608 220.34C252.762 215.289 239.65 215.183 223.455 215.183C185.121 169.684 158.638 224.871 123.411 259.579C123.411 259.579 134.498 195.356 130.57 195.85C126.646 196.289 72.6809 217.266 72.6809 217.266C72.6809 217.266 71.7465 202.439 72.6809 198.267C73.6152 194.096 91.8494 149.167 96.0185 143.077C100.188 136.929 107.564 132.045 120.7 129.303C133.842 126.56 155.523 122.828 155.523 122.828Z" fill="#58B9FD"/>
<path d="M121.652 45.9995C121.117 47.0653 120.714 48.1715 120.32 49.2981C120.009 50.1989 119.711 51.1681 119.228 51.9928M118.193 52.706C116.434 53.3516 114.702 54.0694 113 54.8575M113.01 54.9233C113.483 55.233 113.931 55.5679 114.433 55.8292C115.829 56.5499 117.31 57.0599 118.736 57.7069M119.454 58.8865C120.129 60.6043 121.049 62.1877 121.769 63.8802M121.816 63.9995C122.018 63.3727 122.324 62.7789 122.602 62.1877C123.284 60.7313 124.065 59.3155 124.635 57.8082M124.635 57.8895C125.354 57.4888 126.165 57.2705 126.91 56.9305C128.002 56.428 129.913 55.6137 131 55.0554M121.945 46.1012C122.831 48.0269 123.727 49.9631 124.54 51.9243M124.538 52.0844C126.014 52.8659 129.482 54.0711 131 54.7738" stroke="#25316D" stroke-width="2" stroke-miterlimit="1.5" stroke-linecap="round" stroke-linejoin="round"/>
<path d="M85.5 167C87.5 163.5 88.3416 160.193 89.5 157C90.9673 152.9 93.1631 146.877 96.0004 143.499" stroke="#25316D" stroke-width="2" stroke-miterlimit="1.5" stroke-linecap="round" stroke-linejoin="round"/>
<path d="M131.859 174.748C134.899 189.083 134.443 205.363 129.773 219.305M141.362 172.734C143.244 179.165 143.499 185.84 143.477 192.502C143.484 201.041 142.675 209.701 139.766 217.794" stroke="#25316D" stroke-width="2" stroke-miterlimit="1.5" stroke-linecap="round" stroke-linejoin="round"/>
<path d="M155.795 126.874C158.516 131.099 163.177 133.68 167.734 135.436C178.973 139.715 194.76 139.222 202.814 129.123M199.874 119.411C200.546 119.411 201.224 119.521 201.869 119.686C204.164 120.453 205.327 122.321 205.896 124.513M149.527 128.191C151.276 130.606 153.183 133.075 155.401 135.051C158.308 137.632 161.838 139.55 165.477 140.867" stroke="#25316D" stroke-width="2" stroke-miterlimit="1.5" stroke-linecap="round" stroke-linejoin="round"/>
<path d="M162.918 119.77C160.443 119.824 157.268 120.921 155.93 123.171" stroke="#25316D" stroke-width="2" stroke-miterlimit="1.5" stroke-linecap="round" stroke-linejoin="round"/>
<path d="M68.971 218.009C70.851 226.47 81.1901 226.504 85.4226 228.35C90.0457 230.401 95.8856 222.028 99.999 224.999M75.5515 267.365C80.722 257.964 84.3924 254.69 97.1737 253.264" stroke="#25316D" stroke-width="2" stroke-miterlimit="1.5" stroke-linecap="round" stroke-linejoin="round"/>
<path d="M199.461 100.597L161.637 91.1963L162.577 122.219C162.577 122.219 173.586 127.956 181.379 127.86C189.606 127.759 199.461 122.49 199.461 122.49L199.461 100.597Z" fill="white"/>
<path d="M148 70.9998C152 82.9998 155 82.4998 156.5 80.4322C158.133 84.8968 160.028 89.3873 162.001 92.9998C163.501 95.7463 179.501 106 189.075 110.434C200.415 103.81 205.501 96.9998 208.001 94.4998C208.001 92.7503 208.75 87.5814 209.5 80.4322C209.5 77.7559 215.5 80.4322 215.5 67.9998C215.706 65.7109 213 60.4998 210.815 64.4998C210.932 62.6099 211.001 60.9066 211.001 59.4998C230.501 34.4998 208.5 28.4999 201 26.9999C200 16.4999 177.5 22.9998 170.501 29.9998C166.374 32.0973 162.382 38.5727 159.501 41.9998C155 42.4998 153.189 45.975 151.5 49.9998C151.5 51.4998 153.037 60.3107 154 64.4998C147.5 60.9998 146.839 68.9411 148 70.9998Z" fill="white"/>
<path d="M190.923 66.9641C190.901 70.3117 191.289 73.5488 192.448 76.6765C192.732 77.4996 193.038 78.2684 193.426 78.9821C193.453 79.0368 193.819 79.6401 193.803 79.6401C193.552 79.9694 192.35 80.9998 192 80.9998C190.508 81.1096 188.899 80.9936 187.5 80.4998M181.946 64.2208C179.093 62.6293 175.668 62.6293 172.952 64.4951M206.311 65.3729C203.256 63.7267 200.021 63.6716 196.814 64.824M195.5 90.4999C190 92.4999 184.415 90.7252 181.044 88.3108M163.111 64.8248C163.739 71.0805 158.47 64.2442 159 70.4999M171.87 55.9902C170.236 59.941 166.821 62.7401 162.875 64.1668" stroke="#25316D" stroke-width="2" stroke-miterlimit="1.5" stroke-linecap="round" stroke-linejoin="round"/>
<path d="M159.405 72.8919C159.405 72.8919 160.93 87.7622 161.328 91.7131C161.392 92.3122 161.654 92.8727 162.072 93.305C168.58 100.329 176.475 105.103 185.71 107.792C186.327 107.956 186.988 107.957 187.589 107.737C194.556 105.103 201.217 101.097 207.517 95.445C208.053 94.9512 208.386 94.2926 208.446 93.5792C208.949 87.5431 211.293 59.2827 211.293 59.2827" stroke="#25316D" stroke-width="2" stroke-miterlimit="1.5" stroke-linecap="round" stroke-linejoin="round"/>
<path d="M199.641 101.591L199.105 122.336C199.105 122.336 180.144 134.296 163.768 122.336M162.107 94.019L162.413 118.822" stroke="#25316D" stroke-width="2" stroke-miterlimit="1.5" stroke-linecap="round" stroke-linejoin="round"/>
<path d="M202.602 72.3246C202.382 72.3278 202.164 72.2872 201.961 72.2051C201.757 72.123 201.572 72.001 201.416 71.8464C201.259 71.6917 201.135 71.5074 201.051 71.3042C200.966 71.1009 200.922 70.8828 200.922 70.6624C200.922 70.4421 200.966 70.224 201.051 70.0208C201.135 69.8175 201.26 69.6332 201.416 69.4786C201.572 69.324 201.757 69.2021 201.961 69.1201C202.165 69.038 202.383 68.9974 202.602 69.0007C203.037 69.0072 203.451 69.1852 203.756 69.4962C204.061 69.8072 204.232 70.2262 204.232 70.6628C204.232 71.0994 204.061 71.5184 203.756 71.8294C203.451 72.1403 203.036 72.3182 202.602 72.3246ZM179.656 72.3246C179.217 72.3246 178.796 72.1494 178.485 71.8377C178.175 71.526 178 71.1031 178 70.6623C178 70.2214 178.175 69.7986 178.485 69.4869C178.796 69.1751 179.217 69 179.656 69C180.09 69.0064 180.505 69.1844 180.81 69.4954C181.116 69.8065 181.287 70.2256 181.287 70.6623C181.287 71.0989 181.116 71.5181 180.81 71.8291C180.505 72.1402 180.09 72.3181 179.656 72.3246Z" fill="#25316D"/>
<path fill-rule="evenodd" clip-rule="evenodd" d="M166.371 98.6416C166.371 98.6416 176.693 111.866 186.178 112.579C194.255 113.237 199.287 106.817 199.287 106.817V101.989C199.287 101.989 187.987 108.408 186.178 107.915C184.375 107.366 166.371 98.6416 166.371 98.6416Z" fill="#25316D"/>
<path d="M176.029 53.956C180.817 56.8757 185.851 59.5812 191.583 59.8314C194.238 59.9454 197.489 59.0882 197.978 55.9987M213.428 51.9472C213.743 52.6516 214.024 53.3976 214.128 54.1787C214.618 58.0104 210.808 59.3111 207.661 59.1377C202.592 58.8577 197.978 55.8847 194.799 52.0379M215.839 50.706C216.783 49.632 217.657 48.4396 218.181 47.1178C221.643 38.498 213.463 30.9558 206.054 28.5219C202.977 27.5105 198.574 26.7157 195.567 28.372C193.401 29.5505 196.51 32.0263 198.085 31.8345C200.601 31.5206 201.371 28.2847 200.635 26.2448C200.042 24.6827 198.713 23.6751 197.211 23.023C194.275 21.7503 191.198 21.8477 188.086 22.336C181.55 23.3681 175.294 26.7123 170.121 30.6978C168.059 32.281 165.822 33.9511 164.319 36.106M160.614 41.9153C159.601 42.006 158.587 42.2255 157.644 42.5951C150.722 45.2837 152.5 54.9999 153.5 60.4999M160.125 88.5C159.877 87.7693 159.615 84.2194 157.644 79.4999C157.147 78.3105 154 86.4999 149 74.9999C144.5 59.8314 153.5 63.4999 154.5 64.9999M161.208 32.9083C160.823 34.2751 160.579 35.6108 160.544 37.0299C160.544 37.4203 160.544 37.8145 160.579 38.205C160.579 38.2434 160.649 38.5434 160.614 38.5677C160.579 38.5957 160.159 38.4037 160.125 38.3863C159.563 38.198 159.039 37.9993 158.481 37.811C156.419 37.0928 154.182 36.4266 151.979 36.3671" stroke="#25316D" stroke-width="2" stroke-miterlimit="1.5" stroke-linecap="round" stroke-linejoin="round"/>
<path d="M153 71.9999C154.065 73.6164 154.247 74.1564 155.238 75.8188" stroke="#25316D" stroke-width="2" stroke-miterlimit="1.5" stroke-linecap="round" stroke-linejoin="round"/>
<path d="M210.012 71.2369C210 69.9362 210.025 68.6358 210.151 67.3592C210.468 64.3245 211.898 61.6751 213.531 63.7224C213.809 64.0596 214.05 64.4929 214.252 64.9746C215.822 68.8283 214.72 74.4885 212.797 77.0417C212 78.1014 210.962 78.9203 210 79.2576" stroke="#25316D" stroke-width="2" stroke-miterlimit="1.5" stroke-linecap="round" stroke-linejoin="round"/>
<path d="M299.5 167C298.3 167.4 292.667 175.166 290 179L280.5 188L299 196.5L304.5 188C306.5 188.833 312 190.6 314 191C316.5 191.5 321.5 193.5 327 191C332.5 188.5 333.74 181.059 334 179.5C334.5 176.5 332.5 176.5 326 177.5C319.576 178.488 314 173.5 315 172.5L321 166.5C323 164.5 321.5 162 320.5 161.5C319.5 161 312.5 164.5 311 165.5C309.5 166.5 301 166.5 299.5 167Z" fill="white"/>
<path d="M298.226 169.005C292.119 176.561 286.288 184.403 279.469 191.341C273.095 197.803 265.985 203.65 259.833 210.302M244.796 194.081C244.952 202.6 244.89 211.122 245.108 219.594C245.223 223.97 245.024 229.072 247.134 233.081C250.432 239.324 261.31 243.607 267.535 239.096M305 188.5C299.026 196.339 293.022 205.505 287.286 213.584C281.573 221.613 276.156 227.268 270.758 235.537M299.375 167.2C301.899 166.203 304.498 166.11 307.164 165.729C308.97 165.539 310.743 165.062 312.478 164.539C314.207 164.018 315.809 163.208 317.453 162.45C318.351 162.07 319.449 161.5 320.456 161.5C321.545 161.546 321.792 162.924 321.683 163.731C321.435 165.586 320.119 167.247 318.66 168.341M312.259 171.38C314.141 172.571 315.809 174.042 317.657 175.28C318.394 175.803 319.188 176.467 320.057 176.704C321.511 177.084 323.104 177.134 324.605 177.134C325.598 177.134 332.859 176.28 333.5 177.134C335.125 179.416 332.964 184.059 331.686 186.053C330.545 187.765 328.543 190.882 326.5 191.5C321.5 194 308.517 189.07 304.644 187.976" stroke="#25316D" stroke-width="2" stroke-miterlimit="1.5" stroke-linecap="round" stroke-linejoin="round"/>
<path fill-rule="evenodd" clip-rule="evenodd" d="M233.5 236.5C233.5 236.5 258.5 250 265 249C277.034 247.148 298.5 210 303.5 198.5C315.5 187 286.596 184.137 290.5 174.5C294.404 164.866 256 211.5 256 203.5C256 203.5 255.33 194.93 255 192C253.373 177.556 259.428 148.563 246 143C238.77 140.004 232.275 149.243 232.275 149.243L227.678 144.918C227.678 144.918 225.832 141.265 221.525 137.057C215.95 150.401 211.198 171.179 212.467 202.578L218.5 215C218.79 215.233 232.517 235.575 233.5 236.5Z" fill="#58B9FD"/>
<path d="M271.561 192.136C265.006 198.223 258.919 206.063 255.194 213.792" stroke="#25316D" stroke-width="2" stroke-miterlimit="1.5" stroke-linecap="round" stroke-linejoin="round"/>
<path d="M221.572 183C222.696 185.845 223.494 188.809 224.559 191.63C226.331 196.283 228.323 200.87 230.106 205.516" stroke="#25316D" stroke-width="2" stroke-miterlimit="1.5" stroke-linecap="round" stroke-linejoin="round"/>
<path d="M330 180.083C326.293 180.511 321.965 181.701 318.5 180.083C316.956 179.373 315.706 178.232 314.342 177.235M328.057 184.643C326.275 184.833 324.488 184.83 322.701 184.83C321.29 184.88 319.854 184.927 318.5 184.5C316.257 183.739 314.294 182.121 312.46 180.65M325.965 188.206C322.253 188.489 319.012 188.299 315.538 186.875C313.942 186.257 313.026 185.637 311.5 184.83M318.5 168.5C318.5 168.5 317.85 169.153 317.5 169.626C316.642 170.785 315.774 172.142 314.5 173" stroke="#25316D" stroke-width="2" stroke-miterlimit="1.5" stroke-linecap="round" stroke-linejoin="round"/>
<path d="M259 158.499C258 152.999 253.126 145.987 248.5 142.499C242.588 138.005 235.128 134.679 228 132.431" stroke="#25316D" stroke-width="2" stroke-miterlimit="1.5" stroke-linecap="round" stroke-linejoin="round"/>
<path d="M205.2 283.488L205.2 283.488L205.206 283.5C205.395 283.885 205.352 284.349 205.076 284.711C205.075 284.712 205.075 284.713 205.074 284.713L197.094 295.019H166.97L166.866 294.889L166.223 294.078C165.678 293.392 164.92 292.436 164.068 291.364C162.365 289.218 160.287 286.601 158.788 284.718L158.785 284.714C158.52 284.384 158.458 283.908 158.653 283.492C158.748 283.298 158.894 283.135 159.075 283.021C159.257 282.906 159.467 282.845 159.681 282.843C159.682 282.843 159.683 282.843 159.683 282.843L204.181 282.843H204.183C204.395 282.843 204.603 282.903 204.783 283.017C204.963 283.131 205.108 283.294 205.2 283.488ZM262.569 193.025L262.568 193.027C259.999 207.635 251.517 255.874 249.323 268.361C249.105 269.597 248.033 270.495 246.787 270.495H117.441C116.212 270.495 115.146 269.613 114.91 268.388C113.759 262.364 110.984 247.856 108.113 232.85C105.082 217.005 101.944 200.605 100.501 193.052L100.501 193.051C100.358 192.307 100.553 191.528 101.047 190.917C101.541 190.325 102.272 189.977 103.032 189.977L260.032 189.977L260.033 189.977C260.409 189.976 260.779 190.058 261.12 190.217C261.46 190.377 261.762 190.609 262.003 190.899L262.004 190.9C262.495 191.489 262.702 192.274 262.569 193.025Z" fill="white" stroke="#25316D" stroke-width="2"/>
<path d="M182.092 227.496C190.241 227.496 196.859 234.137 196.859 242.324V295.024H167.324V242.324C167.324 234.136 173.939 227.496 182.092 227.496Z" fill="white" stroke="#25316D" stroke-width="2"/>
<path fill-rule="evenodd" clip-rule="evenodd" d="M188.87 242.265C188.87 238.504 185.834 235.457 182.091 235.457C178.348 235.457 175.314 238.504 175.314 242.265V254.44C175.314 258.194 178.348 261.24 182.091 261.24C185.834 261.24 188.87 258.194 188.87 254.44V242.265Z" fill="#58B9FD"/>
<path d="M120 267.011L106.463 197.382C106.223 196.147 107.169 195 108.426 195H225" stroke="#25316D" stroke-width="2"/>
<path d="M225.332 249.983C225.692 249.983 225.986 250.274 225.986 250.64V256.877C225.986 257.242 225.692 257.533 225.332 257.533H222.875C222.511 257.533 222.221 257.242 222.221 256.877V250.64C222.221 250.274 222.511 249.983 222.875 249.983H225.332Z" fill="#686868"/>
<path d="M234.646 249.983C235.005 249.983 235.3 250.274 235.3 250.64V256.877C235.3 257.242 235.005 257.533 234.646 257.533H232.188C231.825 257.533 231.535 257.242 231.535 256.877V250.64C231.535 250.274 231.825 249.983 232.188 249.983H234.646Z" fill="#686868"/>
<path d="M470.63 144.565C470.63 167.245 452.245 185.63 429.565 185.63C406.886 185.63 388.5 167.245 388.5 144.565C388.5 121.886 406.886 103.5 429.565 103.5C452.245 103.5 470.63 121.886 470.63 144.565Z" fill="white" stroke="#25316D" stroke-width="2"/>
<path d="M447.22 162.331C445.616 164.199 443.43 165.781 440.662 167.077C437.915 168.352 434.421 168.989 430.181 168.989C423.04 168.989 417.557 166.967 413.734 162.924C409.933 158.859 408.032 152.652 408.032 144.302C408.032 135.909 409.933 129.724 413.734 125.747C417.557 121.748 423.04 119.748 430.181 119.748C434.114 119.748 437.366 120.297 439.937 121.396C442.529 122.473 444.518 123.824 445.902 125.45C446.913 126.658 447.045 127.592 446.298 128.251L444.023 130.196C443.32 130.811 442.562 130.559 441.749 129.438C440.826 128.186 439.387 127.12 437.432 126.241C435.476 125.34 433.301 124.89 430.906 124.89C425.522 124.89 421.611 126.307 419.172 129.141C416.733 131.954 415.316 135.766 414.921 140.578H436.937C438.146 140.578 438.75 141.073 438.75 142.061V144.5C438.75 145.489 438.146 145.983 436.937 145.983H414.789C414.987 152.07 416.305 156.574 418.744 159.497C421.205 162.397 425.127 163.847 430.51 163.847C433.477 163.847 435.883 163.375 437.728 162.43C439.574 161.485 441.189 160.2 442.573 158.574C443.518 157.453 444.353 157.189 445.078 157.783L447.616 159.826C448.319 160.375 448.187 161.21 447.22 162.331Z" fill="#25316D"/>
<circle cx="479.564" cy="194.563" r="40.3644" fill="white"/>
<path fill-rule="evenodd" clip-rule="evenodd" d="M521.63 194.565C521.63 217.797 502.797 236.63 479.565 236.63C456.333 236.63 437.5 217.797 437.5 194.565C437.5 171.333 456.333 152.5 479.565 152.5C502.797 152.5 521.63 171.333 521.63 194.565ZM471.786 185.714C471.786 188.268 473.875 190.357 476.429 190.357H481.071C488.732 190.357 495 196.625 495 204.286C495 211.25 489.893 216.821 483.393 217.982V222.857C483.393 225.411 481.304 227.5 478.75 227.5C476.196 227.5 474.107 225.411 474.107 222.857V217.982C467.607 216.821 462.5 211.25 462.5 204.286C462.5 201.732 464.589 199.643 467.143 199.643C469.696 199.643 471.786 201.732 471.786 204.286C471.786 206.839 473.875 208.929 476.429 208.929H481.071C483.625 208.929 485.714 206.839 485.714 204.286C485.714 201.732 483.625 199.643 481.071 199.643H476.429C468.768 199.643 462.5 193.375 462.5 185.714C462.5 178.75 467.607 173.179 474.107 172.018V167.143C474.107 164.589 476.196 162.5 478.75 162.5C481.304 162.5 483.393 164.589 483.393 167.143V172.018C489.893 173.179 495 178.75 495 185.714C495 188.268 492.911 190.357 490.357 190.357C487.804 190.357 485.714 188.268 485.714 185.714C485.714 183.161 483.625 181.071 481.071 181.071H476.429C473.875 181.071 471.786 183.161 471.786 185.714Z" fill="#CB2027"/>
<path d="M507.5 142.466V142.466C507.5 133.885 500.569 126.916 491.989 126.868L485 126.829M485 126.829L494.299 136.159M485 126.829L496.035 117.498" stroke="#25316D" stroke-width="2" stroke-linecap="round" stroke-linejoin="round"/>
<path d="M397.5 200V200C397.5 208.581 404.431 215.55 413.011 215.598L420 215.637M420 215.637L410.701 206.307M420 215.637L408.965 224.967" stroke="#CB2027" stroke-width="2" stroke-linecap="round" stroke-linejoin="round"/>
</svg>
