<svg width="65" height="65" viewBox="0 0 65 65" fill="none" xmlns="http://www.w3.org/2000/svg">
<path d="M26.1719 31.3795C23.7719 29.3795 11.8386 25.5461 6.1719 23.8795C7.17192 22.8795 13.6719 23.3795 16.1719 23.8795C18.1719 24.2795 25.3386 29.7128 28.6719 32.3795C28.8386 32.8795 28.5719 33.3795 26.1719 31.3795Z" fill="white"/>
<path d="M36.1719 32.3795C42.1692 27.3767 56.672 24.8795 56.6713 23.8795C55.6713 22.8795 49.1714 23.3795 46.6714 23.8795C44.6714 24.2795 37.5052 29.7128 34.1718 32.3795C34.0052 32.8795 35.6724 32.7962 36.1719 32.3795Z" fill="white"/>
<path d="M5.17208 16.83C4.33874 17.33 3.17208 22.53 5.17208 23.33C7.67208 24.33 8.17188 22.83 7.17188 21.33C6.17188 19.83 4.17188 20.3299 4.17188 20.8299C4.17188 21.3299 9.17188 23.33 12.6719 23.33C20.9676 23.3299 25.6719 32.83 31.6719 32.83C37.6719 32.83 41.7704 24.1924 49.6719 23.33C52.0012 23.0757 55.6719 23.33 55.6719 23.33M55.6719 23.33C55.6719 24.33 56.8719 25.33 57.6719 25.33C58.6719 25.33 58.6719 23.83 58.6719 23.33C58.6719 22.83 57.6719 20.83 55.6719 23.33ZM55.6719 23.33C53.6719 25.83 58.6719 18.8299 61.1719 20.8299" stroke="#25316D" stroke-width="2" stroke-linecap="round"/>
<circle cx="7" cy="7" r="7" transform="matrix(-1 0 0 1 38.6719 17.33)" fill="#CB2027"/>
<path d="M56.6719 17.8795V54.3795" stroke="#25316D" stroke-width="2" stroke-linecap="round" stroke-linejoin="round"/>
<path d="M6.67188 17.8795V54.3795" stroke="#25316D" stroke-width="2" stroke-linecap="round" stroke-linejoin="round"/>
</svg>
