<svg width="24" height="24" viewBox="0 0 24 24" fill="none" xmlns="http://www.w3.org/2000/svg">
<path d="M14.3994 4.7998H2.39941V10.7998" stroke="#303030" stroke-width="1.4" stroke-linejoin="round"/>
<path d="M9.59961 18H21.5996V12" stroke="#303030" stroke-width="1.4" stroke-linejoin="round"/>
<path d="M13.761 9.75652C13.9167 9.75652 14.066 9.69468 14.1761 9.5846C14.2862 9.47453 14.348 9.32523 14.348 9.16956C14.348 9.01389 14.2862 8.8646 14.1761 8.75452C14.066 8.64444 13.9167 8.5826 13.761 8.5826H12.5871V7.99565C12.5871 7.83998 12.5253 7.69068 12.4152 7.58061C12.3051 7.47053 12.1558 7.40869 12.0002 7.40869C11.8445 7.40869 11.6952 7.47053 11.5851 7.58061C11.4751 7.69068 11.4132 7.83998 11.4132 7.99565V8.5826H10.2393C10.0836 8.5826 9.93433 8.64444 9.82426 8.75452C9.71418 8.8646 9.65234 9.01389 9.65234 9.16956V11.5174C9.65234 11.6731 9.71418 11.8224 9.82426 11.9324C9.93433 12.0425 10.0836 12.1043 10.2393 12.1043H13.1741V13.2783H10.2393C10.0836 13.2783 9.93433 13.3401 9.82426 13.4502C9.71418 13.5602 9.65234 13.7095 9.65234 13.8652C9.65234 14.0209 9.71418 14.1702 9.82426 14.2803C9.93433 14.3903 10.0836 14.4522 10.2393 14.4522H11.4132V15.0391C11.4132 15.1948 11.4751 15.3441 11.5851 15.4542C11.6952 15.5642 11.8445 15.6261 12.0002 15.6261C12.1558 15.6261 12.3051 15.5642 12.4152 15.4542C12.5253 15.3441 12.5871 15.1948 12.5871 15.0391V14.4522H13.761C13.9167 14.4522 14.066 14.3903 14.1761 14.2803C14.2862 14.1702 14.348 14.0209 14.348 13.8652V11.5174C14.348 11.3617 14.2862 11.2124 14.1761 11.1023C14.066 10.9923 13.9167 10.9304 13.761 10.9304H10.8263V9.75652H13.761Z" fill="#303030"/>
<path d="M17.0253 14.1234C16.9393 14.2095 16.8317 14.2525 16.7025 14.2525C16.5734 14.2525 16.4619 14.2055 16.368 14.1116C16.274 14.0177 16.2271 13.9062 16.2271 13.7771C16.2271 13.6479 16.274 13.5364 16.368 13.4425L18.1875 11.6229L16.3562 9.79163C16.2701 9.70554 16.229 9.59793 16.233 9.4688C16.2369 9.33967 16.2819 9.23206 16.368 9.14598C16.454 9.05989 16.5636 9.01685 16.6967 9.01685C16.8297 9.01685 16.9393 9.05989 17.0253 9.14598L19.1853 11.306C19.2793 11.3999 19.3262 11.5095 19.3262 11.6347C19.3262 11.7599 19.2793 11.8695 19.1853 11.9634L17.0253 14.1234ZM6.97665 14.1234L4.81665 11.9634C4.72274 11.8695 4.67578 11.7599 4.67578 11.6347C4.67578 11.5095 4.72274 11.3999 4.81665 11.306L6.97665 9.14598C7.06274 9.05989 7.1723 9.01489 7.30535 9.01098C7.43839 9.00706 7.55187 9.05206 7.64578 9.14598C7.73969 9.23989 7.78665 9.35141 7.78665 9.48054C7.78665 9.60967 7.73969 9.72119 7.64578 9.81511L5.81448 11.6464L7.64578 13.4777C7.73187 13.5638 7.77295 13.6714 7.76904 13.8005C7.76513 13.9297 7.72013 14.0373 7.63404 14.1234C7.54795 14.2095 7.43839 14.2525 7.30535 14.2525C7.1723 14.2525 7.06274 14.2095 6.97665 14.1234Z" fill="#303030"/>
</svg>
