<svg width="64" height="64" viewBox="0 0 64 64" fill="none" xmlns="http://www.w3.org/2000/svg">
<path d="M32.2217 58.5L22.3759 48.6542L29.2879 48.6542L29.2879 33.5896L35.1554 33.5896L35.1554 48.6542L42.0674 48.6543L32.2217 58.5Z" fill="#CB2027"/>
<path d="M5.44336 30.8774L15.2891 21.0317V27.9437L38.5 27.9437L38.5 33.8112H15.2891V40.7232L5.44336 30.8774Z" fill="white"/>
<path d="M32.2217 4.5L42.0674 14.3458L35.1554 14.3458L35.1554 29.4104L29.2879 29.4104L29.2879 14.3458L22.3759 14.3457L32.2217 4.5Z" fill="#CB2027"/>
<path d="M59 30.8774L49.1542 21.0317V27.9437L34.0896 27.9437L34.0896 33.8112H49.1542V40.7232L59 30.8774Z" fill="white"/>
<path d="M21.9535 14.5465L32 4.5L42.0465 14.5465H35.1395V28.3605H48.9535V21.4535L59 31.5L48.9535 41.5465V34.6395H35.1395V48.4535H42.0465L32 58.5L21.9535 48.4535H28.8605V34.6395H15.0465V41.5465L5 31.5L15.0465 21.4535V28.3605H28.8605V14.5465H21.9535Z" stroke="#25316D" stroke-width="2" stroke-linecap="round"/>
</svg>
