<svg width="562" height="414" viewBox="0 0 562 414" fill="none" xmlns="http://www.w3.org/2000/svg">
<path fill-rule="evenodd" clip-rule="evenodd" d="M255.393 19.273C151.338 31.2261 61.4408 59.0607 25.5451 157.383C-4.32862 239.211 31.8387 259.076 99.1362 314.436C158.916 363.611 253.321 291.43 310.655 353.523C367.989 415.615 456.818 374.328 516.172 314.436C580.688 249.334 424.693 157.383 424.693 157.383C424.693 157.383 364.149 6.77984 255.393 19.273Z" fill="#E7ECFF"/>
<path d="M225.253 187.496L209.577 185.688V178.754L204.955 170.615C198.206 158.205 204.622 152.314 208.673 150.92C215.497 139.419 220.243 140.533 222.004 142.754C210.201 126.057 236.511 139.716 237.11 147.403C243.943 147.243 239.555 153.633 236.507 156.849V167.198L239.421 169.811L235.502 184.281L226.157 183.176L225.253 187.496Z" fill="white"/>
<path fill-rule="evenodd" clip-rule="evenodd" d="M167.657 80.9142C169.651 86.5373 172.95 88.8173 177.699 92.4323C215.865 121.483 271.539 94.1846 299.272 84.4646C306.385 81.9717 305.435 66.2064 294.917 63.8715C286.655 62.0384 283.666 68.4102 283.666 68.4102C283.666 68.4102 290.065 38.9941 269.663 35.5028C251.297 32.3605 249.045 59.725 249.045 59.725C249.045 59.725 245.315 45.6715 235.22 47.4828C224.044 49.4905 227.196 65.3767 227.196 65.3767C227.196 65.3767 220.215 55.557 212.334 59.725C207.08 62.5182 207.889 71.1595 207.889 71.1595C207.889 71.1595 162.257 65.6865 167.657 80.9142Z" fill="white"/>
<path d="M206.965 72.2627C188.959 69.1606 156.01 70.4841 171.574 86.5325C190.427 105.973 211.174 105.49 220.418 104.938M245.668 101.63C260.017 97.7691 290.745 88.766 298.858 83.6372C306.971 78.5083 301.549 69.2295 297.823 65.2312M282.922 67.7129C283.888 63.5078 284.909 53.1535 281.266 45.3775C277.623 37.6015 268.986 35.9333 265.123 36.0711M259.742 39.1733C256.775 40.0695 250.676 45.4189 250.014 59.6473M245.668 53.2363C243.874 50.2031 239.004 44.8812 233.871 47.8593C228.738 50.8373 227.179 56.1316 227.041 58.4065V65.2312M223.73 62.5427C221.729 60.2678 216.651 56.5039 212.346 59.6473C208.042 62.7908 207.655 67.2993 208 69.1606" stroke="#25316D" stroke-width="2"/>
<path fill-rule="evenodd" clip-rule="evenodd" d="M36.6328 182.411C36.6328 182.411 56.1102 191.249 69.3334 194.486C101.136 202.274 153.123 191.474 153.123 191.474C153.123 191.474 154.456 177.18 143.885 176.517C136.756 176.075 134.121 182.411 134.121 182.411C134.121 182.411 134.334 168.56 126.21 167.179C119.532 166.055 117.072 173.589 117.072 173.589C117.072 173.589 117.306 152.131 101.622 151.486C84.9845 150.786 85.194 173.589 85.194 173.589C85.194 173.589 80.0567 168.173 73.2997 171.507C65.1527 175.523 67.5688 183.517 67.5688 183.517L36.6328 182.411Z" fill="white"/>
<path fill-rule="evenodd" clip-rule="evenodd" d="M250.567 177.011L250.59 161.082L536.029 235.323L250.567 177.011Z" fill="white"/>
<path fill-rule="evenodd" clip-rule="evenodd" d="M250.59 161.082L242.186 134.218L536.029 235.323L250.59 161.082Z" fill="white"/>
<path fill-rule="evenodd" clip-rule="evenodd" d="M426.701 128.801C426.701 128.801 436.958 125.656 440.137 124.939C442.778 124.34 454.294 124.263 458.127 124.255C458.441 124.247 458.744 124.385 458.951 124.627C459.162 124.85 459.261 125.175 459.224 125.488C459.137 126.205 458.582 126.787 457.866 126.89L445.576 128.811L444.5 131C444.5 131 447.803 134 451 133C453.14 133.918 447.803 136.929 447.803 136.929C447.803 136.929 446.028 137.215 442.257 137.544C437.989 137.94 433.709 140.045 426.705 137.889L426.701 128.801Z" fill="white"/>
<path fill-rule="evenodd" clip-rule="evenodd" d="M344.747 132.143L383.652 129.449C383.652 129.449 412.756 124.934 417.197 125.484C421.807 126.035 425.229 124.5 430 124.5C430 124.5 432.695 134.154 431.155 140.624L424.35 142.198C424.35 142.198 422.421 144.475 418.737 145.594C415.053 146.695 384.932 150.148 384.932 150.148L351.842 154.833L344.747 132.143Z" fill="white"/>
<path d="M428.5 127L440.5 125C445.833 124.667 456.8 124.1 458 124.5C459.5 125 461 126.5 457 127C453.8 127.4 446.833 129.667 444.5 130V132L448.5 133.5H451.5C452.5 134 452.4 136.2 446 137C439.6 137.8 435.333 138.667 434 139H431" stroke="#25316D" stroke-width="2"/>
<path fill-rule="evenodd" clip-rule="evenodd" d="M323.807 135.499C323.807 135.499 311.393 176.706 309.667 195.602L363.246 205.506C363.246 205.506 367.03 141.703 363.246 130.642L323.807 135.499Z" fill="white"/>
<path fill-rule="evenodd" clip-rule="evenodd" d="M323.753 135.081C323.583 135.1 323.442 135.214 323.393 135.385C323.393 135.385 310.97 176.65 309.24 195.565C309.22 195.792 309.369 195.982 309.588 196.039L363.167 205.923C363.287 205.942 363.411 205.923 363.507 205.847C363.606 205.772 363.664 205.658 363.672 205.525C363.672 205.525 365.527 174.24 365.34 151.682C365.262 141.969 364.79 133.848 363.651 130.509C363.585 130.32 363.391 130.206 363.192 130.225L323.753 135.081ZM324.138 135.897L362.944 131.116C363.995 134.588 364.409 142.405 364.483 151.701C364.657 172.589 363.076 200.952 362.844 204.994C357.815 204.064 314.667 196.095 310.13 195.261C311.898 177.124 323.078 139.426 324.138 135.897Z" fill="#25316D"/>
<path fill-rule="evenodd" clip-rule="evenodd" d="M362.807 133.754C363.312 133.868 363.842 133.754 364.26 133.45C364.674 133.128 364.935 132.653 364.968 132.141C365.125 129.789 365.055 126.26 363.474 124.97C361.019 122.959 336.664 114.345 327.909 117.723C326.682 118.195 290 128.28 284.5 133.28C267.5 143.28 295.236 135.816 294.5 138C293.789 140.109 294.808 136.037 294.5 138C284.5 157 319.752 139.55 320.835 140.356C324.047 142.747 349 131 357.5 136.5C361.5 136 361.69 133.526 362.807 133.754Z" fill="#58B9FD"/>
<path fill-rule="evenodd" clip-rule="evenodd" d="M340.044 126.653L338.595 124.585C338.595 124.585 340.444 120.193 341.079 119.002C341.695 117.809 341.079 110.936 341.079 110.936L341.079 104C341.079 104 337 104.5 335 101.5C333.753 99.6278 333.5 96 336.5 94.9999C336 92.9998 333.566 88.9999 336.5 85.4999C338.595 82.9999 340.932 80.7189 344 80.4999C349.5 74.4999 359.5 69.9999 363 76.4999C364.792 76.6655 366.806 78.3484 368.5 78.9999C373 82.4999 368.723 86.3716 370 87.4999C372.125 89.3782 372 89.9999 372 91.4999C372.5 94.9999 366.979 93.4189 367.5 93.4999C367.5 94.5 367.5 107.5 367.5 110L360.948 116C360.948 116 359.901 121.006 360.948 122.104C361.976 123.2 364.466 126.653 364.466 126.653L351.841 129.436L340.044 126.653Z" fill="white"/>
<path d="M345.411 80.9029C346.101 79.8265 346.755 78.7102 347.61 77.812C350.199 75.0883 353.706 73.54 357.113 73.3235C358.836 73.2153 360.991 73.3963 362.455 74.6268C364.525 76.3691 362.156 79.8298 360.213 79.731C358.828 79.6608 358.981 77.9147 359.913 77.2122C360.724 76.6035 361.78 76.4447 362.716 76.464C364.982 76.5069 367.664 77.6206 369.278 79.6038C370.511 81.1173 371.616 83.6778 370.395 85.6854C369.988 86.354 369.344 86.7465 368.757 87.1433M370.343 87.9508C370.802 88.3141 371.224 88.744 371.491 89.2718C372.108 90.4898 371.959 92.2938 370.814 93.1642C370.342 93.5228 369.734 93.6968 369.156 93.7859C366.935 94.1236 364.595 93.2705 362.547 92.4985C361.432 92.0786 360.329 91.7028 359.293 91.1017M361.031 92.0179C360.761 93.7554 359.199 94.3216 357.597 94.1991C356.668 94.1278 355.79 93.8331 354.919 93.518C353.142 92.8751 351.541 91.9827 349.902 91.0609M343.581 81.6029C342.539 81.4725 341.485 81.3922 340.447 81.6615C339.797 81.8367 339.193 82.1101 338.632 82.4521C334.632 84.9046 334.402 90.3657 336.141 94.2553M345.858 76.683C345.345 77.3394 344.876 78.0335 344.49 78.7685C344.315 79.1051 344.233 79.6131 343.991 79.9221C343.991 79.9221 343.73 79.7917 343.714 79.7782C343.431 79.6281 343.15 79.4777 342.853 79.3452C342.126 78.9984 341.384 78.7284 340.632 78.4507M340.617 95.2934C340.18 94.8877 339.642 94.558 339.065 94.3894C336.819 93.7372 334.675 95.6437 334.143 97.7245C333.864 98.85 334.192 100.009 334.772 100.992C336.164 103.417 338.836 104.597 341.591 104.188" stroke="#25316D" stroke-width="2" stroke-miterlimit="1.5" stroke-linecap="round" stroke-linejoin="round"/>
<path d="M340.606 95.3047C341.4 96.8039 341.384 98.525 341.768 100.161C341.88 100.623 342.049 101.618 342.507 101.889C342.909 102.11 343.221 101.403 343.29 101.127C343.558 100.018 343.263 98.8526 343.557 97.736C343.766 96.9101 344.633 96.4047 345.172 95.7708C345.922 94.8911 346.432 93.866 346.585 92.6885M336.384 98.0532L340.111 100.114M349.055 98.1163C350.749 96.7647 353.311 96.4914 355.193 97.6435M359.636 97.8223C361.064 96.8209 362.992 96.9184 364.418 97.8634M341.139 104.578L341.487 121.734C341.487 121.734 350.323 126.768 360.503 123.253" stroke="#25316D" stroke-width="2" stroke-miterlimit="1.5" stroke-linecap="round" stroke-linejoin="round"/>
<path d="M367.512 93.9268C367.512 93.9268 367.443 106.409 367.419 109.53C367.419 109.969 367.258 110.408 366.956 110.755C364.343 113.714 361.289 115.933 357.912 117.574C357.541 117.736 357.102 117.782 356.686 117.713C352.985 116.904 349.422 115.448 346.067 113.021M360.966 115.934V123.038" stroke="#25316D" stroke-width="2" stroke-miterlimit="1.5" stroke-linecap="round" stroke-linejoin="round"/>
<path d="M358.195 99.1104C358.101 101.075 358.355 103.11 359.189 104.913C359.49 105.537 359.837 106.092 360.253 106.646C360.3 106.693 360.739 107.155 360.716 107.224C360.67 107.409 360.16 107.525 360.022 107.571C359.212 107.779 358.402 107.664 357.638 107.386M352.203 109.212C353.312 110.299 354.562 111.108 356.065 111.501M341.191 121.464C339.595 122.042 338.669 123.498 338.716 125.163M340.151 126.457C341.215 126.989 342.301 127.497 343.436 127.867C348.78 129.601 354.863 129.439 360.207 127.867M361.039 122.712C361.571 122.828 362.058 123.013 362.497 123.313C363.608 124.053 363.932 125.556 364.093 126.781" stroke="#25316D" stroke-width="2" stroke-miterlimit="1.5" stroke-linecap="round" stroke-linejoin="round"/>
<mask id="path-19-inside-1_228_753" fill="white">
<path d="M361.892 101.67C362.292 102.011 362.891 101.964 363.232 101.566C363.313 101.471 363.375 101.361 363.414 101.243C363.453 101.124 363.468 100.999 363.458 100.874C363.448 100.75 363.414 100.629 363.358 100.517C363.301 100.406 363.223 100.307 363.127 100.226C362.936 100.063 362.687 99.9818 362.436 100.001C362.184 100.021 361.951 100.139 361.787 100.331C361.623 100.522 361.542 100.771 361.562 101.022C361.582 101.273 361.7 101.506 361.892 101.67ZM352.617 101.415C352.711 101.496 352.821 101.558 352.94 101.596C353.059 101.635 353.184 101.65 353.308 101.64C353.433 101.631 353.554 101.597 353.665 101.54C353.777 101.483 353.876 101.406 353.957 101.311C354.121 101.119 354.201 100.871 354.182 100.62C354.162 100.369 354.044 100.135 353.852 99.9716C353.661 99.8079 353.412 99.727 353.161 99.7465C352.909 99.7661 352.676 99.8846 352.512 100.076C352.348 100.267 352.267 100.516 352.287 100.767C352.307 101.018 352.425 101.251 352.617 101.415Z"/>
</mask>
<path d="M361.892 101.67C362.292 102.011 362.891 101.964 363.232 101.566C363.313 101.471 363.375 101.361 363.414 101.243C363.453 101.124 363.468 100.999 363.458 100.874C363.448 100.75 363.414 100.629 363.358 100.517C363.301 100.406 363.223 100.307 363.127 100.226C362.936 100.063 362.687 99.9818 362.436 100.001C362.184 100.021 361.951 100.139 361.787 100.331C361.623 100.522 361.542 100.771 361.562 101.022C361.582 101.273 361.7 101.506 361.892 101.67ZM352.617 101.415C352.711 101.496 352.821 101.558 352.94 101.596C353.059 101.635 353.184 101.65 353.308 101.64C353.433 101.631 353.554 101.597 353.665 101.54C353.777 101.483 353.876 101.406 353.957 101.311C354.121 101.119 354.201 100.871 354.182 100.62C354.162 100.369 354.044 100.135 353.852 99.9716C353.661 99.8079 353.412 99.727 353.161 99.7465C352.909 99.7661 352.676 99.8846 352.512 100.076C352.348 100.267 352.267 100.516 352.287 100.767C352.307 101.018 352.425 101.251 352.617 101.415Z" fill="#25316D"/>
<path d="M361.892 101.67L360.591 103.189L360.595 103.192L361.892 101.67ZM363.232 101.566L361.716 100.262L361.712 100.266L363.232 101.566ZM363.127 100.226L361.828 101.747L361.831 101.75L363.127 100.226ZM361.787 100.331L360.268 99.0298L360.267 99.0314L361.787 100.331ZM352.617 101.415L351.316 102.934L351.317 102.935L352.617 101.415ZM353.957 101.311L355.476 102.612L355.477 102.61L353.957 101.311ZM353.852 99.9716L355.153 98.4525L355.151 98.4509L353.852 99.9716ZM352.512 100.076L350.993 98.7749L350.992 98.7765L352.512 100.076ZM360.595 103.192C361.831 104.245 363.691 104.106 364.752 102.865L361.712 100.266C362.091 99.8222 362.753 99.7763 363.189 100.148L360.595 103.192ZM364.748 102.87C365.002 102.575 365.194 102.234 365.315 101.865L361.513 100.621C361.556 100.489 361.625 100.367 361.716 100.262L364.748 102.87ZM365.315 101.865C365.436 101.495 365.482 101.106 365.452 100.719L361.464 101.03C361.453 100.892 361.47 100.752 361.513 100.621L365.315 101.865ZM365.452 100.719C365.422 100.332 365.315 99.9542 365.139 99.6082L361.576 101.427C361.513 101.303 361.475 101.168 361.464 101.03L365.452 100.719ZM365.139 99.6082C364.962 99.2623 364.719 98.9548 364.423 98.7032L361.831 101.75C361.726 101.66 361.639 101.55 361.576 101.427L365.139 99.6082ZM364.426 98.7058C363.832 98.1978 363.06 97.9467 362.28 98.0074L362.591 101.995C362.314 102.017 362.04 101.928 361.828 101.747L364.426 98.7058ZM362.28 98.0074C361.501 98.0681 360.777 98.4357 360.268 99.0298L363.306 101.632C363.125 101.843 362.868 101.974 362.591 101.995L362.28 98.0074ZM360.267 99.0314C359.759 99.6257 359.507 100.398 359.568 101.178L363.556 100.866C363.578 101.144 363.488 101.419 363.307 101.63L360.267 99.0314ZM359.568 101.178C359.629 101.957 359.997 102.681 360.591 103.189L363.192 100.151C363.403 100.331 363.534 100.589 363.556 100.866L359.568 101.178ZM351.317 102.935C351.611 103.187 351.952 103.378 352.321 103.498L353.559 99.6947C353.69 99.7374 353.811 99.8053 353.916 99.8949L351.317 102.935ZM352.321 103.498C352.689 103.618 353.077 103.664 353.463 103.634L353.153 99.6463C353.29 99.6357 353.428 99.6521 353.559 99.6947L352.321 103.498ZM353.463 103.634C353.85 103.604 354.226 103.499 354.571 103.323L352.76 99.757C352.882 99.6946 353.016 99.657 353.153 99.6463L353.463 103.634ZM354.571 103.323C354.917 103.148 355.224 102.906 355.476 102.612L352.438 100.01C352.527 99.9053 352.637 99.8193 352.76 99.757L354.571 103.323ZM355.477 102.61C355.985 102.016 356.237 101.244 356.176 100.464L352.188 100.775C352.166 100.498 352.256 100.223 352.436 100.012L355.477 102.61ZM356.176 100.464C356.115 99.6844 355.747 98.961 355.153 98.4525L352.552 101.491C352.341 101.31 352.21 101.053 352.188 100.775L356.176 100.464ZM355.151 98.4509C354.557 97.9429 353.785 97.6919 353.005 97.7526L353.316 101.74C353.039 101.762 352.765 101.673 352.553 101.492L355.151 98.4509ZM353.005 97.7526C352.226 97.8133 351.502 98.1808 350.993 98.7749L354.031 101.377C353.85 101.588 353.593 101.719 353.316 101.74L353.005 97.7526ZM350.992 98.7765C350.484 99.371 350.232 100.143 350.293 100.923L354.281 100.612C354.303 100.889 354.213 101.164 354.032 101.375L350.992 98.7765ZM350.293 100.923C350.354 101.703 350.722 102.426 351.316 102.934L353.917 99.8956C354.128 100.076 354.259 100.334 354.281 100.612L350.293 100.923Z" fill="#25316D" mask="url(#path-19-inside-1_228_753)"/>
<path d="M358.507 118.43C358.979 118.294 359.447 118.11 359.855 117.931V118.219C359.833 118.239 359.81 118.259 359.786 118.28C359.553 118.481 359.216 118.743 358.801 118.983C357.961 119.47 356.894 119.82 355.745 119.544C352.934 118.864 350.715 117.249 349.153 115.721C349.584 115.907 350.032 116.099 350.485 116.291C351.81 116.852 353.187 117.419 354.327 117.851C354.896 118.067 355.417 118.253 355.847 118.39C356.238 118.513 356.665 118.633 356.989 118.648C357.501 118.674 358.038 118.566 358.507 118.43Z" fill="#25316D" stroke="#25316D" stroke-width="2"/>
<path fill-rule="evenodd" clip-rule="evenodd" d="M224.722 228.106V292.994L536.025 235.324L224.722 228.106Z" fill="#25316D"/>
<path fill-rule="evenodd" clip-rule="evenodd" d="M536.029 235.324L250.353 173.085L166.218 243.832L536.029 235.324Z" fill="white"/>
<path d="M535.793 235.357L456.079 218.27M441.156 214.271L380.005 201.183M348.702 194.639L303.931 184.823M297.38 183.369L250.425 172.826L229.678 190.64M187.819 226.632L175.079 236.812" stroke="#25316D" stroke-width="2" stroke-linecap="round" stroke-linejoin="round"/>
<path d="M137.218 128.928C145.979 134.099 164.827 142.495 170.125 134.719C176.748 124.999 159.984 128.928 161.226 131.824C162.468 134.719 166.814 147.334 196.203 147.334" stroke="#25316D" stroke-width="2"/>
<path fill-rule="evenodd" clip-rule="evenodd" d="M390.032 221.914C392.159 223.734 393.885 223.147 394.581 222.518C394.871 222.253 395.007 221.951 395.02 221.74C395.032 221.571 394.978 221.418 394.879 221.306C393.828 219.995 388.153 215.88 388.153 215.88C388.144 215.861 388.136 215.861 388.128 215.861C383.893 213.223 381.199 212.503 381.199 212.503C381.116 212.484 381.033 212.484 380.954 212.503L369.195 216.278C368.971 216.354 368.847 216.601 368.917 216.828C371.012 223.411 375.37 228.706 378.235 231.378C379.116 232.197 379.857 232.763 380.358 233.069C380.623 233.218 380.838 233.297 380.983 233.334C381.952 233.504 382.792 233.106 383.247 232.821C383.583 233.164 384.204 233.582 385.172 233.392C386.095 233.218 386.389 232.631 386.464 232.118C386.638 232.197 386.832 232.234 387.031 232.234C387.523 232.234 388.024 232.023 388.31 231.626C388.579 231.229 388.687 230.641 388.285 229.822C387.581 228.4 386.865 226.997 386.282 225.876C386.666 226.294 387.08 226.733 387.486 227.188C388.852 228.668 390.189 230.108 390.566 230.372C390.877 230.585 391.244 230.7 391.62 230.704C391.997 230.708 392.366 230.6 392.681 230.393C393.091 230.108 393.352 229.69 393.356 229.198C393.356 229.028 393.298 228.78 393.169 228.495C392.933 227.965 392.453 227.188 391.845 226.331C390.578 224.549 388.769 222.332 387.643 220.983C388.339 221.232 389.125 221.513 389.622 221.724C389.808 221.798 389.999 221.893 390.032 221.914ZM393.784 221.497C393.718 221.592 393.874 221.703 393.721 221.782C393.075 222.141 391.925 222.179 390.521 220.983C390.463 220.925 390.236 220.814 389.9 220.661C388.808 220.226 385.64 219.088 385.64 219.088C385.458 219.014 385.251 219.088 385.143 219.241C385.031 219.395 385.044 219.622 385.172 219.771C385.172 219.771 388.844 223.882 390.789 226.632C391.274 227.331 391.683 227.96 391.928 228.432C392.052 228.68 392.143 228.87 392.143 229.002C392.143 229.209 392.015 229.362 391.845 229.478C391.538 229.685 391.53 229.463 391.145 229.198C390.785 228.95 389.518 227.547 388.21 226.125C386.849 224.644 384.82 223.261 384.324 222.922C384.158 222.806 383.939 222.827 383.794 222.959C383.649 223.092 383.612 223.319 383.707 223.489C383.707 223.489 385.545 226.542 387.159 229.822C387.333 230.182 387.378 230.451 387.3 230.658C387.209 230.906 386.931 230.997 386.679 230.997C386.282 230.997 385.959 230.704 385.959 230.704C385.818 230.572 385.603 230.551 385.437 230.646C385.272 230.762 385.197 230.952 385.251 231.138C385.251 231.138 385.719 231.853 384.853 232.023C383.947 232.192 383.707 232.023 383.707 232.023C383.645 231.911 383.533 231.816 383.401 231.795C383.272 231.779 383.136 231.816 383.04 231.911C383.04 231.911 382.258 231.833 381.199 231.626C381.078 231.605 380.896 231.51 380.652 231.34C380.197 231.034 379.584 230.542 378.881 229.897C376.144 227.357 371.955 223.204 369.869 216.98L381.091 213.375C381.641 213.527 383.579 214.905 387.159 217.144C387.441 217.353 392.592 220.186 393.784 221.497Z" fill="#25316D"/>
<path fill-rule="evenodd" clip-rule="evenodd" d="M358.035 142.197C357.615 141.162 356.992 140.221 356.203 139.429C355.414 138.637 354.475 138.011 353.44 137.587C351.35 136.733 349.003 136.752 346.933 137.663C343.15 139.294 339.371 142.482 339.131 148.724C338.638 161.435 345.832 184.922 345.832 184.922C345.832 184.922 357.046 207.575 359.45 210.572C362.29 214.101 366.574 214.461 366.574 214.461L369.261 218.332C369.261 218.332 378.682 217.801 382.337 213.551L380.946 209.795C380.946 209.795 381.803 207.423 380.325 204.046C378.847 200.669 366.574 179.496 366.574 179.496C366.574 179.496 363.424 155.648 358.035 142.197Z" fill="white"/>
<path d="M340 148.5C340 153.833 340.6 166.1 343 172.5M344.5 175.5C346 178.667 354.3 201.1 355.5 203.5C356.833 207 360.9 214.1 366.5 214.5M368 216L369.5 218.5C372.333 218.333 378.9 217.2 382.5 214L381.5 211.5M369 213.5C371.5 213.167 377.1 212.1 379.5 210.5M360 148.5C362.167 156.833 366.5 174.5 366.5 178.5M368.5 183L378 199.5C379.167 202 381.4 207.5 381 209.5M322.5 141L311 185M364 134L365 163.5M364 132L392.5 129.5L404.5 127.5L413 125.5C418.049 125.5 424.489 125.335 429.5 124.5C430.5 128.667 432.7 139.2 431.5 140C430.3 140.8 426.333 142 424.5 142.5C423.167 143.667 418.1 145.6 414.5 146L385.5 150L373 152L366.5 154M423 129.5C424 132 425.7 137.3 424.5 138.5M216.5 347.5L278 331.5" stroke="#25316D" stroke-width="2" stroke-linecap="round"/>
<path fill-rule="evenodd" clip-rule="evenodd" d="M368.383 214.11C368.383 214.11 375.088 213.617 379.555 210.513C379.737 210.39 379.799 210.123 379.654 209.917C379.534 209.733 379.265 209.671 379.058 209.815C374.782 212.795 368.321 213.247 368.321 213.247C368.076 213.268 367.89 213.473 367.911 213.72C367.931 213.946 368.138 214.131 368.383 214.11Z" fill="#25316D"/>
<path d="M394.486 289.965L148.189 260.516L148.48 245.027L394.486 289.965Z" fill="white" stroke="#25316D" stroke-width="2"/>
<path d="M389.666 287.311L148.775 244.996L139.843 229.6L389.666 287.311Z" fill="white" stroke="#25316D" stroke-width="2"/>
<path d="M275.605 259.424L278.546 254.461L284.976 258.184L290.3 261.906L289.058 267.49L283.884 264.801L282.849 266.042L285.333 267.904L287.402 271.006L286.574 272.66L278.546 269.765L273.329 264.181L275.605 259.424Z" fill="#D9D9D9"/>
<path fill-rule="evenodd" clip-rule="evenodd" d="M272.917 264.37C274.472 265.327 275.65 266.672 276.916 267.963C277.463 268.523 277.96 269.148 278.588 269.62C279.996 270.675 281.72 271.113 283.386 271.552C283.926 271.694 284.463 271.843 284.987 272.035C285.327 272.159 285.671 272.362 286.032 272.416C286.375 272.468 286.806 272.445 287.064 272.185C287.213 272.033 286.972 271.913 286.856 271.812C286.542 271.537 286.192 271.295 285.839 271.072C284.327 270.123 282.611 269.497 281.049 268.629C280.238 268.181 279.465 267.601 278.855 266.899C277.263 265.069 276.322 262.71 274.108 261.481" fill="#DAE8F1"/>
<path fill-rule="evenodd" clip-rule="evenodd" d="M232.63 239.378C233.043 243.035 233.457 246.556 233.812 249.396C235.091 259.595 237.379 264.103 236.508 269.457C235.642 274.807 225.871 277.091 225.871 277.091C219.595 282.901 210.131 284.546 210.131 284.546L209.182 282.803C209.182 282.803 200.877 283.565 196.435 282.803C191.992 282.039 192.511 279.422 192.108 277.091C191.705 274.76 191.63 274.002 189.426 272.379C187.224 270.755 186.542 269.19 186.616 264.722C186.687 260.251 187.186 248.164 188.506 238.73C189.824 229.296 191.616 214.901 195.86 204.881C200.105 194.86 205.109 190.559 205.109 190.559C205.109 190.559 205.945 187.966 206.594 186.783C207.245 185.601 208.61 185.708 208.61 185.708C208.61 185.708 214.625 186.146 219.158 186.439C223.69 186.731 227.495 188.344 227.495 188.344C228.464 190.313 227.495 196.38 227.495 196.38C228.519 199.057 228.836 200.9 229.482 204.335C231.29 205.764 250.387 231.86 250.505 232.84C260.66 238.601 269.895 244.516 278.606 250.518C278.606 250.518 277.024 259.79 272.596 264.59C272.596 264.59 249.443 254.47 241.341 248.69C241.341 248.69 236.211 243.819 232.63 239.378Z" fill="#58B9FD"/>
<path d="M225.625 157.476C225.371 159.343 225.054 161.17 224.143 162.841M229.899 156.597C230.094 157.989 229.881 159.473 229.377 160.785" stroke="#25316D" stroke-width="2" stroke-miterlimit="1.5" stroke-linecap="round" stroke-linejoin="round"/>
<path d="M209.037 150.579C211.181 146.336 214.669 142.346 219.352 140.917C223.209 139.74 224.899 144.025 222.208 143.405C222.482 144.644 207.511 124.949 232.97 141.13C237.306 143.884 237.583 150.239 236.824 147.91C236.069 145.614 242.427 147.615 239.946 152.666C238.482 155.656 235.06 156.95 231.916 157.308M205.348 150.465C205.858 150.312 206.416 150.273 206.944 150.344C207.117 150.367 207.286 150.398 207.456 150.435C207.484 150.442 207.609 150.494 207.629 150.479C207.657 150.458 207.639 150.235 207.641 150.196C207.652 149.916 207.664 149.637 207.7 149.359C207.83 148.382 208.078 147.402 208.476 146.5M207.893 151.552C206.881 151.944 205.968 152.454 205.164 153.186C204.527 153.764 203.98 154.455 203.523 155.18C200.481 160.031 202.71 165.833 204.959 170.497C205.442 171.5 205.947 172.483 206.503 173.448C207.12 174.52 207.809 175.547 208.454 176.602C208.774 177.122 209.087 177.854 209.528 178.282C209.582 178.336 209.904 178.296 209.983 178.296C210.38 178.304 210.778 178.318 211.174 178.343C211.654 178.373 212.551 178.685 212.991 178.539C213.159 178.483 213.401 177.594 213.469 177.423C213.935 176.27 214.318 175.105 214.696 173.922" stroke="#25316D" stroke-width="2" stroke-miterlimit="1.5" stroke-linecap="round" stroke-linejoin="round"/>
<path d="M219.795 164.867C218.188 163.415 215.866 163.604 214.397 165.188C213.744 165.892 213.382 166.847 213.247 167.786C212.685 171.683 216.849 174.324 220.289 174.552" stroke="#25316D" stroke-width="2" stroke-miterlimit="1.5" stroke-linecap="round" stroke-linejoin="round"/>
<path d="M216.233 168.132C217.077 168.765 217.97 169.333 218.846 169.921M230.652 162.378C231.629 161.45 233.394 161.264 234.37 162.296M228.451 175.846C228.738 176.898 229.498 177.812 230.604 178.031C230.898 178.09 231.194 178.095 231.492 178.074" stroke="#25316D" stroke-width="2" stroke-miterlimit="1.5" stroke-linecap="round" stroke-linejoin="round"/>
<path d="M236.496 158.477C236.712 160.551 236.852 162.629 236.735 164.716C236.697 165.356 236.642 165.994 236.578 166.631C236.563 166.762 236.432 167.225 236.492 167.335C236.581 167.499 236.967 167.69 237.113 167.813C237.641 168.257 238.115 168.761 238.573 169.272C238.691 169.404 239 169.645 239.05 169.811C239.085 169.934 238.964 170.219 238.939 170.349C238.846 170.832 238.773 171.318 238.693 171.801C238.376 173.72 238.008 175.661 237.566 177.555C237.202 179.104 236.911 180.672 236.416 182.186C236.25 182.693 236.157 183.63 235.602 183.814C233.359 184.555 228.594 183.552 225.559 182.988" stroke="#25316D" stroke-width="2" stroke-miterlimit="1.5" stroke-linecap="round" stroke-linejoin="round"/>
<path d="M225.596 182.995C225.015 182.881 224.384 182.735 223.934 182.322C223.046 181.507 223.046 179.695 222.805 178.59C221.919 174.538 221.513 170.409 220.746 166.334M224.018 173.807L222.643 164.983M209.908 178.416L209.623 185.46M225.828 183.038L225.559 187.586M205.222 190.246C205.602 188.976 206.094 187.663 206.727 186.495M208.186 185.693C210.7 185.82 213.213 185.989 215.724 186.169C217.994 186.333 220.291 186.474 222.529 186.901C223.69 187.124 224.842 187.384 225.983 187.696C226.484 187.835 227.073 187.908 227.394 188.361C227.858 189.011 227.883 189.826 227.897 190.594C227.924 192.074 227.79 193.575 227.676 195.05M207.244 190.572C208.963 190.662 210.675 190.971 212.366 191.271C217.165 192.117 220.517 192.903 224.901 195.051" stroke="#25316D" stroke-width="2" stroke-miterlimit="1.5" stroke-linecap="round" stroke-linejoin="round"/>
<path d="M227.558 188.614C225.678 189.728 225.357 191.706 224.901 193.639M278.582 250.381C278.407 253.713 277.106 256.874 275.562 259.789C274.444 261.899 273.212 264.019 271.59 265.789M274.549 246.913C273.162 252.301 270.231 257.609 266.761 261.941M207.477 284.966C211.666 284.44 215.816 283.276 219.638 281.47C221.999 280.357 224.248 279.01 225.946 277M207.024 280.281C208.884 279.968 210.684 279.411 212.473 278.817C216.205 277.575 219.98 275.842 223.028 273.304M212.781 284.174C213.12 284.762 213.484 285.338 213.888 285.882C214.168 286.255 214.5 286.606 214.729 287.014C215.242 287.933 215.458 288.978 216.014 289.888M225.04 278.256C225.42 278.769 225.775 279.302 226.163 279.806" stroke="#25316D" stroke-width="2" stroke-miterlimit="1.5" stroke-linecap="round" stroke-linejoin="round"/>
<path d="M278.187 254.3C281.151 256.148 284.26 257.735 287.097 259.783C287.769 260.27 288.449 260.742 289.098 261.261C289.442 261.536 289.813 261.783 289.957 262.218C290.153 262.815 290.026 263.499 289.878 264.095C289.565 265.36 289.016 266.541 288.35 267.658M273.873 265.015C275.455 266.049 276.306 267.697 277.703 268.904C279.332 270.315 281.488 271.013 283.512 271.644C284.502 271.952 285.759 272.637 286.813 272.393M287.605 271.646C287.703 271.096 287.75 270.408 287.521 269.882C287.304 269.381 286.744 269.088 286.292 268.831C285.754 268.524 285.194 268.251 284.629 268C284.099 267.765 283.544 267.535 283.109 267.141C282.519 266.607 282.36 265.678 282.315 264.925C282.289 264.448 282.318 263.969 282.475 263.514" stroke="#25316D" stroke-width="2" stroke-miterlimit="1.5" stroke-linecap="round" stroke-linejoin="round"/>
<path d="M282.521 264.649C283.615 264.847 284.677 265.191 285.68 265.669M284.498 265.019C284.666 264.484 284.897 263.976 285.204 263.509M217.246 204.884C218.808 209.343 217.415 214.116 216.244 218.505C214.407 225.388 212.254 232.24 210.863 239.227M210.13 241.629C213.947 253.342 218.717 265.021 224.442 275.944M203.248 202.173C200.559 203.526 199.6 206.516 198.899 209.225C197.779 213.56 196.755 217.919 195.644 222.256M194.79 224.901C192.994 230.817 190.756 242.381 191.559 248.467C192.122 252.732 194.499 256.965 196.388 260.766C199.523 267.076 206.33 278.607 210.13 284.546M229.826 209.804C230.034 216.515 230.714 223.263 231.325 229.948C231.554 232.457 232.048 234.959 232.124 237.48M219.846 230.598C220.964 234.339 222.723 237.954 225.378 240.854M221.326 240.784C222.339 242.484 223.464 244.116 224.743 245.626" stroke="#25316D" stroke-width="2" stroke-miterlimit="1.5" stroke-linecap="round" stroke-linejoin="round"/>
<path d="M233.535 166.128C233.535 166.852 233.139 167.439 232.651 167.439C232.162 167.439 231.766 166.852 231.766 166.128C231.766 165.404 232.162 164.816 232.651 164.816C233.139 164.816 233.535 165.404 233.535 166.128Z" fill="#25316D"/>
<path d="M57.8372 319.075L144.271 255.976L416.955 294.461L57.8372 319.075Z" fill="white" stroke="#25316D" stroke-width="2"/>
<path d="M399.756 335.963L464.946 311.918L399.756 335.963ZM409.795 341.657L394.574 364.178L409.795 341.657ZM472.967 309.059L373.366 327.084L399.273 336.286L393.495 364.866L415.623 351.442" fill="white"/>
<path d="M399.756 335.963L464.946 311.918M409.795 341.657L394.574 364.178M472.967 309.059L373.366 327.084L399.273 336.286L393.495 364.866L415.623 351.442L472.967 309.059Z" stroke="#25316D" stroke-width="2" stroke-linecap="round" stroke-linejoin="round"/>
<path d="M278.088 168.463L251.153 160.828L242.781 133.562L262.073 141.196M292.648 172.098L311.939 176.825M377.093 193.548L535.429 235.721L495.754 221.179M470.639 212.817L367.63 176.825M315.215 159.01L274.448 144.468" stroke="#25316D" stroke-width="2" stroke-linecap="round" stroke-linejoin="round"/>
<path d="M251.153 160.465L250.425 172.826" stroke="#25316D" stroke-width="2" stroke-linecap="round" stroke-linejoin="round"/>
<circle cx="3.5" cy="3.5" r="3.5" transform="matrix(-1 0 0 1 340 316.5)" fill="#CB2027"/>
<circle cx="87" cy="225.5" r="8" fill="#CB2027"/>
</svg>
