<svg width="227" height="50" viewBox="0 0 227 50" fill="none" xmlns="http://www.w3.org/2000/svg">
<path fill-rule="evenodd" clip-rule="evenodd" d="M40.6218 46L48.7065 21.0967H59.7476L55.6943 33.6113H61.4785L65.5318 21.0967H79.0714L70.9867 46H40.6218ZM194.788 4H207.012L201.645 20.8224H208.436L213.803 4H226.75L213.519 46H200.417L204.493 33.1918H197.702L193.605 46H181.554L194.788 4ZM186.639 4H65.2244L61.8283 15.3981H90.3967L80.3625 45.7989H94.0989L103.891 15.3981H182.848L186.639 4ZM176.407 36.0486L173.187 46H143.613L151.695 21.0967H181.271L178.072 30.9373H161.642L160.305 36.0486H176.407ZM136.622 38.4859L134.191 46H103.827L111.912 21.0967H142.255L139.823 28.6452H121.311L120.786 30.2586H131.3L129.22 36.7273H118.662L118.092 38.4859H136.622ZM50.35 15.3981L54.1396 4H14.5301L0.75 45.7989H14.4645L18.7146 32.6421H34.8158L38.5836 21.2623H22.3949L24.2788 15.3981H50.35Z" fill="white"/>
</svg>
