<svg width="588" height="340" viewBox="0 0 588 340" fill="none" xmlns="http://www.w3.org/2000/svg">
<line x1="461.49" y1="116.222" x2="461.49" y2="232.379" stroke="#303030" stroke-width="2" stroke-linecap="round" stroke-dasharray="6.46 6.46"/>
<line x1="429.81" y1="116.222" x2="429.81" y2="232.379" stroke="#303030" stroke-width="2" stroke-linecap="round" stroke-dasharray="6.46 6.46"/>
<line x1="492.314" y1="116.222" x2="492.314" y2="232.379" stroke="#303030" stroke-width="2" stroke-linecap="round" stroke-dasharray="6.46 6.46"/>
<path d="M484.179 72.0341L484.53 72.5735L485.167 72.4769C485.712 72.3941 486.268 72.3923 486.913 72.3923C499.978 72.3923 510.491 82.2731 510.491 94.4199C510.491 106.567 499.978 116.448 486.913 116.448C477.385 116.448 470.475 116.064 465.611 115.495L465.425 115.473L465.244 115.52C462.741 116.167 460.159 116.448 457.419 116.448C455.518 116.448 453.675 116.262 451.887 115.98L451.745 115.958L451.602 115.976C447.256 116.542 441.208 116.735 432.875 116.448L432.858 116.448H432.841C419.776 116.448 409.263 106.567 409.263 94.4199C409.263 83.2795 418.234 73.9637 429.87 72.5771L430.334 72.5218L430.589 72.13C436.091 63.685 446.026 58 457.419 58C468.746 58 478.68 63.5931 484.179 72.0341Z" fill="white" stroke="#25316D" stroke-width="2"/>
<path d="M394.561 243.423L410.043 224.399L460.061 229.155L451.725 246.99L394.561 243.423Z" fill="white" stroke="#25316D" stroke-width="2" stroke-linejoin="round"/>
<path d="M402.898 274.461L402.796 275.456C402.286 275.404 401.898 274.975 401.898 274.461H402.898ZM401.898 244.612C401.898 244.06 402.345 243.612 402.898 243.612C403.45 243.612 403.898 244.06 403.898 244.612H401.898ZM401.898 274.461V244.612H403.898V274.461H401.898ZM459.96 281.276L402.796 275.456L402.999 273.467L460.162 279.286L459.96 281.276Z" fill="#25316D"/>
<path d="M525.561 243.423L510.079 224.399L460.061 229.155L468.398 246.99L525.561 243.423Z" fill="white" stroke="#25316D" stroke-width="2" stroke-linejoin="round"/>
<path d="M517.225 274.462L517.326 275.456C517.837 275.404 518.225 274.975 518.225 274.462H517.225ZM518.225 244.612C518.225 244.06 517.777 243.612 517.225 243.612C516.673 243.612 516.225 244.06 516.225 244.612H518.225ZM518.225 274.462V244.612H516.225V274.462H518.225ZM460.163 281.276L517.326 275.456L517.124 273.467L459.96 279.286L460.163 281.276Z" fill="#25316D"/>
<path d="M460.061 280.471V229.5" stroke="#25316D" stroke-width="2" stroke-linecap="round"/>
<path d="M483.765 271.73C486.333 271.73 488.414 269.651 488.414 267.088C488.414 264.525 486.333 262.446 483.765 262.446C481.198 262.446 479.116 264.525 479.116 267.088C479.116 269.651 481.198 271.73 483.765 271.73Z" fill="#CB2027"/>
<path d="M495.675 270.541C498.242 270.541 500.324 268.462 500.324 265.899C500.324 263.336 498.242 261.257 495.675 261.257C493.107 261.257 491.025 263.336 491.025 265.899C491.025 268.462 493.107 270.541 495.675 270.541Z" fill="#CB2027"/>
<path d="M507.584 269.352C510.151 269.352 512.233 267.273 512.233 264.71C512.233 262.147 510.151 260.068 507.584 260.068C505.016 260.068 502.935 262.147 502.935 264.71C502.935 267.273 505.016 269.352 507.584 269.352Z" fill="#CB2027"/>
<path d="M422.642 255.312L418.638 259.31L422.642 263.308" stroke="#CB2027" stroke-width="2" stroke-linecap="round" stroke-linejoin="round"/>
<path d="M439.418 257.69L443.423 261.685L439.418 265.68" stroke="#CB2027" stroke-width="2" stroke-linecap="round" stroke-linejoin="round"/>
<path d="M433.032 256.501L429.028 264.497" stroke="#CB2027" stroke-width="2" stroke-linecap="round" stroke-linejoin="round"/>
<path fill-rule="evenodd" clip-rule="evenodd" d="M426.599 178.141C427.152 178.141 427.599 178.588 427.599 179.141V182.359C427.599 182.912 427.152 183.359 426.599 183.359C426.047 183.359 425.599 182.912 425.599 182.359V179.141C425.599 178.588 426.047 178.141 426.599 178.141Z" fill="#CB2027"/>
<path fill-rule="evenodd" clip-rule="evenodd" d="M431.756 178.141C432.309 178.141 432.756 178.588 432.756 179.141V182.359C432.756 182.912 432.309 183.359 431.756 183.359C431.204 183.359 430.756 182.912 430.756 182.359V179.141C430.756 178.588 431.204 178.141 431.756 178.141Z" fill="#CB2027"/>
<path fill-rule="evenodd" clip-rule="evenodd" d="M429.156 178.141C429.708 178.141 430.156 178.588 430.156 179.141V184.773C430.156 185.326 429.708 185.773 429.156 185.773C428.604 185.773 428.156 185.326 428.156 184.773V179.141C428.156 178.588 428.604 178.141 429.156 178.141Z" fill="#CB2027"/>
<path fill-rule="evenodd" clip-rule="evenodd" d="M433.077 177.765C433.764 177.765 434.406 177.418 434.754 176.835C434.947 176.51 435.133 176.185 435.313 175.859L439.533 178.613C440.111 178.991 440.895 178.686 441.055 178.021L442.319 172.752C442.397 172.428 442.303 172.087 442.069 171.847L438.277 167.562C439.735 160.122 437.314 153.29 430.371 147.349C429.674 146.753 428.638 146.753 427.941 147.349C420.978 153.307 418.543 160.043 420.028 167.505L419.264 168.282L416.244 171.847C416.01 172.087 415.915 172.428 415.993 172.752L417.258 178.021C417.418 178.686 418.201 178.991 418.78 178.613L422.999 175.859C423.179 176.185 423.366 176.51 423.559 176.835C423.906 177.418 424.549 177.765 425.235 177.765H433.077Z" fill="white"/>
<path fill-rule="evenodd" clip-rule="evenodd" d="M434.389 177.275C434.531 177.149 434.654 177.002 434.754 176.835C434.947 176.51 435.133 176.185 435.313 175.859L439.533 178.613C440.111 178.991 440.895 178.686 441.055 178.021L442.319 172.752C442.397 172.428 442.303 172.087 442.069 171.847L438.277 167.562C439.735 160.122 437.314 153.29 430.371 147.349C429.674 146.753 428.638 146.753 427.941 147.349C420.978 153.307 418.543 160.043 420.028 167.505L419.264 168.282L416.244 171.847C416.01 172.087 415.915 172.428 415.993 172.752L417.258 178.021C417.418 178.686 418.201 178.991 418.78 178.613L422.999 175.859C423.179 176.185 423.366 176.51 423.559 176.835C423.658 177.002 423.782 177.149 423.923 177.275C424.277 177.588 424.745 177.765 425.235 177.765H433.077C433.568 177.765 434.035 177.588 434.389 177.275ZM425.249 175.765H433.063C433.236 175.474 433.402 175.184 433.562 174.893L434.602 173.007L439.443 176.167L440.249 172.808L436.124 168.147L436.314 167.177C437.611 160.563 435.557 154.456 429.156 148.942C422.728 154.48 420.671 160.491 421.989 167.114L422.196 168.152L420.742 169.631L418.061 172.796L418.87 176.167L423.71 173.007L424.751 174.893C424.911 175.184 425.077 175.474 425.249 175.765ZM440.375 172.285C440.374 172.286 440.375 172.284 440.375 172.285Z" fill="#25316D"/>
<path d="M425.652 159.215C425.652 161.12 427.221 162.664 429.156 162.664C431.091 162.664 432.66 161.12 432.66 159.215C432.66 157.309 431.091 155.765 429.156 155.765C427.221 155.765 425.652 157.309 425.652 159.215Z" fill="#CB2027"/>
<path d="M478.619 195.106C478.619 203.662 471.544 210.631 462.777 210.631C454.009 210.631 446.934 203.662 446.934 195.106C446.934 186.55 454.009 179.582 462.777 179.582C471.544 179.582 478.619 186.55 478.619 195.106Z" fill="#CB2027" stroke="#25316D" stroke-width="2"/>
<path fill-rule="evenodd" clip-rule="evenodd" d="M477.568 195.136C477.568 203.207 470.954 209.749 462.795 209.749C454.636 209.749 448.022 203.207 448.022 195.136C448.022 187.065 454.636 180.522 462.795 180.522C470.954 180.522 477.568 187.065 477.568 195.136ZM460.268 191.701C460.268 192.512 460.933 193.176 461.745 193.176H463.222C465.66 193.176 467.654 195.167 467.654 197.6C467.654 199.813 466.029 201.582 463.961 201.951V203.5C463.961 204.311 463.296 204.974 462.484 204.974C461.671 204.974 461.007 204.311 461.007 203.5V201.951C458.938 201.582 457.313 199.813 457.313 197.6C457.313 196.789 457.978 196.125 458.791 196.125C459.603 196.125 460.268 196.789 460.268 197.6C460.268 198.411 460.933 199.075 461.745 199.075H463.222C464.035 199.075 464.7 198.411 464.7 197.6C464.7 196.789 464.035 196.125 463.222 196.125H461.745C459.308 196.125 457.313 194.134 457.313 191.701C457.313 189.489 458.938 187.719 461.007 187.35V185.802C461.007 184.991 461.671 184.327 462.484 184.327C463.296 184.327 463.961 184.991 463.961 185.802V187.35C466.029 187.719 467.654 189.489 467.654 191.701C467.654 192.512 466.989 193.176 466.177 193.176C465.364 193.176 464.7 192.512 464.7 191.701C464.7 190.89 464.035 190.226 463.222 190.226H461.745C460.933 190.226 460.268 190.89 460.268 191.701Z" fill="white"/>
<path d="M489.562 134.54L489.416 135.544C489.281 136.469 488.698 137.267 487.859 137.678C486.885 138.154 485.725 138.032 484.871 137.364L484.714 137.241C483.504 136.294 481.78 136.39 480.681 137.464C479.659 138.464 479.464 140.039 480.212 141.258L480.525 141.77C480.914 142.403 481.029 143.167 480.845 143.887C480.575 144.946 479.703 145.744 478.624 145.92L478.478 145.944C477.049 146.177 476 147.411 476 148.859C476 150.306 477.049 151.541 478.478 151.774L478.779 151.823C479.778 151.986 480.607 152.682 480.94 153.638C481.229 154.467 481.106 155.384 480.608 156.107L480.357 156.473C479.534 157.67 479.691 159.285 480.73 160.301C481.8 161.348 483.481 161.441 484.66 160.518L484.82 160.393C485.717 159.691 486.917 159.515 487.977 159.93L488.302 160.057C489.314 160.453 490.045 161.351 490.227 162.422L490.297 162.831C490.511 164.084 491.596 165 492.867 165C494.137 165 495.223 164.084 495.436 162.831L495.506 162.422C495.688 161.351 496.419 160.453 497.431 160.057L497.947 159.856C498.872 159.494 499.923 159.708 500.634 160.402C501.615 161.363 503.185 161.363 504.166 160.402L504.295 160.277C505.298 159.296 505.386 157.711 504.498 156.625L504.289 156.37C503.577 155.499 503.399 154.308 503.825 153.266L503.93 153.008C504.346 151.99 505.262 151.262 506.347 151.085L506.876 150.998C508.101 150.799 509 149.741 509 148.5C509 147.259 508.101 146.201 506.876 146.002L506.571 145.952C505.384 145.758 504.441 144.852 504.2 143.674L504.091 143.14C503.945 142.425 504.014 141.683 504.29 141.007L504.7 140.004C505.083 139.069 504.861 137.994 504.138 137.287C503.172 136.342 501.611 136.359 500.645 137.304C499.935 137.999 498.872 138.224 497.947 137.862L497.536 137.701C496.463 137.281 495.697 136.318 495.531 135.177L495.438 134.54C495.225 133.081 493.974 132 492.5 132C491.026 132 489.775 133.081 489.562 134.54Z" fill="white" stroke="#25316D" stroke-width="2"/>
<circle cx="492.5" cy="148.5" r="6.5" stroke="#25316D" stroke-width="2"/>
<path d="M45 260.103H295" stroke="#25316D" stroke-width="2" stroke-linecap="round" stroke-linejoin="round"/>
<path d="M94.6253 277.609L94.7693 277.504L94.8684 277.356C95.6426 276.194 97.0401 275.501 98.9783 275.287C100.912 275.073 103.247 275.359 105.646 276.019C108.036 276.677 110.434 277.69 112.477 278.882C114.535 280.082 116.164 281.421 117.087 282.697C121.002 288.108 120.294 294.987 115.957 298.152C114.96 298.879 113.342 299.332 111.281 299.446C109.246 299.558 106.897 299.332 104.549 298.819C102.203 298.306 99.8924 297.513 97.9306 296.511C95.9555 295.503 94.4045 294.32 93.4956 293.064C89.5809 287.653 90.2886 280.774 94.6253 277.609Z" fill="white" stroke="#25316D" stroke-width="2"/>
<path d="M117.507 296.346C116.254 294.936 113.559 292.116 112.807 292.116" stroke="#25316D" stroke-width="2"/>
<path d="M177.5 279.5C183.5 293 193 321.037 169 318.5C155.507 317.074 158.795 308.54 162 306.5C167.5 303 169.854 305.358 172 309C175.626 315.153 169.775 323.065 155.5 320.5C132.504 316.368 143 311.5 133.5 304C130.34 301.505 122.761 299.64 118.5 297.5" stroke="#303030" stroke-width="2" stroke-linecap="round"/>
<path d="M88.5065 289.051L88.5064 289.051L88.5064 289.05L88.3161 288.752L87.9812 288.64L87.981 288.64L87.981 288.64L87.9807 288.64L87.9781 288.639L87.9632 288.634C87.9493 288.629 87.9274 288.622 87.8981 288.612C87.8395 288.591 87.7511 288.559 87.6371 288.516C87.4088 288.431 87.0783 288.302 86.6774 288.132C85.8734 287.789 84.797 287.283 83.6979 286.625C82.5946 285.965 81.4979 285.169 80.6317 284.257C79.7641 283.343 79.1728 282.36 78.9839 281.321L78.9702 281.246L78.9457 281.175L78.9457 281.175L78.9455 281.175L78.9453 281.174L78.9443 281.171L78.9364 281.147C78.9289 281.124 78.9173 281.088 78.9023 281.038C78.8723 280.94 78.8289 280.791 78.779 280.599C78.679 280.214 78.5535 279.659 78.4555 278.99C78.2581 277.643 78.1794 275.884 78.6072 274.141C79.0305 272.417 79.946 270.713 81.754 269.404C83.5509 268.102 86.3197 267.125 90.5695 267.004C90.5887 267.011 90.6097 267.018 90.6323 267.025C90.7804 267.075 91.0006 267.151 91.2838 267.253C91.8503 267.455 92.6686 267.761 93.6673 268.167C95.6663 268.981 98.3799 270.196 101.241 271.805C106.988 275.037 113.112 279.735 115.464 285.768C115.459 285.8 115.448 285.858 115.421 285.947C115.356 286.162 115.235 286.438 115.074 286.734C114.916 287.025 114.734 287.307 114.563 287.532C114.478 287.645 114.402 287.735 114.338 287.803C114.27 287.875 114.237 287.898 114.241 287.896L114.235 287.899C113.945 288.073 113.559 288.004 113.345 287.725C112.37 286.446 110.529 284.606 108.458 282.828C106.38 281.044 103.996 279.259 101.912 278.122L100.784 279.756C100.781 279.759 100.781 279.759 100.781 279.759L100.782 279.759L100.783 279.76L100.793 279.769C100.803 279.778 100.82 279.793 100.842 279.813C100.887 279.853 100.955 279.915 101.042 279.998C101.217 280.163 101.469 280.411 101.767 280.731C102.366 281.374 103.145 282.299 103.869 283.433C105.294 285.664 106.429 288.574 105.751 291.685C105.316 292.137 104.727 292.461 104.213 292.685L99.5164 282.036L97.6864 282.843L102.403 293.537C101.951 293.789 101.342 294.114 100.687 294.418C100.016 294.731 99.3248 295.009 98.7216 295.173C98.439 295.249 98.2135 295.29 98.0392 295.308L94.847 284.041L92.9227 284.586L96.1311 295.91C96.0538 295.969 95.9668 296.031 95.8714 296.091C95.4513 296.355 94.9477 296.544 94.4152 296.482C94.4128 296.478 94.311 296.441 94.0924 296.27C93.8527 296.083 93.5616 295.806 93.2301 295.45C92.5693 294.74 91.8253 293.798 91.1173 292.84C90.4128 291.886 89.7593 290.938 89.281 290.227C89.0422 289.871 88.8478 289.576 88.7134 289.37C88.6462 289.267 88.594 289.187 88.5589 289.132L88.5192 289.07L88.5093 289.055L88.507 289.051L88.5065 289.051Z" fill="white" stroke="#25316D" stroke-width="2"/>
<path fill-rule="evenodd" clip-rule="evenodd" d="M106.204 148.524C141.83 177.116 100.466 224.121 100.466 224.121C100.466 224.121 97.5 239.331 97.5 242.5C97.5 256 102.696 267.314 102.696 267.314C102.696 267.314 85.3336 275.044 80.954 284.116C80.7456 284.548 79.5439 285.526 79.0736 285.526C79.0736 285.526 72.8564 265.724 71 259.5C63.0092 232.707 65.2117 216.13 65.2117 216.13C71.3223 202.028 74.6364 193.397 81.1936 178.996C87.1592 165.885 98.3245 157.601 106.204 148.524Z" fill="#58B9FD"/>
<path fill-rule="evenodd" clip-rule="evenodd" d="M241.204 25.5007C239.215 25.5007 237.601 27.1037 237.601 29.112C237.601 31.1008 239.215 32.7228 241.204 32.7228C243.189 32.7228 244.802 31.1008 244.802 29.112C244.803 28.6373 244.71 28.1671 244.53 27.7285C244.349 27.2898 244.084 26.8913 243.75 26.5558C243.415 26.2202 243.018 25.9543 242.581 25.7733C242.144 25.5922 241.676 25.4996 241.204 25.5007ZM241.204 26.698C242.527 26.698 243.603 27.7795 243.603 29.112C243.603 30.4441 242.527 31.5256 241.204 31.5256C239.88 31.5256 238.804 30.4441 238.804 29.112C238.804 27.7795 239.88 26.698 241.204 26.698Z" fill="#25316D"/>
<path fill-rule="evenodd" clip-rule="evenodd" d="M155.525 122.828C155.525 122.828 160.448 118.767 162.935 119.425L163.115 122.663C163.115 122.663 170.491 127.767 180.512 127.932C190.539 128.152 198.299 123.322 199.954 119.425C199.954 119.425 205.85 120.741 206.09 124.693C206.09 124.693 237.237 134.295 245.114 139.676C252.988 144.996 257.048 148.509 258.848 157.73C260.639 166.893 267.13 196.525 268.61 220.341C252.764 215.29 239.652 215.183 223.457 215.183C185.123 169.685 158.64 224.872 123.413 259.58C123.413 259.58 134.5 195.357 130.571 195.85C126.648 196.289 72.6826 217.267 72.6826 217.267C72.6826 217.267 71.7483 202.439 72.6826 198.268C73.6169 194.097 91.8511 149.167 96.0202 143.077C100.189 136.93 107.566 132.046 120.702 129.303C133.843 126.561 155.525 122.828 155.525 122.828Z" fill="#58B9FD"/>
<path d="M85.5001 167C87.5001 163.5 88.3418 160.193 89.5001 157C90.9674 152.9 93.1632 146.877 96.0005 143.5" stroke="#25316D" stroke-width="2" stroke-miterlimit="1.5" stroke-linecap="round" stroke-linejoin="round"/>
<path d="M131.86 174.749C134.899 189.083 134.443 205.364 129.774 219.305M141.362 172.735C143.245 179.165 143.499 185.841 143.477 192.502C143.484 201.041 142.676 209.701 139.767 217.795" stroke="#25316D" stroke-width="2" stroke-miterlimit="1.5" stroke-linecap="round" stroke-linejoin="round"/>
<path d="M155.795 126.874C158.516 131.099 163.177 133.68 167.734 135.436C178.974 139.716 194.76 139.223 202.814 129.124M199.874 119.411C200.547 119.411 201.224 119.521 201.869 119.686C204.164 120.453 205.328 122.321 205.896 124.513M149.528 128.191C151.276 130.606 153.183 133.075 155.402 135.051C158.309 137.632 161.838 139.55 165.477 140.868" stroke="#25316D" stroke-width="2" stroke-miterlimit="1.5" stroke-linecap="round" stroke-linejoin="round"/>
<path d="M162.92 119.77C160.444 119.825 157.27 120.922 155.931 123.171" stroke="#25316D" stroke-width="2" stroke-miterlimit="1.5" stroke-linecap="round" stroke-linejoin="round"/>
<path d="M68.9724 218.01C70.8525 226.471 81.1916 226.505 85.4241 228.351C90.0472 230.402 95.887 222.029 100 225M75.553 267.366C80.7235 257.965 84.3939 254.691 97.1752 253.264" stroke="#25316D" stroke-width="2" stroke-miterlimit="1.5" stroke-linecap="round" stroke-linejoin="round"/>
<path d="M199.46 100.597L161.636 91.1965L162.576 122.22C162.576 122.22 173.585 127.956 181.378 127.86C189.605 127.759 199.46 122.491 199.46 122.491L199.46 100.597Z" fill="white"/>
<path d="M157.661 72.6594C157.661 92.3856 174.67 110.434 189.074 110.434C209.064 96.2216 213.062 91.1726 213.062 74.9034C221.211 62.6511 211.978 29.1318 184.993 29.1318C149.485 29.1318 151.616 61.9379 157.661 72.6594Z" fill="white"/>
<path d="M190.923 66.9643C190.902 70.3119 191.29 73.549 192.448 76.6767C192.732 77.4998 193.038 78.2686 193.426 78.9823C193.453 79.037 193.82 79.6403 193.803 79.6403C193.552 79.9696 192.628 79.9692 192.278 79.9692C190.787 80.079 189.295 79.5852 187.896 79.0914M181.946 64.221C179.094 62.6295 175.668 62.6295 172.952 64.4953M206.311 65.3731C203.256 63.7269 200.021 63.6718 196.814 64.8242M192.497 91.3289C188.415 91.4934 184.416 90.7254 181.044 88.311M163.111 64.825C163.739 71.0807 164.237 77.1176 164.767 83.3733M171.87 55.9904C170.236 59.9412 166.821 62.7403 162.876 64.167M155.875 58.3718C161.29 50.4151 166.832 36.1547 176.471 33.411C181.41 32.039 186.581 29.7339 187.898 35.5505C188.116 36.5385 203.143 50.9575 211.977 54.0927" stroke="#25316D" stroke-width="2" stroke-miterlimit="1.5" stroke-linecap="round" stroke-linejoin="round"/>
<path d="M219.461 52.2822C219.406 62.4341 209.315 56.923 201.376 56.4839C199.715 56.3741 198.081 56.0992 196.436 55.8249M193.42 58.24C187.306 59.6667 179.53 59.0638 174.913 54.2348M159.406 72.8922C159.406 72.8922 160.93 87.7625 161.329 91.7133C161.392 92.3125 161.654 92.8729 162.072 93.3053C168.58 100.329 176.476 105.103 185.71 107.792C186.327 107.957 186.989 107.957 187.59 107.738C194.556 105.104 201.217 101.097 207.518 95.4453C208.053 94.9515 208.386 94.2929 208.447 93.5795C208.949 87.5433 211.293 59.283 211.293 59.283" stroke="#25316D" stroke-width="2" stroke-miterlimit="1.5" stroke-linecap="round" stroke-linejoin="round"/>
<path d="M199.64 101.591L199.104 122.336C199.104 122.336 180.143 134.296 163.767 122.336M162.106 94.019L162.412 118.822" stroke="#25316D" stroke-width="2" stroke-miterlimit="1.5" stroke-linecap="round" stroke-linejoin="round"/>
<path d="M200.941 71.5475C200.722 71.5507 200.504 71.5101 200.301 71.428C200.097 71.3459 199.912 71.2239 199.755 71.0693C199.599 70.9146 199.475 70.7303 199.39 70.5271C199.306 70.3238 199.262 70.1057 199.262 69.8853C199.262 69.665 199.306 69.4469 199.391 69.2437C199.475 69.0404 199.599 68.8561 199.756 68.7015C199.912 68.5469 200.097 68.425 200.301 68.343C200.505 68.2609 200.722 68.2203 200.942 68.2236C201.376 68.2301 201.791 68.4081 202.096 68.7191C202.401 69.0301 202.572 69.4491 202.572 69.8857C202.572 70.3223 202.401 70.7413 202.096 71.0523C201.791 71.3632 201.376 71.5411 200.941 71.5475ZM177.995 71.5475C177.556 71.5475 177.135 71.3723 176.825 71.0606C176.515 70.7489 176.34 70.326 176.34 69.8852C176.34 69.4443 176.515 69.0215 176.825 68.7098C177.135 68.398 177.556 68.2229 177.995 68.2229C178.43 68.2293 178.845 68.4073 179.15 68.7183C179.455 69.0294 179.627 69.4485 179.627 69.8852C179.627 70.3218 179.455 70.741 179.15 71.052C178.845 71.3631 178.43 71.541 177.995 71.5475Z" fill="#25316D"/>
<path fill-rule="evenodd" clip-rule="evenodd" d="M166.371 98.642C166.371 98.642 176.693 111.866 186.179 112.579C194.255 113.238 199.287 106.817 199.287 106.817V101.989C199.287 101.989 187.987 108.409 186.179 107.915C184.375 107.366 166.371 98.642 166.371 98.642Z" fill="#25316D"/>
<path d="M156.166 60.1872L146.962 61.1861C144.216 61.484 142.23 63.9512 142.526 66.6968L145.036 90.0314C145.332 92.7769 147.797 94.7612 150.542 94.4633L159.746 93.4644L156.166 60.1872Z" fill="white" stroke="#25316D" stroke-width="2"/>
<path d="M213.732 60.1585L222.963 60.8644C225.716 61.0749 227.779 63.4778 227.57 66.2313L225.796 89.6343C225.587 92.3878 223.186 94.4493 220.433 94.2387L211.201 93.5328L213.732 60.1585Z" fill="white" stroke="#25316D" stroke-width="2"/>
<mask id="path-48-inside-1_1802_14032" fill="white">
<path d="M219.28 62.19C221.473 62.3369 223.397 60.683 223.317 58.4865C223.17 54.4629 222.347 50.4788 220.871 46.6869C218.912 41.6504 215.845 37.0687 211.877 33.2468C207.908 29.4249 203.128 26.4506 197.855 24.522C192.583 22.5934 186.938 21.7547 181.298 22.0619C175.657 22.3691 170.15 23.815 165.144 26.3034C160.137 28.7918 155.746 32.2655 152.263 36.4933C148.779 40.721 146.283 45.6056 144.942 50.8219C143.928 54.7648 143.59 58.8287 143.935 62.8575C144.12 65.0301 146.201 66.439 148.348 66.0575L148.431 66.0428C150.634 65.6513 152.058 63.525 151.942 61.2901C151.79 58.3925 152.08 55.4819 152.809 52.6499C153.877 48.4959 155.865 44.606 158.639 41.2392C161.413 37.8724 164.91 35.1061 168.897 33.1244C172.884 31.1428 177.269 29.9913 181.761 29.7467C186.253 29.5021 190.748 30.1699 194.947 31.7058C199.146 33.2416 202.952 35.6102 206.113 38.6538C209.273 41.6974 211.715 45.3461 213.276 49.3569C214.345 52.1048 214.984 54.9794 215.178 57.889C215.326 60.1043 216.968 62.0351 219.183 62.1835L219.28 62.19Z"/>
</mask>
<path d="M219.28 62.19C221.473 62.3369 223.397 60.683 223.317 58.4865C223.17 54.4629 222.347 50.4788 220.871 46.6869C218.912 41.6504 215.845 37.0687 211.877 33.2468C207.908 29.4249 203.128 26.4506 197.855 24.522C192.583 22.5934 186.938 21.7547 181.298 22.0619C175.657 22.3691 170.15 23.815 165.144 26.3034C160.137 28.7918 155.746 32.2655 152.263 36.4933C148.779 40.721 146.283 45.6056 144.942 50.8219C143.928 54.7648 143.59 58.8287 143.935 62.8575C144.12 65.0301 146.201 66.439 148.348 66.0575L148.431 66.0428C150.634 65.6513 152.058 63.525 151.942 61.2901C151.79 58.3925 152.08 55.4819 152.809 52.6499C153.877 48.4959 155.865 44.606 158.639 41.2392C161.413 37.8724 164.91 35.1061 168.897 33.1244C172.884 31.1428 177.269 29.9913 181.761 29.7467C186.253 29.5021 190.748 30.1699 194.947 31.7058C199.146 33.2416 202.952 35.6102 206.113 38.6538C209.273 41.6974 211.715 45.3461 213.276 49.3569C214.345 52.1048 214.984 54.9794 215.178 57.889C215.326 60.1043 216.968 62.0351 219.183 62.1835L219.28 62.19Z" fill="white" stroke="#25316D" stroke-width="4" mask="url(#path-48-inside-1_1802_14032)"/>
<path fill-rule="evenodd" clip-rule="evenodd" d="M249.766 211.574L249.418 214.644C249.418 214.644 264.129 233.296 274.051 234.649C283.991 236.02 290.028 224.281 293.932 214.644C297.836 205.01 300.622 194.332 297.933 191.802C297.933 191.802 299.373 184.889 297.933 184.251H278.59L254.208 152.892L249.611 148.567C249.611 148.567 247.765 144.914 243.459 140.705C237.883 154.05 233.131 174.828 234.4 206.227L247.746 209.545C248.036 209.778 248.783 210.649 249.766 211.574Z" fill="#58B9FD"/>
<mask id="path-50-inside-2_1802_14032" fill="white">
<path d="M256.549 174.174C258.503 174.477 260.497 174.393 262.418 173.925C264.339 173.458 266.149 172.616 267.745 171.449C269.341 170.282 270.691 168.812 271.719 167.123C272.747 165.434 273.432 163.559 273.735 161.605C274.038 159.651 273.954 157.657 273.486 155.736C273.018 153.815 272.177 152.005 271.01 150.409C269.843 148.813 268.373 147.463 266.684 146.435C264.994 145.407 263.12 144.722 261.166 144.419L259.795 153.252C260.589 153.375 261.351 153.653 262.037 154.071C262.723 154.488 263.321 155.037 263.795 155.685C264.269 156.334 264.611 157.069 264.801 157.85C264.991 158.63 265.025 159.441 264.902 160.235C264.779 161.028 264.501 161.79 264.083 162.476C263.666 163.163 263.117 163.76 262.468 164.234C261.82 164.709 261.085 165.05 260.304 165.24C259.523 165.43 258.713 165.465 257.919 165.342L256.549 174.174Z"/>
</mask>
<path d="M256.549 174.174C258.503 174.477 260.497 174.393 262.418 173.925C264.339 173.458 266.149 172.616 267.745 171.449C269.341 170.282 270.691 168.812 271.719 167.123C272.747 165.434 273.432 163.559 273.735 161.605C274.038 159.651 273.954 157.657 273.486 155.736C273.018 153.815 272.177 152.005 271.01 150.409C269.843 148.813 268.373 147.463 266.684 146.435C264.994 145.407 263.12 144.722 261.166 144.419L259.795 153.252C260.589 153.375 261.351 153.653 262.037 154.071C262.723 154.488 263.321 155.037 263.795 155.685C264.269 156.334 264.611 157.069 264.801 157.85C264.991 158.63 265.025 159.441 264.902 160.235C264.779 161.028 264.501 161.79 264.083 162.476C263.666 163.163 263.117 163.76 262.468 164.234C261.82 164.709 261.085 165.05 260.304 165.24C259.523 165.43 258.713 165.465 257.919 165.342L256.549 174.174Z" fill="white" stroke="#25316D" stroke-width="4" mask="url(#path-50-inside-2_1802_14032)"/>
<path fill-rule="evenodd" clip-rule="evenodd" d="M264.197 143.735C264.324 142.888 264.077 142.025 263.521 141.374C263.245 141.054 262.905 140.798 262.522 140.622C262.139 140.446 261.723 140.354 261.302 140.354H229.284C228.432 140.354 227.621 140.728 227.065 141.374C226.79 141.696 226.587 142.073 226.471 142.481C226.354 142.888 226.326 143.316 226.389 143.735C227.553 151.481 230.392 170.429 231.415 177.251C231.631 178.684 232.862 179.744 234.31 179.744H256.312C257.763 179.744 258.995 178.684 259.207 177.251C260.222 170.409 263.045 151.481 264.197 143.735Z" fill="white"/>
<path d="M263.207 143.588L263.208 143.586C263.292 143.027 263.129 142.455 262.762 142.025C262.58 141.815 262.356 141.646 262.104 141.53C261.852 141.414 261.579 141.354 261.302 141.354C261.302 141.354 261.302 141.354 261.302 141.354C261.301 141.354 261.301 141.354 261.301 141.354L229.284 141.354C228.725 141.354 228.191 141.599 227.824 142.025C227.643 142.237 227.509 142.486 227.432 142.756C227.355 143.026 227.337 143.309 227.378 143.587L263.207 143.588ZM263.207 143.588C262.696 147.027 261.855 152.671 260.99 158.483C259.905 165.76 258.782 173.3 258.218 177.104L258.217 177.104M263.207 143.588L258.217 177.104M258.217 177.104C258.078 178.045 257.269 178.744 256.312 178.744H234.31C233.358 178.744 232.547 178.047 232.404 177.102L258.217 177.104ZM232.404 177.102C232.011 174.482 231.35 170.073 230.619 165.197C229.447 157.378 228.095 148.357 227.378 143.587L232.404 177.102Z" stroke="#25316D" stroke-width="2"/>
<path d="M250.038 93.0511C253.037 98.3442 252.876 103.945 250.038 109.217C245.402 117.836 235.952 124.414 238.09 134.235C238.461 135.909 239.211 137.558 240.29 139.089M259.24 108.793C260.69 112.428 260.151 116.118 257.982 119.479C254.444 124.974 248.079 128.901 248.643 135.486C248.742 136.606 249.077 137.732 249.629 138.796" stroke="#25316D" stroke-width="2" stroke-miterlimit="1.5" stroke-linecap="round" stroke-linejoin="round"/>
<path fill-rule="evenodd" clip-rule="evenodd" d="M276.587 187.55C276.587 187.55 287.959 190.488 297.115 183.804C297.115 183.804 299.409 169.709 295.331 158.277C293.88 154.22 280.762 151.461 280.762 151.461C280.762 151.461 276.691 152.677 275.151 154.375C275.151 154.375 267.246 154.783 264.104 154.954C263.392 154.993 262.835 155.572 262.835 156.287V161.04C262.835 161.638 263.237 162.178 263.818 162.334C264.905 162.641 266.511 163.084 266.511 163.084C266.511 163.084 265.617 167.817 267.625 169.305C267.625 169.305 266.105 173.106 268.012 174.924C268.012 174.924 266.379 178.997 268.709 181.045C271.042 183.093 275.856 183.536 276.587 187.55Z" fill="white"/>
<path d="M275.09 154.771L275.097 154.772C275.095 154.771 275.093 154.771 275.09 154.771Z" fill="#25316D" stroke="#25316D" stroke-width="2" stroke-linecap="round" stroke-linejoin="round"/>
<path d="M286.134 155.567L275.793 154.627H264.982C264.199 154.627 262.632 155.097 262.632 156.977C262.632 158.858 262.632 160.268 262.632 160.738C262.475 160.895 262.538 161.396 264.042 162.148C265.546 162.9 266.549 163.088 266.862 163.088L275.323 164.028M266.392 163.558C266.079 165.282 265.922 168.823 267.803 169.199C269.683 169.575 273.6 169.355 275.323 169.199M267.332 170.139C266.862 171.549 266.486 174.463 268.743 174.839C270.999 175.215 273.443 175.309 274.383 175.309M267.803 175.779C267.176 177.346 266.862 180.762 270.623 181.89C274.383 183.018 276.263 186.12 276.733 187.531C277.36 187.844 279.93 188.377 285.194 188.001C290.459 187.625 295.535 185.024 297.416 183.77C298.042 176.406 298.45 160.738 295.065 156.977C291.681 153.217 284.254 151.65 280.964 151.337C279.397 151.807 276.169 152.935 275.793 153.687M272.033 183.77C269.369 188.784 263.948 199.752 263.572 203.512C263.102 208.213 261.222 216.203 266.862 221.844M295.065 193.641C291.305 194.738 282.468 196.555 277.203 195.051" stroke="#25316D" stroke-width="2" stroke-linecap="round" stroke-linejoin="round"/>
<path d="M242.495 110.781C240.622 114.087 240.723 117.584 242.495 120.875C245.389 126.257 251.29 130.365 249.955 136.497C249.723 137.542 249.255 138.572 248.582 139.528M236.749 120.611C235.843 122.88 236.18 125.185 237.534 127.283C239.744 130.715 243.718 133.167 243.365 137.278C243.304 137.977 243.095 138.681 242.75 139.345" stroke="#25316D" stroke-width="0.004" stroke-miterlimit="1.5" stroke-linecap="round" stroke-linejoin="round"/>
<path d="M202.2 283.488L202.2 283.488L202.206 283.5C202.395 283.885 202.352 284.349 202.076 284.711C202.075 284.712 202.075 284.713 202.074 284.713L194.094 295.019H163.97L163.866 294.889L163.223 294.078C162.678 293.392 161.92 292.436 161.068 291.364C159.365 289.218 157.287 286.601 155.788 284.718L155.785 284.714C155.52 284.384 155.458 283.908 155.653 283.492C155.748 283.298 155.894 283.135 156.075 283.021C156.257 282.906 156.467 282.845 156.681 282.843C156.682 282.843 156.683 282.843 156.683 282.843L201.181 282.843H201.183C201.395 282.843 201.603 282.903 201.783 283.017C201.963 283.131 202.108 283.294 202.2 283.488ZM259.569 193.025L259.568 193.027C256.999 207.635 248.517 255.874 246.323 268.361C246.105 269.597 245.033 270.495 243.787 270.495H114.441C113.212 270.495 112.146 269.613 111.91 268.388C110.759 262.364 107.984 247.855 105.113 232.848C102.081 217.004 98.9442 200.605 97.5009 193.052L97.5007 193.051C97.3579 192.307 97.5532 191.528 98.0469 190.917C98.5413 190.325 99.2724 189.977 100.032 189.977L257.032 189.977L257.033 189.977C257.409 189.976 257.779 190.058 258.12 190.217C258.46 190.377 258.762 190.609 259.003 190.899L259.004 190.9C259.495 191.489 259.702 192.274 259.569 193.025Z" fill="white" stroke="#25316D" stroke-width="2"/>
<path d="M179.091 227.496C187.24 227.496 193.858 234.136 193.858 242.323V295.024H164.323V242.323C164.323 234.136 170.939 227.496 179.091 227.496Z" fill="white" stroke="#25316D" stroke-width="2"/>
<path fill-rule="evenodd" clip-rule="evenodd" d="M185.87 242.265C185.87 238.504 182.834 235.457 179.091 235.457C175.348 235.457 172.314 238.504 172.314 242.265V254.44C172.314 258.194 175.348 261.24 179.091 261.24C182.834 261.24 185.87 258.194 185.87 254.44V242.265Z" fill="#58B9FD"/>
<path d="M117 267.011L103.463 197.382C103.223 196.147 104.169 195 105.426 195H222" stroke="#25316D" stroke-width="2"/>
<path d="M222.332 249.983C222.692 249.983 222.986 250.274 222.986 250.639V256.876C222.986 257.242 222.692 257.533 222.332 257.533H219.875C219.511 257.533 219.221 257.242 219.221 256.876V250.639C219.221 250.274 219.511 249.983 219.875 249.983H222.332Z" fill="#686868"/>
<path d="M231.646 249.983C232.005 249.983 232.3 250.274 232.3 250.639V256.876C232.3 257.242 232.005 257.533 231.646 257.533H229.188C228.825 257.533 228.535 257.242 228.535 256.876V250.639C228.535 250.274 228.825 249.983 229.188 249.983H231.646Z" fill="#686868"/>
</svg>
