<svg width="64" height="64" viewBox="0 0 64 64" fill="none" xmlns="http://www.w3.org/2000/svg">
<path d="M12.4935 6.95423C11.193 7.60124 8.50357 9.3588 8.15039 11.2129" stroke="#CB2027" stroke-width="2" stroke-linecap="round" stroke-linejoin="round"/>
<path d="M57.6572 10.9548C57.2995 9.54692 56.1498 6.54693 54.4121 5.81006" stroke="#CB2027" stroke-width="2" stroke-linecap="round" stroke-linejoin="round"/>
<path d="M14.4995 35.5L6.99948 42.5C6.19948 42.5 6.33281 43.8333 6.49948 44.5C6.99948 44.8333 8.09948 45.7 8.49948 46.5C8.99948 47.5 10.9995 49 12.4995 50C13.9995 51 15.4995 51.5 16.9995 53.5C18.1995 55.1 20.8328 56.5 21.9995 57L30.4995 48L33.4995 46C36.4995 49.3333 42.6995 56.2 43.4995 57C44.4995 58 47.4995 54 49.9995 53.5C52.4995 53 51.4995 51.5 53.4995 50C55.4995 48.5 53.9995 46.5 55.4995 47C56.6995 47.4 57.6661 44.1667 57.9995 42.5L50.9995 35.5L50.4995 33.5L56.9995 26L55.4995 23L52.4995 22L53.9995 19L52.4995 16H48.9995L49.9995 14L49.4995 11.5L47.4995 9.5L43.9995 10.5V9.5L42.4995 7L40.4995 6L36.9995 7.5L34.9995 6L32.4995 5.5L27.4995 9.5L26.4995 7.5L22.9995 7L19.9995 10.5L15.4995 12V16L10.9995 19L11.9995 23L8.49948 24.5L7.99948 28L14.4995 34V35.5Z" fill="white"/>
<path d="M49.5 50.5C47.5 48.5 46.4496 46.7369 44.7119 46" stroke="#CB2027" stroke-width="2" stroke-linecap="round" stroke-linejoin="round"/>
<path d="M52.3633 48.5C50.3633 46.5 49.5 46 48.5 44.5" stroke="#CB2027" stroke-width="2" stroke-linecap="round" stroke-linejoin="round"/>
<path d="M22.3301 56.7549L32.4823 45.9167C33.8542 44.8192 35.9121 42.8299 39.1361 41.8695C41.8322 41.0664 43.4805 40.086 43.5948 39.9488M45.9271 38.0282L56.0107 27.9446C56.9482 26.8927 57.1083 24.7891 56.0107 23.4858C54.2611 21.4081 52.3065 22.2511 51.0032 23.2114C52.3065 21.9081 55.0504 19.6444 53.1983 17.0378C50.7254 13.5573 47.3676 17.3122 46.6131 18.0667C47.5734 17.1064 52.1008 13.6301 49.3569 11.0013C45.8585 7.64965 43.3205 11.7559 42.0171 13.1278C42.9295 12.1675 45.0354 8.87483 43.0461 7.15993C41.2963 5.65147 39.0688 6.266 37.7642 7.64965M37.7642 7.64965C37.5856 7.839 37.4244 8.04277 37.284 8.25746C36.3511 9.68426 34.4258 11.6416 33.5798 12.4419C31.9564 13.7452 29.3269 15.5973 26.583 12.3047C26.2401 11.8931 26.7477 11.4266 28.2293 9.83522C29.711 8.24379 31.4076 6.56548 32.0707 5.92525C32.6195 5.51369 33.374 5.03351 35.0203 5.92525C36.5462 6.75175 37.6041 7.48641 37.7642 7.64965ZM50.3173 34.8727L58 42.4869M33.5798 46.3283L43.0461 56.3433M6.75879 42.4869L14.3729 35.7645L15.1275 34.8727" stroke="#25316D" stroke-width="2" stroke-linecap="round" stroke-linejoin="round"/>
<path d="M25.8966 17.1748L27.235 18.5491C28.5481 19.8974 28.5107 22.0574 27.1518 23.3595V23.3595C25.8006 24.6541 23.6558 24.6082 22.3612 23.257L15.7903 16.3989C14.4925 15.0444 14.5385 12.8942 15.8931 11.5964V11.5964C17.2506 10.2957 19.4066 10.3452 20.703 11.7069L23.4272 14.5681" stroke="#25316D" stroke-width="2" stroke-linecap="round" stroke-linejoin="round"/>
<rect x="9.76172" y="19.9883" width="6.80413" height="14.5968" rx="3.40206" transform="rotate(-43.7748 9.76172 19.9883)" stroke="#25316D" stroke-width="2"/>
<rect x="6.60742" y="26.5918" width="6.80413" height="12.2936" rx="3.40206" transform="rotate(-43.7748 6.60742 26.5918)" stroke="#25316D" stroke-width="2"/>
<path d="M28.1616 9.69791L26.5165 7.97895C25.2137 6.61758 23.0537 6.57076 21.6931 7.87439V7.87439C20.3383 9.17238 20.2864 11.3209 21.5769 12.6828L23.4285 14.6368M31.9498 13.6469L32.1919 13.8995C33.4928 15.2573 33.4467 17.4125 32.0889 18.7134V18.7134C30.7327 20.0129 28.5803 19.9685 27.2787 18.6143L25.8293 17.1063" stroke="#25316D" stroke-width="2" stroke-linecap="round" stroke-linejoin="round"/>
</svg>
