<svg width="64" height="64" viewBox="0 0 64 64" fill="none" xmlns="http://www.w3.org/2000/svg">
<path d="M9.00017 54.5001C8.20017 53.7001 7.33261 53.1667 7.49928 52.5L9.00017 51.5001C10.2005 50.3002 10.8334 48.3334 10.9997 47.5L11.9997 39.5L14.4997 33L19.4997 23.5C20.1664 20.8333 21.4997 15.4 21.4997 15C21.4997 14.4999 21.9997 12.5 23.4997 12C24.6997 11.6 25.9997 13.8333 26.4997 15L24.4997 30L24.9997 34.0001C25.1664 33.5001 25.6997 32.2001 26.4997 31.0001C27.4997 29.5001 28.9997 32.5001 28.9997 34.0001C28.9997 35.5001 28.4997 36.5001 27.9997 41.5001C27.4997 46.5001 24.9997 48.5001 23.4997 50.5001C21.9997 52.5001 20.9997 52.5001 19.4997 54.5001C18.2997 56.1001 14.6664 58.1668 12.9997 59.0001L12 59C11.6668 58.1667 9.80017 55.3001 9.00017 54.5001Z" fill="white"/>
<path d="M54.4445 54.5045C55.2623 53.7053 56.1492 53.1725 55.9788 52.5065L54.4445 51.5076C53.2174 50.3089 52.5705 48.3441 52.4005 47.5115L51.3782 39.5196L48.8226 33.0261L43.7114 23.5357C43.0299 20.8717 41.6669 15.4439 41.6669 15.0443C41.6669 14.5447 41.1557 12.5468 39.6224 12.0473C38.3957 11.6477 37.0667 13.8788 36.5556 15.0443L38.6001 30.0291L38.089 34.0252C37.9186 33.5257 37.3734 32.227 36.5556 31.0282C35.5334 29.5298 34 32.5267 34 34.0252C34 35.5237 34.5111 36.5227 35.0222 41.5177C35.5334 46.5126 38.089 48.5106 39.6224 50.5086C41.1557 52.5066 42.178 52.5066 43.7114 54.5045C44.9381 56.1029 48.6522 58.1675 50.356 59L51.3779 58.9999C51.7185 58.1674 53.6267 55.3037 54.4445 54.5045Z" fill="white"/>
<path d="M12.6019 58.6812C18.0737 56.1559 21.1137 51.8567 21.1137 51.8567C22.5099 50.6 24.9495 50.3103 26.0719 47.3157C27.3341 43.9483 29.0683 36.8025 29.0644 35.0355C29.1324 33.954 29.1089 32.1817 27.7556 31.7417C26.0638 31.1918 25.7698 31.0636 25 34C24.3841 36.3492 23.1254 38.4764 21.8627 39.7392M8.07653 51.7572C10.0762 51.1048 11.3973 48.3671 11.3973 48.3671L11.8497 40.5681C11.8975 38.0315 14.5 32.5 16.7403 28.9972C19.4053 24.8304 21.4418 18.2723 22.357 12.8565C22.6431 11.1636 26.0719 12.3794 26.3291 14.3114C26.8322 18.0897 24.2469 30.5683 24.2469 30.5683" stroke="#25316D" stroke-width="2" stroke-linecap="round" stroke-linejoin="round"/>
<path d="M50.7643 58.6812C45.2925 56.1559 42.2525 51.8567 42.2525 51.8567C40.8563 50.6 38.4168 50.3103 37.2943 47.3157C36.0322 43.9483 34.2979 36.8025 34.3018 35.0355C34.2338 33.954 34.2573 32.1817 35.6106 31.7417C37.3024 31.1918 37.5964 31.0636 38.3662 34C38.9821 36.3492 40.2408 38.4764 41.5035 39.7392M55.2897 51.7572C53.29 51.1048 51.9689 48.3671 51.9689 48.3671L51.5165 40.5681C51.4688 38.0315 48.8662 32.5 46.6259 28.9972C43.9609 24.8304 41.9245 18.2723 41.0092 12.8565C40.7231 11.1636 37.2943 12.3794 37.0371 14.3114C36.534 18.0897 39.1193 30.5683 39.1193 30.5683" stroke="#25316D" stroke-width="2" stroke-linecap="round" stroke-linejoin="round"/>
<path d="M25.5 8.5C25 7.33333 23.6 4.9 22 4.5" stroke="#CB2027" stroke-width="2" stroke-linecap="round" stroke-linejoin="round"/>
<path d="M38 8.5C38.5 7.33333 39.9 4.9 41.5 4.5" stroke="#CB2027" stroke-width="2" stroke-linecap="round" stroke-linejoin="round"/>
<path d="M31.5001 12.5C32.0001 11 31.9001 8.69999 31.5001 7.5C31 6 31 5 31.5001 4" stroke="#CB2027" stroke-width="2" stroke-linecap="round" stroke-linejoin="round"/>
</svg>
