<svg width="588" height="340" viewBox="0 0 588 340" fill="none" xmlns="http://www.w3.org/2000/svg">
<path d="M45 260.103H295" stroke="#25316D" stroke-width="2" stroke-linecap="round" stroke-linejoin="round"/>
<path d="M101.086 269.31L101.23 269.205L101.329 269.056C102.104 267.895 103.501 267.201 105.439 266.988C107.373 266.774 109.708 267.06 112.107 267.72C114.497 268.377 116.895 269.391 118.938 270.582C120.996 271.782 122.625 273.122 123.548 274.398C127.463 279.809 126.755 286.688 122.419 289.852C121.421 290.58 119.804 291.033 117.742 291.146C115.707 291.258 113.358 291.033 111.01 290.52C108.664 290.007 106.353 289.214 104.392 288.212C102.417 287.204 100.866 286.021 99.9566 284.764C96.0419 279.353 96.7496 272.474 101.086 269.31Z" fill="white" stroke="#25316D" stroke-width="2"/>
<path d="M123.968 288.047C122.715 286.637 120.02 283.816 119.268 283.816" stroke="#25316D" stroke-width="2"/>
<path d="M183.5 271.5C189.5 285 199 313.037 175 310.5C161.507 309.074 164.795 300.54 168 298.5C173.5 295 175.854 297.358 178 301C181.626 307.153 175.775 315.065 161.5 312.5C138.504 308.368 149 303.5 139.5 296C136.34 293.505 128.761 291.64 124.5 289.5" stroke="#303030" stroke-width="2" stroke-linecap="round"/>
<path d="M120.809 278.92L120.804 278.923C120.514 279.097 120.128 279.028 119.913 278.749C118.988 277.534 117.454 275.621 115.639 273.729C113.834 271.849 111.697 269.932 109.564 268.768L108.563 270.481C108.555 270.494 108.555 270.494 108.554 270.494L108.555 270.494L108.556 270.495L108.571 270.504C108.585 270.513 108.607 270.527 108.637 270.547C108.697 270.587 108.787 270.648 108.902 270.73C109.132 270.894 109.46 271.139 109.838 271.456C110.601 272.095 111.548 273.01 112.333 274.131C113.118 275.253 113.711 276.541 113.832 277.94C113.949 279.307 113.623 280.863 112.44 282.575C111.735 283.408 110.494 283.843 109.936 284.026L109.824 284.063L109.724 284.124L109.724 284.125L109.723 284.125L109.722 284.126L109.713 284.131L109.677 284.153C109.665 284.16 109.65 284.169 109.632 284.18C109.605 284.196 109.572 284.216 109.533 284.239C109.407 284.313 109.223 284.42 108.996 284.547C108.541 284.801 107.922 285.132 107.256 285.442C106.584 285.755 105.893 286.033 105.29 286.197C104.633 286.375 104.284 286.358 104.171 286.317L103.529 286.085L103.083 286.593L103.083 286.593L103.082 286.594C103.082 286.595 103.081 286.595 103.08 286.596C103.078 286.599 103.074 286.603 103.069 286.608C103.065 286.612 103.06 286.617 103.055 286.623C103.029 286.649 102.987 286.691 102.931 286.742C102.816 286.846 102.648 286.984 102.44 287.115C102.02 287.379 101.516 287.568 100.983 287.505C100.981 287.502 100.879 287.465 100.661 287.294C100.421 287.107 100.13 286.83 99.7983 286.474C99.1376 285.764 98.3935 284.822 97.6856 283.864C96.981 282.91 96.3275 281.962 95.8492 281.25C95.6104 280.895 95.416 280.6 95.2816 280.394C95.2144 280.291 95.1623 280.211 95.1271 280.156L95.0874 280.094L95.0775 280.079L95.0752 280.075L95.0747 280.075L95.0746 280.074L95.0746 280.074L94.8833 279.775L94.546 279.663L94.5459 279.663L94.5458 279.663L94.5451 279.663L94.5402 279.661L94.5181 279.654C94.4981 279.647 94.4674 279.637 94.4268 279.623C94.3455 279.595 94.2246 279.552 94.0694 279.496C93.7589 279.384 93.3118 279.218 92.7713 279.002C91.6884 278.569 90.2408 277.942 88.7702 277.16C87.2934 276.375 85.8288 275.452 84.6897 274.439C83.5385 273.414 82.8311 272.395 82.651 271.429L82.6487 271.414C82.6459 271.394 82.6414 271.361 82.636 271.317C82.6253 271.227 82.6109 271.091 82.5981 270.914C82.5724 270.559 82.5536 270.045 82.5833 269.424C82.6431 268.176 82.8973 266.529 83.6598 264.883C84.417 263.249 85.6814 261.601 87.797 260.33C89.8858 259.075 92.8601 258.153 97.0997 258.029C97.1068 258.032 97.1141 258.035 97.1216 258.038C97.2627 258.098 97.4724 258.187 97.7422 258.306C98.282 258.544 99.0619 258.9 100.014 259.367C101.921 260.302 104.512 261.681 107.252 263.452C112.775 267.025 118.718 272.081 121.057 278.191C121.152 278.438 121.067 278.744 120.809 278.92Z" fill="white" stroke="#25316D" stroke-width="2"/>
<path fill-rule="evenodd" clip-rule="evenodd" d="M113.5 148C131 187.5 99.0005 222.5 99.0005 222.5C99.0005 222.5 97.9907 229.121 97.5005 232C95.6671 242.769 100.5 256 100.5 256C100.5 256 95.5005 262 85.3045 271.186C85.0961 271.618 81.3045 273.186 80.3045 272.186C80.3045 272.186 80.3568 263.224 78.5005 257C70.5097 230.207 74.5005 215 74.5005 215C80.6111 200.899 89.4432 179.901 96.0005 165.5C101.966 152.389 105.621 157.078 113.5 148Z" fill="#58B9FD"/>
<path d="M91 177.5C93 174 94.8416 170.693 96 167.5C97.4673 163.4 101.664 157.478 104.501 154.1" stroke="#25316D" stroke-width="2" stroke-miterlimit="1.5" stroke-linecap="round" stroke-linejoin="round"/>
<path d="M131.859 174.749C134.899 189.083 134.443 205.364 129.773 219.305M141.362 172.735C143.244 179.165 143.499 185.841 143.477 192.502C143.484 201.041 142.675 209.701 139.766 217.795" stroke="#25316D" stroke-width="2" stroke-miterlimit="1.5" stroke-linecap="round" stroke-linejoin="round"/>
<path d="M82.4996 218C84.584 227.38 92.5865 219.09 97.9995 223M80.4997 258.5C83.9997 256.5 83.7184 251.926 96.4997 250.5" stroke="#25316D" stroke-width="2" stroke-miterlimit="1.5" stroke-linecap="round" stroke-linejoin="round"/>
<path d="M223.5 132C229.1 138.4 226.833 146.333 225 149.5C220.5 144 203 141 201 140C199.574 139.287 194.337 136.139 191.091 134.165C192.185 135.388 190.681 137.755 179 141C164.6 145 156 137.666 153.5 133.5L143 139L124 143.5C123.667 144.5 121.7 145.9 116.5 143.5C110 140.5 111.5 132 113 128.5C114.5 125 132 112.5 137.5 108C141.9 104.4 137.667 87.1664 135 78.9998C134.667 70.8331 138.8 52.1998 158 42.9998C182 31.4998 201.5 45.9998 202 46.4998C202.5 46.9998 202.5 48.9998 208 59.9998C212.053 68.1055 211.892 73.4396 211.19 75.5333C211.588 76.0972 212.42 77.6425 214 80.9998C218 89.4998 214 92.9998 210 97.4998C206 102 209 102.5 208 105C207 107.5 207 113.5 209 117.5C211 121.5 216.5 124 223.5 132Z" fill="white"/>
<path fill-rule="evenodd" clip-rule="evenodd" d="M181.934 146.275C181.505 146.525 181.075 146.834 180.732 147.198C178.7 149.271 179.987 152.444 180.846 154.75C181.047 155.36 181.275 155.973 181.505 156.575C181.791 157.289 182.105 157.994 182.42 158.696C183.164 160.319 183.966 162.998 186.284 162.585C188.347 162.213 187.145 159.792 186.486 158.761C184.826 156.239 183.508 153.331 183.022 150.337C182.792 148.927 182.908 147.265 184.366 146.588" fill="#DAE8F1"/>
<path fill-rule="evenodd" clip-rule="evenodd" d="M184.024 161.011C180.991 165.506 179.96 170.613 180.303 175.954C180.417 177.952 180.619 180.036 181.276 181.938C182.106 184.334 182.193 186.681 184.024 188.463C184.969 189.382 188.232 189.734 188.805 188.463C189.692 186.484 187.859 184.005 187.203 182.207C186.143 179.286 185.885 176.095 186.257 173.015C186.745 168.691 190.209 164.326 187.174 160.165" fill="#DAE8F1"/>
<path fill-rule="evenodd" clip-rule="evenodd" d="M227.814 151.541C227.814 151.541 216.204 141.4 193.988 139.09C193.988 139.09 192.871 135.365 190.123 134.355C190.123 134.355 184.998 141.772 173.776 142.407C162.527 143.044 157.001 136.661 154.11 134.033C154.11 134.033 152.164 134.42 150.789 135.768L149.902 136.574C149.902 136.574 127.173 142.086 120.359 144.62C113.546 147.15 112 148.759 112 148.759V197C112 197 118.692 217.429 120.359 231C122.074 244.954 122 260 122 260L162 264.5L184.597 189.362C184.597 189.362 179.988 182.439 179.988 175.729C179.96 169.015 182.764 163.224 183.938 160.393C183.938 160.393 179.016 152.031 179.846 148.145C180.676 144.256 186.086 146.587 188.72 148.442C191.325 150.294 195.474 154.497 195.474 154.497C195.474 154.497 203.061 150.329 211.666 151.946C220.26 153.563 224.665 155.418 224.665 155.418L227.814 151.541ZM256 189.362C256 189.362 250.117 170.017 235.97 158.292L234.922 163.173C234.922 163.173 238.449 167.333 238.298 173.498C238.146 179.664 236.274 184.865 231.874 189.362H256Z" fill="#58B9FD"/>
<path d="M185.771 47.396C186.717 47.9777 187.518 48.7018 188.234 49.5479C192.613 54.6551 190.237 62.2376 185.342 66.0024M172.459 49.5682C176.354 53.7073 176.925 60.8281 172.402 64.7373" stroke="#25316D" stroke-width="2" stroke-miterlimit="1.5" stroke-linecap="round" stroke-linejoin="round"/>
<path d="M202.26 66.6123C203.292 65.8272 204.178 64.9384 204.951 63.9072C208.586 58.9891 206.698 52.6473 203.062 48.2622C199.311 43.757 194.188 41.4058 188.519 40.3807C186.172 39.9576 182.853 39.7543 179.932 39.8316M208.387 60.478C211.944 64.8956 212.786 71.0503 210.886 76.3365M163.042 54.1056C161.897 57.3396 161.696 60.7749 162.355 64.137C163.071 67.9465 164.73 71.3472 164.56 75.3358C164.415 78.5372 163.042 81.3725 161.039 83.8112M178.958 78.0023C176.354 76.3568 173.348 75.9582 170.629 77.5772M199.97 78.7162C197.251 77.4307 193.901 76.969 191.182 78.5575M186.888 81.2057C185.428 84.9563 185.544 89.5712 186.831 93.3727C187.146 94.2981 187.547 95.2154 188.062 96.0513C188.176 96.273 188.806 96.8568 188.834 97.0846C188.863 97.1741 187.689 97.4568 187.547 97.4893C186.144 97.8534 184.712 98.1178 183.225 98.1015M186.774 107.832C183.166 108.656 178.586 107.846 176.783 104.181M208.273 104.757C207.614 106.589 207.185 108.464 207.099 110.407C206.755 119.602 215.418 123.544 221.166 128.979C225.274 132.859 227.371 138.119 226.842 143.749C226.676 145.535 226.31 147.312 225.549 148.95M203.863 116.031C204.321 119.104 205.295 122.031 207.384 124.388C210.339 127.683 214.486 129.402 216.699 133.415M217.93 135.754C218.44 136.669 218.853 137.67 219.081 138.695M160.923 41.5319C138.108 48.9639 134.758 67.975 135.932 83.5671C136.534 91.4485 140.484 99.8446 137.651 107.663C136.333 111.235 132.84 113.82 129.806 115.864C123.881 119.867 116.783 122.757 112.975 129.225M235.027 163.61C240.059 170.186 239.518 181.356 233.394 187.07M235.173 161.969C236.309 158.497 237.202 154.787 237.551 151.142C237.672 149.902 237.763 147.862 236.235 147.384C234.382 146.804 232.57 147.579 231.1 148.714C228.777 150.502 226.94 152.818 224.766 154.767M224.666 155.418C222.895 154.441 220.983 153.921 219.053 153.347C211.519 151.114 202.948 151.195 195.648 154.295M194.216 153.107C191.639 150.487 188.519 147.815 185.027 146.578C183.538 146.06 181.535 145.787 180.39 147.091C179.387 148.238 179.702 150.079 180.046 151.415C180.876 154.582 182.279 157.578 183.939 160.393M183.253 162.632C178.958 169.588 179.074 179.841 183.31 186.797M192.156 118.736C191.383 124.012 190.724 129.273 189.809 134.525M157.146 108.975C156.172 117.168 154.884 125.307 153.796 133.484M188.434 136.626C180.103 143.096 169.254 144.542 160.065 139.173C157.803 137.853 155.629 136.201 154.111 134.033" stroke="#25316D" stroke-width="2" stroke-miterlimit="1.5" stroke-linecap="round" stroke-linejoin="round"/>
<path d="M192.755 136.462C195.074 139.057 195.762 143.554 193.386 146.367C192.298 147.634 190.752 148.313 189.149 148.659M178.5 153.587C174.007 158.074 165.017 156.768 162.126 151.069M151.906 134.883C147.155 137.908 144.893 144.53 148.843 149.135C149.587 149.995 150.474 150.724 151.448 151.303C154.654 153.217 158.232 152.863 161.638 151.871M139.597 143.29C132.039 144.858 124.94 147.866 118.385 151.962M133.3 150.78C131.524 151.275 129.291 151.696 127.773 152.841" stroke="#25316D" stroke-width="2" stroke-miterlimit="1.5" stroke-linecap="round" stroke-linejoin="round"/>
<path d="M153.481 138.093C155.828 141.262 159.379 143.708 163.128 144.913C164.33 145.295 165.591 145.696 166.85 145.736M214.102 179.046C213.799 180.008 213.264 180.994 212.336 181.476C210.63 182.363 209.131 180.634 209.017 179.074M203.91 179.046C204.213 180.008 204.748 180.994 205.675 181.476C207.382 182.363 208.883 180.634 208.997 179.074M206.469 70.9487C206.469 83.2153 205.352 95.4901 203.349 107.771C203.09 109.239 202.374 110.592 201.315 111.619C195.16 117.41 188.175 120.493 180.56 121.581C179.989 121.659 179.417 121.612 178.872 121.447C170.944 119.008 163.701 114.723 157.146 108.684M208.157 78.6878C209.847 80.7482 210.457 83.3964 210.634 85.9957C210.799 88.4364 210.543 91.0073 209.273 93.1572C208.273 94.8535 206.727 96.1409 205.094 97.1965M206.841 74.6281C208.301 75.3013 209.703 76.1169 210.86 77.2824C213.404 79.8716 214.673 84.1082 214.879 87.6615" stroke="#25316D" stroke-width="2" stroke-miterlimit="1.5" stroke-linecap="round" stroke-linejoin="round"/>
<path d="M214.223 91.3163C212.589 96.0086 209.244 99.5436 204.348 100.746M154.883 77.6138C161.495 81.6186 163.299 91.2655 160.981 98.1584C160.322 100.119 159.435 102.041 158.003 103.561" stroke="#25316D" stroke-width="2" stroke-miterlimit="1.5" stroke-linecap="round" stroke-linejoin="round"/>
<path d="M149.989 77.3902C154.569 79.9143 157.661 85.827 157.862 91.0257M158.118 94.0928C157.919 98.1078 157.717 102.349 155.199 105.682M149.415 77.3211C143.891 79.772 141.342 85.4364 141.43 91.2779M154.827 106.083C148.241 105.835 142.632 100.858 141.745 94.2779M176.727 39.3721C163.014 46.3973 155.456 58.2245 155.199 75.7468" stroke="#25316D" stroke-width="2" stroke-miterlimit="1.5" stroke-linecap="round" stroke-linejoin="round"/>
<path d="M165.236 40.6638C153.27 47.811 148.517 59.2559 148.289 75.747M173.117 39C170.026 39.2197 167.622 40.0617 165.246 40.6617" stroke="#25316D" stroke-width="2" stroke-miterlimit="1.5" stroke-linecap="round" stroke-linejoin="round"/>
<path d="M195.668 87.6676C194.561 87.6676 193.664 86.7706 193.664 85.6641C193.664 84.5557 194.561 83.6587 195.668 83.6587C196.774 83.6587 197.671 84.5557 197.671 85.6641C197.671 86.7706 196.774 87.6676 195.668 87.6676ZM175.939 87.6676C174.832 87.6676 173.935 86.7706 173.935 85.6641C173.935 84.5557 174.832 83.6587 175.939 83.6587C177.045 83.6587 177.942 84.5557 177.942 85.6641C177.942 86.7706 177.045 87.6676 175.939 87.6676ZM223.763 174.404C222.445 174.404 221.377 173.337 221.377 172.019C221.377 170.701 222.445 169.631 223.763 169.631C225.081 169.631 226.15 170.701 226.15 172.019C226.15 173.337 225.081 174.404 223.763 174.404ZM196.321 174.404C195.003 174.404 193.935 173.337 193.935 172.019C193.935 170.701 195.003 169.631 196.321 169.631C197.639 169.631 198.707 170.701 198.707 172.019C198.707 173.337 197.639 174.404 196.321 174.404Z" fill="#25316D"/>
<path d="M178.974 121.49C182.786 121.988 192.115 118.433 192.115 118.433L191.743 122.342C185.794 125.72 178.974 126.052 178.974 126.052C167.505 122.401 160.006 111.534 160.006 111.534C163.197 113.663 175.193 120.987 178.974 121.49Z" fill="#25316D"/>
<path d="M113 138.212C113.933 140.505 116.089 143.081 118.668 143.53" stroke="#25316D" stroke-width="2" stroke-miterlimit="1.5" stroke-linecap="round" stroke-linejoin="round"/>
<path d="M215.198 283.488L215.198 283.488L215.204 283.5C215.393 283.885 215.35 284.349 215.074 284.711C215.073 284.712 215.073 284.713 215.072 284.713L207.092 295.019H176.968L176.864 294.889L176.221 294.078C175.676 293.392 174.918 292.436 174.066 291.364C172.363 289.218 170.285 286.601 168.787 284.718L168.783 284.714C168.518 284.384 168.456 283.908 168.651 283.492C168.746 283.298 168.892 283.135 169.073 283.021C169.255 282.906 169.465 282.845 169.68 282.843C169.68 282.843 169.681 282.843 169.681 282.843L214.179 282.843H214.181C214.393 282.843 214.601 282.903 214.781 283.017C214.962 283.131 215.106 283.294 215.198 283.488ZM272.567 193.025L272.566 193.027C269.997 207.635 261.515 255.874 259.321 268.361C259.103 269.597 258.031 270.495 256.785 270.495H127.439C126.21 270.495 125.144 269.613 124.908 268.388C123.757 262.364 120.982 247.856 118.111 232.85C115.08 217.005 111.942 200.605 110.499 193.052L110.499 193.051C110.356 192.307 110.551 191.528 111.045 190.917C111.539 190.325 112.27 189.977 113.03 189.977L270.03 189.977L270.032 189.977C270.407 189.976 270.777 190.058 271.118 190.217C271.458 190.377 271.76 190.609 272.001 190.899L272.002 190.9C272.493 191.489 272.7 192.274 272.567 193.025Z" fill="white" stroke="#25316D" stroke-width="2"/>
<path d="M192.09 227.496C200.239 227.496 206.857 234.137 206.857 242.324V295.024H177.322V242.324C177.322 234.136 183.937 227.496 192.09 227.496Z" fill="white" stroke="#25316D" stroke-width="2"/>
<path fill-rule="evenodd" clip-rule="evenodd" d="M198.868 242.265C198.868 238.504 195.832 235.457 192.089 235.457C188.346 235.457 185.312 238.504 185.312 242.265V254.44C185.312 258.194 188.346 261.24 192.089 261.24C195.832 261.24 198.868 258.194 198.868 254.44V242.265Z" fill="#58B9FD"/>
<path d="M129.998 267.011L116.461 197.382C116.221 196.147 117.167 195 118.424 195H234.998" stroke="#25316D" stroke-width="2"/>
<path d="M235.33 249.983C235.69 249.983 235.984 250.274 235.984 250.64V256.877C235.984 257.242 235.69 257.533 235.33 257.533H232.873C232.509 257.533 232.219 257.242 232.219 256.877V250.64C232.219 250.274 232.509 249.983 232.873 249.983H235.33Z" fill="#686868"/>
<path d="M244.644 249.983C245.003 249.983 245.298 250.274 245.298 250.64V256.877C245.298 257.242 245.003 257.533 244.644 257.533H242.187C241.823 257.533 241.533 257.242 241.533 256.877V250.64C241.533 250.274 241.823 249.983 242.187 249.983H244.644Z" fill="#686868"/>
<path d="M101.346 43C101.388 45.2331 101.536 47.5089 101.641 49.7422M101.599 57.3863V64M93 53.5215H97.9573M104.803 53.4785C106.531 53.3496 108.263 53.1771 110 53.2202" stroke="#25316D" stroke-width="2" stroke-miterlimit="1.5" stroke-linecap="round" stroke-linejoin="round"/>
<g clip-path="url(#clip0_952_21711)">
<path d="M371.5 237.5V89C378.7 93 386.5 94.3333 389.5 94.5C397.9 87.3 413.667 91.5 420.5 94.5C429.3 86.9 444.833 91.3333 451.5 94.5C464.7 88.5 471.333 90 473 91.5C479.4 96.7 492.333 92 498 89L493.5 124L498 219.5C498 219.5 536.914 216.461 525.502 229.5C532.5 249.5 514 254.5 514 254.5H405C379.8 260.1 372.167 245.5 371.5 237.5Z" fill="white"/>
<path d="M423.226 134.336H431.983M472.502 134.336H467.087M463.913 134.336H448.788M445.054 134.336H435.718" stroke="#25316D" stroke-width="2" stroke-linecap="round"/>
<path d="M418.426 148.153H421.9M472.502 148.153H456.444M453.456 148.153H440.199M434.971 148.153H423.954" stroke="#25316D" stroke-width="2" stroke-linecap="round"/>
<path d="M400.26 161.971H417.606M472.502 161.971H463.472M422.274 161.971H441.133M445.054 161.971H458.956" stroke="#25316D" stroke-width="2" stroke-linecap="round"/>
<path d="M400.216 175.789H424.141M472.502 175.789H459.805M451.402 175.789H444.307M429.929 175.789H439.079" stroke="#25316D" stroke-width="2" stroke-linecap="round"/>
<path d="M471.01 116.784V122.012L463.23 116.784L460.74 122.012L455.45 116.784L453.538 122.012L447.67 116.784L446.709 122.012M439.881 122.012L439.889 116.784L433.052 122.012L432.109 116.784L426.223 122.012L424.329 116.784L419.394 122.012" stroke="#25316D" stroke-width="2" stroke-linecap="round" stroke-linejoin="round"/>
<path d="M406.124 220.136H527.748" stroke="#25316D" stroke-width="2" stroke-linecap="round"/>
<path d="M371.699 237.347C371.699 246.852 379.405 254.558 388.91 254.558C398.415 254.558 406.121 246.852 406.121 237.347V220.136" stroke="#25316D" stroke-width="2"/>
<path d="M510.537 254.558C520.042 254.558 527.748 246.852 527.748 237.347V220.136" stroke="#25316D" stroke-width="2"/>
<path d="M526.893 231.502L526.814 220.601H523.927V239.409C523.782 250.245 512.654 253.838 512.654 253.838C512.654 253.838 514.817 253.438 517.882 252.157C521.99 250.441 524.894 246.245 526.194 243.331C527.493 240.418 526.893 231.502 526.893 231.502Z" fill="#DAE8F1"/>
<path d="M509.287 255.332H391.279C384.681 256.203 371.486 252.942 371.486 232.925C371.486 212.909 371.486 125.125 371.486 89.1494L381.293 93.0062C384.835 94.3994 388.769 94.4231 392.328 93.0728L397.237 91.2102C400.737 89.8825 404.601 89.8825 408.1 91.2102L413.109 93.1104C416.608 94.4381 420.472 94.4381 423.972 93.1104L428.98 91.2102C432.479 89.8825 436.344 89.8825 439.843 91.2102L444.852 93.1104C448.351 94.4381 452.215 94.4381 455.714 93.1104L460.723 91.2102C464.222 89.8825 468.087 89.8825 471.586 91.2102L476.594 93.1104C480.094 94.4381 483.958 94.4381 487.457 93.1104L497.897 89.1494C497.897 89.1494 493.416 114.544 493.416 124.813C493.416 141.545 497.461 193.651 497.897 220.228" stroke="#25316D" stroke-width="2"/>
<circle cx="2.29913" cy="2.29913" r="2.29913" transform="matrix(-1 0 0 1 468.076 196.239)" fill="#CB2027"/>
<path d="M465.832 203.448C468.623 203.448 470.886 201.185 470.886 198.394C470.886 195.603 468.623 193.34 465.832 193.34C463.041 193.34 460.778 195.603 460.778 198.394C460.778 201.185 463.041 203.448 465.832 203.448ZM465.832 203.448L462.764 208.357C462.42 208.909 461.566 208.629 461.615 207.98L461.739 206.337C461.777 205.836 461.237 205.499 460.803 205.752L459.381 206.584C458.819 206.913 458.193 206.268 458.538 205.716L461.488 200.978M465.832 203.448L468.899 208.357C469.244 208.909 470.098 208.629 470.049 207.98L469.925 206.337C469.887 205.836 470.427 205.499 470.861 205.752L472.283 206.584C472.845 206.913 473.471 206.268 473.126 205.716L470.176 200.978M464.147 198.394C464.147 199.325 464.902 200.079 465.832 200.079C466.762 200.079 467.517 199.325 467.517 198.394C467.517 197.464 466.762 196.71 465.832 196.71C464.902 196.71 464.147 197.464 464.147 198.394Z" stroke="#25316D" stroke-linecap="round" stroke-linejoin="round"/>
<path d="M448.146 194.681C449.49 195.413 450.517 196.773 451.055 198.18M451.533 199.92C451.843 202.243 450.952 204.557 449.246 206.158M446.877 194.163C444.552 193.33 441.673 193.636 439.741 195.246C438.817 196.014 438.144 197.106 437.761 198.235M437.358 199.476C437.153 200.947 437.33 202.567 437.991 203.927C439.703 207.472 444.149 209.406 448.643 206.732M448.893 198.498C447.37 197.916 445.963 197.039 444.422 196.5M444.34 196.49C443.065 197.113 441.121 197.737 439.885 198.434M448.925 198.688C448.922 200.558 448.175 202.45 447.002 203.887" stroke="#25316D" stroke-miterlimit="1.5" stroke-linecap="round" stroke-linejoin="round"/>
<path d="M446.041 200.715L444.548 202.046L442.271 199.453" stroke="#CB2027" stroke-miterlimit="1.5" stroke-linecap="round" stroke-linejoin="round"/>
<path d="M446.133 204.659C445.529 205.018 445.177 205.293 444.517 205.536M444.372 205.6C442.346 204.891 440.932 203.317 440.263 201.256C440.023 200.506 439.867 199.365 439.832 198.583" stroke="#25316D" stroke-miterlimit="1.5" stroke-linecap="round" stroke-linejoin="round"/>
<mask id="path-46-inside-1_952_21711" fill="white">
<rect width="14.1909" height="1.86722" rx="0.373444" transform="matrix(-1 0 0 1 430.68 206.785)"/>
</mask>
<rect width="14.1909" height="1.86722" rx="0.373444" transform="matrix(-1 0 0 1 430.68 206.785)" stroke="#25316D" stroke-width="1.86722" stroke-linecap="round" stroke-linejoin="round" mask="url(#path-46-inside-1_952_21711)"/>
<path d="M430.18 199.189V198.397L423.584 194.302L416.989 198.397V199.189H430.18Z" stroke="#25316D" stroke-linecap="round" stroke-linejoin="round"/>
<path d="M429.188 201.93V206.411" stroke="#25316D" stroke-linecap="round" stroke-linejoin="round"/>
<path d="M426.945 201.93V206.411" stroke="#25316D" stroke-linecap="round" stroke-linejoin="round"/>
<path d="M424.703 201.93V206.411" stroke="#25316D" stroke-linecap="round" stroke-linejoin="round"/>
<path d="M422.465 201.93V206.411" stroke="#25316D" stroke-linecap="round" stroke-linejoin="round"/>
<path d="M420.223 201.93V206.411" stroke="#25316D" stroke-linecap="round" stroke-linejoin="round"/>
<path d="M418.357 201.93V206.411" stroke="#25316D" stroke-linecap="round" stroke-linejoin="round"/>
<rect width="13.444" height="1.49378" rx="0.373444" transform="matrix(-1 0 0 1 430.307 200.436)" fill="#CB2027"/>
<circle cx="1.12033" cy="1.12033" r="1.12033" transform="matrix(-1 0 0 1 424.703 195.955)" fill="#CB2027"/>
<path d="M405.08 119.959C405.08 133.535 394.075 144.54 380.499 144.54C366.923 144.54 355.918 133.535 355.918 119.959C355.918 106.383 366.923 95.3779 380.499 95.3779C394.075 95.3779 405.08 106.383 405.08 119.959Z" fill="white" stroke="#25316D" stroke-width="2"/>
<path d="M380.805 111.903C380.694 111.559 380.207 111.559 380.095 111.903L378.061 118.164C378.011 118.318 377.867 118.422 377.705 118.422H371.122C370.76 118.422 370.61 118.885 370.903 119.097L376.229 122.967C376.36 123.062 376.414 123.231 376.364 123.385L374.33 129.646C374.218 129.99 374.612 130.276 374.905 130.063L380.231 126.194C380.362 126.099 380.539 126.099 380.67 126.194L385.996 130.063C386.288 130.276 386.682 129.99 386.57 129.646L384.536 123.385C384.486 123.231 384.541 123.062 384.672 122.967L389.998 119.097C390.29 118.885 390.14 118.422 389.778 118.422H383.195C383.033 118.422 382.89 118.318 382.84 118.164L380.805 111.903Z" fill="#58B9FD"/>
<path d="M372.027 108.542C371.915 108.198 371.428 108.198 371.317 108.542L370.917 109.771C370.867 109.925 370.724 110.029 370.562 110.029H369.269C368.908 110.029 368.757 110.492 369.05 110.705L370.096 111.464C370.227 111.56 370.281 111.728 370.231 111.882L369.832 113.111C369.72 113.455 370.114 113.741 370.407 113.529L371.452 112.769C371.583 112.674 371.76 112.674 371.891 112.769L372.937 113.529C373.23 113.741 373.623 113.455 373.512 113.111L373.112 111.882C373.062 111.728 373.117 111.56 373.248 111.464L374.294 110.705C374.586 110.492 374.436 110.029 374.074 110.029H372.782C372.62 110.029 372.476 109.925 372.426 109.771L372.027 108.542Z" fill="#58B9FD"/>
<path d="M389.207 108.542C389.095 108.198 388.608 108.198 388.496 108.542L388.097 109.771C388.047 109.925 387.904 110.029 387.742 110.029H386.449C386.087 110.029 385.937 110.492 386.23 110.705L387.275 111.464C387.406 111.56 387.461 111.728 387.411 111.882L387.012 113.111C386.9 113.455 387.294 113.741 387.586 113.529L388.632 112.769C388.763 112.674 388.94 112.674 389.071 112.769L390.117 113.529C390.409 113.741 390.803 113.455 390.691 113.111L390.292 111.882C390.242 111.728 390.297 111.56 390.428 111.464L391.473 110.705C391.766 110.492 391.616 110.029 391.254 110.029H389.961C389.799 110.029 389.656 109.925 389.606 109.771L389.207 108.542Z" fill="#58B9FD"/>
<path d="M380.482 98.5509L380.193 99.1073C380.194 99.1074 380.194 99.1076 380.194 99.1077L380.193 99.1073L380.482 98.5509ZM380.482 98.5509L380.77 99.1073C380.769 99.1074 380.769 99.1076 380.769 99.1077L380.77 99.1073L380.482 98.5509ZM395.704 109.159L395.704 109.159C395.597 109.053 395.508 108.931 395.441 108.796L395.441 108.796L392.64 103.207L386.459 102.27C386.31 102.248 386.166 102.201 386.033 102.132L380.482 99.2565L374.93 102.132C374.797 102.201 374.653 102.248 374.504 102.27L368.323 103.207L365.522 108.796L364.628 108.348L365.522 108.796C365.455 108.931 365.366 109.053 365.259 109.159L360.809 113.55L361.828 119.718C361.852 119.866 361.852 120.017 361.828 120.166L360.809 126.334L365.259 130.725C365.366 130.831 365.455 130.953 365.522 131.087L365.522 131.087L368.323 136.676L374.504 137.613C374.653 137.636 374.797 137.683 374.93 137.752L380.482 140.627L386.033 137.752C386.166 137.683 386.31 137.636 386.459 137.613L392.64 136.676L395.441 131.087L396.335 131.535L395.441 131.087C395.508 130.953 395.597 130.831 395.704 130.725L396.407 131.437L395.704 130.725L400.154 126.334L399.135 120.166C399.111 120.017 399.111 119.866 399.135 119.718L400.122 119.881L399.135 119.718L400.154 113.55L395.704 109.159ZM392.495 102.917C392.495 102.917 392.495 102.917 392.495 102.918L392.495 102.917L393.055 102.636L392.495 102.917Z" stroke="#CB2027" stroke-width="2"/>
<path d="M387.222 99.6409L386.773 100.078C386.773 100.078 386.774 100.079 386.774 100.079L386.773 100.078L387.222 99.6409ZM387.222 99.6409L387.32 100.26C387.32 100.26 387.32 100.26 387.319 100.26L387.32 100.26L387.222 99.6409ZM398.327 114.505L398.327 114.505C398.258 114.371 398.213 114.227 398.191 114.078L398.191 114.078L397.294 107.891L391.723 105.054C391.589 104.986 391.467 104.896 391.362 104.789L387 100.311L380.825 101.29C380.677 101.314 380.525 101.313 380.377 101.287L374.216 100.229L369.796 104.65L369.089 103.944L369.796 104.65C369.69 104.757 369.567 104.845 369.432 104.911L363.825 107.677L362.849 113.852C362.825 114 362.777 114.144 362.708 114.277L359.797 119.809L362.636 125.379C362.705 125.513 362.75 125.657 362.772 125.806L362.772 125.806L363.669 131.993L369.24 134.83C369.374 134.898 369.496 134.988 369.601 135.095L373.963 139.573L380.138 138.594C380.286 138.57 380.438 138.571 380.586 138.597L386.747 139.655L391.167 135.234L391.874 135.941L391.167 135.234C391.273 135.127 391.396 135.039 391.531 134.973L391.973 135.87L391.531 134.973L397.138 132.208L398.114 126.032C398.138 125.884 398.185 125.74 398.255 125.608L399.14 126.073L398.255 125.607L401.166 120.075L398.327 114.505ZM397.247 107.57C397.247 107.57 397.247 107.57 397.247 107.571L397.247 107.57L397.867 107.48L397.247 107.57Z" stroke="#CB2027" stroke-width="2"/>
<path d="M478.719 220.229L528.2 220.229" stroke="#25316D" stroke-width="2" stroke-linecap="round" stroke-linejoin="round"/>
</g>
<defs>
<clipPath id="clip0_952_21711">
<rect width="180" height="171.037" fill="white" transform="matrix(-1 0 0 1 533 84.4814)"/>
</clipPath>
</defs>
</svg>
