<svg width="1012" height="990" viewBox="0 0 1012 990" fill="none" xmlns="http://www.w3.org/2000/svg">
<circle cx="494.81" cy="494" r="237.247" transform="rotate(0.0294987 494.81 494)" stroke="white"/>
<circle cx="495.054" cy="494.206" r="308.965" transform="rotate(0.0294987 495.054 494.206)" stroke="white"/>
<circle cx="495.511" cy="493.814" r="394.193" transform="rotate(0.0294987 495.511 493.814)" stroke="white"/>
<circle cx="494" cy="494" r="493.5" stroke="white"/>
<rect x="560.688" y="256" width="44" height="44" rx="22" fill="white"/>
<rect x="570.688" y="272.5" width="24" height="11.5" fill="white"/>
<path d="M570.438 285.5L576.438 281L576.438 284.335L577.938 285.5L576.438 286.665L576.438 290L570.438 285.5Z" fill="#CB2027"/>
<path d="M594.938 270.5L588.938 266L588.938 269.335L587.438 270.5L588.938 271.665L588.938 275L594.938 270.5Z" fill="#CB2027"/>
<path d="M584.563 276.125C584.729 276.125 584.888 276.059 585.005 275.942C585.123 275.825 585.188 275.666 585.188 275.5C585.188 275.334 585.123 275.175 585.005 275.058C584.888 274.941 584.729 274.875 584.563 274.875H583.313V274.25C583.313 274.084 583.248 273.925 583.13 273.808C583.013 273.691 582.854 273.625 582.688 273.625C582.523 273.625 582.364 273.691 582.247 273.808C582.129 273.925 582.063 274.084 582.063 274.25V274.875H580.813C580.648 274.875 580.489 274.941 580.372 275.058C580.254 275.175 580.188 275.334 580.188 275.5V278C580.188 278.166 580.254 278.325 580.372 278.442C580.489 278.559 580.648 278.625 580.813 278.625H583.938V279.875H580.813C580.648 279.875 580.489 279.941 580.372 280.058C580.254 280.175 580.188 280.334 580.188 280.5C580.188 280.666 580.254 280.825 580.372 280.942C580.489 281.059 580.648 281.125 580.813 281.125H582.063V281.75C582.063 281.916 582.129 282.075 582.247 282.192C582.364 282.309 582.523 282.375 582.688 282.375C582.854 282.375 583.013 282.309 583.13 282.192C583.248 282.075 583.313 281.916 583.313 281.75V281.125H584.563C584.729 281.125 584.888 281.059 585.005 280.942C585.123 280.825 585.188 280.666 585.188 280.5V278C585.188 277.834 585.123 277.675 585.005 277.558C584.888 277.441 584.729 277.375 584.563 277.375H581.438V276.125H584.563Z" fill="#25316D"/>
<path d="M589.563 287.375L577.063 287.375L577.063 291.125L569.688 285.5L577.007 279.875L577.007 283.625L594.563 283.625L594.563 275.5" stroke="#25316D" stroke-linecap="round" stroke-linejoin="round"/>
<path d="M575.813 268.625H588.313V264.875L595.688 270.5L588.37 276.125V272.375H570.813V280.5" stroke="#25316D" stroke-linecap="round" stroke-linejoin="round"/>
<rect x="171.688" y="525" width="44" height="44" rx="22" fill="white"/>
<g clip-path="url(#clip0_259_2738)">
<path d="M184.33 552.072C186.129 555.269 188.655 557.682 191.79 559.457C192.347 559.773 193.029 559.773 193.586 559.457C196.729 557.679 199.259 555.258 201.058 552.05C202.858 548.843 203.941 544.822 204.151 539.826C204.186 538.991 203.669 538.237 202.888 537.938L193.403 534.309C192.943 534.133 192.434 534.133 191.974 534.309L182.489 537.938C181.708 538.237 181.191 538.991 181.226 539.826C181.437 544.834 182.524 548.861 184.33 552.072Z" stroke="#25316D"/>
<path fill-rule="evenodd" clip-rule="evenodd" d="M192.721 556.983C198.307 554.229 201.671 549.103 201.688 540.402L192.688 537L183.688 540.402C183.706 549.121 187.083 554.249 192.688 557L192.721 556.983Z" fill="white"/>
<path d="M201.518 540.75V540.75C201.519 540.589 201.42 540.446 201.271 540.388L193.303 537.335C192.842 537.158 192.332 537.158 191.872 537.335L184.942 539.99C184.167 540.287 183.65 541.034 183.687 541.863C184.038 549.786 187.309 554.547 192.555 557.169V557.169C192.575 557.18 192.6 557.18 192.62 557.17C196.41 555.274 199.17 552.263 200.541 547.75" stroke="#25316D" stroke-linecap="round"/>
<path d="M192.189 547.5L187.894 544.816C187.452 544.54 186.935 545.039 187.196 545.49L191.689 553.25L206.689 539.5L192.189 547.5Z" fill="#CB2027"/>
</g>
<rect x="670.688" y="710" width="44" height="44" rx="22" fill="white"/>
<path d="M692.188 723.249L679.188 736.749L689.188 738.999L701.688 724.749L692.188 723.249Z" fill="white"/>
<path d="M679.125 737.168L692.216 723.464M679.125 737.168L679.505 738.605L680.241 738.859L681.009 739.493C682.917 739.911 687.104 740.808 688.585 741.053C690.067 741.298 691.327 740.201 691.772 739.621L692.197 739.727C693.509 738.274 696.434 735.053 697.637 733.797C699.141 732.227 699.66 732.319 703.307 731.398C706.224 730.661 706.31 726.315 705.988 724.234M679.125 737.168L689.053 739.154L701.838 724.844M692.216 723.464L696.484 722.837L697.22 723.09L697.97 722.787L704.665 723.754L704.885 724.107L705.988 724.234M692.216 723.464L701.838 724.844M705.988 724.234L701.838 724.844" stroke="#25316D"/>
<path d="M692.036 736.496L700.416 727.159L700.416 731.601C700.416 731.601 699.986 731.717 699.386 731.928C696.515 734.763 692.036 739.179 692.036 739.179L692.036 736.496Z" fill="#CB2027"/>
<rect x="682.946" y="735.499" width="1.12711" height="0.966091" transform="rotate(15.4646 682.946 735.499)" fill="#25316D"/>
<path d="M685.807 735.999L686.293 737.191L684.871 736.902L685.807 735.999Z" fill="#25316D"/>
<rect x="687.189" y="736.549" width="1.1271" height="1.12711" rx="0.563552" transform="rotate(-8.36038 687.189 736.549)" fill="#25316D"/>
<ellipse cx="690.945" cy="731.133" rx="2.71549" ry="4.75" transform="rotate(38.7856 690.945 731.133)" fill="#CB2027"/>
<path d="M690.874 730.742C690.724 730.613 690.716 730.373 690.857 730.209C690.998 730.045 691.236 730.017 691.386 730.146L691.66 730.381C691.81 730.511 691.817 730.75 691.677 730.914C691.536 731.078 691.543 731.318 691.694 731.447C691.844 731.576 692.082 731.548 692.223 731.384C692.607 730.937 692.614 730.321 692.296 729.918L692.565 729.605C692.706 729.442 692.698 729.202 692.548 729.072C692.398 728.943 692.159 728.972 692.018 729.135L691.749 729.448C691.303 729.193 690.695 729.292 690.311 729.739C689.888 730.23 689.911 730.95 690.362 731.338L690.635 731.573C690.785 731.702 690.793 731.942 690.652 732.105C690.511 732.269 690.273 732.297 690.122 732.168L689.849 731.933C689.699 731.804 689.691 731.564 689.832 731.4C689.973 731.237 689.966 730.997 689.815 730.868C689.665 730.738 689.427 730.767 689.286 730.93C688.902 731.377 688.895 731.993 689.213 732.396L688.944 732.709C688.803 732.873 688.811 733.113 688.961 733.242C689.111 733.371 689.349 733.343 689.49 733.179L689.759 732.866C690.206 733.121 690.814 733.022 691.198 732.575C691.621 732.084 691.598 731.365 691.147 730.977L690.874 730.742Z" fill="white"/>
<rect x="191.688" y="200" width="44" height="44" rx="22" fill="white"/>
<path d="M224.188 213.5L220.985 218.305C220.8 218.583 220.488 218.75 220.153 218.75L216.688 218.75M216.688 222.5L223.438 222.5M216.688 227L224.188 227C224.741 227 225.188 227.448 225.188 228L225.188 230" stroke="#25316D"/>
<circle cx="225.188" cy="212" r="1.5" transform="rotate(90 225.188 212)" stroke="#25316D"/>
<circle cx="225.188" cy="222.5" r="1.5" transform="rotate(90 225.188 222.5)" stroke="#25316D"/>
<circle cx="225.188" cy="232" r="1.5" transform="rotate(90 225.188 232)" stroke="#25316D"/>
<path d="M201.743 211.286C201.743 210.576 202.252 210 202.881 210H213.496C214.124 210 214.633 210.576 214.633 211.286V232.714C214.633 233.424 214.124 234 213.496 234H202.881C202.252 234 201.743 233.424 201.743 232.714V211.286Z" fill="white"/>
<path d="M200.688 210.393C200.688 209.624 201.281 209 202.012 209H214.365C215.096 209 215.688 209.624 215.688 210.393V233.607C215.688 234.376 215.096 235 214.365 235H202.012C201.281 235 200.688 234.376 200.688 233.607V210.393Z" stroke="#25316D"/>
<path d="M206.688 211.5H210.188" stroke="#25316D" stroke-linecap="round"/>
<path d="M205.26 218.429C205.063 218.429 204.903 218.284 204.903 218.107C204.903 217.93 205.063 217.786 205.26 217.786H205.617C205.813 217.786 205.974 217.93 205.974 218.107C205.974 218.284 206.135 218.429 206.331 218.429C206.528 218.429 206.688 218.284 206.688 218.107C206.688 217.625 206.296 217.239 205.796 217.159V216.821C205.796 216.645 205.635 216.5 205.438 216.5C205.242 216.5 205.081 216.645 205.081 216.821V217.159C204.581 217.239 204.188 217.625 204.188 218.107C204.188 218.637 204.671 219.071 205.26 219.071H205.617C205.813 219.071 205.974 219.216 205.974 219.393C205.974 219.57 205.813 219.714 205.617 219.714H205.26C205.063 219.714 204.903 219.57 204.903 219.393C204.903 219.216 204.742 219.071 204.546 219.071C204.349 219.071 204.188 219.216 204.188 219.393C204.188 219.875 204.581 220.261 205.081 220.341V220.679C205.081 220.855 205.242 221 205.438 221C205.635 221 205.796 220.855 205.796 220.679V220.341C206.296 220.261 206.688 219.875 206.688 219.393C206.688 218.863 206.206 218.429 205.617 218.429H205.26Z" fill="#25316D"/>
<path d="M209.679 219.84C209.679 219.96 209.649 220.07 209.589 220.17C209.529 220.27 209.449 220.35 209.349 220.41C209.249 220.47 209.139 220.5 209.019 220.5H208.059C207.939 220.5 207.827 220.47 207.724 220.41C207.624 220.35 207.544 220.27 207.484 220.17C207.424 220.07 207.394 219.96 207.394 219.84V219.69C207.394 219.627 207.415 219.573 207.459 219.53C207.505 219.483 207.56 219.46 207.624 219.46H207.764C207.824 219.46 207.875 219.483 207.919 219.53C207.965 219.573 207.989 219.627 207.989 219.69V219.84C207.989 219.857 207.995 219.873 208.009 219.89C208.025 219.903 208.042 219.91 208.059 219.91H209.019C209.035 219.91 209.05 219.903 209.064 219.89C209.077 219.873 209.084 219.857 209.084 219.84V219.31C209.084 219.267 209.064 219.245 209.024 219.245H208.059C207.939 219.245 207.827 219.215 207.724 219.155C207.624 219.095 207.544 219.015 207.484 218.915C207.424 218.812 207.394 218.7 207.394 218.58V217.785C207.394 217.662 207.424 217.55 207.484 217.45C207.544 217.35 207.624 217.27 207.724 217.21C207.827 217.15 207.939 217.12 208.059 217.12H209.019C209.139 217.12 209.249 217.15 209.349 217.21C209.449 217.27 209.529 217.35 209.589 217.45C209.649 217.55 209.679 217.662 209.679 217.785V219.84ZM209.084 218.585V217.785C209.084 217.738 209.062 217.715 209.019 217.715H208.059C208.042 217.715 208.025 217.722 208.009 217.735C207.995 217.748 207.989 217.765 207.989 217.785V218.58C207.989 218.6 207.995 218.617 208.009 218.63C208.025 218.643 208.042 218.65 208.059 218.65H209.024C209.064 218.65 209.084 218.628 209.084 218.585Z" fill="#25316D"/>
<path d="M212.374 219.84C212.374 219.96 212.344 220.07 212.284 220.17C212.224 220.27 212.144 220.35 212.044 220.41C211.944 220.47 211.834 220.5 211.714 220.5H210.754C210.634 220.5 210.522 220.47 210.419 220.41C210.319 220.35 210.239 220.27 210.179 220.17C210.119 220.07 210.089 219.96 210.089 219.84V219.69C210.089 219.627 210.111 219.573 210.154 219.53C210.201 219.483 210.256 219.46 210.319 219.46H210.459C210.519 219.46 210.571 219.483 210.614 219.53C210.661 219.573 210.684 219.627 210.684 219.69V219.84C210.684 219.857 210.691 219.873 210.704 219.89C210.721 219.903 210.737 219.91 210.754 219.91H211.714C211.731 219.91 211.746 219.903 211.759 219.89C211.772 219.873 211.779 219.857 211.779 219.84V219.31C211.779 219.267 211.759 219.245 211.719 219.245H210.754C210.634 219.245 210.522 219.215 210.419 219.155C210.319 219.095 210.239 219.015 210.179 218.915C210.119 218.812 210.089 218.7 210.089 218.58V217.785C210.089 217.662 210.119 217.55 210.179 217.45C210.239 217.35 210.319 217.27 210.419 217.21C210.522 217.15 210.634 217.12 210.754 217.12H211.714C211.834 217.12 211.944 217.15 212.044 217.21C212.144 217.27 212.224 217.35 212.284 217.45C212.344 217.55 212.374 217.662 212.374 217.785V219.84ZM211.779 218.585V217.785C211.779 217.738 211.757 217.715 211.714 217.715H210.754C210.737 217.715 210.721 217.722 210.704 217.735C210.691 217.748 210.684 217.765 210.684 217.785V218.58C210.684 218.6 210.691 218.617 210.704 218.63C210.721 218.643 210.737 218.65 210.754 218.65H211.719C211.759 218.65 211.779 218.628 211.779 218.585Z" fill="#25316D"/>
<rect x="202.688" y="227.5" width="11" height="3.5" rx="1" fill="#CB2027"/>
<rect x="868.688" y="491" width="44" height="44" rx="22" fill="white"/>
<path d="M876.938 509.5L903.688 506.25L892.188 519.5L888.688 515.75L883.188 518.5L883.438 511.5L876.938 509.5Z" fill="white"/>
<path d="M886.189 513L888.439 515.75L883.689 518L886.189 513Z" fill="#CB2027"/>
<path d="M883.438 511.5L898.688 507.75L886.188 512.5L883.188 517.75L883.438 511.5Z" fill="#CB2027"/>
<path d="M883.298 518.616L888.675 515.921M883.504 511.732L883.067 518.629L886.045 512.896" stroke="#25316D" stroke-miterlimit="1.5" stroke-linecap="round" stroke-linejoin="round"/>
<path d="M877.213 509.687L883.632 511.539L903.448 506.373L877.213 509.687Z" stroke="#25316D" stroke-miterlimit="1.5" stroke-linecap="round" stroke-linejoin="round"/>
<path d="M892.968 518.605L903.545 506.41L886.173 512.648M886.265 512.936L891.864 519.243" stroke="#25316D" stroke-miterlimit="1.5" stroke-linecap="round" stroke-linejoin="round"/>
<path d="M891.438 505.25L884.938 505.75M890.688 521.75L886.938 525.5M882.188 506L877.188 506.25" stroke="#25316D" stroke-linecap="round" stroke-linejoin="round"/>
<defs>
<clipPath id="clip0_259_2738">
<rect width="26" height="27" fill="white" transform="translate(180.688 533.5)"/>
</clipPath>
</defs>
</svg>
