<svg width="21" height="20" viewBox="0 0 21 20" fill="none" xmlns="http://www.w3.org/2000/svg">
<mask id="mask0_1094_13563" style="mask-type:alpha" maskUnits="userSpaceOnUse" x="0" y="0" width="21" height="20">
<rect x="0.600586" width="20" height="20" fill="#D9D9D9"/>
</mask>
<g mask="url(#mask0_1094_13563)">
<path d="M4.125 16.9429H7.3125V10.7714H13.6875V16.9429H16.875V7.68571L10.5 3.05714L4.125 7.68571V16.9429ZM4.125 19C3.54062 19 3.04036 18.7986 2.62422 18.3957C2.20807 17.9929 2 17.5086 2 16.9429V7.68571C2 7.36 2.07526 7.05143 2.22578 6.76C2.3763 6.46857 2.58438 6.22857 2.85 6.04L9.225 1.41143C9.41979 1.27429 9.62344 1.17143 9.83594 1.10286C10.0484 1.03429 10.2698 1 10.5 1C10.7302 1 10.9516 1.03429 11.1641 1.10286C11.3766 1.17143 11.5802 1.27429 11.775 1.41143L18.15 6.04C18.4156 6.22857 18.6237 6.46857 18.7742 6.76C18.9247 7.05143 19 7.36 19 7.68571V16.9429C19 17.5086 18.7919 17.9929 18.3758 18.3957C17.9596 18.7986 17.4594 19 16.875 19H11.5625V12.8286H9.4375V19H4.125Z" fill="#303030"/>
</g>
</svg>
