<svg width="45" height="45" viewBox="0 0 45 45" fill="none" xmlns="http://www.w3.org/2000/svg">
<rect x="0.376953" y="0.5" width="44" height="44" rx="22" fill="white"/>
<path d="M8.62695 19L35.377 15.75L23.877 29L20.377 25.25L14.877 28L15.127 21L8.62695 19Z" fill="white"/>
<path d="M17.8774 22.5L20.127 25.2502L15.3774 27.5L17.8774 22.5Z" fill="#CB2027"/>
<path d="M15.1269 20.9996L30.3769 17.2495L17.877 21.9995L14.877 27.2495L15.1269 20.9996Z" fill="#CB2027"/>
<path d="M14.9865 28.1164L20.3633 25.4209M15.1921 21.2324L14.7559 28.1294L17.7331 22.3956" stroke="#25316D" stroke-miterlimit="1.5" stroke-linecap="round" stroke-linejoin="round"/>
<path d="M8.90186 19.1872L15.3205 21.0393L35.137 15.873L8.90186 19.1872Z" stroke="#25316D" stroke-miterlimit="1.5" stroke-linecap="round" stroke-linejoin="round"/>
<path d="M24.6565 28.1047L35.2336 15.9102L17.8618 22.1483M17.9541 22.4361L23.5525 28.7435" stroke="#25316D" stroke-miterlimit="1.5" stroke-linecap="round" stroke-linejoin="round"/>
<path d="M23.127 14.75L16.627 15.25M22.377 31.25L18.627 35M13.877 15.5L8.87695 15.75" stroke="#25316D" stroke-linecap="round" stroke-linejoin="round"/>
</svg>
