<svg width="45" height="45" viewBox="0 0 45 45" fill="none" xmlns="http://www.w3.org/2000/svg">
<rect x="0.376953" y="0.5" width="44" height="44" rx="22" fill="white"/>
<rect x="10.377" y="17" width="24" height="11.5" fill="white"/>
<path d="M10.127 29.9999L16.127 25.5L16.127 28.8349L17.627 30L16.127 31.165L16.127 34.5L10.127 29.9999Z" fill="#CB2027"/>
<path d="M34.627 14.9999L28.627 10.5L28.627 13.8349L27.127 15L28.627 16.165L28.627 19.5L34.627 14.9999Z" fill="#CB2027"/>
<path d="M24.252 20.625C24.4177 20.625 24.5767 20.5592 24.6939 20.4419C24.8111 20.3247 24.877 20.1658 24.877 20C24.877 19.8342 24.8111 19.6753 24.6939 19.5581C24.5767 19.4408 24.4177 19.375 24.252 19.375H23.002V18.75C23.002 18.5842 22.9361 18.4253 22.8189 18.3081C22.7017 18.1908 22.5427 18.125 22.377 18.125C22.2112 18.125 22.0522 18.1908 21.935 18.3081C21.8178 18.4253 21.752 18.5842 21.752 18.75V19.375H20.502C20.3362 19.375 20.1772 19.4408 20.06 19.5581C19.9428 19.6753 19.877 19.8342 19.877 20V22.5C19.877 22.6658 19.9428 22.8247 20.06 22.9419C20.1772 23.0592 20.3362 23.125 20.502 23.125H23.627V24.375H20.502C20.3362 24.375 20.1772 24.4408 20.06 24.5581C19.9428 24.6753 19.877 24.8342 19.877 25C19.877 25.1658 19.9428 25.3247 20.06 25.4419C20.1772 25.5592 20.3362 25.625 20.502 25.625H21.752V26.25C21.752 26.4158 21.8178 26.5747 21.935 26.6919C22.0522 26.8092 22.2112 26.875 22.377 26.875C22.5427 26.875 22.7017 26.8092 22.8189 26.6919C22.9361 26.5747 23.002 26.4158 23.002 26.25V25.625H24.252C24.4177 25.625 24.5767 25.5592 24.6939 25.4419C24.8111 25.3247 24.877 25.1658 24.877 25V22.5C24.877 22.3342 24.8111 22.1753 24.6939 22.0581C24.5767 21.9408 24.4177 21.875 24.252 21.875H21.127V20.625H24.252Z" fill="#25316D"/>
<path d="M29.252 31.875L16.752 31.875L16.752 35.625L9.37695 30L16.6958 24.375L16.6958 28.125L34.252 28.125L34.252 20" stroke="#25316D" stroke-linecap="round" stroke-linejoin="round"/>
<path d="M15.502 13.125H28.002V9.375L35.377 15L28.0581 20.625V16.875H10.502V25" stroke="#25316D" stroke-linecap="round" stroke-linejoin="round"/>
</svg>
