<svg width="45" height="45" viewBox="0 0 45 45" fill="none" xmlns="http://www.w3.org/2000/svg">
<rect x="0.376953" y="0.5" width="44" height="44" rx="22" fill="white"/>
<g clip-path="url(#clip0_1111_15450)">
<path d="M13.0189 27.5718C14.8175 30.7685 17.3432 33.1822 20.4782 34.957C21.0355 35.2726 21.7171 35.2726 22.2745 34.9572C25.417 33.1788 27.9473 30.7582 29.7469 27.5504C31.5465 24.3426 32.6292 20.3224 32.8393 15.3257C32.8744 14.4906 32.357 13.737 31.5764 13.4383L22.0917 9.8087C21.6315 9.63256 21.1224 9.63256 20.6621 9.80869L11.1774 13.4383C10.3968 13.737 9.87937 14.4906 9.91448 15.3257C10.125 20.3338 11.2122 24.3606 13.0189 27.5718Z" stroke="#25316D"/>
<path fill-rule="evenodd" clip-rule="evenodd" d="M21.4098 32.4834C26.9959 29.729 30.3592 24.6026 30.377 15.9015L21.377 12.5L12.377 15.9015C12.3947 24.6205 15.7717 29.7487 21.377 32.5L21.4098 32.4834Z" fill="white"/>
<path d="M30.2062 16.2498V16.2498C30.2077 16.0894 30.1088 15.9455 29.959 15.8882L21.9914 12.8348C21.5307 12.6582 21.0209 12.6582 20.5601 12.8348L13.6308 15.4902C12.8559 15.7872 12.3384 16.5343 12.3752 17.3634C12.7263 25.2864 15.9971 30.0465 21.2432 32.6694V32.6694C21.2637 32.6799 21.288 32.68 21.3086 32.6697C25.0988 30.774 27.8581 27.7634 29.2299 23.2498" stroke="#25316D" stroke-linecap="round"/>
<path d="M20.8769 23L16.5821 20.3158C16.1402 20.0395 15.6233 20.5393 15.8844 20.9903L20.3769 28.75L35.3769 15L20.8769 23Z" fill="#CB2027"/>
</g>
<defs>
<clipPath id="clip0_1111_15450">
<rect width="26" height="27" fill="white" transform="translate(9.37695 9)"/>
</clipPath>
</defs>
</svg>
