<svg width="45" height="45" viewBox="0 0 45 45" fill="none" xmlns="http://www.w3.org/2000/svg">
<rect x="0.376953" y="0.5" width="44" height="44" rx="22" fill="white"/>
<path d="M21.877 13.749L8.87695 27.249L18.8765 29.4993L31.3765 15.2493L21.877 13.749Z" fill="white"/>
<path d="M8.81324 27.6677L21.9037 13.9639M8.81324 27.6677L9.19317 29.1054L9.92899 29.3586L10.6967 29.9926C12.605 30.4107 16.7921 31.3083 18.2734 31.5531C19.7548 31.7979 21.0148 30.7005 21.4597 30.1212L21.8848 30.2274C23.1969 28.7738 26.1218 25.5528 27.3248 24.2968C28.8285 22.7267 29.348 22.819 32.9947 21.8977C35.9121 21.1606 35.9978 16.815 35.6759 14.7344M8.81324 27.6677L18.7411 29.6535L31.5257 15.3443M21.9037 13.9639L26.1718 13.3367L26.9076 13.5899L27.6581 13.2869L34.3527 14.2543L34.5732 14.6073L35.6759 14.7344M21.9037 13.9639L31.5257 15.3443M35.6759 14.7344L31.5257 15.3443" stroke="#25316D"/>
<path d="M21.7249 26.9963L30.1047 17.6586L30.1045 22.1009C30.1045 22.1009 29.6749 22.2169 29.0742 22.4285C26.2031 25.2627 21.7249 29.6794 21.7249 29.6794L21.7249 26.9963Z" fill="#CB2027"/>
<rect x="12.6348" y="25.999" width="1.12711" height="0.966091" transform="rotate(15.4646 12.6348 25.999)" fill="#25316D"/>
<path d="M15.4951 26.4988L15.9817 27.6915L14.5595 27.4023L15.4951 26.4988Z" fill="#25316D"/>
<rect x="16.877" y="27.0488" width="1.1271" height="1.12711" rx="0.563552" transform="rotate(-8.36038 16.877 27.0488)" fill="#25316D"/>
<ellipse cx="20.6325" cy="21.6331" rx="2.71549" ry="4.75" transform="rotate(38.7856 20.6325 21.6331)" fill="#CB2027"/>
<path d="M20.5615 21.2419C20.4113 21.1126 20.4037 20.8729 20.5446 20.7091C20.6855 20.5453 20.9237 20.517 21.074 20.6463L21.3471 20.8813C21.4974 21.0105 21.505 21.2503 21.3641 21.4141C21.2232 21.5779 21.2308 21.8176 21.381 21.9469C21.5313 22.0761 21.7695 22.0479 21.9104 21.8841C22.2947 21.4373 22.3017 20.8215 21.9833 20.418L22.2523 20.1053C22.3932 19.9415 22.3856 19.7017 22.2354 19.5725C22.0851 19.4432 21.8469 19.4715 21.706 19.6353L21.437 19.948C20.9905 19.6935 20.3826 19.7924 19.9983 20.2391C19.5755 20.7305 19.5984 21.4498 20.0491 21.8375L20.3223 22.0725C20.4725 22.2018 20.4802 22.4415 20.3392 22.6053C20.1983 22.7691 19.9601 22.7974 19.8099 22.6682L19.5367 22.4332C19.3865 22.3039 19.3788 22.0641 19.5198 21.9003C19.6607 21.7365 19.653 21.4968 19.5028 21.3675C19.3526 21.2383 19.1143 21.2665 18.9734 21.4303C18.5891 21.8771 18.5822 22.493 18.9005 22.8964L18.6315 23.2091C18.4906 23.3729 18.4982 23.6127 18.6485 23.7419C18.7987 23.8712 19.0369 23.8429 19.1778 23.6791L19.4469 23.3664C19.8933 23.6209 20.5013 23.5221 20.8856 23.0753C21.3083 22.5839 21.2854 21.8646 20.8347 21.4769L20.5615 21.2419Z" fill="white"/>
</svg>
