<svg width="45" height="45" viewBox="0 0 45 45" fill="none" xmlns="http://www.w3.org/2000/svg">
<rect x="0.376953" y="0.5" width="44" height="44" rx="22" fill="white"/>
<path d="M32.877 14L29.6738 18.8047C29.4884 19.0829 29.1761 19.25 28.8418 19.25L25.377 19.25M25.377 23L32.127 23M25.377 27.5L32.877 27.5C33.4292 27.5 33.877 27.9477 33.877 28.5L33.877 30.5" stroke="#25316D"/>
<circle cx="33.877" cy="12.5" r="1.5" transform="rotate(90 33.877 12.5)" stroke="#25316D"/>
<circle cx="33.877" cy="23" r="1.5" transform="rotate(90 33.877 23)" stroke="#25316D"/>
<circle cx="33.877" cy="32.5" r="1.5" transform="rotate(90 33.877 32.5)" stroke="#25316D"/>
<path d="M10.4321 11.7857C10.4321 11.0756 10.9413 10.5 11.5695 10.5H22.1849C22.8131 10.5 23.3223 11.0756 23.3223 11.7857V33.2143C23.3223 33.9243 22.8131 34.5 22.1849 34.5H11.5695C10.9413 34.5 10.4321 33.9243 10.4321 33.2143L10.4321 11.7857Z" fill="white"/>
<path d="M9.37695 10.8929C9.37695 10.1236 9.96951 9.5 10.7005 9.5H23.0534C23.7844 9.5 24.377 10.1236 24.377 10.8929V34.1071C24.377 34.8764 23.7844 35.5 23.0534 35.5H10.7005C9.96951 35.5 9.37695 34.8764 9.37695 34.1071L9.37695 10.8929Z" stroke="#25316D"/>
<path d="M15.377 12H18.877" stroke="#25316D" stroke-linecap="round"/>
<path d="M13.9484 18.9286C13.752 18.9286 13.5912 18.7839 13.5912 18.6071C13.5912 18.4304 13.752 18.2857 13.9484 18.2857H14.3055C14.502 18.2857 14.6627 18.4304 14.6627 18.6071C14.6627 18.7839 14.8234 18.9286 15.0198 18.9286C15.2162 18.9286 15.377 18.7839 15.377 18.6071C15.377 18.125 14.9841 17.7393 14.4841 17.6589V17.3214C14.4841 17.1446 14.3234 17 14.127 17C13.9305 17 13.7698 17.1446 13.7698 17.3214V17.6589C13.2698 17.7393 12.877 18.125 12.877 18.6071C12.877 19.1375 13.3591 19.5714 13.9484 19.5714H14.3055C14.502 19.5714 14.6627 19.7161 14.6627 19.8929C14.6627 20.0696 14.502 20.2143 14.3055 20.2143H13.9484C13.752 20.2143 13.5912 20.0696 13.5912 19.8929C13.5912 19.7161 13.4305 19.5714 13.2341 19.5714C13.0377 19.5714 12.877 19.7161 12.877 19.8929C12.877 20.375 13.2698 20.7607 13.7698 20.8411V21.1786C13.7698 21.3554 13.9305 21.5 14.127 21.5C14.3234 21.5 14.4841 21.3554 14.4841 21.1786V20.8411C14.9841 20.7607 15.377 20.375 15.377 19.8929C15.377 19.3625 14.8948 18.9286 14.3055 18.9286H13.9484Z" fill="#25316D"/>
<path d="M18.367 20.3401C18.367 20.4601 18.337 20.5701 18.277 20.6701C18.217 20.7701 18.137 20.8501 18.037 20.9101C17.937 20.9701 17.827 21.0001 17.707 21.0001H16.747C16.627 21.0001 16.5154 20.9701 16.412 20.9101C16.312 20.8501 16.232 20.7701 16.172 20.6701C16.112 20.5701 16.082 20.4601 16.082 20.3401V20.1901C16.082 20.1268 16.1037 20.0735 16.147 20.0301C16.1937 19.9835 16.2487 19.9601 16.312 19.9601H16.452C16.512 19.9601 16.5637 19.9835 16.607 20.0301C16.6537 20.0735 16.677 20.1268 16.677 20.1901V20.3401C16.677 20.3568 16.6837 20.3735 16.697 20.3901C16.7137 20.4035 16.7304 20.4101 16.747 20.4101H17.707C17.7237 20.4101 17.7387 20.4035 17.752 20.3901C17.7654 20.3735 17.772 20.3568 17.772 20.3401V19.8101C17.772 19.7668 17.752 19.7451 17.712 19.7451H16.747C16.627 19.7451 16.5154 19.7151 16.412 19.6551C16.312 19.5951 16.232 19.5151 16.172 19.4151C16.112 19.3118 16.082 19.2001 16.082 19.0801V18.2851C16.082 18.1618 16.112 18.0501 16.172 17.9501C16.232 17.8501 16.312 17.7701 16.412 17.7101C16.5154 17.6501 16.627 17.6201 16.747 17.6201H17.707C17.827 17.6201 17.937 17.6501 18.037 17.7101C18.137 17.7701 18.217 17.8501 18.277 17.9501C18.337 18.0501 18.367 18.1618 18.367 18.2851V20.3401ZM17.772 19.0851V18.2851C17.772 18.2385 17.7504 18.2151 17.707 18.2151H16.747C16.7304 18.2151 16.7137 18.2218 16.697 18.2351C16.6837 18.2485 16.677 18.2651 16.677 18.2851V19.0801C16.677 19.1001 16.6837 19.1168 16.697 19.1301C16.7137 19.1435 16.7304 19.1501 16.747 19.1501H17.712C17.752 19.1501 17.772 19.1285 17.772 19.0851Z" fill="#25316D"/>
<path d="M21.0623 20.3401C21.0623 20.4601 21.0323 20.5701 20.9723 20.6701C20.9123 20.7701 20.8323 20.8501 20.7323 20.9101C20.6323 20.9701 20.5223 21.0001 20.4023 21.0001H19.4423C19.3223 21.0001 19.2107 20.9701 19.1073 20.9101C19.0073 20.8501 18.9273 20.7701 18.8673 20.6701C18.8073 20.5701 18.7773 20.4601 18.7773 20.3401V20.1901C18.7773 20.1268 18.799 20.0735 18.8423 20.0301C18.889 19.9835 18.944 19.9601 19.0073 19.9601H19.1473C19.2073 19.9601 19.259 19.9835 19.3023 20.0301C19.349 20.0735 19.3723 20.1268 19.3723 20.1901V20.3401C19.3723 20.3568 19.379 20.3735 19.3923 20.3901C19.409 20.4035 19.4257 20.4101 19.4423 20.4101H20.4023C20.419 20.4101 20.434 20.4035 20.4473 20.3901C20.4607 20.3735 20.4673 20.3568 20.4673 20.3401V19.8101C20.4673 19.7668 20.4473 19.7451 20.4073 19.7451H19.4423C19.3223 19.7451 19.2107 19.7151 19.1073 19.6551C19.0073 19.5951 18.9273 19.5151 18.8673 19.4151C18.8073 19.3118 18.7773 19.2001 18.7773 19.0801V18.2851C18.7773 18.1618 18.8073 18.0501 18.8673 17.9501C18.9273 17.8501 19.0073 17.7701 19.1073 17.7101C19.2107 17.6501 19.3223 17.6201 19.4423 17.6201H20.4023C20.5223 17.6201 20.6323 17.6501 20.7323 17.7101C20.8323 17.7701 20.9123 17.8501 20.9723 17.9501C21.0323 18.0501 21.0623 18.1618 21.0623 18.2851V20.3401ZM20.4673 19.0851V18.2851C20.4673 18.2385 20.4457 18.2151 20.4023 18.2151H19.4423C19.4257 18.2151 19.409 18.2218 19.3923 18.2351C19.379 18.2485 19.3723 18.2651 19.3723 18.2851V19.0801C19.3723 19.1001 19.379 19.1168 19.3923 19.1301C19.409 19.1435 19.4257 19.1501 19.4423 19.1501H20.4073C20.4473 19.1501 20.4673 19.1285 20.4673 19.0851Z" fill="#25316D"/>
<rect x="11.377" y="28" width="11" height="3.5" rx="1" fill="#CB2027"/>
</svg>
