<svg width="526" height="410" viewBox="0 0 526 410" fill="none" xmlns="http://www.w3.org/2000/svg">
<g clip-path="url(#clip0_351_1838)">
<path opacity="0.4" d="M348 72.4997C437 76.9997 463.099 121.086 462.5 156.5C461.901 191.913 443.465 240.917 406 284C368.535 327.082 382.551 341.987 330 352.5C277.349 362.925 159.724 395.03 91.7348 330.95C47.8088 289.55 16.1054 232.033 30.8916 188.864C45.5779 145.696 -26.8556 73.4659 20.0007 38.9999C66.7571 4.53404 183.43 -22.1028 268.768 24.6616C303.731 43.8211 297.158 69.929 348 72.4997Z" fill="white"/>
<path fill-rule="evenodd" clip-rule="evenodd" d="M253.136 160.886L231.866 182.156C230.145 183.877 227.38 183.877 225.698 182.156L210.248 166.706C208.547 165.005 208.547 162.239 210.248 160.538C211.95 158.836 214.715 158.836 216.417 160.538L228.772 172.913L252.884 148.801C252.014 145.456 248.959 143 245.343 143H207.793C203.481 143 200 146.481 200 150.793V188.343C200 192.655 203.5 196.136 207.793 196.136H245.343C249.655 196.136 253.136 192.655 253.136 188.343V160.886Z" fill="#25316D"/>
<path fill-rule="evenodd" clip-rule="evenodd" d="M252.876 148.839L228.76 172.932L216.412 160.584C214.703 158.9 211.959 158.9 210.227 160.584C208.542 162.269 208.542 165.037 210.227 166.746L225.679 182.198C227.387 183.907 230.156 183.907 231.865 182.198L253.141 160.921V150.837C253.141 150.139 253.045 149.465 252.876 148.839Z" fill="#CB2027"/>
<rect x="264.064" y="143.469" width="163" height="52" rx="8" fill="#25316D"/>
<path d="M289.064 156.969H331.564M289.064 169.469H389.564M289.064 181.969H409.564" stroke="white" stroke-width="2" stroke-linecap="round" stroke-linejoin="round"/>
<path fill-rule="evenodd" clip-rule="evenodd" d="M253.999 285.135C253.999 284.038 253.556 282.983 252.786 282.213C252.016 281.443 250.961 281 249.874 281H229.134C228.037 281 226.982 281.443 226.212 282.213C225.442 282.983 224.999 284.038 224.999 285.135V305.875C224.999 306.962 225.442 308.017 226.212 308.787C226.982 309.557 228.037 310 229.134 310H249.874C250.961 310 252.016 309.557 252.786 308.787C253.556 308.017 253.999 306.962 253.999 305.875V285.135Z" fill="white"/>
<path d="M362.929 280.954L362.938 280.964L362.947 280.974C363.599 281.699 363.999 282.77 363.999 283.928V306.066C363.999 308.454 362.473 310 361.034 310H268.964C268.268 310 267.553 309.659 266.941 308.923C266.364 308.188 265.999 307.159 265.999 306.066V293.311C265.999 291.073 267.341 289.538 268.738 289.396L268.738 289.396C284.199 287.819 344.147 281.704 360.807 280.014L360.807 280.014L360.817 280.013C361.535 279.933 362.315 280.233 362.929 280.954Z" fill="white" stroke="#25316D" stroke-width="2"/>
<path d="M277.499 295.5L298.999 293.5M277.499 302H351.499" stroke="#303030" stroke-width="2" stroke-linecap="round" stroke-linejoin="round"/>
<path d="M230.999 294.805H239.499M247.999 294.805H239.499M239.499 294.805V287M239.499 294.805V303" stroke="#25316D" stroke-width="2" stroke-linecap="round" stroke-linejoin="round"/>
<path fill-rule="evenodd" clip-rule="evenodd" d="M251 222.848C251 221.562 250.465 220.325 249.536 219.422C248.606 218.519 247.333 218 246.022 218H220.991C219.667 218 218.394 218.519 217.464 219.422C216.535 220.325 216 221.562 216 222.848V247.164C216 248.438 216.535 249.675 217.464 250.578C218.394 251.481 219.667 252 220.991 252H246.022C247.333 252 248.606 251.481 249.536 250.578C250.465 249.675 251 248.438 251 247.164V222.848Z" fill="white"/>
<path d="M359.851 223.014L359.861 223.025L359.871 223.036C360.501 223.727 360.89 224.753 360.89 225.866V246.129C360.89 248.43 359.404 249.89 358.035 249.89H265.965C265.302 249.89 264.617 249.57 264.023 248.867C263.466 248.166 263.112 247.184 263.11 246.139L263.437 229.143L263.437 229.132V229.122C263.437 226.965 264.745 225.512 266.075 225.379L266.076 225.379C273.631 224.618 291.879 224.222 310.529 223.817L311.41 223.798C330.301 223.388 349.432 222.963 357.818 222.123L357.828 222.122C358.512 222.047 359.259 222.328 359.851 223.014Z" fill="white" stroke="#25316D" stroke-width="2.22"/>
<path d="M274.5 233H321.5M274.5 242.5H351" stroke="#303030" stroke-width="2" stroke-linecap="round" stroke-linejoin="round"/>
<path d="M223 234.268H233.5M244 234.268H233.5M233.5 234.268V225M233.5 234.268V244" stroke="#25316D" stroke-width="2" stroke-linecap="round" stroke-linejoin="round"/>
<path fill-rule="evenodd" clip-rule="evenodd" d="M450.279 125.832L437.831 137.95C437.512 138.251 437.029 138.252 436.724 137.931C436.422 137.628 436.419 137.125 436.742 136.841L449.189 124.723C449.509 124.422 449.992 124.421 450.294 124.724C450.598 125.045 450.598 125.531 450.279 125.832ZM431.815 116.972L428.537 129.33C428.432 129.742 427.984 130 427.574 129.875C427.16 129.771 426.92 129.347 427.024 128.935L430.302 116.576C430.427 116.167 430.855 115.907 431.265 116.031C431.678 116.136 431.939 116.563 431.815 116.972ZM453.786 150.632L439.911 149.544C439.487 149.504 439.164 149.121 439.184 148.698C439.225 148.275 439.608 147.953 440.032 147.973L453.907 149.081C454.01 149.085 454.111 149.11 454.204 149.154C454.298 149.198 454.381 149.261 454.449 149.338C454.517 149.415 454.568 149.505 454.6 149.603C454.632 149.701 454.644 149.804 454.635 149.907C454.594 150.35 454.231 150.673 453.786 150.632Z" fill="#58B9FD"/>
<path d="M446.26 180.912C446.259 183.311 447.926 190.912 448.76 194.412L447.76 195.912L464.76 216.412L444.76 234.912L429.26 214.412C422.76 208.412 408.76 195.412 406.26 191.912C403.99 188.734 397.26 172.411 397.26 169.911C397.26 167.411 399.761 166.412 399.761 164.412C399.761 162.412 405.259 162.412 404.759 159.911C404.259 157.411 408.76 158.411 408.76 156.911C408.76 155.411 412.76 148.159 413.76 152.911C415.761 162.411 430.26 175.911 431.26 174.911C432.06 174.111 432.26 170.245 432.26 168.411C430.76 168.078 429.402 161.198 430.26 159.911C432.26 156.911 433.26 159.411 433.76 159.911C434.26 160.411 441.26 171.911 442.76 174.411C444.26 176.911 446.26 177.912 446.26 180.912Z" fill="white"/>
<path fill-rule="evenodd" clip-rule="evenodd" d="M430.01 214.36C430.01 214.36 411.08 199.038 407.155 192.248C407.155 192.248 400.235 184.181 398.659 176.107C397.129 167.999 397.156 168.035 399.171 166.31C399.171 166.31 412.447 200.555 437.806 208.441L430.01 214.36Z" fill="#DAE8F1"/>
<path fill-rule="evenodd" clip-rule="evenodd" d="M634.943 291.955C688.967 356.51 603.144 316.096 578.719 316.164L535.419 313.872C535.419 313.872 495.929 315.799 481.623 300.528C479.019 297.747 477.173 294.666 477.173 294.666C477.173 294.666 459.239 272.372 454.987 265.442C450.739 258.51 427.576 222.001 427.576 222.001L428.536 218.222C428.536 218.222 437.838 200.289 447.737 194.762L457.143 204.674L499.76 252.124L506.268 260.696C506.268 260.696 554.971 260.367 576.579 261.625C626.996 264.561 675.28 255.711 634.943 291.955Z" fill="#58B9FD"/>
<path d="M600.566 261.761C608.695 264.468 617.336 270.141 621.433 277.821C624.724 284.057 625.432 291.276 626.572 298.111C627.61 304.523 629.194 310.801 631.212 316.979C632.648 321.442 634.403 325.944 637.206 329.73M575.058 260.572C556.769 260.005 538.482 259.621 520.202 259.159C515.419 259.052 510.543 258.909 505.823 259.933C504.335 260.257 501.985 260.587 500.955 261.803C499.273 263.778 502.861 267.362 505.475 267.091C510.045 266.636 501.816 254.749 496.998 249.356C490.326 241.898 467.733 214.711 458.145 205.412M448.944 194.152C441.344 197.852 435.287 204.918 431.431 212.312C430.106 214.853 428.87 217.51 428.322 220.308M457.582 204.483C447.351 210.527 440.011 222.566 436.225 233.573M482.047 299.834C510.98 314.905 545.539 312.818 577.224 315.703" stroke="#02558D" stroke-width="2" stroke-miterlimit="1.5" stroke-linecap="round" stroke-linejoin="round"/>
<path d="M447.911 193.851C447.357 190.743 446.94 187.622 446.604 184.512C446.385 182.511 446.381 180.316 445.652 178.401C444.925 176.49 443.612 174.861 442.391 173.253C440.735 170.972 439.043 168.743 437.573 166.33C436.355 164.348 435.139 162.365 434.022 160.322C433.315 159.109 432.371 157.765 430.939 159.021C429.721 160.084 429.876 162.001 430.107 163.447C430.675 166.58 433.564 170.19 432.08 173.381M429.232 173.244C424.239 170.38 420.444 165.765 417.678 160.792C416.857 159.233 416.099 157.657 415.385 156.052C414.905 154.942 414.428 153.555 413.512 152.731C411.319 150.79 408.721 154.609 408.789 156.317M408.864 156.51C406.632 156.996 405.484 158.056 405.182 160.325M404.831 160.816C403.108 161.308 401.338 162.402 400.698 164.224M400.238 165.144C399.036 166.133 397.906 167.593 397.658 169.173C397.399 170.451 397.88 171.845 398.101 173.089C398.775 176.448 399.867 179.795 401.298 182.916C401.884 184.164 402.517 185.381 403.207 186.571M405.548 190.327C412.086 199.315 420.773 206.667 429.33 213.653M400.814 165.808C402.473 171.897 405.272 177.396 408.801 182.615M404.988 161.211C406.566 168.239 410.312 174.793 414.302 180.713M409.079 156.826C411.189 163.133 414.851 170.24 418.682 175.669" stroke="#02558D" stroke-width="2" stroke-miterlimit="1.5" stroke-linecap="round" stroke-linejoin="round"/>
<path d="M187.299 279.526C147.862 288.248 136.955 236.39 132.906 235.899M132.906 235.899C133.136 238.89 127.904 251.729 131.677 259.061M132.906 235.899C137.418 238.06 156.336 247.137 158.177 244.99" stroke="#303030" stroke-width="2" stroke-linecap="round" stroke-linejoin="round"/>
<path d="M123.553 31.095L123.897 31.481L124.41 31.424C125.246 31.3311 126.091 31.3301 127 31.3301C136.475 31.3301 145.022 33.9583 151.173 38.1678C157.327 42.3801 161 48.1055 161 54.3301C161 60.5547 157.327 66.28 151.173 70.4924C145.022 74.7019 136.475 77.3301 127 77.3301C113.417 77.3301 103.547 76.9305 96.5854 76.3337L96.4488 76.322L96.3141 76.3475C92.6863 77.0338 88.9499 77.3301 85 77.3301C82.2474 77.3301 79.5869 77.1335 77.0146 76.8367L76.91 76.8246L76.8052 76.8346C70.5627 77.4291 61.908 77.63 50.0252 77.3304L50.0126 77.3301H50C40.525 77.3301 31.9778 74.7019 25.8273 70.4924C19.6727 66.28 16 60.5547 16 54.3301C16 48.6229 19.1322 43.3148 24.4603 39.2097C29.7876 35.1053 37.2486 32.2622 45.6869 31.5263L46.0828 31.4918L46.347 31.195C54.2148 22.3558 68.5147 16.3301 85 16.3301C101.389 16.3301 115.687 22.2583 123.553 31.095Z" fill="white" stroke="#25316D" stroke-width="2"/>
<path d="M119.564 181.341L120.242 179.532L121.327 181.131C125.816 187.745 133.504 189.892 140.109 188.522C146.716 187.151 152 182.338 152 175.192C152 168.869 149.489 164.491 144.723 161.631C139.869 158.718 132.59 157.33 123 157.33C114.415 157.33 105.844 157.258 97.2811 157.186C80.1834 157.042 63.1174 156.899 46.0256 157.33L46.013 157.33H46.0004C36.4983 157.33 31.1789 159.758 28.3399 163.04C25.4964 166.328 24.9378 170.706 25.4924 175.066L25.4924 175.066C25.7148 176.815 26.6544 179.014 28.2563 181.171C29.8498 183.317 32.0553 185.362 34.7305 186.826C40.0281 189.727 47.2514 190.404 55.4401 184.864L56.6359 184.055L56.9728 185.459C58.4005 191.408 62.4457 196.825 69.366 200.108C76.2964 203.396 86.1756 204.569 99.2642 201.858C108.027 199.417 112.69 195.274 115.359 191.326C117.419 188.28 118.298 185.386 118.959 183.208C119.172 182.505 119.363 181.876 119.564 181.341Z" fill="white" stroke="#25316D" stroke-width="2"/>
<rect x="28" y="90.3301" width="121" height="23" rx="4" fill="#CB2027"/>
<rect x="28" y="127.33" width="25" height="23" rx="4" fill="#25316D"/>
<rect x="61" y="127.33" width="88" height="23" rx="4" fill="#25316D"/>
<path d="M73.5 136.33H97.5M73.5 143.33H129.5" stroke="white" stroke-width="2" stroke-linecap="round" stroke-linejoin="round"/>
<path d="M36 136.33L42.5 142.83L55 130.33" stroke="#CB2027" stroke-width="2" stroke-linecap="round" stroke-linejoin="round"/>
<path fill-rule="evenodd" clip-rule="evenodd" d="M466.088 65.5704C469.648 65.5704 472.527 68.444 472.527 71.963C472.527 75.5143 469.648 78.3871 466.088 78.3871C462.529 78.3871 459.649 75.5143 459.649 71.963C459.649 68.444 462.529 65.5704 466.088 65.5704ZM466.088 67.1201C463.401 67.1201 461.232 69.3156 461.232 71.963C461.232 74.6424 463.401 76.8378 466.088 76.8378C468.775 76.8378 470.94 74.6424 470.94 71.963C470.94 69.3156 468.775 67.1201 466.088 67.1201ZM330.893 40.0061C331.357 41.2588 331.943 42.8341 332.302 43.8047C332.434 44.1606 332.718 44.4418 333.073 44.5734C334.044 44.9326 335.624 45.5154 336.882 45.9787C337.178 46.0883 337.433 46.2855 337.613 46.5438C337.794 46.8021 337.891 47.1092 337.891 47.4239C337.891 47.7386 337.794 48.0456 337.613 48.3038C337.433 48.562 337.178 48.759 336.882 48.8685C335.624 49.3317 334.044 49.9145 333.073 50.2741C332.897 50.3396 332.737 50.4421 332.604 50.5747C332.471 50.7073 332.368 50.867 332.302 51.0428C331.943 52.0131 331.357 53.5888 330.893 54.841C330.784 55.1364 330.586 55.3912 330.328 55.5712C330.069 55.7512 329.761 55.8476 329.445 55.8475C329.13 55.8476 328.822 55.7512 328.563 55.5712C328.304 55.3912 328.107 55.1364 327.998 54.841C327.533 53.5888 326.947 52.0131 326.588 51.0428C326.456 50.6869 326.173 50.4057 325.818 50.2741C324.846 49.9145 323.267 49.3317 322.009 48.8685C321.713 48.759 321.458 48.562 321.277 48.3038C321.097 48.0456 321 47.7386 321 47.4239C321 46.7793 321.404 46.203 322.009 45.9787C323.279 45.5111 324.548 45.0426 325.818 44.5734C325.994 44.5079 326.154 44.4054 326.287 44.2728C326.42 44.1402 326.523 43.9805 326.588 43.8047C326.947 42.8341 327.533 41.2588 327.998 40.0061C328.107 39.7109 328.304 39.4561 328.563 39.2762C328.822 39.0963 329.13 38.9999 329.445 39C329.761 38.9999 330.069 39.0963 330.327 39.2762C330.586 39.4561 330.784 39.7109 330.893 40.0061ZM329.445 40.5998L328.055 44.3464C327.912 44.7335 327.686 45.085 327.394 45.3768C327.102 45.6687 326.75 45.8939 326.362 46.0371L322.606 47.4239L326.362 48.8104C326.75 48.9536 327.102 49.1788 327.394 49.4707C327.686 49.7625 327.912 50.114 328.055 50.5011L329.445 54.2477L330.836 50.5011C330.98 50.1144 331.205 49.7632 331.497 49.4714C331.79 49.1796 332.141 48.9541 332.529 48.8104L336.285 47.4239L332.529 46.0371C332.141 45.8934 331.79 45.6679 331.497 45.3762C331.205 45.0844 330.98 44.7331 330.836 44.3464L329.445 40.5998Z" fill="#58B9FD"/>
<path fill-rule="evenodd" clip-rule="evenodd" d="M39.2152 14.2363C39.5855 15.2383 40.0541 16.4977 40.3413 17.2731C40.3854 17.3925 40.4548 17.501 40.5448 17.5912C40.6348 17.6814 40.7433 17.7511 40.8628 17.7956C41.6412 18.0828 42.9034 18.5487 43.9085 18.9189C44.1752 19.0172 44.4052 19.1949 44.5673 19.4278C44.7295 19.6607 44.8161 19.9377 44.8154 20.2213C44.8154 20.8015 44.4565 21.3209 43.9085 21.523L40.8628 22.6467C40.6209 22.736 40.432 22.9264 40.3413 23.1688C40.0541 23.9442 39.5855 25.204 39.2152 26.2059C39.1157 26.4718 38.9371 26.701 38.7035 26.863C38.4699 27.0249 38.1922 27.1119 37.9077 27.1122C37.3258 27.1122 36.8043 26.7503 36.604 26.2059C36.2337 25.204 35.7651 23.9442 35.4779 23.1688C35.3872 22.9264 35.1983 22.736 34.9527 22.6467C34.178 22.3594 32.9159 21.8935 31.9107 21.523C31.6437 21.4249 31.4133 21.2475 31.2505 21.0148C31.0877 20.782 31.0002 20.5051 31 20.2213C31 19.6404 31.3628 19.121 31.9107 18.9189C32.9159 18.5487 34.178 18.0828 34.9527 17.7956C35.073 17.7518 35.1823 17.6823 35.273 17.5921C35.3637 17.5019 35.4337 17.393 35.4779 17.2731C35.7651 16.4977 36.2337 15.2383 36.604 14.2363C36.7022 13.9703 36.8799 13.7408 37.1131 13.5787C37.3462 13.4167 37.6236 13.3299 37.9077 13.3301C38.4897 13.3301 39.0111 13.6916 39.2152 14.2363ZM37.9077 15.2164L36.9441 17.8152C36.8222 18.1462 36.6297 18.4467 36.3798 18.6961C36.1299 18.9455 35.8286 19.1376 35.4968 19.2593L32.8932 20.2213L35.4968 21.1829C35.8286 21.3045 36.1299 21.4966 36.3798 21.7459C36.6297 21.9952 36.8223 22.2957 36.9441 22.6267L37.9077 25.2255L38.8713 22.6267C38.9945 22.2959 39.1879 21.9956 39.4384 21.7464C39.6889 21.4972 39.9905 21.305 40.3224 21.1829L42.926 20.2213L40.3224 19.2593C39.9905 19.1372 39.6889 18.9449 39.4385 18.6956C39.188 18.4463 38.9945 18.146 38.8713 17.8152L37.9077 15.2164Z" fill="#25316D"/>
<path d="M186.757 59.903C211.162 57.5279 228.495 92.4898 229.499 100.366M229.499 100.366C232.224 97.1743 233.812 81.2533 234.472 73.0432M229.499 100.366C223.81 95.3776 207.495 86.6806 206.055 89.5661" stroke="#303030" stroke-width="2" stroke-linecap="round" stroke-linejoin="round"/>
</g>
<defs>
<clipPath id="clip0_351_1838">
<rect width="526" height="409" fill="white" transform="matrix(-1 0 0 1 526 0.428711)"/>
</clipPath>
</defs>
</svg>
