<svg width="588" height="340" viewBox="0 0 588 340" fill="none" xmlns="http://www.w3.org/2000/svg">
<path d="M45 260.103H295" stroke="#25316D" stroke-width="2" stroke-linecap="round" stroke-linejoin="round"/>
<path d="M101.086 269.31L101.23 269.205L101.329 269.057C102.104 267.895 103.501 267.202 105.439 266.988C107.373 266.774 109.708 267.06 112.107 267.72C114.497 268.378 116.895 269.391 118.938 270.583C120.996 271.782 122.625 273.122 123.548 274.398C127.463 279.809 126.755 286.688 122.419 289.853C121.421 290.58 119.804 291.033 117.742 291.147C115.707 291.259 113.358 291.033 111.01 290.52C108.664 290.007 106.353 289.214 104.392 288.212C102.417 287.204 100.866 286.021 99.9566 284.765C96.0419 279.354 96.7496 272.475 101.086 269.31Z" fill="white" stroke="#25316D" stroke-width="2"/>
<path d="M123.968 288.047C122.715 286.637 120.02 283.817 119.268 283.817" stroke="#25316D" stroke-width="2"/>
<path d="M183.5 271.5C189.5 285 199 313.037 175 310.5C161.507 309.074 164.795 300.54 168 298.5C173.5 295 175.854 297.358 178 301C181.626 307.153 175.775 315.065 161.5 312.5C138.504 308.368 149 303.5 139.5 296C136.34 293.505 128.761 291.64 124.5 289.5" stroke="#303030" stroke-width="2" stroke-linecap="round"/>
<path d="M120.808 278.92L120.803 278.923C120.513 279.097 120.127 279.028 119.912 278.749C118.987 277.534 117.453 275.621 115.638 273.729C113.833 271.849 111.696 269.932 109.563 268.768L108.562 270.481C108.554 270.494 108.554 270.494 108.554 270.494L108.554 270.494L108.555 270.495L108.57 270.504C108.584 270.513 108.606 270.527 108.636 270.547C108.696 270.587 108.786 270.648 108.901 270.73C109.131 270.894 109.459 271.139 109.837 271.456C110.6 272.095 111.547 273.01 112.332 274.131C113.117 275.253 113.71 276.541 113.831 277.94C113.948 279.307 113.622 280.863 112.439 282.575C111.734 283.408 110.493 283.843 109.935 284.026L109.823 284.063L109.723 284.124L109.723 284.125L109.722 284.125L109.721 284.126L109.712 284.131L109.676 284.153C109.664 284.16 109.649 284.169 109.631 284.18C109.604 284.196 109.571 284.216 109.532 284.239C109.406 284.313 109.222 284.42 108.995 284.547C108.54 284.801 107.921 285.132 107.255 285.442C106.583 285.755 105.892 286.033 105.289 286.197C104.632 286.375 104.283 286.358 104.17 286.317L103.528 286.085L103.082 286.593L103.082 286.593L103.081 286.594C103.081 286.595 103.08 286.595 103.079 286.596C103.077 286.599 103.073 286.603 103.068 286.608C103.064 286.612 103.059 286.617 103.054 286.623C103.028 286.649 102.986 286.691 102.93 286.742C102.815 286.846 102.647 286.984 102.439 287.115C102.019 287.379 101.515 287.568 100.983 287.505C100.98 287.502 100.878 287.465 100.66 287.294C100.42 287.107 100.129 286.83 99.7973 286.474C99.1366 285.764 98.3925 284.822 97.6846 283.864C96.9801 282.91 96.3266 281.962 95.8483 281.25C95.6094 280.895 95.415 280.6 95.2806 280.394C95.2134 280.291 95.1613 280.211 95.1261 280.156L95.0864 280.094L95.0766 280.079L95.0742 280.075L95.0737 280.075L95.0736 280.074L95.0736 280.074L94.8824 279.775L94.545 279.663L94.545 279.663L94.5448 279.663L94.5441 279.663L94.5392 279.661L94.5172 279.654C94.4971 279.647 94.4664 279.637 94.4258 279.623C94.3446 279.595 94.2236 279.552 94.0684 279.496C93.7579 279.384 93.3108 279.218 92.7704 279.002C91.6874 278.569 90.2398 277.942 88.7692 277.16C87.2924 276.375 85.8278 275.452 84.6888 274.439C83.5375 273.414 82.8301 272.395 82.65 271.429L82.6477 271.414C82.6449 271.394 82.6404 271.361 82.6351 271.317C82.6243 271.227 82.6099 271.091 82.5971 270.914C82.5715 270.559 82.5526 270.045 82.5824 269.424C82.6421 268.176 82.8963 266.529 83.6588 264.883C84.416 263.249 85.6804 261.601 87.796 260.33C89.8849 259.075 92.8591 258.153 97.0987 258.029C97.1058 258.032 97.1131 258.035 97.1206 258.038C97.2617 258.098 97.4714 258.187 97.7413 258.306C98.281 258.544 99.0609 258.9 100.013 259.367C101.92 260.302 104.511 261.681 107.251 263.452C112.775 267.025 118.717 272.081 121.056 278.191C121.151 278.438 121.066 278.744 120.808 278.92Z" fill="white" stroke="#25316D" stroke-width="2"/>
<path fill-rule="evenodd" clip-rule="evenodd" d="M113.5 148C131 187.5 99 222.5 99 222.5C99 222.5 97.9902 229.121 97.5 232C95.6666 242.769 100.5 256 100.5 256C100.5 256 95.5 262 85.304 271.186C85.0956 271.618 81.304 273.186 80.304 272.186C80.304 272.186 80.3564 263.224 78.5 257C70.5092 230.207 74.5 215 74.5 215C80.6106 200.899 89.4427 179.901 96 165.5C101.966 152.389 105.62 157.078 113.5 148Z" fill="#58B9FD"/>
<path d="M90.999 177.5C92.999 174 94.8411 169.693 95.9995 166.5C97.4668 162.4 101.663 157.478 104.5 154.1" stroke="#25316D" stroke-width="2" stroke-miterlimit="1.5" stroke-linecap="round" stroke-linejoin="round"/>
<path d="M131.86 174.749C134.899 189.083 134.443 205.364 129.774 219.305M141.362 172.735C143.245 179.165 143.499 185.841 143.477 192.502C143.484 201.041 142.676 209.701 139.767 217.795" stroke="#25316D" stroke-width="2" stroke-miterlimit="1.5" stroke-linecap="round" stroke-linejoin="round"/>
<path d="M82.5 218C84.5844 227.38 92.587 219.09 98 223M80.5002 258.5C84.0002 256.5 83.7189 251.926 96.5002 250.5" stroke="#25316D" stroke-width="2" stroke-miterlimit="1.5" stroke-linecap="round" stroke-linejoin="round"/>
<path d="M223.5 132C229.1 138.4 226.833 146.333 225 149.5C220.5 144 203 141 201 140C199.574 139.287 194.337 136.139 191.091 134.165C192.185 135.388 190.681 137.755 179 141C164.6 145 156 137.667 153.5 133.5L143 139L124 143.5C123.667 144.5 121.7 145.9 116.5 143.5C110 140.5 111.5 132 113 128.5C114.5 125 132 112.5 137.5 108C141.9 104.4 137.667 87.1667 135 79C134.667 70.8334 138.8 52.2001 158 43.0001C182 31.5001 201.5 46.0001 202 46.5001C202.5 47.0001 202.5 49.0001 208 60.0001C212.053 68.1057 211.892 73.4398 211.19 75.5336C211.588 76.0974 212.42 77.6427 214 81C218 89.5 214 93 210 97.5C206 102 209 102.5 208 105C207 107.5 207 113.5 209 117.5C211 121.5 216.5 124 223.5 132Z" fill="white"/>
<path fill-rule="evenodd" clip-rule="evenodd" d="M181.935 146.275C181.506 146.526 181.076 146.835 180.733 147.199C178.701 149.271 179.988 152.444 180.847 154.751C181.048 155.361 181.276 155.973 181.506 156.575C181.792 157.289 182.106 157.995 182.421 158.697C183.165 160.32 183.967 162.998 186.285 162.585C188.348 162.213 187.146 159.793 186.487 158.762C184.827 156.24 183.509 153.331 183.023 150.337C182.793 148.928 182.909 147.266 184.367 146.589" fill="#DAE8F1"/>
<path fill-rule="evenodd" clip-rule="evenodd" d="M184.024 161.011C180.991 165.506 179.96 170.613 180.303 175.954C180.417 177.952 180.619 180.036 181.276 181.938C182.106 184.334 182.193 186.681 184.024 188.463C184.969 189.382 188.232 189.734 188.805 188.463C189.692 186.484 187.859 184.005 187.203 182.207C186.143 179.286 185.885 176.095 186.257 173.015C186.745 168.691 190.209 164.326 187.174 160.165" fill="#DAE8F1"/>
<path fill-rule="evenodd" clip-rule="evenodd" d="M227.814 151.542C227.814 151.542 216.204 141.4 193.988 139.09C193.988 139.09 192.871 135.366 190.123 134.355C190.123 134.355 184.998 141.773 173.776 142.407C162.527 143.044 157.001 136.661 154.11 134.033C154.11 134.033 152.164 134.42 150.789 135.768L149.902 136.574C149.902 136.574 127.173 142.086 120.359 144.62C113.546 147.15 112 148.759 112 148.759V197C112 197 118.692 217.429 120.359 231C122.074 244.954 122 260 122 260L162 264.5L184.597 189.362C184.597 189.362 179.988 182.439 179.988 175.729C179.96 169.015 182.764 163.224 183.938 160.393C183.938 160.393 179.016 152.032 179.846 148.145C180.676 144.256 186.086 146.587 188.72 148.442C191.325 150.295 195.474 154.497 195.474 154.497C195.474 154.497 203.061 150.329 211.666 151.946C220.26 153.563 224.665 155.418 224.665 155.418L227.814 151.542ZM256 189.362C256 189.362 250.117 170.018 235.97 158.292L234.922 163.174C234.922 163.174 238.449 167.333 238.298 173.498C238.146 179.665 236.274 184.865 231.874 189.362H256Z" fill="#58B9FD"/>
<path d="M185.77 47.396C186.716 47.9777 187.517 48.7018 188.233 49.5479C192.612 54.6551 190.237 62.2376 185.341 66.0024M172.458 49.5682C176.353 53.7073 176.925 60.8281 172.401 64.7373" stroke="#25316D" stroke-width="2" stroke-miterlimit="1.5" stroke-linecap="round" stroke-linejoin="round"/>
<path d="M202.259 66.6126C203.291 65.8275 204.177 64.9387 204.95 63.9075C208.585 58.9895 206.698 52.6477 203.061 48.2625C199.31 43.7574 194.187 41.4062 188.518 40.3811C186.171 39.958 182.852 39.7546 179.931 39.8319M208.386 60.4783C211.943 64.896 212.785 71.0507 210.885 76.3368M163.041 54.106C161.896 57.34 161.695 60.7753 162.354 64.1374C163.07 67.9469 164.729 71.3476 164.559 75.3361C164.414 78.5375 163.041 81.3728 161.038 83.8115M178.957 78.0026C176.353 76.3572 173.347 75.9585 170.628 77.5775M199.969 78.7165C197.25 77.4311 193.9 76.9694 191.181 78.5579M186.887 81.2061C185.427 84.9566 185.543 89.5716 186.83 93.373C187.145 94.2985 187.546 95.2157 188.061 96.0517C188.175 96.2734 188.805 96.8571 188.834 97.0849C188.862 97.1744 187.688 97.4571 187.546 97.4897C186.143 97.8538 184.711 98.1182 183.224 98.1019M186.773 107.832C183.165 108.656 178.585 107.846 176.782 104.181M208.272 104.757C207.613 106.589 207.184 108.465 207.098 110.407C206.754 119.603 215.417 123.544 221.165 128.979C225.273 132.86 227.37 138.119 226.842 143.749C226.675 145.535 226.309 147.313 225.548 148.95M203.862 116.031C204.32 119.104 205.294 122.031 207.383 124.388C210.338 127.683 214.485 129.402 216.698 133.415M217.929 135.754C218.439 136.669 218.852 137.67 219.08 138.695M160.922 41.5323C138.107 48.9643 134.757 67.9754 135.931 83.5674C136.533 91.4489 140.483 99.845 137.65 107.663C136.332 111.235 132.839 113.82 129.805 115.864C123.88 119.867 116.782 122.757 112.974 129.225M235.026 163.611C240.058 170.186 239.517 181.357 233.393 187.07M235.172 161.969C236.308 158.497 237.201 154.787 237.55 151.143C237.671 149.902 237.762 147.862 236.234 147.384C234.381 146.804 232.569 147.579 231.099 148.714C228.776 150.502 226.939 152.819 224.765 154.767M224.665 155.418C222.894 154.442 220.982 153.921 219.052 153.347C211.518 151.114 202.947 151.196 195.647 154.295M194.215 153.107C191.638 150.488 188.518 147.815 185.026 146.579C183.537 146.06 181.534 145.787 180.389 147.091C179.386 148.238 179.701 150.079 180.045 151.415C180.875 154.582 182.278 157.578 183.938 160.393M183.252 162.632C178.957 169.588 179.073 179.841 183.309 186.797M192.155 118.736C191.382 124.012 190.723 129.274 189.808 134.525M157.145 108.975C156.171 117.168 154.883 125.308 153.795 133.484M188.433 136.627C180.102 143.096 169.253 144.543 160.064 139.173C157.802 137.853 155.628 136.201 154.11 134.033" stroke="#25316D" stroke-width="2" stroke-miterlimit="1.5" stroke-linecap="round" stroke-linejoin="round"/>
<path d="M192.755 136.462C195.074 139.057 195.761 143.554 193.385 146.367C192.297 147.634 190.751 148.314 189.149 148.659M178.499 153.588C174.006 158.074 165.016 156.769 162.126 151.07M151.906 134.884C147.154 137.908 144.893 144.53 148.842 149.135C149.587 149.996 150.474 150.724 151.448 151.303C154.653 153.217 158.231 152.863 161.638 151.871M139.596 143.29C132.038 144.858 124.94 147.866 118.384 151.962M133.299 150.781C131.524 151.275 129.29 151.696 127.773 152.841" stroke="#25316D" stroke-width="2" stroke-miterlimit="1.5" stroke-linecap="round" stroke-linejoin="round"/>
<path d="M153.48 138.093C155.827 141.262 159.378 143.709 163.127 144.913C164.329 145.295 165.59 145.696 166.849 145.736M214.101 179.046C213.798 180.008 213.263 180.995 212.336 181.477C210.629 182.363 209.13 180.635 209.016 179.075M203.909 179.046C204.212 180.008 204.747 180.995 205.674 181.477C207.381 182.363 208.882 180.635 208.996 179.075M206.468 70.949C206.468 83.2156 205.351 95.4903 203.348 107.771C203.089 109.24 202.373 110.592 201.314 111.619C195.159 117.41 188.175 120.493 180.559 121.582C179.988 121.659 179.416 121.612 178.871 121.447C170.943 119.009 163.7 114.723 157.145 108.684M208.156 78.6881C209.846 80.7484 210.456 83.3966 210.633 85.996C210.798 88.4367 210.542 91.0076 209.272 93.1574C208.272 94.8537 206.726 96.1412 205.093 97.1968M206.84 74.6283C208.3 75.3016 209.702 76.1172 210.859 77.2826C213.403 79.8718 214.673 84.1085 214.878 87.6617" stroke="#25316D" stroke-width="2" stroke-miterlimit="1.5" stroke-linecap="round" stroke-linejoin="round"/>
<path d="M214.223 91.3166C212.59 96.0089 209.244 99.5438 204.348 100.746M154.883 77.614C161.496 81.6188 163.3 91.2657 160.981 98.1587C160.322 100.119 159.435 102.041 158.003 103.561" stroke="#25316D" stroke-width="2" stroke-miterlimit="1.5" stroke-linecap="round" stroke-linejoin="round"/>
<path d="M149.988 77.3905C154.568 79.9146 157.66 85.8272 157.861 91.0259M158.117 94.0931C157.918 98.108 157.716 102.349 155.198 105.682M149.414 77.3213C143.89 79.7722 141.341 85.4367 141.429 91.2781M154.826 106.083C148.24 105.835 142.631 100.858 141.744 94.2782M176.726 39.3723C163.013 46.3975 155.455 58.2248 155.198 75.7471" stroke="#25316D" stroke-width="2" stroke-miterlimit="1.5" stroke-linecap="round" stroke-linejoin="round"/>
<path d="M165.236 40.6638C153.271 47.811 148.517 59.2559 148.29 75.747M173.118 39C170.026 39.2197 167.622 40.0617 165.246 40.6617" stroke="#25316D" stroke-width="2" stroke-miterlimit="1.5" stroke-linecap="round" stroke-linejoin="round"/>
<path d="M195.667 87.6678C194.561 87.6678 193.664 86.7708 193.664 85.6644C193.664 84.5559 194.561 83.6589 195.667 83.6589C196.774 83.6589 197.671 84.5559 197.671 85.6644C197.671 86.7708 196.774 87.6678 195.667 87.6678ZM175.938 87.6678C174.832 87.6678 173.935 86.7708 173.935 85.6644C173.935 84.5559 174.832 83.6589 175.938 83.6589C177.045 83.6589 177.942 84.5559 177.942 85.6644C177.942 86.7708 177.045 87.6678 175.938 87.6678ZM223.762 174.405C222.444 174.405 221.376 173.337 221.376 172.019C221.376 170.701 222.444 169.631 223.762 169.631C225.08 169.631 226.15 170.701 226.15 172.019C226.15 173.337 225.08 174.405 223.762 174.405ZM196.32 174.405C195.002 174.405 193.935 173.337 193.935 172.019C193.935 170.701 195.002 169.631 196.32 169.631C197.638 169.631 198.706 170.701 198.706 172.019C198.706 173.337 197.638 174.405 196.32 174.405Z" fill="#25316D"/>
<path d="M178.973 121.49C182.785 121.988 192.114 118.433 192.114 118.433L191.742 122.342C185.793 125.721 178.973 126.052 178.973 126.052C167.504 122.401 160.005 111.534 160.005 111.534C163.196 113.663 175.192 120.988 178.973 121.49Z" fill="#25316D"/>
<path d="M113 138.212C113.933 140.505 116.089 143.081 118.668 143.53" stroke="#25316D" stroke-width="2" stroke-miterlimit="1.5" stroke-linecap="round" stroke-linejoin="round"/>
<path d="M215.2 283.488L215.2 283.488L215.206 283.5C215.395 283.885 215.352 284.349 215.076 284.711C215.075 284.712 215.075 284.713 215.074 284.713L207.094 295.019H176.97L176.866 294.889L176.223 294.078C175.678 293.392 174.92 292.436 174.068 291.364C172.365 289.218 170.287 286.601 168.788 284.718L168.785 284.714C168.52 284.384 168.458 283.908 168.653 283.492C168.748 283.298 168.894 283.135 169.075 283.021C169.257 282.906 169.467 282.845 169.681 282.843C169.682 282.843 169.683 282.843 169.683 282.843L214.181 282.843H214.183C214.395 282.843 214.603 282.903 214.783 283.017C214.963 283.131 215.108 283.294 215.2 283.488ZM272.569 193.025L272.568 193.027C269.999 207.635 261.517 255.874 259.323 268.361C259.105 269.597 258.033 270.495 256.787 270.495H127.441C126.212 270.495 125.146 269.613 124.91 268.388C123.759 262.364 120.984 247.856 118.113 232.85C115.082 217.005 111.944 200.605 110.501 193.052L110.501 193.051C110.358 192.307 110.553 191.528 111.047 190.917C111.541 190.325 112.272 189.977 113.032 189.977L270.032 189.977L270.033 189.977C270.409 189.976 270.779 190.058 271.12 190.217C271.46 190.377 271.762 190.609 272.003 190.899L272.004 190.9C272.495 191.489 272.702 192.274 272.569 193.025Z" fill="white" stroke="#25316D" stroke-width="2"/>
<path d="M192.091 227.496C200.24 227.496 206.858 234.136 206.858 242.323V295.024H177.323V242.323C177.323 234.136 183.938 227.496 192.091 227.496Z" fill="white" stroke="#25316D" stroke-width="2"/>
<path fill-rule="evenodd" clip-rule="evenodd" d="M198.87 242.265C198.87 238.504 195.834 235.457 192.091 235.457C188.348 235.457 185.314 238.504 185.314 242.265V254.44C185.314 258.194 188.348 261.24 192.091 261.24C195.834 261.24 198.87 258.194 198.87 254.44V242.265Z" fill="#58B9FD"/>
<path d="M130 267.011L116.463 197.382C116.223 196.147 117.169 195 118.426 195H235" stroke="#25316D" stroke-width="2"/>
<path d="M235.332 249.983C235.692 249.983 235.986 250.274 235.986 250.64V256.877C235.986 257.242 235.692 257.533 235.332 257.533H232.875C232.511 257.533 232.221 257.242 232.221 256.877V250.64C232.221 250.274 232.511 249.983 232.875 249.983H235.332Z" fill="#686868"/>
<path d="M244.646 249.983C245.005 249.983 245.3 250.274 245.3 250.64V256.877C245.3 257.242 245.005 257.533 244.646 257.533H242.188C241.825 257.533 241.535 257.242 241.535 256.877V250.64C241.535 250.274 241.825 249.983 242.188 249.983H244.646Z" fill="#686868"/>
<path d="M101.346 43C101.388 45.2331 101.536 47.5089 101.641 49.7422M101.599 57.3863V64M93 53.5215H97.9573M104.803 53.4785C106.531 53.3496 108.263 53.1771 110 53.2202" stroke="#25316D" stroke-width="2" stroke-miterlimit="1.5" stroke-linecap="round" stroke-linejoin="round"/>
<path fill-rule="evenodd" clip-rule="evenodd" d="M405.266 99.9753C407.628 99.9753 409.542 101.89 409.542 104.251V110.299C409.542 112.66 407.628 114.575 405.266 114.575C402.905 114.575 400.99 112.66 400.99 110.299L400.99 104.251C400.99 101.89 402.905 99.9753 405.266 99.9753Z" fill="#CB2027"/>
<path fill-rule="evenodd" clip-rule="evenodd" d="M487.58 99.9753C489.941 99.9753 491.856 101.89 491.856 104.251V110.299C491.856 112.66 489.941 114.575 487.58 114.575C485.218 114.575 483.304 112.66 483.304 110.299L483.304 104.251C483.304 101.89 485.218 99.9753 487.58 99.9753Z" fill="#CB2027"/>
<rect x="382.833" y="111.551" width="127.27" height="102.589" rx="12.8282" fill="#58B9FD"/>
<rect x="386.938" y="133.047" width="118.941" height="76.9607" rx="8.55213" fill="white"/>
<circle cx="411.145" cy="148.039" r="5.87959" fill="#CB2027"/>
<circle cx="411.145" cy="169.419" r="5.87959" fill="#25316D"/>
<circle cx="411.145" cy="192.937" r="5.87959" fill="#25316D"/>
<circle cx="434.664" cy="148.039" r="5.87959" fill="#CB2027"/>
<circle cx="434.664" cy="169.419" r="5.87959" fill="#25316D"/>
<circle cx="434.664" cy="192.937" r="5.87959" fill="#25316D"/>
<circle cx="458.181" cy="148.039" r="5.87959" fill="#CB2027"/>
<circle cx="481.699" cy="148.039" r="5.87959" fill="#25316D"/>
<circle cx="458.181" cy="169.419" r="5.87959" fill="#25316D"/>
<circle cx="481.699" cy="169.419" r="5.87959" fill="#25316D"/>
<circle cx="458.181" cy="192.937" r="5.87959" fill="#25316D"/>
<circle cx="481.699" cy="192.937" r="5.87959" fill="#25316D"/>
<circle cx="379.945" cy="203.228" r="36.9452" fill="#E2EEFF"/>
<path d="M384.205 180.449L384.163 180.441L384.12 180.436C382.731 180.282 381.487 180.678 380.468 181.619C379.458 182.551 378.945 183.743 378.945 185.125V202.813L366.492 215.267C365.495 216.264 365.015 217.494 365.092 218.892C365.17 220.283 365.766 221.443 366.857 222.3C368.746 223.798 370.837 224.861 373.125 225.482C375.365 226.09 377.639 226.395 379.945 226.395C386.365 226.395 391.854 224.136 396.354 219.636C400.854 215.137 403.112 209.647 403.112 203.228C403.112 197.637 401.322 192.698 397.752 188.453C394.187 184.214 389.66 181.54 384.205 180.449ZM379.945 239.173C374.965 239.173 370.297 238.229 365.933 236.345C361.549 234.454 357.746 231.891 354.514 228.659C351.282 225.427 348.719 221.624 346.828 217.24C344.944 212.876 344 208.208 344 203.228C344 198.247 344.944 193.58 346.828 189.215C348.719 184.831 351.282 181.028 354.514 177.796C357.746 174.564 361.549 172.002 365.933 170.11C370.297 168.227 374.965 167.282 379.945 167.282C384.926 167.282 389.593 168.227 393.958 170.11C398.341 172.002 402.145 174.564 405.377 177.796C408.609 181.028 411.171 184.831 413.063 189.215C414.946 193.58 415.89 198.247 415.89 203.228C415.89 208.208 414.946 212.876 413.063 217.24C411.171 221.624 408.609 225.427 405.377 228.659C402.145 231.891 398.341 234.454 393.958 236.345C389.593 238.229 384.926 239.173 379.945 239.173Z" fill="white" stroke="#CB2027" stroke-width="2"/>
<path fill-rule="evenodd" clip-rule="evenodd" d="M365.634 158.08C365.634 155.813 367.472 153.975 369.739 153.975H390.156C392.423 153.975 394.261 155.813 394.261 158.08C394.261 160.348 392.423 162.185 390.156 162.185H369.739C367.472 162.185 365.634 160.348 365.634 158.08Z" fill="#CB2027"/>
<path fill-rule="evenodd" clip-rule="evenodd" d="M399.965 179.961C398.362 178.357 398.362 175.758 399.965 174.155L404.07 170.05C405.673 168.447 408.272 168.447 409.876 170.05C411.479 171.653 411.479 174.252 409.876 175.856L405.771 179.961C404.167 181.564 401.568 181.564 399.965 179.961Z" fill="#CB2027"/>
</svg>
