<svg width="588" height="340" viewBox="0 0 588 340" fill="none" xmlns="http://www.w3.org/2000/svg">
<path d="M45 261.103H295" stroke="#25316D" stroke-width="2" stroke-linecap="round" stroke-linejoin="round"/>
<path d="M101.086 270.31L101.23 270.205L101.329 270.056C102.104 268.895 103.501 268.201 105.439 267.988C107.373 267.774 109.708 268.06 112.107 268.72C114.497 269.377 116.895 270.391 118.938 271.582C120.996 272.782 122.625 274.122 123.548 275.398C127.463 280.809 126.755 287.688 122.419 290.852C121.421 291.58 119.804 292.033 117.742 292.146C115.707 292.258 113.358 292.033 111.01 291.52C108.664 291.007 106.353 290.214 104.392 289.212C102.417 288.204 100.866 287.021 99.9566 285.764C96.0419 280.353 96.7496 273.474 101.086 270.31Z" fill="white" stroke="#25316D" stroke-width="2"/>
<path d="M123.968 289.047C122.715 287.637 120.02 284.816 119.268 284.816" stroke="#25316D" stroke-width="2"/>
<path d="M229.618 257.792C231.275 266.112 236.25 275.696 231.038 290.598C225.826 305.5 213.865 317.401 200.87 313.5C190.898 310.507 194.872 300.752 200.37 298C205.529 295.418 210.87 297 212.37 303.5C215.81 318.405 199.725 320.64 174.87 318.5C150.015 316.36 146.139 306.202 143.37 302C134.87 289.098 128.777 292.737 124.516 290.598" stroke="#303030" stroke-width="2" stroke-linecap="round"/>
<path d="M120.807 279.92L120.802 279.923C120.512 280.097 120.126 280.028 119.911 279.749C118.986 278.534 117.452 276.621 115.637 274.729C113.832 272.849 111.695 270.932 109.562 269.768L108.561 271.481C108.553 271.494 108.553 271.494 108.553 271.494L108.553 271.494L108.554 271.495L108.569 271.504C108.583 271.513 108.605 271.527 108.635 271.547C108.695 271.587 108.785 271.648 108.9 271.73C109.13 271.894 109.458 272.139 109.836 272.456C110.599 273.095 111.546 274.01 112.331 275.131C113.116 276.253 113.709 277.541 113.83 278.94C113.947 280.307 113.622 281.863 112.438 283.575C111.733 284.408 110.492 284.843 109.934 285.026L109.822 285.063L109.722 285.124L109.722 285.125L109.721 285.125L109.72 285.126L109.711 285.131L109.675 285.153C109.663 285.16 109.648 285.169 109.63 285.18C109.603 285.196 109.57 285.216 109.531 285.239C109.405 285.313 109.221 285.42 108.994 285.547C108.539 285.801 107.92 286.132 107.254 286.442C106.582 286.755 105.891 287.033 105.288 287.197C104.631 287.375 104.282 287.358 104.169 287.317L103.527 287.085L103.081 287.593L103.081 287.593L103.08 287.594C103.08 287.595 103.079 287.595 103.078 287.596C103.076 287.599 103.072 287.603 103.067 287.608C103.063 287.612 103.058 287.617 103.053 287.623C103.027 287.649 102.985 287.691 102.929 287.742C102.814 287.846 102.646 287.984 102.438 288.115C102.018 288.379 101.514 288.568 100.982 288.505C100.979 288.502 100.877 288.465 100.659 288.294C100.419 288.107 100.128 287.83 99.7963 287.474C99.1356 286.764 98.3915 285.822 97.6836 284.864C96.9791 283.91 96.3256 282.962 95.8473 282.25C95.6085 281.895 95.414 281.6 95.2796 281.394C95.2125 281.291 95.1603 281.211 95.1252 281.156L95.0854 281.094L95.0756 281.079L95.0732 281.075L95.0727 281.075L95.0727 281.074L95.0726 281.074L94.8814 280.775L94.544 280.663L94.544 280.663L94.5438 280.663L94.5431 280.663L94.5382 280.661L94.5162 280.654C94.4961 280.647 94.4654 280.637 94.4248 280.623C94.3436 280.595 94.2227 280.552 94.0674 280.496C93.7569 280.384 93.3098 280.218 92.7694 280.002C91.6864 279.569 90.2388 278.942 88.7683 278.16C87.2914 277.375 85.8268 276.452 84.6878 275.439C83.5365 274.414 82.8291 273.395 82.649 272.429L82.6468 272.414C82.6439 272.394 82.6395 272.361 82.6341 272.317C82.6233 272.227 82.6089 272.091 82.5961 271.914C82.5705 271.559 82.5516 271.045 82.5814 270.424C82.6411 269.176 82.8953 267.529 83.6578 265.883C84.415 264.249 85.6794 262.601 87.7951 261.33C89.8839 260.075 92.8581 259.153 97.0978 259.029C97.1049 259.032 97.1121 259.035 97.1196 259.038C97.2607 259.098 97.4705 259.187 97.7403 259.306C98.2801 259.544 99.0599 259.9 100.012 260.367C101.919 261.302 104.51 262.681 107.25 264.452C112.774 268.025 118.716 273.081 121.055 279.191C121.15 279.438 121.065 279.744 120.807 279.92Z" fill="white" stroke="#25316D" stroke-width="2"/>
<path fill-rule="evenodd" clip-rule="evenodd" d="M106.203 149.524C141.828 178.116 100.464 225.121 100.464 225.121C100.464 225.121 101.246 230.823 99.054 233.111C91.498 241 104.695 261.314 104.695 261.314C104.695 261.314 89.3321 271.044 84.9526 280.116C84.7442 280.548 83.5424 281.526 83.0722 281.526C83.0722 281.526 74.5878 267.538 72.7314 261.314C64.7406 234.521 65.2103 217.13 65.2103 217.13C71.3209 203.028 74.6349 194.397 81.1922 179.996C87.1578 166.885 98.3231 158.601 106.203 149.524Z" fill="#58B9FD"/>
<path fill-rule="evenodd" clip-rule="evenodd" d="M155.523 123.828C155.523 123.828 160.447 119.767 162.933 120.425L163.113 123.663C163.113 123.663 170.489 128.767 180.511 128.932C190.538 129.152 198.297 124.322 199.952 120.425C199.952 120.425 205.848 121.741 206.089 125.693C206.089 125.693 237.235 135.295 245.112 140.676C252.986 145.996 257.047 149.509 258.846 158.73C260.638 167.893 267.128 197.525 268.608 221.341C252.762 216.29 239.65 216.183 223.455 216.183C185.121 170.685 158.638 225.872 123.411 260.58C123.411 260.58 134.498 196.357 130.57 196.85C126.646 197.289 72.6809 218.267 72.6809 218.267C72.6809 218.267 71.7465 203.439 72.6809 199.268C73.6152 195.097 91.8494 150.167 96.0185 144.077C100.188 137.93 107.564 133.046 120.7 130.303C133.842 127.561 155.523 123.828 155.523 123.828Z" fill="#58B9FD"/>
<path d="M121.652 47C121.117 48.0658 120.714 49.172 120.32 50.2985C120.009 51.1994 119.711 52.1686 119.228 52.9933M118.193 53.7065C116.434 54.3521 114.702 55.0699 113 55.8579M113.01 55.9237C113.483 56.2335 113.931 56.5684 114.433 56.8296C115.829 57.5504 117.31 58.0604 118.736 58.7074M119.454 59.887C120.129 61.6048 121.049 63.1882 121.769 64.8807M121.816 65C122.018 64.3732 122.324 63.7793 122.602 63.1882C123.284 61.7317 124.065 60.316 124.635 58.8087M124.635 58.89C125.354 58.4893 126.165 58.271 126.91 57.9309C128.002 57.4285 129.913 56.6142 131 56.0559M121.945 47.1017C122.831 49.0274 123.727 50.9636 124.54 52.9248M124.538 53.0849C126.014 53.8664 129.482 55.0716 131 55.7743" stroke="#25316D" stroke-width="2" stroke-miterlimit="1.5" stroke-linecap="round" stroke-linejoin="round"/>
<path d="M85.5 168C87.5 164.5 88.3416 161.193 89.5 158C90.9673 153.9 93.1631 147.877 96.0004 144.5" stroke="#25316D" stroke-width="2" stroke-miterlimit="1.5" stroke-linecap="round" stroke-linejoin="round"/>
<path d="M131.859 175.749C134.899 190.083 134.443 206.364 129.773 220.305M141.362 173.735C143.244 180.165 143.499 186.841 143.477 193.502C143.484 202.041 142.675 210.701 139.766 218.795" stroke="#25316D" stroke-width="2" stroke-miterlimit="1.5" stroke-linecap="round" stroke-linejoin="round"/>
<path d="M155.795 127.874C158.516 132.1 163.177 134.68 167.734 136.437C178.973 140.716 194.76 140.223 202.814 130.124M199.874 120.412C200.546 120.412 201.224 120.521 201.869 120.686C204.164 121.453 205.327 123.321 205.896 125.513M149.527 129.191C151.276 131.606 153.183 134.076 155.401 136.051C158.308 138.632 161.838 140.55 165.477 141.868" stroke="#25316D" stroke-width="2" stroke-miterlimit="1.5" stroke-linecap="round" stroke-linejoin="round"/>
<path d="M162.918 120.77C160.443 120.825 157.268 121.922 155.93 124.171" stroke="#25316D" stroke-width="2" stroke-miterlimit="1.5" stroke-linecap="round" stroke-linejoin="round"/>
<path d="M68.971 219.01C70.851 227.471 81.1901 227.505 85.4226 229.351C90.0457 231.402 95.8856 223.029 99.999 226M75.5515 268.366C80.722 258.965 84.3924 255.691 97.1737 254.264" stroke="#25316D" stroke-width="2" stroke-miterlimit="1.5" stroke-linecap="round" stroke-linejoin="round"/>
<path d="M199.461 101.597L161.637 92.1965L162.577 123.22C162.577 123.22 173.586 128.956 181.379 128.86C189.606 128.759 199.461 123.491 199.461 123.491L199.461 101.597Z" fill="white"/>
<path d="M148 72C152 84 155 83.5 156.5 81.4324C158.133 85.897 160.028 90.3876 162.001 94.0001C163.501 96.7466 179.501 107 189.075 111.434C200.415 104.811 205.501 98.0001 208.001 95.5001C208.001 93.7505 208.75 88.5816 209.5 81.4324C209.5 78.7562 215.5 81.4324 215.5 69C215.706 66.7112 213 61.5 210.815 65.5C210.932 63.6101 211.001 61.9068 211.001 60.5001C230.501 35.5001 208.5 29.5001 201 28.0001C200 17.5001 177.5 24.0001 170.501 31.0001C166.374 33.0976 162.382 39.5729 159.501 43.0001C155 43.5 153.189 46.9753 151.5 51C151.5 52.5 153.037 61.3109 154 65.5C147.5 62 146.839 69.9413 148 72Z" fill="white"/>
<path d="M190.923 67.9644C190.901 71.312 191.289 74.5491 192.448 77.6767C192.732 78.4999 193.038 79.2687 193.426 79.9824C193.453 80.0371 193.819 80.6403 193.803 80.6403C193.552 80.9696 192.35 82 192 82C190.508 82.1098 188.899 81.9938 187.5 81.5M181.946 65.2211C179.093 63.6295 175.668 63.6295 172.952 65.4953M206.311 66.3732C203.256 64.7269 200.021 64.6718 196.814 65.8243M195.5 91.5001C190 93.5001 184.415 91.7254 181.044 89.3111M163.111 65.825C163.739 72.0807 158.47 65.2444 159 71.5001M171.87 56.9905C170.236 60.9413 166.821 63.7404 162.875 65.1671" stroke="#25316D" stroke-width="2" stroke-miterlimit="1.5" stroke-linecap="round" stroke-linejoin="round"/>
<path d="M159.405 73.8922C159.405 73.8922 160.93 88.7625 161.328 92.7133C161.392 93.3124 161.654 93.8729 162.072 94.3052C168.58 101.329 176.475 106.103 185.71 108.792C186.327 108.957 186.988 108.957 187.589 108.738C194.556 106.104 201.217 102.097 207.517 96.4453C208.053 95.9515 208.386 95.2928 208.446 94.5795C208.949 88.5433 211.293 60.283 211.293 60.283" stroke="#25316D" stroke-width="2" stroke-miterlimit="1.5" stroke-linecap="round" stroke-linejoin="round"/>
<path d="M199.641 102.591L199.105 123.336C199.105 123.336 180.144 135.296 163.768 123.336M162.107 95.019L162.413 119.822" stroke="#25316D" stroke-width="2" stroke-miterlimit="1.5" stroke-linecap="round" stroke-linejoin="round"/>
<path d="M202.602 73.3246C202.382 73.3278 202.164 73.2872 201.961 73.2051C201.757 73.123 201.572 73.001 201.416 72.8464C201.259 72.6917 201.135 72.5074 201.051 72.3042C200.966 72.1009 200.922 71.8828 200.922 71.6624C200.922 71.4421 200.966 71.224 201.051 71.0208C201.135 70.8175 201.26 70.6332 201.416 70.4786C201.572 70.324 201.757 70.2021 201.961 70.1201C202.165 70.038 202.383 69.9974 202.602 70.0007C203.037 70.0072 203.451 70.1852 203.756 70.4962C204.061 70.8072 204.232 71.2262 204.232 71.6628C204.232 72.0994 204.061 72.5184 203.756 72.8294C203.451 73.1403 203.036 73.3182 202.602 73.3246ZM179.656 73.3246C179.217 73.3246 178.796 73.1494 178.485 72.8377C178.175 72.526 178 72.1031 178 71.6623C178 71.2214 178.175 70.7986 178.485 70.4869C178.796 70.1751 179.217 70 179.656 70C180.09 70.0064 180.505 70.1844 180.81 70.4954C181.116 70.8065 181.287 71.2256 181.287 71.6623C181.287 72.0989 181.116 72.5181 180.81 72.8291C180.505 73.1402 180.09 73.3181 179.656 73.3246Z" fill="#25316D"/>
<path fill-rule="evenodd" clip-rule="evenodd" d="M166.371 99.6421C166.371 99.6421 176.693 112.866 186.178 113.58C194.255 114.238 199.287 107.818 199.287 107.818V102.989C199.287 102.989 187.987 109.409 186.178 108.915C184.375 108.366 166.371 99.6421 166.371 99.6421Z" fill="#25316D"/>
<path d="M176.029 54.956C180.817 57.8757 185.851 60.5812 191.583 60.8314C194.238 60.9454 197.489 60.0882 197.978 56.9987M213.428 52.9472C213.743 53.6516 214.024 54.3976 214.128 55.1787C214.618 59.0104 210.808 60.3111 207.661 60.1377C202.592 59.8577 197.978 56.8847 194.799 53.0379M215.839 51.706C216.783 50.632 217.657 49.4396 218.181 48.1178C221.643 39.498 213.463 31.9558 206.054 29.5219C202.977 28.5105 198.574 27.7157 195.567 29.372C193.401 30.5505 196.51 33.0263 198.085 32.8345C200.601 32.5206 201.371 29.2847 200.635 27.2448C200.042 25.6827 198.713 24.6751 197.211 24.023C194.275 22.7503 191.198 22.8477 188.086 23.336C181.55 24.3681 175.294 27.7123 170.121 31.6978C168.059 33.281 165.822 34.9511 164.319 37.106M160.614 42.9153C159.601 43.006 158.587 43.2255 157.644 43.5951C150.722 46.2837 152.5 55.9999 153.5 61.4999M160.125 89.5C159.877 88.7693 159.615 85.2194 157.644 80.4999C157.147 79.3105 154 87.4999 149 75.9999C144.5 60.8314 153.5 64.4999 154.5 65.9999M161.208 33.9083C160.823 35.2751 160.579 36.6108 160.544 38.0299C160.544 38.4203 160.544 38.8145 160.579 39.205C160.579 39.2434 160.649 39.5434 160.614 39.5677C160.579 39.5957 160.159 39.4037 160.125 39.3863C159.563 39.198 159.039 38.9993 158.481 38.811C156.419 38.0928 154.182 37.4266 151.979 37.3671" stroke="#25316D" stroke-width="2" stroke-miterlimit="1.5" stroke-linecap="round" stroke-linejoin="round"/>
<path d="M153 73.0001C154.065 74.6167 154.247 75.1566 155.238 76.819" stroke="#25316D" stroke-width="2" stroke-miterlimit="1.5" stroke-linecap="round" stroke-linejoin="round"/>
<path d="M210.012 72.2369C210 70.9362 210.025 69.6358 210.151 68.3592C210.468 65.3245 211.898 62.6751 213.531 64.7224C213.809 65.0596 214.05 65.4929 214.252 65.9746C215.822 69.8283 214.72 75.4885 212.797 78.0417C212 79.1014 210.962 79.9203 210 80.2576" stroke="#25316D" stroke-width="2" stroke-miterlimit="1.5" stroke-linecap="round" stroke-linejoin="round"/>
<path fill-rule="evenodd" clip-rule="evenodd" d="M233.5 237.5C233.5 237.5 236.258 255.791 242.758 254.791C254.792 252.94 274.28 247.965 266.805 203.578C255.925 205.46 233.679 230.202 237.583 220.565C241.487 210.931 256 212.5 256 204.5C256 204.5 255.33 195.93 255 193C253.373 178.556 259.428 149.563 246 144C238.77 141.004 232.275 150.243 232.275 150.243L227.678 145.918C227.678 145.918 225.832 142.265 221.525 138.057C215.95 151.401 211.198 172.179 212.467 203.578L218.5 216C218.79 216.233 232.517 236.575 233.5 237.5Z" fill="#58B9FD"/>
<path d="M264.903 240.988C267.287 232.367 268.352 222.498 267.465 213.964" stroke="#25316D" stroke-width="2" stroke-miterlimit="1.5" stroke-linecap="round" stroke-linejoin="round"/>
<path d="M221.572 184C222.696 186.846 223.494 189.81 224.559 192.63C226.331 197.283 228.323 201.87 230.106 206.517" stroke="#25316D" stroke-width="2" stroke-miterlimit="1.5" stroke-linecap="round" stroke-linejoin="round"/>
<path d="M259 159.5C258 154 253.126 146.987 248.5 143.5C242.588 139.005 235.128 135.679 228 133.432" stroke="#25316D" stroke-width="2" stroke-miterlimit="1.5" stroke-linecap="round" stroke-linejoin="round"/>
<path d="M205.2 284.488L205.2 284.488L205.206 284.5C205.395 284.885 205.352 285.349 205.076 285.711C205.075 285.712 205.075 285.713 205.074 285.713L197.094 296.019H166.97L166.866 295.889L166.223 295.078C165.678 294.392 164.92 293.436 164.068 292.364C162.365 290.218 160.287 287.601 158.788 285.718L158.785 285.714C158.52 285.384 158.458 284.908 158.653 284.492C158.748 284.298 158.894 284.135 159.075 284.021C159.257 283.906 159.467 283.845 159.681 283.843C159.682 283.843 159.683 283.843 159.683 283.843L204.181 283.843H204.183C204.395 283.843 204.603 283.903 204.783 284.017C204.963 284.131 205.108 284.294 205.2 284.488ZM262.569 194.025L262.568 194.027C259.999 208.635 251.517 256.874 249.323 269.361C249.105 270.597 248.033 271.495 246.787 271.495H117.441C116.212 271.495 115.146 270.613 114.91 269.388C113.759 263.364 110.984 248.856 108.113 233.85C105.082 218.005 101.944 201.605 100.501 194.052L100.501 194.051C100.358 193.307 100.553 192.528 101.047 191.917C101.541 191.325 102.272 190.977 103.032 190.977L260.032 190.977L260.033 190.977C260.409 190.976 260.779 191.058 261.12 191.217C261.46 191.377 261.762 191.609 262.003 191.899L262.004 191.9C262.495 192.489 262.702 193.274 262.569 194.025Z" fill="white" stroke="#25316D" stroke-width="2"/>
<path d="M182.092 228.496C190.241 228.496 196.859 235.136 196.859 243.323V296.024H167.324V243.323C167.324 235.136 173.939 228.496 182.092 228.496Z" fill="white" stroke="#25316D" stroke-width="2"/>
<path fill-rule="evenodd" clip-rule="evenodd" d="M188.87 243.265C188.87 239.504 185.834 236.457 182.091 236.457C178.348 236.457 175.314 239.504 175.314 243.265V255.44C175.314 259.194 178.348 262.24 182.091 262.24C185.834 262.24 188.87 259.194 188.87 255.44V243.265Z" fill="#58B9FD"/>
<path d="M120 268.011L106.463 198.382C106.223 197.147 107.169 196 108.426 196H225" stroke="#25316D" stroke-width="2"/>
<path d="M225.332 250.983C225.692 250.983 225.986 251.274 225.986 251.64V257.877C225.986 258.242 225.692 258.533 225.332 258.533H222.875C222.511 258.533 222.221 258.242 222.221 257.877V251.64C222.221 251.274 222.511 250.983 222.875 250.983H225.332Z" fill="#686868"/>
<path d="M234.646 250.983C235.005 250.983 235.3 251.274 235.3 251.64V257.877C235.3 258.242 235.005 258.533 234.646 258.533H232.188C231.825 258.533 231.535 258.242 231.535 257.877V251.64C231.535 251.274 231.825 250.983 232.188 250.983H234.646Z" fill="#686868"/>
<path d="M472.939 151.567L472.037 150.978L471.517 151.921C470.919 153.005 470.298 154.087 469.654 155.17C468.68 156.807 466.859 157.802 464.885 157.802H438.554C436.58 157.802 434.76 156.807 433.785 155.17C433.141 154.087 432.52 153.005 431.922 151.921L431.402 150.978L430.5 151.567L416.332 160.814C414.955 161.713 413.112 160.973 412.741 159.429L408.494 141.737L408.494 141.736C408.313 140.984 408.531 140.191 409.079 139.628L409.103 139.603L409.126 139.577L419.243 127.636L421.781 125.052L422.152 124.675L422.049 124.156C417.144 99.5068 425.144 77.2392 448.29 57.4349C450.256 55.7537 453.183 55.7538 455.149 57.435C478.224 77.178 486.181 99.7697 481.362 124.351L481.267 124.836L481.594 125.207L494.328 139.593L494.343 139.611L494.36 139.628C494.908 140.191 495.126 140.985 494.945 141.736L494.945 141.737L490.699 159.429C490.699 159.429 490.698 159.429 490.698 159.429C490.327 160.973 488.484 161.713 487.107 160.814L472.939 151.567Z" fill="white" stroke="#25316D" stroke-width="2"/>
<path d="M439.953 96.5161C439.953 102.913 445.22 108.099 451.718 108.099C458.215 108.099 463.482 102.913 463.482 96.5161C463.482 90.1187 458.215 84.9324 451.718 84.9324C445.22 84.9324 439.953 90.1187 439.953 96.5161Z" fill="#CB2027"/>
<ellipse cx="451.719" cy="133.061" rx="9.54685" ry="9.36672" fill="#CB2027"/>
<path fill-rule="evenodd" clip-rule="evenodd" d="M461.783 133.061C461.783 138.559 457.277 143.017 451.719 143.017C446.16 143.017 441.654 138.559 441.654 133.061C441.654 127.562 446.16 123.105 451.719 123.105C457.277 123.105 461.783 127.562 461.783 133.061ZM449.996 130.721C449.996 131.273 450.449 131.725 451.002 131.725H452.009C453.669 131.725 455.028 133.082 455.028 134.74C455.028 136.247 453.921 137.453 452.512 137.704V138.759C452.512 139.311 452.059 139.764 451.506 139.764C450.952 139.764 450.499 139.311 450.499 138.759V137.704C449.09 137.453 447.983 136.247 447.983 134.74C447.983 134.187 448.436 133.735 448.99 133.735C449.543 133.735 449.996 134.187 449.996 134.74C449.996 135.292 450.449 135.744 451.002 135.744H452.009C452.562 135.744 453.015 135.292 453.015 134.74C453.015 134.187 452.562 133.735 452.009 133.735H451.002C449.342 133.735 447.983 132.379 447.983 130.721C447.983 129.214 449.09 128.008 450.499 127.757V126.702C450.499 126.149 450.952 125.697 451.506 125.697C452.059 125.697 452.512 126.149 452.512 126.702V127.757C453.921 128.008 455.028 129.214 455.028 130.721C455.028 131.273 454.575 131.725 454.022 131.725C453.468 131.725 453.015 131.273 453.015 130.721C453.015 130.168 452.562 129.716 452.009 129.716H451.002C450.449 129.716 449.996 130.168 449.996 130.721Z" fill="white"/>
<path d="M442.128 170.217C442.128 183.989 440.697 220.091 438.931 220.091C437.166 220.091 435.734 183.989 435.734 170.217C435.734 156.445 437.166 170.217 438.931 170.217C440.697 170.217 442.128 156.445 442.128 170.217Z" fill="#25316D"/>
<path d="M467.705 170.217C467.705 183.989 466.273 220.091 464.508 220.091C462.742 220.091 461.311 183.989 461.311 170.217C461.311 156.445 462.742 170.217 464.508 170.217C466.273 170.217 467.705 156.445 467.705 170.217Z" fill="#25316D"/>
<path d="M454.918 179.169C454.918 192.941 453.486 229.043 451.72 229.043C449.955 229.043 448.523 192.941 448.523 179.169C448.523 165.396 449.955 179.169 451.72 179.169C453.486 179.169 454.918 165.396 454.918 179.169Z" fill="#25316D"/>
<circle cx="469.651" cy="247.969" r="18.9265" fill="#CB2027"/>
<circle cx="433.79" cy="247.969" r="18.9265" fill="#CB2027"/>
<circle cx="451.721" cy="265.9" r="18.9265" fill="#CB2027"/>
</svg>
