<svg width="588" height="340" viewBox="0 0 588 340" fill="none" xmlns="http://www.w3.org/2000/svg">
<path d="M45 260.103H295" stroke="#25316D" stroke-width="2" stroke-linecap="round" stroke-linejoin="round"/>
<path d="M101.086 269.31L101.23 269.205L101.329 269.056C102.104 267.895 103.501 267.201 105.439 266.988C107.373 266.774 109.708 267.06 112.107 267.72C114.497 268.377 116.895 269.391 118.938 270.582C120.996 271.782 122.625 273.122 123.548 274.398C127.463 279.809 126.755 286.688 122.419 289.852C121.421 290.58 119.804 291.033 117.742 291.146C115.707 291.258 113.358 291.033 111.01 290.52C108.664 290.007 106.353 289.214 104.392 288.212C102.417 287.204 100.866 286.021 99.9566 284.764C96.0419 279.353 96.7496 272.474 101.086 269.31Z" fill="white" stroke="#25316D" stroke-width="2"/>
<path d="M123.968 288.047C122.715 286.637 120.02 283.816 119.268 283.816" stroke="#25316D" stroke-width="2"/>
<path d="M183.5 271.5C189.5 285 199 313.037 175 310.5C161.507 309.074 164.795 300.54 168 298.5C173.5 295 175.854 297.358 178 301C181.626 307.153 175.775 315.065 161.5 312.5C138.504 308.368 149 303.5 139.5 296C136.34 293.505 128.761 291.64 124.5 289.5" stroke="#303030" stroke-width="2" stroke-linecap="round"/>
<path d="M120.809 278.92L120.804 278.923C120.514 279.097 120.128 279.027 119.913 278.749C118.988 277.534 117.454 275.621 115.639 273.729C113.834 271.849 111.697 269.932 109.564 268.768L108.563 270.481C108.555 270.494 108.555 270.494 108.554 270.493L108.555 270.494L108.556 270.495L108.571 270.504C108.585 270.513 108.607 270.527 108.637 270.547C108.697 270.587 108.787 270.648 108.902 270.73C109.132 270.894 109.46 271.139 109.838 271.456C110.601 272.095 111.548 273.01 112.333 274.131C113.118 275.253 113.711 276.541 113.832 277.94C113.949 279.307 113.623 280.863 112.44 282.575C111.735 283.408 110.494 283.843 109.936 284.026L109.824 284.063L109.724 284.124L109.724 284.124L109.723 284.124L109.722 284.126L109.713 284.131L109.677 284.152C109.665 284.16 109.65 284.169 109.632 284.179C109.605 284.196 109.572 284.216 109.533 284.239C109.407 284.313 109.223 284.42 108.996 284.547C108.541 284.801 107.922 285.132 107.256 285.442C106.584 285.755 105.893 286.033 105.29 286.196C104.633 286.375 104.284 286.358 104.171 286.317L103.529 286.084L103.083 286.593L103.083 286.593L103.082 286.594C103.082 286.594 103.081 286.595 103.08 286.596C103.078 286.598 103.074 286.602 103.069 286.608C103.065 286.612 103.06 286.617 103.055 286.623C103.029 286.649 102.987 286.69 102.931 286.742C102.816 286.846 102.648 286.984 102.44 287.115C102.02 287.379 101.516 287.567 100.983 287.505C100.981 287.502 100.879 287.465 100.661 287.294C100.421 287.107 100.13 286.83 99.7983 286.474C99.1376 285.764 98.3935 284.822 97.6856 283.864C96.981 282.91 96.3275 281.962 95.8492 281.25C95.6104 280.895 95.416 280.6 95.2816 280.394C95.2144 280.291 95.1623 280.211 95.1271 280.156L95.0874 280.094L95.0775 280.079L95.0752 280.075L95.0747 280.074L95.0746 280.074L95.0746 280.074L94.8833 279.775L94.546 279.663L94.5459 279.663L94.5458 279.663L94.5451 279.663L94.5402 279.661L94.5181 279.654C94.4981 279.647 94.4674 279.636 94.4268 279.622C94.3455 279.594 94.2246 279.552 94.0694 279.496C93.7589 279.384 93.3118 279.218 92.7713 279.002C91.6884 278.569 90.2408 277.942 88.7702 277.16C87.2934 276.375 85.8288 275.452 84.6897 274.438C83.5385 273.414 82.8311 272.395 82.651 271.429L82.6487 271.414C82.6459 271.394 82.6414 271.361 82.636 271.316C82.6253 271.227 82.6109 271.091 82.5981 270.914C82.5724 270.559 82.5536 270.045 82.5833 269.424C82.6431 268.176 82.8973 266.529 83.6598 264.883C84.417 263.249 85.6814 261.601 87.797 260.33C89.8858 259.074 92.8601 258.153 97.0997 258.029C97.1068 258.032 97.1141 258.035 97.1216 258.038C97.2627 258.098 97.4724 258.187 97.7422 258.306C98.282 258.544 99.0619 258.9 100.014 259.367C101.921 260.302 104.512 261.68 107.252 263.452C112.775 267.025 118.718 272.081 121.057 278.19C121.152 278.438 121.067 278.744 120.809 278.92Z" fill="white" stroke="#25316D" stroke-width="2"/>
<path fill-rule="evenodd" clip-rule="evenodd" d="M113.5 148C131 187.5 99.0005 222.5 99.0005 222.5C99.0005 222.5 97.9907 229.121 97.5005 232C95.6671 242.769 100.5 256 100.5 256C100.5 256 95.5005 262 85.3045 271.186C85.0961 271.618 81.3045 273.186 80.3045 272.186C80.3045 272.186 80.3568 263.224 78.5005 257C70.5097 230.207 74.5005 215 74.5005 215C80.6111 200.899 89.4432 179.901 96.0005 165.5C101.966 152.389 105.621 157.078 113.5 148Z" fill="#58B9FD"/>
<path d="M91 177.5C93 174 94.8416 170.693 96 167.5C97.4673 163.4 101.664 157.478 104.501 154.1" stroke="#25316D" stroke-width="2" stroke-miterlimit="1.5" stroke-linecap="round" stroke-linejoin="round"/>
<path d="M131.859 174.749C134.899 189.083 134.443 205.364 129.773 219.305M141.362 172.735C143.244 179.165 143.499 185.841 143.477 192.502C143.484 201.041 142.675 209.701 139.766 217.795" stroke="#25316D" stroke-width="2" stroke-miterlimit="1.5" stroke-linecap="round" stroke-linejoin="round"/>
<path d="M82.4996 218C84.584 227.38 92.5865 219.09 97.9995 223M80.4997 258.5C83.9997 256.5 83.7184 251.926 96.4997 250.5" stroke="#25316D" stroke-width="2" stroke-miterlimit="1.5" stroke-linecap="round" stroke-linejoin="round"/>
<path d="M223.5 132C229.1 138.4 226.833 146.333 225 149.5C220.5 144 203 141 201 140C199.574 139.287 194.337 136.139 191.091 134.165C192.185 135.388 190.681 137.755 179 141C164.6 145 156 137.667 153.5 133.5L143 139L124 143.5C123.667 144.5 121.7 145.9 116.5 143.5C110 140.5 111.5 132 113 128.5C114.5 125 132 112.5 137.5 108C141.9 104.4 137.667 87.1667 135 79C134.667 70.8334 138.8 52.2001 158 43.0001C182 31.5001 201.5 46.0001 202 46.5001C202.5 47.0001 202.5 49.0001 208 60.0001C212.053 68.1057 211.892 73.4398 211.19 75.5336C211.588 76.0974 212.42 77.6427 214 81C218 89.5 214 93 210 97.5C206 102 209 102.5 208 105C207 107.5 207 113.5 209 117.5C211 121.5 216.5 124 223.5 132Z" fill="white"/>
<path fill-rule="evenodd" clip-rule="evenodd" d="M181.934 146.275C181.505 146.525 181.075 146.835 180.732 147.199C178.7 149.271 179.987 152.444 180.846 154.751C181.047 155.361 181.275 155.973 181.505 156.575C181.791 157.289 182.105 157.995 182.42 158.696C183.164 160.32 183.966 162.998 186.284 162.585C188.347 162.213 187.145 159.793 186.486 158.762C184.826 156.239 183.508 153.331 183.022 150.337C182.792 148.928 182.908 147.266 184.366 146.589" fill="#DAE8F1"/>
<path fill-rule="evenodd" clip-rule="evenodd" d="M184.024 161.011C180.991 165.506 179.96 170.613 180.303 175.954C180.417 177.952 180.619 180.036 181.276 181.938C182.106 184.334 182.193 186.681 184.024 188.463C184.969 189.382 188.232 189.734 188.805 188.463C189.692 186.484 187.859 184.005 187.203 182.207C186.143 179.286 185.885 176.095 186.257 173.015C186.745 168.691 190.209 164.326 187.174 160.165" fill="#DAE8F1"/>
<path fill-rule="evenodd" clip-rule="evenodd" d="M227.814 151.541C227.814 151.541 216.204 141.4 193.988 139.09C193.988 139.09 192.871 135.366 190.123 134.355C190.123 134.355 184.998 141.772 173.776 142.407C162.527 143.044 157.001 136.661 154.11 134.033C154.11 134.033 152.164 134.42 150.789 135.768L149.902 136.574C149.902 136.574 127.173 142.086 120.359 144.62C113.546 147.15 112 148.759 112 148.759V197C112 197 118.692 217.429 120.359 231C122.074 244.954 122 260 122 260L162 264.5L184.597 189.362C184.597 189.362 179.988 182.439 179.988 175.729C179.96 169.015 182.764 163.224 183.938 160.393C183.938 160.393 179.016 152.032 179.846 148.145C180.676 144.256 186.086 146.587 188.72 148.442C191.325 150.295 195.474 154.497 195.474 154.497C195.474 154.497 203.061 150.329 211.666 151.946C220.26 153.563 224.665 155.418 224.665 155.418L227.814 151.541ZM256 189.362C256 189.362 250.117 170.018 235.97 158.292L234.922 163.173C234.922 163.173 238.449 167.333 238.298 173.498C238.146 179.664 236.274 184.865 231.874 189.362H256Z" fill="#58B9FD"/>
<path d="M185.771 47.396C186.717 47.9777 187.518 48.7018 188.234 49.5479C192.613 54.6551 190.237 62.2376 185.342 66.0024M172.459 49.5682C176.354 53.7073 176.925 60.8281 172.402 64.7373" stroke="#25316D" stroke-width="2" stroke-miterlimit="1.5" stroke-linecap="round" stroke-linejoin="round"/>
<path d="M202.26 66.6126C203.292 65.8275 204.178 64.9387 204.951 63.9075C208.586 58.9895 206.698 52.6477 203.062 48.2625C199.311 43.7574 194.188 41.4062 188.519 40.3811C186.172 39.958 182.853 39.7546 179.932 39.8319M208.387 60.4783C211.944 64.896 212.786 71.0507 210.886 76.3368M163.042 54.106C161.897 57.34 161.696 60.7753 162.355 64.1374C163.071 67.9469 164.73 71.3476 164.56 75.3361C164.415 78.5375 163.042 81.3728 161.039 83.8115M178.958 78.0026C176.354 76.3572 173.348 75.9585 170.629 77.5775M199.97 78.7165C197.251 77.4311 193.901 76.9694 191.182 78.5579M186.888 81.2061C185.428 84.9566 185.544 89.5716 186.831 93.373C187.146 94.2985 187.547 95.2157 188.062 96.0517C188.176 96.2734 188.806 96.8571 188.834 97.0849C188.863 97.1744 187.689 97.4571 187.547 97.4897C186.144 97.8538 184.712 98.1182 183.225 98.1019M186.774 107.832C183.166 108.656 178.586 107.846 176.783 104.181M208.273 104.757C207.614 106.589 207.185 108.465 207.099 110.407C206.755 119.603 215.418 123.544 221.166 128.979C225.274 132.86 227.371 138.119 226.842 143.749C226.676 145.535 226.31 147.313 225.549 148.95M203.863 116.031C204.321 119.104 205.295 122.031 207.384 124.388C210.339 127.683 214.486 129.402 216.699 133.415M217.93 135.754C218.44 136.669 218.853 137.67 219.081 138.695M160.923 41.5323C138.108 48.9643 134.758 67.9754 135.932 83.5674C136.534 91.4489 140.484 99.845 137.651 107.663C136.333 111.235 132.84 113.82 129.806 115.864C123.881 119.867 116.783 122.757 112.975 129.225M235.027 163.611C240.059 170.186 239.518 181.357 233.394 187.07M235.173 161.969C236.309 158.497 237.202 154.787 237.551 151.143C237.672 149.902 237.763 147.862 236.235 147.384C234.382 146.804 232.57 147.579 231.1 148.714C228.777 150.502 226.94 152.819 224.766 154.767M224.666 155.418C222.895 154.442 220.983 153.921 219.053 153.347C211.519 151.114 202.948 151.196 195.648 154.295M194.216 153.107C191.639 150.488 188.519 147.815 185.027 146.579C183.538 146.06 181.535 145.787 180.39 147.091C179.387 148.238 179.702 150.079 180.046 151.415C180.876 154.582 182.279 157.578 183.939 160.393M183.253 162.632C178.958 169.588 179.074 179.841 183.31 186.797M192.156 118.736C191.383 124.012 190.724 129.274 189.809 134.525M157.146 108.975C156.172 117.168 154.884 125.308 153.796 133.484M188.434 136.627C180.103 143.096 169.254 144.543 160.065 139.173C157.803 137.853 155.629 136.201 154.111 134.033" stroke="#25316D" stroke-width="2" stroke-miterlimit="1.5" stroke-linecap="round" stroke-linejoin="round"/>
<path d="M192.755 136.462C195.074 139.057 195.762 143.554 193.386 146.367C192.298 147.634 190.752 148.313 189.149 148.659M178.5 153.587C174.007 158.074 165.017 156.768 162.126 151.069M151.906 134.883C147.155 137.908 144.893 144.53 148.843 149.135C149.587 149.995 150.474 150.724 151.448 151.303C154.654 153.217 158.232 152.863 161.638 151.871M139.597 143.29C132.039 144.858 124.94 147.866 118.385 151.962M133.3 150.781C131.524 151.275 129.291 151.696 127.773 152.841" stroke="#25316D" stroke-width="2" stroke-miterlimit="1.5" stroke-linecap="round" stroke-linejoin="round"/>
<path d="M153.481 138.093C155.828 141.262 159.379 143.709 163.128 144.913C164.33 145.295 165.591 145.696 166.85 145.736M214.102 179.046C213.799 180.008 213.264 180.995 212.336 181.477C210.63 182.363 209.131 180.635 209.017 179.075M203.91 179.046C204.213 180.008 204.748 180.995 205.675 181.477C207.382 182.363 208.883 180.635 208.997 179.075M206.469 70.949C206.469 83.2156 205.352 95.4903 203.349 107.771C203.09 109.24 202.374 110.592 201.315 111.619C195.16 117.41 188.175 120.493 180.56 121.582C179.989 121.659 179.417 121.612 178.872 121.447C170.944 119.009 163.701 114.723 157.146 108.684M208.157 78.6881C209.847 80.7484 210.457 83.3966 210.634 85.996C210.799 88.4367 210.543 91.0076 209.273 93.1574C208.273 94.8537 206.727 96.1412 205.094 97.1968M206.841 74.6283C208.301 75.3016 209.703 76.1172 210.86 77.2826C213.404 79.8718 214.673 84.1085 214.879 87.6617" stroke="#25316D" stroke-width="2" stroke-miterlimit="1.5" stroke-linecap="round" stroke-linejoin="round"/>
<path d="M214.223 91.3166C212.589 96.0089 209.244 99.5438 204.348 100.746M154.883 77.614C161.495 81.6188 163.299 91.2657 160.981 98.1587C160.322 100.119 159.435 102.041 158.003 103.561" stroke="#25316D" stroke-width="2" stroke-miterlimit="1.5" stroke-linecap="round" stroke-linejoin="round"/>
<path d="M149.989 77.3905C154.569 79.9146 157.661 85.8272 157.862 91.0259M158.118 94.0931C157.919 98.108 157.717 102.349 155.199 105.682M149.415 77.3213C143.891 79.7722 141.342 85.4367 141.43 91.2781M154.827 106.083C148.241 105.835 142.632 100.858 141.745 94.2782M176.727 39.3723C163.014 46.3975 155.456 58.2248 155.199 75.7471" stroke="#25316D" stroke-width="2" stroke-miterlimit="1.5" stroke-linecap="round" stroke-linejoin="round"/>
<path d="M165.236 40.6638C153.27 47.811 148.517 59.2559 148.289 75.747M173.117 39C170.026 39.2197 167.622 40.0617 165.246 40.6617" stroke="#25316D" stroke-width="2" stroke-miterlimit="1.5" stroke-linecap="round" stroke-linejoin="round"/>
<path d="M195.668 87.6677C194.561 87.6677 193.664 86.7707 193.664 85.6643C193.664 84.5558 194.561 83.6588 195.668 83.6588C196.774 83.6588 197.671 84.5558 197.671 85.6643C197.671 86.7707 196.774 87.6677 195.668 87.6677ZM175.939 87.6677C174.832 87.6677 173.935 86.7707 173.935 85.6643C173.935 84.5558 174.832 83.6588 175.939 83.6588C177.045 83.6588 177.942 84.5558 177.942 85.6643C177.942 86.7707 177.045 87.6677 175.939 87.6677ZM223.763 174.405C222.445 174.405 221.377 173.337 221.377 172.019C221.377 170.701 222.445 169.631 223.763 169.631C225.081 169.631 226.15 170.701 226.15 172.019C226.15 173.337 225.081 174.405 223.763 174.405ZM196.321 174.405C195.003 174.405 193.935 173.337 193.935 172.019C193.935 170.701 195.003 169.631 196.321 169.631C197.639 169.631 198.707 170.701 198.707 172.019C198.707 173.337 197.639 174.405 196.321 174.405Z" fill="#25316D"/>
<path d="M178.974 121.49C182.786 121.988 192.115 118.433 192.115 118.433L191.743 122.342C185.794 125.72 178.974 126.052 178.974 126.052C167.505 122.401 160.006 111.534 160.006 111.534C163.197 113.663 175.193 120.988 178.974 121.49Z" fill="#25316D"/>
<path d="M113 138.212C113.933 140.505 116.089 143.081 118.668 143.53" stroke="#25316D" stroke-width="2" stroke-miterlimit="1.5" stroke-linecap="round" stroke-linejoin="round"/>
<path d="M215.2 283.488L215.2 283.488L215.206 283.5C215.395 283.885 215.352 284.349 215.076 284.711C215.075 284.712 215.075 284.713 215.074 284.713L207.094 295.019H176.97L176.866 294.889L176.223 294.078C175.678 293.392 174.92 292.436 174.068 291.364C172.365 289.218 170.287 286.601 168.788 284.718L168.785 284.714C168.52 284.384 168.458 283.908 168.653 283.492C168.748 283.298 168.894 283.135 169.075 283.021C169.257 282.906 169.467 282.845 169.681 282.843C169.682 282.843 169.683 282.843 169.683 282.843L214.181 282.843H214.183C214.395 282.843 214.603 282.903 214.783 283.017C214.963 283.131 215.108 283.294 215.2 283.488ZM272.569 193.025L272.568 193.027C269.999 207.635 261.517 255.874 259.323 268.361C259.105 269.597 258.033 270.495 256.787 270.495H127.441C126.212 270.495 125.146 269.613 124.91 268.388C123.759 262.364 120.984 247.856 118.113 232.85C115.082 217.005 111.944 200.605 110.501 193.052L110.501 193.051C110.358 192.307 110.553 191.528 111.047 190.917C111.541 190.325 112.272 189.977 113.032 189.977L270.032 189.977L270.033 189.977C270.409 189.976 270.779 190.058 271.12 190.217C271.46 190.377 271.762 190.609 272.003 190.899L272.004 190.9C272.495 191.489 272.702 192.274 272.569 193.025Z" fill="white" stroke="#25316D" stroke-width="2"/>
<path d="M192.092 227.496C200.241 227.496 206.859 234.136 206.859 242.323V295.024H177.324V242.323C177.324 234.136 183.939 227.496 192.092 227.496Z" fill="white" stroke="#25316D" stroke-width="2"/>
<path fill-rule="evenodd" clip-rule="evenodd" d="M198.87 242.265C198.87 238.504 195.834 235.457 192.091 235.457C188.348 235.457 185.314 238.504 185.314 242.265V254.44C185.314 258.194 188.348 261.24 192.091 261.24C195.834 261.24 198.87 258.194 198.87 254.44V242.265Z" fill="#58B9FD"/>
<path d="M130 267.011L116.463 197.382C116.223 196.147 117.169 195 118.426 195H235" stroke="#25316D" stroke-width="2"/>
<path d="M235.332 249.983C235.692 249.983 235.986 250.274 235.986 250.639V256.876C235.986 257.242 235.692 257.533 235.332 257.533H232.875C232.511 257.533 232.221 257.242 232.221 256.876V250.639C232.221 250.274 232.511 249.983 232.875 249.983H235.332Z" fill="#686868"/>
<path d="M244.646 249.983C245.005 249.983 245.3 250.274 245.3 250.639V256.876C245.3 257.242 245.005 257.533 244.646 257.533H242.188C241.825 257.533 241.535 257.242 241.535 256.876V250.639C241.535 250.274 241.825 249.983 242.188 249.983H244.646Z" fill="#686868"/>
<path d="M101.346 43C101.388 45.2331 101.536 47.5089 101.641 49.7422M101.599 57.3863V64M93 53.5215H97.9573M104.803 53.4785C106.531 53.3496 108.263 53.1771 110 53.2202" stroke="#25316D" stroke-width="2" stroke-miterlimit="1.5" stroke-linecap="round" stroke-linejoin="round"/>
<path d="M430.387 245.143V229.675" stroke="#25316D" stroke-width="2" stroke-linecap="round"/>
<path d="M502.536 136.16H357.693C354.975 136.16 352.771 138.363 352.771 141.082V223.714C352.771 226.432 354.975 228.636 357.693 228.636H502.536C505.254 228.636 507.458 226.432 507.458 223.714V141.082C507.458 138.363 505.254 136.16 502.536 136.16Z" fill="white" stroke="#25316D" stroke-width="2"/>
<path d="M360.678 142.785H424.318C424.865 142.785 425.599 143.384 425.599 144.514V201.633C425.599 202.764 424.865 203.363 424.318 203.363H360.678C360.131 203.363 359.396 202.764 359.396 201.633V144.514C359.396 143.384 360.131 142.785 360.678 142.785Z" fill="#CFE3FF" stroke="white" stroke-width="2"/>
<path d="M435.912 142.785H499.552C500.099 142.785 500.833 143.384 500.833 144.514V201.633C500.833 202.764 500.099 203.363 499.552 203.363H435.912C435.365 203.363 434.631 202.764 434.631 201.633V144.514C434.631 143.384 435.365 142.785 435.912 142.785Z" fill="#CFE3FF" stroke="white" stroke-width="2"/>
<path d="M471.829 129.043L471.829 129.043C471.071 129.703 470.25 130 469.466 130C468.682 130 467.86 129.703 467.103 129.043L467.103 129.043L453.659 117.34C453.659 117.34 453.659 117.34 453.659 117.34C452.575 116.396 451.298 115.891 449.983 115.891C448.668 115.891 447.391 116.396 446.307 117.34C446.307 117.34 446.307 117.34 446.307 117.34L432.863 129.043L432.863 129.043C432.105 129.703 431.284 130 430.5 130C429.716 130 428.895 129.703 428.137 129.043L428.137 129.043L414.694 117.34C413.61 116.396 412.332 115.891 411.017 115.891C409.702 115.891 408.425 116.396 407.341 117.34L393.898 129.043L394.554 129.797L393.898 129.043C393.14 129.703 392.319 130 391.534 130C390.75 130 389.929 129.703 389.171 129.043L388.515 129.797L389.171 129.043L375.728 117.34C374.644 116.396 373.366 115.891 372.052 115.891C370.737 115.891 369.459 116.396 368.375 117.34L354.504 129.416C354.504 129.416 354.504 129.416 354.504 129.416C354.458 129.456 354.428 129.469 354.418 129.473C354.412 129.475 354.409 129.475 354.408 129.476C354.408 129.476 354.408 129.476 354.408 129.476C354.408 129.476 354.408 129.476 354.408 129.476L354.407 129.476L354.404 129.475C354.4 129.474 354.394 129.472 354.386 129.469C354.369 129.461 354.34 129.445 354.304 129.414C354.15 129.278 353.952 128.921 354.01 128.382L353.016 128.275L354.01 128.382L358.504 86.6595C358.883 83.1446 361.016 81 363.067 81H497.933C499.985 81 502.117 83.1445 502.496 86.6594C502.496 86.6595 502.496 86.6595 502.496 86.6596L506.99 128.382C507.048 128.921 506.849 129.278 506.696 129.414C506.66 129.445 506.632 129.461 506.614 129.469C506.606 129.472 506.6 129.474 506.596 129.475L506.593 129.476L506.592 129.476L506.592 129.476L506.592 129.476C506.591 129.475 506.588 129.475 506.582 129.473C506.572 129.469 506.542 129.455 506.496 129.416L492.625 117.34C492.625 117.34 492.625 117.34 492.625 117.34C491.541 116.396 490.263 115.891 488.949 115.891C487.634 115.891 486.356 116.396 485.272 117.34C485.272 117.34 485.272 117.34 485.272 117.34L471.829 129.043Z" fill="white" stroke="#CB2027" stroke-width="2"/>
<path d="M392.841 96.228V106H390.881V99.644L388.263 106H386.779L384.147 99.644V106H382.187V96.228H384.413L387.521 103.494L390.629 96.228H392.841ZM400.771 104.138H396.879L396.235 106H394.177L397.691 96.214H399.973L403.487 106H401.415L400.771 104.138ZM400.239 102.57L398.825 98.482L397.41 102.57H400.239ZM409.84 106L407.684 102.192H406.76V106H404.8V96.228H408.468C409.224 96.228 409.868 96.3633 410.4 96.634C410.932 96.8953 411.329 97.2547 411.59 97.712C411.861 98.16 411.996 98.664 411.996 99.224C411.996 99.868 411.809 100.451 411.436 100.974C411.063 101.487 410.507 101.842 409.77 102.038L412.108 106H409.84ZM406.76 100.722H408.398C408.93 100.722 409.327 100.596 409.588 100.344C409.849 100.083 409.98 99.7233 409.98 99.266C409.98 98.818 409.849 98.4727 409.588 98.23C409.327 97.978 408.93 97.852 408.398 97.852H406.76V100.722ZM419.285 106L415.729 101.646V106H413.769V96.228H415.729V100.61L419.285 96.228H421.651L417.619 101.072L421.763 106H419.285ZM425.012 97.81V100.26H428.302V101.814H425.012V104.404H428.722V106H423.052V96.214H428.722V97.81H425.012ZM437.153 96.228V97.81H434.549V106H432.589V97.81H429.985V96.228H437.153ZM445.709 99.252C445.709 99.7747 445.583 100.265 445.331 100.722C445.089 101.179 444.701 101.548 444.169 101.828C443.647 102.108 442.984 102.248 442.181 102.248H440.543V106H438.583V96.228H442.181C442.937 96.228 443.581 96.3587 444.113 96.62C444.645 96.8813 445.042 97.2407 445.303 97.698C445.574 98.1553 445.709 98.6733 445.709 99.252ZM442.097 100.666C442.639 100.666 443.04 100.545 443.301 100.302C443.563 100.05 443.693 99.7 443.693 99.252C443.693 98.3 443.161 97.824 442.097 97.824H440.543V100.666H442.097ZM449.061 104.446H452.281V106H447.101V96.228H449.061V104.446ZM459.519 104.138H455.627L454.983 106H452.925L456.439 96.214H458.721L462.235 106H460.163L459.519 104.138ZM458.987 102.57L457.573 98.482L456.159 102.57H458.987ZM463.072 101.1C463.072 100.139 463.287 99.28 463.716 98.524C464.155 97.7587 464.747 97.166 465.494 96.746C466.25 96.3167 467.095 96.102 468.028 96.102C469.12 96.102 470.077 96.382 470.898 96.942C471.719 97.502 472.293 98.2767 472.62 99.266H470.366C470.142 98.7993 469.825 98.4493 469.414 98.216C469.013 97.9827 468.546 97.866 468.014 97.866C467.445 97.866 466.936 98.0013 466.488 98.272C466.049 98.5333 465.704 98.9067 465.452 99.392C465.209 99.8773 465.088 100.447 465.088 101.1C465.088 101.744 465.209 102.313 465.452 102.808C465.704 103.293 466.049 103.671 466.488 103.942C466.936 104.203 467.445 104.334 468.014 104.334C468.546 104.334 469.013 104.217 469.414 103.984C469.825 103.741 470.142 103.387 470.366 102.92H472.62C472.293 103.919 471.719 104.698 470.898 105.258C470.086 105.809 469.129 106.084 468.028 106.084C467.095 106.084 466.25 105.874 465.494 105.454C464.747 105.025 464.155 104.432 463.716 103.676C463.287 102.92 463.072 102.061 463.072 101.1ZM476.254 97.81V100.26H479.544V101.814H476.254V104.404H479.964V106H474.294V96.214H479.964V97.81H476.254Z" fill="#25316D"/>
<path d="M454.14 245.418H406.633" stroke="#25316D" stroke-width="2" stroke-linecap="round"/>
<path d="M394.19 214.909H362.52" stroke="#CB2027" stroke-width="2" stroke-linecap="round"/>
<path d="M467.712 214.909H436.041" stroke="#CB2027" stroke-width="2" stroke-linecap="round"/>
<path d="M407.764 219.739H362.52" stroke="#CB2027" stroke-width="2" stroke-linecap="round"/>
<path d="M481.285 219.739H436.041" stroke="#CB2027" stroke-width="2" stroke-linecap="round"/>
</svg>
