<svg width="588" height="340" viewBox="0 0 588 340" fill="none" xmlns="http://www.w3.org/2000/svg">
<path d="M45 244.103H295" stroke="#25316D" stroke-width="2" stroke-linecap="round" stroke-linejoin="round"/>
<path d="M101.086 253.31L101.23 253.204L101.329 253.056C102.104 251.895 103.501 251.201 105.439 250.987C107.373 250.774 109.708 251.06 112.107 251.719C114.497 252.377 116.895 253.39 118.938 254.582C120.996 255.782 122.625 257.121 123.548 258.398C127.463 263.809 126.755 270.688 122.419 273.852C121.421 274.58 119.804 275.032 117.742 275.146C115.707 275.258 113.358 275.032 111.01 274.519C108.664 274.006 106.353 273.213 104.392 272.212C102.417 271.203 100.866 270.02 99.9566 268.764C96.0419 263.353 96.7496 256.474 101.086 253.31Z" fill="white" stroke="#25316D" stroke-width="2"/>
<path d="M123.968 272.046C122.715 270.636 120.02 267.816 119.268 267.816" stroke="#25316D" stroke-width="2"/>
<path d="M183.5 255.5C189.5 269 199 297.037 175 294.5C161.507 293.074 164.795 284.54 168 282.5C173.5 279 175.854 281.358 178 285C181.626 291.153 175.775 299.065 161.5 296.5C138.504 292.368 149 287.5 139.5 280C136.34 277.505 128.761 275.64 124.5 273.5" stroke="#303030" stroke-width="2" stroke-linecap="round"/>
<path d="M120.809 262.919L120.804 262.923C120.514 263.096 120.128 263.027 119.913 262.749C118.988 261.534 117.454 259.62 115.639 257.729C113.834 255.848 111.697 253.932 109.564 252.768L108.563 254.481C108.555 254.493 108.555 254.493 108.554 254.493L108.555 254.493L108.556 254.494L108.571 254.504C108.585 254.512 108.607 254.527 108.637 254.547C108.697 254.587 108.787 254.648 108.902 254.73C109.132 254.894 109.46 255.138 109.838 255.456C110.601 256.095 111.548 257.009 112.333 258.131C113.118 259.253 113.711 260.541 113.832 261.939C113.949 263.307 113.623 264.863 112.44 266.575C111.735 267.407 110.494 267.843 109.936 268.026L109.824 268.062L109.724 268.124L109.724 268.124L109.723 268.124L109.722 268.125L109.713 268.13L109.677 268.152C109.665 268.16 109.65 268.169 109.632 268.179C109.605 268.196 109.572 268.215 109.533 268.238C109.407 268.313 109.223 268.42 108.996 268.547C108.541 268.801 107.922 269.131 107.256 269.442C106.584 269.754 105.893 270.032 105.29 270.196C104.633 270.374 104.284 270.358 104.171 270.317L103.529 270.084L103.083 270.593L103.083 270.593L103.082 270.594C103.082 270.594 103.081 270.595 103.08 270.596C103.078 270.598 103.074 270.602 103.069 270.608C103.065 270.612 103.06 270.617 103.055 270.622C103.029 270.648 102.987 270.69 102.931 270.742C102.816 270.846 102.648 270.983 102.44 271.114C102.02 271.379 101.516 271.567 100.983 271.505C100.981 271.501 100.879 271.464 100.661 271.293C100.421 271.106 100.13 270.83 99.7983 270.473C99.1376 269.764 98.3935 268.821 97.6856 267.863C96.981 266.91 96.3275 265.962 95.8492 265.25C95.6104 264.895 95.416 264.599 95.2816 264.394C95.2144 264.291 95.1623 264.21 95.1271 264.156L95.0874 264.094L95.0775 264.079L95.0752 264.075L95.0747 264.074L95.0746 264.074L95.0746 264.074L94.8833 263.774L94.546 263.663L94.5459 263.663L94.5458 263.663L94.5451 263.662L94.5402 263.661L94.5181 263.653C94.4981 263.647 94.4674 263.636 94.4268 263.622C94.3455 263.594 94.2246 263.552 94.0694 263.496C93.7589 263.384 93.3118 263.217 92.7713 263.002C91.6884 262.569 90.2408 261.941 88.7702 261.159C87.2934 260.374 85.8288 259.452 84.6897 258.438C83.5385 257.414 82.8311 256.394 82.651 255.429L82.6487 255.413C82.6459 255.393 82.6414 255.361 82.636 255.316C82.6253 255.227 82.6109 255.09 82.5981 254.913C82.5724 254.559 82.5536 254.045 82.5833 253.423C82.6431 252.176 82.8973 250.528 83.6598 248.883C84.417 247.248 85.6814 245.601 87.797 244.329C89.8858 243.074 92.8601 242.152 97.0997 242.029C97.1068 242.032 97.1141 242.035 97.1216 242.038C97.2627 242.097 97.4724 242.187 97.7422 242.306C98.282 242.544 99.0619 242.9 100.014 243.367C101.921 244.302 104.512 245.68 107.252 247.452C112.775 251.024 118.718 256.08 121.057 262.19C121.152 262.438 121.067 262.743 120.809 262.919Z" fill="white" stroke="#25316D" stroke-width="2"/>
<path fill-rule="evenodd" clip-rule="evenodd" d="M113.5 132C131 171.5 99.0005 206.5 99.0005 206.5C99.0005 206.5 97.9907 213.12 97.5005 216C95.6671 226.768 100.5 240 100.5 240C100.5 240 95.5005 246 85.3045 255.185C85.0961 255.617 81.3045 257.185 80.3045 256.185C80.3045 256.185 80.3568 247.224 78.5005 241C70.5097 214.207 74.5005 199 74.5005 199C80.6111 184.898 89.4432 163.901 96.0005 149.5C101.966 136.388 105.621 141.077 113.5 132Z" fill="#58B9FD"/>
<path d="M91 161.5C93 158 94.8416 154.693 96 151.5C97.4673 147.4 101.664 141.477 104.501 138.1" stroke="#25316D" stroke-width="2" stroke-miterlimit="1.5" stroke-linecap="round" stroke-linejoin="round"/>
<path d="M131.859 158.748C134.899 173.083 134.443 189.363 129.773 203.305M141.362 156.734C143.244 163.165 143.499 169.84 143.477 176.502C143.484 185.041 142.675 193.701 139.766 201.794" stroke="#25316D" stroke-width="2" stroke-miterlimit="1.5" stroke-linecap="round" stroke-linejoin="round"/>
<path d="M82.4996 201.999C84.584 211.38 92.5865 203.089 97.9995 206.999M80.4997 242.499C83.9997 240.499 83.7184 235.926 96.4997 234.499" stroke="#25316D" stroke-width="2" stroke-miterlimit="1.5" stroke-linecap="round" stroke-linejoin="round"/>
<path d="M223.5 115.999C229.1 122.399 226.833 130.333 225 133.499C220.5 127.999 203 124.999 201 123.999C199.574 123.286 194.337 120.139 191.091 118.164C192.185 119.387 190.681 121.755 179 124.999C164.6 128.999 156 121.666 153.5 117.499L143 122.999L124 127.499C123.667 128.499 121.7 129.899 116.5 127.499C110 124.499 111.5 115.999 113 112.499C114.5 108.999 132 96.4993 137.5 91.9993C141.9 88.3993 137.667 71.1659 135 62.9993C134.667 54.8326 138.8 36.1993 158 26.9993C182 15.4993 201.5 29.9993 202 30.4993C202.5 30.9993 202.5 32.9993 208 43.9993C212.053 52.105 211.892 57.4391 211.19 59.5329C211.588 60.0967 212.42 61.642 214 64.9993C218 73.4993 214 76.9993 210 81.4993C206 85.9993 209 86.4993 208 88.9993C207 91.4993 207 97.4993 209 101.499C211 105.499 216.5 107.999 223.5 115.999Z" fill="white"/>
<path fill-rule="evenodd" clip-rule="evenodd" d="M181.934 130.274C181.505 130.525 181.075 130.834 180.732 131.198C178.7 133.27 179.987 136.443 180.846 138.75C181.047 139.36 181.275 139.972 181.505 140.574C181.791 141.288 182.105 141.994 182.42 142.696C183.164 144.319 183.966 146.997 186.284 146.584C188.347 146.212 187.145 143.792 186.486 142.761C184.826 140.239 183.508 137.33 183.022 134.336C182.792 132.927 182.908 131.265 184.366 130.588" fill="#DAE8F1"/>
<path fill-rule="evenodd" clip-rule="evenodd" d="M184.024 145.011C180.991 149.506 179.96 154.613 180.303 159.954C180.417 161.951 180.619 164.036 181.276 165.938C182.106 168.334 182.193 170.681 184.024 172.463C184.969 173.382 188.232 173.734 188.805 172.463C189.692 170.484 187.859 168.004 187.203 166.206C186.143 163.286 185.885 160.094 186.257 157.015C186.745 152.691 190.209 148.326 187.174 144.165" fill="#DAE8F1"/>
<path fill-rule="evenodd" clip-rule="evenodd" d="M227.814 135.541C227.814 135.541 216.204 125.4 193.988 123.089C193.988 123.089 192.871 119.365 190.123 118.354C190.123 118.354 184.998 125.772 173.776 126.406C162.527 127.043 157.001 120.661 154.11 118.033C154.11 118.033 152.164 118.419 150.789 119.768L149.902 120.573C149.902 120.573 127.173 126.085 120.359 128.619C113.546 131.15 112 132.758 112 132.758V180.999C112 180.999 118.692 201.428 120.359 214.999C122.074 228.953 122 243.999 122 243.999L162 248.499L184.597 173.362C184.597 173.362 179.988 166.438 179.988 159.728C179.96 153.014 182.764 147.224 183.938 144.392C183.938 144.392 179.016 136.031 179.846 132.144C180.676 128.255 186.086 130.586 188.72 132.441C191.325 134.294 195.474 138.496 195.474 138.496C195.474 138.496 203.061 134.329 211.666 135.946C220.26 137.562 224.665 139.417 224.665 139.417L227.814 135.541ZM256 173.362C256 173.362 250.117 154.017 235.97 142.291L234.922 147.173C234.922 147.173 238.449 151.332 238.298 157.497C238.146 163.664 236.274 168.865 231.874 173.362H256Z" fill="#58B9FD"/>
<path d="M185.771 31.3955C186.717 31.9772 187.518 32.7013 188.234 33.5474C192.613 38.6546 190.237 46.2371 185.342 50.0019M172.459 33.5678C176.354 37.7068 176.925 44.8276 172.402 48.7368" stroke="#25316D" stroke-width="2" stroke-miterlimit="1.5" stroke-linecap="round" stroke-linejoin="round"/>
<path d="M202.26 50.6118C203.292 49.8267 204.178 48.9379 204.951 47.9067C208.586 42.9886 206.698 36.6468 203.062 32.2617C199.311 27.7565 194.188 25.4053 188.519 24.3802C186.172 23.9572 182.853 23.7538 179.932 23.8311M208.387 44.4775C211.944 48.8952 212.786 55.0498 210.886 60.336M163.042 38.1052C161.897 41.3391 161.696 44.7744 162.355 48.1365C163.071 51.946 164.73 55.3468 164.56 59.3353C164.415 62.5367 163.042 65.372 161.039 67.8107M178.958 62.0018C176.354 60.3563 173.348 59.9577 170.629 61.5767M199.97 62.7157C197.251 61.4302 193.901 60.9685 191.182 62.557M186.888 65.2052C185.428 68.9558 185.544 73.5708 186.831 77.3722C187.146 78.2976 187.547 79.2149 188.062 80.0508C188.176 80.2725 188.806 80.8563 188.834 81.0841C188.863 81.1736 187.689 81.4563 187.547 81.4888C186.144 81.8529 184.712 82.1173 183.225 82.101M186.774 91.8313C183.166 92.6551 178.586 91.8456 176.783 88.1805M208.273 88.7561C207.614 90.5886 207.185 92.4639 207.099 94.4063C206.755 103.602 215.418 107.543 221.166 112.978C225.274 116.859 227.371 122.119 226.842 127.748C226.676 129.534 226.31 131.312 225.549 132.949M203.863 100.03C204.321 103.103 205.295 106.03 207.384 108.388C210.339 111.682 214.486 113.401 216.699 117.414M217.93 119.753C218.44 120.668 218.853 121.669 219.081 122.694M160.923 25.5314C138.108 32.9634 134.758 51.9745 135.932 67.5666C136.534 75.4481 140.484 83.8441 137.651 91.6625C136.333 95.2341 132.84 97.8192 129.806 99.8633C123.881 103.866 116.783 106.756 112.975 113.224M235.027 147.61C240.059 154.185 239.518 165.356 233.394 171.069M235.173 145.968C236.309 142.496 237.202 138.787 237.551 135.142C237.672 133.901 237.763 131.861 236.235 131.383C234.382 130.803 232.57 131.578 231.1 132.713C228.777 134.501 226.94 136.818 224.766 138.766M224.666 139.417C222.895 138.441 220.983 137.92 219.053 137.347C211.519 135.113 202.948 135.195 195.648 138.294M194.216 137.107C191.639 134.487 188.519 131.814 185.027 130.578C183.538 130.059 181.535 129.786 180.39 131.09C179.387 132.237 179.702 134.078 180.046 135.414C180.876 138.581 182.279 141.577 183.939 144.392M183.253 146.631C178.958 153.587 179.074 163.841 183.31 170.797M192.156 102.735C191.383 108.011 190.724 113.273 189.809 118.525M157.146 92.9744C156.172 101.167 154.884 109.307 153.796 117.483M188.434 120.626C180.103 127.096 169.254 128.542 160.065 123.172C157.803 121.852 155.629 120.201 154.111 118.032" stroke="#25316D" stroke-width="2" stroke-miterlimit="1.5" stroke-linecap="round" stroke-linejoin="round"/>
<path d="M192.755 120.461C195.074 123.056 195.762 127.553 193.386 130.366C192.298 131.633 190.752 132.313 189.149 132.659M178.5 137.587C174.007 142.074 165.017 140.768 162.126 135.069M151.906 118.883C147.155 121.907 144.893 128.53 148.843 133.135C149.587 133.995 150.474 134.723 151.448 135.303C154.654 137.217 158.232 136.863 161.638 135.87M139.597 127.289C132.039 128.857 124.94 131.865 118.385 135.962M133.3 134.78C131.524 135.274 129.291 135.695 127.773 136.84" stroke="#25316D" stroke-width="2" stroke-miterlimit="1.5" stroke-linecap="round" stroke-linejoin="round"/>
<path d="M153.481 122.092C155.828 125.261 159.379 127.708 163.128 128.912C164.33 129.294 165.591 129.695 166.85 129.736M214.102 163.045C213.799 164.007 213.264 164.994 212.336 165.476C210.63 166.363 209.131 164.634 209.017 163.074M203.91 163.045C204.213 164.007 204.748 164.994 205.675 165.476C207.382 166.363 208.883 164.634 208.997 163.074M206.469 54.9482C206.469 67.2149 205.352 79.4896 203.349 91.7704C203.09 93.2389 202.374 94.5915 201.315 95.6186C195.16 101.409 188.175 104.493 180.56 105.581C179.989 105.658 179.417 105.611 178.872 105.447C170.944 103.008 163.701 98.7224 157.146 92.6837M208.157 62.6873C209.847 64.7477 210.457 67.3959 210.634 69.9952C210.799 72.4359 210.543 75.0068 209.273 77.1567C208.273 78.853 206.727 80.1405 205.094 81.1961M206.841 58.6276C208.301 59.3008 209.703 60.1165 210.86 61.2819C213.404 63.8711 214.673 68.1077 214.879 71.661" stroke="#25316D" stroke-width="2" stroke-miterlimit="1.5" stroke-linecap="round" stroke-linejoin="round"/>
<path d="M214.223 75.3158C212.589 80.0081 209.244 83.5431 204.348 84.7451M154.883 61.6133C161.495 65.6181 163.299 75.265 160.981 82.158C160.322 84.1187 159.435 86.0407 158.003 87.5601" stroke="#25316D" stroke-width="2" stroke-miterlimit="1.5" stroke-linecap="round" stroke-linejoin="round"/>
<path d="M149.989 61.3897C154.569 63.9138 157.661 69.8265 157.862 75.0252M158.118 78.0923C157.919 82.1073 157.717 86.3481 155.199 89.6817M149.415 61.3206C143.891 63.7715 141.342 69.436 141.43 75.2774M154.827 90.0824C148.241 89.8342 142.632 84.8572 141.745 78.2774M176.727 23.3716C163.014 30.3968 155.456 42.224 155.199 59.7463" stroke="#25316D" stroke-width="2" stroke-miterlimit="1.5" stroke-linecap="round" stroke-linejoin="round"/>
<path d="M165.236 24.6633C153.27 31.8105 148.517 43.2554 148.289 59.7465M173.117 22.9995C170.026 23.2192 167.622 24.0612 165.246 24.6612" stroke="#25316D" stroke-width="2" stroke-miterlimit="1.5" stroke-linecap="round" stroke-linejoin="round"/>
<path d="M195.668 71.6671C194.561 71.6671 193.664 70.7701 193.664 69.6637C193.664 68.5552 194.561 67.6582 195.668 67.6582C196.774 67.6582 197.671 68.5552 197.671 69.6637C197.671 70.7701 196.774 71.6671 195.668 71.6671ZM175.939 71.6671C174.832 71.6671 173.935 70.7701 173.935 69.6637C173.935 68.5552 174.832 67.6582 175.939 67.6582C177.045 67.6582 177.942 68.5552 177.942 69.6637C177.942 70.7701 177.045 71.6671 175.939 71.6671ZM223.763 158.404C222.445 158.404 221.377 157.336 221.377 156.018C221.377 154.7 222.445 153.63 223.763 153.63C225.081 153.63 226.15 154.7 226.15 156.018C226.15 157.336 225.081 158.404 223.763 158.404ZM196.321 158.404C195.003 158.404 193.935 157.336 193.935 156.018C193.935 154.7 195.003 153.63 196.321 153.63C197.639 153.63 198.707 154.7 198.707 156.018C198.707 157.336 197.639 158.404 196.321 158.404Z" fill="#25316D"/>
<path d="M178.974 105.489C182.786 105.988 192.115 102.432 192.115 102.432L191.743 106.341C185.794 109.72 178.974 110.051 178.974 110.051C167.505 106.4 160.006 95.5332 160.006 95.5332C163.197 97.6627 175.193 104.987 178.974 105.489Z" fill="#25316D"/>
<path d="M113 122.211C113.933 124.505 116.089 127.08 118.668 127.529" stroke="#25316D" stroke-width="2" stroke-miterlimit="1.5" stroke-linecap="round" stroke-linejoin="round"/>
<path d="M215.198 267.488L215.198 267.488L215.204 267.499C215.393 267.884 215.35 268.349 215.074 268.711C215.073 268.711 215.073 268.712 215.072 268.713L207.092 279.019H176.968L176.864 278.888L176.221 278.078C175.676 277.391 174.918 276.436 174.066 275.363C172.363 273.218 170.285 270.601 168.787 268.718L168.783 268.713C168.518 268.384 168.456 267.907 168.651 267.491C168.746 267.297 168.892 267.134 169.073 267.02C169.255 266.905 169.465 266.844 169.68 266.843C169.68 266.843 169.681 266.843 169.681 266.843L214.179 266.843H214.181C214.393 266.842 214.601 266.902 214.781 267.016C214.962 267.13 215.106 267.293 215.198 267.488ZM272.567 177.025L272.566 177.027C269.997 191.634 261.515 239.874 259.321 252.36C259.103 253.597 258.031 254.495 256.785 254.495H127.439C126.21 254.495 125.144 253.613 124.908 252.388C123.757 246.364 120.982 231.856 118.111 216.85C115.08 201.005 111.942 184.605 110.499 177.051L110.499 177.05C110.356 176.307 110.551 175.527 111.045 174.917C111.539 174.325 112.27 173.976 113.03 173.976L270.03 173.976L270.032 173.976C270.407 173.975 270.777 174.058 271.118 174.217C271.458 174.376 271.76 174.609 272.001 174.899L272.002 174.899C272.493 175.488 272.7 176.274 272.567 177.025Z" fill="white" stroke="#25316D" stroke-width="2"/>
<path d="M192.09 211.496C200.239 211.496 206.857 218.136 206.857 226.323V279.023H177.322V226.323C177.322 218.136 183.937 211.496 192.09 211.496Z" fill="white" stroke="#25316D" stroke-width="2"/>
<path fill-rule="evenodd" clip-rule="evenodd" d="M198.868 226.265C198.868 222.503 195.832 219.457 192.089 219.457C188.346 219.457 185.312 222.503 185.312 226.265V238.439C185.312 242.193 188.346 245.24 192.089 245.24C195.832 245.24 198.868 242.193 198.868 238.439V226.265Z" fill="#58B9FD"/>
<path d="M129.998 251.01L116.461 181.381C116.221 180.147 117.167 179 118.424 179H234.998" stroke="#25316D" stroke-width="2"/>
<path d="M235.33 233.982C235.69 233.982 235.984 234.274 235.984 234.639V240.876C235.984 241.241 235.69 241.533 235.33 241.533H232.873C232.509 241.533 232.219 241.241 232.219 240.876V234.639C232.219 234.274 232.509 233.982 232.873 233.982H235.33Z" fill="#686868"/>
<path d="M244.644 233.982C245.003 233.982 245.298 234.274 245.298 234.639V240.876C245.298 241.241 245.003 241.533 244.644 241.533H242.187C241.823 241.533 241.533 241.241 241.533 240.876V234.639C241.533 234.274 241.823 233.982 242.187 233.982H244.644Z" fill="#686868"/>
<path d="M101.346 26.9995C101.388 29.2326 101.536 31.5084 101.641 33.7418M101.599 41.3858V47.9995M93 37.521H97.9573M104.803 37.478C106.531 37.3492 108.263 37.1767 110 37.2197" stroke="#25316D" stroke-width="2" stroke-miterlimit="1.5" stroke-linecap="round" stroke-linejoin="round"/>
<path d="M398.998 120H534.998V173.316C534.998 177.008 532.006 180 528.314 180H405.682C401.99 180 398.998 177.008 398.998 173.316V120Z" fill="white" stroke="#25316D" stroke-width="2"/>
<path d="M419.522 137.92V139.568C419.522 140.567 419.287 141.355 418.819 141.931C418.35 142.499 417.662 142.784 416.756 142.784C415.849 142.784 415.161 142.499 414.692 141.931C414.224 141.355 413.989 140.567 413.989 139.568V137.92C413.989 136.921 414.224 136.137 414.692 135.569C415.161 135 415.849 134.716 416.756 134.716C417.662 134.716 418.35 135 418.819 135.569C419.287 136.137 419.522 136.921 419.522 137.92ZM418.127 137.92C418.127 136.637 417.67 135.995 416.756 135.995C416.287 135.995 415.941 136.157 415.718 136.479C415.495 136.802 415.384 137.282 415.384 137.92V139.568C415.384 140.206 415.495 140.69 415.718 141.02C415.941 141.343 416.287 141.504 416.756 141.504C417.67 141.504 418.127 140.859 418.127 139.568V137.92ZM428.596 142.668H423.848V141.574C423.848 141.02 423.921 140.559 424.067 140.19C424.213 139.814 424.409 139.507 424.655 139.268C424.9 139.023 425.169 138.827 425.461 138.681L426.245 138.289C426.545 138.135 426.787 137.974 426.971 137.805C427.163 137.628 427.259 137.401 427.259 137.125V136.917C427.259 136.633 427.159 136.41 426.96 136.249C426.768 136.08 426.456 135.995 426.026 135.995C425.765 135.995 425.5 136.034 425.231 136.11C424.97 136.187 424.651 136.295 424.274 136.433L423.848 135.246C424.278 135.054 424.67 134.919 425.023 134.843C425.385 134.758 425.734 134.716 426.072 134.716C426.695 134.716 427.19 134.816 427.559 135.015C427.936 135.215 428.204 135.484 428.366 135.822C428.535 136.153 428.619 136.518 428.619 136.917V137.125C428.619 137.54 428.535 137.893 428.366 138.185C428.204 138.477 427.989 138.723 427.72 138.923C427.451 139.122 427.159 139.299 426.844 139.453L426.061 139.845C425.776 139.983 425.565 140.175 425.427 140.421C425.296 140.667 425.223 140.982 425.208 141.366H428.596V142.668ZM438.599 137.92V139.568C438.599 140.567 438.365 141.355 437.896 141.931C437.427 142.499 436.74 142.784 435.833 142.784C434.926 142.784 434.239 142.499 433.77 141.931C433.301 141.355 433.067 140.567 433.067 139.568V137.92C433.067 136.921 433.301 136.137 433.77 135.569C434.239 135 434.926 134.716 435.833 134.716C436.74 134.716 437.427 135 437.896 135.569C438.365 136.137 438.599 136.921 438.599 137.92ZM437.205 137.92C437.205 136.637 436.747 135.995 435.833 135.995C435.364 135.995 435.019 136.157 434.796 136.479C434.573 136.802 434.461 137.282 434.461 137.92V139.568C434.461 140.206 434.573 140.69 434.796 141.02C435.019 141.343 435.364 141.504 435.833 141.504C436.747 141.504 437.205 140.859 437.205 139.568V137.92ZM447.605 140.536C447.605 140.943 447.52 141.32 447.351 141.666C447.182 142.004 446.909 142.277 446.533 142.484C446.164 142.684 445.668 142.784 445.046 142.784C444.693 142.784 444.324 142.741 443.94 142.657C443.563 142.572 443.148 142.43 442.695 142.23L443.121 141.043C443.528 141.189 443.87 141.305 444.147 141.389C444.431 141.466 444.716 141.504 445 141.504C445.407 141.504 445.714 141.424 445.922 141.262C446.137 141.093 446.245 140.832 446.245 140.479V140.317C446.245 140.025 446.152 139.791 445.968 139.614C445.791 139.43 445.515 139.338 445.138 139.338H443.916V138.093H445.138C445.499 138.093 445.764 138.008 445.933 137.839C446.103 137.663 446.187 137.436 446.187 137.159V136.998C446.187 136.644 446.087 136.391 445.887 136.237C445.695 136.076 445.411 135.995 445.034 135.995C444.766 135.995 444.493 136.034 444.216 136.11C443.947 136.18 443.621 136.287 443.236 136.433L442.81 135.246C443.24 135.046 443.64 134.908 444.009 134.831C444.378 134.754 444.735 134.716 445.081 134.716C445.672 134.716 446.149 134.816 446.51 135.015C446.871 135.215 447.132 135.484 447.293 135.822C447.463 136.16 447.547 136.533 447.547 136.94V137.102C447.547 137.463 447.455 137.782 447.27 138.058C447.094 138.327 446.859 138.542 446.567 138.704C446.882 138.873 447.132 139.099 447.317 139.384C447.509 139.66 447.605 139.991 447.605 140.375V140.536ZM457.159 139.58C457.159 140.655 456.906 141.458 456.398 141.988C455.891 142.519 455.177 142.784 454.255 142.784C453.932 142.784 453.598 142.745 453.252 142.668C452.906 142.592 452.518 142.453 452.088 142.254L452.583 141.066C452.929 141.228 453.233 141.343 453.494 141.412C453.763 141.474 454.005 141.504 454.22 141.504C454.704 141.504 455.092 141.358 455.384 141.066C455.684 140.774 455.834 140.279 455.834 139.58V139.165C455.572 139.403 455.296 139.58 455.004 139.695C454.72 139.81 454.431 139.868 454.139 139.868C453.686 139.868 453.286 139.764 452.941 139.557C452.603 139.349 452.341 139.061 452.157 138.692C451.973 138.323 451.88 137.897 451.88 137.413V137.182C451.88 136.752 451.984 136.349 452.192 135.972C452.399 135.596 452.695 135.292 453.079 135.062C453.463 134.831 453.92 134.716 454.451 134.716C455.303 134.716 455.968 135.004 456.444 135.58C456.921 136.157 457.159 136.948 457.159 137.955V139.58ZM453.229 137.413C453.229 137.766 453.325 138.058 453.517 138.289C453.717 138.512 453.993 138.623 454.347 138.623C454.892 138.623 455.388 138.416 455.834 138.001V137.955C455.834 137.294 455.711 136.802 455.465 136.479C455.227 136.157 454.881 135.995 454.428 135.995C454.051 135.995 453.755 136.118 453.54 136.364C453.333 136.61 453.229 136.883 453.229 137.182V137.413ZM466.844 140.894H466.026V142.668H464.689V140.894H461.324V139.776C461.669 139.238 462.011 138.692 462.349 138.139C462.695 137.578 463.018 137.021 463.318 136.468C463.617 135.907 463.863 135.361 464.055 134.831H465.565C465.281 135.615 464.897 136.422 464.413 137.251C463.928 138.074 463.429 138.877 462.914 139.66H464.689V138.473H466.026V139.66H466.844V140.894ZM476.242 140.317C476.242 140.786 476.138 141.209 475.931 141.585C475.723 141.954 475.427 142.246 475.043 142.461C474.667 142.676 474.209 142.784 473.672 142.784C472.819 142.784 472.154 142.496 471.678 141.919C471.201 141.343 470.963 140.552 470.963 139.545V137.92C470.963 136.844 471.217 136.041 471.724 135.511C472.231 134.981 472.945 134.716 473.867 134.716C474.19 134.716 474.524 134.754 474.87 134.831C475.224 134.908 475.612 135.046 476.034 135.246L475.539 136.433C475.193 136.272 474.889 136.16 474.628 136.099C474.367 136.03 474.125 135.995 473.902 135.995C473.418 135.995 473.026 136.141 472.726 136.433C472.434 136.717 472.288 137.213 472.288 137.92V138.335C472.557 138.097 472.834 137.92 473.118 137.805C473.41 137.689 473.698 137.632 473.983 137.632C474.444 137.632 474.843 137.736 475.181 137.943C475.519 138.15 475.781 138.439 475.965 138.807C476.15 139.176 476.242 139.603 476.242 140.087V140.317ZM472.288 139.545C472.288 140.206 472.411 140.698 472.657 141.02C472.903 141.343 473.249 141.504 473.695 141.504C474.079 141.504 474.375 141.397 474.582 141.182C474.789 140.959 474.893 140.671 474.893 140.317V140.087C474.893 139.726 474.797 139.434 474.605 139.211C474.413 138.988 474.136 138.877 473.775 138.877C473.23 138.877 472.734 139.084 472.288 139.499V139.545ZM486.169 137.92V139.568C486.169 140.567 485.935 141.355 485.466 141.931C484.997 142.499 484.31 142.784 483.403 142.784C482.496 142.784 481.809 142.499 481.34 141.931C480.871 141.355 480.637 140.567 480.637 139.568V137.92C480.637 136.921 480.871 136.137 481.34 135.569C481.809 135 482.496 134.716 483.403 134.716C484.31 134.716 484.997 135 485.466 135.569C485.935 136.137 486.169 136.921 486.169 137.92ZM484.774 137.92C484.774 136.637 484.317 135.995 483.403 135.995C482.934 135.995 482.588 136.157 482.366 136.479C482.143 136.802 482.031 137.282 482.031 137.92V139.568C482.031 140.206 482.143 140.69 482.366 141.02C482.588 141.343 482.934 141.504 483.403 141.504C484.317 141.504 484.774 140.859 484.774 139.568V137.92ZM490.149 135.949L492.143 134.831H493.296V142.668H491.936V136.352L490.76 136.998L490.149 135.949ZM502.631 140.536C502.631 140.943 502.547 141.32 502.378 141.666C502.208 142.004 501.936 142.277 501.559 142.484C501.19 142.684 500.695 142.784 500.072 142.784C499.719 142.784 499.35 142.741 498.966 142.657C498.589 142.572 498.175 142.43 497.721 142.23L498.148 141.043C498.555 141.189 498.897 141.305 499.173 141.389C499.458 141.466 499.742 141.504 500.026 141.504C500.434 141.504 500.741 141.424 500.948 141.262C501.164 141.093 501.271 140.832 501.271 140.479V140.317C501.271 140.025 501.179 139.791 500.994 139.614C500.818 139.43 500.541 139.338 500.165 139.338H498.943V138.093H500.165C500.526 138.093 500.791 138.008 500.96 137.839C501.129 137.663 501.213 137.436 501.213 137.159V136.998C501.213 136.644 501.114 136.391 500.914 136.237C500.722 136.076 500.437 135.995 500.061 135.995C499.792 135.995 499.519 136.034 499.243 136.11C498.974 136.18 498.647 136.287 498.263 136.433L497.836 135.246C498.267 135.046 498.666 134.908 499.035 134.831C499.404 134.754 499.761 134.716 500.107 134.716C500.699 134.716 501.175 134.816 501.536 135.015C501.897 135.215 502.159 135.484 502.32 135.822C502.489 136.16 502.573 136.533 502.573 136.94V137.102C502.573 137.463 502.481 137.782 502.297 138.058C502.12 138.327 501.886 138.542 501.594 138.704C501.909 138.873 502.159 139.099 502.343 139.384C502.535 139.66 502.631 139.991 502.631 140.375V140.536ZM511.586 142.668H506.838V141.574C506.838 141.02 506.911 140.559 507.057 140.19C507.203 139.814 507.399 139.507 507.644 139.268C507.89 139.023 508.159 138.827 508.451 138.681L509.235 138.289C509.535 138.135 509.777 137.974 509.961 137.805C510.153 137.628 510.249 137.401 510.249 137.125V136.917C510.249 136.633 510.149 136.41 509.95 136.249C509.757 136.08 509.446 135.995 509.016 135.995C508.755 135.995 508.49 136.034 508.221 136.11C507.959 136.187 507.641 136.295 507.264 136.433L506.838 135.246C507.268 135.054 507.66 134.919 508.013 134.843C508.374 134.758 508.724 134.716 509.062 134.716C509.684 134.716 510.18 134.816 510.549 135.015C510.925 135.215 511.194 135.484 511.356 135.822C511.525 136.153 511.609 136.518 511.609 136.917V137.125C511.609 137.54 511.525 137.893 511.356 138.185C511.194 138.477 510.979 138.723 510.71 138.923C510.441 139.122 510.149 139.299 509.834 139.453L509.051 139.845C508.766 139.983 508.555 140.175 508.417 140.421C508.286 140.667 508.213 140.982 508.198 141.366H511.586V142.668Z" fill="#303030"/>
<path d="M397.998 107.684C397.998 103.44 401.438 100 405.682 100H528.314C532.558 100 535.998 103.44 535.998 107.684V122H397.998V107.684Z" fill="#CFE3FF"/>
<path d="M353.998 180H490.998V232.316C490.998 236.008 488.006 239 484.314 239H360.682C356.99 239 353.998 236.008 353.998 232.316V180Z" fill="white" stroke="#25316D" stroke-width="2"/>
<path d="M375.029 197.24V198.888C375.029 199.887 374.795 200.675 374.326 201.251C373.858 201.82 373.17 202.104 372.263 202.104C371.357 202.104 370.669 201.82 370.2 201.251C369.732 200.675 369.497 199.887 369.497 198.888V197.24C369.497 196.241 369.732 195.458 370.2 194.889C370.669 194.32 371.357 194.036 372.263 194.036C373.17 194.036 373.858 194.32 374.326 194.889C374.795 195.458 375.029 196.241 375.029 197.24ZM373.635 197.24C373.635 195.957 373.178 195.315 372.263 195.315C371.795 195.315 371.449 195.477 371.226 195.8C371.003 196.122 370.892 196.602 370.892 197.24V198.888C370.892 199.526 371.003 200.01 371.226 200.341C371.449 200.663 371.795 200.825 372.263 200.825C373.178 200.825 373.635 200.179 373.635 198.888V197.24ZM384.104 201.989H379.356V200.894C379.356 200.341 379.429 199.88 379.575 199.511C379.721 199.134 379.917 198.827 380.162 198.589C380.408 198.343 380.677 198.147 380.969 198.001L381.753 197.609C382.053 197.455 382.295 197.294 382.479 197.125C382.671 196.948 382.767 196.722 382.767 196.445V196.238C382.767 195.953 382.667 195.73 382.468 195.569C382.275 195.4 381.964 195.315 381.534 195.315C381.273 195.315 381.008 195.354 380.739 195.431C380.477 195.508 380.159 195.615 379.782 195.753L379.356 194.566C379.786 194.374 380.178 194.24 380.531 194.163C380.892 194.078 381.242 194.036 381.58 194.036C382.202 194.036 382.698 194.136 383.067 194.336C383.443 194.536 383.712 194.805 383.874 195.143C384.043 195.473 384.127 195.838 384.127 196.238V196.445C384.127 196.86 384.043 197.213 383.874 197.505C383.712 197.797 383.497 198.043 383.228 198.243C382.959 198.443 382.667 198.619 382.352 198.773L381.569 199.165C381.284 199.303 381.073 199.495 380.935 199.741C380.804 199.987 380.731 200.302 380.716 200.686H384.104V201.989ZM394.107 197.24V198.888C394.107 199.887 393.873 200.675 393.404 201.251C392.935 201.82 392.248 202.104 391.341 202.104C390.434 202.104 389.746 201.82 389.278 201.251C388.809 200.675 388.575 199.887 388.575 198.888V197.24C388.575 196.241 388.809 195.458 389.278 194.889C389.746 194.32 390.434 194.036 391.341 194.036C392.248 194.036 392.935 194.32 393.404 194.889C393.873 195.458 394.107 196.241 394.107 197.24ZM392.712 197.24C392.712 195.957 392.255 195.315 391.341 195.315C390.872 195.315 390.526 195.477 390.304 195.8C390.081 196.122 389.969 196.602 389.969 197.24V198.888C389.969 199.526 390.081 200.01 390.304 200.341C390.526 200.663 390.872 200.825 391.341 200.825C392.255 200.825 392.712 200.179 392.712 198.888V197.24ZM403.112 199.857C403.112 200.264 403.028 200.64 402.859 200.986C402.69 201.324 402.417 201.597 402.041 201.804C401.672 202.004 401.176 202.104 400.554 202.104C400.2 202.104 399.832 202.062 399.447 201.977C399.071 201.893 398.656 201.751 398.203 201.551L398.629 200.364C399.036 200.51 399.378 200.625 399.655 200.709C399.939 200.786 400.223 200.825 400.508 200.825C400.915 200.825 401.222 200.744 401.43 200.583C401.645 200.414 401.752 200.152 401.752 199.799V199.638C401.752 199.346 401.66 199.111 401.476 198.934C401.299 198.75 401.023 198.658 400.646 198.658H399.424V197.413H400.646C401.007 197.413 401.272 197.329 401.441 197.16C401.61 196.983 401.695 196.756 401.695 196.48V196.318C401.695 195.965 401.595 195.711 401.395 195.558C401.203 195.396 400.919 195.315 400.542 195.315C400.273 195.315 400.001 195.354 399.724 195.431C399.455 195.5 399.128 195.607 398.744 195.753L398.318 194.566C398.748 194.367 399.148 194.228 399.517 194.151C399.885 194.075 400.243 194.036 400.588 194.036C401.18 194.036 401.656 194.136 402.018 194.336C402.379 194.536 402.64 194.805 402.801 195.143C402.97 195.481 403.055 195.853 403.055 196.261V196.422C403.055 196.783 402.963 197.102 402.778 197.379C402.602 197.647 402.367 197.863 402.075 198.024C402.39 198.193 402.64 198.42 402.824 198.704C403.016 198.981 403.112 199.311 403.112 199.695V199.857ZM412.667 198.9C412.667 199.976 412.413 200.779 411.906 201.309C411.399 201.839 410.684 202.104 409.762 202.104C409.44 202.104 409.105 202.066 408.76 201.989C408.414 201.912 408.026 201.774 407.596 201.574L408.091 200.387C408.437 200.548 408.741 200.663 409.002 200.732C409.271 200.794 409.513 200.825 409.728 200.825C410.212 200.825 410.6 200.679 410.892 200.387C411.192 200.095 411.341 199.599 411.341 198.9V198.485C411.08 198.723 410.804 198.9 410.512 199.015C410.227 199.13 409.939 199.188 409.647 199.188C409.194 199.188 408.794 199.084 408.449 198.877C408.11 198.669 407.849 198.381 407.665 198.012C407.48 197.644 407.388 197.217 407.388 196.733V196.503C407.388 196.072 407.492 195.669 407.699 195.292C407.907 194.916 408.203 194.612 408.587 194.382C408.971 194.151 409.428 194.036 409.958 194.036C410.811 194.036 411.476 194.324 411.952 194.901C412.429 195.477 412.667 196.268 412.667 197.275V198.9ZM408.737 196.733C408.737 197.087 408.833 197.379 409.025 197.609C409.225 197.832 409.501 197.943 409.855 197.943C410.4 197.943 410.896 197.736 411.341 197.321V197.275C411.341 196.614 411.219 196.122 410.973 195.8C410.734 195.477 410.389 195.315 409.935 195.315C409.559 195.315 409.263 195.438 409.048 195.684C408.84 195.93 408.737 196.203 408.737 196.503V196.733ZM422.352 200.214H421.534V201.989H420.197V200.214H416.831V199.096C417.177 198.558 417.519 198.012 417.857 197.459C418.203 196.898 418.526 196.341 418.825 195.788C419.125 195.227 419.371 194.682 419.563 194.151H421.073C420.789 194.935 420.404 195.742 419.92 196.572C419.436 197.394 418.937 198.197 418.422 198.981H420.197V197.793H421.534V198.981H422.352V200.214ZM431.75 199.638C431.75 200.106 431.646 200.529 431.438 200.905C431.231 201.274 430.935 201.566 430.551 201.781C430.174 201.996 429.717 202.104 429.179 202.104C428.326 202.104 427.662 201.816 427.185 201.24C426.709 200.663 426.471 199.872 426.471 198.865V197.24C426.471 196.165 426.724 195.362 427.232 194.831C427.739 194.301 428.453 194.036 429.375 194.036C429.698 194.036 430.032 194.075 430.378 194.151C430.731 194.228 431.119 194.367 431.542 194.566L431.046 195.753C430.701 195.592 430.397 195.481 430.136 195.419C429.875 195.35 429.633 195.315 429.41 195.315C428.926 195.315 428.534 195.461 428.234 195.753C427.942 196.038 427.796 196.533 427.796 197.24V197.655C428.065 197.417 428.342 197.24 428.626 197.125C428.918 197.01 429.206 196.952 429.491 196.952C429.952 196.952 430.351 197.056 430.689 197.263C431.027 197.471 431.288 197.759 431.473 198.128C431.657 198.497 431.75 198.923 431.75 199.407V199.638ZM427.796 198.865C427.796 199.526 427.919 200.018 428.165 200.341C428.411 200.663 428.757 200.825 429.202 200.825C429.587 200.825 429.882 200.717 430.09 200.502C430.297 200.279 430.401 199.991 430.401 199.638V199.407C430.401 199.046 430.305 198.754 430.113 198.531C429.921 198.308 429.644 198.197 429.283 198.197C428.738 198.197 428.242 198.404 427.796 198.819V198.865ZM441.677 197.24V198.888C441.677 199.887 441.443 200.675 440.974 201.251C440.505 201.82 439.817 202.104 438.911 202.104C438.004 202.104 437.316 201.82 436.848 201.251C436.379 200.675 436.145 199.887 436.145 198.888V197.24C436.145 196.241 436.379 195.458 436.848 194.889C437.316 194.32 438.004 194.036 438.911 194.036C439.817 194.036 440.505 194.32 440.974 194.889C441.443 195.458 441.677 196.241 441.677 197.24ZM440.282 197.24C440.282 195.957 439.825 195.315 438.911 195.315C438.442 195.315 438.096 195.477 437.873 195.8C437.651 196.122 437.539 196.602 437.539 197.24V198.888C437.539 199.526 437.651 200.01 437.873 200.341C438.096 200.663 438.442 200.825 438.911 200.825C439.825 200.825 440.282 200.179 440.282 198.888V197.24ZM445.657 195.269L447.651 194.151H448.804V201.989H447.444V195.673L446.268 196.318L445.657 195.269ZM458.139 199.857C458.139 200.264 458.054 200.64 457.885 200.986C457.716 201.324 457.444 201.597 457.067 201.804C456.698 202.004 456.203 202.104 455.58 202.104C455.227 202.104 454.858 202.062 454.474 201.977C454.097 201.893 453.682 201.751 453.229 201.551L453.655 200.364C454.063 200.51 454.405 200.625 454.681 200.709C454.966 200.786 455.25 200.825 455.534 200.825C455.941 200.825 456.249 200.744 456.456 200.583C456.671 200.414 456.779 200.152 456.779 199.799V199.638C456.779 199.346 456.687 199.111 456.502 198.934C456.326 198.75 456.049 198.658 455.672 198.658H454.451V197.413H455.672C456.034 197.413 456.299 197.329 456.468 197.16C456.637 196.983 456.721 196.756 456.721 196.48V196.318C456.721 195.965 456.621 195.711 456.422 195.558C456.23 195.396 455.945 195.315 455.569 195.315C455.3 195.315 455.027 195.354 454.75 195.431C454.481 195.5 454.155 195.607 453.771 195.753L453.344 194.566C453.775 194.367 454.174 194.228 454.543 194.151C454.912 194.075 455.269 194.036 455.615 194.036C456.206 194.036 456.683 194.136 457.044 194.336C457.405 194.536 457.666 194.805 457.828 195.143C457.997 195.481 458.081 195.853 458.081 196.261V196.422C458.081 196.783 457.989 197.102 457.805 197.379C457.628 197.647 457.394 197.863 457.102 198.024C457.417 198.193 457.666 198.42 457.851 198.704C458.043 198.981 458.139 199.311 458.139 199.695V199.857ZM467.094 201.989H462.345V200.894C462.345 200.341 462.418 199.88 462.564 199.511C462.71 199.134 462.906 198.827 463.152 198.589C463.398 198.343 463.667 198.147 463.959 198.001L464.743 197.609C465.042 197.455 465.284 197.294 465.469 197.125C465.661 196.948 465.757 196.722 465.757 196.445V196.238C465.757 195.953 465.657 195.73 465.457 195.569C465.265 195.4 464.954 195.315 464.524 195.315C464.263 195.315 463.997 195.354 463.729 195.431C463.467 195.508 463.148 195.615 462.772 195.753L462.345 194.566C462.776 194.374 463.168 194.24 463.521 194.163C463.882 194.078 464.232 194.036 464.57 194.036C465.192 194.036 465.688 194.136 466.057 194.336C466.433 194.536 466.702 194.805 466.863 195.143C467.033 195.473 467.117 195.838 467.117 196.238V196.445C467.117 196.86 467.033 197.213 466.863 197.505C466.702 197.797 466.487 198.043 466.218 198.243C465.949 198.443 465.657 198.619 465.342 198.773L464.558 199.165C464.274 199.303 464.063 199.495 463.924 199.741C463.794 199.987 463.721 200.302 463.705 200.686H467.094V201.989Z" fill="#303030"/>
<path d="M352.998 166.684C352.998 162.44 356.438 159 360.682 159H484.314C488.558 159 491.998 162.44 491.998 166.684V181H352.998V166.684Z" fill="#CFE3FF"/>
<path d="M508.207 168.494H506.131L507.429 160.507H509.505L508.207 168.494Z" fill="#CB2027"/>
<path d="M515.728 160.704C515.319 160.542 514.669 160.364 513.867 160.364C511.817 160.364 510.373 161.451 510.364 163.007C510.347 164.154 511.398 164.791 512.184 165.173C512.987 165.564 513.259 165.82 513.259 166.168C513.252 166.703 512.611 166.95 512.013 166.95C511.185 166.95 510.74 166.823 510.066 166.525L509.792 166.397L509.502 168.19C509.988 168.411 510.886 168.607 511.817 168.615C513.995 168.615 515.413 167.545 515.429 165.888C515.438 164.978 514.883 164.281 513.687 163.712C512.961 163.347 512.516 163.1 512.516 162.726C512.525 162.386 512.893 162.038 513.712 162.038C514.387 162.021 514.883 162.183 515.258 162.344L515.446 162.429L515.728 160.704Z" fill="#CB2027"/>
<path d="M518.491 165.665C518.661 165.206 519.319 163.43 519.319 163.43C519.311 163.447 519.49 162.962 519.592 162.665L519.737 163.353C519.737 163.353 520.131 165.265 520.216 165.665C519.892 165.665 518.901 165.665 518.491 165.665ZM521.053 160.507H519.447C518.952 160.507 518.576 160.651 518.362 161.17L515.279 168.494H517.457C517.457 168.494 517.816 167.509 517.893 167.296C518.132 167.296 520.251 167.296 520.558 167.296C520.617 167.577 520.805 168.494 520.805 168.494H522.727L521.053 160.507Z" fill="#CB2027"/>
<path d="M504.396 160.507L502.364 165.954L502.141 164.849C501.765 163.574 500.587 162.189 499.271 161.501L501.133 168.486H503.329L506.591 160.507H504.396Z" fill="#CB2027"/>
<path d="M501.695 163.861C500.434 162.791 498.798 161.693 497.494 160.939H500.612C500.805 160.947 500.932 160.981 501.015 161.033C501.083 161.075 501.151 161.148 501.192 161.315L501.695 163.861Z" fill="#25316D"/>
<path d="M468.29 229.443C470.954 229.443 473.113 227.284 473.113 224.62C473.113 221.956 470.954 219.797 468.29 219.797C465.626 219.797 463.467 221.956 463.467 224.62C463.467 227.284 465.626 229.443 468.29 229.443Z" fill="#CB2027"/>
<path d="M474.323 229.131C476.814 229.131 478.835 227.111 478.835 224.619C478.835 222.128 476.814 220.107 474.323 220.107C471.831 220.107 469.811 222.128 469.811 224.619C469.811 227.111 471.831 229.131 474.323 229.131Z" fill="#25316D"/>
</svg>
