<svg width="587" height="479" viewBox="0 0 587 479" fill="none" xmlns="http://www.w3.org/2000/svg">
<g clip-path="url(#clip0_617_3453)">
<path fill-rule="evenodd" clip-rule="evenodd" d="M313.326 100.671C380.089 122.47 340.807 164.786 453.29 207.361C583.086 256.489 595.931 338.59 583.086 384.049C554.812 484.107 468.725 551.793 374.161 551.054C281.005 550.326 94.0897 550.362 43.5658 441.37C7.19131 362.903 64.4724 294.041 71.5343 207.36C77.8042 130.4 217.85 69.498 313.326 100.671Z" fill="#E2EEFF"/>
<path d="M310.557 226.883C246.108 232.746 252.246 160 286.006 150.141C290.162 113.467 320.943 106.265 335.815 107.248C354.936 28.3739 425.521 47.293 444.879 92.8589C484.35 77.7235 507.752 105.91 514.52 121.895C599.741 112.045 585.577 226.093 517.353 214.36C502.244 294.566 430.951 290.569 401.442 266.587C344.03 296.645 316.93 252.642 310.557 226.883Z" fill="white" stroke="#25316D" stroke-width="2"/>
<path d="M312.992 261.584C312.992 269.417 305.96 275.929 297.077 275.929C288.193 275.929 281.161 269.417 281.161 261.584C281.161 253.752 288.193 247.24 297.077 247.24C305.96 247.24 312.992 253.752 312.992 261.584Z" fill="white" stroke="#25316D" stroke-width="2"/>
<path d="M281.054 280.7C281.054 285.301 276.911 289.193 271.59 289.193C266.269 289.193 262.125 285.301 262.125 280.7C262.125 276.099 266.269 272.207 271.59 272.207C276.911 272.207 281.054 276.099 281.054 280.7Z" fill="white" stroke="#25316D" stroke-width="2"/>
<path d="M452.149 113.84C448.947 113.874 445.996 115.578 444.365 118.334L428.969 144.346C427.283 147.193 427.264 150.728 428.919 153.593L443.55 178.935C445.204 181.8 448.274 183.551 451.583 183.515L481.808 183.188C485.01 183.153 487.961 181.449 489.592 178.693L504 151.12C504.833 149.62 505.7 145.52 502.5 141.12" stroke="#25316D" stroke-width="2"/>
<path d="M348.094 114.55C351.403 114.514 354.473 116.265 356.128 119.13L370.759 144.472C372.413 147.337 372.394 150.872 370.708 153.719L355.312 179.731C353.682 182.487 350.73 184.191 347.528 184.225L317.303 184.553C313.995 184.589 310.924 182.838 309.27 179.973" stroke="#25316D" stroke-width="2"/>
<path d="M438.197 105.536C439.851 108.401 439.833 111.936 438.147 114.783L422.751 140.795C421.12 143.551 418.169 145.255 414.967 145.289L384.742 145.616C381.433 145.653 378.363 143.902 376.709 141.037L362.078 115.695C360.423 112.83 360.442 109.295 362.128 106.448" stroke="#25316D" stroke-width="2"/>
<path d="M489.807 194.928C488.153 192.063 485.083 190.312 481.774 190.348L451.549 190.675C448.347 190.71 445.396 192.414 443.765 195.169L428.369 221.181C426.683 224.029 426.664 227.563 428.319 230.428L442.95 255.77C444.604 258.635 447.675 260.386 450.983 260.35" stroke="#25316D" stroke-width="2"/>
<path d="M377.786 157.78L377.786 157.78C379.239 155.325 381.868 153.807 384.72 153.776L384.72 153.776L414.945 153.449L414.945 153.449C417.893 153.416 420.628 154.976 422.102 157.529L436.733 182.87C438.206 185.423 438.19 188.571 436.688 191.108L437.548 191.618L436.688 191.108L421.292 217.12L421.292 217.12C419.839 219.575 417.21 221.093 414.358 221.124L414.358 221.124L384.133 221.451L384.133 221.451C381.185 221.483 378.45 219.923 376.976 217.371L362.345 192.029C360.871 189.477 360.888 186.328 362.39 183.792L362.39 183.791L377.786 157.78Z" fill="white" stroke="#CB2027" stroke-width="2"/>
<path d="M412.068 186.154L414.138 191.923H416.45L414.379 186.154H412.068Z" fill="#CB2027"/>
<path d="M379.3 182.269C376.685 182.269 374.565 184.486 374.565 187.219C374.565 189.953 376.685 192.171 379.3 192.171C379.998 192.171 380.66 192.011 381.256 191.728L382.213 192.912L383.866 191.45L382.971 190.344C383.635 189.492 384.033 188.405 384.033 187.219C384.034 184.486 381.915 182.269 379.3 182.269ZM379.3 189.908C377.882 189.908 376.729 188.702 376.729 187.219C376.729 185.737 377.882 184.531 379.3 184.531C380.717 184.531 381.87 185.737 381.87 187.219C381.87 187.707 381.745 188.164 381.527 188.559L380.457 187.236L378.804 188.698L379.749 189.866C379.603 189.893 379.453 189.908 379.3 189.908Z" fill="#25316D"/>
<path d="M391.667 182.269H388.725H386.573H386.561V191.923H388.725V188.619H389.727L391.469 191.922H393.94L392.169 188.564C393.26 188.321 394.077 187.31 394.077 186.098V184.79C394.077 183.397 392.999 182.269 391.667 182.269ZM388.737 184.532H391.667C391.803 184.532 391.914 184.647 391.914 184.79V186.099C391.914 186.242 391.803 186.357 391.667 186.357H388.737V184.532Z" fill="#25316D"/>
<path d="M405.08 182.269H399.986V182.319H399.974V191.923H402.138V188.619H405.08C406.411 188.619 407.491 187.49 407.491 186.098V184.79C407.491 183.397 406.412 182.269 405.08 182.269ZM405.327 186.098C405.327 186.241 405.216 186.356 405.08 186.356H402.15V184.532H405.08C405.216 184.532 405.327 184.647 405.327 184.79V186.098Z" fill="#25316D"/>
<path d="M424.564 182.319H421.98L419.924 185.611L417.867 182.319H415.283L418.85 188.032V191.923H421.014V188.005L424.564 182.319Z" fill="#25316D"/>
<path d="M410.6 182.319L407.154 191.923H409.465L412.911 182.319H410.6Z" fill="#25316D"/>
<path d="M325.531 137.385C324.786 137.755 323.246 138.762 323.044 139.823" stroke="#CB2027" stroke-width="2" stroke-linecap="round" stroke-linejoin="round"/>
<path d="M351.391 139.675C351.186 138.869 350.528 137.151 349.533 136.729" stroke="#CB2027" stroke-width="2" stroke-linecap="round" stroke-linejoin="round"/>
<path d="M326.679 153.73L322.385 157.738C321.926 157.738 322.003 158.501 322.098 158.883C322.385 159.074 323.014 159.57 323.243 160.028C323.53 160.601 324.675 161.46 325.534 162.032C326.393 162.605 327.252 162.891 328.11 164.037C328.798 164.953 330.305 165.754 330.973 166.041L335.84 160.887L337.558 159.742C339.276 161.651 342.826 165.583 343.284 166.041C343.857 166.613 345.574 164.323 347.006 164.037C348.437 163.75 347.865 162.891 349.01 162.032C350.155 161.174 349.296 160.028 350.155 160.315C350.842 160.544 351.396 158.692 351.587 157.738L347.578 153.73L347.292 152.585L351.014 148.29L350.155 146.573L348.437 146L349.296 144.282L348.437 142.564H346.433L347.006 141.419L346.72 139.988L345.574 138.843L343.57 139.415V138.843L342.711 137.411L341.566 136.839L339.562 137.697L338.417 136.839L336.986 136.552L334.123 138.843L333.55 137.697L331.546 137.411L329.828 139.415L327.252 140.274V142.564L324.675 144.282L325.248 146.573L323.243 147.431L322.957 149.435L326.679 152.871V153.73Z" fill="white"/>
<path d="M346.72 162.318C345.575 161.173 344.973 160.164 343.979 159.742" stroke="#CB2027" stroke-width="2" stroke-linecap="round" stroke-linejoin="round"/>
<path d="M348.36 161.173C347.214 160.028 346.72 159.742 346.147 158.883" stroke="#CB2027" stroke-width="2" stroke-linecap="round" stroke-linejoin="round"/>
<path d="M331.163 165.9L336.976 159.694C337.762 159.066 338.94 157.927 340.786 157.377C342.33 156.917 343.274 156.356 343.339 156.277M344.674 155.177L350.448 149.404C350.985 148.801 351.077 147.597 350.448 146.851C349.446 145.661 348.327 146.144 347.581 146.693C348.327 145.947 349.898 144.651 348.838 143.159C347.422 141.166 345.499 143.316 345.067 143.748C345.617 143.198 348.209 141.207 346.638 139.702C344.635 137.783 343.182 140.134 342.436 140.92C342.958 140.37 344.164 138.485 343.025 137.503C342.023 136.639 340.747 136.991 340 137.783M340 137.783C339.898 137.891 339.806 138.008 339.725 138.131C339.191 138.948 338.089 140.069 337.605 140.527C336.675 141.273 335.169 142.334 333.598 140.448C333.402 140.213 333.692 139.946 334.541 139.034C335.389 138.123 336.361 137.162 336.74 136.796C337.055 136.56 337.487 136.285 338.429 136.796C339.303 137.269 339.909 137.69 340 137.783ZM347.188 153.371L351.587 157.73M337.605 159.93L343.025 165.664M322.247 157.73L326.607 153.881L327.039 153.371" stroke="#25316D" stroke-width="2" stroke-linecap="round" stroke-linejoin="round"/>
<path d="M333.205 143.237L333.971 144.024C334.723 144.796 334.702 146.033 333.924 146.778V146.778C333.15 147.519 331.922 147.493 331.181 146.719L327.418 142.793C326.675 142.017 326.702 140.786 327.477 140.043V140.043C328.254 139.298 329.489 139.326 330.231 140.106L331.791 141.744" stroke="#25316D" stroke-width="2" stroke-linecap="round" stroke-linejoin="round"/>
<rect x="323.966" y="144.848" width="3.89597" height="8.35794" rx="1.94798" transform="rotate(-43.7748 323.966 144.848)" stroke="#25316D" stroke-width="2"/>
<rect x="322.16" y="148.629" width="3.89597" height="7.03916" rx="1.94798" transform="rotate(-43.7748 322.16 148.629)" stroke="#25316D" stroke-width="2"/>
<path d="M334.502 138.956L333.56 137.972C332.814 137.192 331.577 137.165 330.798 137.912V137.912C330.022 138.655 329.993 139.885 330.732 140.665L331.792 141.784M336.671 141.217L336.81 141.362C337.554 142.139 337.528 143.373 336.751 144.118V144.118C335.974 144.862 334.742 144.837 333.996 144.061L333.166 143.198" stroke="#25316D" stroke-width="2" stroke-linecap="round" stroke-linejoin="round"/>
<path d="M456.881 233.844C456.881 233.257 457.357 232.782 457.943 232.782H460.11C460.11 232.782 460.951 234.042 462.08 234.042C463.208 234.042 464.049 232.782 464.049 232.782H466.216C466.803 232.782 467.278 233.257 467.278 233.844C467.278 236.339 465.256 238.361 462.762 238.361H461.397C458.903 238.361 456.881 236.339 456.881 233.844Z" fill="white"/>
<path d="M465.073 228.371C465.073 230.285 463.733 232.152 462.08 232.152C460.427 232.152 459.086 230.285 459.086 228.371C459.086 226.456 459.717 224.905 462.08 224.905C464.443 224.905 465.073 226.456 465.073 228.371Z" fill="white"/>
<path fill-rule="evenodd" clip-rule="evenodd" d="M465.188 227.921C465.188 230.576 463.183 232.152 462.08 232.152C460.662 232.152 458.972 230.576 458.972 227.921C458.972 225.85 460.032 224.905 462.08 224.905C464.128 224.905 465.188 225.85 465.188 227.921Z" stroke="#25316D" stroke-width="2" stroke-linecap="round" stroke-linejoin="round"/>
<path d="M459.908 232.794C458.925 232.794 457.198 232.34 457.08 233.569C456.909 235.338 457.08 235.497 457.08 235.497C457.08 235.497 458.652 238.647 462.08 238.647C466.063 238.647 467.08 235.497 467.08 235.497C467.08 235.497 467.251 235.338 467.08 233.569C466.961 232.34 465.234 232.794 464.252 232.794" stroke="#25316D" stroke-width="2" stroke-linecap="round" stroke-linejoin="round"/>
<path d="M448.153 218.357C448.153 217.746 448.648 217.251 449.259 217.251H450.858C450.858 217.251 451.562 218.307 452.507 218.307C453.451 218.307 454.156 217.251 454.156 217.251H455.755C456.365 217.251 456.86 217.746 456.86 218.357V218.703C456.86 221.107 454.911 223.056 452.507 223.056C450.102 223.056 448.153 221.107 448.153 218.703V218.357Z" fill="white"/>
<path d="M455.013 213.558C455.013 215.16 453.891 216.724 452.507 216.724C451.122 216.724 450 215.16 450 213.558C450 211.955 450.528 210.655 452.507 210.655C454.485 210.655 455.013 211.955 455.013 213.558Z" fill="white"/>
<path fill-rule="evenodd" clip-rule="evenodd" d="M455.11 213.181C455.11 215.404 453.431 216.724 452.507 216.724C451.32 216.724 449.905 215.404 449.905 213.181C449.905 211.447 450.793 210.655 452.507 210.655C454.222 210.655 455.11 211.447 455.11 213.181Z" stroke="#25316D" stroke-width="2" stroke-linecap="round" stroke-linejoin="round"/>
<path d="M450.688 217.262C449.865 217.262 448.419 216.881 448.32 217.911C448.177 219.392 448.32 220.484 448.32 220.484C448.32 220.484 449.637 223.122 452.507 223.122C455.843 223.122 456.694 220.484 456.694 220.484C456.694 220.484 456.837 219.392 456.694 217.911C456.595 216.881 455.149 217.262 454.326 217.262" stroke="#25316D" stroke-width="2" stroke-linecap="round" stroke-linejoin="round"/>
<path d="M467.413 218.357C467.413 217.746 467.908 217.251 468.518 217.251H470.117C470.117 217.251 470.821 218.307 471.766 218.307C472.711 218.307 473.415 217.251 473.415 217.251H475.014C475.624 217.251 476.12 217.746 476.12 218.357V218.703C476.12 221.107 474.17 223.056 471.766 223.056C469.362 223.056 467.413 221.107 467.413 218.703V218.357Z" fill="white"/>
<path d="M474.272 213.558C474.272 215.16 473.15 216.724 471.765 216.724C470.381 216.724 469.259 215.16 469.259 213.558C469.259 211.955 469.786 210.655 471.765 210.655C473.744 210.655 474.272 211.955 474.272 213.558Z" fill="white"/>
<path fill-rule="evenodd" clip-rule="evenodd" d="M474.369 213.181C474.369 215.404 472.689 216.724 471.766 216.724C470.579 216.724 469.164 215.404 469.164 213.181C469.164 211.447 470.051 210.655 471.766 210.655C473.481 210.655 474.369 211.447 474.369 213.181Z" stroke="#25316D" stroke-width="2" stroke-linecap="round" stroke-linejoin="round"/>
<path d="M469.947 217.262C469.124 217.262 467.678 216.881 467.579 217.911C467.436 219.392 467.579 220.484 467.579 220.484C467.579 220.484 468.895 223.122 471.766 223.122C475.101 223.122 475.953 220.484 475.953 220.484C475.953 220.484 476.096 219.392 475.953 217.911C475.853 216.881 474.407 217.262 473.585 217.262" stroke="#25316D" stroke-width="2" stroke-linecap="round" stroke-linejoin="round"/>
<path d="M455.476 234.384V234.384C453.512 234.367 451.933 232.764 451.944 230.8L451.975 225.496M451.975 225.496L454.092 227.646M451.975 225.496L449.815 228.004" stroke="#CB2027" stroke-width="2" stroke-linecap="round" stroke-linejoin="round"/>
<path d="M468.756 234.384V234.384C470.72 234.367 472.299 232.764 472.288 230.8L472.257 225.496M472.257 225.496L470.139 227.646M472.257 225.496L474.417 228.004" stroke="#CB2027" stroke-width="2" stroke-linecap="round" stroke-linejoin="round"/>
<path d="M448.338 162.705C447.88 162.247 447.383 161.942 447.479 161.56L448.338 160.988C449.025 160.301 449.388 159.174 449.483 158.697L450.056 154.117L451.487 150.395L454.35 144.955C454.732 143.428 455.495 140.317 455.495 140.088C455.495 139.802 455.781 138.657 456.64 138.37C457.327 138.141 458.072 139.42 458.358 140.088L457.213 148.677L457.499 150.967C457.595 150.681 457.9 149.937 458.358 149.25C458.931 148.391 459.79 150.109 459.79 150.967C459.79 151.826 459.503 152.399 459.217 155.262C458.931 158.125 457.499 159.27 456.64 160.415C455.781 161.56 455.209 161.56 454.35 162.705C453.663 163.622 451.582 164.805 450.628 165.282L450.056 165.282C449.865 164.805 448.796 163.164 448.338 162.705Z" fill="white"/>
<path d="M474.359 162.708C474.827 162.251 475.335 161.946 475.237 161.564L474.359 160.992C473.656 160.306 473.286 159.181 473.188 158.704L472.603 154.128L471.14 150.41L468.213 144.976C467.823 143.45 467.043 140.343 467.043 140.114C467.043 139.828 466.75 138.684 465.872 138.398C465.169 138.169 464.409 139.446 464.116 140.114L465.287 148.694L464.994 150.982C464.896 150.696 464.584 149.952 464.116 149.266C463.531 148.408 462.653 150.124 462.653 150.982C462.653 151.84 462.945 152.412 463.238 155.272C463.531 158.132 464.994 159.276 465.872 160.42C466.75 161.564 467.335 161.564 468.213 162.708C468.916 163.623 471.042 164.806 472.018 165.282L472.603 165.282C472.798 164.806 473.891 163.166 474.359 162.708Z" fill="white"/>
<path d="M450.4 165.1C453.533 163.654 455.274 161.192 455.274 161.192C456.073 160.472 457.47 160.306 458.113 158.592C458.836 156.664 459.829 152.572 459.826 151.56C459.865 150.941 459.852 149.926 459.077 149.674C458.108 149.359 457.94 149.286 457.499 150.967C457.146 152.312 456.426 153.531 455.703 154.254M447.809 161.135C448.954 160.761 449.71 159.194 449.71 159.194L449.969 154.728C449.997 153.276 451.487 150.108 452.77 148.103C454.296 145.717 455.462 141.962 455.986 138.861C456.15 137.892 458.113 138.588 458.26 139.694C458.548 141.857 457.068 149.002 457.068 149.002" stroke="#25316D" stroke-width="2" stroke-linecap="round" stroke-linejoin="round"/>
<path d="M472.252 165.1C469.119 163.654 467.378 161.192 467.378 161.192C466.579 160.472 465.182 160.306 464.539 158.592C463.816 156.664 462.823 152.572 462.826 151.56C462.787 150.941 462.8 149.926 463.575 149.674C464.544 149.359 464.712 149.286 465.153 150.967C465.505 152.312 466.226 153.531 466.949 154.254M474.843 161.135C473.698 160.761 472.942 159.194 472.942 159.194L472.682 154.728C472.655 153.276 471.165 150.108 469.882 148.103C468.356 145.717 467.19 141.962 466.666 138.861C466.502 137.892 464.539 138.588 464.392 139.694C464.104 141.857 465.584 149.002 465.584 149.002" stroke="#25316D" stroke-width="2" stroke-linecap="round" stroke-linejoin="round"/>
<path d="M457.786 136.367C457.5 135.699 456.698 134.305 455.782 134.076" stroke="#CB2027" stroke-width="2" stroke-linecap="round" stroke-linejoin="round"/>
<path d="M464.943 136.367C465.229 135.699 466.031 134.305 466.947 134.076" stroke="#CB2027" stroke-width="2" stroke-linecap="round" stroke-linejoin="round"/>
<path d="M461.222 138.657C461.508 137.798 461.451 136.481 461.222 135.794C460.935 134.935 460.935 134.363 461.222 133.79" stroke="#CB2027" stroke-width="2" stroke-linecap="round" stroke-linejoin="round"/>
<path d="M399.3 117.616C398.584 117.616 397.91 117.453 397.267 117.122C396.626 116.791 396.09 116.338 395.652 115.752C395.178 115.062 394.58 114.506 393.862 114.097C393.771 114.045 393.689 113.979 393.626 113.909C393.994 113.727 394.435 113.555 394.954 113.398C396.514 112.926 397.961 112.697 399.3 112.697C400.639 112.697 402.086 112.926 403.646 113.398C404.172 113.557 404.617 113.731 404.987 113.915C404.927 113.982 404.849 114.045 404.763 114.093C404.026 114.504 403.415 115.066 402.937 115.768C402.524 116.369 402.007 116.819 401.378 117.134C400.737 117.454 400.048 117.616 399.3 117.616Z" fill="#CB2027" stroke="#25316D" stroke-width="2"/>
<path d="M392.856 118.817L392.874 118.844L392.893 118.87C393.651 119.89 394.592 120.694 395.709 121.272C396.832 121.853 398.033 122.145 399.3 122.145C400.586 122.145 401.799 121.855 402.925 121.272C404.041 120.694 404.971 119.891 405.707 118.87C405.929 118.583 406.178 118.366 406.455 118.208C406.717 118.058 406.968 117.994 407.222 117.994H411.754C412.286 117.994 412.685 118.163 413.019 118.496C413.352 118.83 413.521 119.229 413.521 119.761V124.75C411.154 126.156 408.202 126.156 405.835 124.75V123.804V121.861L404.254 122.99C403.422 123.584 402.677 124.1 401.917 124.344C401.086 124.611 400.215 124.746 399.3 124.746C398.415 124.746 397.552 124.607 396.707 124.329C395.931 124.074 395.177 123.549 394.346 122.956L392.765 121.826V123.769V124.75C390.398 126.156 387.446 126.156 385.079 124.75V119.761C385.079 119.236 385.248 118.839 385.591 118.504C385.945 118.157 386.346 117.994 386.846 117.994H391.378C391.664 117.994 391.936 118.063 392.207 118.214L392.692 117.34L392.207 118.214C392.481 118.366 392.693 118.565 392.856 118.817Z" fill="white" stroke="#25316D" stroke-width="2"/>
<path fill-rule="evenodd" clip-rule="evenodd" d="M391.522 109.928C391.523 112.865 389.306 114.608 388.087 114.608C386.519 114.608 384.651 112.865 384.651 109.928C384.651 107.637 385.823 106.592 388.087 106.592C390.35 106.592 391.522 107.637 391.522 109.928Z" fill="white" stroke="#25316D" stroke-width="2" stroke-linecap="round" stroke-linejoin="round"/>
<path fill-rule="evenodd" clip-rule="evenodd" d="M413.853 109.928C413.854 112.865 411.637 114.608 410.418 114.608C408.85 114.608 406.982 112.865 406.982 109.928C406.982 107.637 408.154 106.592 410.418 106.592C412.681 106.592 413.853 107.637 413.853 109.928Z" fill="white" stroke="#25316D" stroke-width="2" stroke-linecap="round" stroke-linejoin="round"/>
<path fill-rule="evenodd" clip-rule="evenodd" d="M402.974 104.775C402.974 107.712 400.757 109.455 399.539 109.455C397.971 109.455 396.103 107.712 396.103 104.775C396.103 102.484 397.275 101.438 399.539 101.438C401.802 101.438 402.974 102.484 402.974 104.775Z" fill="white" stroke="#25316D" stroke-width="2" stroke-linecap="round" stroke-linejoin="round"/>
<rect x="386.369" y="120.334" width="1.71777" height="2.29036" rx="0.572589" fill="#CB2027"/>
<rect x="531" y="179" width="5" height="3" rx="1" fill="#CB2027"/>
<path d="M520.522 179.056H543.848M531.239 179.667V181.111C531.239 181.663 531.687 182.111 532.239 182.111H534.652C535.204 182.111 535.652 181.663 535.652 181.111V179.667M526.196 169.278V166C526.196 165.448 526.643 165 527.196 165H537.174C537.726 165 538.174 165.448 538.174 166V169.278M519 187H546C546.552 187 547 186.552 547 186V171.5C547 170.948 546.552 170.5 546 170.5H519C518.448 170.5 518 170.948 518 171.5V186C518 186.552 518.448 187 519 187Z" stroke="#25316D" stroke-width="2" stroke-linecap="round" stroke-linejoin="round"/>
<path d="M557.572 154.438C555.8 151.771 552.764 150.223 549.564 150.355L519.364 151.603C516.058 151.739 513.082 153.648 511.58 156.596L498.289 182.665C496.787 185.613 496.99 189.142 498.821 191.897" stroke="#25316D" stroke-width="2"/>
<path d="M175.606 308.89C175.606 308.89 173.569 312.963 173.569 317.037L178.661 355.737L185.79 363.884C185.451 371.013 185.79 385.882 189.864 388.326C194.956 391.381 214.306 392.4 226.527 391.381C238.748 390.363 232.638 384.252 234.675 369.995C236.711 355.737 213.288 367.958 234.675 355.737C236.402 354.749 248.447 381.197 255.043 399.529C272.356 403.602 311.056 430.082 326.332 416.842C331.424 384.253 273.495 365.765 273.375 358.792C266.246 345.553 262.047 298.014 260.135 289.539C258.213 281.021 247.718 268.456 244.859 266.116C235.897 258.784 210.232 261.703 202.085 266.116C199.709 262.382 191.086 258.172 175.606 271.208C156.256 287.503 169.668 308.89 175.606 308.89Z" fill="white"/>
<path fill-rule="evenodd" clip-rule="evenodd" d="M50.8154 192.742C50.8154 192.742 54.5564 209.95 65.8354 213.253L73.595 239.538L74.5405 245.277L65.8353 253.464L71.2285 272.371L85.2372 320.854L95.4004 365.143L107.856 412.818C107.856 412.818 114.311 435.77 115.553 440.26C116.804 444.818 118.479 456.809 118.479 456.809L121.268 469.096L132.297 461.225C132.297 461.225 123.17 407.963 115.553 397.663C107.946 387.436 95.4004 317.543 95.4004 317.543L73.595 248.682L81.1804 243.29L71.9787 211.855C71.9787 211.855 60.437 199.491 50.8154 192.742ZM324.252 591.519C324.252 591.519 311.046 598.211 300.312 592.549L272.543 581.218L253.299 570.627L257.33 559.883C257.33 559.883 278.723 574.156 296.435 581.218C314.141 588.207 324.252 591.519 324.252 591.519ZM185.337 530.159C185.337 530.159 197.069 542.816 205.368 540.312C213.671 537.739 223 535.827 228.684 538.622C234.352 541.342 257.705 554.442 257.705 554.442L260.14 543.18C260.14 543.18 232.984 531.929 225.224 531.781C217.469 531.559 206.567 536.709 200.186 533.471C193.805 530.233 185.337 530.159 185.337 530.159ZM271.317 802.077L272.633 824.368H267.387V831.283C267.387 831.283 270.256 856.812 267.387 869.537C264.524 882.342 257.182 902.573 262.596 916.402L267.387 925.894L276.198 927.146C276.198 927.146 266.801 903.603 272.633 886.61C278.464 869.685 280.128 842.761 276.198 824.368H282.416L280.704 800.313L271.317 802.077ZM238.614 636.984L256.442 747.341L259.126 763.817L254.461 763.009V767.129L260.853 800.825H272.611L264.92 763.817H272.611C263.494 713.424 255.402 659.201 238.614 636.984ZM135.277 587.99C135.277 587.99 111.131 595.053 107.032 609.547C102.933 624.037 100.603 643.681 100.603 643.681L93.858 702.093L88.6179 758.598L85.1474 756.976V793.91L93.858 797.735L96.647 762.349L102.627 764.261C102.627 764.261 106.462 693.853 111.342 661.261C116.223 628.674 120.682 596.743 135.277 587.99ZM96.7579 799.283L94.2488 823.856L89.9702 825.324C89.9702 825.324 90.9685 836.655 89.9702 843.353C88.9718 850.046 83.9483 867.113 75.243 878.739C66.5431 890.434 57.4628 910.301 69.5117 926.782L77.9529 929.502C77.9529 929.502 65.9514 912.435 77.9529 892.864C89.9596 873.293 101.993 853.062 96.7579 825.324C96.7579 825.324 100.767 825.916 100.767 825.324C100.767 824.664 104.306 799.283 104.306 799.283H96.7579Z" fill="#DAE8F1"/>
<path d="M26.7458 173.985C29.4078 178.116 41.6524 186.096 47.3077 189.618C50.3994 197.43 56.9168 212.555 64.9314 213.977C64.9314 213.977 69.8152 233.779 73.2218 247.727L96 236.12L87.0031 208.877C88.7223 204.398 91.3867 202.174 93.7674 199.297C94.2775 198.739 97.1853 189.275 98.5755 184.612C98.7415 181.494 101.615 174.064 102.331 172.933C102.903 172.029 104.185 167.644 104.754 165.565C107.598 160.249 108.683 157.473 102.46 157.253C97.4823 157.077 90.0911 175.454 88.1924 181.75C86.472 186.301 84.8807 180.381 81.3488 178.164C76.0442 173.494 75.5773 158.806 75.5421 155.559C74.9222 145.216 72.9943 134.634 71.5155 129.789C67.6296 125.561 66.3563 128.257 65.6049 130.346L67.6343 146.944L67.6343 162.494C67.1579 164.36 65.5354 164.346 64.7836 164.106C63.5171 161.686 60.9201 157.865 60.1959 155.559C59.2332 152.494 56.4601 144.735 56.0365 144.324C55.6977 143.996 53.0159 135.907 51.2772 131.904C50.8182 130.931 49.3323 129.257 47.0603 130.346C44.7882 131.435 44.61 133.206 44.8049 133.956C44.5212 134.154 47.4408 141.412 48.4635 144.324C49.4933 147.256 54.4411 163.226 56.0365 166.901C57.6319 170.575 55.0498 170.455 54.9744 169.909C54.9142 169.472 49.5551 162.669 47.0603 159.339C47.106 159.085 37.6066 144.958 36.2519 143.769C35.7289 143.311 31.746 143.772 32.1836 146.944C32.6212 150.115 39.6652 160.536 40.3523 161.129C40.902 161.603 45.5054 170.724 48.4635 176.008C50.5089 181.464 52.289 181.617 51.1168 181.75C48.4318 180.266 43.9064 178.646 42.6153 178.164C41.3242 177.681 37.4461 173.986 36.2521 172.934C33.8157 170.314 31.3202 169.34 30.377 169.18C25.5011 168.601 25.9246 172.142 26.7458 173.985Z" fill="white"/>
<path d="M73.2218 247.727C69.8152 233.779 64.9314 213.977 64.9314 213.977C56.9168 212.555 50.3994 197.43 47.3077 189.618C41.6524 186.096 29.4078 178.116 26.7458 173.985C25.9246 172.142 25.5011 168.601 30.377 169.18C31.3202 169.34 33.8157 170.314 36.2521 172.934C37.4461 173.986 41.3242 177.681 42.6153 178.164C43.9064 178.646 48.4318 180.266 51.1168 181.75C52.289 181.617 50.5089 181.464 48.4635 176.008C45.5054 170.724 40.902 161.603 40.3523 161.129C39.6652 160.536 32.6212 150.115 32.1836 146.944C31.746 143.772 35.7289 143.311 36.2519 143.769C37.6066 144.958 47.106 159.085 47.0603 159.339C49.5551 162.669 54.9142 169.472 54.9744 169.909C55.0498 170.455 57.6319 170.575 56.0365 166.901C54.4411 163.226 49.4933 147.256 48.4635 144.324C47.4408 141.412 44.5212 134.154 44.8049 133.956C44.61 133.206 44.7882 131.435 47.0603 130.346C49.3323 129.257 50.8182 130.931 51.2772 131.904C53.0159 135.907 55.6977 143.996 56.0365 144.324C56.4601 144.735 59.2332 152.494 60.1959 155.559C60.9201 157.865 63.5171 161.686 64.7836 164.106C65.5354 164.346 67.1579 164.36 67.6343 162.494L67.6343 146.944L65.6049 130.346C66.3563 128.257 67.6296 125.561 71.5155 129.789C72.9943 134.634 74.9222 145.216 75.5421 155.559C75.5773 158.806 76.0442 173.494 81.3488 178.164C84.8807 180.381 86.472 186.301 88.1924 181.75C90.0911 175.454 97.4823 157.077 102.46 157.253C108.683 157.473 107.598 160.249 104.754 165.565C104.185 167.644 102.903 172.029 102.331 172.933C101.615 174.064 98.7415 181.494 98.5755 184.612C97.1853 189.275 94.2775 198.739 93.7674 199.297C91.3867 202.174 88.7223 204.398 87.0031 208.877L96.2093 236.874" stroke="#25316D" stroke-width="2"/>
<path fill-rule="evenodd" clip-rule="evenodd" d="M172.539 379.122C172.539 379.122 182.073 381.7 184.313 387.421C184.313 387.421 176.87 401.831 189.548 407.393C189.548 407.393 210.281 417.097 234.447 408.962C234.447 408.962 242.899 406.585 243.956 395.228C243.956 395.228 271.086 398.693 277.488 407.393C277.488 407.393 272.364 451.448 272.633 473.11C272.898 494.858 275.835 513.14 275.734 521.269L260.495 515.876L259.148 521.269L247.373 517.086L231.088 511.286C231.088 511.286 219.092 502.021 215.748 501.218C212.415 500.415 201.317 499.205 200.546 499.126C199.78 499.041 192.289 497.435 192.289 497.435C192.289 497.435 192.659 503.552 196.631 506.938L181.006 505.243L162.772 508.787C162.772 508.787 161.081 512.252 159.639 514.666C157.632 518.052 153.052 533.028 156.507 534.158C158.123 534.723 159.47 537.623 161.763 537.217C163.432 536.894 165.608 533.672 168.746 531.982C176.205 528.036 185.38 529.003 185.38 529.003C185.38 529.003 197.45 539.15 200.546 540.037C203.646 541.004 220.418 536.25 224.026 537.217C227.644 538.268 248.52 548.896 248.52 548.896L258.44 554.854L254.066 570.802C254.066 570.802 272.422 581.916 275.734 583.204C279.051 584.493 284.307 586.585 284.307 586.585V602.052C284.307 602.052 272.464 597.055 264.578 598.83C264.578 598.83 246.85 599.876 241.61 602.052C236.36 604.223 213.487 607.846 208.675 607.688C203.863 607.445 195.85 602.612 192.289 601.164C188.718 599.717 154.611 588.439 147.326 588.439C140.026 588.36 127.866 584.736 114.66 598.83C114.66 598.83 113.329 580.949 117.138 575.07C120.941 569.19 121.607 568.625 122.167 560.897C122.726 553.164 121.797 478.345 120.371 467.474C120.371 467.474 162.877 435.58 172.539 379.122Z" fill="#58B9FD"/>
<path d="M197.248 322.973C196.562 326.839 196.07 330.624 194.628 334.329C194.148 335.537 193.572 336.744 192.801 337.791C192.605 338.033 191.839 338.677 191.823 338.999C191.808 339.16 193.799 339.564 193.994 339.644C196.361 340.127 198.775 339.885 201.104 339.322M178.116 314.626C181.998 312.532 187.629 311.808 191.586 314.063M207.205 314.627C211.511 312.452 217.057 312.372 221.431 314.466" stroke="#25316D" stroke-width="2" stroke-miterlimit="1.5" stroke-linecap="round" stroke-linejoin="round"/>
<path d="M172.078 316.019C172.078 316.019 175.322 344.918 176.426 354.813C176.669 356.933 177.799 358.896 179.526 360.152C187.46 365.885 195.046 369.106 203.44 369.734C204.042 369.734 204.649 369.733 205.241 369.576C214.596 367.298 223.195 363.451 231.055 358.032M198.289 264.682C187.033 263.795 175.755 269.352 169.485 278.775C162.75 288.842 164.176 303.42 174.941 310.024" stroke="#25316D" stroke-width="2" stroke-miterlimit="1.5" stroke-linecap="round" stroke-linejoin="round"/>
<path d="M194.935 274.89C181.904 280.044 182.839 298.729 192.806 306.38M212.573 278.999C203.994 285.523 205.389 299.296 211.78 306.866M172.337 317.655C171.138 326.112 168.809 333.603 163.468 340.288C161.408 342.945 158.873 344.958 156.533 347.294M205.59 263.132C213.312 262.166 221.03 260.958 228.827 261.764C245.688 263.616 256.173 276.985 260.019 292.77C263.473 306.945 263.045 321.522 264.778 335.938C265.866 344.958 268.132 354.864 273.742 362.192C279.722 370.085 289.093 373.95 297.613 378.382C309.635 384.663 321.89 392.718 325.123 406.727C325.968 410.435 326.37 414.217 326.137 418.005" stroke="#25316D" stroke-width="2" stroke-miterlimit="1.5" stroke-linecap="round" stroke-linejoin="round"/>
<path d="M229.656 296.281C224.49 314.24 225.102 334.615 232.281 351.931C238.72 367.475 249.047 380.279 253.035 396.95M243.564 314.804C242.275 326.401 243.194 339.368 248.72 349.838C254.784 361.355 264.831 370.134 270.657 381.811M185.76 364.497V388.736C185.76 388.736 213.186 400.579 231.573 388.736M231.573 358.374V385.355M232.096 386C236.28 386.322 240.316 388.736 241.219 393.004M241.567 394.05C244.932 395.339 248.207 396.871 251.683 397.917M188.063 401.382C192.431 403.796 197.634 404.683 202.531 405.249C212.404 406.215 223.745 405.65 232.556 400.574M65.3018 253.194C77.5831 244.013 92.4898 236.202 107.618 232.98M68.9782 269.78C78.2223 261.405 90.1022 256.332 101.634 251.821C105.078 250.532 108.58 249.403 112.129 248.438C114.142 247.875 116.186 247.069 118.268 246.828" stroke="#25316D" stroke-width="2" stroke-miterlimit="1.5" stroke-linecap="round" stroke-linejoin="round"/>
<path d="M66.269 255.047C75.83 287.664 84.7044 320.925 92.7018 353.945M94.6827 361.517C98.338 385.519 107.265 407.906 113.467 431.18C115.511 438.834 117.09 446.805 118.247 454.696C118.749 458.003 118.464 461.463 119.261 464.765M113.435 232.094C119.245 252.148 125.859 271.88 132.409 291.611C134.95 299.343 136.693 307.396 139.656 314.967C148.071 336.47 159.634 357.087 169.929 377.701M130.095 309.393C125.658 309.062 121.865 309.614 117.576 310.442M133.582 314.079C127.486 317.945 122.637 322.939 117.582 327.932M286.056 455.262C283.034 470.966 280.979 487.072 277.028 502.618M280.134 409.918C290.292 414.429 301.343 420.71 308.104 429.732C315.13 439.156 316.883 451.796 319.873 462.91C326.386 486.993 332.023 511.798 335.752 536.525M336.84 547.074C337.315 562.778 338.414 581.863 323.36 591.53C321.183 592.898 318.759 594.028 316.265 594.673M309.948 595.476C302.637 594.509 295.881 591.366 289.109 588.709C277.076 583.876 264.61 578.482 253.902 571.071M259.227 518.887C261.377 536.604 260.157 556.175 252.825 572.767M278.418 523.235C279.215 542.161 278.37 562.778 269.3 579.93" stroke="#25316D" stroke-width="2" stroke-miterlimit="1.5" stroke-linecap="round" stroke-linejoin="round"/>
<path d="M90.7525 824.553C107.038 825.034 123.698 824.875 139.904 827.131M89.9495 830.189C90.2401 842.914 88.5233 856.448 82.4909 867.805C78.0696 876.098 71.5829 883.266 67.4469 891.723C63.8919 898.97 62.6928 907.507 64.2669 915.478M141.542 833.654C141.32 848.149 140.443 862.406 141.373 876.901C141.822 883.91 143.877 890.756 144.775 897.681C145.43 902.752 145.123 907.665 144.88 912.741M67.2514 914.997C74.615 917.575 82.3536 918.055 90.0711 918.621C107.297 919.746 125.246 919.265 142.039 914.833M65.1015 915.805C65.8199 918.784 66.6704 921.843 67.9117 924.664M70.0405 927.157C83.4153 931.826 99.1038 931.267 113.054 930.379C122.108 929.814 131.294 929.169 140.031 926.597M143.708 915.235C143.544 918.378 143.507 921.679 143.047 924.822M99.537 874.36C106.14 874.36 113.34 873.795 119.832 875.242M98.7658 883.942C105.094 882.812 111.586 882.733 117.972 883.377M111.734 866.384C114.201 862.85 117.402 860.325 120.862 858.233C122.608 857.226 124.466 856.427 126.398 855.851C129.319 855.132 134.564 854.699 135.018 859.385C135.066 859.966 134.907 860.541 134.791 861.117C134.606 861.91 134.237 862.559 133.809 863.209C131.58 866.6 127.491 867.683 124.073 868.476C121.02 869.125 117.793 869.627 114.676 869.844M109.299 866.363C107.545 863.484 105.353 860.948 102.712 859.031C100.271 857.182 97.1969 855.74 94.1649 856.358C93.5574 856.495 92.9711 856.701 92.427 857.045C88.7029 859.168 91.8037 864.102 94.2177 865.745C95.9714 866.981 98.0209 867.593 100.012 868.143C102.907 868.898 105.818 869.305 108.77 869.648M268.038 824.955C278.824 825.763 289.822 825.763 300.63 825.44C306.044 825.361 311.479 824.796 316.894 824.875M319.789 826.486C321.199 840.58 323.576 854.351 330.438 866.917C337.379 879.637 349.66 892.283 349.475 907.586M266.918 830.591C270.077 845.651 268.745 862.485 265.735 877.466C263.273 889.626 258.704 900.983 262.053 913.465M262.507 914.997C274.049 918.779 286.13 919.503 298.184 919.022C314.966 918.378 332.329 915.076 347.938 908.632M262.787 917.575C263.569 919.587 264.446 921.436 265.523 923.29M267.546 925.467C276.542 928.203 286.521 928.689 295.87 928.689C312.953 928.609 329.566 925.952 345.249 919.022M346.142 918.7C346.813 916.444 347.357 914.11 347.648 911.854M288.237 876.241C295.448 874.709 302.589 873.742 310.09 874.466M289.769 883.324C296.145 882.12 303.192 881.713 309.72 882.357M301.374 865.306C302.764 862.406 305.051 859.992 307.729 858.138C310.624 856.205 315.251 854.271 318.906 855.238C319.567 855.397 320.058 855.64 320.639 856.041C324.421 858.46 322.451 863.051 319.583 865.306C317.924 866.595 315.917 867.398 313.962 868.122C311.369 869.168 308.543 869.976 305.78 870.377M297.186 865.935C294.988 863.515 292.611 861.26 289.748 859.649C286.103 857.557 281.233 856.11 277.208 857.958C273.753 859.49 272.248 863.272 274.266 866.658C275.327 868.428 277.255 869.638 279.162 870.361C283.23 871.814 287.667 871.65 291.914 871.328M176.094 446.26C192.125 449.794 208.395 451.632 224.775 452.292M234.183 451.706H241.737" stroke="#25316D" stroke-width="2" stroke-miterlimit="1.5" stroke-linecap="round" stroke-linejoin="round"/>
<path d="M194.951 351.949L212.319 347.491C212.319 347.491 213.756 353.695 206.228 356.82C199.108 359.853 194.951 351.949 194.951 351.949Z" stroke="#25316D" stroke-width="2" stroke-miterlimit="1.5" stroke-linecap="round" stroke-linejoin="round"/>
<path d="M187.101 326.805C187.748 326.805 188.368 326.548 188.826 326.09C189.283 325.633 189.541 325.012 189.541 324.365C189.541 323.718 189.284 323.097 188.826 322.64C188.369 322.182 187.748 321.925 187.101 321.925C186.453 321.925 185.833 322.182 185.375 322.64C184.917 323.097 184.66 323.718 184.66 324.365C184.66 325.012 184.918 325.633 185.375 326.09C185.833 326.548 186.454 326.805 187.101 326.805ZM213.708 326.805C214.355 326.805 214.975 326.548 215.433 326.09C215.891 325.633 216.148 325.012 216.148 324.365C216.148 323.718 215.891 323.097 215.433 322.64C214.976 322.182 214.355 321.925 213.708 321.925C213.06 321.925 212.44 322.182 211.982 322.64C211.524 323.097 211.267 323.718 211.267 324.365C211.267 325.012 211.525 325.633 211.982 326.09C212.44 326.548 213.061 326.805 213.708 326.805Z" fill="#25316D"/>
<path fill-rule="evenodd" clip-rule="evenodd" d="M187.101 365.111C187.101 365.111 199.816 369.944 204.448 369.3C209.086 368.656 225.356 362.777 225.356 362.777C225.356 362.777 216.592 372.683 204.448 375.42C196.868 377.194 185.997 369.3 185.997 369.3L187.101 365.111Z" fill="#25316D"/>
<path d="M111.302 143.701C103.294 144.504 95.248 145.86 87.3191 147.24M109.699 96.9115C100.393 104.756 90.8223 112.558 82.2037 121.159M74.614 80.9927C73.3181 86.7733 72.0113 92.5567 70.6648 98.3522" stroke="#25316D" stroke-width="3" stroke-miterlimit="1.5" stroke-linecap="round" stroke-linejoin="round"/>
</g>
<path d="M31.5698 477C31.0175 477 30.5698 477.448 30.5698 478C30.5698 478.552 31.0175 479 31.5698 479L31.5698 477ZM31.5698 479L587 479L587 477L31.5698 477L31.5698 479Z" fill="#25316D"/>
<path d="M393.086 359.033C397.671 362.485 403.083 366.561 408.867 368.655C409.61 368.927 410.367 369.168 411.118 369.344C413.709 369.949 414.654 369 413.877 367.178C413.169 365.513 411.294 363.882 409.502 362.508C405.862 359.71 398.93 355.442 394.345 353.942C390.812 352.786 388.282 354.267 390.494 356.897" stroke="#25316D" stroke-width="2" stroke-miterlimit="1.5" stroke-linecap="round" stroke-linejoin="round"/>
<path d="M392.917 353.188C392.979 348.17 393.403 344.265 394.372 339.332C394.682 337.774 395.114 336.231 395.635 334.731C396.022 333.613 396.446 332.507 396.986 331.45C399.11 327.252 407.998 312.488 413.066 316.951C418.053 321.342 413.12 329.617 414.735 331.891C417.709 336.078 424.671 338.378 421.946 344.725C420.763 347.484 418.095 349.513 415.516 350.887C411.512 353.015 407.236 354.386 402.988 355.886C402.643 356.008 401.396 356.575 401.051 356.694M411.795 363.625C415.175 363.717 418.815 364.437 422.015 362.959C424.702 361.715 429.448 355.825 422.015 350.171M387.222 352.87C382.9 350.642 380.148 346.669 381.239 341.64C381.656 339.722 382.862 337.2 384.994 336.733C386.15 336.48 387.348 336.905 387.888 337.992C388.611 339.465 387.7 341.008 386.035 340.671" stroke="#25316D" stroke-width="2" stroke-miterlimit="1.5" stroke-linecap="round" stroke-linejoin="round"/>
<path d="M487.707 442.389L487.71 442.387L488.632 441.627C489.419 440.692 488.519 440.165 487.262 440.576C485.631 441.11 483.165 442.628 481.87 443.623C481.232 444.112 480.565 444.692 480.313 445.285C480.037 445.933 480.373 446.271 481.295 446.056C481.562 445.993 481.831 445.907 482.096 445.81C484.152 445.066 486.076 443.617 487.707 442.389Z" fill="#25316D"/>
<path d="M487.77 440.307C487.748 438.522 487.597 437.133 487.252 435.378C487.142 434.824 486.988 434.275 486.803 433.741C486.665 433.344 486.514 432.95 486.322 432.574C485.566 431.08 482.404 425.828 480.602 427.416C478.827 428.978 480.582 431.922 480.008 432.731C478.95 434.22 476.473 435.039 477.442 437.297C477.863 438.278 478.812 439 479.73 439.489C481.154 440.246 482.675 440.734 484.187 441.267C484.31 441.311 484.753 441.513 484.876 441.555" fill="#25316D"/>
<path d="M477.418 443.67C478.556 444.195 479.798 443.153 481 443.12C481 443.12 483.43 442.606 483 441.62C478.5 440.62 477.418 439.12 477.418 439.12C474.773 441.131 476.462 443.227 477.418 443.67Z" fill="#25316D"/>
<path d="M489.326 438.886C490.864 438.094 491.843 436.68 491.455 434.891C491.306 434.209 490.877 433.311 490.119 433.145C489.707 433.055 489.281 433.207 489.089 433.593C488.832 434.118 489.156 434.666 489.748 434.547" stroke="#25316D" stroke-width="2" stroke-miterlimit="1.5" stroke-linecap="round" stroke-linejoin="round"/>
<defs>
<clipPath id="clip0_617_3453">
<rect width="579" height="478" fill="white" transform="translate(8)"/>
</clipPath>
</defs>
</svg>
