<svg width="64" height="64" viewBox="0 0 64 64" fill="none" xmlns="http://www.w3.org/2000/svg">
<path d="M30.3184 33.1016V34.7827" stroke="#CB2027" stroke-width="2" stroke-linecap="round"/>
<path d="M33.6816 33.1016V34.7827" stroke="#CB2027" stroke-width="2" stroke-linecap="round"/>
<path d="M32 33.1016V36.0436" stroke="#CB2027" stroke-width="2" stroke-linecap="round"/>
<path d="M39.5321 23.9891C39.4668 24.2884 39.5423 24.6012 39.737 24.8377L43.9184 29.9186L43.1499 33.3917L38.6812 30.5564C38.4358 30.4006 38.1347 30.3594 37.8564 30.4434C37.5781 30.5275 37.3502 30.7284 37.2319 30.9939L36.4178 32.8222C36.3291 32.9829 36.1816 33.0712 36.0182 33.0712H28.1C27.9366 33.0712 27.7891 32.983 27.7004 32.8222L26.8862 30.9939C26.768 30.7284 26.54 30.5275 26.2618 30.4434C25.9835 30.3594 25.6824 30.4006 25.437 30.5564L20.9418 33.4085L20.0934 29.9228L24.3662 24.9717C24.5717 24.7335 24.6532 24.4126 24.5861 24.1052C24.2423 22.529 24.0182 20.9772 24.0182 19.2097C24.0182 15.9246 25.4931 12.8602 27.2831 10.3627C29.0315 7.92325 31.0179 6.11219 32.0006 5.28464C32.9853 6.11154 34.978 7.91979 36.7439 10.3462C38.5511 12.8294 40.0521 15.8658 40.1 19.1007C40.0994 20.8652 39.8754 22.415 39.5321 23.9891Z" fill="white" stroke="#25316D" stroke-width="2" stroke-linecap="round" stroke-linejoin="round"/>
<path d="M28.8125 16.2016C28.8125 17.9348 30.2397 19.3401 32.0002 19.3401C33.7606 19.3401 35.1879 17.9348 35.1879 16.2016C35.1879 14.4682 33.7606 13.063 32.0002 13.063C30.2397 13.063 28.8125 14.4682 28.8125 16.2016Z" fill="#CB2027"/>
<path d="M4.5 44L11 36L32 38L28.5 45.5L4.5 44Z" fill="white" stroke="#25316D" stroke-width="2" stroke-linejoin="round"/>
<path d="M8 57.0527L7.89856 58.0476C7.3882 57.9955 7 57.5657 7 57.0527H8ZM7 44.5001C7 43.9478 7.44772 43.5001 8 43.5001C8.55228 43.5001 9 43.9478 9 44.5001H7ZM7 57.0527V44.5001H9V57.0527H7ZM31.8986 60.4948L7.89856 58.0476L8.10144 56.0579L32.1014 58.5052L31.8986 60.4948Z" fill="#25316D"/>
<path d="M59.5 44L53 36L32 38L35.5 45.5L59.5 44Z" fill="white" stroke="#25316D" stroke-width="2" stroke-linejoin="round"/>
<path d="M56 57.0527L56.1014 58.0476C56.6118 57.9955 57 57.5657 57 57.0527H56ZM57 44.5001C57 43.9478 56.5523 43.5001 56 43.5001C55.4477 43.5001 55 43.9478 55 44.5001H57ZM57 57.0527V44.5001H55V57.0527H57ZM32.1014 60.4948L56.1014 58.0476L55.8986 56.0579L31.8986 58.5052L32.1014 60.4948Z" fill="#25316D"/>
<path d="M32 59.5798V38.145" stroke="#25316D" stroke-width="2" stroke-linecap="round"/>
<path d="M41.9519 55.9038C43.0299 55.9038 43.9038 55.0299 43.9038 53.9519C43.9038 52.8739 43.0299 52 41.9519 52C40.8739 52 40 52.8739 40 53.9519C40 55.0299 40.8739 55.9038 41.9519 55.9038Z" fill="#CB2027"/>
<path d="M46.9519 55.4038C48.0299 55.4038 48.9038 54.5299 48.9038 53.4519C48.9038 52.3739 48.0299 51.5 46.9519 51.5C45.8739 51.5 45 52.3739 45 53.4519C45 54.5299 45.8739 55.4038 46.9519 55.4038Z" fill="#CB2027"/>
<path d="M51.9519 54.9038C53.0299 54.9038 53.9038 54.0299 53.9038 52.9519C53.9038 51.8739 53.0299 51 51.9519 51C50.8739 51 50 51.8739 50 52.9519C50 54.0299 50.8739 54.9038 51.9519 54.9038Z" fill="#CB2027"/>
<path d="M16.2896 49L14.6084 50.6812L16.2896 52.3623" stroke="#CB2027" stroke-width="2" stroke-linecap="round" stroke-linejoin="round"/>
<path d="M23.333 50L25.0142 51.68L23.333 53.36" stroke="#CB2027" stroke-width="2" stroke-linecap="round" stroke-linejoin="round"/>
<path d="M20.6519 49.5L18.9707 52.8623" stroke="#CB2027" stroke-width="2" stroke-linecap="round" stroke-linejoin="round"/>
</svg>
