<svg width="64" height="64" viewBox="0 0 64 64" fill="none" xmlns="http://www.w3.org/2000/svg">
<path d="M33.6816 33.1016V34.7827" stroke="#CB2027" stroke-width="2" stroke-linecap="round"/>
<path d="M30.3184 33.1016V34.7827" stroke="#CB2027" stroke-width="2" stroke-linecap="round"/>
<path d="M32 33.1016V36.0436" stroke="#CB2027" stroke-width="2" stroke-linecap="round"/>
<path d="M24.4679 23.9891C24.5332 24.2884 24.4577 24.6012 24.263 24.8377L20.0816 29.9186L20.8501 33.3917L25.3188 30.5564C25.5642 30.4006 25.8653 30.3594 26.1436 30.4434C26.4219 30.5275 26.6498 30.7284 26.7681 30.9939L27.5822 32.8222C27.6709 32.9829 27.8184 33.0712 27.9818 33.0712H35.9C36.0634 33.0712 36.2109 32.983 36.2996 32.8222L37.1138 30.9939C37.232 30.7284 37.46 30.5275 37.7382 30.4434C38.0165 30.3594 38.3176 30.4006 38.563 30.5564L43.0582 33.4085L43.9066 29.9228L39.6338 24.9717C39.4283 24.7335 39.3468 24.4126 39.4139 24.1052C39.7577 22.529 39.9818 20.9772 39.9818 19.2097C39.9818 15.9246 38.5069 12.8602 36.7169 10.3627C34.9685 7.92325 32.9821 6.11219 31.9994 5.28464C31.0147 6.11154 29.022 7.91979 27.2561 10.3462C25.4489 12.8294 23.9478 15.8659 23.9 19.1008C23.9006 20.8653 24.1246 22.415 24.4679 23.9891Z" fill="white" stroke="#25316D" stroke-width="2" stroke-linecap="round" stroke-linejoin="round"/>
<path d="M35.1875 16.2016C35.1875 17.9348 33.7603 19.3401 31.9998 19.3401C30.2394 19.3401 28.8121 17.9348 28.8121 16.2016C28.8121 14.4682 30.2394 13.063 31.9998 13.063C33.7603 13.063 35.1875 14.4682 35.1875 16.2016Z" fill="#CB2027"/>
<path d="M59.5 44L53 36L32 38L35.5 45.5L59.5 44Z" fill="white" stroke="#25316D" stroke-width="2" stroke-linejoin="round"/>
<path d="M56 57.0527L56.1014 58.0476C56.6118 57.9955 57 57.5657 57 57.0527H56ZM57 44.5001C57 43.9478 56.5523 43.5001 56 43.5001C55.4477 43.5001 55 43.9478 55 44.5001H57ZM57 57.0527V44.5001H55V57.0527H57ZM32.1014 60.4948L56.1014 58.0476L55.8986 56.0579L31.8986 58.5052L32.1014 60.4948Z" fill="#25316D"/>
<path d="M4.5 44L11 36L32 38L28.5 45.5L4.5 44Z" fill="white" stroke="#25316D" stroke-width="2" stroke-linejoin="round"/>
<path d="M8 57.0527L7.89856 58.0476C7.3882 57.9955 7 57.5657 7 57.0527H8ZM7 44.5001C7 43.9478 7.44772 43.5001 8 43.5001C8.55228 43.5001 9 43.9478 9 44.5001H7ZM7 57.0527V44.5001H9V57.0527H7ZM31.8986 60.4948L7.89856 58.0476L8.10144 56.0579L32.1014 58.5052L31.8986 60.4948Z" fill="#25316D"/>
<path d="M32 59.5798V38.145" stroke="#25316D" stroke-width="2" stroke-linecap="round"/>
<path d="M22.0481 55.9038C20.9701 55.9038 20.0962 55.0299 20.0962 53.9519C20.0962 52.8739 20.9701 52 22.0481 52C23.1261 52 24 52.8739 24 53.9519C24 55.0299 23.1261 55.9038 22.0481 55.9038Z" fill="#CB2027"/>
<path d="M17.0481 55.4038C15.9701 55.4038 15.0962 54.5299 15.0962 53.4519C15.0962 52.3739 15.9701 51.5 17.0481 51.5C18.1261 51.5 19 52.3739 19 53.4519C19 54.5299 18.1261 55.4038 17.0481 55.4038Z" fill="#CB2027"/>
<path d="M12.0481 54.9038C10.9701 54.9038 10.0962 54.0299 10.0962 52.9519C10.0962 51.8739 10.9701 51 12.0481 51C13.1261 51 14 51.8739 14 52.9519C14 54.0299 13.1261 54.9038 12.0481 54.9038Z" fill="#CB2027"/>
<path d="M47.7104 49L49.3916 50.6812L47.7104 52.3623" stroke="#CB2027" stroke-width="2" stroke-linecap="round" stroke-linejoin="round"/>
<path d="M40.667 50L38.9858 51.68L40.667 53.36" stroke="#CB2027" stroke-width="2" stroke-linecap="round" stroke-linejoin="round"/>
<path d="M43.3481 49.5L45.0293 52.8623" stroke="#CB2027" stroke-width="2" stroke-linecap="round" stroke-linejoin="round"/>
</svg>
