<svg width="506" height="476" viewBox="0 0 506 476" fill="none" xmlns="http://www.w3.org/2000/svg">
<path d="M303.071 108.637C301.947 113.031 293.747 121.367 289.788 124.986L289.42 128.2L268.362 126.262L267.692 113.363C254.613 118.574 255.004 109.744 256.835 104.678L250.065 95.2261C247.613 86.9495 252.96 81.5595 255.941 79.8991C262.583 58.85 266.116 64.6571 267.053 70.1918C279.519 55.1713 288.511 62.06 291.448 67.3819C301.666 67.8928 297.238 76.5356 293.747 80.7931L303.071 108.637Z" fill="white"/>
<path opacity="0.4" d="M131.216 432.625C82.9567 418.647 19.3418 401.209 4.08836 366.443C-11.171 331.786 22.0335 279.916 49.1631 231.733C76.2866 183.657 97.2208 139.371 132.628 110.563C158.081 89.9276 190.904 77.2881 228.501 69.1868C243.194 66.0207 259.004 48.986 275 46.9997C295 44.5164 296.112 59.1234 307 58.3921C321.496 57.4184 336.016 57.1248 350 57.9263C373.806 59.2907 396.06 63.8288 414 73.5882C419.941 76.8198 425.409 80.6239 430.304 85.0749C465.295 116.802 471.191 181.165 483.836 241.444C496.481 301.723 515.779 357.695 498.108 398.031C480.443 438.258 425.922 462.747 377.481 471.698C329.148 480.656 286.899 473.968 249.425 465.479C211.952 456.99 179.373 446.489 131.216 432.625Z" fill="white"/>
<path fill-rule="evenodd" clip-rule="evenodd" d="M212.279 323.64L209.427 328.213L191.2 321.181L199.328 302.112H203.405L197.3 317.651L212.279 323.64ZM236.469 347.165C236.469 347.165 246.68 345.719 249.88 357.842C249.88 357.842 251.633 368.055 240.939 373.032V396.412H237.028V369.763C237.028 369.763 245.067 366.985 245.87 358.884C246.674 350.753 236.469 347.165 236.469 347.165ZM132.804 286.98C132.804 286.98 125.484 286.431 123.201 288.224C120.915 290.019 119.943 294.041 119.954 297.858V442.158L120.892 451.91C120.892 451.91 120.79 457.465 129.644 456.191C129.644 456.191 125.958 456.076 125.191 451.91V293.201C125.191 293.201 125.212 288.224 132.804 286.98ZM338.014 322.715L337.909 418.635C337.909 418.635 338.347 429.773 338.014 432.696C337.681 435.618 338.513 442.939 317.287 441.203C317.287 441.203 322.206 438.106 326.119 435.677C329.059 433.825 330.844 430.584 330.844 427.113V317.159H334.84L338.014 320.024V322.715ZM373.886 80.0378C373.886 80.0378 375.185 91.9011 385.652 95.6627L390.12 96.7622C390.12 96.7622 389.537 91.12 390.12 90.5702C390.704 89.9917 394.043 90.5123 394.772 95.6627C394.772 95.6627 402.601 94.592 406.922 81.1953C406.922 81.1953 401.114 89.76 394.167 92.2485C394.167 92.2485 392.357 89.7309 390.71 90.3964C389.066 91.0619 389.983 93.0877 389.884 93.4637C389.783 93.811 379.257 91.4671 373.886 80.0378ZM407.721 140.974C409.078 135.969 410.318 130.905 411.705 125.871C412.393 123.382 412.926 120.662 414.071 118.348C415.093 116.235 417.235 114.817 418.8 113.168C419.632 112.3 420.197 111.201 420.71 110.13C421.916 107.584 422.635 105.008 422.766 102.202C422.796 101.536 423.053 100.031 422.628 99.4529C422.57 99.3659 422.043 99.511 421.956 99.5399C421.308 99.6845 420.741 100.031 420.24 100.466C418.233 102.202 417.332 105.037 415.489 107.005C413.369 109.262 410.845 110.94 409.272 113.689C408.07 115.801 407.447 118.174 406.708 120.431C405.756 123.382 404.763 126.305 403.939 129.285C403.224 131.86 402.665 134.464 401.67 136.953M353.555 371.441C356.804 368.172 360.404 365.277 363.51 361.836C365.091 360.098 366.652 358.363 368.473 356.859C369.226 356.221 370.044 355.498 370.975 355.179C371.887 354.862 372.576 356.251 372.834 356.916C373.511 358.594 373.644 360.562 373.828 362.355C373.882 362.876 374.173 363.803 374.06 364.294C373.973 364.671 372.745 365.337 372.428 365.596C370.797 366.87 357.677 378.096 353.436 383.102M383.814 394.763C383.11 394.908 381.884 395.023 381.323 395.487C381.26 395.544 381.492 396.354 381.511 396.442C381.725 397.454 381.935 398.437 382.211 399.421C382.995 402.229 383.724 405.092 384.675 407.871C385.093 409.056 385.484 410.589 386.302 411.604C386.898 412.327 388.055 412.499 388.947 412.412C389.203 412.384 389.825 412.384 389.862 412.065C390.088 410.213 388.741 408.073 388.154 406.395C387.564 404.717 387.142 402.98 386.768 401.244C386.227 398.726 385.609 396.237 384.945 393.749M390.831 411.487C391.182 412.701 391.568 413.918 392.04 415.075C392.216 415.509 392.402 416.174 392.711 416.521C392.854 416.696 393.773 416.608 393.991 416.608C395.247 416.666 396.501 416.753 397.761 416.783C398.617 416.81 399.453 416.81 400.309 416.753C400.452 416.723 401.088 416.783 401.175 416.695C401.187 416.695 400.995 416.349 400.979 416.319C400.781 415.943 400.61 415.538 400.452 415.132C399.784 413.425 399.471 411.632 398.938 409.866" fill="#DAE8F1"/>
<path fill-rule="evenodd" clip-rule="evenodd" d="M390.629 417.187C390.629 423.235 390.592 429.282 390.56 435.329C390.532 439.699 390.806 444.098 390.651 448.494C390.576 450.608 390.582 452.69 390.71 454.802C390.744 455.44 390.598 456.567 390.861 457.146C390.893 457.203 391.606 457.118 391.703 457.118C392.652 457.059 393.595 457.001 394.546 457.031H397.124C397.247 457.031 397.488 457.146 397.484 457.031C397.258 451.533 397.52 446.065 397.516 440.567C397.512 437.239 397.217 433.912 397.237 430.613C397.272 425.492 397.492 420.398 397.597 415.277M330.349 317.853C333.348 319.88 336.608 321.585 339.714 323.408C344.459 326.215 349.208 329.051 354.373 331.018C357.224 332.09 360.087 333.13 363.019 333.97C363.653 334.144 365.133 334.317 365.509 334.81C365.717 335.07 365.509 336.458 365.533 336.835C365.62 338.455 366.706 340.076 367.188 341.61C369.103 347.714 371.986 353.269 373.349 359.577C373.678 361.083 373.842 363.686 374.69 365.566L374.562 365.77C376.798 373.986 378.558 382.349 381.43 390.393C381.813 391.463 382.191 392.562 382.712 393.577C382.796 393.749 383.039 394.472 383.204 394.559C384.006 394.906 385.967 394.011 386.71 393.692C386.823 393.662 387.652 393.373 387.685 393.258C387.727 393.083 387.497 392.649 387.449 392.477C387.239 391.782 387.061 391.059 386.853 390.365C386.106 387.817 385.308 385.271 384.515 382.726C383.655 379.976 383.35 377.141 382.837 374.305C382.336 371.585 381.539 368.895 381.018 366.175C380.826 365.162 380.672 364.12 380.521 363.108C380.557 362.153 380.452 361.227 380.281 360.3C379.469 355.932 377.619 351.708 376.624 347.367C375.681 343.2 375.501 338.57 373.521 334.723C371.202 330.237 365.64 327.577 361.325 325.377C355.544 322.483 349.357 320.458 343.554 317.593C338.737 315.22 335.583 312.327 331.023 310.33C330.521 310.011 329.984 309.752 329.432 309.462C326.41 307.959 323.288 306.685 320.253 305.209C310.826 300.638 301.546 296.21 292.959 290.134C288.292 286.835 284.365 282.698 279.929 279.11L271.014 283.479C281.476 298.524 297.033 306.685 313.623 313.659C317.95 315.481 324.708 317.476 329.432 317.795C329.753 317.825 330.056 317.853 330.349 317.853ZM206.047 269.184C206.383 271.383 206.788 274.365 207.022 276.592C207.231 278.502 207.427 280.442 206.834 282.351C205.816 285.591 203.677 288.485 202.106 291.465C201.397 292.824 200.636 294.213 200.376 295.746C200.017 297.801 200.677 299.885 201.189 301.853C201.458 302.895 201.574 304.254 202.097 305.209C202.176 305.326 202.228 304.919 202.294 304.775C202.413 304.515 202.537 304.283 202.65 304.022C203.012 303.212 203.397 302.431 203.735 301.621C204.733 299.219 205.506 296.586 206.765 294.33C207.893 292.275 208.272 289.7 209.094 287.501C209.947 285.244 211.154 283.102 211.932 280.788C213.128 277.258 213.394 272.687 211.924 269.184" fill="#DAE8F1"/>
<path d="M376 35.0001L367.5 40.5007L374.917 52.529M374.917 52.529L383 46.5006M374.917 52.529L384 69.0005M384 69.0005C384 69.0005 390.865 66.1977 395 67.5006C399.477 68.9113 402.348 71.4496 403.5 76.0006C404.424 79.6534 403.638 82.2041 401.813 85.5006C398.587 91.3261 392.856 94.9853 386.5 93.0005C381.591 91.4678 378.932 88.0449 377.932 83.0006C376.774 77.1555 384 69.0005 384 69.0005Z" stroke="#CB2027" stroke-width="3"/>
<path fill-rule="evenodd" clip-rule="evenodd" d="M271.036 126.596C271.036 126.596 266.513 126.248 265.243 128.274C263.975 130.328 262.41 136.231 262.322 138.025C262.322 138.025 248.068 135.45 241.753 136.578C235.439 137.707 224.872 142.597 220.515 153.65C216.16 164.703 205.489 189.529 202.439 197.688C199.386 205.876 195.529 211.259 194.091 214.875C192.65 218.523 192.572 224.193 193.507 227.491C194.442 230.79 194.537 234.408 192.899 240.367C191.259 246.357 190.069 255.732 200.674 260.391L201.681 260.651L205.356 269.186C205.356 269.186 216.834 269.881 222.464 266.264L222.062 257.265C222.062 257.265 226.417 254.141 227.522 249.309C228.632 244.476 226.668 242.335 227.522 237.041C228.378 231.745 227.522 223.412 227.522 223.412L236.424 212.329C236.424 212.329 240.838 226.594 243.544 233.712C246.253 240.831 250.592 252.029 250.76 257.265C250.93 262.531 251.251 267.191 255.063 270.026C258.873 272.891 258.316 274.135 259.945 277.145C261.573 280.154 265.205 283.076 271.036 283.857C271.036 283.857 318.601 279.546 334.542 245.402C340.267 233.134 331.77 229.691 329.6 225.292C327.433 220.894 325.577 212.965 324.758 206.514C323.936 200.089 322.736 190.512 322.736 190.512C322.736 190.512 353.486 201.421 368.48 203.36C383.47 205.298 386.257 205.53 393.71 197.688C401.162 189.846 402.604 188.719 403.999 180.763C405.398 172.804 407.302 168.435 408.558 164.298C409.814 160.189 408.948 156.775 406.842 154.257L409.459 142.77C409.459 142.77 402.685 135.102 390.426 132.064L384.222 139.356C384.222 139.356 378.202 139.298 376.343 143.812C374.483 148.326 374.223 152.753 372.093 156.167C369.962 159.581 368.498 162.649 368.034 164.963C368.034 164.963 345.155 155.097 336.961 151.046C328.768 146.995 316.897 140.398 310.668 139.356C304.437 138.314 294.584 136.578 294.584 136.578C294.584 136.578 295.835 131.688 294.777 130.56C293.715 129.402 292.118 128.65 288.888 128.274C285.659 127.927 276.575 127.087 276.575 127.087L271.036 126.596Z" fill="#58B9FD"/>
<path d="M256.38 79.7486C256.063 75.5819 257.676 71.0391 260.22 67.7404C261.276 66.3805 262.639 65.0495 264.369 64.6157C266.318 64.1237 266.97 66.0621 267.025 67.6826C267.041 68.2613 266.998 68.84 266.94 69.4187C266.922 69.5633 266.901 69.7371 266.877 69.9107C266.863 69.9974 266.758 70.2869 266.831 70.1999C267.99 68.9557 268.939 67.5671 270.189 66.4096C274.015 62.7638 280.141 59.5519 285.469 61.693C288.367 62.8504 290.295 65.715 289.473 68.84C289.126 70.1421 288.141 72.3123 286.481 72.3123C284.997 72.3123 284.831 70.1999 285.265 69.216C285.904 67.7694 287.727 66.9594 289.245 66.9303C293.502 66.8435 299.05 69.303 297.441 74.4536C297.158 75.3505 296.68 76.2184 296.128 76.9996C293.621 80.4719 289.183 82.2659 285.017 82.6132" stroke="#25316D" stroke-width="2" stroke-miterlimit="1.5" stroke-linecap="round" stroke-linejoin="round"/>
<path d="M280.788 80.3865C280.373 82.9906 279.25 85.7394 277.554 87.7937M272.496 84.177C272.425 86.897 272.195 89.7906 270.998 92.25M267.41 92.51C267.525 94.3907 267.424 96.1847 266.822 97.9787C266.59 98.6592 266.32 99.3259 266.012 99.9754C265.948 100.091 265.619 100.554 265.645 100.699C265.691 100.959 266.055 101.306 266.196 101.509C266.652 102.232 267.058 102.984 267.513 103.708C268.978 106.023 270.41 108.366 271.979 110.594M253.958 82.0935C249.746 83.8586 248.391 88.4881 249.231 92.7126C250.192 97.5737 253.455 101.307 256.912 104.605M249.429 80.1236C250.523 79.8631 251.642 79.6028 252.765 79.4869C253.055 79.4579 253.342 79.429 253.627 79.429C253.657 79.429 253.877 79.4292 253.883 79.4003C253.938 79.2844 253.851 78.9371 253.841 78.7924C253.813 78.3294 253.77 77.8377 253.74 77.3747C253.637 75.6677 253.508 73.9892 253.518 72.282M263.888 103.846C260.777 102.345 257.072 103.926 255.862 106.847C254.772 109.5 255.699 112.716 258.307 114.271C259.085 114.726 259.925 114.967 260.837 115.075C262.119 115.209 263.373 115.048 264.601 114.7C265.98 114.298 267.505 113.574 268.254 112.368" stroke="#25316D" stroke-width="2" stroke-miterlimit="1.5" stroke-linecap="round" stroke-linejoin="round"/>
<path d="M264.929 106.08C267.259 110.767 269.904 115.281 273.008 119.477M258.431 109.172C260.154 109.198 261.88 109.249 263.604 109.227M293.672 81.5142C296.882 88.9504 299.941 97.8047 302.851 108.019C302.962 108.424 302.933 108.829 302.768 109.205C300.432 114.384 296.918 118.724 292.472 122.457C292.119 122.775 291.677 122.949 291.218 122.949C285.514 123.152 279.505 122.023 273.197 119.564M268.493 113.372L268.216 127.087M291.729 123.035L291.216 128.88" stroke="#25316D" stroke-width="2" stroke-miterlimit="1.5" stroke-linecap="round" stroke-linejoin="round"/>
<path d="M280.826 111C280.826 111 283.586 114.414 288.789 112.013M270.873 96.3009C271.998 94.1309 274.411 92.7708 276.818 92.684M285.357 89.6745C286.503 87.5911 288.749 86.376 291.119 86.839M282.134 92.0185C282.831 94.3623 284.03 96.6771 286.098 98.0949C286.895 98.6447 287.776 99.0496 288.702 99.3391C288.931 99.3969 289.165 99.4546 289.399 99.5126C289.421 99.5126 289.605 99.5705 289.609 99.5705C289.643 99.8308 289.191 100.381 289.05 100.583C288.401 101.538 287.418 102.522 286.382 103.043M262.284 137.475C262.601 135.334 263.019 133.077 263.723 131.023C264.069 130.01 264.525 128.881 265.294 128.1C266.373 127.001 268.008 126.74 269.478 126.683C272.476 126.567 275.578 126.856 278.532 127.348M281.581 127.695C284.868 127.956 288.139 128.071 291.382 128.737C292.69 128.997 294.267 129.345 294.883 130.647C295.739 132.498 294.857 134.958 294.457 136.838M264.602 139.877C268.446 140.947 272.424 141.295 276.396 141.381C278.651 141.41 280.866 141.468 283.109 141.208C285.785 140.89 288.692 140.427 291.133 139.211" stroke="#25316D" stroke-width="2" stroke-miterlimit="1.5" stroke-linecap="round" stroke-linejoin="round"/>
<path d="M270.176 129.749C269.867 132.063 269.665 134.378 269.558 136.722M278.055 130.53C277.912 132.816 277.93 135.13 277.76 137.445M286.125 131.137C285.968 133.047 285.942 134.957 285.867 136.867M383.826 1.47534C385.694 1.59362 387.658 1.81809 389.494 2.19551M390.255 1.92706C387.541 7.03779 385.524 12.4281 382.972 17.599M384.244 2.02552C383.671 6.83531 383.61 11.6827 383.142 16.4828M412.789 1.95876C407.826 8.88508 403.523 16.2754 398.291 22.9945" stroke="#25316D" stroke-width="2" stroke-miterlimit="1.5" stroke-linecap="round" stroke-linejoin="round"/>
<path d="M412.375 2.06909C413.572 3.79215 414.895 5.4429 416.05 7.18022M416.641 8.24235C409.976 13.3594 403.42 18.7416 396.395 23.3307M405.421 33.1781C411.153 32.8141 416.971 33.0202 422.709 33.0669M423.117 33.2377C422.337 35.3257 421.806 37.4874 421.08 39.5988M405.048 34.2462C409.449 35.9284 413.762 37.8252 418.14 39.5619M231.348 152.55C238.193 168.348 241.234 185.535 238.387 202.665M266.011 225.437C274.55 228.62 283.935 229.082 292.959 228.561C299.577 228.214 305.922 227.404 312.272 225.494M270.088 203.475C279.035 208.337 288.43 210.419 298.527 211.057M316.037 224.337C317.469 223.903 318.703 223.267 319.924 222.4M383.733 139.529C387.358 141.092 390.883 143.001 394.292 144.998C399.045 147.804 403.675 150.843 407.378 154.98M389.989 131.688C396.573 134.032 403.614 137.041 408.585 142.133M390.033 131.977C387.877 134.263 386.183 136.867 384.333 139.385M409.77 141.757C409.187 143.58 408.874 145.49 408.478 147.371C408.038 149.425 407.501 151.479 406.948 153.534M394.154 135.536C393.193 136.838 392.27 138.169 391.346 139.5M400.868 138.632C399.994 139.848 399.22 141.121 398.461 142.394M404.725 142.278C404.034 143.667 403.507 145.143 402.794 146.532M391.053 131.688C392.377 128.332 393.692 124.975 394.823 121.561C395.451 119.651 396.198 117.712 396.309 115.687M395.644 113.574C394.435 111.567 393.239 109.551 392.058 107.527C391.222 106.08 390.292 104.605 389.946 102.955C389.462 100.641 389.819 98.1232 389.991 95.8084C390.082 94.5931 390.16 93.3491 390.166 92.1049C390.17 91.8444 390.045 90.9475 390.211 90.7448C390.938 89.8479 392.672 90.7737 393.246 91.3524C394.905 93.0305 394.778 95.8664 394.726 98.0364M396.175 99.686C396.795 100.612 397.5 101.682 398.415 102.319C399.913 103.361 401.71 102.319 402.74 101.133C404.825 98.7312 405.938 95.2588 406.477 92.1338M406.526 90.195C406.453 89.3847 406.332 88.5746 406.17 87.7355C406.112 87.4461 406.083 87.0122 405.867 86.7808C405.661 86.5781 405.409 86.4045 405.138 86.2599M406.917 81.023C407.263 81.023 407.608 81.0806 407.949 81.1965C408.716 81.4569 409.3 82.1802 409.696 82.8457C410.626 84.4083 410.845 86.2601 411.329 87.9673M406.59 92.1921C407.735 91.3239 409.005 90.5716 410.297 89.9351C411.016 89.559 411.8 89.1537 412.613 89.038C413.948 88.8933 415.23 89.6167 415.999 90.6873M416.117 90.7735C417.278 90.3683 418.675 90.5708 419.63 91.3522C420.102 91.7572 420.433 92.307 420.742 92.7989M420.819 93.0311C421.378 93.2336 421.918 93.4939 422.378 93.8991C423.898 95.1722 423.993 97.3711 423.789 99.1941C423.301 103.534 421.708 107.759 419.913 111.694M418.606 113.806C417.903 114.906 417.09 115.89 416.143 116.815C415.256 117.654 414.239 118.378 413.679 119.478C412.601 121.648 412.316 124.339 411.763 126.682C410.822 130.646 409.752 134.581 408.682 138.546M406.97 92.4809C406.82 93.1753 406.685 93.8697 406.554 94.5352C406.455 95.085 406.354 95.6061 406.265 96.1559C405.94 98.0945 405.167 100.959 407.22 102.232C407.571 102.464 407.937 102.608 408.331 102.724C408.805 102.869 409.318 102.955 409.809 102.955M415.89 91.3524C415.152 91.9875 414.424 92.6338 413.706 93.291C413.134 93.783 412.5 94.3038 412.072 94.9693C410.843 96.8212 410.919 99.4255 410.889 101.567M420.163 93.5805C419.048 94.5063 417.77 95.635 417.043 96.9371C416.012 98.76 415.917 101.046 415.69 103.1M411.063 102.898C412.119 103.679 413.473 103.65 414.687 103.274M415.23 103.39C415.917 104.489 417.122 105.184 418.43 104.692" stroke="#25316D" stroke-width="2" stroke-miterlimit="1.5" stroke-linecap="round" stroke-linejoin="round"/>
<path d="M418.57 104.806C419.523 103.012 420.448 101.16 421.096 99.2214M200.966 260.33C205.639 261.43 210.486 260.592 215.07 259.492C217.568 258.884 220.283 258.161 222.492 256.772M205.465 268.982C209.108 269.648 212.838 269.214 216.415 268.374C218.216 267.94 220.075 267.479 221.669 266.494M201.689 260.824C202.78 263.716 203.958 266.639 205.37 269.416M222.159 257.612C222.129 260.562 222.291 263.544 222.502 266.494M207.051 262.791C207.447 264.006 207.832 265.22 208.298 266.407M212.691 262.183C212.913 263.37 213.203 264.497 213.533 265.656M218.083 261.517C218.184 262.732 218.426 263.948 218.509 265.192M206.088 270.227C206.47 272.483 206.854 274.74 207.167 277.026C207.335 278.243 207.696 279.572 207.471 280.788C206.982 283.449 205.092 285.678 203.813 287.964M202.884 289.874C202.066 290.887 201.102 292.073 200.735 293.375C200.353 294.706 200.532 296.153 200.7 297.512C200.926 299.364 201.195 301.217 201.438 303.067M223.177 269.446C223.773 275.637 225.083 281.829 226.723 287.82C227.453 290.481 228.433 293.086 229.123 295.747M229.065 297.714C228.556 299.19 228.11 300.696 227.768 302.199C227.552 303.184 227.458 304.311 227.007 305.209C226.345 306.54 225.045 307.582 224.083 308.682C223.528 309.301 223.017 309.958 222.555 310.649C222.456 310.794 222.224 311.285 222.054 311.315C220.679 311.315 220.049 309.463 220.005 308.363C219.942 306.627 220.99 305.441 221.483 303.877C221.923 302.489 221.822 300.985 222.159 299.566M209.725 294.358C214.221 295.457 218.533 296.876 222.583 299.162M206.889 295.053C203.599 301.91 200.633 308.854 197.864 315.915M197.335 317.94C203.064 320.486 208.946 322.483 214.957 324.248M215.312 324.652C216.679 320.112 218.943 315.915 220.506 311.43M209.904 295.111C206.284 302.055 203.194 309.318 200.185 316.522M200.541 316.696C204.765 318.229 208.975 319.763 213.174 321.383M213.625 321.673C215.25 317.274 217.144 313.021 219.193 308.797M272.983 286.603C278.879 293.462 286.057 299.018 293.734 303.763C304.302 310.303 315.296 315.135 327.559 317.274M331.944 318.78C339.795 323.814 347.888 328.502 356.641 331.83C359.475 332.9 363.498 334.925 366.621 334.693C368.372 334.549 369.359 331.656 367.227 331.309C365.149 330.961 364.984 334.376 365.161 335.678C365.799 340.336 368.085 344.908 369.656 349.307C373.276 359.492 381.159 391.348 382.671 395.053M336.532 272.055C351.043 280.069 366.361 286.639 380.985 294.479C389.573 299.109 398.572 303.45 403.745 312.129M405.754 316.232C409.57 338.339 414.634 360.213 418.443 382.349" stroke="#25316D" stroke-width="2" stroke-miterlimit="1.5" stroke-linecap="round" stroke-linejoin="round"/>
<path d="M380.638 395.632C394.163 391.84 407.598 387.674 420.553 382.206M421.062 382.669C421.633 388.514 422.497 394.329 423.37 400.146" stroke="#25316D" stroke-width="2" stroke-miterlimit="1.5" stroke-linecap="round" stroke-linejoin="round"/>
<path d="M381.035 395.516C382.526 400.754 383.838 406.135 385.609 411.287M386.194 411.893C393.074 411.691 399.836 410.07 406.37 407.988C412.241 406.108 418.115 403.879 423.131 400.204M384.795 397.022C385.409 400.116 386.152 403.183 386.778 406.31M389.191 400.233C389.693 402.722 390.158 405.238 390.76 407.699M346.645 290.859C353.254 291.352 359.889 291.901 366.471 292.654M357.268 298.585C359.624 299.019 361.995 299.336 364.375 299.568M336.711 249.772C345.935 254.198 355.031 258.886 364.41 262.965C371.602 266.119 383.582 271.762 390.501 275.467M394.614 277.347C400.831 280.239 406.971 283.191 412.756 286.896C416.35 289.21 419.769 291.958 422.571 295.199C429.759 303.475 429.909 313.254 428.14 323.584C426.315 334.261 421.008 350.291 418.86 360.881" stroke="#25316D" stroke-width="2" stroke-miterlimit="1.5" stroke-linecap="round" stroke-linejoin="round"/>
<path d="M390.528 411.244C391.101 413.024 391.568 414.805 392.232 416.552M416.74 404.659C417.776 408.623 418.927 412.53 419.894 416.522M390.728 416.865C389.549 429.535 390.425 442.351 390.108 455.063M422.027 418.902C426.531 427.748 435.866 438.126 445.241 442.017C449.19 443.675 453.396 444.477 457.632 444.975M390.172 457.508C412.003 457.016 433.857 456.931 455.694 456.373M458.07 446.694C458.042 449.379 458.085 452.265 457.608 454.928M395.711 452.365C417.693 452.107 434.105 452.68 456.084 452.897M390.918 436.868C392.466 437.301 393.914 438.011 395.291 438.787C396.876 439.73 398.495 440.705 399.769 442.029C401.867 444.248 403.125 447.067 403.884 449.967" stroke="#25316D" stroke-width="2" stroke-miterlimit="1.5" stroke-linecap="round" stroke-linejoin="round"/>
<path d="M430.369 430.952C429.129 432.345 427.849 433.738 426.708 435.196M433.355 433.827C432.378 435.111 431.447 436.46 430.408 437.746M392.74 416.531C402.763 416.327 412.859 417.072 422.872 416.563M426.616 424.002C426.723 422.435 427.219 420.928 428.164 419.679C429.115 418.396 430.63 417.235 432.253 417.021C434.89 416.712 435.455 419.481 434.468 421.411C434.141 422.031 433.709 422.619 433.214 423.142C432.328 424.05 431.25 424.759 430.171 425.433M424.265 426.205C422.711 426.079 421.162 426.291 419.714 426.873C418.888 427.2 418.103 427.697 417.408 428.26C416.122 429.314 413.739 432.573 416.471 433.516C416.841 433.643 417.224 433.7 417.614 433.724C419.649 433.803 421.469 432.702 422.967 431.438M371.121 355.555C364.912 360.243 359.319 365.828 353.926 371.413M354.096 387.528C359.891 401.1 367.388 413.656 374.124 426.736" stroke="#25316D" stroke-width="2" stroke-miterlimit="1.5" stroke-linecap="round" stroke-linejoin="round"/>
<path d="M373.816 426.794C377.131 425.261 380.43 423.64 383.374 421.471M380.558 400.723C379.728 407.495 380.992 414.382 383.843 420.543" stroke="#25316D" stroke-width="2" stroke-miterlimit="1.5" stroke-linecap="round" stroke-linejoin="round"/>
<path d="M355.036 379.081C362.365 394.937 370.658 410.041 379.213 425.231M361.927 365.133C364.897 371.76 366.87 380.759 362.919 387.444M194.357 375.029C188.258 384.202 182.039 393.346 176.108 402.634M254.783 405.378C248.572 414.376 242.068 423.115 235.563 431.912M289.389 308.885C285.442 313.891 281.567 318.953 277.953 324.192M230.487 348.555C229.14 349.335 227.803 350.26 226.798 351.477C223.622 355.267 222.907 360.88 224.611 365.452M225.966 367.651C227.626 369.995 229.715 371.703 232.352 372.803M233.515 347.455C239.522 345.573 245.717 348.41 248.483 354.023M249.802 357.062C250.951 363.166 248.187 370.314 241.949 372.396M232.894 373.351C232.986 376.129 232.982 378.936 233.051 381.714C233.114 384.115 233.194 386.517 233.003 388.918M232.885 391.493C232.956 392.999 232.997 394.503 233.073 396.009M233.087 396.383C234.672 396.47 236.255 396.528 237.844 396.587C238.779 396.587 239.728 396.557 240.661 396.615M240.893 375.463C241.101 382.669 241.249 389.875 241.037 397.078M145.697 302.093H198.813M232.3 302.374C237.99 302.577 285.418 302.085 291.106 302.2M226.961 287.387C234.236 287.531 261.592 287.212 268.863 287.212M141.522 302.113C141.111 302.085 140.7 302.085 140.286 302.085C139.201 302.143 137.824 302.143 136.947 302.896C136.149 303.561 136.004 304.718 136.021 305.701C136.056 307.728 136.134 309.752 136.201 311.75M136.007 315.714V385.793M136.105 389.932V430.991M120.301 337.559C120.278 336.721 120.17 298.44 120.156 297.485C120.089 293.491 120.495 288.92 124.69 287.618C125.668 287.299 126.689 287.155 127.711 287.097C129.065 287.038 133.426 286.893 134.768 287.097M138.984 287.22C142.746 287.222 199.846 287.22 203.607 287.22M120.265 342.232V434.117M120.388 439.496C120.341 441.493 120.44 443.46 120.448 445.458C120.457 447.395 120.379 449.363 120.68 451.302C120.949 453.01 121.505 454.775 123.154 455.613C124.496 456.309 126.111 456.309 127.584 456.279C129.792 456.279 131.996 456.164 134.204 456.105M139.768 456.134C143.275 456.366 256.701 456.366 260.219 456.54M136.105 434.202C136.108 435.157 136.137 436.17 136.36 437.125C136.48 437.629 136.667 438.115 136.915 438.571C138.912 442.246 145.055 441.261 148.443 441.261M153.773 441.291H309.135M266.686 456.279H336.193M339.347 456.245C341.875 456.158 344.476 456.332 346.983 455.986C348.042 455.841 349.205 455.637 350.154 455.116C354.347 452.859 353.675 446.928 353.588 442.965C353.566 441.778 353.562 406.535 353.513 405.378M337.776 425.144C337.766 427.171 337.877 429.196 337.934 431.221C337.972 432.495 338.035 433.854 337.744 435.098C337.588 435.764 337.332 436.429 337.005 437.037C334.947 440.827 330.895 441.406 327.03 441.436C326.077 441.436 313.635 441.406 312.737 441.378M337.794 322.628C337.633 325.349 337.909 416.175 337.97 418.895M353.744 331.28C353.54 335.938 353.6 396.298 353.744 400.985M319.731 174.54C319.987 176.565 320.426 178.59 320.811 180.615C321.338 183.393 321.795 186.2 322.412 188.95M367.631 166.351C366.618 170.952 366.65 175.581 366.896 180.268M79.7832 456.481H119.887M100.183 464.515H211.967M217.492 464.525C221.851 464.323 411.073 464.293 415.427 464.525M346.337 456.077C349.992 456.134 382.329 456.394 385.985 456.424M459.537 456.453C466.281 456.743 473.037 456.424 479.783 456.598M362.208 40.687C366.389 47.8049 373.574 59.437 377.566 66.6996M361.041 40.3108C363.092 38.8063 365.36 37.6778 367.548 36.4046C371.082 34.3793 373.343 32.9904 376.851 30.907M376.942 31.2832C378.129 33.2797 379.48 35.1894 380.626 37.2148M380.99 37.3885C378.634 38.5457 376.546 40.1374 374.242 41.3816M373.335 42.1337C374.288 43.4936 375.185 44.8535 376.09 46.2134M376.213 46.3874C378.418 44.9405 380.746 43.6963 383.009 42.3653M383.377 42.0471C384.667 43.9858 385.878 46.0113 387.037 48.0367M387.512 47.9494C385.067 49.425 382.648 50.9586 380.231 52.4921M380.77 54.4311C382.214 57.3823 384.473 61.3754 386.195 64.1822M377.842 68.8407C374.769 72.8336 373.039 78.3313 374.323 83.3081M375.72 87.2142C377.828 90.8022 380.814 93.985 384.798 95.4319C386.349 96.0104 387.897 96.242 389.519 96.4445M397.139 94.7085C403.417 91.2363 407.314 84.4368 406.805 77.2608M386.543 64.0083C389.89 62.9087 393.103 63.3717 395.376 64.0083C399.544 65.1946 404.014 68.0303 406.14 73.8753M387.223 73.5859C383.556 75.2641 382.24 80.1831 384.408 83.5684M386.783 85.5072C387.788 85.9991 388.925 86.2014 390.046 86.2014C392.41 86.1725 394.973 85.102 396.212 82.9899C397.686 80.5015 397.353 76.7397 395.035 74.859C393.927 73.933 392.544 73.123 390.409 72.9206" stroke="#25316D" stroke-width="2" stroke-miterlimit="1.5" stroke-linecap="round" stroke-linejoin="round"/>
<path d="M152.123 254.864C151.516 255.934 150.902 256.976 150.335 258.076M392.98 224.829C393.262 225.525 393.565 226.19 393.852 226.884M335.971 104.403C336.613 104.634 337.257 104.866 337.9 105.097M95.6943 407.208C95.923 407.699 96.1399 408.161 96.3917 408.624M416.525 262.821C416.996 262.649 417.468 262.447 417.951 262.302M241.439 122.719C241.851 123.297 242.259 123.905 242.664 124.484" stroke="#25316D" stroke-width="2" stroke-miterlimit="1.5" stroke-linecap="round" stroke-linejoin="round"/>
<path fill-rule="evenodd" clip-rule="evenodd" d="M291.232 128.332L291.727 122.921C291.727 122.921 283.838 123.297 278.622 121.243C273.407 119.217 273.423 119.651 273.423 119.651C273.423 119.651 281.518 126.914 291.232 128.332Z" fill="#25316D"/>
<path d="M277.347 98.9634C278.063 98.9634 278.641 98.3845 278.641 97.67C278.641 97.5002 278.608 97.3319 278.543 97.175C278.478 97.018 278.382 96.8754 278.262 96.7553C278.142 96.6352 277.999 96.54 277.843 96.475C277.686 96.41 277.517 96.3766 277.347 96.3767C276.634 96.3767 276.054 96.9558 276.054 97.67C276.054 98.013 276.19 98.3419 276.433 98.5844C276.676 98.8269 277.004 98.9632 277.347 98.9634ZM290.671 92.9839C291.386 92.9839 291.965 92.4048 291.965 91.6906C291.965 91.5207 291.931 91.3524 291.866 91.1955C291.801 91.0385 291.706 90.8959 291.586 90.7758C291.466 90.6557 291.323 90.5604 291.166 90.4954C291.009 90.4305 290.841 90.3971 290.671 90.3972C289.958 90.3972 289.377 90.9761 289.377 91.6906C289.378 92.0336 289.514 92.3624 289.757 92.6049C289.999 92.8474 290.328 92.9837 290.671 92.9839Z" fill="#25316D"/>
<path d="M158.06 348.892L151.783 356.88H167.065L165.159 361.966M159.592 346.933L167.662 336.722M170.95 332.578L179.768 321.501L175.06 334.575M174.201 337.062L170.614 346.933H185.783L176.555 358.726M172.818 363.436L157.649 382.501L163.44 366.45" stroke="#25316D" stroke-width="2" stroke-linecap="round" stroke-linejoin="round"/>
<path d="M147.277 67.8923L141 75.88H156.281L154.376 80.9665M148.809 65.9331L156.879 55.7225M160.167 51.5779L168.985 40.5007L164.277 53.5749M163.418 56.0616L159.831 65.9331H175L165.771 77.7262M162.035 82.4359L146.866 101.501L152.657 85.4501" stroke="#25316D" stroke-width="2" stroke-linecap="round" stroke-linejoin="round"/>
<path d="M154.349 56.1222L148.093 67.5346L142.05 78.6434L157.118 76.0976L156.087 81.4304L155.139 86.1377L152.102 102.929L163.884 81.6033L166.783 76.337L173.918 63.1713L158.961 65.6984L160.853 55.3673L161.286 52.7722L163.75 39.0965L156.901 51.4878L154.349 56.1222Z" fill="#CB2027"/>
<path d="M206 68.5007C206 73.3823 205.24 78.0863 203.831 82.5007C202.641 86.2299 211 93.5007 231 98.0007C227.5 107.501 194.666 98.9569 192.047 101.501C183.763 109.547 172.46 114.501 160 114.501C134.595 114.501 114 93.9058 114 68.5007C114 43.0956 134.595 22.5007 160 22.5007C185.405 22.5007 206 43.0956 206 68.5007Z" stroke="#25316D" stroke-width="2" stroke-miterlimit="2.353" stroke-linecap="round" stroke-linejoin="round" stroke-dasharray="15 8"/>
<path d="M288.06 388.892L281.783 396.88H297.065L295.159 401.966M289.592 386.933L297.662 376.722M300.95 372.578L309.768 361.501L305.06 374.575M304.201 377.062L300.614 386.933H315.783L306.555 398.726M302.818 403.436L287.649 422.501L293.44 406.45" stroke="#25316D" stroke-width="2" stroke-linecap="round" stroke-linejoin="round"/>
<path d="M70.278 395.526C66.0766 397.812 62.8677 402.065 61.1836 406.463M59.6904 411.903C58.7212 419.165 61.5048 426.399 66.8404 431.405M74.2478 393.905C81.516 391.301 90.5149 392.256 96.5566 397.291C99.4442 399.692 101.548 403.106 102.746 406.637M104.007 410.514C104.646 415.115 104.094 420.178 102.028 424.432C96.6751 435.514 82.7747 441.561 68.7239 433.199M67.9427 407.457C72.7036 405.639 77.1045 402.897 81.9216 401.212M82.1791 401.179L96.1051 407.259M67.8435 408.052C67.8534 413.9 70.1892 419.813 73.8567 424.307" stroke="#25316D" stroke-width="2" stroke-miterlimit="1.5" stroke-linecap="round" stroke-linejoin="round"/>
<path d="M76.5 426.498C78.3865 427.621 79.4867 428.48 81.5517 429.24M82.0042 429.439C88.3377 427.225 92.7584 422.302 94.8498 415.86C95.603 413.514 96.0888 409.946 96.1978 407.501" stroke="#25316D" stroke-width="2" stroke-miterlimit="1.5" stroke-linecap="round" stroke-linejoin="round"/>
<path d="M76.5 414.447L81.1691 418.608L88.2872 410.501" stroke="#25316D" stroke-width="2" stroke-miterlimit="1.5" stroke-linecap="round" stroke-linejoin="round"/>
<path d="M177.636 253.84C177.776 248.315 175.373 242.647 171.945 238.42M167.365 233.785C160.657 228.619 151.811 227.225 143.719 229.673M176.964 258.75C175.371 267.528 169.217 275.979 160.688 279.116C156.617 280.618 151.985 280.75 147.761 279.91M143.152 278.933C138.179 276.915 133.187 273.995 130.095 269.453C122.127 257.711 124.351 239.75 140.836 230.522" stroke="#25316D" stroke-width="2" stroke-miterlimit="1.5" stroke-linecap="round" stroke-linejoin="round"/>
<path d="M144.147 246.481C141.554 249.079 140.433 253.375 141.534 256.923C142.123 258.801 142.851 259.882 144.147 261.347M157.911 246.198C158.685 246.892 159.428 247.665 159.955 248.565C162.052 252.165 162.008 257.36 158.829 260.705M151.139 236.501L151.139 243.292M138.087 240.359C139.129 242.339 140.276 244.218 141.454 246.096M164.4 240.18C163.353 242.082 162.25 243.959 161.275 245.914M141.559 261.939C140.41 263.997 139.308 266.081 138.254 268.19M151.367 265.104C151.221 267.239 151.185 269.4 151.146 271.508M161.133 262.223C162.096 263.998 163.052 265.772 164.133 267.445M151.703 252.489C149.96 252.175 148.773 254.34 150.165 255.541C151.592 256.782 153.769 255.342 153.115 253.572" stroke="#25316D" stroke-width="2" stroke-miterlimit="1.5" stroke-linecap="round" stroke-linejoin="round"/>
<path d="M133.643 253.897C135.093 252.224 136.868 250.836 138.607 249.446C140.577 247.903 142.637 246.232 145.019 245.357M147.164 245.022C148.533 244.585 149.965 244.353 151.403 244.277C153.013 244.2 154.665 244.277 156.252 244.559C161.854 245.614 166.517 249.112 170.267 253.254M134.8 255.337C138.17 258.423 141.547 261.741 145.863 263.49C147.352 264.108 148.916 264.443 150.503 264.647M153.932 264.39C160.83 263.747 166.082 259.015 170.309 253.948" stroke="#25316D" stroke-width="2" stroke-miterlimit="1.5" stroke-linecap="round" stroke-linejoin="round"/>
<path d="M157.46 426.753C157.46 426.994 157.414 427.221 157.323 427.436C157.232 427.648 157.107 427.833 156.947 427.993C156.791 428.149 156.605 428.273 156.391 428.364C156.179 428.455 155.953 428.501 155.712 428.501H151.459V427.5H155.712C155.813 427.5 155.909 427.48 156 427.441C156.091 427.402 156.171 427.348 156.239 427.28C156.308 427.212 156.361 427.134 156.4 427.046C156.439 426.955 156.459 426.857 156.459 426.753C156.459 426.652 156.439 426.556 156.4 426.465C156.361 426.373 156.308 426.294 156.239 426.225C156.171 426.157 156.091 426.103 156 426.064C155.909 426.022 155.813 426.001 155.712 426.001H152.958C152.75 426.001 152.554 425.962 152.372 425.884C152.19 425.805 152.03 425.7 151.894 425.566C151.76 425.429 151.654 425.27 151.576 425.088C151.498 424.905 151.459 424.71 151.459 424.502C151.459 424.293 151.498 424.098 151.576 423.916C151.654 423.733 151.76 423.576 151.894 423.442C152.03 423.305 152.19 423.198 152.372 423.12C152.554 423.042 152.75 423.003 152.958 423.003H156.962V423.999H152.958C152.818 423.999 152.699 424.048 152.602 424.145C152.507 424.24 152.46 424.358 152.46 424.502C152.46 424.642 152.507 424.76 152.602 424.858C152.699 424.953 152.818 425 152.958 425H155.712C155.953 425 156.179 425.045 156.391 425.136C156.605 425.228 156.791 425.353 156.947 425.512C157.107 425.672 157.232 425.858 157.323 426.069C157.414 426.281 157.46 426.509 157.46 426.753Z" fill="#CB2027"/>
<path d="M165.136 425.752C165.136 426.129 165.064 426.484 164.921 426.816C164.778 427.148 164.582 427.44 164.335 427.69C164.091 427.938 163.803 428.135 163.471 428.281C163.139 428.424 162.784 428.497 162.406 428.501H160.868C160.491 428.497 160.136 428.424 159.804 428.281C159.472 428.135 159.182 427.938 158.935 427.69C158.69 427.44 158.497 427.148 158.354 426.816C158.21 426.484 158.139 426.129 158.139 425.752C158.139 425.374 158.21 425.019 158.354 424.687C158.497 424.352 158.69 424.061 158.935 423.813C159.182 423.563 159.472 423.366 159.804 423.222C160.136 423.076 160.491 423.003 160.868 423.003H162.406C162.657 423.003 162.899 423.035 163.134 423.1C163.368 423.165 163.586 423.258 163.788 423.379C163.99 423.499 164.174 423.644 164.34 423.813C164.506 423.979 164.647 424.165 164.765 424.37C164.882 424.572 164.973 424.79 165.038 425.024C165.103 425.259 165.136 425.501 165.136 425.752ZM164.14 425.752C164.14 425.511 164.094 425.285 164.003 425.073C163.912 424.861 163.788 424.677 163.632 424.521C163.476 424.362 163.292 424.236 163.08 424.145C162.872 424.051 162.647 424.002 162.406 423.999H160.868C160.627 424.002 160.401 424.051 160.189 424.145C159.981 424.236 159.799 424.362 159.643 424.521C159.486 424.677 159.363 424.861 159.271 425.073C159.184 425.285 159.14 425.511 159.14 425.752C159.14 425.993 159.184 426.219 159.271 426.43C159.363 426.642 159.486 426.828 159.643 426.987C159.799 427.143 159.981 427.269 160.189 427.363C160.401 427.454 160.627 427.5 160.868 427.5H162.406C162.647 427.5 162.872 427.454 163.08 427.363C163.292 427.269 163.476 427.143 163.632 426.987C163.788 426.828 163.912 426.642 164.003 426.43C164.094 426.219 164.14 425.993 164.14 425.752Z" fill="#CB2027"/>
<path d="M172.621 428.501H168.871C168.493 428.501 168.139 428.429 167.807 428.286C167.475 428.139 167.185 427.942 166.938 427.695C166.693 427.444 166.5 427.153 166.356 426.821C166.213 426.486 166.142 426.129 166.142 425.752V423.003H167.143V425.752C167.143 425.993 167.187 426.219 167.274 426.43C167.366 426.639 167.489 426.823 167.646 426.982C167.802 427.138 167.984 427.264 168.192 427.358C168.404 427.449 168.63 427.497 168.871 427.5H171.62V423.003H172.621V428.501Z" fill="#CB2027"/>
<path d="M179.525 423.999H175.775C175.671 423.999 175.574 424.02 175.482 424.062C175.391 424.101 175.312 424.155 175.243 424.223C175.175 424.292 175.121 424.372 175.082 424.463C175.043 424.554 175.023 424.65 175.023 424.751V428.501H174.022V424.751C174.022 424.507 174.068 424.279 174.159 424.067C174.25 423.856 174.376 423.672 174.535 423.515C174.695 423.356 174.88 423.231 175.092 423.139C175.303 423.048 175.531 423.003 175.775 423.003H179.525V423.999Z" fill="#CB2027"/>
<path d="M185.917 428.501H182.646C182.268 428.497 181.913 428.424 181.581 428.281C181.249 428.135 180.959 427.938 180.712 427.69C180.468 427.44 180.274 427.148 180.131 426.816C179.988 426.484 179.916 426.129 179.916 425.752C179.916 425.374 179.988 425.019 180.131 424.687C180.274 424.352 180.468 424.061 180.712 423.813C180.959 423.563 181.249 423.366 181.581 423.222C181.913 423.076 182.268 423.003 182.646 423.003H185.917V423.999H182.646C182.405 424.002 182.178 424.051 181.967 424.145C181.758 424.236 181.576 424.362 181.42 424.521C181.264 424.677 181.14 424.861 181.049 425.073C180.961 425.285 180.917 425.511 180.917 425.752C180.917 425.993 180.961 426.219 181.049 426.43C181.14 426.642 181.264 426.828 181.42 426.987C181.576 427.143 181.758 427.269 181.967 427.363C182.178 427.454 182.405 427.5 182.646 427.5H185.917V428.501Z" fill="#CB2027"/>
<path d="M193.354 424.751C193.354 424.995 193.308 425.223 193.217 425.434C193.126 425.646 193 425.831 192.841 425.991C192.685 426.147 192.499 426.271 192.284 426.362C192.073 426.453 191.846 426.499 191.605 426.499H187.772C187.844 426.645 187.934 426.78 188.041 426.904C188.148 427.028 188.269 427.134 188.402 427.221C188.536 427.309 188.681 427.378 188.837 427.427C188.996 427.475 189.162 427.5 189.335 427.5H192.606V428.501H189.335C188.957 428.497 188.603 428.424 188.271 428.281C187.938 428.135 187.649 427.938 187.401 427.69C187.157 427.44 186.964 427.148 186.82 426.816C186.677 426.484 186.605 426.129 186.605 425.752C186.605 425.374 186.677 425.019 186.82 424.687C186.964 424.355 187.157 424.066 187.401 423.818C187.649 423.567 187.938 423.371 188.271 423.227C188.603 423.081 188.957 423.006 189.335 423.003H191.605C191.846 423.003 192.073 423.048 192.284 423.139C192.499 423.231 192.685 423.356 192.841 423.515C193 423.672 193.126 423.856 193.217 424.067C193.308 424.279 193.354 424.507 193.354 424.751ZM191.605 425.503C191.706 425.503 191.802 425.483 191.894 425.444C191.985 425.405 192.064 425.351 192.133 425.283C192.201 425.215 192.255 425.135 192.294 425.044C192.333 424.953 192.353 424.855 192.353 424.751C192.353 424.65 192.333 424.554 192.294 424.463C192.255 424.372 192.201 424.292 192.133 424.223C192.064 424.155 191.985 424.101 191.894 424.062C191.802 424.02 191.706 423.999 191.605 423.999H189.335C189.114 423.999 188.905 424.038 188.71 424.116C188.518 424.194 188.345 424.302 188.192 424.438C188.043 424.572 187.917 424.731 187.816 424.917C187.719 425.099 187.655 425.294 187.626 425.503H191.605Z" fill="#CB2027"/>
<path d="M203.739 428.501H200.468C200.09 428.497 199.735 428.424 199.403 428.281C199.071 428.135 198.782 427.938 198.534 427.69C198.29 427.44 198.096 427.148 197.953 426.816C197.81 426.484 197.738 426.129 197.738 425.752C197.738 425.374 197.81 425.019 197.953 424.687C198.096 424.352 198.29 424.061 198.534 423.813C198.782 423.563 199.071 423.366 199.403 423.222C199.735 423.076 200.09 423.003 200.468 423.003H203.739V423.999H200.468C200.227 424.002 200.001 424.051 199.789 424.145C199.581 424.236 199.398 424.362 199.242 424.521C199.086 424.677 198.962 424.861 198.871 425.073C198.783 425.285 198.739 425.511 198.739 425.752C198.739 425.993 198.783 426.219 198.871 426.43C198.962 426.642 199.086 426.828 199.242 426.987C199.398 427.143 199.581 427.269 199.789 427.363C200.001 427.454 200.227 427.5 200.468 427.5H203.739V428.501Z" fill="#CB2027"/>
<path d="M211.425 425.752C211.425 426.129 211.353 426.484 211.21 426.816C211.067 427.148 210.871 427.44 210.624 427.69C210.38 427.938 210.092 428.135 209.76 428.281C209.428 428.424 209.073 428.497 208.695 428.501H207.157C206.78 428.497 206.425 428.424 206.093 428.281C205.761 428.135 205.471 427.938 205.224 427.69C204.979 427.44 204.786 427.148 204.643 426.816C204.499 426.484 204.428 426.129 204.428 425.752C204.428 425.374 204.499 425.019 204.643 424.687C204.786 424.352 204.979 424.061 205.224 423.813C205.471 423.563 205.761 423.366 206.093 423.222C206.425 423.076 206.78 423.003 207.157 423.003H208.695C208.946 423.003 209.188 423.035 209.423 423.1C209.657 423.165 209.875 423.258 210.077 423.379C210.279 423.499 210.463 423.644 210.629 423.813C210.795 423.979 210.937 424.165 211.054 424.37C211.171 424.572 211.262 424.79 211.327 425.024C211.392 425.259 211.425 425.501 211.425 425.752ZM210.429 425.752C210.429 425.511 210.383 425.285 210.292 425.073C210.201 424.861 210.077 424.677 209.921 424.521C209.765 424.362 209.581 424.236 209.369 424.145C209.161 424.051 208.936 424.002 208.695 423.999H207.157C206.916 424.002 206.69 424.051 206.479 424.145C206.27 424.236 206.088 424.362 205.932 424.521C205.775 424.677 205.652 424.861 205.561 425.073C205.473 425.285 205.429 425.511 205.429 425.752C205.429 425.993 205.473 426.219 205.561 426.43C205.652 426.642 205.775 426.828 205.932 426.987C206.088 427.143 206.27 427.269 206.479 427.363C206.69 427.454 206.916 427.5 207.157 427.5H208.695C208.936 427.5 209.161 427.454 209.369 427.363C209.581 427.269 209.765 427.143 209.921 426.987C210.077 426.828 210.201 426.642 210.292 426.43C210.383 426.219 210.429 425.993 210.429 425.752Z" fill="#CB2027"/>
<path d="M218.651 428.501H217.65V423.999H214.901C214.66 423.999 214.434 424.046 214.223 424.14C214.014 424.232 213.832 424.357 213.676 424.516C213.52 424.673 213.396 424.858 213.305 425.073C213.217 425.285 213.173 425.511 213.173 425.752C213.173 425.993 213.217 426.219 213.305 426.43C213.396 426.639 213.52 426.823 213.676 426.982C213.832 427.138 214.014 427.264 214.223 427.358C214.434 427.449 214.66 427.497 214.901 427.5H217.152V428.501H214.901C214.524 428.501 214.169 428.429 213.837 428.286C213.505 428.139 213.215 427.942 212.968 427.695C212.724 427.444 212.53 427.153 212.387 426.821C212.243 426.486 212.172 426.129 212.172 425.752C212.172 425.374 212.243 425.019 212.387 424.687C212.53 424.355 212.724 424.066 212.968 423.818C213.215 423.567 213.505 423.371 213.837 423.227C214.169 423.081 214.524 423.006 214.901 423.003H217.65V421.001H218.651V428.501Z" fill="#CB2027"/>
<path d="M226.488 424.751C226.488 424.995 226.443 425.223 226.352 425.434C226.26 425.646 226.135 425.831 225.976 425.991C225.819 426.147 225.634 426.271 225.419 426.362C225.207 426.453 224.981 426.499 224.74 426.499H220.907C220.979 426.645 221.068 426.78 221.176 426.904C221.283 427.028 221.404 427.134 221.537 427.221C221.671 427.309 221.815 427.378 221.972 427.427C222.131 427.475 222.297 427.5 222.47 427.5H225.741V428.501H222.47C222.092 428.497 221.737 428.424 221.405 428.281C221.073 428.135 220.784 427.938 220.536 427.69C220.292 427.44 220.098 427.148 219.955 426.816C219.812 426.484 219.74 426.129 219.74 425.752C219.74 425.374 219.812 425.019 219.955 424.687C220.098 424.355 220.292 424.066 220.536 423.818C220.784 423.567 221.073 423.371 221.405 423.227C221.737 423.081 222.092 423.006 222.47 423.003H224.74C224.981 423.003 225.207 423.048 225.419 423.139C225.634 423.231 225.819 423.356 225.976 423.515C226.135 423.672 226.26 423.856 226.352 424.067C226.443 424.279 226.488 424.507 226.488 424.751ZM224.74 425.503C224.841 425.503 224.937 425.483 225.028 425.444C225.119 425.405 225.199 425.351 225.268 425.283C225.336 425.215 225.39 425.135 225.429 425.044C225.468 424.953 225.487 424.855 225.487 424.751C225.487 424.65 225.468 424.554 225.429 424.463C225.39 424.372 225.336 424.292 225.268 424.223C225.199 424.155 225.119 424.101 225.028 424.062C224.937 424.02 224.841 423.999 224.74 423.999H222.47C222.248 423.999 222.04 424.038 221.845 424.116C221.653 424.194 221.48 424.302 221.327 424.438C221.177 424.572 221.052 424.731 220.951 424.917C220.854 425.099 220.79 425.294 220.761 425.503H224.74Z" fill="#CB2027"/>
</svg>
