<svg width="529" height="487" viewBox="0 0 529 487" fill="none" xmlns="http://www.w3.org/2000/svg">
<path d="M309.071 109.07C307.947 113.464 299.747 121.8 295.788 125.419L295.42 128.633L274.362 126.695L273.692 113.796C260.613 119.007 261.004 110.177 262.835 105.111L256.065 95.659C253.613 87.3824 258.96 81.9924 261.941 80.332C268.583 59.2828 272.116 65.0899 273.053 70.6246C285.519 55.6041 294.511 62.4928 297.448 67.8147C307.666 68.3256 303.238 76.9684 299.747 81.2259L309.071 109.07Z" fill="white"/>
<path opacity="0.4" d="M137.216 433.058C88.9567 419.079 25.3418 401.642 10.0884 366.876C-5.17105 332.219 28.0335 280.349 55.1631 232.165C82.2866 184.09 103.221 139.804 138.628 110.996C164.081 90.3605 196.904 77.721 234.501 69.6196C249.194 66.4535 265.004 49.4188 281 47.4326C301 44.9492 302.112 59.5563 313 58.8249C327.496 57.8513 342.016 57.5576 356 58.3591C379.806 59.7236 402.06 64.2616 420 74.0211C425.941 77.2527 431.409 81.0568 436.304 85.5077C471.295 117.234 477.191 181.597 489.836 241.877C502.481 302.156 521.779 358.128 504.108 398.464C486.443 438.691 431.922 463.18 383.481 472.131C335.148 481.089 292.899 474.401 255.425 465.912C217.952 457.423 185.373 446.922 137.216 433.058Z" fill="white"/>
<path fill-rule="evenodd" clip-rule="evenodd" d="M218.279 324.073L215.427 328.645L197.2 321.614L205.328 302.545H209.405L203.3 318.084L218.279 324.073ZM242.469 347.598C242.469 347.598 252.68 346.151 255.88 358.274C255.88 358.274 257.633 368.488 246.938 373.464V396.845H243.028V370.195C243.028 370.195 251.067 367.418 251.87 359.317C252.674 351.186 242.469 347.598 242.469 347.598ZM138.804 287.412C138.804 287.412 131.484 286.864 129.201 288.657C126.915 290.452 125.943 294.474 125.954 298.291V442.591L126.892 452.342C126.892 452.342 126.79 457.898 135.644 456.624C135.644 456.624 131.958 456.509 131.191 452.342V293.633C131.191 293.633 131.212 288.657 138.804 287.412ZM344.014 323.148L343.909 419.068C343.909 419.068 344.347 430.206 344.014 433.129C343.681 436.051 344.513 443.371 323.287 441.636C323.287 441.636 328.206 438.539 332.119 436.11C335.059 434.258 336.844 431.017 336.844 427.546V317.592H340.84L344.014 320.457V323.148ZM379.886 80.4707C379.886 80.4707 381.185 92.334 391.652 96.0955L396.12 97.1951C396.12 97.1951 395.537 91.5528 396.12 91.003C396.704 90.4245 400.043 90.9452 400.772 96.0955C400.772 96.0955 408.601 95.0249 412.922 81.6281C412.922 81.6281 407.114 90.1929 400.167 92.6813C400.167 92.6813 398.357 90.1638 396.71 90.8293C395.066 91.4948 395.983 93.5205 395.884 93.8966C395.783 94.2439 385.257 91.8999 379.886 80.4707ZM413.721 141.407C415.078 136.402 416.318 131.338 417.705 126.303C418.393 123.815 418.926 121.095 420.071 118.78C421.093 116.668 423.235 115.25 424.8 113.601C425.632 112.733 426.197 111.633 426.71 110.563C427.916 108.016 428.635 105.441 428.766 102.635C428.796 101.969 429.053 100.464 428.628 99.8858C428.57 99.7988 428.043 99.9438 427.956 99.9728C427.308 100.117 426.741 100.464 426.24 100.898C424.233 102.635 423.332 105.47 421.489 107.438C419.369 109.695 416.845 111.373 415.272 114.122C414.07 116.234 413.447 118.607 412.708 120.863C411.756 123.815 410.763 126.738 409.939 129.718C409.224 132.293 408.665 134.897 407.67 137.386M359.555 371.874C362.804 368.605 366.404 365.71 369.51 362.269C371.091 360.531 372.652 358.796 374.473 357.292C375.226 356.654 376.044 355.931 376.975 355.612C377.887 355.295 378.576 356.684 378.834 357.349C379.511 359.027 379.644 360.995 379.828 362.788C379.882 363.309 380.173 364.236 380.06 364.727C379.973 365.104 378.745 365.769 378.428 366.029C376.797 367.303 363.677 378.528 359.436 383.535M389.814 395.196C389.11 395.341 387.884 395.456 387.323 395.919C387.26 395.977 387.492 396.787 387.511 396.874C387.725 397.887 387.935 398.87 388.211 399.854C388.995 402.662 389.724 405.524 390.675 408.304C391.093 409.489 391.484 411.022 392.302 412.037C392.898 412.76 394.055 412.932 394.947 412.845C395.203 412.817 395.825 412.817 395.862 412.498C396.088 410.646 394.741 408.506 394.154 406.828C393.564 405.15 393.142 403.412 392.768 401.677C392.227 399.159 391.609 396.67 390.945 394.182M396.831 411.92C397.182 413.134 397.568 414.351 398.04 415.508C398.216 415.942 398.402 416.607 398.711 416.954C398.854 417.128 399.773 417.041 399.991 417.041C401.247 417.099 402.501 417.186 403.761 417.216C404.617 417.243 405.453 417.243 406.309 417.186C406.452 417.156 407.088 417.216 407.175 417.128C407.187 417.128 406.995 416.782 406.979 416.752C406.781 416.376 406.61 415.971 406.452 415.565C405.784 413.857 405.471 412.064 404.938 410.299" fill="#DAE8F1"/>
<path fill-rule="evenodd" clip-rule="evenodd" d="M396.629 417.62C396.629 423.668 396.592 429.715 396.56 435.762C396.532 440.132 396.806 444.53 396.651 448.927C396.576 451.041 396.582 453.123 396.71 455.235C396.744 455.873 396.598 457 396.861 457.579C396.893 457.636 397.606 457.551 397.703 457.551C398.652 457.492 399.595 457.434 400.546 457.464H403.124C403.247 457.464 403.488 457.579 403.484 457.464C403.258 451.966 403.52 446.498 403.516 441C403.512 437.672 403.217 434.345 403.237 431.046C403.272 425.925 403.492 420.831 403.597 415.71M336.349 318.286C339.348 320.312 342.608 322.018 345.714 323.841C350.459 326.648 355.208 329.483 360.373 331.451C363.224 332.523 366.087 333.563 369.019 334.403C369.653 334.577 371.133 334.75 371.509 335.243C371.717 335.502 371.509 336.891 371.533 337.268C371.62 338.888 372.706 340.509 373.188 342.042C375.103 348.146 377.986 353.702 379.349 360.01C379.678 361.516 379.842 364.119 380.69 365.999L380.562 366.203C382.798 374.419 384.558 382.782 387.43 390.826C387.813 391.896 388.191 392.995 388.712 394.01C388.796 394.182 389.039 394.905 389.204 394.992C390.006 395.339 391.967 394.443 392.71 394.124C392.823 394.095 393.652 393.805 393.685 393.691C393.727 393.516 393.497 393.082 393.449 392.91C393.239 392.215 393.061 391.491 392.853 390.798C392.106 388.25 391.308 385.704 390.515 383.158C389.655 380.409 389.35 377.573 388.837 374.738C388.336 372.018 387.539 369.328 387.018 366.607C386.826 365.595 386.672 364.553 386.521 363.54C386.557 362.586 386.452 361.66 386.281 360.733C385.469 356.365 383.619 352.141 382.624 347.8C381.681 343.633 381.501 339.003 379.521 335.156C377.202 330.67 371.64 328.009 367.325 325.81C361.544 322.916 355.357 320.891 349.554 318.026C344.737 315.653 341.583 312.76 337.023 310.763C336.521 310.444 335.984 310.184 335.432 309.895C332.41 308.391 329.288 307.118 326.253 305.642C316.826 301.071 307.546 296.643 298.959 290.567C294.292 287.268 290.365 283.131 285.929 279.543L277.014 283.912C287.476 298.957 303.033 307.118 319.623 314.091C323.95 315.914 330.708 317.909 335.432 318.228C335.753 318.258 336.056 318.286 336.349 318.286ZM212.047 269.617C212.383 271.816 212.788 274.798 213.022 277.025C213.231 278.935 213.427 280.874 212.834 282.784C211.816 286.024 209.677 288.918 208.106 291.898C207.397 293.257 206.636 294.646 206.376 296.179C206.017 298.234 206.677 300.318 207.189 302.285C207.458 303.327 207.574 304.687 208.097 305.642C208.176 305.758 208.228 305.352 208.294 305.208C208.413 304.948 208.537 304.716 208.65 304.455C209.012 303.645 209.397 302.864 209.735 302.054C210.733 299.652 211.506 297.019 212.765 294.763C213.893 292.708 214.272 290.133 215.094 287.933C215.947 285.677 217.154 283.535 217.932 281.221C219.128 277.691 219.394 273.12 217.924 269.617" fill="#DAE8F1"/>
<path d="M382 35.433L373.5 40.9336L380.917 52.9619M380.917 52.9619L389 46.9334M380.917 52.9619L390 69.4334M390 69.4334C390 69.4334 396.865 66.6306 401 67.9334C405.477 69.3441 408.348 71.8824 409.5 76.4334C410.424 80.0863 409.638 82.637 407.813 85.9334C404.587 91.759 398.856 95.4182 392.5 93.4334C387.591 91.9006 384.932 88.4778 383.932 83.4334C382.774 77.5884 390 69.4334 390 69.4334Z" stroke="#CB2027" stroke-width="3"/>
<path fill-rule="evenodd" clip-rule="evenodd" d="M277.036 127.029C277.036 127.029 272.513 126.681 271.243 128.707C269.975 130.761 268.41 136.664 268.322 138.458C268.322 138.458 254.068 135.883 247.753 137.011C241.439 138.14 230.872 143.03 226.515 154.083C222.16 165.136 211.489 189.962 208.439 198.121C205.386 206.309 201.529 211.692 200.091 215.308C198.65 218.955 198.572 224.626 199.507 227.924C200.442 231.223 200.537 234.841 198.899 240.8C197.259 246.789 196.069 256.165 206.674 260.824L207.681 261.084L211.356 269.619C211.356 269.619 222.834 270.314 228.464 266.697L228.062 257.698C228.062 257.698 232.417 254.574 233.522 249.741C234.632 244.909 232.668 242.768 233.522 237.474C234.378 232.178 233.522 223.845 233.522 223.845L242.424 212.762C242.424 212.762 246.838 227.027 249.544 234.145C252.253 241.264 256.592 252.462 256.76 257.698C256.93 262.964 257.251 267.624 261.063 270.459C264.873 273.324 264.316 274.568 265.945 277.577C267.574 280.587 271.205 283.509 277.036 284.29C277.036 284.29 324.601 279.979 340.542 245.834C346.267 233.567 337.77 230.123 335.6 225.725C333.433 221.327 331.577 213.398 330.758 206.947C329.936 200.522 328.736 190.945 328.736 190.945C328.736 190.945 359.486 201.854 374.48 203.793C389.47 205.731 392.257 205.963 399.71 198.121C407.162 190.279 408.604 189.152 409.999 181.195C411.398 173.237 413.302 168.868 414.558 164.731C415.814 160.622 414.948 157.208 412.842 154.69L415.459 143.203C415.459 143.203 408.685 135.535 396.426 132.497L390.222 139.789C390.222 139.789 384.202 139.731 382.343 144.245C380.483 148.759 380.223 153.185 378.093 156.6C375.962 160.014 374.498 163.081 374.034 165.396C374.034 165.396 351.155 155.529 342.961 151.479C334.768 147.428 322.897 140.83 316.668 139.789C310.437 138.747 300.584 137.011 300.584 137.011C300.584 137.011 301.835 132.121 300.777 130.993C299.715 129.835 298.118 129.083 294.888 128.707C291.659 128.359 282.575 127.52 282.575 127.52L277.036 127.029Z" fill="#58B9FD"/>
<path d="M262.38 80.1814C262.063 76.0147 263.676 71.472 266.22 68.1733C267.276 66.8134 268.639 65.4824 270.369 65.0485C272.318 64.5566 272.97 66.495 273.025 68.1154C273.041 68.6942 272.998 69.2729 272.94 69.8516C272.922 69.9962 272.901 70.17 272.877 70.3435C272.863 70.4303 272.758 70.7197 272.831 70.6328C273.99 69.3886 274.939 67.9999 276.189 66.8425C280.015 63.1967 286.141 59.9847 291.469 62.1258C294.367 63.2833 296.295 66.1479 295.473 69.2729C295.126 70.5749 294.141 72.7451 292.481 72.7451C290.997 72.7451 290.831 70.6328 291.265 69.6489C291.904 68.2022 293.727 67.3923 295.245 67.3632C299.502 67.2764 305.05 69.7359 303.441 74.8864C303.158 75.7833 302.68 76.6513 302.128 77.4325C299.621 80.9048 295.183 82.6988 291.017 83.0461" stroke="#25316D" stroke-width="2" stroke-miterlimit="1.5" stroke-linecap="round" stroke-linejoin="round"/>
<path d="M286.788 80.8194C286.373 83.4235 285.25 86.1722 283.554 88.2265M278.496 84.6098C278.425 87.3298 278.195 90.2234 276.998 92.6829M273.41 92.9428C273.525 94.8236 273.424 96.6176 272.822 98.4116C272.59 99.0921 272.32 99.7588 272.012 100.408C271.948 100.524 271.619 100.987 271.645 101.132C271.691 101.392 272.055 101.739 272.196 101.942C272.652 102.665 273.058 103.417 273.513 104.141C274.978 106.455 276.41 108.799 277.979 111.027M259.958 82.5264C255.746 84.2915 254.391 88.921 255.231 93.1455C256.192 98.0066 259.455 101.739 262.912 105.038M255.429 80.5565C256.523 80.2959 257.642 80.0356 258.765 79.9197C259.055 79.8908 259.342 79.8619 259.627 79.8619C259.657 79.8619 259.877 79.8621 259.883 79.8331C259.938 79.7172 259.851 79.3699 259.841 79.2253C259.813 78.7623 259.77 78.2706 259.74 77.8075C259.637 76.1005 259.508 74.4221 259.518 72.7148M269.888 104.279C266.777 102.778 263.072 104.359 261.862 107.28C260.772 109.933 261.699 113.149 264.307 114.703C265.085 115.159 265.925 115.4 266.837 115.507C268.119 115.641 269.373 115.481 270.601 115.132C271.98 114.73 273.505 114.007 274.254 112.801" stroke="#25316D" stroke-width="2" stroke-miterlimit="1.5" stroke-linecap="round" stroke-linejoin="round"/>
<path d="M270.929 106.513C273.259 111.2 275.904 115.714 279.008 119.909M264.431 109.605C266.154 109.631 267.88 109.681 269.604 109.66M299.672 81.947C302.882 89.3833 305.941 98.2375 308.851 108.451C308.962 108.857 308.933 109.262 308.768 109.638C306.432 114.817 302.918 119.157 298.472 122.89C298.119 123.208 297.677 123.382 297.218 123.382C291.514 123.584 285.505 122.456 279.197 119.996M274.493 113.805L274.216 127.519M297.729 123.468L297.216 129.313" stroke="#25316D" stroke-width="2" stroke-miterlimit="1.5" stroke-linecap="round" stroke-linejoin="round"/>
<path d="M286.826 111.433C286.826 111.433 289.586 114.847 294.789 112.445M276.873 96.7338C277.998 94.5637 280.411 93.2036 282.818 93.1169M291.357 90.1074C292.503 88.024 294.749 86.8089 297.119 87.2719M288.134 92.4514C288.831 94.7951 290.03 97.11 292.098 98.5278C292.895 99.0775 293.776 99.4825 294.702 99.7719C294.931 99.8298 295.165 99.8875 295.399 99.9455C295.421 99.9455 295.605 100.003 295.609 100.003C295.643 100.264 295.191 100.813 295.05 101.016C294.401 101.971 293.418 102.955 292.382 103.476M268.284 137.908C268.601 135.767 269.019 133.51 269.723 131.456C270.069 130.443 270.525 129.314 271.294 128.533C272.373 127.433 274.008 127.173 275.478 127.115C278.476 127 281.578 127.289 284.532 127.781M287.581 128.128C290.868 128.389 294.139 128.504 297.382 129.17C298.69 129.43 300.267 129.777 300.883 131.079C301.739 132.931 300.857 135.391 300.457 137.271M270.602 140.31C274.446 141.38 278.424 141.727 282.396 141.814C284.651 141.843 286.866 141.901 289.109 141.641C291.785 141.323 294.692 140.86 297.133 139.644" stroke="#25316D" stroke-width="2" stroke-miterlimit="1.5" stroke-linecap="round" stroke-linejoin="round"/>
<path d="M276.176 130.181C275.867 132.496 275.665 134.811 275.558 137.155M284.055 130.963C283.912 133.248 283.93 135.563 283.76 137.878M292.125 131.57C291.968 133.48 291.942 135.39 291.867 137.299M389.826 1.9082C391.694 2.02648 393.658 2.25095 395.494 2.62837M396.255 2.35992C393.541 7.47066 391.524 12.8609 388.972 18.0319M390.244 2.45839C389.671 7.26817 389.61 12.1156 389.142 16.9157M418.789 2.39162C413.826 9.31794 409.523 16.7083 404.291 23.4273" stroke="#25316D" stroke-width="2" stroke-miterlimit="1.5" stroke-linecap="round" stroke-linejoin="round"/>
<path d="M418.375 2.50195C419.572 4.22501 420.895 5.87576 422.05 7.61309M422.641 8.67521C415.976 13.7923 409.42 19.1744 402.395 23.7635M411.421 33.6109C417.153 33.247 422.971 33.453 428.709 33.4998M429.117 33.6706C428.337 35.7586 427.806 37.9203 427.08 40.0317M411.048 34.679C415.449 36.3613 419.762 38.2581 424.14 39.9948M237.348 152.983C244.193 168.781 247.234 185.968 244.387 203.098M272.011 225.87C280.55 229.053 289.935 229.515 298.959 228.994C305.577 228.647 311.922 227.837 318.272 225.927M276.088 203.908C285.035 208.77 294.43 210.852 304.527 211.49M322.037 224.77C323.469 224.336 324.703 223.7 325.924 222.832M389.733 139.962C393.358 141.524 396.883 143.434 400.292 145.431C405.045 148.237 409.675 151.276 413.378 155.413M395.989 132.121C402.573 134.464 409.614 137.473 414.585 142.566M396.033 132.41C393.877 134.696 392.183 137.3 390.333 139.817M415.77 142.19C415.187 144.013 414.874 145.923 414.478 147.804C414.038 149.858 413.501 151.912 412.948 153.967M400.154 135.969C399.193 137.271 398.27 138.602 397.346 139.933M406.868 139.065C405.994 140.28 405.22 141.554 404.461 142.827M410.725 142.711C410.034 144.1 409.507 145.575 408.794 146.964M397.053 132.121C398.377 128.764 399.692 125.408 400.823 121.994C401.451 120.084 402.198 118.145 402.309 116.12M401.644 114.007C400.435 112 399.239 109.984 398.058 107.96C397.222 106.513 396.292 105.038 395.946 103.388C395.462 101.073 395.819 98.5561 395.991 96.2412C396.082 95.026 396.16 93.782 396.166 92.5378C396.17 92.2772 396.045 91.3803 396.211 91.1776C396.938 90.2807 398.672 91.2066 399.246 91.7853C400.905 93.4634 400.778 96.2993 400.726 98.4693M402.175 100.119C402.795 101.045 403.5 102.115 404.415 102.752C405.913 103.794 407.71 102.752 408.74 101.566C410.825 99.1641 411.938 95.6916 412.477 92.5667M412.526 90.6279C412.453 89.8175 412.332 89.0074 412.17 88.1684C412.112 87.8789 412.083 87.445 411.867 87.2136C411.661 87.011 411.409 86.8374 411.138 86.6928M412.917 81.4558C413.263 81.4558 413.608 81.5135 413.949 81.6294C414.716 81.8897 415.3 82.6131 415.696 83.2785C416.626 84.8411 416.845 86.693 417.329 88.4002M412.59 92.6249C413.735 91.7567 415.005 91.0045 416.297 90.3679C417.016 89.9919 417.8 89.5865 418.613 89.4708C419.948 89.3262 421.23 90.0495 421.999 91.1202M422.117 91.2064C423.278 90.8012 424.675 91.0037 425.63 91.7851C426.102 92.19 426.433 92.7398 426.742 93.2318M426.819 93.464C427.378 93.6664 427.918 93.9268 428.378 94.3319C429.898 95.6051 429.993 97.804 429.789 99.6269C429.301 103.967 427.708 108.192 425.913 112.127M424.606 114.239C423.903 115.339 423.09 116.322 422.143 117.248C421.256 118.087 420.239 118.811 419.679 119.91C418.601 122.08 418.316 124.771 417.763 127.115C416.822 131.079 415.752 135.014 414.682 138.979M412.97 92.9138C412.82 93.6082 412.685 94.3026 412.554 94.9681C412.455 95.5179 412.354 96.0389 412.265 96.5887C411.94 98.5273 411.167 101.392 413.22 102.665C413.571 102.897 413.937 103.041 414.331 103.157C414.805 103.302 415.318 103.388 415.809 103.388M421.89 91.7853C421.152 92.4204 420.424 93.0667 419.706 93.7239C419.134 94.2158 418.5 94.7367 418.072 95.4022C416.843 97.254 416.919 99.8583 416.889 102M426.163 94.0134C425.048 94.9392 423.77 96.0679 423.043 97.3699C422.012 99.1928 421.917 101.479 421.69 103.533M417.063 103.33C418.119 104.112 419.473 104.083 420.687 103.706M421.23 103.823C421.917 104.922 423.122 105.617 424.43 105.125" stroke="#25316D" stroke-width="2" stroke-miterlimit="1.5" stroke-linecap="round" stroke-linejoin="round"/>
<path d="M424.57 105.239C425.523 103.445 426.448 101.593 427.096 99.6543M206.966 260.763C211.639 261.863 216.486 261.025 221.07 259.925C223.568 259.317 226.283 258.594 228.492 257.205M211.465 269.415C215.108 270.081 218.838 269.647 222.415 268.807C224.216 268.373 226.075 267.912 227.669 266.927M207.689 261.257C208.78 264.149 209.958 267.071 211.37 269.849M228.159 258.045C228.129 260.995 228.291 263.977 228.502 266.927M213.051 263.224C213.447 264.438 213.832 265.653 214.298 266.84M218.691 262.616C218.913 263.802 219.203 264.93 219.533 266.089M224.083 261.95C224.184 263.165 224.426 264.381 224.509 265.625M212.088 270.659C212.47 272.916 212.854 275.173 213.167 277.459C213.335 278.675 213.696 280.005 213.471 281.221C212.982 283.882 211.092 286.111 209.813 288.397M208.884 290.307C208.066 291.32 207.102 292.506 206.735 293.808C206.353 295.139 206.532 296.586 206.7 297.945C206.926 299.797 207.195 301.65 207.438 303.5M229.177 269.879C229.773 276.07 231.083 282.261 232.723 288.253C233.453 290.913 234.433 293.519 235.123 296.179M235.065 298.147C234.556 299.623 234.11 301.129 233.768 302.632C233.552 303.617 233.458 304.744 233.007 305.642C232.345 306.973 231.045 308.015 230.083 309.115C229.528 309.734 229.017 310.391 228.555 311.082C228.456 311.227 228.224 311.718 228.054 311.748C226.679 311.748 226.049 309.895 226.005 308.796C225.942 307.06 226.99 305.874 227.483 304.31C227.923 302.922 227.822 301.418 228.159 299.999M215.725 294.791C220.221 295.89 224.533 297.309 228.583 299.595M212.889 295.486C209.599 302.343 206.633 309.287 203.864 316.348M203.335 318.373C209.064 320.919 214.946 322.916 220.957 324.681M221.312 325.085C222.679 320.544 224.943 316.348 226.506 311.863M215.904 295.543C212.284 302.488 209.194 309.751 206.185 316.954M206.541 317.129C210.765 318.662 214.975 320.196 219.174 321.816M219.625 322.106C221.25 317.707 223.144 313.454 225.193 309.23M278.983 287.036C284.879 293.895 292.057 299.45 299.734 304.195C310.302 310.735 321.296 315.568 333.559 317.707M337.944 319.213C345.795 324.247 353.888 328.935 362.641 332.263C365.475 333.333 369.498 335.358 372.621 335.126C374.372 334.981 375.359 332.089 373.227 331.742C371.149 331.394 370.984 334.809 371.161 336.111C371.799 340.769 374.085 345.341 375.656 349.74C379.276 359.925 387.159 391.781 388.671 395.486M342.532 272.488C357.043 280.502 372.361 287.072 386.985 294.911C395.573 299.542 404.572 303.882 409.745 312.562M411.754 316.665C415.57 338.772 420.634 360.646 424.443 382.782" stroke="#25316D" stroke-width="2" stroke-miterlimit="1.5" stroke-linecap="round" stroke-linejoin="round"/>
<path d="M386.638 396.065C400.163 392.273 413.598 388.107 426.553 382.639M427.062 383.102C427.633 388.947 428.497 394.762 429.37 400.579" stroke="#25316D" stroke-width="2" stroke-miterlimit="1.5" stroke-linecap="round" stroke-linejoin="round"/>
<path d="M387.035 395.949C388.526 401.187 389.838 406.568 391.609 411.719M392.194 412.326C399.074 412.124 405.836 410.503 412.37 408.421C418.241 406.541 424.115 404.312 429.131 400.637M390.795 397.455C391.409 400.549 392.152 403.616 392.778 406.743M395.191 400.666C395.693 403.155 396.158 405.671 396.76 408.131M352.645 291.291C359.254 291.785 365.889 292.334 372.471 293.086M363.268 299.018C365.624 299.452 367.995 299.769 370.375 300.001M342.711 250.205C351.935 254.631 361.031 259.319 370.41 263.398C377.602 266.552 389.582 272.195 396.501 275.899M400.614 277.78C406.831 280.672 412.971 283.624 418.756 287.329C422.35 289.643 425.769 292.391 428.571 295.632C435.759 303.908 435.909 313.687 434.14 324.017C432.315 334.694 427.008 350.724 424.86 361.313" stroke="#25316D" stroke-width="2" stroke-miterlimit="1.5" stroke-linecap="round" stroke-linejoin="round"/>
<path d="M396.528 411.677C397.101 413.456 397.568 415.238 398.232 416.985M422.74 405.092C423.776 409.056 424.927 412.963 425.894 416.955M396.728 417.298C395.549 429.968 396.425 442.784 396.108 455.496M428.027 419.335C432.531 428.181 441.866 438.558 451.241 442.45C455.19 444.108 459.396 444.91 463.632 445.407M396.172 457.941C418.003 457.449 439.857 457.364 461.694 456.805M464.07 447.127C464.042 449.812 464.085 452.698 463.608 455.361M401.711 452.797C423.693 452.54 440.105 453.112 462.084 453.33M396.918 437.3C398.466 437.734 399.914 438.444 401.291 439.22C402.876 440.163 404.495 441.138 405.769 442.461C407.867 444.68 409.125 447.5 409.884 450.4" stroke="#25316D" stroke-width="2" stroke-miterlimit="1.5" stroke-linecap="round" stroke-linejoin="round"/>
<path d="M436.369 431.385C435.129 432.778 433.849 434.171 432.708 435.629M439.355 434.26C438.378 435.544 437.447 436.893 436.408 438.179M398.74 416.964C408.763 416.76 418.859 417.505 428.872 416.996M432.616 424.435C432.723 422.868 433.219 421.36 434.164 420.112C435.115 418.828 436.63 417.667 438.253 417.453C440.89 417.144 441.455 419.914 440.468 421.844C440.141 422.464 439.709 423.052 439.214 423.575C438.328 424.483 437.25 425.192 436.171 425.866M430.265 426.638C428.711 426.512 427.162 426.724 425.714 427.306C424.888 427.633 424.103 428.13 423.408 428.693C422.122 429.747 419.739 433.006 422.471 433.949C422.841 434.076 423.224 434.133 423.614 434.157C425.649 434.236 427.469 433.135 428.967 431.871M377.121 355.988C370.912 360.676 365.319 366.261 359.926 371.846M360.096 387.961C365.891 401.532 373.388 414.089 380.124 427.169" stroke="#25316D" stroke-width="2" stroke-miterlimit="1.5" stroke-linecap="round" stroke-linejoin="round"/>
<path d="M379.816 427.227C383.131 425.694 386.43 424.073 389.374 421.903M386.558 401.156C385.728 407.928 386.992 414.815 389.843 420.976" stroke="#25316D" stroke-width="2" stroke-miterlimit="1.5" stroke-linecap="round" stroke-linejoin="round"/>
<path d="M361.036 379.514C368.365 395.37 376.658 410.474 385.213 425.664M367.927 365.566C370.897 372.193 372.87 381.192 368.919 387.877M200.357 375.462C194.258 384.635 188.039 393.779 182.108 403.067M260.783 405.811C254.572 414.809 248.068 423.548 241.563 432.345M295.389 309.318C291.442 314.324 287.567 319.386 283.953 324.624M236.487 348.987C235.14 349.768 233.803 350.693 232.798 351.91C229.622 355.7 228.907 361.312 230.611 365.885M231.966 368.084C233.626 370.428 235.715 372.136 238.352 373.235M239.515 347.888C245.522 346.006 251.717 348.843 254.483 354.456M255.802 357.495C256.951 363.599 254.187 370.747 247.949 372.829M238.894 373.784C238.986 376.562 238.982 379.369 239.051 382.147C239.114 384.548 239.194 386.949 239.003 389.351M238.885 391.926C238.956 393.432 238.997 394.936 239.073 396.441M239.087 396.816C240.672 396.903 242.255 396.96 243.844 397.02C244.779 397.02 245.728 396.99 246.661 397.048M246.893 375.896C247.101 383.102 247.249 390.308 247.037 397.511M151.697 302.526H204.813M238.3 302.807C243.99 303.009 291.418 302.518 297.106 302.633M232.961 287.819C240.236 287.964 267.592 287.645 274.863 287.645M147.522 302.546C147.111 302.518 146.7 302.518 146.286 302.518C145.201 302.575 143.824 302.576 142.947 303.328C142.149 303.994 142.004 305.151 142.021 306.134C142.056 308.161 142.134 310.185 142.201 312.182M142.007 316.147V386.226M142.105 390.365V431.424M126.301 337.992C126.278 337.154 126.17 298.873 126.156 297.918C126.089 293.924 126.495 289.353 130.69 288.051C131.668 287.732 132.689 287.588 133.711 287.53C135.065 287.471 139.426 287.326 140.768 287.53M144.984 287.653C148.746 287.655 205.846 287.653 209.607 287.653M126.265 342.665V434.55M126.388 439.929C126.341 441.926 126.44 443.893 126.448 445.89C126.457 447.828 126.379 449.795 126.68 451.735C126.949 453.443 127.505 455.208 129.154 456.046C130.496 456.742 132.111 456.742 133.584 456.712C135.792 456.712 137.996 456.597 140.204 456.537M145.768 456.567C149.275 456.799 262.701 456.799 266.219 456.973M142.105 434.635C142.108 435.59 142.137 436.603 142.36 437.557C142.48 438.062 142.667 438.548 142.915 439.004C144.912 442.679 151.055 441.694 154.443 441.694M159.773 441.724H315.135M272.686 456.712H342.193M345.347 456.678C347.875 456.591 350.476 456.765 352.983 456.419C354.042 456.274 355.205 456.07 356.154 455.549C360.347 453.292 359.675 447.361 359.588 443.398C359.566 442.211 359.562 406.968 359.513 405.811M343.776 425.577C343.766 427.604 343.877 429.629 343.934 431.653C343.972 432.927 344.035 434.286 343.744 435.531C343.588 436.196 343.332 436.862 343.005 437.47C340.947 441.26 336.895 441.839 333.03 441.869C332.077 441.869 319.635 441.839 318.737 441.811M343.794 323.061C343.633 325.781 343.909 416.608 343.97 419.328M359.744 331.713C359.54 336.371 359.6 396.731 359.744 401.418M325.731 174.972C325.987 176.998 326.426 179.023 326.811 181.048C327.338 183.826 327.795 186.633 328.412 189.383M373.631 166.784C372.618 171.385 372.65 176.014 372.896 180.701M85.7832 456.914H125.887M106.183 464.948H217.967M223.492 464.958C227.851 464.756 417.073 464.726 421.427 464.958M352.337 456.51C355.992 456.567 388.329 456.827 391.985 456.856M465.537 456.886C472.281 457.175 479.037 456.856 485.783 457.031M368.208 41.1199C372.389 48.2378 379.574 59.8699 383.566 67.1324M367.041 40.7437C369.092 39.2391 371.36 38.1106 373.548 36.8375C377.082 34.8121 379.343 33.4233 382.851 31.3398M382.942 31.7161C384.129 33.7125 385.48 35.6222 386.626 37.6476M386.99 37.8214C384.634 38.9786 382.546 40.5703 380.242 41.8145M379.335 42.5666C380.288 43.9265 381.185 45.2864 382.09 46.6463M382.213 46.8202C384.418 45.3734 386.746 44.1292 389.009 42.7982M389.377 42.48C390.667 44.4186 391.878 46.4442 393.037 48.4696M393.512 48.3822C391.067 49.8578 388.648 51.3915 386.231 52.925M386.77 54.864C388.214 57.8152 390.473 61.8083 392.195 64.6151M383.842 69.2735C380.769 73.2665 379.039 78.7641 380.323 83.7409M381.72 87.6471C383.828 91.2351 386.814 94.4179 390.798 95.8647C392.349 96.4433 393.897 96.6749 395.519 96.8773M403.139 95.1414C409.417 91.6691 413.314 84.8696 412.805 77.6937M392.543 64.4411C395.89 63.3416 399.103 63.8046 401.376 64.4411C405.544 65.6275 410.014 68.4632 412.14 74.3082M393.223 74.0187C389.556 75.697 388.24 80.616 390.408 84.0013M392.783 85.9401C393.788 86.432 394.925 86.6343 396.046 86.6343C398.41 86.6054 400.973 85.5349 402.212 83.4227C403.686 80.9343 403.353 77.1726 401.035 75.2918C399.927 74.3658 398.544 73.5559 396.409 73.3534" stroke="#25316D" stroke-width="2" stroke-miterlimit="1.5" stroke-linecap="round" stroke-linejoin="round"/>
<path d="M158.123 255.297C157.516 256.367 156.902 257.409 156.335 258.509M398.98 225.262C399.262 225.958 399.565 226.623 399.852 227.317M341.971 104.836C342.613 105.067 343.257 105.299 343.9 105.53M101.694 407.641C101.923 408.132 102.14 408.594 102.392 409.057M422.525 263.254C422.996 263.081 423.468 262.879 423.951 262.735M247.439 123.152C247.851 123.73 248.259 124.338 248.664 124.917" stroke="#25316D" stroke-width="2" stroke-miterlimit="1.5" stroke-linecap="round" stroke-linejoin="round"/>
<path fill-rule="evenodd" clip-rule="evenodd" d="M297.232 128.764L297.727 123.354C297.727 123.354 289.838 123.73 284.622 121.675C279.407 119.65 279.423 120.084 279.423 120.084C279.423 120.084 287.518 127.347 297.232 128.764Z" fill="#25316D"/>
<path d="M283.347 99.3962C284.063 99.3962 284.641 98.8173 284.641 98.1029C284.641 97.933 284.608 97.7648 284.543 97.6078C284.478 97.4509 284.382 97.3083 284.262 97.1882C284.142 97.0681 283.999 96.9728 283.843 96.9079C283.686 96.8429 283.517 96.8095 283.347 96.8096C282.634 96.8096 282.054 97.3887 282.054 98.1029C282.054 98.4459 282.19 98.7748 282.433 99.0173C282.676 99.2598 283.004 99.3961 283.347 99.3962ZM296.671 93.4167C297.386 93.4167 297.965 92.8376 297.965 92.1234C297.965 91.9535 297.931 91.7853 297.866 91.6283C297.801 91.4714 297.706 91.3287 297.586 91.2086C297.466 91.0885 297.323 90.9933 297.166 90.9283C297.009 90.8634 296.841 90.83 296.671 90.8301C295.958 90.8301 295.377 91.409 295.377 92.1234C295.378 92.4664 295.514 92.7953 295.757 93.0378C295.999 93.2803 296.328 93.4166 296.671 93.4167Z" fill="#25316D"/>
<path d="M164.06 349.325L157.783 357.313H173.065L171.159 362.399M165.592 347.366L173.662 337.155M176.95 333.011L185.768 321.934L181.06 335.008M180.201 337.494L176.614 347.366H191.783L182.555 359.159M178.818 363.869L163.649 382.934L169.44 366.883" stroke="#25316D" stroke-width="2" stroke-linecap="round" stroke-linejoin="round"/>
<path d="M153.277 68.3252L147 76.3128H162.281L160.376 81.3993M154.809 66.366L162.879 56.1553M166.167 52.0108L174.985 40.9336L170.277 54.0077M169.418 56.4944L165.831 66.366H181L171.771 78.159M168.035 82.8687L152.866 101.934L158.657 85.8829" stroke="#25316D" stroke-width="2" stroke-linecap="round" stroke-linejoin="round"/>
<path d="M160.349 56.5551L154.093 67.9675L148.05 79.0762L163.118 76.5305L162.087 81.8633L161.139 86.5706L158.102 103.362L169.884 82.0362L172.783 76.7699L179.918 63.6042L164.961 66.1313L166.853 55.8001L167.286 53.205L169.75 39.5293L162.901 51.9207L160.349 56.5551Z" fill="#CB2027"/>
<path d="M212 68.9336C212 73.8152 211.24 78.5192 209.831 82.9336C208.641 86.6628 217 93.9336 237 98.4336C233.5 107.934 200.666 99.3897 198.047 101.934C189.763 109.98 178.46 114.934 166 114.934C140.595 114.934 120 94.3387 120 68.9336C120 43.5285 140.595 22.9336 166 22.9336C191.405 22.9336 212 43.5285 212 68.9336Z" stroke="#25316D" stroke-width="2" stroke-miterlimit="2.353" stroke-linecap="round" stroke-linejoin="round" stroke-dasharray="15 8"/>
<path d="M294.06 389.325L287.783 397.313H303.065L301.159 402.399M295.592 387.366L303.662 377.155M306.95 373.011L315.768 361.934L311.06 375.008M310.201 377.494L306.614 387.366H321.783L312.555 399.159M308.818 403.869L293.649 422.934L299.44 406.883" stroke="#25316D" stroke-width="2" stroke-linecap="round" stroke-linejoin="round"/>
<path d="M76.278 395.959C72.0766 398.245 68.8677 402.498 67.1836 406.896M65.6904 412.336C64.7212 419.598 67.5048 426.832 72.8404 431.838M80.2478 394.338C87.516 391.734 96.5149 392.689 102.557 397.723C105.444 400.125 107.548 403.539 108.746 407.069M110.007 410.947C110.646 415.548 110.094 420.611 108.028 424.865C102.675 435.947 88.7747 441.994 74.7239 433.632M73.9427 407.889C78.7036 406.072 83.1045 403.33 87.9216 401.645M88.1791 401.612L102.105 407.692M73.8435 408.484C73.8534 414.332 76.1892 420.246 79.8567 424.739" stroke="#25316D" stroke-width="2" stroke-miterlimit="1.5" stroke-linecap="round" stroke-linejoin="round"/>
<path d="M82.5 426.931C84.3865 428.054 85.4867 428.913 87.5517 429.673M88.0042 429.872C94.3377 427.658 98.7584 422.735 100.85 416.293C101.603 413.947 102.089 410.379 102.198 407.934" stroke="#25316D" stroke-width="2" stroke-miterlimit="1.5" stroke-linecap="round" stroke-linejoin="round"/>
<path d="M82.5 414.88L87.1691 419.041L94.2872 410.934" stroke="#25316D" stroke-width="2" stroke-miterlimit="1.5" stroke-linecap="round" stroke-linejoin="round"/>
<path d="M183.636 254.272C183.776 248.748 181.373 243.08 177.945 238.853M173.365 234.218C166.657 229.052 157.811 227.658 149.719 230.106M182.964 259.183C181.371 267.96 175.217 276.412 166.688 279.549C162.617 281.051 157.985 281.183 153.761 280.343M149.152 279.366C144.179 277.347 139.187 274.427 136.095 269.885C128.127 258.144 130.351 240.183 146.836 230.954" stroke="#25316D" stroke-width="2" stroke-miterlimit="1.5" stroke-linecap="round" stroke-linejoin="round"/>
<path d="M150.147 246.914C147.554 249.512 146.433 253.807 147.534 257.356C148.123 259.234 148.851 260.315 150.147 261.78M163.911 246.631C164.685 247.325 165.428 248.098 165.955 248.998C168.052 252.598 168.008 257.793 164.829 261.138M157.139 236.934L157.139 243.725M144.087 240.792C145.129 242.772 146.276 244.651 147.454 246.529M170.4 240.613C169.353 242.515 168.25 244.392 167.275 246.347M147.559 262.372C146.41 264.43 145.308 266.514 144.254 268.623M157.367 265.537C157.221 267.672 157.185 269.832 157.146 271.941M167.133 262.656C168.096 264.431 169.052 266.204 170.133 267.878M157.703 252.922C155.96 252.608 154.773 254.773 156.165 255.974C157.592 257.215 159.769 255.775 159.115 254.005" stroke="#25316D" stroke-width="2" stroke-miterlimit="1.5" stroke-linecap="round" stroke-linejoin="round"/>
<path d="M139.643 254.33C141.093 252.656 142.868 251.269 144.607 249.879C146.577 248.336 148.637 246.665 151.019 245.79M153.164 245.455C154.533 245.018 155.965 244.786 157.403 244.71C159.013 244.632 160.665 244.71 162.252 244.992C167.854 246.047 172.517 249.544 176.267 253.687M140.8 255.77C144.17 258.856 147.547 262.174 151.863 263.923C153.352 264.541 154.916 264.876 156.503 265.08M159.932 264.823C166.83 264.18 172.082 259.448 176.309 254.381" stroke="#25316D" stroke-width="2" stroke-miterlimit="1.5" stroke-linecap="round" stroke-linejoin="round"/>
<path d="M163.46 427.186C163.46 427.426 163.414 427.654 163.323 427.869C163.232 428.081 163.107 428.266 162.947 428.426C162.791 428.582 162.605 428.706 162.391 428.797C162.179 428.888 161.953 428.934 161.712 428.934H157.459V427.933H161.712C161.813 427.933 161.909 427.913 162 427.874C162.091 427.835 162.171 427.781 162.239 427.713C162.308 427.645 162.361 427.566 162.4 427.479C162.439 427.387 162.459 427.29 162.459 427.186C162.459 427.085 162.439 426.989 162.4 426.897C162.361 426.806 162.308 426.727 162.239 426.658C162.171 426.59 162.091 426.536 162 426.497C161.909 426.455 161.813 426.434 161.712 426.434H158.958C158.75 426.434 158.554 426.395 158.372 426.316C158.19 426.238 158.03 426.132 157.894 425.999C157.76 425.862 157.654 425.703 157.576 425.521C157.498 425.338 157.459 425.143 157.459 424.935C157.459 424.726 157.498 424.531 157.576 424.349C157.654 424.166 157.76 424.008 157.894 423.875C158.03 423.738 158.19 423.631 158.372 423.553C158.554 423.475 158.75 423.436 158.958 423.436H162.962V424.432H158.958C158.818 424.432 158.699 424.48 158.602 424.578C158.507 424.673 158.46 424.791 158.46 424.935C158.46 425.075 158.507 425.193 158.602 425.291C158.699 425.385 158.818 425.433 158.958 425.433H161.712C161.953 425.433 162.179 425.478 162.391 425.569C162.605 425.66 162.791 425.786 162.947 425.945C163.107 426.105 163.232 426.29 163.323 426.502C163.414 426.714 163.46 426.941 163.46 427.186Z" fill="#CB2027"/>
<path d="M171.136 426.185C171.136 426.562 171.064 426.917 170.921 427.249C170.778 427.581 170.582 427.872 170.335 428.123C170.091 428.37 169.803 428.567 169.471 428.714C169.139 428.857 168.784 428.93 168.406 428.934H166.868C166.491 428.93 166.136 428.857 165.804 428.714C165.472 428.567 165.182 428.37 164.935 428.123C164.69 427.872 164.497 427.581 164.354 427.249C164.21 426.917 164.139 426.562 164.139 426.185C164.139 425.807 164.21 425.452 164.354 425.12C164.497 424.785 164.69 424.493 164.935 424.246C165.182 423.995 165.472 423.799 165.804 423.655C166.136 423.509 166.491 423.436 166.868 423.436H168.406C168.657 423.436 168.899 423.468 169.134 423.533C169.368 423.598 169.586 423.691 169.788 423.812C169.99 423.932 170.174 424.077 170.34 424.246C170.506 424.412 170.647 424.598 170.765 424.803C170.882 425.005 170.973 425.223 171.038 425.457C171.103 425.691 171.136 425.934 171.136 426.185ZM170.14 426.185C170.14 425.944 170.094 425.717 170.003 425.506C169.912 425.294 169.788 425.11 169.632 424.954C169.476 424.795 169.292 424.669 169.08 424.578C168.872 424.484 168.647 424.435 168.406 424.432H166.868C166.627 424.435 166.401 424.484 166.189 424.578C165.981 424.669 165.799 424.795 165.643 424.954C165.486 425.11 165.363 425.294 165.271 425.506C165.184 425.717 165.14 425.944 165.14 426.185C165.14 426.425 165.184 426.652 165.271 426.863C165.363 427.075 165.486 427.26 165.643 427.42C165.799 427.576 165.981 427.701 166.189 427.796C166.401 427.887 166.627 427.933 166.868 427.933H168.406C168.647 427.933 168.872 427.887 169.08 427.796C169.292 427.701 169.476 427.576 169.632 427.42C169.788 427.26 169.912 427.075 170.003 426.863C170.094 426.652 170.14 426.425 170.14 426.185Z" fill="#CB2027"/>
<path d="M178.621 428.934H174.871C174.493 428.934 174.139 428.862 173.807 428.719C173.475 428.572 173.185 428.375 172.938 428.128C172.693 427.877 172.5 427.586 172.356 427.254C172.213 426.919 172.142 426.562 172.142 426.185V423.436H173.143V426.185C173.143 426.425 173.187 426.652 173.274 426.863C173.366 427.072 173.489 427.256 173.646 427.415C173.802 427.571 173.984 427.697 174.192 427.791C174.404 427.882 174.63 427.929 174.871 427.933H177.62V423.436H178.621V428.934Z" fill="#CB2027"/>
<path d="M185.525 424.432H181.775C181.671 424.432 181.574 424.453 181.482 424.495C181.391 424.534 181.312 424.588 181.243 424.656C181.175 424.725 181.121 424.804 181.082 424.896C181.043 424.987 181.023 425.083 181.023 425.184V428.934H180.022V425.184C180.022 424.939 180.068 424.712 180.159 424.5C180.25 424.288 180.376 424.104 180.535 423.948C180.695 423.789 180.88 423.663 181.092 423.572C181.303 423.481 181.531 423.436 181.775 423.436H185.525V424.432Z" fill="#CB2027"/>
<path d="M191.917 428.934H188.646C188.268 428.93 187.913 428.857 187.581 428.714C187.249 428.567 186.959 428.37 186.712 428.123C186.468 427.872 186.274 427.581 186.131 427.249C185.988 426.917 185.916 426.562 185.916 426.185C185.916 425.807 185.988 425.452 186.131 425.12C186.274 424.785 186.468 424.493 186.712 424.246C186.959 423.995 187.249 423.799 187.581 423.655C187.913 423.509 188.268 423.436 188.646 423.436H191.917V424.432H188.646C188.405 424.435 188.178 424.484 187.967 424.578C187.758 424.669 187.576 424.795 187.42 424.954C187.264 425.11 187.14 425.294 187.049 425.506C186.961 425.717 186.917 425.944 186.917 426.185C186.917 426.425 186.961 426.652 187.049 426.863C187.14 427.075 187.264 427.26 187.42 427.42C187.576 427.576 187.758 427.701 187.967 427.796C188.178 427.887 188.405 427.933 188.646 427.933H191.917V428.934Z" fill="#CB2027"/>
<path d="M199.354 425.184C199.354 425.428 199.308 425.656 199.217 425.867C199.126 426.079 199 426.264 198.841 426.424C198.685 426.58 198.499 426.704 198.284 426.795C198.073 426.886 197.846 426.932 197.605 426.932H193.772C193.844 427.078 193.934 427.213 194.041 427.337C194.148 427.461 194.269 427.566 194.402 427.654C194.536 427.742 194.681 427.811 194.837 427.859C194.996 427.908 195.162 427.933 195.335 427.933H198.606V428.934H195.335C194.957 428.93 194.603 428.857 194.271 428.714C193.938 428.567 193.649 428.37 193.401 428.123C193.157 427.872 192.964 427.581 192.82 427.249C192.677 426.917 192.605 426.562 192.605 426.185C192.605 425.807 192.677 425.452 192.82 425.12C192.964 424.788 193.157 424.498 193.401 424.251C193.649 424 193.938 423.803 194.271 423.66C194.603 423.514 194.957 423.439 195.335 423.436H197.605C197.846 423.436 198.073 423.481 198.284 423.572C198.499 423.663 198.685 423.789 198.841 423.948C199 424.104 199.126 424.288 199.217 424.5C199.308 424.712 199.354 424.939 199.354 425.184ZM197.605 425.936C197.706 425.936 197.802 425.916 197.894 425.877C197.985 425.838 198.064 425.784 198.133 425.716C198.201 425.647 198.255 425.568 198.294 425.477C198.333 425.385 198.353 425.288 198.353 425.184C198.353 425.083 198.333 424.987 198.294 424.896C198.255 424.804 198.201 424.725 198.133 424.656C198.064 424.588 197.985 424.534 197.894 424.495C197.802 424.453 197.706 424.432 197.605 424.432H195.335C195.114 424.432 194.905 424.471 194.71 424.549C194.518 424.627 194.345 424.734 194.192 424.871C194.043 425.005 193.917 425.164 193.816 425.35C193.719 425.532 193.655 425.727 193.626 425.936H197.605Z" fill="#CB2027"/>
<path d="M209.739 428.934H206.468C206.09 428.93 205.735 428.857 205.403 428.714C205.071 428.567 204.782 428.37 204.534 428.123C204.29 427.872 204.096 427.581 203.953 427.249C203.81 426.917 203.738 426.562 203.738 426.185C203.738 425.807 203.81 425.452 203.953 425.12C204.096 424.785 204.29 424.493 204.534 424.246C204.782 423.995 205.071 423.799 205.403 423.655C205.735 423.509 206.09 423.436 206.468 423.436H209.739V424.432H206.468C206.227 424.435 206.001 424.484 205.789 424.578C205.581 424.669 205.398 424.795 205.242 424.954C205.086 425.11 204.962 425.294 204.871 425.506C204.783 425.717 204.739 425.944 204.739 426.185C204.739 426.425 204.783 426.652 204.871 426.863C204.962 427.075 205.086 427.26 205.242 427.42C205.398 427.576 205.581 427.701 205.789 427.796C206.001 427.887 206.227 427.933 206.468 427.933H209.739V428.934Z" fill="#CB2027"/>
<path d="M217.425 426.185C217.425 426.562 217.353 426.917 217.21 427.249C217.067 427.581 216.871 427.872 216.624 428.123C216.38 428.37 216.092 428.567 215.76 428.714C215.428 428.857 215.073 428.93 214.695 428.934H213.157C212.78 428.93 212.425 428.857 212.093 428.714C211.761 428.567 211.471 428.37 211.224 428.123C210.979 427.872 210.786 427.581 210.643 427.249C210.499 426.917 210.428 426.562 210.428 426.185C210.428 425.807 210.499 425.452 210.643 425.12C210.786 424.785 210.979 424.493 211.224 424.246C211.471 423.995 211.761 423.799 212.093 423.655C212.425 423.509 212.78 423.436 213.157 423.436H214.695C214.946 423.436 215.188 423.468 215.423 423.533C215.657 423.598 215.875 423.691 216.077 423.812C216.279 423.932 216.463 424.077 216.629 424.246C216.795 424.412 216.937 424.598 217.054 424.803C217.171 425.005 217.262 425.223 217.327 425.457C217.392 425.691 217.425 425.934 217.425 426.185ZM216.429 426.185C216.429 425.944 216.383 425.717 216.292 425.506C216.201 425.294 216.077 425.11 215.921 424.954C215.765 424.795 215.581 424.669 215.369 424.578C215.161 424.484 214.936 424.435 214.695 424.432H213.157C212.916 424.435 212.69 424.484 212.479 424.578C212.27 424.669 212.088 424.795 211.932 424.954C211.775 425.11 211.652 425.294 211.561 425.506C211.473 425.717 211.429 425.944 211.429 426.185C211.429 426.425 211.473 426.652 211.561 426.863C211.652 427.075 211.775 427.26 211.932 427.42C212.088 427.576 212.27 427.701 212.479 427.796C212.69 427.887 212.916 427.933 213.157 427.933H214.695C214.936 427.933 215.161 427.887 215.369 427.796C215.581 427.701 215.765 427.576 215.921 427.42C216.077 427.26 216.201 427.075 216.292 426.863C216.383 426.652 216.429 426.425 216.429 426.185Z" fill="#CB2027"/>
<path d="M224.651 428.934H223.65V424.432H220.901C220.66 424.432 220.434 424.479 220.223 424.573C220.014 424.664 219.832 424.79 219.676 424.949C219.52 425.105 219.396 425.291 219.305 425.506C219.217 425.717 219.173 425.944 219.173 426.185C219.173 426.425 219.217 426.652 219.305 426.863C219.396 427.072 219.52 427.256 219.676 427.415C219.832 427.571 220.014 427.697 220.223 427.791C220.434 427.882 220.66 427.929 220.901 427.933H223.152V428.934H220.901C220.524 428.934 220.169 428.862 219.837 428.719C219.505 428.572 219.215 428.375 218.968 428.128C218.724 427.877 218.53 427.586 218.387 427.254C218.243 426.919 218.172 426.562 218.172 426.185C218.172 425.807 218.243 425.452 218.387 425.12C218.53 424.788 218.724 424.498 218.968 424.251C219.215 424 219.505 423.803 219.837 423.66C220.169 423.514 220.524 423.439 220.901 423.436H223.65V421.434H224.651V428.934Z" fill="#CB2027"/>
<path d="M232.488 425.184C232.488 425.428 232.443 425.656 232.352 425.867C232.26 426.079 232.135 426.264 231.976 426.424C231.819 426.58 231.634 426.704 231.419 426.795C231.207 426.886 230.981 426.932 230.74 426.932H226.907C226.979 427.078 227.068 427.213 227.176 427.337C227.283 427.461 227.404 427.566 227.537 427.654C227.671 427.742 227.815 427.811 227.972 427.859C228.131 427.908 228.297 427.933 228.47 427.933H231.741V428.934H228.47C228.092 428.93 227.737 428.857 227.405 428.714C227.073 428.567 226.784 428.37 226.536 428.123C226.292 427.872 226.098 427.581 225.955 427.249C225.812 426.917 225.74 426.562 225.74 426.185C225.74 425.807 225.812 425.452 225.955 425.12C226.098 424.788 226.292 424.498 226.536 424.251C226.784 424 227.073 423.803 227.405 423.66C227.737 423.514 228.092 423.439 228.47 423.436H230.74C230.981 423.436 231.207 423.481 231.419 423.572C231.634 423.663 231.819 423.789 231.976 423.948C232.135 424.104 232.26 424.288 232.352 424.5C232.443 424.712 232.488 424.939 232.488 425.184ZM230.74 425.936C230.841 425.936 230.937 425.916 231.028 425.877C231.119 425.838 231.199 425.784 231.268 425.716C231.336 425.647 231.39 425.568 231.429 425.477C231.468 425.385 231.487 425.288 231.487 425.184C231.487 425.083 231.468 424.987 231.429 424.896C231.39 424.804 231.336 424.725 231.268 424.656C231.199 424.588 231.119 424.534 231.028 424.495C230.937 424.453 230.841 424.432 230.74 424.432H228.47C228.248 424.432 228.04 424.471 227.845 424.549C227.653 424.627 227.48 424.734 227.327 424.871C227.177 425.005 227.052 425.164 226.951 425.35C226.854 425.532 226.79 425.727 226.761 425.936H230.74Z" fill="#CB2027"/>
</svg>
