<svg width="30" height="30" viewBox="0 0 30 30" fill="none" xmlns="http://www.w3.org/2000/svg">
<rect width="30" height="30" rx="8" fill="#686868"/>
<path d="M23.3289 23.3347L23.3331 23.334V17.2215C23.3331 14.2312 22.6893 11.9277 19.1935 11.9277C17.5129 11.9277 16.3851 12.85 15.9247 13.7243H15.8761V12.2069H12.5615V23.334H16.0129V17.8243C16.0129 16.3736 16.2879 14.9708 18.0845 14.9708C19.8546 14.9708 19.881 16.6263 19.881 17.9173V23.3347H23.3289Z" fill="white"/>
<path d="M6.94141 12.207H10.397V23.3341H6.94141V12.207Z" fill="white"/>
<path d="M8.66838 6.66602C7.56352 6.66602 6.66699 7.56254 6.66699 8.66741C6.66699 9.77227 7.56352 10.6875 8.66838 10.6875C9.77324 10.6875 10.6698 9.77227 10.6698 8.66741C10.6691 7.56254 9.77255 6.66602 8.66838 6.66602Z" fill="white"/>
</svg>
