<svg width="32" height="32" viewBox="0 0 32 32" fill="none" xmlns="http://www.w3.org/2000/svg">
<rect width="32" height="32" rx="8" fill="#25316D"/>
<path d="M24.3289 24.3347L24.3331 24.334V18.2215C24.3331 15.2312 23.6893 12.9277 20.1935 12.9277C18.5129 12.9277 17.3851 13.85 16.9247 14.7243H16.8761V13.2069H13.5615V24.334H17.0129V18.8243C17.0129 17.3736 17.2879 15.9708 19.0845 15.9708C20.8546 15.9708 20.881 17.6263 20.881 18.9173V24.3347H24.3289Z" fill="white"/>
<path d="M7.94189 13.207H11.3974V24.3341H7.94189V13.207Z" fill="white"/>
<path d="M9.66838 7.66602C8.56352 7.66602 7.66699 8.56254 7.66699 9.66741C7.66699 10.7723 8.56352 11.6875 9.66838 11.6875C10.7732 11.6875 11.6698 10.7723 11.6698 9.66741C11.6691 8.56254 10.7726 7.66602 9.66838 7.66602Z" fill="white"/>
</svg>
