<svg width="32" height="32" viewBox="0 0 32 32" fill="none" xmlns="http://www.w3.org/2000/svg">
<rect x="0.5" y="0.5" width="31" height="31" rx="7.5" fill="#E2EEFF"/>
<mask id="mask0_692_4040" style="mask-type:alpha" maskUnits="userSpaceOnUse" x="6" y="6" width="20" height="20">
<rect x="6" y="6" width="20" height="20" fill="#D9D9D9"/>
</mask>
<g mask="url(#mask0_692_4040)">
<path d="M15.9997 16.0033C16.458 16.0033 16.8504 15.8401 17.1768 15.5137C17.5031 15.1873 17.6663 14.7949 17.6663 14.3366C17.6663 13.8783 17.5031 13.4859 17.1768 13.1595C16.8504 12.8331 16.458 12.6699 15.9997 12.6699C15.5413 12.6699 15.149 12.8331 14.8226 13.1595C14.4962 13.4859 14.333 13.8783 14.333 14.3366C14.333 14.7949 14.4962 15.1873 14.8226 15.5137C15.149 15.8401 15.5413 16.0033 15.9997 16.0033ZM15.9997 22.1283C17.6941 20.5727 18.9511 19.1595 19.7705 17.8887C20.59 16.6178 20.9997 15.4894 20.9997 14.5033C20.9997 12.9894 20.517 11.7498 19.5518 10.7845C18.5865 9.81923 17.4025 9.33659 15.9997 9.33659C14.5969 9.33659 13.4129 9.81923 12.4476 10.7845C11.4823 11.7498 10.9997 12.9894 10.9997 14.5033C10.9997 15.4894 11.4094 16.6178 12.2288 17.8887C13.0483 19.1595 14.3052 20.5727 15.9997 22.1283ZM15.9997 24.0241C15.8886 24.0241 15.7775 24.0033 15.6663 23.9616C15.5552 23.9199 15.458 23.8644 15.3747 23.7949C13.3469 22.0033 11.833 20.3401 10.833 18.8053C9.83301 17.2706 9.33301 15.8366 9.33301 14.5033C9.33301 12.4199 10.0031 10.7602 11.3434 9.52409C12.6837 8.28798 14.2358 7.66992 15.9997 7.66992C17.7636 7.66992 19.3156 8.28798 20.6559 9.52409C21.9962 10.7602 22.6663 12.4199 22.6663 14.5033C22.6663 15.8366 22.1663 17.2706 21.1663 18.8053C20.1663 20.3401 18.6525 22.0033 16.6247 23.7949C16.5413 23.8644 16.4441 23.9199 16.333 23.9616C16.2219 24.0033 16.1108 24.0241 15.9997 24.0241Z" fill="#303030"/>
</g>
<rect x="0.5" y="0.5" width="31" height="31" rx="7.5" stroke="#686868"/>
</svg>
