<svg width="588" height="340" viewBox="0 0 588 340" fill="none" xmlns="http://www.w3.org/2000/svg">
<path d="M45 260.103H295" stroke="#25316D" stroke-width="2" stroke-linecap="round" stroke-linejoin="round"/>
<path d="M99.6254 274.609L99.7694 274.504L99.8685 274.356C100.643 273.194 102.04 272.501 103.978 272.287C105.912 272.073 108.248 272.359 110.646 273.019C113.036 273.677 115.434 274.69 117.477 275.882C119.535 277.082 121.164 278.421 122.087 279.697C126.002 285.108 125.294 291.987 120.958 295.152C119.96 295.879 118.343 296.332 116.281 296.446C114.246 296.558 111.897 296.332 109.55 295.819C107.203 295.306 104.893 294.513 102.931 293.511C100.956 292.503 99.4046 291.32 98.4957 290.064C94.581 284.653 95.2887 277.774 99.6254 274.609Z" fill="white" stroke="#25316D" stroke-width="2"/>
<path d="M122.507 293.346C121.254 291.936 118.559 289.115 117.807 289.115" stroke="#25316D" stroke-width="2"/>
<path d="M182.5 279.5C188.5 293 198 321.037 174 318.5C160.507 317.074 163.795 308.54 167 306.5C172.5 303 174.854 305.358 177 309C180.626 315.153 174.775 323.065 160.5 320.5C137.504 316.368 148 311.5 138.5 304C135.34 301.505 127.761 299.64 123.5 297.5" stroke="#303030" stroke-width="2" stroke-linecap="round"/>
<path d="M119.633 284.525L119.627 284.528C119.324 284.676 118.945 284.573 118.755 284.277C117.939 282.986 116.578 280.946 114.934 278.904C113.301 276.874 111.339 274.778 109.315 273.433L108.168 275.052C108.159 275.064 108.159 275.064 108.159 275.064L108.159 275.064L108.161 275.065L108.174 275.075C108.187 275.086 108.208 275.102 108.236 275.124C108.292 275.169 108.377 275.238 108.484 275.33C108.699 275.513 109.004 275.785 109.354 276.135C110.058 276.838 110.922 277.831 111.606 279.016C112.291 280.203 112.769 281.537 112.767 282.941C112.766 284.314 112.306 285.835 110.977 287.438C110.202 288.206 108.928 288.531 108.356 288.665L108.242 288.692L108.137 288.745L108.136 288.745L108.136 288.745L108.135 288.746L108.126 288.75L108.088 288.769C108.075 288.775 108.059 288.783 108.041 288.792C108.012 288.806 107.977 288.822 107.937 288.842C107.804 288.905 107.612 288.996 107.375 289.102C106.9 289.316 106.254 289.591 105.563 289.842C104.867 290.095 104.154 290.312 103.539 290.423C102.869 290.543 102.523 290.496 102.414 290.446L101.795 290.158L101.306 290.625L101.306 290.626L101.305 290.626C101.305 290.627 101.304 290.628 101.303 290.628C101.301 290.631 101.297 290.634 101.291 290.639C101.287 290.643 101.282 290.647 101.276 290.653C101.248 290.677 101.202 290.714 101.141 290.761C101.018 290.854 100.839 290.977 100.62 291.089C100.178 291.316 99.6602 291.46 99.1352 291.352C99.1332 291.348 99.035 291.302 98.8321 291.113C98.6096 290.905 98.3436 290.604 98.0444 290.221C97.448 289.456 96.7888 288.453 96.1669 287.437C95.5481 286.425 94.9797 285.424 94.5652 284.673C94.3582 284.298 94.1902 283.988 94.0743 283.771C94.0163 283.662 93.9714 283.578 93.9411 283.52L93.9069 283.455L93.8984 283.439L93.8964 283.435L93.896 283.434L93.8959 283.434L93.8959 283.434L93.7314 283.119L93.4051 282.978L93.405 282.978L93.4049 282.978L93.4042 282.978L93.3995 282.976L93.3782 282.967C93.3588 282.958 93.3291 282.945 93.2899 282.928C93.2114 282.893 93.0946 282.84 92.9448 282.771C92.6452 282.632 92.2143 282.428 91.6948 282.165C90.6536 281.64 89.2661 280.889 87.8692 279.982C86.4664 279.071 85.0877 278.025 84.0413 276.916C82.9836 275.795 82.3676 274.718 82.2723 273.74L82.2714 273.724C82.2703 273.704 82.2687 273.671 82.2672 273.626C82.2643 273.537 82.2618 273.4 82.2645 273.222C82.2698 272.867 82.2958 272.353 82.3796 271.736C82.5477 270.499 82.9444 268.88 83.8473 267.307C84.744 265.745 86.147 264.213 88.3653 263.131C90.5556 262.062 93.5988 261.403 97.8331 261.649C97.8399 261.653 97.8469 261.656 97.854 261.66C97.9895 261.732 98.1906 261.839 98.449 261.981C98.966 262.265 99.7119 262.688 100.62 263.236C102.438 264.333 104.899 265.932 107.474 267.936C112.666 271.976 118.145 277.53 119.944 283.82C120.016 284.075 119.906 284.372 119.633 284.525Z" fill="white" stroke="#25316D" stroke-width="2"/>
<path fill-rule="evenodd" clip-rule="evenodd" d="M106.204 148.524C141.83 177.116 100.466 224.121 100.466 224.121C100.466 224.121 101.248 229.823 99.0556 232.111C91.4996 240 104.696 260.314 104.696 260.314C104.696 260.314 89.3337 270.044 84.9542 279.116C84.7458 279.548 83.544 280.526 83.0737 280.526C83.0737 280.526 74.5894 266.538 72.733 260.314C64.7422 233.521 65.2119 216.13 65.2119 216.13C71.3225 202.028 74.6365 193.397 81.1938 178.996C87.1594 165.885 98.3247 157.601 106.204 148.524Z" fill="#58B9FD"/>
<path fill-rule="evenodd" clip-rule="evenodd" d="M241.204 25.5007C239.215 25.5007 237.601 27.1037 237.601 29.112C237.601 31.1008 239.215 32.7228 241.204 32.7228C243.189 32.7228 244.802 31.1008 244.802 29.112C244.803 28.6373 244.711 28.1671 244.53 27.7285C244.349 27.2898 244.084 26.8913 243.75 26.5558C243.416 26.2202 243.019 25.9543 242.582 25.7733C242.145 25.5922 241.676 25.4996 241.204 25.5007ZM241.204 26.698C242.527 26.698 243.603 27.7795 243.603 29.112C243.603 30.4441 242.527 31.5256 241.204 31.5256C239.88 31.5256 238.805 30.4441 238.805 29.112C238.805 27.7795 239.88 26.698 241.204 26.698Z" fill="#25316D"/>
<path fill-rule="evenodd" clip-rule="evenodd" d="M155.525 122.828C155.525 122.828 160.448 118.767 162.935 119.425L163.115 122.663C163.115 122.663 170.491 127.767 180.513 127.932C190.54 128.152 198.299 123.322 199.954 119.425C199.954 119.425 205.85 120.741 206.09 124.693C206.09 124.693 237.237 134.295 245.114 139.676C252.988 144.996 257.049 148.509 258.848 157.73C260.64 166.893 267.13 196.525 268.61 220.341C252.764 215.29 239.652 215.183 223.457 215.183C185.123 169.685 158.64 224.872 123.413 259.58C123.413 259.58 134.5 195.357 130.571 195.85C126.648 196.289 72.6827 217.267 72.6827 217.267C72.6827 217.267 71.7484 202.439 72.6827 198.268C73.617 194.097 91.8512 149.167 96.0204 143.077C100.19 136.93 107.566 132.046 120.702 129.303C133.843 126.561 155.525 122.828 155.525 122.828Z" fill="#58B9FD"/>
<path d="M85.5001 167C87.5001 163.5 88.3418 160.193 89.5001 157C90.9674 152.9 93.1632 146.877 96.0005 143.5" stroke="#25316D" stroke-width="2" stroke-miterlimit="1.5" stroke-linecap="round" stroke-linejoin="round"/>
<path d="M131.86 174.749C134.899 189.083 134.443 205.364 129.774 219.305M141.363 172.735C143.245 179.165 143.5 185.841 143.477 192.502C143.485 201.041 142.676 209.701 139.767 217.795" stroke="#25316D" stroke-width="2" stroke-miterlimit="1.5" stroke-linecap="round" stroke-linejoin="round"/>
<path d="M155.795 126.874C158.516 131.099 163.177 133.68 167.734 135.436C178.974 139.716 194.76 139.223 202.815 129.124M199.875 119.411C200.547 119.411 201.224 119.521 201.869 119.686C204.164 120.453 205.328 122.321 205.896 124.513M149.528 128.191C151.277 130.606 153.184 133.075 155.402 135.051C158.309 137.632 161.839 139.55 165.478 140.868" stroke="#25316D" stroke-width="2" stroke-miterlimit="1.5" stroke-linecap="round" stroke-linejoin="round"/>
<path d="M162.92 119.77C160.445 119.825 157.27 120.922 155.932 123.171" stroke="#25316D" stroke-width="2" stroke-miterlimit="1.5" stroke-linecap="round" stroke-linejoin="round"/>
<path d="M68.9724 218.01C70.8525 226.471 81.1916 226.505 85.4241 228.351C90.0472 230.402 95.887 222.029 100 225M75.553 267.366C80.7235 257.965 84.3939 254.691 97.1752 253.264" stroke="#25316D" stroke-width="2" stroke-miterlimit="1.5" stroke-linecap="round" stroke-linejoin="round"/>
<path d="M199.46 100.597L161.636 91.1965L162.576 122.22C162.576 122.22 173.585 127.956 181.378 127.86C189.605 127.759 199.46 122.491 199.46 122.491L199.46 100.597Z" fill="white"/>
<path d="M148 71C152 83 155 82.5 156.5 80.4324C158.132 84.897 160.027 89.3876 162 93.0001C163.5 95.7466 179.5 106 189.074 110.434C200.415 103.811 205.5 97.0001 208 94.5001C208 92.7505 208.75 87.5816 209.5 80.4324C209.5 77.7562 215.5 80.4324 215.5 68C215.706 65.7112 213 60.5 210.815 64.5C210.932 62.6101 211 60.9068 211 59.5001C230.5 34.5001 208.5 28.5001 201 27.0001C200 16.5001 177.5 23.0001 170.5 30.0001C166.374 32.0976 162.381 38.5729 159.5 42.0001C155 42.5 153.189 45.9753 151.5 50C151.5 51.5 153.037 60.3109 154 64.5C147.5 61 146.839 68.9413 148 71Z" fill="white"/>
<path d="M190.923 66.9642C190.902 70.3118 191.29 73.5489 192.448 76.6766C192.732 77.4997 193.038 78.2685 193.426 78.9823C193.453 79.037 193.82 79.6402 193.803 79.6402C193.552 79.9695 192.35 80.9999 192 80.9999C190.509 81.1097 188.899 80.9937 187.5 80.4999M181.946 64.221C179.094 62.6294 175.668 62.6294 172.952 64.4952M206.311 65.373C203.256 63.7268 200.022 63.6717 196.814 64.8242M195.5 90.5C190 92.5 184.416 90.7253 181.044 88.311M163.111 64.8249C163.739 71.0806 158.47 64.2443 159 70.5M171.87 55.9904C170.236 59.9412 166.821 62.7402 162.876 64.167" stroke="#25316D" stroke-width="2" stroke-miterlimit="1.5" stroke-linecap="round" stroke-linejoin="round"/>
<path d="M159.406 72.8922C159.406 72.8922 160.93 87.7625 161.329 91.7133C161.392 92.3124 161.654 92.8729 162.072 93.3052C168.58 100.329 176.476 105.103 185.71 107.792C186.327 107.957 186.989 107.957 187.59 107.738C194.556 105.104 201.217 101.097 207.518 95.4453C208.053 94.9515 208.386 94.2928 208.447 93.5795C208.949 87.5433 211.293 59.283 211.293 59.283" stroke="#25316D" stroke-width="2" stroke-miterlimit="1.5" stroke-linecap="round" stroke-linejoin="round"/>
<path d="M199.64 101.591L199.104 122.336C199.104 122.336 180.144 134.296 163.767 122.336M162.106 94.019L162.412 118.822" stroke="#25316D" stroke-width="2" stroke-miterlimit="1.5" stroke-linecap="round" stroke-linejoin="round"/>
<path d="M202.601 72.3246C202.382 72.3278 202.164 72.2872 201.961 72.2051C201.757 72.123 201.572 72.001 201.415 71.8464C201.259 71.6917 201.135 71.5074 201.05 71.3042C200.966 71.1009 200.922 70.8828 200.922 70.6624C200.922 70.4421 200.966 70.224 201.051 70.0208C201.135 69.8175 201.259 69.6332 201.416 69.4786C201.572 69.324 201.757 69.2021 201.961 69.1201C202.165 69.038 202.382 68.9974 202.602 69.0007C203.036 69.0072 203.451 69.1852 203.756 69.4962C204.061 69.8072 204.232 70.2262 204.232 70.6628C204.232 71.0994 204.061 71.5184 203.756 71.8294C203.451 72.1403 203.036 72.3182 202.601 72.3246ZM179.656 72.3246C179.217 72.3246 178.796 72.1494 178.485 71.8377C178.175 71.526 178 71.1031 178 70.6623C178 70.2214 178.175 69.7986 178.485 69.4869C178.796 69.1751 179.217 69 179.656 69C180.09 69.0064 180.505 69.1844 180.81 69.4954C181.115 69.8065 181.287 70.2256 181.287 70.6623C181.287 71.0989 181.115 71.5181 180.81 71.8291C180.505 72.1402 180.09 72.3181 179.656 72.3246Z" fill="#25316D"/>
<path fill-rule="evenodd" clip-rule="evenodd" d="M166.371 98.642C166.371 98.642 176.693 111.866 186.179 112.579C194.255 113.238 199.287 106.817 199.287 106.817V101.989C199.287 101.989 187.987 108.409 186.179 107.915C184.376 107.366 166.371 98.642 166.371 98.642Z" fill="#25316D"/>
<path d="M176.029 53.9561C180.817 56.8759 185.851 59.5813 191.583 59.8315C194.238 59.9455 197.489 59.0883 197.978 55.9988M213.428 51.9473C213.743 52.6517 214.024 53.3977 214.128 54.1788C214.618 58.0106 210.808 59.3112 207.661 59.1378C202.592 58.8579 197.978 55.8849 194.799 52.038M215.839 50.7061C216.783 49.6321 217.657 48.4397 218.181 47.1179C221.643 38.4982 213.463 30.9559 206.054 28.522C202.977 27.5107 198.574 26.7159 195.567 28.3721C193.401 29.5506 196.51 32.0264 198.085 31.8347C200.601 31.5208 201.371 28.2849 200.635 26.2449C200.042 24.6828 198.713 23.6752 197.211 23.0231C194.275 21.7504 191.198 21.8478 188.086 22.3361C181.55 23.3683 175.294 26.7124 170.121 30.698C168.059 32.2811 165.822 33.9512 164.319 36.1061M160.614 41.9154C159.601 42.0061 158.587 42.2256 157.644 42.5952C150.722 45.2838 152.5 55 153.5 60.5M160.125 88.5001C159.877 87.7694 159.615 84.2195 157.644 79.5C157.147 78.3106 154 86.5 149 75C144.5 59.8315 153.5 63.5 154.5 65M161.208 32.9084C160.823 34.2752 160.579 35.6109 160.544 37.03C160.544 37.4205 160.544 37.8146 160.579 38.2051C160.579 38.2435 160.649 38.5435 160.614 38.5678C160.579 38.5958 160.159 38.4038 160.125 38.3864C159.563 38.1981 159.039 37.9994 158.481 37.8112C156.419 37.0929 154.182 36.4267 151.979 36.3673" stroke="#25316D" stroke-width="2" stroke-miterlimit="1.5" stroke-linecap="round" stroke-linejoin="round"/>
<path d="M153 72C154.066 73.6166 154.247 74.1565 155.239 75.8189" stroke="#25316D" stroke-width="2" stroke-miterlimit="1.5" stroke-linecap="round" stroke-linejoin="round"/>
<path d="M210.012 71.2369C210 69.9362 210.025 68.6358 210.151 67.3592C210.468 64.3245 211.898 61.6751 213.531 63.7224C213.809 64.0596 214.05 64.4929 214.252 64.9746C215.822 68.8283 214.72 74.4885 212.797 77.0417C212 78.1014 210.962 78.9203 210 79.2576" stroke="#25316D" stroke-width="2" stroke-miterlimit="1.5" stroke-linecap="round" stroke-linejoin="round"/>
<path d="M299.5 167C298.3 167.4 292.667 175.167 290 179L280.5 188L299 196.5L305.5 186.5C307.5 187.333 312 189.1 314 189.5C316.5 190 323 192 328.5 189.5C334 187 333.5 181 334 179.5C334.5 178 332.5 177.5 326 177.5C319.5 177.5 315 174.5 316 173.5C317 172.5 319 168.5 321 166.5C323 164.5 321.5 162 320.5 161.5C319.5 161 312.5 164.5 311 165.5C309.5 166.5 301 166.5 299.5 167Z" fill="white"/>
<path d="M298.226 169.006C292.119 176.561 286.288 184.403 279.47 191.342C273.095 197.803 265.986 203.651 259.833 210.302M244.796 194.082C244.952 202.6 244.89 211.122 245.108 219.594C245.223 223.97 245.024 229.073 247.134 233.081C250.432 239.325 261.31 243.607 267.535 239.097M305.677 187.019C299.703 194.858 293.022 205.505 287.286 213.585C281.573 221.614 276.156 227.268 270.758 235.537M299.375 167.201C301.899 166.204 304.498 166.11 307.164 165.73C308.97 165.54 310.743 165.063 312.478 164.539C314.207 164.019 315.809 163.208 317.453 162.451C318.351 162.07 319.449 161.5 320.456 161.5C321.545 161.547 321.792 162.924 321.683 163.732C321.435 165.586 320.119 167.248 318.66 168.342M312.259 171.381C314.141 172.571 315.809 174.043 317.657 175.28C318.394 175.804 319.188 176.468 320.057 176.705C321.512 177.085 323.104 177.135 324.605 177.135C325.598 177.135 332.536 177.644 333.178 178.498C334.803 180.78 332.964 184.059 331.686 186.054C330.545 187.765 329.043 189.383 327 190C322 192.5 309.194 187.589 305.321 186.495" stroke="#25316D" stroke-width="2" stroke-miterlimit="1.5" stroke-linecap="round" stroke-linejoin="round"/>
<path fill-rule="evenodd" clip-rule="evenodd" d="M233.5 236.5C233.5 236.5 258.5 250 265 249C277.034 247.148 298.5 210 303.5 198.5C315.5 187 286.596 184.137 290.5 174.5C294.404 164.867 256 211.5 256 203.5C256 203.5 255.33 194.93 255 192C253.373 177.556 259.428 148.563 246 143C238.769 140.004 232.275 149.243 232.275 149.243L227.678 144.918C227.678 144.918 225.832 141.265 221.525 137.057C215.949 150.401 211.198 171.179 212.467 202.578L218.5 215C218.79 215.233 232.517 235.575 233.5 236.5Z" fill="#58B9FD"/>
<path d="M271.56 192.137C265.006 198.223 258.919 206.063 255.194 213.792" stroke="#25316D" stroke-width="2" stroke-miterlimit="1.5" stroke-linecap="round" stroke-linejoin="round"/>
<path d="M221.572 183C222.696 185.846 223.494 188.81 224.559 191.63C226.331 196.283 228.323 200.87 230.106 205.517" stroke="#25316D" stroke-width="2" stroke-miterlimit="1.5" stroke-linecap="round" stroke-linejoin="round"/>
<path d="M330 180.084C326.293 180.511 322.13 180.654 318.666 179.037C317.121 178.326 315.871 177.185 314.507 176.188M329.064 183.316C327.282 183.506 325.495 183.503 323.708 183.503C322.297 183.553 320.861 183.6 319.507 183.173C317.264 182.412 315.301 180.795 313.467 179.323M327.03 186.879C323.318 187.163 320.077 186.972 316.603 185.548C315.007 184.931 313.591 183.98 312.065 183.173M318.5 168.5C318.5 168.5 317.85 169.154 317.5 169.627C316.642 170.785 315.773 172.143 314.5 173" stroke="#25316D" stroke-width="2" stroke-miterlimit="1.5" stroke-linecap="round" stroke-linejoin="round"/>
<path d="M259 158.5C258 153 253.125 145.987 248.499 142.5C242.588 138.005 235.128 134.679 228 132.432" stroke="#25316D" stroke-width="2" stroke-miterlimit="1.5" stroke-linecap="round" stroke-linejoin="round"/>
<path d="M205.2 283.488L205.2 283.488L205.206 283.5C205.395 283.885 205.352 284.349 205.076 284.711C205.075 284.712 205.075 284.713 205.074 284.713L197.094 295.019H166.97L166.866 294.889L166.223 294.078C165.678 293.392 164.92 292.436 164.068 291.364C162.365 289.218 160.287 286.601 158.788 284.718L158.785 284.714C158.52 284.384 158.458 283.908 158.653 283.492C158.748 283.298 158.894 283.135 159.075 283.021C159.257 282.906 159.467 282.845 159.681 282.843C159.682 282.843 159.683 282.843 159.683 282.843L204.181 282.843H204.183C204.395 282.843 204.603 282.903 204.783 283.017C204.963 283.131 205.108 283.294 205.2 283.488ZM262.569 193.025L262.568 193.027C259.999 207.635 251.517 255.874 249.323 268.361C249.105 269.597 248.033 270.495 246.787 270.495H117.441C116.212 270.495 115.146 269.613 114.91 268.388C113.759 262.364 110.984 247.856 108.113 232.85C105.082 217.005 101.944 200.605 100.501 193.052L100.501 193.051C100.358 192.307 100.553 191.528 101.047 190.917C101.541 190.325 102.272 189.977 103.032 189.977L260.032 189.977L260.033 189.977C260.409 189.976 260.779 190.058 261.12 190.217C261.46 190.377 261.762 190.609 262.003 190.899L262.004 190.9C262.495 191.489 262.702 192.274 262.569 193.025Z" fill="white" stroke="#25316D" stroke-width="2"/>
<path d="M182.091 227.496C190.24 227.496 196.858 234.136 196.858 242.323V295.024H167.323V242.323C167.323 234.136 173.939 227.496 182.091 227.496Z" fill="white" stroke="#25316D" stroke-width="2"/>
<path fill-rule="evenodd" clip-rule="evenodd" d="M188.87 242.265C188.87 238.504 185.834 235.457 182.091 235.457C178.348 235.457 175.314 238.504 175.314 242.265V254.44C175.314 258.194 178.348 261.24 182.091 261.24C185.834 261.24 188.87 258.194 188.87 254.44V242.265Z" fill="#58B9FD"/>
<path d="M120 267.011L106.463 197.382C106.223 196.147 107.169 195 108.426 195H225" stroke="#25316D" stroke-width="2"/>
<path d="M225.332 249.983C225.692 249.983 225.986 250.274 225.986 250.639V256.876C225.986 257.242 225.692 257.533 225.332 257.533H222.875C222.511 257.533 222.221 257.242 222.221 256.876V250.639C222.221 250.274 222.511 249.983 222.875 249.983H225.332Z" fill="#686868"/>
<path d="M234.646 249.983C235.005 249.983 235.3 250.274 235.3 250.639V256.876C235.3 257.242 235.005 257.533 234.646 257.533H232.188C231.825 257.533 231.535 257.242 231.535 256.876V250.639C231.535 250.274 231.825 249.983 232.188 249.983H234.646Z" fill="#686868"/>
<path d="M333 302.5L342.5 273H311.5L320 302.5H333Z" fill="white"/>
<ellipse cx="317.827" cy="233.656" rx="3" ry="6" transform="rotate(33.7315 317.827 233.656)" fill="white"/>
<ellipse cx="313.628" cy="243.974" rx="2.42473" ry="7.05333" transform="rotate(0.432451 313.628 243.974)" fill="white"/>
<ellipse cx="307.516" cy="239.646" rx="2.38373" ry="5.42507" transform="rotate(87.7015 307.516 239.646)" fill="white"/>
<ellipse cx="310.725" cy="231.899" rx="2.38373" ry="5.42507" transform="rotate(150.829 310.725 231.899)" fill="white"/>
<ellipse cx="320.635" cy="240.912" rx="2.38373" ry="5.42507" transform="rotate(95.715 320.635 240.912)" fill="white"/>
<ellipse cx="338.841" cy="242.53" rx="2.49264" ry="4.98528" transform="rotate(33.7315 338.841 242.53)" fill="white"/>
<ellipse cx="331.124" cy="250.401" rx="2.49264" ry="5.66761" transform="rotate(57.827 331.124 250.401)" fill="white"/>
<ellipse cx="337.152" cy="253.553" rx="2.49264" ry="4.98528" transform="rotate(-21.5878 337.152 253.553)" fill="white"/>
<ellipse cx="332.7" cy="244.153" rx="2.02322" ry="4.98528" transform="rotate(-38.7913 332.7 244.153)" fill="white"/>
<ellipse cx="341.25" cy="248.308" rx="1.68776" ry="4.15869" transform="rotate(-101.964 341.25 248.308)" fill="white"/>
<path d="M341.846 272.644L332.209 304.218H327.304L336.792 272.644H341.846Z" fill="#DAE8F1"/>
<path d="M311.778 241.47C311.084 244.241 311.128 247.107 311.824 249.88C311.99 250.556 312.172 251.204 312.417 251.85C312.439 251.88 312.623 252.406 312.649 252.375C313.728 252.036 314.37 250.742 314.759 249.788C315.757 247.323 316.127 244.211 315.911 241.562M332.734 247.779C330.611 248.518 328.746 249.786 327.223 251.44C326.848 251.841 326.5 252.242 326.181 252.682C326.17 252.708 325.905 253.056 325.936 253.06C326.625 253.625 327.755 253.487 328.549 253.332C330.602 252.924 332.809 251.823 334.459 250.536M315.76 241.437C319.111 242.978 323.191 244.581 326.732 242.578M334.474 250.385C334.908 253.255 335.617 256.63 338.462 258.095M316.324 238.296C320.159 237.557 323.977 237.803 326.29 241.315M336.786 249.398C338.929 251.602 340.415 254.22 339.104 257.258" stroke="#25316D" stroke-width="2" stroke-miterlimit="1.5" stroke-linecap="round" stroke-linejoin="round"/>
<path d="M320.2 272.613H311.233L320.2 302.368H328.945M322.715 272.613H341.986L338.812 283.148M337.808 286.475L333.02 302.368M315.05 241.685C320.432 250.587 322.834 260.877 324.232 271.042M334.124 251.574C330.584 257.611 328.282 264.265 328.945 271.166M313.809 236.911C313.351 237.096 312.92 237.342 312.598 237.712C312.366 237.989 312.2 238.297 312.115 238.636C311.883 239.56 312.366 240.516 313.192 240.947C314.102 241.44 315.372 241.1 315.72 240.085C315.825 239.807 315.84 239.468 315.823 239.16C315.801 238.79 315.744 238.42 315.549 238.112M336.61 247.146C336.293 246.925 335.943 246.748 335.562 246.695C335.279 246.662 335.004 246.686 334.745 246.776C334.036 247.023 333.618 247.752 333.69 248.483C333.758 249.295 334.529 249.983 335.349 249.773C335.575 249.722 335.807 249.586 336.002 249.442C336.234 249.267 336.453 249.07 336.571 248.809M312.198 237.527C310.189 235.401 308.243 232.783 307.801 229.826C307.693 229.117 307.641 228.409 307.682 227.67C307.687 227.577 307.678 227.146 307.757 227.084C307.967 226.93 308.459 227.023 308.67 227.084C309.403 227.238 310.048 227.67 310.611 228.162C312.728 230.011 313.437 233.06 313.667 235.709M335.511 246.354C336.041 244.112 336.923 241.702 338.679 240.133C339.097 239.756 339.541 239.416 340.045 239.124C340.108 239.087 340.388 238.895 340.463 238.921C340.655 238.992 340.806 239.355 340.857 239.52C341.071 240.069 341.069 240.682 340.986 241.264C340.684 243.455 338.983 245.237 337.339 246.533M312.029 238.112C309.379 237.034 306.754 236.972 304.158 238.235C303.552 238.513 302.976 238.854 302.44 239.251C302.374 239.313 301.994 239.56 302 239.621C302.059 240.483 303.414 241.039 304.073 241.254C306.266 241.963 308.882 241.777 311.079 241.131M335.052 246.494C334.616 244.283 333.524 242.53 331.574 241.367C331.129 241.092 330.657 240.855 330.162 240.678C330.094 240.66 329.766 240.516 329.728 240.547C329.186 240.958 329.407 242.09 329.549 242.615C330.031 244.364 331.283 246.006 332.655 247.172M314.595 236.663C314.709 235.277 315.002 233.983 315.567 232.72C315.737 232.32 315.926 231.95 316.142 231.611C316.335 231.273 316.545 230.995 316.766 230.687C317.28 230.01 317.893 229.393 318.554 228.839C319.178 228.346 319.699 227.792 320.384 228.531C320.502 228.654 320.597 228.808 320.684 228.931C320.811 229.178 320.905 229.393 320.973 229.64C321.08 230.04 321.118 230.441 321.115 230.841C321.111 231.488 321.021 232.104 320.864 232.69C320.349 234.692 318.981 236.386 317.51 237.772M337.111 247.555C338.075 247.032 339.051 246.667 340.128 246.494C340.465 246.432 340.789 246.397 341.106 246.393C341.41 246.373 341.684 246.391 341.982 246.404C342.649 246.45 343.321 246.588 343.971 246.783C344.565 246.982 345.156 247.085 344.963 247.853C344.934 247.984 344.873 248.113 344.829 248.223C344.722 248.413 344.621 248.569 344.488 248.72C344.271 248.963 344.024 249.16 343.759 249.333C343.347 249.599 342.901 249.812 342.435 249.965C340.894 250.49 339.189 250.322 337.643 249.954" stroke="#25316D" stroke-width="2" stroke-miterlimit="1.5" stroke-linecap="round" stroke-linejoin="round"/>
<path d="M374.933 142.689C378.349 126.746 376.356 109.475 374.933 102.832H400.555C407.673 102.832 410.52 102.832 419.061 99.9851C427.601 97.1382 426.178 102.832 436.142 102.832H453.224C458.918 102.832 471.729 100.934 477.423 99.9851V211.016H503.045V226.674C503.045 234.646 495.454 239.485 491.658 240.909C464.137 240.434 405.111 239.77 389.168 240.909C369.239 242.332 372.086 226.674 372.086 223.827C372.086 220.98 370.662 162.618 374.933 142.689Z" fill="white"/>
<path d="M435.043 148.99H427.638M393.377 148.99H404.826M416.586 148.99H424.48" stroke="#25316D" stroke-width="2" stroke-linecap="round"/>
<path d="M454.462 165.465H439.795M393.377 165.465H410.52M430.449 165.465H419.902" stroke="#25316D" stroke-width="2" stroke-linecap="round"/>
<path d="M454.499 184.039L438.989 184.039M393.377 184.039H404.113M429.375 184.039L414.79 184.039" stroke="#25316D" stroke-width="2" stroke-linecap="round"/>
<path d="M394.642 128.455V132.875L401.221 128.455L403.326 132.875L407.799 128.455L409.416 132.875L414.378 128.455L415.19 132.875M426.098 132.875L426.091 128.455L431.872 132.875L432.669 128.455" stroke="#25316D" stroke-width="2" stroke-linecap="round" stroke-linejoin="round"/>
<path d="M503.394 211.715H400.555" stroke="#25316D" stroke-width="2" stroke-linecap="round"/>
<path d="M492.007 239.486H389.168" stroke="#25316D" stroke-width="2" stroke-linecap="round"/>
<path d="M372.086 211.016V225.251C372.086 233.112 378.459 239.485 386.321 239.485C394.182 239.485 400.555 233.112 400.555 225.251V211.016" stroke="#25316D" stroke-width="2"/>
<path d="M488.81 239.485C496.672 239.485 503.045 233.112 503.045 225.251V211.016" stroke="#25316D" stroke-width="2"/>
<path d="M372.086 211.016C372.446 188.723 376.662 143.935 376.662 129.9C376.662 121.286 372.959 99.9852 372.959 99.9852L379.517 102.511C383.738 104.136 388.412 104.136 392.633 102.511V102.511C396.854 100.885 401.528 100.885 405.749 102.511V102.511C409.97 104.136 414.644 104.136 418.865 102.511V102.511C423.086 100.885 427.76 100.885 431.981 102.511V102.511C436.202 104.136 440.906 104.125 445.127 102.499V102.499C449.309 100.888 453.971 100.877 458.153 102.488V102.488C462.407 104.126 467.123 104.097 471.356 102.407L477.424 99.9852C477.424 126.118 477.424 184.843 477.424 211.016" stroke="#25316D" stroke-width="2"/>
<path d="M468.041 157.331C479.547 157.331 488.874 148.004 488.874 136.499C488.874 124.993 479.547 115.666 468.041 115.666C456.536 115.666 447.209 124.993 447.209 136.499C447.209 148.004 456.536 157.331 468.041 157.331Z" fill="white" stroke="#CB2027" stroke-width="2"/>
<path d="M472.571 121.111C468.131 117.736 460.607 120.163 455.766 126.532C450.924 132.901 450.599 140.8 455.039 144.175C459.479 147.55 449.971 139.551 458.129 128.2C467.706 117.204 477.011 124.487 472.571 121.111Z" fill="#CB2027"/>
<path d="M484.732 153.667L499.8 167.731C501.096 168.94 503.102 168.953 504.414 167.762V167.762C505.885 166.427 505.905 164.122 504.459 162.76L489.975 149.128" stroke="#25316D" stroke-width="2" stroke-linecap="round"/>
</svg>
