<svg width="588" height="340" viewBox="0 0 588 340" fill="none" xmlns="http://www.w3.org/2000/svg">
<line x1="461.49" y1="116.222" x2="461.49" y2="232.379" stroke="#303030" stroke-width="2" stroke-linecap="round" stroke-dasharray="6.46 6.46"/>
<line x1="429.811" y1="116.222" x2="429.811" y2="232.379" stroke="#303030" stroke-width="2" stroke-linecap="round" stroke-dasharray="6.46 6.46"/>
<line x1="492.314" y1="116.222" x2="492.314" y2="232.379" stroke="#303030" stroke-width="2" stroke-linecap="round" stroke-dasharray="6.46 6.46"/>
<path d="M484.179 72.0341L484.531 72.5735L485.167 72.4769C485.712 72.3941 486.269 72.3923 486.913 72.3923C499.978 72.3923 510.491 82.2731 510.491 94.4199C510.491 106.567 499.978 116.448 486.913 116.448C477.386 116.448 470.475 116.064 465.612 115.495L465.426 115.473L465.245 115.52C462.742 116.167 460.159 116.448 457.42 116.448C455.518 116.448 453.676 116.262 451.887 115.98L451.745 115.958L451.603 115.976C447.257 116.542 441.209 116.735 432.876 116.448L432.859 116.448H432.842C419.777 116.448 409.264 106.567 409.264 94.4199C409.264 83.2795 418.234 73.9637 429.87 72.5771L430.334 72.5218L430.59 72.13C436.091 63.685 446.027 58 457.42 58C468.747 58 478.68 63.5931 484.179 72.0341Z" fill="white" stroke="#25316D" stroke-width="2"/>
<path d="M394.561 243.423L410.042 224.399L460.061 229.155L451.724 246.99L394.561 243.423Z" fill="white" stroke="#25316D" stroke-width="2" stroke-linejoin="round"/>
<path d="M402.896 274.461L402.795 275.456C402.285 275.404 401.896 274.974 401.896 274.461H402.896ZM401.896 244.612C401.896 244.06 402.344 243.612 402.896 243.612C403.449 243.612 403.896 244.06 403.896 244.612H401.896ZM401.896 274.461V244.612H403.896V274.461H401.896ZM459.959 281.276L402.795 275.456L402.998 273.466L460.161 279.286L459.959 281.276Z" fill="#25316D"/>
<path d="M525.561 243.423L510.079 224.399L460.061 229.155L468.397 246.99L525.561 243.423Z" fill="white" stroke="#25316D" stroke-width="2" stroke-linejoin="round"/>
<path d="M517.225 274.462L517.326 275.457C517.836 275.405 518.225 274.975 518.225 274.462H517.225ZM518.225 244.612C518.225 244.06 517.777 243.612 517.225 243.612C516.672 243.612 516.225 244.06 516.225 244.612H518.225ZM518.225 274.462V244.612H516.225V274.462H518.225ZM460.162 281.276L517.326 275.457L517.123 273.467L459.96 279.286L460.162 281.276Z" fill="#25316D"/>
<path d="M460.061 280.471V229.5" stroke="#25316D" stroke-width="2" stroke-linecap="round"/>
<path d="M483.764 271.729C486.332 271.729 488.413 269.651 488.413 267.088C488.413 264.524 486.332 262.446 483.764 262.446C481.197 262.446 479.115 264.524 479.115 267.088C479.115 269.651 481.197 271.729 483.764 271.729Z" fill="#CB2027"/>
<path d="M495.673 270.54C498.24 270.54 500.322 268.462 500.322 265.899C500.322 263.335 498.24 261.257 495.673 261.257C493.105 261.257 491.023 263.335 491.023 265.899C491.023 268.462 493.105 270.54 495.673 270.54Z" fill="#CB2027"/>
<path d="M507.583 269.351C510.15 269.351 512.232 267.273 512.232 264.71C512.232 262.146 510.15 260.068 507.583 260.068C505.015 260.068 502.934 262.146 502.934 264.71C502.934 267.273 505.015 269.351 507.583 269.351Z" fill="#CB2027"/>
<path d="M422.641 255.312L418.637 259.31L422.641 263.308" stroke="#CB2027" stroke-width="2" stroke-linecap="round" stroke-linejoin="round"/>
<path d="M439.418 257.69L443.422 261.685L439.418 265.68" stroke="#CB2027" stroke-width="2" stroke-linecap="round" stroke-linejoin="round"/>
<path d="M433.032 256.501L429.027 264.497" stroke="#CB2027" stroke-width="2" stroke-linecap="round" stroke-linejoin="round"/>
<path fill-rule="evenodd" clip-rule="evenodd" d="M426.6 178.141C427.152 178.141 427.6 178.588 427.6 179.141V182.359C427.6 182.911 427.152 183.359 426.6 183.359C426.047 183.359 425.6 182.911 425.6 182.359V179.141C425.6 178.588 426.047 178.141 426.6 178.141Z" fill="#CB2027"/>
<path fill-rule="evenodd" clip-rule="evenodd" d="M431.758 178.141C432.31 178.141 432.758 178.588 432.758 179.141V182.359C432.758 182.911 432.31 183.359 431.758 183.359C431.206 183.359 430.758 182.911 430.758 182.359V179.141C430.758 178.588 431.206 178.141 431.758 178.141Z" fill="#CB2027"/>
<path fill-rule="evenodd" clip-rule="evenodd" d="M429.156 178.141C429.709 178.141 430.156 178.588 430.156 179.141V184.773C430.156 185.325 429.709 185.773 429.156 185.773C428.604 185.773 428.156 185.325 428.156 184.773V179.141C428.156 178.588 428.604 178.141 429.156 178.141Z" fill="#CB2027"/>
<path fill-rule="evenodd" clip-rule="evenodd" d="M433.078 177.765C433.764 177.765 434.407 177.419 434.754 176.835C434.947 176.51 435.134 176.185 435.313 175.86L439.533 178.614C440.112 178.991 440.895 178.686 441.055 178.021L442.32 172.752C442.398 172.428 442.303 172.087 442.069 171.847L438.277 167.562C439.736 160.123 437.315 153.29 430.372 147.349C429.675 146.753 428.639 146.753 427.942 147.349C420.979 153.307 418.543 160.043 420.028 167.505L419.264 168.282L416.244 171.847C416.01 172.087 415.916 172.428 415.994 172.752L417.258 178.021C417.418 178.686 418.202 178.991 418.78 178.614L423 175.86C423.179 176.185 423.366 176.51 423.559 176.835C423.907 177.419 424.549 177.765 425.236 177.765H433.078Z" fill="white"/>
<path fill-rule="evenodd" clip-rule="evenodd" d="M434.39 177.275C434.531 177.149 434.655 177.002 434.754 176.835C434.947 176.51 435.134 176.185 435.313 175.86L439.533 178.614C440.112 178.991 440.895 178.686 441.055 178.021L442.32 172.752C442.398 172.428 442.303 172.087 442.069 171.847L438.277 167.562C439.736 160.123 437.315 153.29 430.372 147.349C429.675 146.753 428.639 146.753 427.942 147.349C420.979 153.307 418.543 160.043 420.028 167.505L419.264 168.282L416.244 171.847C416.01 172.087 415.916 172.428 415.994 172.752L417.258 178.021C417.418 178.686 418.202 178.991 418.78 178.614L423 175.86C423.179 176.185 423.366 176.51 423.559 176.835C423.659 177.002 423.782 177.149 423.924 177.275C424.278 177.588 424.745 177.765 425.236 177.765H433.078C433.568 177.765 434.036 177.588 434.39 177.275ZM425.25 175.765H433.064C433.236 175.474 433.402 175.184 433.562 174.894L434.603 173.007L439.443 176.167L440.249 172.808L436.124 168.147L436.314 167.177C437.611 160.563 435.557 154.456 429.157 148.942C422.728 154.48 420.672 160.492 421.99 167.115L422.196 168.152L420.743 169.631L418.061 172.796L418.87 176.167L423.711 173.007L424.751 174.894C424.911 175.184 425.077 175.474 425.25 175.765ZM440.375 172.285C440.375 172.286 440.375 172.285 440.375 172.285Z" fill="#25316D"/>
<path d="M425.652 159.215C425.652 161.12 427.221 162.664 429.156 162.664C431.091 162.664 432.66 161.12 432.66 159.215C432.66 157.309 431.091 155.765 429.156 155.765C427.221 155.765 425.652 157.309 425.652 159.215Z" fill="#CB2027"/>
<path d="M478.62 195.106C478.62 203.663 471.545 210.631 462.778 210.631C454.01 210.631 446.936 203.663 446.936 195.106C446.936 186.55 454.01 179.582 462.778 179.582C471.545 179.582 478.62 186.55 478.62 195.106Z" fill="#CB2027" stroke="#25316D" stroke-width="2"/>
<path fill-rule="evenodd" clip-rule="evenodd" d="M477.569 195.136C477.569 203.207 470.955 209.75 462.796 209.75C454.638 209.75 448.023 203.207 448.023 195.136C448.023 187.065 454.638 180.522 462.796 180.522C470.955 180.522 477.569 187.065 477.569 195.136ZM460.269 191.701C460.269 192.513 460.934 193.176 461.746 193.176H463.224C465.661 193.176 467.655 195.167 467.655 197.601C467.655 199.813 466.03 201.583 463.962 201.951V203.5C463.962 204.311 463.297 204.975 462.485 204.975C461.673 204.975 461.008 204.311 461.008 203.5V201.951C458.94 201.583 457.315 199.813 457.315 197.601C457.315 196.79 457.979 196.126 458.792 196.126C459.604 196.126 460.269 196.79 460.269 197.601C460.269 198.412 460.934 199.076 461.746 199.076H463.224C464.036 199.076 464.701 198.412 464.701 197.601C464.701 196.79 464.036 196.126 463.224 196.126H461.746C459.309 196.126 457.315 194.135 457.315 191.701C457.315 189.489 458.94 187.719 461.008 187.351V185.802C461.008 184.991 461.673 184.327 462.485 184.327C463.297 184.327 463.962 184.991 463.962 185.802V187.351C466.03 187.719 467.655 189.489 467.655 191.701C467.655 192.513 466.991 193.176 466.178 193.176C465.366 193.176 464.701 192.513 464.701 191.701C464.701 190.89 464.036 190.227 463.224 190.227H461.746C460.934 190.227 460.269 190.89 460.269 191.701Z" fill="white"/>
<path d="M489.562 134.54L489.416 135.544C489.281 136.469 488.698 137.267 487.859 137.678C486.885 138.154 485.725 138.032 484.871 137.364L484.714 137.241C483.504 136.294 481.78 136.39 480.681 137.464C479.659 138.464 479.464 140.039 480.212 141.258L480.525 141.77C480.914 142.403 481.029 143.167 480.845 143.887C480.575 144.946 479.703 145.744 478.624 145.92L478.478 145.944C477.049 146.177 476 147.411 476 148.859C476 150.306 477.049 151.541 478.478 151.774L478.779 151.823C479.778 151.986 480.607 152.682 480.94 153.638C481.229 154.467 481.106 155.384 480.608 156.107L480.357 156.473C479.534 157.67 479.691 159.285 480.73 160.301C481.8 161.348 483.481 161.441 484.66 160.518L484.82 160.393C485.717 159.691 486.917 159.515 487.977 159.93L488.302 160.057C489.314 160.453 490.045 161.351 490.227 162.422L490.297 162.831C490.511 164.084 491.596 165 492.867 165C494.137 165 495.223 164.084 495.436 162.831L495.506 162.422C495.688 161.351 496.419 160.453 497.431 160.057L497.947 159.856C498.872 159.494 499.923 159.708 500.634 160.402C501.615 161.363 503.185 161.363 504.166 160.402L504.295 160.277C505.298 159.296 505.386 157.711 504.498 156.625L504.289 156.37C503.577 155.499 503.399 154.308 503.825 153.266L503.93 153.008C504.346 151.99 505.262 151.262 506.347 151.085L506.876 150.998C508.101 150.799 509 149.741 509 148.5C509 147.259 508.101 146.201 506.876 146.002L506.571 145.952C505.384 145.758 504.441 144.852 504.2 143.674L504.091 143.14C503.945 142.425 504.014 141.683 504.29 141.007L504.7 140.004C505.083 139.069 504.861 137.994 504.138 137.287C503.172 136.342 501.611 136.359 500.645 137.304C499.935 137.999 498.872 138.224 497.947 137.862L497.536 137.701C496.463 137.281 495.697 136.318 495.531 135.177L495.438 134.54C495.225 133.081 493.974 132 492.5 132C491.026 132 489.775 133.081 489.562 134.54Z" fill="white" stroke="#25316D" stroke-width="2"/>
<circle cx="492.5" cy="148.5" r="6.5" stroke="#25316D" stroke-width="2"/>
<path d="M45 260.104H295" stroke="#25316D" stroke-width="2" stroke-linecap="round" stroke-linejoin="round"/>
<path d="M94.6254 277.609L94.7694 277.504L94.8685 277.356C95.6427 276.194 97.0402 275.501 98.9784 275.287C100.912 275.073 103.248 275.359 105.646 276.019C108.036 276.677 110.434 277.69 112.477 278.882C114.535 280.082 116.164 281.421 117.087 282.697C121.002 288.108 120.294 294.987 115.958 298.152C114.96 298.879 113.343 299.332 111.281 299.446C109.246 299.558 106.897 299.332 104.55 298.819C102.203 298.306 99.8925 297.513 97.9308 296.511C95.9556 295.503 94.4046 294.32 93.4957 293.064C89.581 287.653 90.2887 280.774 94.6254 277.609Z" fill="white" stroke="#25316D" stroke-width="2"/>
<path d="M117.507 296.346C116.254 294.936 113.559 292.116 112.807 292.116" stroke="#25316D" stroke-width="2"/>
<path d="M176.5 278.5C182.5 292 192 320.037 168 317.5C154.507 316.074 157.795 307.54 161 305.5C166.5 302 168.854 304.358 171 308C174.626 314.153 168.775 322.065 154.5 319.5C131.504 315.368 142 310.5 132.5 303C129.34 300.505 121.761 298.64 117.5 296.5" stroke="#303030" stroke-width="2" stroke-linecap="round"/>
<path d="M114.242 287.896L114.236 287.899C113.947 288.073 113.561 288.004 113.346 287.726C112.371 286.447 110.53 284.606 108.459 282.828C106.381 281.044 103.997 279.259 101.913 278.122L100.785 279.756C100.782 279.759 100.782 279.759 100.782 279.759L100.783 279.759L100.784 279.76L100.794 279.769C100.804 279.778 100.821 279.793 100.843 279.813C100.888 279.853 100.956 279.915 101.043 279.998C101.218 280.163 101.47 280.411 101.768 280.731C102.367 281.374 103.146 282.299 103.87 283.433C105.295 285.664 106.43 288.574 105.752 291.685C105.034 292.431 103.896 292.829 103.368 293.002L103.256 293.039L103.156 293.101L103.156 293.101L103.156 293.101L103.154 293.102L103.146 293.107L103.11 293.129C103.078 293.148 103.029 293.177 102.966 293.215C102.839 293.289 102.655 293.396 102.429 293.523C101.974 293.777 101.355 294.108 100.688 294.418C100.017 294.731 99.3258 295.009 98.7226 295.173C98.0653 295.351 97.7168 295.334 97.604 295.293L96.9621 295.061L96.5157 295.569C96.5157 295.569 96.5157 295.569 96.5157 295.569C96.5155 295.569 96.5152 295.57 96.5147 295.57C96.5143 295.571 96.5137 295.571 96.5129 295.572C96.5089 295.577 96.5003 295.586 96.4876 295.599C96.462 295.625 96.4201 295.667 96.3633 295.718C96.2487 295.822 96.0806 295.96 95.8723 296.091C95.4523 296.355 94.9486 296.544 94.4162 296.482C94.4138 296.478 94.312 296.441 94.0934 296.27C93.8537 296.083 93.5625 295.806 93.231 295.45C92.5703 294.74 91.8262 293.798 91.1183 292.84C90.4138 291.886 89.7603 290.938 89.282 290.227C89.0432 289.871 88.8488 289.576 88.7144 289.37C88.6472 289.267 88.595 289.187 88.5599 289.132L88.5201 289.07L88.5103 289.055L88.508 289.051L88.5074 289.051L88.5074 289.051L88.5074 289.05L88.3171 288.752L87.9822 288.64L87.982 288.64L87.9819 288.64L87.9817 288.64L87.9791 288.639L87.9642 288.634C87.9503 288.629 87.9284 288.622 87.8991 288.612C87.8405 288.591 87.7521 288.559 87.638 288.516C87.4098 288.431 87.0793 288.302 86.6784 288.132C85.8743 287.789 84.798 287.283 83.6989 286.625C82.5955 285.965 81.4989 285.169 80.6327 284.257C79.7651 283.343 79.1737 282.36 78.9848 281.321L78.9712 281.246L78.9467 281.175L78.9467 281.175L78.9465 281.175L78.9462 281.174L78.9453 281.171L78.9374 281.147C78.9299 281.124 78.9183 281.088 78.9033 281.038C78.8732 280.94 78.8299 280.791 78.78 280.599C78.68 280.214 78.5545 279.659 78.4565 278.99C78.259 277.643 78.1804 275.884 78.6082 274.141C79.0314 272.417 79.947 270.713 81.7549 269.404C83.5519 268.102 86.3206 267.125 90.5705 267.004C90.5897 267.011 90.6106 267.018 90.6333 267.025C90.7814 267.075 91.0016 267.151 91.2848 267.253C91.8513 267.455 92.6696 267.761 93.6683 268.167C95.6673 268.981 98.3809 270.196 101.242 271.805C106.989 275.037 113.113 279.735 115.465 285.768C115.46 285.8 115.449 285.858 115.422 285.947C115.357 286.162 115.236 286.438 115.075 286.734C114.917 287.025 114.735 287.307 114.564 287.532C114.479 287.645 114.403 287.735 114.339 287.803C114.27 287.875 114.238 287.899 114.242 287.896Z" fill="white" stroke="#25316D" stroke-width="2"/>
<path fill-rule="evenodd" clip-rule="evenodd" d="M106.206 148.524C141.832 177.116 100.468 224.121 100.468 224.121C100.468 224.121 97.502 239.331 97.502 242.5C97.502 256 102.698 267.314 102.698 267.314C102.698 267.314 85.3355 275.044 80.956 284.116C80.7476 284.548 79.5458 285.526 79.0756 285.526C79.0756 285.526 72.8584 265.725 71.002 259.5C63.0112 232.708 65.2137 216.13 65.2137 216.13C71.3243 202.029 74.6383 193.397 81.1956 178.996C87.1612 165.885 98.3265 157.602 106.206 148.524Z" fill="#58B9FD"/>
<path fill-rule="evenodd" clip-rule="evenodd" d="M241.204 25.501C239.215 25.501 237.602 27.104 237.602 29.1122C237.602 31.1011 239.215 32.7231 241.204 32.7231C243.189 32.7231 244.803 31.1011 244.803 29.1122C244.803 28.6375 244.711 28.1674 244.53 27.7287C244.35 27.2901 244.085 26.8915 243.75 26.556C243.416 26.2205 243.019 25.9546 242.582 25.7735C242.145 25.5925 241.677 25.4999 241.204 25.501ZM241.204 26.6983C242.527 26.6983 243.603 27.7797 243.603 29.1122C243.603 30.4443 242.527 31.5258 241.204 31.5258C239.881 31.5258 238.805 30.4443 238.805 29.1122C238.805 27.7797 239.881 26.6983 241.204 26.6983Z" fill="#25316D"/>
<path fill-rule="evenodd" clip-rule="evenodd" d="M155.525 122.829C155.525 122.829 160.449 118.767 162.935 119.426L163.115 122.663C163.115 122.663 170.491 127.767 180.513 127.932C190.54 128.152 198.299 123.322 199.954 119.426C199.954 119.426 205.85 120.741 206.091 124.693C206.091 124.693 237.237 134.296 245.114 139.676C252.988 144.996 257.049 148.509 258.848 157.73C260.64 166.893 267.13 196.525 268.61 220.341C252.764 215.29 239.652 215.184 223.457 215.184C185.123 169.685 158.64 224.872 123.413 259.58C123.413 259.58 134.5 195.357 130.572 195.851C126.648 196.29 72.6829 217.267 72.6829 217.267C72.6829 217.267 71.7485 202.44 72.6828 198.268C73.6171 194.097 91.8513 149.167 96.0205 143.078C100.19 136.93 107.566 132.046 120.702 129.304C133.844 126.561 155.525 122.829 155.525 122.829Z" fill="#58B9FD"/>
<path d="M85.502 167C87.502 163.5 88.3436 160.194 89.502 157C90.9692 152.901 93.165 146.878 96.0023 143.5" stroke="#25316D" stroke-width="2" stroke-miterlimit="1.5" stroke-linecap="round" stroke-linejoin="round"/>
<path d="M131.861 174.749C134.901 189.084 134.445 205.364 129.775 219.306M141.364 172.735C143.246 179.166 143.501 185.841 143.479 192.502C143.486 201.042 142.677 209.702 139.768 217.795" stroke="#25316D" stroke-width="2" stroke-miterlimit="1.5" stroke-linecap="round" stroke-linejoin="round"/>
<path d="M155.796 126.874C158.518 131.1 163.179 133.68 167.735 135.437C178.975 139.716 194.762 139.223 202.816 129.124M199.876 119.412C200.548 119.412 201.226 119.521 201.871 119.686C204.165 120.453 205.329 122.321 205.898 124.513M149.529 128.191C151.278 130.606 153.185 133.076 155.403 135.051C158.31 137.632 161.84 139.55 165.479 140.868" stroke="#25316D" stroke-width="2" stroke-miterlimit="1.5" stroke-linecap="round" stroke-linejoin="round"/>
<path d="M162.92 119.771C160.445 119.825 157.27 120.922 155.932 123.172" stroke="#25316D" stroke-width="2" stroke-miterlimit="1.5" stroke-linecap="round" stroke-linejoin="round"/>
<path d="M68.9729 218.01C70.853 226.471 81.1921 226.505 85.4246 228.351C90.0476 230.402 95.8875 222.029 100.001 225M75.5535 267.366C80.724 257.965 84.3944 254.691 97.1757 253.265" stroke="#25316D" stroke-width="2" stroke-miterlimit="1.5" stroke-linecap="round" stroke-linejoin="round"/>
<path d="M199.461 100.597L161.637 91.1963L162.577 122.219C162.577 122.219 173.586 127.956 181.379 127.86C189.606 127.759 199.461 122.49 199.461 122.49L199.461 100.597Z" fill="white"/>
<path d="M157.66 72.6594C157.66 92.3856 174.669 110.434 189.074 110.434C209.064 96.2216 213.062 91.1726 213.062 74.9034C221.21 62.6511 211.977 29.1318 184.992 29.1318C149.484 29.1318 151.615 61.9379 157.66 72.6594Z" fill="white"/>
<path d="M190.923 66.9643C190.901 70.3119 191.289 73.549 192.448 76.6767C192.732 77.4998 193.038 78.2686 193.426 78.9823C193.453 79.037 193.819 79.6403 193.803 79.6403C193.552 79.9696 192.628 79.9692 192.278 79.9692C190.787 80.079 189.295 79.5852 187.896 79.0914M181.946 64.221C179.093 62.6295 175.668 62.6295 172.952 64.4953M206.311 65.3731C203.256 63.7269 200.021 63.6718 196.814 64.8242M192.497 91.3289C188.415 91.4934 184.416 90.7254 181.044 88.311M163.111 64.825C163.739 71.0807 164.236 77.1176 164.766 83.3733M171.87 55.9904C170.236 59.9412 166.821 62.7403 162.876 64.167M155.875 58.3718C161.29 50.4151 166.832 36.1547 176.471 33.411C181.41 32.039 186.581 29.7339 187.898 35.5505C188.116 36.5385 203.142 50.9575 211.977 54.0927" stroke="#25316D" stroke-width="2" stroke-miterlimit="1.5" stroke-linecap="round" stroke-linejoin="round"/>
<path d="M219.461 52.2822C219.406 62.4341 209.315 56.923 201.376 56.4839C199.715 56.3741 198.081 56.0992 196.436 55.8249M193.42 58.24C187.306 59.6667 179.53 59.0638 174.913 54.2348M159.406 72.8922C159.406 72.8922 160.93 87.7625 161.329 91.7133C161.392 92.3125 161.654 92.8729 162.072 93.3053C168.58 100.329 176.476 105.103 185.71 107.792C186.327 107.957 186.989 107.957 187.59 107.738C194.556 105.104 201.217 101.097 207.518 95.4453C208.053 94.9515 208.386 94.2929 208.447 93.5795C208.949 87.5433 211.293 59.283 211.293 59.283" stroke="#25316D" stroke-width="2" stroke-miterlimit="1.5" stroke-linecap="round" stroke-linejoin="round"/>
<path d="M199.641 101.591L199.105 122.336C199.105 122.336 180.144 134.296 163.768 122.336M162.107 94.019L162.413 118.822" stroke="#25316D" stroke-width="2" stroke-miterlimit="1.5" stroke-linecap="round" stroke-linejoin="round"/>
<path d="M200.941 71.5472C200.722 71.5504 200.504 71.5098 200.301 71.4277C200.097 71.3456 199.912 71.2237 199.755 71.069C199.599 70.9144 199.475 70.7301 199.39 70.5268C199.306 70.3236 199.262 70.1054 199.262 69.8851C199.262 69.6648 199.306 69.4467 199.391 69.2434C199.475 69.0402 199.599 68.8559 199.756 68.7013C199.912 68.5466 200.097 68.4248 200.301 68.3427C200.505 68.2607 200.722 68.2201 200.942 68.2234C201.376 68.2298 201.791 68.4078 202.096 68.7188C202.401 69.0298 202.572 69.4489 202.572 69.8855C202.572 70.3221 202.401 70.7411 202.096 71.052C201.791 71.363 201.376 71.5408 200.941 71.5472ZM177.995 71.5472C177.556 71.5472 177.135 71.3721 176.825 71.0603C176.515 70.7486 176.34 70.3258 176.34 69.8849C176.34 69.4441 176.515 69.0213 176.825 68.7095C177.135 68.3978 177.556 68.2227 177.995 68.2227C178.43 68.2291 178.845 68.407 179.15 68.7181C179.455 69.0291 179.627 69.4482 179.627 69.8849C179.627 70.3216 179.455 70.7407 179.15 71.0518C178.845 71.3628 178.43 71.5408 177.995 71.5472Z" fill="#25316D"/>
<path fill-rule="evenodd" clip-rule="evenodd" d="M166.371 98.6416C166.371 98.6416 176.693 111.866 186.178 112.579C194.255 113.237 199.287 106.817 199.287 106.817V101.989C199.287 101.989 187.987 108.408 186.178 107.915C184.375 107.366 166.371 98.6416 166.371 98.6416Z" fill="#25316D"/>
<path d="M156.166 60.1871L146.961 61.1859C144.216 61.4839 142.23 63.9511 142.525 66.6967L145.036 90.0312C145.331 92.7768 147.796 94.761 150.542 94.4631L159.746 93.4643L156.166 60.1871Z" fill="white" stroke="#25316D" stroke-width="2"/>
<path d="M213.732 60.1583L222.963 60.8642C225.716 61.0748 227.779 63.4777 227.57 66.2312L225.796 89.6341C225.587 92.3877 223.186 94.4491 220.433 94.2386L211.201 93.5327L213.732 60.1583Z" fill="white" stroke="#25316D" stroke-width="2"/>
<mask id="path-48-inside-1_954_21892" fill="white">
<path d="M219.279 62.19C221.472 62.3369 223.396 60.683 223.316 58.4865C223.169 54.4629 222.346 50.4788 220.871 46.6869C218.911 41.6504 215.845 37.0687 211.876 33.2468C207.907 29.4249 203.127 26.4506 197.855 24.522C192.582 22.5934 186.937 21.7547 181.297 22.0619C175.656 22.3691 170.149 23.815 165.143 26.3034C160.136 28.7918 155.745 32.2655 152.262 36.4933C148.778 40.721 146.283 45.6056 144.941 50.8219C143.927 54.7648 143.589 58.8287 143.934 62.8575C144.119 65.0301 146.2 66.439 148.347 66.0575L148.43 66.0428C150.633 65.6513 152.057 63.525 151.941 61.2901C151.789 58.3925 152.079 55.4819 152.808 52.6499C153.876 48.4959 155.864 44.606 158.638 41.2392C161.412 37.8724 164.909 35.1061 168.896 33.1244C172.883 31.1428 177.268 29.9913 181.76 29.7467C186.252 29.5021 190.747 30.1699 194.946 31.7058C199.145 33.2416 202.951 35.6102 206.112 38.6538C209.272 41.6974 211.714 45.3461 213.275 49.3569C214.344 52.1048 214.983 54.9794 215.177 57.889C215.326 60.1043 216.967 62.0351 219.183 62.1835L219.279 62.19Z"/>
</mask>
<path d="M219.279 62.19C221.472 62.3369 223.396 60.683 223.316 58.4865C223.169 54.4629 222.346 50.4788 220.871 46.6869C218.911 41.6504 215.845 37.0687 211.876 33.2468C207.907 29.4249 203.127 26.4506 197.855 24.522C192.582 22.5934 186.937 21.7547 181.297 22.0619C175.656 22.3691 170.149 23.815 165.143 26.3034C160.136 28.7918 155.745 32.2655 152.262 36.4933C148.778 40.721 146.283 45.6056 144.941 50.8219C143.927 54.7648 143.589 58.8287 143.934 62.8575C144.119 65.0301 146.2 66.439 148.347 66.0575L148.43 66.0428C150.633 65.6513 152.057 63.525 151.941 61.2901C151.789 58.3925 152.079 55.4819 152.808 52.6499C153.876 48.4959 155.864 44.606 158.638 41.2392C161.412 37.8724 164.909 35.1061 168.896 33.1244C172.883 31.1428 177.268 29.9913 181.76 29.7467C186.252 29.5021 190.747 30.1699 194.946 31.7058C199.145 33.2416 202.951 35.6102 206.112 38.6538C209.272 41.6974 211.714 45.3461 213.275 49.3569C214.344 52.1048 214.983 54.9794 215.177 57.889C215.326 60.1043 216.967 62.0351 219.183 62.1835L219.279 62.19Z" fill="white" stroke="#25316D" stroke-width="4" mask="url(#path-48-inside-1_954_21892)"/>
<path fill-rule="evenodd" clip-rule="evenodd" d="M249.764 211.573L249.416 214.643C249.416 214.643 264.128 233.296 274.049 234.648C283.99 236.02 290.026 224.281 293.93 214.643C297.835 205.01 300.621 194.331 297.932 191.802C297.932 191.802 299.371 184.889 297.932 184.251H278.588L254.206 152.891L249.61 148.566C249.61 148.566 247.764 144.914 243.457 140.705C237.881 154.049 233.129 174.828 234.399 206.226L247.744 209.545C248.035 209.778 248.781 210.649 249.764 211.573Z" fill="#58B9FD"/>
<mask id="path-50-inside-2_954_21892" fill="white">
<path d="M256.548 174.174C258.502 174.477 260.496 174.393 262.417 173.925C264.338 173.458 266.148 172.616 267.744 171.449C269.34 170.282 270.691 168.812 271.718 167.123C272.746 165.434 273.431 163.559 273.734 161.605C274.037 159.651 273.953 157.657 273.485 155.736C273.018 153.815 272.176 152.005 271.009 150.409C269.842 148.813 268.372 147.462 266.683 146.435C264.994 145.407 263.119 144.722 261.165 144.419L259.795 153.252C260.588 153.375 261.35 153.653 262.036 154.071C262.723 154.488 263.32 155.037 263.794 155.685C264.268 156.334 264.61 157.069 264.8 157.85C264.99 158.63 265.025 159.441 264.902 160.234C264.778 161.028 264.5 161.79 264.082 162.476C263.665 163.163 263.116 163.76 262.468 164.234C261.819 164.708 261.084 165.05 260.303 165.24C259.523 165.43 258.712 165.465 257.919 165.341L256.548 174.174Z"/>
</mask>
<path d="M256.548 174.174C258.502 174.477 260.496 174.393 262.417 173.925C264.338 173.458 266.148 172.616 267.744 171.449C269.34 170.282 270.691 168.812 271.718 167.123C272.746 165.434 273.431 163.559 273.734 161.605C274.037 159.651 273.953 157.657 273.485 155.736C273.018 153.815 272.176 152.005 271.009 150.409C269.842 148.813 268.372 147.462 266.683 146.435C264.994 145.407 263.119 144.722 261.165 144.419L259.795 153.252C260.588 153.375 261.35 153.653 262.036 154.071C262.723 154.488 263.32 155.037 263.794 155.685C264.268 156.334 264.61 157.069 264.8 157.85C264.99 158.63 265.025 159.441 264.902 160.234C264.778 161.028 264.5 161.79 264.082 162.476C263.665 163.163 263.116 163.76 262.468 164.234C261.819 164.708 261.084 165.05 260.303 165.24C259.523 165.43 258.712 165.465 257.919 165.341L256.548 174.174Z" fill="white" stroke="#25316D" stroke-width="4" mask="url(#path-50-inside-2_954_21892)"/>
<path d="M263.206 143.588L263.207 143.586C263.291 143.026 263.128 142.455 262.761 142.025C262.579 141.814 262.355 141.646 262.103 141.53C261.851 141.414 261.578 141.354 261.301 141.354C261.301 141.354 261.301 141.354 261.3 141.354C261.3 141.354 261.3 141.354 261.3 141.354L229.283 141.354C228.724 141.354 228.19 141.599 227.823 142.025C227.642 142.237 227.508 142.486 227.431 142.755C227.354 143.025 227.336 143.309 227.377 143.586L263.206 143.588ZM263.206 143.588C262.695 147.028 261.854 152.676 260.987 158.49C259.904 165.765 258.781 173.301 258.216 177.103L258.216 177.104M263.206 143.588L258.216 177.104M258.216 177.104C258.077 178.045 257.268 178.744 256.311 178.744H234.309C233.357 178.744 232.545 178.046 232.403 177.102L258.216 177.104ZM232.403 177.102C232.01 174.481 231.349 170.072 230.618 165.195C229.446 157.376 228.094 148.357 227.377 143.586L232.403 177.102Z" fill="white" stroke="#25316D" stroke-width="2"/>
<path d="M250.037 93.0508C253.036 98.3438 252.875 103.945 250.037 109.216C245.402 117.836 235.951 124.414 238.089 134.234C238.461 135.908 239.211 137.558 240.289 139.089M259.24 108.793C260.69 112.427 260.151 116.118 257.982 119.479C254.443 124.974 248.079 128.901 248.643 135.485C248.742 136.605 249.077 137.732 249.628 138.796" stroke="#25316D" stroke-width="2" stroke-miterlimit="1.5" stroke-linecap="round" stroke-linejoin="round"/>
<path fill-rule="evenodd" clip-rule="evenodd" d="M276.586 187.549C276.586 187.549 287.959 190.487 297.114 183.803C297.114 183.803 299.408 169.709 295.33 158.276C293.879 154.22 280.761 151.46 280.761 151.46C280.761 151.46 276.691 152.677 275.151 154.375C275.151 154.375 267.245 154.783 264.103 154.954C263.391 154.993 262.834 155.572 262.834 156.287V161.039C262.834 161.638 263.236 162.178 263.817 162.333C264.904 162.64 266.51 163.083 266.51 163.083C266.51 163.083 265.616 167.816 267.624 169.305C267.624 169.305 266.104 173.105 268.011 174.924C268.011 174.924 266.378 178.996 268.708 181.044C271.041 183.092 275.855 183.535 276.586 187.549Z" fill="white"/>
<path d="M275.089 154.771L275.095 154.771C275.093 154.771 275.091 154.771 275.089 154.771Z" fill="#25316D" stroke="#25316D" stroke-width="2" stroke-linecap="round" stroke-linejoin="round"/>
<path d="M286.134 155.567L275.793 154.627H264.982C264.198 154.627 262.631 155.097 262.631 156.977C262.631 158.858 262.631 160.268 262.631 160.738C262.475 160.895 262.537 161.396 264.042 162.148C265.546 162.9 266.548 163.088 266.862 163.088L275.323 164.028M266.392 163.558C266.078 165.282 265.922 168.823 267.802 169.199C269.682 169.575 273.599 169.355 275.323 169.199M267.332 170.139C266.862 171.549 266.486 174.463 268.742 174.839C270.998 175.215 273.443 175.309 274.383 175.309M267.802 175.779C267.175 177.346 266.862 180.762 270.622 181.89C274.383 183.018 276.263 186.12 276.733 187.531C277.36 187.844 279.929 188.377 285.194 188.001C290.458 187.625 295.535 185.024 297.415 183.77C298.042 176.406 298.449 160.738 295.065 156.977C291.68 153.217 284.254 151.65 280.963 151.337C279.396 151.807 276.169 152.935 275.793 153.687M272.032 183.77C269.369 188.784 263.947 199.752 263.571 203.512C263.101 208.213 261.221 216.203 266.862 221.844M295.065 193.641C291.304 194.738 282.467 196.555 277.203 195.051" stroke="#25316D" stroke-width="2" stroke-linecap="round" stroke-linejoin="round"/>
<path d="M242.493 110.781C240.62 114.086 240.721 117.584 242.493 120.875C245.387 126.257 251.288 130.365 249.953 136.497C249.721 137.542 249.253 138.572 248.58 139.528M236.747 120.611C235.841 122.88 236.178 125.185 237.532 127.283C239.742 130.714 243.716 133.166 243.364 137.278C243.302 137.977 243.093 138.681 242.748 139.345" stroke="#25316D" stroke-width="0.004" stroke-miterlimit="1.5" stroke-linecap="round" stroke-linejoin="round"/>
<path d="M202.2 283.488L202.2 283.488L202.206 283.5C202.395 283.885 202.352 284.349 202.076 284.711C202.075 284.712 202.075 284.713 202.074 284.713L194.094 295.019H163.97L163.866 294.889L163.223 294.078C162.678 293.392 161.92 292.436 161.068 291.364C159.365 289.218 157.287 286.601 155.788 284.718L155.785 284.714C155.52 284.384 155.458 283.908 155.653 283.492C155.748 283.298 155.894 283.135 156.075 283.021C156.257 282.906 156.467 282.845 156.681 282.843C156.682 282.843 156.683 282.843 156.683 282.843L201.181 282.843H201.183C201.395 282.843 201.603 282.903 201.783 283.017C201.963 283.131 202.108 283.294 202.2 283.488ZM259.569 193.025L259.568 193.027C256.999 207.635 248.517 255.874 246.323 268.361C246.105 269.597 245.033 270.495 243.787 270.495H114.441C113.212 270.495 112.146 269.613 111.91 268.388C110.759 262.364 107.984 247.856 105.113 232.85C102.082 217.005 98.9442 200.605 97.5009 193.052L97.5007 193.051C97.3579 192.307 97.5532 191.528 98.0469 190.917C98.5413 190.325 99.2724 189.977 100.032 189.977L257.032 189.977L257.033 189.977C257.409 189.976 257.779 190.058 258.12 190.217C258.46 190.377 258.762 190.609 259.003 190.899L259.004 190.9C259.495 191.489 259.702 192.274 259.569 193.025Z" fill="white" stroke="#25316D" stroke-width="2"/>
<path d="M179.092 227.496C187.241 227.496 193.859 234.137 193.859 242.324V295.024H164.324V242.324C164.324 234.136 170.939 227.496 179.092 227.496Z" fill="white" stroke="#25316D" stroke-width="2"/>
<path fill-rule="evenodd" clip-rule="evenodd" d="M185.87 242.265C185.87 238.504 182.834 235.457 179.091 235.457C175.348 235.457 172.314 238.504 172.314 242.265V254.44C172.314 258.194 175.348 261.24 179.091 261.24C182.834 261.24 185.87 258.194 185.87 254.44V242.265Z" fill="#58B9FD"/>
<path d="M117 267.011L103.463 197.382C103.223 196.147 104.169 195 105.426 195H222" stroke="#25316D" stroke-width="2"/>
<path d="M222.332 249.983C222.692 249.983 222.986 250.274 222.986 250.64V256.877C222.986 257.242 222.692 257.533 222.332 257.533H219.875C219.511 257.533 219.221 257.242 219.221 256.877V250.64C219.221 250.274 219.511 249.983 219.875 249.983H222.332Z" fill="#686868"/>
<path d="M231.646 249.983C232.005 249.983 232.3 250.274 232.3 250.64V256.877C232.3 257.242 232.005 257.533 231.646 257.533H229.188C228.825 257.533 228.535 257.242 228.535 256.877V250.64C228.535 250.274 228.825 249.983 229.188 249.983H231.646Z" fill="#686868"/>
</svg>
