<svg width="588" height="340" viewBox="0 0 588 340" fill="none" xmlns="http://www.w3.org/2000/svg">
<path d="M45 261.104H295" stroke="#25316D" stroke-width="2" stroke-linecap="round" stroke-linejoin="round"/>
<path d="M101.086 270.311L101.23 270.205L101.329 270.057C102.104 268.896 103.501 268.202 105.439 267.988C107.373 267.775 109.708 268.061 112.107 268.72C114.497 269.378 116.895 270.391 118.938 271.583C120.996 272.783 122.625 274.122 123.548 275.399C127.463 280.809 126.755 287.689 122.419 290.853C121.421 291.581 119.804 292.033 117.742 292.147C115.707 292.259 113.358 292.033 111.01 291.52C108.664 291.007 106.353 290.214 104.392 289.213C102.417 288.204 100.866 287.021 99.9566 285.765C96.0419 280.354 96.7496 273.475 101.086 270.311Z" fill="white" stroke="#25316D" stroke-width="2"/>
<path d="M123.968 289.047C122.715 287.637 120.02 284.817 119.268 284.817" stroke="#25316D" stroke-width="2"/>
<path d="M229.618 257.792C231.275 266.112 236.25 275.695 231.038 290.598C225.826 305.5 213.865 317.4 200.87 313.5C190.898 310.507 194.872 300.752 200.37 298C205.529 295.417 210.87 297 212.37 303.5C215.81 318.405 199.725 320.639 174.87 318.5C150.015 316.36 146.139 306.202 143.37 302C134.87 289.098 128.777 292.737 124.516 290.598" stroke="#303030" stroke-width="2" stroke-linecap="round"/>
<path d="M120.807 279.92L120.802 279.923C120.512 280.097 120.126 280.028 119.911 279.749C118.986 278.534 117.452 276.621 115.637 274.729C113.832 272.849 111.695 270.932 109.562 269.768L108.561 271.481C108.553 271.494 108.553 271.494 108.553 271.494L108.553 271.494L108.554 271.495L108.569 271.504C108.583 271.513 108.605 271.527 108.635 271.547C108.695 271.587 108.785 271.648 108.9 271.73C109.13 271.894 109.458 272.139 109.836 272.456C110.599 273.095 111.546 274.01 112.331 275.131C113.116 276.253 113.709 277.541 113.83 278.94C113.947 280.307 113.622 281.863 112.438 283.575C111.733 284.408 110.492 284.843 109.934 285.026L109.822 285.063L109.722 285.124L109.722 285.125L109.721 285.125L109.72 285.126L109.711 285.131L109.675 285.153C109.663 285.16 109.648 285.169 109.63 285.18C109.603 285.196 109.57 285.216 109.531 285.239C109.405 285.313 109.221 285.42 108.994 285.547C108.539 285.801 107.92 286.132 107.254 286.442C106.582 286.755 105.891 287.033 105.288 287.197C104.631 287.375 104.282 287.358 104.169 287.317L103.527 287.085L103.081 287.593L103.081 287.593L103.08 287.594C103.08 287.595 103.079 287.595 103.078 287.596C103.076 287.599 103.072 287.603 103.067 287.608C103.063 287.612 103.058 287.617 103.053 287.623C103.027 287.649 102.985 287.691 102.929 287.742C102.814 287.846 102.646 287.984 102.438 288.115C102.018 288.379 101.514 288.568 100.982 288.505C100.979 288.502 100.877 288.465 100.659 288.294C100.419 288.107 100.128 287.83 99.7963 287.474C99.1356 286.764 98.3915 285.822 97.6836 284.864C96.9791 283.91 96.3256 282.962 95.8473 282.25C95.6085 281.895 95.414 281.6 95.2796 281.394C95.2125 281.291 95.1603 281.211 95.1252 281.156L95.0854 281.094L95.0756 281.079L95.0732 281.075L95.0727 281.075L95.0727 281.074L95.0726 281.074L94.8814 280.775L94.544 280.663L94.544 280.663L94.5438 280.663L94.5431 280.663L94.5382 280.661L94.5162 280.654C94.4961 280.647 94.4654 280.637 94.4248 280.623C94.3436 280.595 94.2227 280.552 94.0674 280.496C93.7569 280.384 93.3098 280.218 92.7694 280.002C91.6864 279.569 90.2388 278.942 88.7683 278.16C87.2914 277.375 85.8268 276.452 84.6878 275.439C83.5365 274.414 82.8291 273.395 82.649 272.429L82.6468 272.414C82.6439 272.394 82.6395 272.361 82.6341 272.317C82.6233 272.227 82.6089 272.091 82.5961 271.914C82.5705 271.559 82.5516 271.045 82.5814 270.424C82.6411 269.176 82.8953 267.529 83.6578 265.883C84.415 264.249 85.6794 262.601 87.7951 261.33C89.8839 260.075 92.8581 259.153 97.0978 259.029C97.1049 259.032 97.1121 259.035 97.1196 259.038C97.2607 259.098 97.4705 259.187 97.7403 259.306C98.2801 259.544 99.0599 259.9 100.012 260.367C101.919 261.302 104.51 262.681 107.25 264.452C112.774 268.025 118.716 273.081 121.055 279.191C121.15 279.438 121.065 279.744 120.807 279.92Z" fill="white" stroke="#25316D" stroke-width="2"/>
<path fill-rule="evenodd" clip-rule="evenodd" d="M106.203 149.524C141.828 178.116 100.464 225.121 100.464 225.121C100.464 225.121 101.246 230.823 99.054 233.112C91.498 241 104.695 261.314 104.695 261.314C104.695 261.314 89.3321 271.044 84.9526 280.116C84.7442 280.548 83.5424 281.526 83.0722 281.526C83.0722 281.526 74.5878 267.539 72.7314 261.314C64.7406 234.522 65.2103 217.13 65.2103 217.13C71.3209 203.029 74.6349 194.397 81.1922 179.996C87.1578 166.885 98.3231 158.602 106.203 149.524Z" fill="#58B9FD"/>
<path fill-rule="evenodd" clip-rule="evenodd" d="M155.523 123.829C155.523 123.829 160.447 119.767 162.933 120.426L163.113 123.663C163.113 123.663 170.489 128.767 180.511 128.932C190.538 129.152 198.297 124.322 199.952 120.426C199.952 120.426 205.848 121.741 206.089 125.693C206.089 125.693 237.235 135.296 245.112 140.676C252.986 145.996 257.047 149.509 258.846 158.73C260.638 167.893 267.128 197.525 268.608 221.341C252.762 216.29 239.65 216.184 223.455 216.184C185.121 170.685 158.638 225.872 123.411 260.58C123.411 260.58 134.498 196.357 130.57 196.851C126.646 197.29 72.6809 218.267 72.6809 218.267C72.6809 218.267 71.7465 203.44 72.6809 199.268C73.6152 195.097 91.8494 150.167 96.0185 144.078C100.188 137.93 107.564 133.046 120.7 130.304C133.842 127.561 155.523 123.829 155.523 123.829Z" fill="#58B9FD"/>
<path d="M121.652 47C121.117 48.0658 120.714 49.172 120.32 50.2985C120.009 51.1994 119.711 52.1686 119.228 52.9933M118.193 53.7065C116.434 54.3521 114.702 55.0699 113 55.8579M113.01 55.9237C113.483 56.2335 113.931 56.5684 114.433 56.8296C115.829 57.5504 117.31 58.0604 118.736 58.7074M119.454 59.887C120.129 61.6048 121.049 63.1882 121.769 64.8807M121.816 65C122.018 64.3732 122.324 63.7793 122.602 63.1882C123.284 61.7317 124.065 60.316 124.635 58.8087M124.635 58.89C125.354 58.4893 126.165 58.271 126.91 57.9309C128.002 57.4285 129.913 56.6142 131 56.0559M121.945 47.1017C122.831 49.0274 123.727 50.9636 124.54 52.9248M124.538 53.0849C126.014 53.8664 129.482 55.0716 131 55.7743" stroke="#25316D" stroke-width="2" stroke-miterlimit="1.5" stroke-linecap="round" stroke-linejoin="round"/>
<path d="M85.5 168C87.5 164.5 88.3416 161.193 89.5 158C90.9673 153.9 93.1631 147.877 96.0004 144.5" stroke="#25316D" stroke-width="2" stroke-miterlimit="1.5" stroke-linecap="round" stroke-linejoin="round"/>
<path d="M131.859 175.749C134.899 190.083 134.443 206.364 129.773 220.305M141.362 173.735C143.244 180.165 143.499 186.841 143.477 193.502C143.484 202.041 142.675 210.701 139.766 218.795" stroke="#25316D" stroke-width="2" stroke-miterlimit="1.5" stroke-linecap="round" stroke-linejoin="round"/>
<path d="M155.795 127.874C158.516 132.1 163.177 134.68 167.734 136.437C178.973 140.716 194.76 140.223 202.814 130.124M199.874 120.412C200.546 120.412 201.224 120.521 201.869 120.686C204.164 121.453 205.327 123.321 205.896 125.513M149.527 129.191C151.276 131.606 153.183 134.076 155.401 136.051C158.308 138.632 161.838 140.55 165.477 141.868" stroke="#25316D" stroke-width="2" stroke-miterlimit="1.5" stroke-linecap="round" stroke-linejoin="round"/>
<path d="M162.918 120.77C160.443 120.825 157.268 121.922 155.93 124.171" stroke="#25316D" stroke-width="2" stroke-miterlimit="1.5" stroke-linecap="round" stroke-linejoin="round"/>
<path d="M68.971 219.01C70.851 227.471 81.1901 227.505 85.4226 229.351C90.0457 231.402 95.8856 223.029 99.999 226M75.5515 268.366C80.722 258.965 84.3924 255.69 97.1737 254.264" stroke="#25316D" stroke-width="2" stroke-miterlimit="1.5" stroke-linecap="round" stroke-linejoin="round"/>
<path d="M199.461 101.598L161.637 92.1968L162.577 123.22C162.577 123.22 173.586 128.956 181.379 128.86C189.606 128.76 199.461 123.491 199.461 123.491L199.461 101.598Z" fill="white"/>
<path d="M148 72.0002C152 84.0002 155 83.5002 156.5 81.4327C158.133 85.8973 160.028 90.3878 162.001 94.0003C163.501 96.7468 179.501 107 189.075 111.434C200.415 104.811 205.501 98.0003 208.001 95.5003C208.001 93.7508 208.75 88.5819 209.5 81.4327C209.5 78.7564 215.5 81.4327 215.5 69.0002C215.706 66.7114 213 61.5002 210.815 65.5002C210.932 63.6104 211.001 61.9071 211.001 60.5003C230.501 35.5003 208.5 29.5004 201 28.0004C200 17.5004 177.5 24.0003 170.501 31.0003C166.374 33.0978 162.382 39.5732 159.501 43.0003C155 43.5002 153.189 46.9755 151.5 51.0002C151.5 52.5002 153.037 61.3112 154 65.5002C147.5 62.0002 146.839 69.9416 148 72.0002Z" fill="white"/>
<path d="M190.923 67.9646C190.901 71.3122 191.289 74.5493 192.448 77.677C192.732 78.5001 193.038 79.2689 193.426 79.9826C193.453 80.0373 193.819 80.6405 193.803 80.6405C193.552 80.9699 192.35 82.0003 192 82.0003C190.508 82.1101 188.899 81.9941 187.5 81.5003M181.946 65.2213C179.093 63.6298 175.668 63.6298 172.952 65.4956M206.311 66.3734C203.256 64.7272 200.021 64.6721 196.814 65.8245M195.5 91.5004C190 93.5004 184.415 91.7256 181.044 89.3113M163.111 65.8253C163.739 72.081 158.47 65.2446 159 71.5004M171.87 56.9907C170.236 60.9415 166.821 63.7406 162.875 65.1673" stroke="#25316D" stroke-width="2" stroke-miterlimit="1.5" stroke-linecap="round" stroke-linejoin="round"/>
<path d="M159.405 73.8924C159.405 73.8924 160.93 88.7627 161.328 92.7135C161.392 93.3127 161.654 93.8731 162.072 94.3055C168.58 101.329 176.475 106.104 185.71 108.792C186.327 108.957 186.988 108.957 187.589 108.738C194.556 106.104 201.217 102.098 207.517 96.4455C208.053 95.9517 208.386 95.2931 208.446 94.5797C208.949 88.5435 211.293 60.2832 211.293 60.2832" stroke="#25316D" stroke-width="2" stroke-miterlimit="1.5" stroke-linecap="round" stroke-linejoin="round"/>
<path d="M199.641 102.591L199.105 123.336C199.105 123.336 180.144 135.296 163.768 123.336M162.107 95.0195L162.413 119.823" stroke="#25316D" stroke-width="2" stroke-miterlimit="1.5" stroke-linecap="round" stroke-linejoin="round"/>
<path d="M202.602 73.325C202.382 73.3283 202.164 73.2876 201.961 73.2056C201.757 73.1235 201.572 73.0015 201.416 72.8469C201.259 72.6922 201.135 72.5079 201.051 72.3046C200.966 72.1014 200.922 71.8833 200.922 71.6629C200.922 71.4426 200.966 71.2245 201.051 71.0213C201.135 70.818 201.26 70.6337 201.416 70.4791C201.572 70.3245 201.757 70.2026 201.961 70.1205C202.165 70.0385 202.383 69.9979 202.602 70.0012C203.037 70.0077 203.451 70.1856 203.756 70.4966C204.061 70.8077 204.232 71.2267 204.232 71.6633C204.232 72.0999 204.061 72.5189 203.756 72.8299C203.451 73.1408 203.036 73.3187 202.602 73.325ZM179.656 73.325C179.217 73.325 178.796 73.1499 178.485 72.8382C178.175 72.5264 178 72.1036 178 71.6628C178 71.2219 178.175 70.7991 178.485 70.4874C178.796 70.1756 179.217 70.0005 179.656 70.0005C180.09 70.0069 180.505 70.1849 180.81 70.4959C181.116 70.8069 181.287 71.2261 181.287 71.6628C181.287 72.0994 181.116 72.5186 180.81 72.8296C180.505 73.1406 180.09 73.3186 179.656 73.325Z" fill="#25316D"/>
<path fill-rule="evenodd" clip-rule="evenodd" d="M166.371 99.6421C166.371 99.6421 176.693 112.866 186.178 113.58C194.255 114.238 199.287 107.818 199.287 107.818V102.989C199.287 102.989 187.987 109.409 186.178 108.915C184.375 108.366 166.371 99.6421 166.371 99.6421Z" fill="#25316D"/>
<path d="M176.029 54.9565C180.817 57.8762 185.851 60.5817 191.583 60.8319C194.238 60.9459 197.489 60.0886 197.978 56.9992M213.428 52.9477C213.743 53.6521 214.024 54.398 214.128 55.1792C214.618 59.0109 210.808 60.3116 207.661 60.1382C202.592 59.8582 197.978 56.8852 194.799 53.0384M215.839 51.7065C216.783 50.6325 217.657 49.44 218.181 48.1183C221.643 39.4985 213.463 31.9563 206.054 29.5223C202.977 28.511 198.574 27.7162 195.567 29.3724C193.401 30.551 196.51 33.0268 198.085 32.835C200.601 32.5211 201.371 29.2852 200.635 27.2453C200.042 25.6832 198.713 24.6756 197.211 24.0235C194.275 22.7508 191.198 22.8482 188.086 23.3365C181.55 24.3686 175.294 27.7128 170.121 31.6983C168.059 33.2815 165.822 34.9516 164.319 37.1065M160.614 42.9158C159.601 43.0065 158.587 43.2259 157.644 43.5956C150.722 46.2842 152.5 56.0004 153.5 61.5004M160.125 89.5005C159.877 88.7697 159.615 85.2199 157.644 80.5004C157.147 79.311 154 87.5004 149 76.0004C144.5 60.8319 153.5 64.5004 154.5 66.0004M161.208 33.9088C160.823 35.2756 160.579 36.6113 160.544 38.0304C160.544 38.4208 160.544 38.815 160.579 39.2054C160.579 39.2438 160.649 39.5439 160.614 39.5682C160.579 39.5961 160.159 39.4041 160.125 39.3868C159.563 39.1985 159.039 38.9998 158.481 38.8115C156.419 38.0933 154.182 37.4271 151.979 37.3676" stroke="#25316D" stroke-width="2" stroke-miterlimit="1.5" stroke-linecap="round" stroke-linejoin="round"/>
<path d="M153 73.0004C154.065 74.6169 154.247 75.1569 155.238 76.8193" stroke="#25316D" stroke-width="2" stroke-miterlimit="1.5" stroke-linecap="round" stroke-linejoin="round"/>
<path d="M210.012 72.2369C210 70.9362 210.025 69.6358 210.151 68.3592C210.468 65.3245 211.898 62.6751 213.531 64.7224C213.809 65.0596 214.05 65.4929 214.252 65.9746C215.822 69.8283 214.72 75.4885 212.797 78.0417C212 79.1014 210.962 79.9203 210 80.2576" stroke="#25316D" stroke-width="2" stroke-miterlimit="1.5" stroke-linecap="round" stroke-linejoin="round"/>
<path fill-rule="evenodd" clip-rule="evenodd" d="M233.5 237.5C233.5 237.5 236.258 255.792 242.758 254.792C254.792 252.94 274.28 247.966 266.805 203.578C255.925 205.461 233.679 230.202 237.583 220.565C241.487 210.932 256 212.5 256 204.5C256 204.5 255.33 195.93 255 193C253.373 178.557 259.428 149.564 246 144C238.77 141.004 232.275 150.244 232.275 150.244L227.678 145.918C227.678 145.918 225.832 142.266 221.525 138.057C215.95 151.402 211.198 172.18 212.467 203.578L218.5 216C218.79 216.233 232.517 236.575 233.5 237.5Z" fill="#58B9FD"/>
<path d="M264.903 240.988C267.287 232.367 268.352 222.499 267.465 213.965" stroke="#25316D" stroke-width="2" stroke-miterlimit="1.5" stroke-linecap="round" stroke-linejoin="round"/>
<path d="M221.572 184C222.696 186.846 223.494 189.81 224.559 192.63C226.331 197.283 228.323 201.87 230.106 206.517" stroke="#25316D" stroke-width="2" stroke-miterlimit="1.5" stroke-linecap="round" stroke-linejoin="round"/>
<path d="M259 159.5C258 154 253.126 146.987 248.5 143.5C242.588 139.005 235.128 135.679 228 133.432" stroke="#25316D" stroke-width="2" stroke-miterlimit="1.5" stroke-linecap="round" stroke-linejoin="round"/>
<path d="M205.2 284.488L205.2 284.488L205.206 284.5C205.395 284.885 205.352 285.349 205.076 285.711C205.075 285.712 205.075 285.713 205.074 285.713L197.094 296.019H166.97L166.866 295.889L166.223 295.078C165.678 294.392 164.92 293.436 164.068 292.364C162.365 290.218 160.287 287.601 158.788 285.718L158.785 285.714C158.52 285.384 158.458 284.908 158.653 284.492C158.748 284.298 158.894 284.135 159.075 284.021C159.257 283.906 159.467 283.845 159.681 283.843C159.682 283.843 159.683 283.843 159.683 283.843L204.181 283.843H204.183C204.395 283.843 204.603 283.903 204.783 284.017C204.963 284.131 205.108 284.294 205.2 284.488ZM262.569 194.025L262.568 194.027C259.999 208.635 251.517 256.874 249.323 269.361C249.105 270.597 248.033 271.495 246.787 271.495H117.441C116.212 271.495 115.146 270.613 114.91 269.388C113.759 263.364 110.984 248.856 108.113 233.85C105.082 218.005 101.944 201.605 100.501 194.052L100.501 194.051C100.358 193.307 100.553 192.528 101.047 191.917C101.541 191.325 102.272 190.977 103.032 190.977L260.032 190.977L260.033 190.977C260.409 190.976 260.779 191.058 261.12 191.217C261.46 191.377 261.762 191.609 262.003 191.899L262.004 191.9C262.495 192.489 262.702 193.274 262.569 194.025Z" fill="white" stroke="#25316D" stroke-width="2"/>
<path d="M182.092 228.496C190.241 228.496 196.859 235.137 196.859 243.324V296.024H167.324V243.324C167.324 235.136 173.939 228.496 182.092 228.496Z" fill="white" stroke="#25316D" stroke-width="2"/>
<path fill-rule="evenodd" clip-rule="evenodd" d="M188.87 243.265C188.87 239.504 185.834 236.457 182.091 236.457C178.348 236.457 175.314 239.504 175.314 243.265V255.44C175.314 259.194 178.348 262.24 182.091 262.24C185.834 262.24 188.87 259.194 188.87 255.44V243.265Z" fill="#58B9FD"/>
<path d="M120 268.011L106.463 198.382C106.223 197.147 107.169 196 108.426 196H225" stroke="#25316D" stroke-width="2"/>
<path d="M225.332 250.983C225.692 250.983 225.986 251.274 225.986 251.64V257.877C225.986 258.242 225.692 258.533 225.332 258.533H222.875C222.511 258.533 222.221 258.242 222.221 257.877V251.64C222.221 251.274 222.511 250.983 222.875 250.983H225.332Z" fill="#686868"/>
<path d="M234.646 250.983C235.005 250.983 235.3 251.274 235.3 251.64V257.877C235.3 258.242 235.005 258.533 234.646 258.533H232.188C231.825 258.533 231.535 258.242 231.535 257.877V251.64C231.535 251.274 231.825 250.983 232.188 250.983H234.646Z" fill="#686868"/>
<path fill-rule="evenodd" clip-rule="evenodd" d="M511.945 92.5379C511.945 88.9304 509.301 86 506.048 86H389.193C385.939 86 383.295 88.9304 383.295 92.5379V248.462C383.295 252.069 385.939 255 389.193 255H506.048C509.301 255 511.945 252.069 511.945 248.462V92.5379Z" fill="white"/>
<path d="M383.501 86.5157C383.911 95.5634 383.698 173.536 383.587 182.601M383.468 186.874C383.192 193.876 383.288 245.135 383.465 252.141M385.705 86.0065C390.633 85.9656 486.43 86.1223 491.365 86.3267M495.03 86.3113H511.705M511.705 86.4697V123.241M511.945 127.082V252.141M383.834 255C386.58 254.952 508.949 254.264 511.705 254.336M383.82 101.279C388.82 101.379 439.519 101.498 444.525 101.544M448.527 101.428C452.073 101.41 505.931 101.791 509.477 101.825M392.109 90.5738C390.404 91.0404 389.412 93.2321 390.317 94.7903M391.3 95.652C391.841 95.95 392.342 96.105 392.962 96.1169C393.877 96.1373 394.865 95.5924 395.282 94.7613C395.586 94.1551 395.66 93.479 395.598 92.8098C395.538 92.1899 395.317 91.5207 394.845 91.0915C394.477 90.756 394.069 90.6504 393.592 90.5568M407.237 90.4461C406.044 90.3558 404.795 91.0047 404.247 92.0843M404.093 93.4773C404.273 94.6694 404.951 96.0454 406.29 96.168M408.349 90.8974C409.583 91.633 409.828 93.4331 409.285 94.666C409.05 95.1973 408.6 95.7542 408.023 95.9279M420.409 90.5738C421.233 90.4257 422.12 90.6692 422.743 91.238C423.574 91.9975 423.908 93.5284 423.409 94.5502M419.094 91.1818C417.693 92.1933 417.395 94.4736 418.905 95.5396C419.674 96.0811 420.675 96.1033 421.562 95.904" stroke="#25316D" stroke-width="2" stroke-miterlimit="1.5" stroke-linecap="round" stroke-linejoin="round"/>
<path fill-rule="evenodd" clip-rule="evenodd" d="M517.859 160.659C517.859 159.297 517.313 157.991 516.351 157.023C515.381 156.065 514.073 155.52 512.708 155.52H380.297C378.931 155.52 377.622 156.065 376.652 157.023C375.691 157.991 375.145 159.297 375.145 160.659V195.188C375.145 196.55 375.691 197.858 376.652 198.825C377.622 199.784 378.931 200.329 380.297 200.329H512.708C514.073 200.329 515.381 199.784 516.351 198.825C517.313 197.858 517.859 196.55 517.859 195.188V160.659Z" fill="#25316D"/>
<path fill-rule="evenodd" clip-rule="evenodd" d="M414.759 166.069C414.759 165.443 414.636 164.822 414.395 164.243C414.154 163.664 413.802 163.139 413.357 162.696C412.462 161.802 411.248 161.297 409.987 161.297H385.985C385.357 161.297 384.735 161.42 384.155 161.661C383.575 161.901 383.048 162.252 382.604 162.696C382.159 163.139 381.806 163.664 381.566 164.243C381.325 164.822 381.201 165.442 381.201 166.069V190.012C381.201 191.271 381.708 192.481 382.604 193.374C383.048 193.817 383.575 194.169 384.155 194.409C384.735 194.65 385.357 194.773 385.985 194.774H409.987C411.248 194.774 412.462 194.267 413.357 193.374C414.253 192.481 414.759 191.271 414.759 190.012V166.069Z" fill="white"/>
<path fill-rule="evenodd" clip-rule="evenodd" d="M414.451 120.424C414.451 119.457 414.065 118.535 413.383 117.854C412.703 117.174 411.78 116.79 410.816 116.789H392.533C391.563 116.789 390.639 117.174 389.957 117.854C389.618 118.191 389.35 118.592 389.166 119.033C388.983 119.474 388.889 119.946 388.889 120.424V138.663C388.889 139.621 389.275 140.543 389.957 141.223C390.295 141.561 390.697 141.829 391.139 142.012C391.581 142.195 392.054 142.289 392.533 142.289H410.816C411.777 142.289 412.701 141.904 413.383 141.223C414.065 140.545 414.449 139.624 414.451 138.663V120.424ZM414.451 216.751C414.451 215.784 414.065 214.862 413.383 214.181C412.701 213.502 411.777 213.116 410.816 213.116H392.533C391.563 213.116 390.639 213.502 389.957 214.181C389.618 214.518 389.35 214.919 389.166 215.36C388.983 215.801 388.889 216.274 388.889 216.751V234.99C388.889 235.949 389.275 236.871 389.957 237.552C390.64 238.233 391.567 238.616 392.533 238.617H410.816C411.777 238.617 412.701 238.231 413.383 237.552C414.065 236.873 414.449 235.952 414.451 234.99V216.751Z" fill="#58B9FD"/>
<path fill-rule="evenodd" clip-rule="evenodd" d="M388.136 178.175L395.031 185.059C395.571 185.592 396.438 185.592 396.971 185.059L409.057 173.003C409.185 172.877 409.287 172.726 409.357 172.56C409.426 172.394 409.462 172.216 409.462 172.036C409.462 171.856 409.426 171.677 409.357 171.511C409.287 171.345 409.185 171.194 409.057 171.068C408.93 170.94 408.779 170.838 408.612 170.769C408.446 170.699 408.267 170.664 408.087 170.664C407.906 170.664 407.727 170.699 407.561 170.769C407.394 170.838 407.243 170.94 407.116 171.068L396 182.157L390.076 176.239C389.536 175.707 388.669 175.707 388.136 176.239C388.007 176.366 387.905 176.516 387.836 176.683C387.766 176.849 387.73 177.027 387.73 177.207C387.73 177.387 387.766 177.565 387.836 177.731C387.905 177.897 388.007 178.048 388.136 178.175Z" fill="#CB2027"/>
<path fill-rule="evenodd" clip-rule="evenodd" d="M393.966 226.211L399.218 231.455C399.476 231.711 399.825 231.855 400.189 231.855C400.552 231.855 400.901 231.711 401.159 231.455L410.365 222.271C410.623 222.014 410.767 221.666 410.767 221.303C410.767 220.939 410.623 220.591 410.365 220.334C410.108 220.077 409.759 219.934 409.395 219.934C409.031 219.934 408.682 220.077 408.425 220.334L400.188 228.552L395.907 224.273C395.649 224.017 395.3 223.873 394.937 223.873C394.573 223.873 394.224 224.017 393.966 224.273C393.709 224.53 393.564 224.878 393.564 225.242C393.564 225.605 393.709 225.954 393.966 226.211Z" fill="white"/>
<path d="M404.779 132.37C404.779 132.897 404.642 133.393 404.368 133.86C404.105 134.316 403.71 134.696 403.183 135C402.666 135.294 402.052 135.466 401.343 135.517V136.749H400.37V135.502C399.356 135.411 398.54 135.106 397.922 134.59C397.304 134.062 396.984 133.353 396.964 132.461H399.245C399.306 133.191 399.681 133.632 400.37 133.784V130.88C399.64 130.697 399.052 130.515 398.606 130.332C398.16 130.15 397.775 129.856 397.451 129.451C397.126 129.045 396.964 128.493 396.964 127.793C396.964 126.911 397.278 126.192 397.907 125.634C398.545 125.077 399.366 124.758 400.37 124.676V123.445H401.343V124.676C402.316 124.758 403.091 125.051 403.669 125.558C404.257 126.065 404.586 126.764 404.657 127.656H402.362C402.331 127.363 402.225 127.109 402.042 126.896C401.87 126.673 401.637 126.516 401.343 126.425V129.299C402.103 129.491 402.701 129.679 403.137 129.861C403.583 130.033 403.968 130.322 404.292 130.728C404.617 131.123 404.779 131.67 404.779 132.37ZM399.184 127.687C399.184 128.021 399.285 128.295 399.488 128.508C399.691 128.711 399.985 128.878 400.37 129.01V126.379C400.005 126.43 399.716 126.567 399.503 126.79C399.29 127.013 399.184 127.312 399.184 127.687ZM401.343 133.814C401.728 133.743 402.027 133.586 402.24 133.343C402.463 133.1 402.574 132.806 402.574 132.461C402.574 132.126 402.468 131.858 402.255 131.655C402.042 131.452 401.738 131.285 401.343 131.153V133.814Z" fill="white"/>
<path fill-rule="evenodd" clip-rule="evenodd" d="M451.067 124.808C451.067 124.65 451.036 124.493 450.975 124.347C450.915 124.202 450.826 124.069 450.713 123.958C450.601 123.846 450.468 123.758 450.321 123.698C450.175 123.638 450.018 123.608 449.859 123.608H423.296C422.638 123.608 422.1 124.143 422.1 124.808C422.1 125.465 422.638 126.007 423.296 126.007H449.859C450.529 126.007 451.067 125.465 451.067 124.808ZM451.067 221.137C451.067 220.474 450.529 219.938 449.859 219.938H423.296C422.638 219.938 422.1 220.474 422.1 221.137C422.1 221.796 422.638 222.337 423.296 222.337H449.859C450.529 222.337 451.067 221.796 451.067 221.137Z" fill="#58B9FD"/>
<path fill-rule="evenodd" clip-rule="evenodd" d="M462.05 173.344C462.05 172.497 461.361 171.817 460.509 171.817H424.859C424.007 171.817 423.332 172.497 423.332 173.344C423.332 174.181 424.007 174.87 424.859 174.87H460.509C461.361 174.87 462.05 174.181 462.05 173.344Z" fill="white"/>
<path fill-rule="evenodd" clip-rule="evenodd" d="M470.916 132.366C470.917 132.209 470.886 132.053 470.825 131.907C470.765 131.761 470.676 131.629 470.565 131.517C470.453 131.406 470.32 131.318 470.174 131.258C470.028 131.197 469.872 131.167 469.714 131.167H423.303C423.145 131.167 422.988 131.197 422.842 131.257C422.696 131.318 422.563 131.406 422.451 131.517C422.34 131.629 422.251 131.761 422.191 131.907C422.13 132.053 422.099 132.209 422.1 132.366C422.1 132.684 422.227 132.989 422.453 133.214C422.678 133.439 422.984 133.565 423.303 133.566H469.714C470.032 133.565 470.338 133.439 470.563 133.214C470.789 132.989 470.916 132.684 470.916 132.366ZM470.916 228.696C470.916 228.031 470.38 227.497 469.714 227.497H423.303C423.145 227.497 422.988 227.527 422.842 227.587C422.696 227.648 422.563 227.736 422.451 227.847C422.339 227.959 422.251 228.091 422.19 228.237C422.13 228.383 422.099 228.539 422.1 228.696C422.1 229.353 422.636 229.896 423.303 229.896H469.714C470.38 229.896 470.916 229.353 470.916 228.696Z" fill="#58B9FD"/>
<path fill-rule="evenodd" clip-rule="evenodd" d="M488.563 182.963C488.563 182.557 488.39 182.162 488.118 181.876C487.825 181.595 487.435 181.437 487.029 181.435H424.848C424.428 181.435 424.032 181.591 423.76 181.876C423.463 182.162 423.314 182.557 423.314 182.963C423.314 183.366 423.463 183.752 423.76 184.038C424.032 184.323 424.428 184.488 424.848 184.488H487.029C487.425 184.488 487.821 184.323 488.118 184.038C488.39 183.752 488.563 183.366 488.563 182.963Z" fill="white"/>
<path fill-rule="evenodd" clip-rule="evenodd" d="M362.549 147.515L369.828 154.601C370.015 154.777 370.297 154.777 370.475 154.59C370.652 154.413 370.654 154.118 370.465 153.952L363.186 146.866C362.999 146.69 362.717 146.69 362.54 146.867C362.362 147.055 362.362 147.339 362.549 147.515ZM373.346 142.333L375.263 149.56C375.324 149.801 375.587 149.952 375.826 149.879C376.068 149.818 376.209 149.57 376.148 149.329L374.231 142.102C374.158 141.863 373.907 141.711 373.668 141.783C373.426 141.844 373.274 142.094 373.346 142.333ZM360.498 162.017L368.612 161.381C368.859 161.357 369.048 161.133 369.037 160.886C369.013 160.639 368.789 160.45 368.541 160.462L360.427 161.11C360.367 161.112 360.308 161.127 360.253 161.153C360.199 161.178 360.15 161.215 360.11 161.26C360.071 161.305 360.041 161.358 360.022 161.415C360.003 161.473 359.996 161.533 360.002 161.593C360.025 161.852 360.238 162.041 360.498 162.017Z" fill="#25316D"/>
<path fill-rule="evenodd" clip-rule="evenodd" d="M494.203 134.898C492.121 134.898 490.438 136.579 490.438 138.637C490.438 140.713 492.121 142.393 494.203 142.393C496.285 142.393 497.968 140.713 497.968 138.637C497.968 136.579 496.285 134.898 494.203 134.898ZM494.203 135.805C495.774 135.805 497.042 137.088 497.042 138.637C497.042 140.203 495.774 141.487 494.203 141.487C492.632 141.487 491.366 140.203 491.366 138.637C491.366 137.088 492.632 135.805 494.203 135.805Z" fill="#58B9FD"/>
</svg>
