<svg width="588" height="340" viewBox="0 0 588 340" fill="none" xmlns="http://www.w3.org/2000/svg">
<rect x="390.451" y="106.923" width="95.0804" height="126.774" rx="5.28224" fill="white"/>
<path d="M472.94 202.441C487.985 202.441 500.182 190.244 500.182 175.198C500.182 160.153 487.985 147.956 472.94 147.956C457.894 147.956 445.697 160.153 445.697 175.198C445.697 190.244 457.894 202.441 472.94 202.441Z" fill="white" stroke="#CB2027" stroke-width="2"/>
<path fill-rule="evenodd" clip-rule="evenodd" d="M472.939 200.86C458.766 200.86 447.277 189.371 447.277 175.198C447.277 161.025 458.766 149.535 472.939 149.535C487.112 149.535 498.602 161.025 498.602 175.198C498.602 189.371 487.112 200.86 472.939 200.86Z" fill="white"/>
<path d="M450 175C450 187.703 460.297 198 473 198C485.703 198 496 187.703 496 175C496 162.297 485.703 152 473 152C460.297 152 450 162.297 450 175Z" stroke="#25316D" stroke-width="2"/>
<path d="M471.717 172.928C470.373 172.928 469.273 171.907 469.273 170.658C469.273 169.41 470.373 168.389 471.717 168.389H474.161C475.505 168.389 476.605 169.41 476.605 170.658C476.605 171.907 477.705 172.928 479.049 172.928C480.393 172.928 481.493 171.907 481.493 170.658C481.493 167.254 478.805 164.531 475.383 163.963V161.581C475.383 160.332 474.283 159.311 472.939 159.311C471.595 159.311 470.495 160.332 470.495 161.581V163.963C467.073 164.531 464.385 167.254 464.385 170.658C464.385 174.403 467.684 177.467 471.717 177.467H474.161C475.505 177.467 476.605 178.488 476.605 179.736C476.605 180.984 475.505 182.006 474.161 182.006H471.717C470.373 182.006 469.273 180.984 469.273 179.736C469.273 178.488 468.173 177.467 466.829 177.467C465.485 177.467 464.385 178.488 464.385 179.736C464.385 183.14 467.073 185.864 470.495 186.431V188.814C470.495 190.062 471.595 191.084 472.939 191.084C474.283 191.084 475.383 190.062 475.383 188.814V186.431C478.805 185.864 481.493 183.14 481.493 179.736C481.493 175.992 478.194 172.928 474.161 172.928H471.717Z" fill="#25316D"/>
<path d="M495.381 198.231L519.469 220.976C521.184 222.595 523.857 222.621 525.603 221.036V221.036C527.512 219.302 527.584 216.324 525.76 214.501L502.631 191.385" stroke="#25316D" stroke-width="2" stroke-linecap="round"/>
<path d="M493.454 134.655V106.923C493.454 102.547 489.907 99 485.531 99H390.451C386.075 99 382.527 102.547 382.527 106.923V233.697C382.527 238.073 386.075 241.621 390.451 241.621H485.531C489.907 241.621 493.454 238.073 493.454 233.697V228.943M409.51 129.109H469.47" stroke="#25316D" stroke-width="2" stroke-linecap="round"/>
<path d="M408.939 162.387H424.786" stroke="#25316D" stroke-width="2" stroke-linecap="round"/>
<path d="M408.939 194.08H422.145" stroke="#25316D" stroke-width="2" stroke-linecap="round"/>
<rect x="406.299" y="209.927" width="42.258" height="15.8467" rx="5.28224" fill="#CB2027"/>
<path d="M45 250.526H295" stroke="#25316D" stroke-width="2" stroke-linecap="round" stroke-linejoin="round"/>
<path d="M101.086 259.733L101.23 259.628L101.329 259.48C102.104 258.318 103.501 257.625 105.439 257.411C107.373 257.198 109.708 257.483 112.107 258.143C114.497 258.801 116.895 259.814 118.938 261.006C120.996 262.206 122.625 263.545 123.548 264.821C127.463 270.232 126.755 277.111 122.419 280.276C121.421 281.003 119.804 281.456 117.742 281.57C115.707 281.682 113.358 281.456 111.01 280.943C108.664 280.43 106.353 279.637 104.392 278.635C102.417 277.627 100.866 276.444 99.9566 275.188C96.0419 269.777 96.7496 262.898 101.086 259.733Z" fill="white" stroke="#25316D" stroke-width="2"/>
<path d="M123.968 278.47C122.715 277.06 120.02 274.24 119.268 274.24" stroke="#25316D" stroke-width="2"/>
<path d="M183.5 262.5C189.5 276 199 304.037 175 301.5C161.507 300.074 164.795 291.54 168 289.5C173.5 286 175.854 288.358 178 292C181.626 298.153 175.775 306.065 161.5 303.5C138.504 299.368 149 294.5 139.5 287C136.34 284.505 128.761 282.64 124.5 280.5" stroke="#303030" stroke-width="2" stroke-linecap="round"/>
<path d="M120.809 269.343L120.804 269.347C120.514 269.52 120.128 269.451 119.913 269.173C118.988 267.958 117.454 266.044 115.639 264.153C113.834 262.272 111.697 260.355 109.564 259.192L108.563 260.904C108.555 260.917 108.555 260.917 108.554 260.917L108.555 260.917L108.556 260.918L108.571 260.927C108.585 260.936 108.607 260.951 108.637 260.971C108.697 261.01 108.787 261.072 108.902 261.154C109.132 261.317 109.46 261.562 109.838 261.88C110.601 262.519 111.548 263.433 112.333 264.555C113.118 265.677 113.711 266.965 113.832 268.363C113.949 269.73 113.623 271.286 112.44 272.999C111.735 273.831 110.494 274.266 109.936 274.45L109.824 274.486L109.724 274.548L109.724 274.548L109.723 274.548L109.722 274.549L109.713 274.554L109.677 274.576C109.665 274.584 109.65 274.593 109.632 274.603C109.605 274.619 109.572 274.639 109.533 274.662C109.407 274.737 109.223 274.844 108.996 274.97C108.541 275.225 107.922 275.555 107.256 275.865C106.584 276.178 105.893 276.456 105.29 276.62C104.633 276.798 104.284 276.782 104.171 276.741L103.529 276.508L103.083 277.016L103.083 277.016L103.082 277.017C103.082 277.018 103.081 277.019 103.08 277.019C103.078 277.022 103.074 277.026 103.069 277.031C103.065 277.035 103.06 277.04 103.055 277.046C103.029 277.072 102.987 277.114 102.931 277.165C102.816 277.269 102.648 277.407 102.44 277.538C102.02 277.802 101.516 277.991 100.983 277.929C100.981 277.925 100.879 277.888 100.661 277.717C100.421 277.53 100.13 277.253 99.7983 276.897C99.1376 276.187 98.3935 275.245 97.6856 274.287C96.981 273.334 96.3275 272.385 95.8492 271.674C95.6104 271.318 95.416 271.023 95.2816 270.817C95.2144 270.714 95.1623 270.634 95.1271 270.579L95.0874 270.518L95.0775 270.502L95.0752 270.499L95.0747 270.498L95.0746 270.498L95.0746 270.498L94.8833 270.198L94.546 270.086L94.5459 270.086L94.5458 270.086L94.5451 270.086L94.5402 270.085L94.5181 270.077C94.4981 270.07 94.4674 270.06 94.4268 270.046C94.3455 270.018 94.2246 269.976 94.0694 269.92C93.7589 269.808 93.3118 269.641 92.7713 269.425C91.6884 268.993 90.2408 268.365 88.7702 267.583C87.2934 266.798 85.8288 265.876 84.6897 264.862C83.5385 263.837 82.8311 262.818 82.651 261.853L82.6487 261.837C82.6459 261.817 82.6414 261.784 82.636 261.74C82.6253 261.651 82.6109 261.514 82.5981 261.337C82.5724 260.983 82.5536 260.468 82.5833 259.847C82.6431 258.6 82.8973 256.952 83.6598 255.306C84.417 253.672 85.6814 252.025 87.797 250.753C89.8858 249.498 92.8601 248.576 97.0997 248.452C97.1068 248.455 97.1141 248.458 97.1216 248.462C97.2627 248.521 97.4724 248.611 97.7422 248.73C98.282 248.968 99.0619 249.323 100.014 249.791C101.921 250.726 104.512 252.104 107.252 253.876C112.775 257.448 118.718 262.504 121.057 268.614C121.152 268.862 121.067 269.167 120.809 269.343Z" fill="white" stroke="#25316D" stroke-width="2"/>
<path fill-rule="evenodd" clip-rule="evenodd" d="M113.5 138.423C131 177.923 99.0005 212.923 99.0005 212.923C99.0005 212.923 97.9907 219.544 97.5005 222.423C95.6671 233.192 100.5 246.423 100.5 246.423C100.5 246.423 95.5005 252.423 85.3045 261.609C85.0961 262.041 81.3045 263.609 80.3045 262.609C80.3045 262.609 80.3568 253.648 78.5005 247.423C70.5097 220.631 74.5005 205.423 74.5005 205.423C80.6111 191.322 89.4432 170.325 96.0005 155.923C101.966 142.812 105.621 147.501 113.5 138.423Z" fill="#58B9FD"/>
<path d="M91 167.923C93 164.423 94.8416 161.117 96 157.923C97.4673 153.823 101.664 147.901 104.501 144.524" stroke="#25316D" stroke-width="2" stroke-miterlimit="1.5" stroke-linecap="round" stroke-linejoin="round"/>
<path d="M131.859 165.172C134.899 179.506 134.443 195.787 129.773 209.728M141.362 163.158C143.244 169.588 143.499 176.264 143.477 182.925C143.484 191.464 142.675 200.125 139.766 208.218" stroke="#25316D" stroke-width="2" stroke-miterlimit="1.5" stroke-linecap="round" stroke-linejoin="round"/>
<path d="M82.4996 208.423C84.584 217.804 92.5865 209.513 97.9995 213.423M80.4997 248.923C83.9997 246.923 83.7184 242.35 96.4997 240.923" stroke="#25316D" stroke-width="2" stroke-miterlimit="1.5" stroke-linecap="round" stroke-linejoin="round"/>
<path d="M223.5 122.423C229.1 128.823 226.833 136.756 225 139.923C220.5 134.423 203 131.423 201 130.423C199.574 129.71 194.337 126.562 191.091 124.588C192.185 125.811 190.681 128.178 179 131.423C164.6 135.423 156 128.09 153.5 123.923L143 129.423L124 133.923C123.667 134.923 121.7 136.323 116.5 133.923C110 130.923 111.5 122.423 113 118.923C114.5 115.423 132 102.923 137.5 98.4231C141.9 94.8231 137.667 77.5898 135 69.4231C134.667 61.2565 138.8 42.6232 158 33.4232C182 21.9232 201.5 36.4232 202 36.9232C202.5 37.4232 202.5 39.4232 208 50.4232C212.053 58.5288 211.892 63.8629 211.19 65.9567C211.588 66.5205 212.42 68.0658 214 71.4231C218 79.9231 214 83.4231 210 87.9231C206 92.4231 209 92.9231 208 95.4231C207 97.9231 207 103.923 209 107.923C211 111.923 216.5 114.423 223.5 122.423Z" fill="white"/>
<path fill-rule="evenodd" clip-rule="evenodd" d="M181.934 136.698C181.505 136.948 181.075 137.258 180.732 137.622C178.7 139.694 179.987 142.867 180.846 145.174C181.047 145.784 181.275 146.396 181.505 146.998C181.791 147.712 182.105 148.418 182.42 149.119C183.164 150.743 183.966 153.421 186.284 153.008C188.347 152.636 187.145 150.216 186.486 149.185C184.826 146.662 183.508 143.754 183.022 140.76C182.792 139.35 182.908 137.689 184.366 137.011" fill="#DAE8F1"/>
<path fill-rule="evenodd" clip-rule="evenodd" d="M184.024 151.434C180.991 155.929 179.96 161.037 180.303 166.378C180.417 168.375 180.619 170.46 181.276 172.362C182.106 174.758 182.193 177.105 184.024 178.886C184.969 179.806 188.232 180.158 188.805 178.886C189.692 176.907 187.859 174.428 187.203 172.63C186.143 169.709 185.885 166.518 186.257 163.439C186.745 159.115 190.209 154.75 187.174 150.588" fill="#DAE8F1"/>
<path fill-rule="evenodd" clip-rule="evenodd" d="M227.814 141.965C227.814 141.965 216.204 131.823 193.988 129.513C193.988 129.513 192.871 125.789 190.123 124.778C190.123 124.778 184.998 132.196 173.776 132.83C162.527 133.467 157.001 127.084 154.11 124.457C154.11 124.457 152.164 124.843 150.789 126.191L149.902 126.997C149.902 126.997 127.173 132.509 120.359 135.043C113.546 137.573 112 139.182 112 139.182V187.423C112 187.423 118.692 207.852 120.359 221.423C122.074 235.377 122 250.423 122 250.423L162 254.923L184.597 179.785C184.597 179.785 179.988 172.862 179.988 166.152C179.96 159.438 182.764 153.647 183.938 150.816C183.938 150.816 179.016 142.455 179.846 138.568C180.676 134.679 186.086 137.01 188.72 138.865C191.325 140.718 195.474 144.92 195.474 144.92C195.474 144.92 203.061 140.752 211.666 142.369C220.26 143.986 224.665 145.841 224.665 145.841L227.814 141.965ZM256 179.785C256 179.785 250.117 160.441 235.97 148.715L234.922 153.597C234.922 153.597 238.449 157.756 238.298 163.921C238.146 170.088 236.274 175.288 231.874 179.785H256Z" fill="#58B9FD"/>
<path d="M185.771 37.8193C186.717 38.401 187.518 39.1251 188.234 39.9712C192.613 45.0784 190.237 52.6609 185.342 56.4257M172.459 39.9916C176.354 44.1306 176.925 51.2514 172.402 55.1606" stroke="#25316D" stroke-width="2" stroke-miterlimit="1.5" stroke-linecap="round" stroke-linejoin="round"/>
<path d="M202.26 57.0356C203.292 56.2505 204.178 55.3617 204.951 54.3305C208.586 49.4125 206.698 43.0707 203.062 38.6855C199.311 34.1804 194.188 31.8291 188.519 30.804C186.172 30.381 182.853 30.1776 179.932 30.2549M208.387 50.9013C211.944 55.319 212.786 61.4736 210.886 66.7598M163.042 44.529C161.897 47.7629 161.696 51.1982 162.355 54.5603C163.071 58.3699 164.73 61.7706 164.56 65.7591C164.415 68.9605 163.042 71.7958 161.039 74.2345M178.958 68.4256C176.354 66.7801 173.348 66.3815 170.629 68.0005M199.97 69.1395C197.251 67.8541 193.901 67.3924 191.182 68.9809M186.888 71.629C185.428 75.3796 185.544 79.9946 186.831 83.796C187.146 84.7214 187.547 85.6387 188.062 86.4747C188.176 86.6964 188.806 87.2801 188.834 87.5079C188.863 87.5974 187.689 87.8801 187.547 87.9127C186.144 88.2767 184.712 88.5411 183.225 88.5249M186.774 98.2552C183.166 99.0789 178.586 98.2694 176.783 94.6043M208.273 95.1799C207.614 97.0124 207.185 98.8877 207.099 100.83C206.755 110.026 215.418 113.967 221.166 119.402C225.274 123.283 227.371 128.542 226.842 134.172C226.676 135.958 226.31 137.736 225.549 139.373M203.863 106.454C204.321 109.527 205.295 112.454 207.384 114.811C210.339 118.106 214.486 119.825 216.699 123.838M217.93 126.177C218.44 127.092 218.853 128.093 219.081 129.118M160.923 31.9553C138.108 39.3872 134.758 58.3983 135.932 73.9904C136.534 81.8719 140.484 90.268 137.651 98.0864C136.333 101.658 132.84 104.243 129.806 106.287C123.881 110.29 116.783 113.18 112.975 119.648M235.027 154.034C240.059 160.609 239.518 171.78 233.394 177.493M235.173 152.392C236.309 148.92 237.202 145.21 237.551 141.566C237.672 140.325 237.763 138.285 236.235 137.807C234.382 137.227 232.57 138.002 231.1 139.137C228.777 140.925 226.94 143.242 224.766 145.19M224.666 145.841C222.895 144.865 220.983 144.344 219.053 143.77C211.519 141.537 202.948 141.618 195.648 144.718M194.216 143.53C191.639 140.911 188.519 138.238 185.027 137.001C183.538 136.483 181.535 136.21 180.39 137.514C179.387 138.661 179.702 140.502 180.046 141.838C180.876 145.005 182.279 148.001 183.939 150.816M183.253 153.055C178.958 160.011 179.074 170.264 183.31 177.22M192.156 109.159C191.383 114.435 190.724 119.697 189.809 124.948M157.146 99.3982C156.172 107.591 154.884 115.731 153.796 123.907M188.434 127.049C180.103 133.519 169.254 134.966 160.065 129.596C157.803 128.276 155.629 126.624 154.111 124.456" stroke="#25316D" stroke-width="2" stroke-miterlimit="1.5" stroke-linecap="round" stroke-linejoin="round"/>
<path d="M192.755 126.885C195.074 129.48 195.762 133.977 193.386 136.79C192.298 138.057 190.752 138.737 189.149 139.082M178.5 144.011C174.007 148.497 165.017 147.192 162.126 141.493M151.906 125.307C147.155 128.331 144.893 134.954 148.843 139.558C149.587 140.419 150.474 141.147 151.448 141.727C154.654 143.64 158.232 143.287 161.638 142.294M139.597 133.713C132.039 135.281 124.94 138.289 118.385 142.386M133.3 141.204C131.524 141.698 129.291 142.119 127.773 143.264" stroke="#25316D" stroke-width="2" stroke-miterlimit="1.5" stroke-linecap="round" stroke-linejoin="round"/>
<path d="M153.481 128.516C155.828 131.685 159.379 134.132 163.128 135.336C164.33 135.718 165.591 136.119 166.85 136.16M214.102 169.469C213.799 170.431 213.264 171.418 212.336 171.9C210.63 172.787 209.131 171.058 209.017 169.498M203.91 169.469C204.213 170.431 204.748 171.418 205.675 171.9C207.382 172.787 208.883 171.058 208.997 169.498M206.469 61.3721C206.469 73.6387 205.352 85.9134 203.349 98.1943C203.09 99.6628 202.374 101.015 201.315 102.042C195.16 107.833 188.175 110.916 180.56 112.005C179.989 112.082 179.417 112.035 178.872 111.87C170.944 109.432 163.701 105.146 157.146 99.1075M208.157 69.1111C209.847 71.1715 210.457 73.8197 210.634 76.4191C210.799 78.8598 210.543 81.4306 209.273 83.5805C208.273 85.2768 206.727 86.5643 205.094 87.6199M206.841 65.0514C208.301 65.7247 209.703 66.5403 210.86 67.7057C213.404 70.2949 214.673 74.5316 214.879 78.0848" stroke="#25316D" stroke-width="2" stroke-miterlimit="1.5" stroke-linecap="round" stroke-linejoin="round"/>
<path d="M214.223 81.7397C212.589 86.4319 209.244 89.9669 204.348 91.169M154.883 68.0371C161.495 72.0419 163.299 81.6888 160.981 88.5818C160.322 90.5425 159.435 92.4646 158.003 93.9839" stroke="#25316D" stroke-width="2" stroke-miterlimit="1.5" stroke-linecap="round" stroke-linejoin="round"/>
<path d="M149.989 67.8136C154.569 70.3377 157.661 76.2503 157.862 81.449M158.118 84.5162C157.919 88.5311 157.717 92.7719 155.199 96.1055M149.415 67.7444C143.891 70.1953 141.342 75.8598 141.43 81.7012M154.827 96.5062C148.241 96.2581 142.632 91.281 141.745 84.7013M176.727 29.7954C163.014 36.8206 155.456 48.6479 155.199 66.1702" stroke="#25316D" stroke-width="2" stroke-miterlimit="1.5" stroke-linecap="round" stroke-linejoin="round"/>
<path d="M165.236 31.0871C153.27 38.2343 148.517 49.6792 148.289 66.1703M173.117 29.4233C170.026 29.643 167.622 30.4851 165.246 31.0851" stroke="#25316D" stroke-width="2" stroke-miterlimit="1.5" stroke-linecap="round" stroke-linejoin="round"/>
<path d="M195.668 78.0909C194.561 78.0909 193.664 77.1939 193.664 76.0875C193.664 74.979 194.561 74.082 195.668 74.082C196.774 74.082 197.671 74.979 197.671 76.0875C197.671 77.1939 196.774 78.0909 195.668 78.0909ZM175.939 78.0909C174.832 78.0909 173.935 77.1939 173.935 76.0875C173.935 74.979 174.832 74.082 175.939 74.082C177.045 74.082 177.942 74.979 177.942 76.0875C177.942 77.1939 177.045 78.0909 175.939 78.0909ZM223.763 164.828C222.445 164.828 221.377 163.76 221.377 162.442C221.377 161.124 222.445 160.054 223.763 160.054C225.081 160.054 226.15 161.124 226.15 162.442C226.15 163.76 225.081 164.828 223.763 164.828ZM196.321 164.828C195.003 164.828 193.935 163.76 193.935 162.442C193.935 161.124 195.003 160.054 196.321 160.054C197.639 160.054 198.707 161.124 198.707 162.442C198.707 163.76 197.639 164.828 196.321 164.828Z" fill="#25316D"/>
<path d="M178.974 111.913C182.786 112.411 192.115 108.856 192.115 108.856L191.743 112.765C185.794 116.144 178.974 116.475 178.974 116.475C167.505 112.824 160.006 101.957 160.006 101.957C163.197 104.087 175.193 111.411 178.974 111.913Z" fill="#25316D"/>
<path d="M113 128.635C113.933 130.928 116.089 133.504 118.668 133.953" stroke="#25316D" stroke-width="2" stroke-miterlimit="1.5" stroke-linecap="round" stroke-linejoin="round"/>
<path d="M215.198 273.911L215.198 273.911L215.204 273.923C215.393 274.308 215.35 274.772 215.074 275.135C215.073 275.135 215.073 275.136 215.072 275.137L207.092 285.443H176.968L176.864 285.312L176.221 284.502C175.676 283.815 174.918 282.86 174.066 281.787C172.363 279.641 170.285 277.025 168.787 275.141L168.783 275.137C168.518 274.807 168.456 274.331 168.651 273.915C168.746 273.721 168.892 273.558 169.073 273.444C169.255 273.329 169.465 273.268 169.68 273.267C169.68 273.267 169.681 273.267 169.681 273.267L214.179 273.267H214.181C214.393 273.266 214.601 273.326 214.781 273.44C214.962 273.554 215.106 273.717 215.198 273.911ZM272.567 183.448L272.566 183.451C269.997 198.058 261.515 246.298 259.321 258.784C259.103 260.021 258.031 260.918 256.785 260.918H127.439C126.21 260.918 125.144 260.037 124.908 258.812C123.757 252.788 120.982 238.28 118.111 223.274C115.08 207.429 111.942 191.029 110.499 183.475L110.499 183.474C110.356 182.731 110.551 181.951 111.045 181.341C111.539 180.749 112.27 180.4 113.03 180.4L270.03 180.4L270.032 180.4C270.407 180.399 270.777 180.481 271.118 180.641C271.458 180.8 271.76 181.033 272.001 181.322L272.002 181.323C272.493 181.912 272.7 182.697 272.567 183.448Z" fill="white" stroke="#25316D" stroke-width="2"/>
<path d="M192.09 217.919C200.239 217.919 206.857 224.56 206.857 232.747V285.447H177.322V232.747C177.322 224.56 183.937 217.919 192.09 217.919Z" fill="white" stroke="#25316D" stroke-width="2"/>
<path fill-rule="evenodd" clip-rule="evenodd" d="M198.868 232.689C198.868 228.927 195.832 225.88 192.089 225.88C188.346 225.88 185.312 228.927 185.312 232.689V244.863C185.312 248.617 188.346 251.664 192.089 251.664C195.832 251.664 198.868 248.617 198.868 244.863V232.689Z" fill="#58B9FD"/>
<path d="M129.998 257.434L116.461 187.805C116.221 186.57 117.167 185.423 118.424 185.423H234.998" stroke="#25316D" stroke-width="2"/>
<path d="M235.33 240.406C235.69 240.406 235.984 240.698 235.984 241.063V247.3C235.984 247.665 235.69 247.957 235.33 247.957H232.873C232.509 247.957 232.219 247.665 232.219 247.3V241.063C232.219 240.698 232.509 240.406 232.873 240.406H235.33Z" fill="#686868"/>
<path d="M244.644 240.406C245.003 240.406 245.298 240.698 245.298 241.063V247.3C245.298 247.665 245.003 247.957 244.644 247.957H242.187C241.823 247.957 241.533 247.665 241.533 247.3V241.063C241.533 240.698 241.823 240.406 242.187 240.406H244.644Z" fill="#686868"/>
<path d="M101.346 33.4233C101.388 35.6564 101.536 37.9322 101.641 40.1656M101.599 47.8096V54.4233M93 43.9449H97.9573M104.803 43.9018C106.531 43.773 108.263 43.6005 110 43.6435" stroke="#25316D" stroke-width="2" stroke-miterlimit="1.5" stroke-linecap="round" stroke-linejoin="round"/>
</svg>
