<svg width="24" height="24" viewBox="0 0 24 24" fill="none" xmlns="http://www.w3.org/2000/svg">
<g clip-path="url(#clip0_861_12016)">
<path d="M8.07889 19.8204L6.11003 20.8047L2.81948 17.5141L3.80363 15.5458C3.85225 15.4485 3.85628 15.335 3.81469 15.2346C3.77309 15.1341 3.68996 15.0567 3.58684 15.0223L1.5 14.3265V9.67294L3.58777 8.97713C3.69091 8.94278 3.77405 8.86534 3.81566 8.76491C3.85726 8.66445 3.85324 8.5509 3.80462 8.45366L2.82067 6.48578L6.11123 3.19515L8.07908 4.17914C8.17631 4.22777 8.28986 4.2318 8.39029 4.1902C8.49071 4.1486 8.56815 4.06546 8.60254 3.96232L9.29831 1.875H13.9519L14.6476 3.96226C14.682 4.06539 14.7594 4.14853 14.8599 4.19013C14.9603 4.23173 15.0738 4.22771 15.171 4.1791L17.1386 3.19547L20.4291 6.48604L19.4453 8.45378C19.3967 8.55101 19.3926 8.66456 19.4342 8.76503C19.4759 8.86545 19.559 8.94289 19.6621 8.97728L21.75 9.67301V14.3267L19.662 15.0226C19.5589 15.057 19.4758 15.1344 19.4342 15.2349C19.3926 15.3353 19.3966 15.4488 19.4452 15.5461L20.4293 17.5142L17.1387 20.8048L15.171 19.8208C15.0738 19.7721 14.9603 19.7681 14.8598 19.8097C14.7594 19.8513 14.6819 19.9345 14.6476 20.0376L13.9518 22.125H9.2982L8.60231 20.0373C8.56793 19.9341 8.49049 19.851 8.39006 19.8094C8.28964 19.7678 8.17609 19.7718 8.07889 19.8204Z" stroke="#303030" stroke-linecap="round" stroke-linejoin="round"/>
<path d="M17.625 12C17.625 15.3137 14.9387 18 11.625 18C8.31127 18 5.625 15.3137 5.625 12C5.625 8.68627 8.31127 6 11.625 6C13.3177 6 14.8467 6.70095 15.9375 7.82839" stroke="#303030" stroke-linecap="round"/>
<path d="M12.0003 11.625L8.77924 9.61185C8.44778 9.40466 8.06011 9.77944 8.25597 10.1177L11.6253 15.9375L22.8753 5.625L12.0003 11.625Z" fill="#303030"/>
</g>
<defs>
<clipPath id="clip0_861_12016">
<rect width="21.75" height="21" fill="white" transform="translate(1.125 1.5)"/>
</clipPath>
</defs>
</svg>
