<svg width="588" height="340" viewBox="0 0 588 340" fill="none" xmlns="http://www.w3.org/2000/svg">
<path d="M45 260.103H295" stroke="#25316D" stroke-width="2" stroke-linecap="round" stroke-linejoin="round"/>
<path d="M101.086 269.31L101.23 269.205L101.329 269.056C102.104 267.895 103.501 267.201 105.439 266.988C107.373 266.774 109.708 267.06 112.107 267.72C114.497 268.377 116.895 269.391 118.938 270.582C120.996 271.782 122.625 273.122 123.548 274.398C127.463 279.809 126.755 286.688 122.419 289.852C121.421 290.58 119.804 291.033 117.742 291.146C115.707 291.258 113.358 291.033 111.01 290.52C108.664 290.007 106.353 289.214 104.392 288.212C102.417 287.204 100.866 286.021 99.9566 284.764C96.0419 279.353 96.7496 272.474 101.086 269.31Z" fill="white" stroke="#25316D" stroke-width="2"/>
<path d="M123.968 288.047C122.715 286.637 120.02 283.816 119.268 283.816" stroke="#25316D" stroke-width="2"/>
<path d="M229.618 256.792C231.275 265.112 236.25 274.695 231.038 289.598C225.826 304.5 213.865 316.4 200.87 312.5C190.898 309.507 194.872 299.752 200.37 297C205.529 294.417 210.87 296 212.37 302.5C215.81 317.405 199.725 319.639 174.87 317.5C150.015 315.36 146.139 305.202 143.37 301C134.87 288.098 128.777 291.737 124.516 289.598" stroke="#303030" stroke-width="2" stroke-linecap="round"/>
<path d="M120.807 278.919L120.802 278.923C120.512 279.096 120.126 279.027 119.911 278.749C118.986 277.534 117.452 275.62 115.637 273.729C113.832 271.848 111.695 269.932 109.562 268.768L108.561 270.481C108.553 270.493 108.553 270.493 108.553 270.493L108.553 270.493L108.554 270.494L108.569 270.504C108.583 270.512 108.605 270.527 108.635 270.547C108.695 270.587 108.785 270.648 108.9 270.73C109.13 270.894 109.458 271.138 109.836 271.456C110.599 272.095 111.546 273.009 112.331 274.131C113.116 275.253 113.709 276.541 113.83 277.939C113.947 279.307 113.622 280.863 112.438 282.575C111.733 283.407 110.492 283.843 109.934 284.026L109.822 284.062L109.722 284.124L109.722 284.124L109.721 284.124L109.72 284.125L109.711 284.13L109.675 284.152C109.663 284.16 109.648 284.169 109.63 284.179C109.603 284.196 109.57 284.215 109.531 284.238C109.405 284.313 109.221 284.42 108.994 284.547C108.539 284.801 107.92 285.131 107.254 285.442C106.582 285.754 105.891 286.032 105.288 286.196C104.631 286.374 104.282 286.358 104.169 286.317L103.527 286.084L103.081 286.593L103.081 286.593L103.08 286.594C103.08 286.594 103.079 286.595 103.078 286.596C103.076 286.598 103.072 286.602 103.067 286.608C103.063 286.612 103.058 286.617 103.053 286.622C103.027 286.648 102.985 286.69 102.929 286.742C102.814 286.846 102.646 286.983 102.438 287.114C102.018 287.379 101.514 287.567 100.982 287.505C100.979 287.501 100.877 287.464 100.659 287.293C100.419 287.106 100.128 286.83 99.7963 286.473C99.1356 285.764 98.3915 284.821 97.6836 283.863C96.9791 282.91 96.3256 281.962 95.8473 281.25C95.6085 280.895 95.414 280.599 95.2796 280.394C95.2125 280.291 95.1603 280.21 95.1252 280.156L95.0854 280.094L95.0756 280.079L95.0732 280.075L95.0727 280.074L95.0727 280.074L95.0726 280.074L94.8814 279.774L94.544 279.663L94.544 279.663L94.5438 279.663L94.5431 279.662L94.5382 279.661L94.5162 279.653C94.4961 279.647 94.4654 279.636 94.4248 279.622C94.3436 279.594 94.2227 279.552 94.0674 279.496C93.7569 279.384 93.3098 279.217 92.7694 279.002C91.6864 278.569 90.2388 277.941 88.7683 277.159C87.2914 276.374 85.8268 275.452 84.6878 274.438C83.5365 273.414 82.8291 272.394 82.649 271.429L82.6468 271.413C82.6439 271.393 82.6395 271.361 82.6341 271.316C82.6233 271.227 82.6089 271.09 82.5961 270.913C82.5705 270.559 82.5516 270.045 82.5814 269.423C82.6411 268.176 82.8953 266.528 83.6578 264.883C84.415 263.248 85.6794 261.601 87.7951 260.329C89.8839 259.074 92.8581 258.152 97.0978 258.029C97.1049 258.032 97.1121 258.035 97.1196 258.038C97.2607 258.097 97.4705 258.187 97.7403 258.306C98.2801 258.544 99.0599 258.9 100.012 259.367C101.919 260.302 104.51 261.68 107.25 263.452C112.774 267.024 118.716 272.08 121.055 278.19C121.15 278.438 121.065 278.743 120.807 278.919Z" fill="white" stroke="#25316D" stroke-width="2"/>
<path fill-rule="evenodd" clip-rule="evenodd" d="M106.203 148.523C141.828 177.116 100.464 224.12 100.464 224.12C100.464 224.12 101.246 229.823 99.054 232.111C91.498 240 104.695 260.314 104.695 260.314C104.695 260.314 89.3321 270.044 84.9526 279.116C84.7442 279.548 83.5424 280.526 83.0722 280.526C83.0722 280.526 74.5878 266.538 72.7314 260.314C64.7406 233.521 65.2103 216.129 65.2103 216.129C71.3209 202.028 74.6349 193.397 81.1922 178.996C87.1578 165.884 98.3231 157.601 106.203 148.523Z" fill="#58B9FD"/>
<path fill-rule="evenodd" clip-rule="evenodd" d="M155.523 122.828C155.523 122.828 160.447 118.766 162.933 119.425L163.113 122.662C163.113 122.662 170.489 127.766 180.511 127.931C190.538 128.151 198.297 123.321 199.952 119.425C199.952 119.425 205.848 120.74 206.089 124.692C206.089 124.692 237.235 134.295 245.112 139.675C252.986 144.995 257.047 148.508 258.846 157.729C260.638 166.892 267.128 196.524 268.608 220.34C252.762 215.289 239.65 215.183 223.455 215.183C185.121 169.684 158.638 224.871 123.411 259.579C123.411 259.579 134.498 195.356 130.57 195.85C126.646 196.289 72.6809 217.266 72.6809 217.266C72.6809 217.266 71.7465 202.439 72.6809 198.267C73.6152 194.096 91.8494 149.167 96.0185 143.077C100.188 136.929 107.564 132.045 120.7 129.303C133.842 126.56 155.523 122.828 155.523 122.828Z" fill="#58B9FD"/>
<path d="M121.652 45.9995C121.117 47.0653 120.714 48.1715 120.32 49.2981C120.009 50.1989 119.711 51.1681 119.228 51.9928M118.193 52.706C116.434 53.3516 114.702 54.0694 113 54.8575M113.01 54.9233C113.483 55.233 113.931 55.5679 114.433 55.8292C115.829 56.5499 117.31 57.0599 118.736 57.7069M119.454 58.8865C120.129 60.6043 121.049 62.1877 121.769 63.8802M121.816 63.9995C122.018 63.3727 122.324 62.7789 122.602 62.1877C123.284 60.7313 124.065 59.3155 124.635 57.8082M124.635 57.8895C125.354 57.4888 126.165 57.2705 126.91 56.9305C128.002 56.428 129.913 55.6137 131 55.0554M121.945 46.1012C122.831 48.0269 123.727 49.9631 124.54 51.9243M124.538 52.0844C126.014 52.8659 129.482 54.0711 131 54.7738" stroke="#25316D" stroke-width="2" stroke-miterlimit="1.5" stroke-linecap="round" stroke-linejoin="round"/>
<path d="M85.5 167C87.5 163.5 88.3416 160.193 89.5 157C90.9673 152.9 93.1631 146.877 96.0004 143.499" stroke="#25316D" stroke-width="2" stroke-miterlimit="1.5" stroke-linecap="round" stroke-linejoin="round"/>
<path d="M131.859 174.748C134.899 189.083 134.443 205.363 129.773 219.305M141.362 172.734C143.244 179.165 143.499 185.84 143.477 192.502C143.484 201.041 142.675 209.701 139.766 217.794" stroke="#25316D" stroke-width="2" stroke-miterlimit="1.5" stroke-linecap="round" stroke-linejoin="round"/>
<path d="M155.795 126.874C158.516 131.099 163.177 133.68 167.734 135.436C178.973 139.715 194.76 139.222 202.814 129.123M199.874 119.411C200.546 119.411 201.224 119.521 201.869 119.686C204.164 120.453 205.327 122.321 205.896 124.513M149.527 128.191C151.276 130.606 153.183 133.075 155.401 135.051C158.308 137.632 161.838 139.55 165.477 140.867" stroke="#25316D" stroke-width="2" stroke-miterlimit="1.5" stroke-linecap="round" stroke-linejoin="round"/>
<path d="M162.918 119.77C160.443 119.824 157.268 120.921 155.93 123.171" stroke="#25316D" stroke-width="2" stroke-miterlimit="1.5" stroke-linecap="round" stroke-linejoin="round"/>
<path d="M68.971 218.009C70.851 226.47 81.1901 226.504 85.4226 228.35C90.0457 230.401 95.8856 222.028 99.999 224.999M75.5515 267.365C80.722 257.964 84.3924 254.69 97.1737 253.264" stroke="#25316D" stroke-width="2" stroke-miterlimit="1.5" stroke-linecap="round" stroke-linejoin="round"/>
<path d="M199.461 100.597L161.637 91.1963L162.577 122.219C162.577 122.219 173.586 127.956 181.379 127.86C189.606 127.759 199.461 122.49 199.461 122.49L199.461 100.597Z" fill="white"/>
<path d="M148 70.9998C152 82.9998 155 82.4998 156.5 80.4322C158.133 84.8968 160.028 89.3873 162.001 92.9998C163.501 95.7463 179.501 106 189.075 110.434C200.415 103.81 205.501 96.9998 208.001 94.4998C208.001 92.7503 208.75 87.5814 209.5 80.4322C209.5 77.7559 215.5 80.4322 215.5 67.9998C215.706 65.7109 213 60.4998 210.815 64.4998C210.932 62.6099 211.001 60.9066 211.001 59.4998C230.501 34.4998 208.5 28.4999 201 26.9999C200 16.4999 177.5 22.9998 170.501 29.9998C166.374 32.0973 162.382 38.5727 159.501 41.9998C155 42.4998 153.189 45.975 151.5 49.9998C151.5 51.4998 153.037 60.3107 154 64.4998C147.5 60.9998 146.839 68.9411 148 70.9998Z" fill="white"/>
<path d="M190.923 66.9641C190.901 70.3117 191.289 73.5488 192.448 76.6765C192.732 77.4996 193.038 78.2684 193.426 78.9821C193.453 79.0368 193.819 79.6401 193.803 79.6401C193.552 79.9694 192.35 80.9998 192 80.9998C190.508 81.1096 188.899 80.9936 187.5 80.4998M181.946 64.2208C179.093 62.6293 175.668 62.6293 172.952 64.4951M206.311 65.3729C203.256 63.7267 200.021 63.6716 196.814 64.824M195.5 90.4999C190 92.4999 184.415 90.7252 181.044 88.3108M163.111 64.8248C163.739 71.0805 158.47 64.2442 159 70.4999M171.87 55.9902C170.236 59.941 166.821 62.7401 162.875 64.1668" stroke="#25316D" stroke-width="2" stroke-miterlimit="1.5" stroke-linecap="round" stroke-linejoin="round"/>
<path d="M159.405 72.8919C159.405 72.8919 160.93 87.7622 161.328 91.7131C161.392 92.3122 161.654 92.8727 162.072 93.305C168.58 100.329 176.475 105.103 185.71 107.792C186.327 107.956 186.988 107.957 187.589 107.737C194.556 105.103 201.217 101.097 207.517 95.445C208.053 94.9512 208.386 94.2926 208.446 93.5792C208.949 87.5431 211.293 59.2827 211.293 59.2827" stroke="#25316D" stroke-width="2" stroke-miterlimit="1.5" stroke-linecap="round" stroke-linejoin="round"/>
<path d="M199.641 101.591L199.105 122.336C199.105 122.336 180.144 134.296 163.768 122.336M162.107 94.019L162.413 118.822" stroke="#25316D" stroke-width="2" stroke-miterlimit="1.5" stroke-linecap="round" stroke-linejoin="round"/>
<path d="M202.602 72.3246C202.382 72.3278 202.164 72.2872 201.961 72.2051C201.757 72.123 201.572 72.001 201.416 71.8464C201.259 71.6917 201.135 71.5074 201.051 71.3042C200.966 71.1009 200.922 70.8828 200.922 70.6624C200.922 70.4421 200.966 70.224 201.051 70.0208C201.135 69.8175 201.26 69.6332 201.416 69.4786C201.572 69.324 201.757 69.2021 201.961 69.1201C202.165 69.038 202.383 68.9974 202.602 69.0007C203.037 69.0072 203.451 69.1852 203.756 69.4962C204.061 69.8072 204.232 70.2262 204.232 70.6628C204.232 71.0994 204.061 71.5184 203.756 71.8294C203.451 72.1403 203.036 72.3182 202.602 72.3246ZM179.656 72.3246C179.217 72.3246 178.796 72.1494 178.485 71.8377C178.175 71.526 178 71.1031 178 70.6623C178 70.2214 178.175 69.7986 178.485 69.4869C178.796 69.1751 179.217 69 179.656 69C180.09 69.0064 180.505 69.1844 180.81 69.4954C181.116 69.8065 181.287 70.2256 181.287 70.6623C181.287 71.0989 181.116 71.5181 180.81 71.8291C180.505 72.1402 180.09 72.3181 179.656 72.3246Z" fill="#25316D"/>
<path fill-rule="evenodd" clip-rule="evenodd" d="M166.371 98.6416C166.371 98.6416 176.693 111.866 186.178 112.579C194.255 113.237 199.287 106.817 199.287 106.817V101.989C199.287 101.989 187.987 108.408 186.178 107.915C184.375 107.366 166.371 98.6416 166.371 98.6416Z" fill="#25316D"/>
<path d="M176.029 53.956C180.817 56.8757 185.851 59.5812 191.583 59.8314C194.238 59.9454 197.489 59.0882 197.978 55.9987M213.428 51.9472C213.743 52.6516 214.024 53.3976 214.128 54.1787C214.618 58.0104 210.808 59.3111 207.661 59.1377C202.592 58.8577 197.978 55.8847 194.799 52.0379M215.839 50.706C216.783 49.632 217.657 48.4396 218.181 47.1178C221.643 38.498 213.463 30.9558 206.054 28.5219C202.977 27.5105 198.574 26.7157 195.567 28.372C193.401 29.5505 196.51 32.0263 198.085 31.8345C200.601 31.5206 201.371 28.2847 200.635 26.2448C200.042 24.6827 198.713 23.6751 197.211 23.023C194.275 21.7503 191.198 21.8477 188.086 22.336C181.55 23.3681 175.294 26.7123 170.121 30.6978C168.059 32.281 165.822 33.9511 164.319 36.106M160.614 41.9153C159.601 42.006 158.587 42.2255 157.644 42.5951C150.722 45.2837 152.5 54.9999 153.5 60.4999M160.125 88.5C159.877 87.7693 159.615 84.2194 157.644 79.4999C157.147 78.3105 154 86.4999 149 74.9999C144.5 59.8314 153.5 63.4999 154.5 64.9999M161.208 32.9083C160.823 34.2751 160.579 35.6108 160.544 37.0299C160.544 37.4203 160.544 37.8145 160.579 38.205C160.579 38.2434 160.649 38.5434 160.614 38.5677C160.579 38.5957 160.159 38.4037 160.125 38.3863C159.563 38.198 159.039 37.9993 158.481 37.811C156.419 37.0928 154.182 36.4266 151.979 36.3671" stroke="#25316D" stroke-width="2" stroke-miterlimit="1.5" stroke-linecap="round" stroke-linejoin="round"/>
<path d="M153 71.9999C154.065 73.6164 154.247 74.1564 155.238 75.8188" stroke="#25316D" stroke-width="2" stroke-miterlimit="1.5" stroke-linecap="round" stroke-linejoin="round"/>
<path d="M210.012 71.2369C210 69.9362 210.025 68.6358 210.151 67.3592C210.468 64.3245 211.898 61.6751 213.531 63.7224C213.809 64.0596 214.05 64.4929 214.252 64.9746C215.822 68.8283 214.72 74.4885 212.797 77.0417C212 78.1014 210.962 78.9203 210 79.2576" stroke="#25316D" stroke-width="2" stroke-miterlimit="1.5" stroke-linecap="round" stroke-linejoin="round"/>
<path d="M299.5 167C298.3 167.4 292.667 175.166 290 179L280.5 188L299 196.5L304.5 188C306.5 188.833 312 190.6 314 191C316.5 191.5 321.5 193.5 327 191C332.5 188.5 333.74 181.059 334 179.5C334.5 176.5 332.5 176.5 326 177.5C319.576 178.488 314 173.5 315 172.5L321 166.5C323 164.5 321.5 162 320.5 161.5C319.5 161 312.5 164.5 311 165.5C309.5 166.5 301 166.5 299.5 167Z" fill="white"/>
<path d="M298.226 169.005C292.119 176.561 286.288 184.403 279.469 191.341C273.095 197.803 265.985 203.65 259.833 210.302M244.796 194.081C244.952 202.6 244.89 211.122 245.108 219.594C245.223 223.97 245.024 229.072 247.134 233.081C250.432 239.324 261.31 243.607 267.535 239.096M305 188.5C299.026 196.339 293.022 205.505 287.286 213.584C281.573 221.613 276.156 227.268 270.758 235.537M299.375 167.2C301.899 166.203 304.498 166.11 307.164 165.729C308.97 165.539 310.743 165.062 312.478 164.539C314.207 164.018 315.809 163.208 317.453 162.45C318.351 162.07 319.449 161.5 320.456 161.5C321.545 161.546 321.792 162.924 321.683 163.731C321.435 165.586 320.119 167.247 318.66 168.341M312.259 171.38C314.141 172.571 315.809 174.042 317.657 175.28C318.394 175.803 319.188 176.467 320.057 176.704C321.511 177.084 323.104 177.134 324.605 177.134C325.598 177.134 332.859 176.28 333.5 177.134C335.125 179.416 332.964 184.059 331.686 186.053C330.545 187.765 328.543 190.882 326.5 191.5C321.5 194 308.517 189.07 304.644 187.976" stroke="#25316D" stroke-width="2" stroke-miterlimit="1.5" stroke-linecap="round" stroke-linejoin="round"/>
<path fill-rule="evenodd" clip-rule="evenodd" d="M233.5 236.5C233.5 236.5 258.5 250 265 249C277.034 247.148 298.5 210 303.5 198.5C315.5 187 286.596 184.137 290.5 174.5C294.404 164.866 256 211.5 256 203.5C256 203.5 255.33 194.93 255 192C253.373 177.556 259.428 148.563 246 143C238.77 140.004 232.275 149.243 232.275 149.243L227.678 144.918C227.678 144.918 225.832 141.265 221.525 137.057C215.95 150.401 211.198 171.179 212.467 202.578L218.5 215C218.79 215.233 232.517 235.575 233.5 236.5Z" fill="#58B9FD"/>
<path d="M271.561 192.136C265.006 198.223 258.919 206.063 255.194 213.792" stroke="#25316D" stroke-width="2" stroke-miterlimit="1.5" stroke-linecap="round" stroke-linejoin="round"/>
<path d="M221.572 183C222.696 185.845 223.494 188.809 224.559 191.63C226.331 196.283 228.323 200.87 230.106 205.516" stroke="#25316D" stroke-width="2" stroke-miterlimit="1.5" stroke-linecap="round" stroke-linejoin="round"/>
<path d="M330 180.083C326.293 180.511 321.965 181.701 318.5 180.083C316.956 179.373 315.706 178.232 314.342 177.235M328.057 184.643C326.275 184.833 324.488 184.83 322.701 184.83C321.29 184.88 319.854 184.927 318.5 184.5C316.257 183.739 314.294 182.121 312.46 180.65M325.965 188.206C322.253 188.489 319.012 188.299 315.538 186.875C313.942 186.257 313.026 185.637 311.5 184.83M318.5 168.5C318.5 168.5 317.85 169.153 317.5 169.626C316.642 170.785 315.774 172.142 314.5 173" stroke="#25316D" stroke-width="2" stroke-miterlimit="1.5" stroke-linecap="round" stroke-linejoin="round"/>
<path d="M259 158.499C258 152.999 253.126 145.987 248.5 142.499C242.588 138.005 235.128 134.679 228 132.431" stroke="#25316D" stroke-width="2" stroke-miterlimit="1.5" stroke-linecap="round" stroke-linejoin="round"/>
<path d="M205.2 283.488L205.2 283.488L205.206 283.5C205.395 283.885 205.352 284.349 205.076 284.711C205.075 284.712 205.075 284.713 205.074 284.713L197.094 295.019H166.97L166.866 294.889L166.223 294.078C165.678 293.392 164.92 292.436 164.068 291.364C162.365 289.218 160.287 286.601 158.788 284.718L158.785 284.714C158.52 284.384 158.458 283.908 158.653 283.492C158.748 283.298 158.894 283.135 159.075 283.021C159.257 282.906 159.467 282.845 159.681 282.843C159.682 282.843 159.683 282.843 159.683 282.843L204.181 282.843H204.183C204.395 282.843 204.603 282.903 204.783 283.017C204.963 283.131 205.108 283.294 205.2 283.488ZM262.569 193.025L262.568 193.027C259.999 207.635 251.517 255.874 249.323 268.361C249.105 269.597 248.033 270.495 246.787 270.495H117.441C116.212 270.495 115.146 269.613 114.91 268.388C113.759 262.364 110.984 247.856 108.113 232.85C105.082 217.005 101.944 200.605 100.501 193.052L100.501 193.051C100.358 192.307 100.553 191.528 101.047 190.917C101.541 190.325 102.272 189.977 103.032 189.977L260.032 189.977L260.033 189.977C260.409 189.976 260.779 190.058 261.12 190.217C261.46 190.377 261.762 190.609 262.003 190.899L262.004 190.9C262.495 191.489 262.702 192.274 262.569 193.025Z" fill="white" stroke="#25316D" stroke-width="2"/>
<path d="M182.092 227.496C190.241 227.496 196.859 234.137 196.859 242.324V295.024H167.324V242.324C167.324 234.136 173.939 227.496 182.092 227.496Z" fill="white" stroke="#25316D" stroke-width="2"/>
<path fill-rule="evenodd" clip-rule="evenodd" d="M188.87 242.265C188.87 238.504 185.834 235.457 182.091 235.457C178.348 235.457 175.314 238.504 175.314 242.265V254.44C175.314 258.194 178.348 261.24 182.091 261.24C185.834 261.24 188.87 258.194 188.87 254.44V242.265Z" fill="#58B9FD"/>
<path d="M120 267.011L106.463 197.382C106.223 196.147 107.169 195 108.426 195H225" stroke="#25316D" stroke-width="2"/>
<path d="M225.332 249.983C225.692 249.983 225.986 250.274 225.986 250.64V256.877C225.986 257.242 225.692 257.533 225.332 257.533H222.875C222.511 257.533 222.221 257.242 222.221 256.877V250.64C222.221 250.274 222.511 249.983 222.875 249.983H225.332Z" fill="#686868"/>
<path d="M234.646 249.983C235.005 249.983 235.3 250.274 235.3 250.64V256.877C235.3 257.242 235.005 257.533 234.646 257.533H232.188C231.825 257.533 231.535 257.242 231.535 256.877V250.64C231.535 250.274 231.825 249.983 232.188 249.983H234.646Z" fill="#686868"/>
<circle cx="451.306" cy="169.855" r="66.9877" stroke="#303030" stroke-width="2" stroke-linecap="round" stroke-linejoin="round" stroke-dasharray="7 10"/>
<path d="M386.054 179.69L385.812 181.351C385.589 182.879 384.625 184.198 383.238 184.877C381.629 185.664 379.711 185.463 378.3 184.359L378.04 184.156C376.04 182.59 373.19 182.748 371.374 184.524C369.684 186.177 369.362 188.78 370.598 190.795L371.117 191.64C371.759 192.688 371.95 193.951 371.646 195.141C371.199 196.891 369.757 198.21 367.975 198.501L367.733 198.54C365.371 198.925 363.637 200.965 363.637 203.358C363.637 205.751 365.371 207.791 367.733 208.176L368.231 208.257C369.881 208.526 371.252 209.678 371.802 211.257C372.28 212.628 372.076 214.144 371.254 215.339L370.839 215.943C369.478 217.922 369.738 220.592 371.455 222.271C373.224 224.002 376.002 224.155 377.951 222.63L378.215 222.423C379.697 221.263 381.682 220.973 383.434 221.658L383.971 221.868C385.644 222.523 386.852 224.006 387.153 225.777L387.269 226.453C387.621 228.524 389.416 230.038 391.516 230.038C393.616 230.038 395.41 228.524 395.763 226.453L395.878 225.777C396.18 224.006 397.387 222.523 399.06 221.868L399.912 221.535C401.442 220.937 403.18 221.29 404.354 222.439C405.976 224.026 408.57 224.026 410.193 222.439L410.405 222.231C412.063 220.609 412.209 217.99 410.74 216.194L410.397 215.774C409.219 214.334 408.924 212.365 409.628 210.643L409.802 210.217C410.49 208.534 412.004 207.33 413.798 207.037L414.672 206.895C416.696 206.565 418.183 204.816 418.183 202.765C418.183 200.714 416.696 198.965 414.672 198.635L414.167 198.553C412.206 198.233 410.647 196.735 410.249 194.789L410.063 193.879C409.825 192.715 409.938 191.506 410.387 190.406L411.076 188.723C411.708 187.176 411.341 185.4 410.146 184.231C408.549 182.669 405.969 182.697 404.373 184.259C403.199 185.407 401.442 185.779 399.912 185.181L399.234 184.916C397.46 184.221 396.194 182.629 395.919 180.744L395.765 179.69C395.413 177.28 393.346 175.492 390.91 175.492C388.473 175.492 386.406 177.28 386.054 179.69Z" fill="#E2EEFF" stroke="#CB2027" stroke-width="2"/>
<circle cx="390.91" cy="202.765" r="11.3968" stroke="#CB2027" stroke-width="2"/>
<path d="M511.42 161.612L491.383 161.313C488.512 161.791 487.396 157.924 487.196 155.93C486.479 150.906 483.109 144.067 481.514 141.276C475.772 133.381 475.134 126.423 475.533 123.931C479.6 102.639 497.364 101.403 505.738 103.596C526.791 108.381 525.076 128.218 521.587 137.389C516.503 140.08 515.008 153.837 515.008 157.425C515.008 160.296 512.616 161.413 511.42 161.612Z" fill="#E2EEFF"/>
<path fill-rule="evenodd" clip-rule="evenodd" d="M498.754 101.95C498.857 101.948 498.96 101.946 499.063 101.946C499.255 101.944 499.448 101.945 499.641 101.948C499.835 101.948 500.028 101.95 500.221 101.954C500.324 101.956 500.426 101.959 500.529 101.962C500.76 101.97 500.991 101.98 501.22 101.993C501.323 101.999 501.426 102.005 501.528 102.012C501.759 102.028 501.989 102.046 502.217 102.068C502.32 102.078 502.422 102.088 502.524 102.098C502.909 102.139 503.291 102.187 503.67 102.244C503.772 102.259 503.873 102.274 503.975 102.291C504.203 102.327 504.43 102.367 504.656 102.409C504.757 102.428 504.858 102.447 504.959 102.467C505.186 102.513 505.411 102.56 505.636 102.611C505.736 102.634 505.836 102.657 505.936 102.681C506.312 102.771 506.685 102.869 507.054 102.974C507.153 103.002 507.252 103.031 507.351 103.061C507.572 103.127 507.792 103.196 508.01 103.267C508.108 103.3 508.206 103.332 508.304 103.366C508.522 103.44 508.739 103.517 508.954 103.597C509.051 103.633 509.147 103.67 509.244 103.707C509.604 103.846 509.96 103.993 510.312 104.147C510.406 104.188 510.5 104.23 510.594 104.273C510.804 104.368 511.013 104.466 511.219 104.566C511.312 104.611 511.405 104.657 511.497 104.703C511.703 104.807 511.907 104.913 512.11 105.022C512.201 105.071 512.291 105.12 512.381 105.17C512.719 105.357 513.052 105.551 513.379 105.752C513.467 105.806 513.554 105.861 513.641 105.916C513.836 106.039 514.029 106.165 514.219 106.293C514.305 106.351 514.39 106.409 514.475 106.468C514.665 106.599 514.852 106.733 515.038 106.869C515.121 106.93 515.203 106.992 515.286 107.054C515.594 107.286 515.895 107.526 516.19 107.771C516.269 107.837 516.348 107.904 516.426 107.971C516.602 108.121 516.774 108.273 516.945 108.428C517.021 108.497 517.097 108.567 517.173 108.637C517.341 108.794 517.508 108.954 517.671 109.116C517.744 109.188 517.817 109.261 517.89 109.334C518.16 109.609 518.424 109.89 518.679 110.177C518.748 110.254 518.816 110.331 518.883 110.409C519.034 110.583 519.183 110.759 519.328 110.938C519.394 111.017 519.458 111.098 519.522 111.179C519.666 111.359 519.806 111.542 519.944 111.726C520.005 111.809 520.066 111.892 520.126 111.976C520.352 112.288 520.57 112.605 520.779 112.928C520.835 113.015 520.89 113.101 520.945 113.189C521.068 113.384 521.187 113.581 521.304 113.78C521.356 113.869 521.407 113.958 521.458 114.048C521.571 114.248 521.682 114.45 521.789 114.654C521.837 114.746 521.884 114.837 521.931 114.929C522.105 115.272 522.27 115.62 522.425 115.972C522.467 116.066 522.508 116.161 522.548 116.255C522.638 116.467 522.725 116.681 522.808 116.896C522.845 116.992 522.882 117.089 522.918 117.185C522.998 117.401 523.075 117.618 523.148 117.837C523.18 117.935 523.212 118.033 523.243 118.131C523.36 118.497 523.467 118.867 523.564 119.24C523.589 119.34 523.615 119.439 523.639 119.54C523.693 119.763 523.744 119.988 523.792 120.214C523.813 120.315 523.833 120.416 523.853 120.517C523.897 120.743 523.937 120.97 523.974 121.198C523.99 121.299 524.006 121.401 524.021 121.503C524.076 121.882 524.122 122.264 524.157 122.649C524.166 122.752 524.175 122.854 524.182 122.957C524.2 123.186 524.214 123.416 524.224 123.647C524.229 123.75 524.233 123.853 524.236 123.956C524.243 124.186 524.246 124.416 524.246 124.647C524.245 124.75 524.245 124.853 524.243 124.956C524.24 125.148 524.234 125.341 524.226 125.535C524.226 125.734 524.224 125.933 524.219 126.132C524.215 126.262 524.211 126.391 524.206 126.521C524.197 126.724 524.187 126.928 524.173 127.131C524.165 127.261 524.155 127.39 524.144 127.52C524.128 127.722 524.108 127.925 524.086 128.128C524.072 128.257 524.057 128.386 524.041 128.514C523.992 128.909 523.933 129.303 523.864 129.696C523.842 129.823 523.818 129.951 523.794 130.078C523.755 130.278 523.714 130.478 523.67 130.677C523.642 130.804 523.613 130.93 523.583 131.056C523.536 131.254 523.486 131.452 523.433 131.649C523.4 131.774 523.365 131.899 523.329 132.024C523.249 132.304 523.163 132.582 523.072 132.859C523.043 132.947 523.013 133.034 522.983 133.121C522.979 133.135 522.974 133.149 522.969 133.163C522.946 133.228 522.923 133.293 522.9 133.358C522.88 133.415 522.859 133.472 522.838 133.529C522.768 133.72 522.694 133.91 522.618 134.099C522.57 134.22 522.52 134.34 522.47 134.459C522.39 134.647 522.308 134.833 522.222 135.018C522.221 135.021 522.219 135.025 522.217 135.028C522.193 135.082 522.168 135.135 522.142 135.189C522.114 135.249 522.085 135.309 522.056 135.369C522.046 135.389 522.037 135.408 522.027 135.427C521.949 135.587 521.869 135.745 521.786 135.902L521.197 136.983C521.096 137.158 520.997 137.334 520.899 137.509C520.839 137.617 520.779 137.725 520.72 137.833C520.712 137.847 520.704 137.862 520.696 137.876C520.603 138.046 520.512 138.217 520.422 138.388C520.356 138.512 520.292 138.636 520.228 138.76C520.139 138.932 520.051 139.105 519.965 139.278C519.903 139.403 519.841 139.528 519.78 139.654C519.603 140.017 519.432 140.382 519.267 140.749C519.209 140.876 519.153 141.004 519.097 141.131C519.019 141.309 518.942 141.487 518.867 141.665C518.812 141.794 518.759 141.923 518.706 142.052C518.632 142.231 518.56 142.411 518.489 142.591C518.437 142.721 518.387 142.851 518.337 142.981C518.193 143.359 518.054 143.737 517.922 144.117C517.876 144.249 517.83 144.381 517.786 144.513C517.724 144.697 517.663 144.881 517.604 145.065C517.561 145.198 517.519 145.331 517.478 145.465C517.42 145.65 517.364 145.835 517.309 146.021C517.269 146.155 517.231 146.289 517.192 146.423C517.082 146.811 516.978 147.2 516.879 147.591C516.844 147.726 516.811 147.862 516.778 147.997C516.732 148.186 516.688 148.374 516.645 148.563C516.614 148.699 516.583 148.836 516.554 148.972C516.513 149.161 516.473 149.351 516.434 149.541C516.406 149.678 516.379 149.815 516.352 149.952C516.276 150.347 516.205 150.743 516.139 151.142C516.117 151.28 516.095 151.418 516.073 151.556C516.043 151.747 516.015 151.938 515.988 152.13C515.968 152.269 515.949 152.407 515.931 152.545C515.905 152.737 515.881 152.929 515.858 153.122C515.841 153.261 515.825 153.399 515.81 153.538C515.766 153.937 515.726 154.339 515.692 154.742C515.68 154.881 515.669 155.02 515.658 155.159C515.643 155.352 515.63 155.545 515.617 155.739C515.608 155.878 515.6 156.017 515.592 156.157C515.581 156.35 515.571 156.544 515.563 156.737C515.556 156.877 515.551 157.016 515.545 157.156C515.538 157.357 515.532 157.559 515.527 157.761C515.522 157.93 515.506 158.097 515.478 158.262C515.475 158.283 515.471 158.304 515.467 158.325C515.452 158.407 515.434 158.488 515.413 158.569C515.402 158.611 515.391 158.652 515.379 158.693C515.32 158.892 515.245 159.087 515.155 159.275C515.117 159.354 515.076 159.433 515.033 159.51C514.949 159.662 514.855 159.809 514.752 159.951C514.707 160.012 514.66 160.073 514.612 160.133C514.56 160.198 514.506 160.261 514.451 160.323C514.199 160.603 513.913 160.856 513.602 161.073C513.532 161.122 513.461 161.169 513.389 161.214C513.254 161.299 513.115 161.377 512.972 161.449C512.892 161.489 512.811 161.527 512.73 161.562C512.648 161.598 512.566 161.631 512.482 161.662C512.248 161.749 512.008 161.817 511.765 161.865C511.758 161.867 511.751 161.868 511.744 161.869C511.667 161.884 511.59 161.897 511.513 161.908C511.325 161.933 511.137 161.947 510.948 161.947C510.948 161.947 510.947 161.947 510.948 161.947L492.026 161.952C491.829 161.952 491.634 161.941 491.443 161.918C491.337 161.906 491.233 161.89 491.129 161.871C491.063 161.859 490.997 161.846 490.932 161.831C490.774 161.795 490.619 161.752 490.467 161.702C490.362 161.667 490.26 161.629 490.159 161.588C490.094 161.561 490.03 161.534 489.967 161.505C489.823 161.438 489.682 161.365 489.545 161.285C489.454 161.232 489.364 161.176 489.277 161.117C488.954 160.899 488.659 160.644 488.396 160.356C488.325 160.278 488.256 160.197 488.189 160.115C488.048 159.937 487.918 159.75 487.8 159.553C487.745 159.459 487.692 159.363 487.642 159.265C487.571 159.125 487.506 158.981 487.448 158.834C487.422 158.769 487.398 158.703 487.375 158.636C487.34 158.536 487.309 158.435 487.28 158.333C487.272 158.301 487.263 158.27 487.255 158.239C487.216 158.083 487.183 157.924 487.157 157.763C487.133 157.608 487.107 157.452 487.081 157.297C487.073 157.255 487.066 157.214 487.059 157.172C487.036 157.042 487.012 156.911 486.988 156.781C486.985 156.766 486.982 156.751 486.979 156.736C486.954 156.601 486.927 156.466 486.9 156.33C486.891 156.283 486.881 156.236 486.872 156.189C486.845 156.06 486.818 155.93 486.79 155.801C486.747 155.605 486.703 155.408 486.657 155.212C486.631 155.101 486.604 154.99 486.577 154.879C486.573 154.862 486.569 154.844 486.564 154.827C486.538 154.718 486.511 154.609 486.483 154.5C486.412 154.222 486.338 153.944 486.261 153.667C486.235 153.574 486.209 153.48 486.182 153.387C486.172 153.353 486.163 153.319 486.153 153.285C486.123 153.183 486.093 153.08 486.063 152.977C486.036 152.887 486.009 152.797 485.982 152.707C485.943 152.581 485.904 152.454 485.864 152.328C485.804 152.136 485.742 151.945 485.679 151.754C485.665 151.71 485.65 151.667 485.636 151.623C485.608 151.541 485.581 151.459 485.553 151.378C485.53 151.309 485.506 151.24 485.482 151.171C485.375 150.862 485.265 150.555 485.152 150.248C485.13 150.189 485.108 150.129 485.086 150.07C485.062 150.005 485.037 149.941 485.013 149.876C484.972 149.768 484.93 149.66 484.889 149.552C484.858 149.473 484.827 149.393 484.796 149.314C484.747 149.191 484.698 149.068 484.649 148.945C484.578 148.77 484.507 148.596 484.435 148.423C484.43 148.411 484.425 148.399 484.42 148.387C484.369 148.265 484.318 148.143 484.266 148.021C484.246 147.975 484.227 147.929 484.207 147.884C484.069 147.562 483.928 147.242 483.784 146.924C483.765 146.882 483.746 146.841 483.727 146.799C483.691 146.72 483.655 146.642 483.619 146.563C483.572 146.461 483.524 146.359 483.477 146.258C483.439 146.177 483.401 146.097 483.363 146.017C483.306 145.897 483.249 145.778 483.192 145.659C483.111 145.491 483.029 145.324 482.946 145.157C482.94 145.144 482.933 145.13 482.927 145.117C482.868 144.998 482.809 144.88 482.749 144.762C482.73 144.724 482.711 144.687 482.692 144.65C482.53 144.33 482.366 144.012 482.199 143.697C482.179 143.66 482.159 143.622 482.139 143.585C482.097 143.505 482.055 143.426 482.012 143.347C481.992 143.31 481.972 143.272 481.952 143.235C481.877 143.095 481.801 142.956 481.724 142.817C481.661 142.701 481.597 142.585 481.532 142.47C481.434 142.294 481.336 142.118 481.236 141.944C481.171 141.829 481.105 141.714 481.039 141.6C480.939 141.426 480.838 141.254 480.737 141.082C480.62 140.938 480.505 140.793 480.392 140.647C480.346 140.588 480.301 140.529 480.257 140.47C480.1 140.263 479.947 140.053 479.798 139.842C479.756 139.781 479.713 139.72 479.671 139.659C479.524 139.445 479.38 139.229 479.241 139.011C479.201 138.948 479.161 138.886 479.122 138.823C478.925 138.509 478.736 138.19 478.554 137.867C478.517 137.803 478.481 137.738 478.445 137.673C478.32 137.446 478.199 137.217 478.081 136.986C478.047 136.92 478.014 136.853 477.981 136.787C477.865 136.555 477.753 136.321 477.644 136.086C477.613 136.019 477.582 135.951 477.552 135.883C477.399 135.546 477.254 135.205 477.116 134.861C477.088 134.792 477.061 134.723 477.034 134.654C476.939 134.413 476.848 134.17 476.76 133.926C476.735 133.856 476.71 133.786 476.686 133.716C476.6 133.472 476.518 133.226 476.438 132.979C476.416 132.908 476.393 132.838 476.371 132.767C476.261 132.413 476.157 132.057 476.06 131.699C476.041 131.628 476.021 131.556 476.002 131.484C475.936 131.234 475.874 130.982 475.814 130.73C475.797 130.658 475.78 130.585 475.763 130.513C475.705 130.26 475.651 130.007 475.599 129.753C475.584 129.68 475.57 129.608 475.555 129.535C475.484 129.171 475.419 128.806 475.36 128.44C475.348 128.367 475.336 128.294 475.325 128.22C475.285 127.964 475.249 127.708 475.215 127.451C475.205 127.377 475.196 127.303 475.187 127.229C475.154 126.972 475.125 126.715 475.099 126.457C475.091 126.383 475.084 126.309 475.077 126.235C475.059 126.051 475.043 125.866 475.029 125.682C475.02 125.488 475.015 125.295 475.012 125.103C475.01 125 475.01 124.897 475.01 124.794C475.01 124.563 475.014 124.333 475.022 124.103C475.025 124 475.03 123.897 475.035 123.794C475.046 123.563 475.062 123.333 475.081 123.104C475.09 123.001 475.099 122.899 475.109 122.797C475.147 122.412 475.196 122.03 475.256 121.651C475.272 121.55 475.288 121.448 475.306 121.347C475.345 121.119 475.388 120.893 475.434 120.667C475.455 120.566 475.477 120.466 475.499 120.365C475.549 120.14 475.603 119.916 475.661 119.693C475.686 119.593 475.713 119.494 475.74 119.394C475.842 119.022 475.953 118.654 476.075 118.289C476.108 118.192 476.141 118.094 476.175 117.997C476.251 117.779 476.33 117.563 476.413 117.348C476.45 117.252 476.488 117.156 476.527 117.06C476.613 116.846 476.702 116.634 476.795 116.423C476.836 116.329 476.878 116.235 476.921 116.141C477.081 115.791 477.25 115.445 477.428 115.104C477.476 115.012 477.524 114.921 477.573 114.83C477.682 114.628 477.794 114.427 477.91 114.227C477.918 114.213 477.926 114.199 477.934 114.185C477.963 114.135 477.992 114.086 478.021 114.037C478.036 114.011 478.051 113.986 478.067 113.96C478.074 113.947 478.082 113.935 478.09 113.922C478.2 113.737 478.314 113.554 478.43 113.372C478.485 113.286 478.541 113.199 478.598 113.113C478.809 112.791 479.028 112.475 479.255 112.164C479.263 112.154 479.27 112.144 479.277 112.135C479.329 112.063 479.382 111.992 479.435 111.921C479.436 111.919 479.438 111.917 479.439 111.915C479.578 111.731 479.718 111.549 479.862 111.369C479.926 111.288 479.991 111.207 480.056 111.127C480.111 111.06 480.167 110.993 480.222 110.927C480.257 110.886 480.291 110.845 480.325 110.804C480.383 110.736 480.442 110.667 480.501 110.599C480.569 110.521 480.637 110.444 480.705 110.366C480.961 110.079 481.223 109.797 481.492 109.522C481.564 109.448 481.637 109.374 481.71 109.301C481.873 109.139 482.038 108.978 482.205 108.82C482.28 108.749 482.356 108.679 482.432 108.609C482.601 108.453 482.772 108.299 482.946 108.148C483.024 108.08 483.102 108.013 483.18 107.946C483.473 107.697 483.772 107.454 484.077 107.218C484.158 107.155 484.24 107.092 484.323 107.03C484.506 106.891 484.692 106.755 484.879 106.621C484.963 106.561 485.048 106.501 485.133 106.442C485.321 106.311 485.512 106.182 485.705 106.056C485.791 105.999 485.878 105.943 485.965 105.888C486.289 105.681 486.618 105.481 486.952 105.288C487.041 105.236 487.131 105.185 487.22 105.135C487.421 105.022 487.623 104.912 487.827 104.805C487.919 104.757 488.01 104.71 488.102 104.663C488.307 104.558 488.514 104.456 488.722 104.357C488.815 104.313 488.908 104.269 489.002 104.226C489.351 104.065 489.704 103.911 490.061 103.766C490.157 103.727 490.252 103.689 490.348 103.651C490.562 103.567 490.778 103.485 490.995 103.407C491.092 103.372 491.189 103.337 491.286 103.303C491.504 103.228 491.722 103.155 491.942 103.085C492.04 103.054 492.139 103.024 492.237 102.994C492.605 102.882 492.976 102.779 493.35 102.685C493.45 102.659 493.55 102.635 493.65 102.611C493.874 102.557 494.099 102.506 494.324 102.459C494.425 102.438 494.526 102.417 494.628 102.397C494.853 102.353 495.08 102.312 495.307 102.274C495.409 102.257 495.511 102.24 495.612 102.225C495.992 102.166 496.374 102.116 496.758 102.076C496.86 102.065 496.962 102.055 497.065 102.046C497.294 102.024 497.524 102.006 497.754 101.992C497.857 101.985 497.96 101.98 498.063 101.974C498.293 101.963 498.523 101.955 498.754 101.95ZM485.79 108.601C485.596 108.733 485.404 108.869 485.216 109.006C485.135 109.065 485.056 109.124 484.977 109.184C484.789 109.325 484.604 109.469 484.422 109.616C484.345 109.678 484.268 109.741 484.192 109.804C483.896 110.049 483.608 110.302 483.329 110.562C483.256 110.629 483.184 110.697 483.112 110.766C482.943 110.928 482.776 111.093 482.613 111.26C482.544 111.332 482.475 111.403 482.407 111.475C482.246 111.646 482.088 111.819 481.933 111.995C481.868 112.069 481.803 112.144 481.739 112.219C481.49 112.512 481.25 112.811 481.02 113.116C481.013 113.124 481.007 113.133 481 113.142C480.952 113.206 480.905 113.269 480.858 113.334C480.853 113.341 480.848 113.347 480.843 113.354C480.705 113.544 480.57 113.736 480.439 113.93C480.384 114.013 480.329 114.095 480.275 114.179C480.27 114.187 480.264 114.196 480.258 114.204C480.222 114.261 480.185 114.318 480.149 114.375C480.066 114.507 479.984 114.641 479.904 114.775C479.853 114.86 479.803 114.946 479.753 115.032C479.563 115.364 479.383 115.702 479.213 116.046C479.17 116.135 479.127 116.224 479.084 116.313C478.985 116.525 478.889 116.739 478.797 116.955C478.759 117.047 478.721 117.138 478.684 117.23C478.596 117.448 478.512 117.667 478.433 117.887C478.4 117.981 478.368 118.074 478.336 118.168C478.213 118.53 478.102 118.897 478.003 119.268C477.978 119.363 477.953 119.459 477.93 119.555C477.873 119.782 477.821 120.011 477.774 120.241C477.754 120.338 477.735 120.435 477.717 120.533C477.674 120.763 477.635 120.994 477.601 121.227C477.587 121.325 477.573 121.423 477.561 121.521C477.512 121.898 477.476 122.279 477.452 122.664C477.445 122.762 477.44 122.861 477.435 122.96C477.425 123.193 477.418 123.428 477.417 123.663C477.416 123.762 477.416 123.861 477.417 123.961C477.42 124.194 477.426 124.428 477.438 124.664C477.443 124.762 477.448 124.861 477.454 124.96C477.467 125.151 477.482 125.343 477.5 125.535C477.5 125.71 477.502 125.883 477.505 126.056C477.505 126.084 477.506 126.113 477.506 126.141C477.513 126.448 477.524 126.753 477.54 127.056C477.541 127.084 477.543 127.112 477.544 127.14C477.561 127.447 477.584 127.752 477.611 128.054C477.613 128.082 477.616 128.11 477.619 128.138C477.652 128.486 477.691 128.831 477.738 129.173C477.742 129.201 477.746 129.229 477.75 129.256C477.792 129.56 477.841 129.862 477.895 130.161C477.9 130.189 477.905 130.216 477.91 130.244C477.966 130.545 478.027 130.844 478.095 131.141C478.101 131.168 478.107 131.196 478.114 131.223C478.192 131.562 478.279 131.899 478.373 132.232C478.381 132.259 478.389 132.286 478.396 132.313C478.481 132.607 478.572 132.898 478.669 133.187C478.678 133.214 478.687 133.241 478.696 133.267C478.795 133.556 478.9 133.843 479.011 134.128C479.021 134.154 479.031 134.18 479.042 134.206C479.169 134.528 479.306 134.848 479.45 135.165C479.462 135.19 479.473 135.215 479.485 135.241C479.613 135.517 479.747 135.792 479.887 136.064C479.9 136.089 479.913 136.114 479.926 136.139C480.067 136.408 480.214 136.676 480.368 136.942C480.382 136.966 480.396 136.99 480.41 137.014C480.584 137.312 480.766 137.608 480.957 137.901C480.973 137.925 480.988 137.948 481.004 137.972C481.17 138.225 481.342 138.477 481.522 138.727C481.538 138.75 481.554 138.773 481.571 138.796C481.748 139.041 481.932 139.285 482.121 139.528C482.139 139.55 482.156 139.572 482.173 139.594C482.28 139.73 482.389 139.865 482.5 140C482.594 140.18 482.687 140.361 482.78 140.541C482.846 140.671 482.913 140.8 482.979 140.93C483.065 141.097 483.15 141.264 483.236 141.431C483.302 141.561 483.368 141.691 483.434 141.821C483.519 141.988 483.603 142.156 483.688 142.323C483.703 142.353 483.717 142.383 483.732 142.413C483.783 142.513 483.833 142.613 483.883 142.714C483.895 142.738 483.908 142.763 483.92 142.787C484.089 143.126 484.256 143.466 484.423 143.807C484.437 143.837 484.452 143.866 484.466 143.896C484.515 143.997 484.564 144.099 484.613 144.2C484.649 144.275 484.685 144.349 484.721 144.424C484.766 144.519 484.811 144.613 484.856 144.708C484.919 144.839 484.981 144.971 485.043 145.103C485.117 145.261 485.191 145.419 485.264 145.578C485.269 145.59 485.275 145.602 485.28 145.613C485.341 145.746 485.402 145.878 485.462 146.011C485.481 146.053 485.501 146.096 485.52 146.138C485.668 146.466 485.814 146.795 485.957 147.124C485.978 147.174 486 147.224 486.021 147.274C486.058 147.358 486.094 147.442 486.129 147.526C486.172 147.626 486.215 147.727 486.257 147.828C486.287 147.9 486.318 147.972 486.348 148.045C486.404 148.179 486.459 148.314 486.514 148.449C486.584 148.623 486.654 148.797 486.723 148.972C486.733 148.997 486.743 149.023 486.753 149.049C486.797 149.159 486.839 149.269 486.882 149.379C486.907 149.446 486.933 149.513 486.959 149.58C487.078 149.893 487.193 150.207 487.305 150.521C487.333 150.599 487.36 150.676 487.387 150.754C487.408 150.814 487.429 150.873 487.45 150.933C487.483 151.028 487.515 151.123 487.547 151.217C487.575 151.301 487.603 151.384 487.63 151.467C487.676 151.605 487.721 151.744 487.766 151.882C487.823 152.061 487.879 152.241 487.934 152.42C487.964 152.52 487.994 152.621 488.024 152.722C488.035 152.761 488.047 152.8 488.058 152.839C488.088 152.94 488.117 153.042 488.146 153.143C488.228 153.433 488.306 153.723 488.381 154.014C488.41 154.129 488.439 154.245 488.468 154.36C488.474 154.386 488.48 154.412 488.487 154.437C488.513 154.545 488.539 154.654 488.564 154.762C488.581 154.837 488.598 154.911 488.615 154.986C488.647 155.128 488.678 155.27 488.708 155.413C488.747 155.596 488.784 155.78 488.82 155.965C488.847 156.105 488.873 156.245 488.898 156.385C488.898 156.388 488.899 156.391 488.9 156.394C488.926 156.541 488.951 156.688 488.975 156.835C488.984 156.888 488.992 156.942 489 156.995C489.026 157.157 489.053 157.312 489.082 157.46C489.082 157.46 489.082 157.46 489.082 157.46C489.104 157.573 489.128 157.682 489.153 157.787C489.155 157.796 489.157 157.804 489.159 157.812C489.195 157.964 489.235 158.106 489.279 158.241C489.326 158.385 489.377 158.52 489.434 158.646C489.448 158.676 489.461 158.705 489.476 158.734C489.497 158.777 489.518 158.818 489.541 158.859C489.598 158.96 489.659 159.055 489.726 159.143C489.842 159.294 489.974 159.425 490.127 159.535C490.173 159.568 490.221 159.6 490.271 159.63C490.273 159.631 490.275 159.632 490.277 159.633C490.442 159.73 490.627 159.807 490.837 159.865C490.941 159.894 491.05 159.918 491.166 159.937C491.184 159.94 491.202 159.943 491.22 159.946C491.36 159.967 491.509 159.982 491.668 159.991C491.782 159.997 491.901 160 492.024 160C492.024 160 492.025 160 492.024 160L497.806 159.999L510.947 159.995C511.051 159.995 511.153 159.994 511.25 159.992C511.38 159.989 511.503 159.984 511.619 159.976C511.724 159.969 511.824 159.96 511.918 159.948C511.929 159.947 511.94 159.946 511.95 159.944C512.007 159.937 512.062 159.929 512.115 159.919C512.298 159.887 512.459 159.843 512.6 159.782C512.626 159.772 512.651 159.76 512.675 159.748C512.86 159.658 513.008 159.537 513.125 159.377C513.16 159.329 513.193 159.277 513.222 159.222C513.266 159.14 513.304 159.05 513.337 158.951C513.372 158.847 513.4 158.732 513.423 158.606C513.434 158.55 513.443 158.492 513.451 158.431C513.457 158.389 513.462 158.346 513.467 158.302C513.476 158.215 513.484 158.123 513.489 158.026C513.494 157.941 513.498 157.853 513.5 157.761C513.505 157.579 513.511 157.397 513.517 157.215C513.519 157.153 513.521 157.091 513.523 157.029C513.534 156.758 513.546 156.487 513.56 156.215C513.563 156.154 513.566 156.092 513.569 156.03C513.584 155.759 513.601 155.488 513.62 155.217C513.624 155.156 513.628 155.094 513.633 155.032C513.659 154.669 513.689 154.306 513.722 153.943C513.728 153.882 513.734 153.82 513.74 153.759C513.766 153.488 513.794 153.218 513.824 152.948C513.831 152.887 513.838 152.826 513.845 152.764C513.876 152.494 513.909 152.225 513.945 151.956C513.953 151.894 513.961 151.833 513.969 151.772C514.018 151.411 514.071 151.051 514.128 150.691C514.137 150.63 514.147 150.569 514.157 150.508C514.201 150.24 514.246 149.972 514.294 149.705C514.305 149.644 514.316 149.583 514.328 149.522C514.377 149.255 514.428 148.989 514.482 148.722C514.494 148.662 514.507 148.601 514.519 148.541C514.593 148.184 514.671 147.828 514.754 147.474C514.768 147.414 514.782 147.353 514.796 147.293C514.859 147.029 514.924 146.765 514.992 146.502C515.007 146.443 515.022 146.383 515.038 146.323C515.107 146.06 515.178 145.798 515.252 145.537C515.269 145.477 515.286 145.418 515.303 145.359C515.404 145.009 515.509 144.66 515.62 144.313C515.638 144.254 515.657 144.195 515.676 144.137C515.76 143.878 515.846 143.621 515.934 143.364C515.955 143.305 515.975 143.247 515.995 143.189C516.085 142.933 516.178 142.677 516.274 142.423C516.295 142.365 516.317 142.307 516.339 142.25C516.469 141.91 516.603 141.571 516.743 141.234C516.766 141.177 516.79 141.12 516.814 141.063C516.919 140.813 517.027 140.564 517.138 140.316C517.164 140.259 517.189 140.203 517.215 140.147C517.327 139.9 517.442 139.654 517.559 139.409C517.586 139.353 517.613 139.297 517.64 139.242C517.799 138.915 517.964 138.59 518.134 138.267C518.163 138.213 518.192 138.158 518.221 138.104C518.348 137.864 518.479 137.626 518.612 137.389C518.643 137.335 518.673 137.282 518.704 137.228C518.771 137.11 518.839 136.993 518.907 136.877C518.976 136.759 519.046 136.642 519.116 136.525C519.148 136.472 519.18 136.419 519.212 136.367C519.283 136.251 519.354 136.136 519.426 136.021C519.451 135.982 519.475 135.942 519.5 135.902L520 135C520.006 134.991 520.011 134.981 520.016 134.972C520.021 134.963 520.026 134.954 520.031 134.945C520.043 134.922 520.056 134.9 520.068 134.877C520.134 134.758 520.196 134.639 520.257 134.521C520.26 134.514 520.264 134.507 520.268 134.5C520.289 134.457 520.311 134.415 520.332 134.372C520.346 134.343 520.361 134.314 520.375 134.285C520.424 134.184 520.472 134.083 520.518 133.983C520.574 133.86 520.628 133.737 520.68 133.615C520.702 133.563 520.723 133.511 520.744 133.46C520.845 133.213 520.936 132.967 521.018 132.723C521.023 132.708 521.028 132.693 521.033 132.678C521.05 132.625 521.068 132.572 521.084 132.519C521.085 132.516 521.086 132.513 521.087 132.509C521.114 132.427 521.139 132.344 521.163 132.262C521.24 131.998 521.308 131.736 521.367 131.473C521.379 131.418 521.391 131.363 521.403 131.309C521.461 131.037 521.51 130.764 521.551 130.49C521.56 130.434 521.568 130.378 521.576 130.323C521.614 130.049 521.646 129.774 521.671 129.496C521.676 129.44 521.681 129.385 521.686 129.329C521.716 128.974 521.737 128.614 521.751 128.247C521.753 128.191 521.756 128.134 521.758 128.078C521.767 127.805 521.773 127.529 521.778 127.247C521.778 127.191 521.779 127.135 521.78 127.078C521.783 126.806 521.785 126.529 521.785 126.247C521.786 126.191 521.786 126.135 521.786 126.078C521.786 125.899 521.786 125.718 521.786 125.535C521.797 125.343 521.805 125.151 521.811 124.96C521.813 124.863 521.815 124.766 521.817 124.669C521.82 124.431 521.819 124.195 521.815 123.96C521.813 123.863 521.81 123.765 521.806 123.668C521.798 123.431 521.786 123.195 521.769 122.96C521.762 122.863 521.755 122.767 521.746 122.67C521.713 122.287 521.67 121.907 521.615 121.532C521.601 121.436 521.586 121.34 521.571 121.244C521.533 121.01 521.491 120.777 521.445 120.546C521.426 120.451 521.406 120.355 521.386 120.261C521.336 120.029 521.282 119.799 521.223 119.57C521.199 119.476 521.174 119.382 521.149 119.289C521.048 118.919 520.937 118.553 520.814 118.193C520.783 118.101 520.751 118.009 520.718 117.918C520.639 117.695 520.555 117.474 520.467 117.255C520.431 117.165 520.394 117.074 520.356 116.984C520.265 116.766 520.17 116.55 520.07 116.337C520.029 116.248 519.987 116.161 519.945 116.073C519.778 115.729 519.601 115.39 519.414 115.058C519.366 114.973 519.318 114.889 519.269 114.805C519.149 114.601 519.026 114.399 518.9 114.2C518.847 114.117 518.795 114.036 518.741 113.954C518.611 113.757 518.478 113.562 518.34 113.37C518.284 113.291 518.227 113.212 518.169 113.134C517.943 112.826 517.707 112.526 517.462 112.232C517.4 112.157 517.337 112.083 517.273 112.009C517.12 111.83 516.962 111.654 516.802 111.481C516.736 111.409 516.669 111.338 516.602 111.267C516.439 111.097 516.273 110.929 516.104 110.764C516.034 110.696 515.964 110.628 515.893 110.561C515.617 110.299 515.332 110.045 515.039 109.797C514.965 109.735 514.89 109.672 514.815 109.611C514.633 109.461 514.448 109.315 514.26 109.171C514.182 109.112 514.105 109.053 514.026 108.995C513.837 108.855 513.645 108.717 513.45 108.582C513.37 108.527 513.29 108.473 513.209 108.418C512.893 108.207 512.571 108.002 512.241 107.806C512.157 107.756 512.073 107.707 511.989 107.658C511.785 107.541 511.579 107.426 511.37 107.314C511.284 107.268 511.198 107.223 511.111 107.178C510.902 107.07 510.691 106.965 510.477 106.862C510.39 106.82 510.302 106.779 510.213 106.738C509.869 106.578 509.518 106.427 509.161 106.283C509.071 106.247 508.981 106.211 508.89 106.176C508.671 106.091 508.449 106.008 508.226 105.929C508.134 105.897 508.042 105.865 507.95 105.833C507.727 105.758 507.503 105.685 507.276 105.615C507.183 105.587 507.09 105.559 506.997 105.531C506.632 105.424 506.263 105.325 505.89 105.234C505.795 105.211 505.701 105.188 505.606 105.166C505.377 105.113 505.146 105.063 504.914 105.016C504.818 104.997 504.723 104.978 504.627 104.96C504.396 104.916 504.163 104.876 503.929 104.838C503.833 104.822 503.737 104.807 503.641 104.793C503.265 104.737 502.886 104.688 502.504 104.648C502.407 104.638 502.31 104.628 502.213 104.619C501.979 104.597 501.744 104.578 501.508 104.562C501.411 104.556 501.313 104.55 501.216 104.544C500.981 104.531 500.745 104.52 500.508 104.513C500.411 104.51 500.314 104.508 500.217 104.506C500.025 104.502 499.834 104.5 499.641 104.5C499.448 104.5 499.256 104.502 499.065 104.506C498.965 104.508 498.866 104.511 498.767 104.514C498.532 104.522 498.298 104.532 498.065 104.546C497.966 104.552 497.867 104.558 497.768 104.565C497.534 104.581 497.3 104.601 497.068 104.623C496.969 104.633 496.871 104.643 496.772 104.654C496.389 104.695 496.009 104.744 495.633 104.802C495.535 104.817 495.437 104.832 495.339 104.848C495.107 104.887 494.876 104.928 494.647 104.972C494.55 104.991 494.452 105.01 494.355 105.03C494.125 105.077 493.896 105.127 493.669 105.18C493.572 105.203 493.476 105.226 493.38 105.25C493.006 105.342 492.636 105.442 492.271 105.551C492.175 105.579 492.08 105.608 491.986 105.637C491.761 105.706 491.539 105.779 491.318 105.854C491.224 105.886 491.13 105.919 491.036 105.952C490.815 106.031 490.595 106.112 490.378 106.197C490.285 106.233 490.193 106.269 490.101 106.306C489.744 106.45 489.392 106.602 489.046 106.762C488.956 106.803 488.866 106.845 488.777 106.888C488.565 106.989 488.355 107.093 488.147 107.2C488.059 107.245 487.971 107.291 487.883 107.338C487.676 107.448 487.471 107.561 487.268 107.677C487.182 107.726 487.096 107.776 487.011 107.826C486.679 108.022 486.354 108.225 486.037 108.435C485.954 108.49 485.872 108.545 485.79 108.601Z" fill="#25316D"/>
<path d="M491.396 175.066L509.853 175.061L509.851 183.023C509.851 183.39 509.629 183.842 509.028 184.247C508.432 184.648 507.554 184.928 506.535 184.928L494.708 184.932C493.69 184.932 492.811 184.652 492.216 184.252C491.615 183.847 491.394 183.395 491.394 183.028L491.396 175.066Z" stroke="#25316D" stroke-width="2" stroke-linecap="round" stroke-linejoin="round"/>
<path d="M495.819 84.821C497.411 84.5003 499.106 84.247 500.729 84.1498M501.307 83.7548C500.176 88.6312 499.692 93.5845 498.711 98.4747M496.292 85.1865C496.889 89.3308 497.922 93.3918 498.604 97.5045M520.194 78.7224C517.585 85.6194 515.633 92.7558 512.752 99.5404M519.872 78.9074C521.26 80.0774 522.738 81.1585 524.094 82.3497M524.827 83.104C520.387 88.8725 516.099 94.838 511.239 100.247M521.005 106.442C525.726 104.851 530.647 103.717 535.465 102.468M535.845 102.519C535.658 104.438 535.697 106.362 535.561 108.287M520.932 107.417C524.995 107.834 529.033 108.45 533.09 108.917" stroke="#25316D" stroke-width="2" stroke-miterlimit="1.5" stroke-linecap="round" stroke-linejoin="round"/>
<path d="M511.299 164.614L491.435 164.076C490.804 164.059 490.298 164.422 490.343 164.86L490.49 166.285C490.613 167.477 491.121 168.639 491.977 169.686C492.12 169.861 492.397 169.962 492.683 169.946C498.583 169.613 504.342 169.753 509.949 170.407C510.256 170.442 510.557 170.341 510.701 170.153L510.834 169.98C511.495 169.113 511.914 168.166 512.071 167.185L512.346 165.456C512.415 165.021 511.931 164.631 511.299 164.614Z" fill="#58B9FD"/>
<path d="M501.129 191.913L497.604 191.817C497.217 191.807 496.858 191.608 496.641 191.284L494.445 187.995L504.495 188.267L502.12 191.432C501.886 191.744 501.517 191.923 501.129 191.913Z" fill="#58B9FD"/>
<path d="M492.461 176.211L508.726 176.652L508.914 180.91C508.861 182.819 507.281 184.328 505.387 184.276L495.984 184.022C494.09 183.97 492.596 182.379 492.649 180.469L492.461 176.211Z" fill="#58B9FD"/>
<path d="M502.217 191.125L497.784 191.126C497.623 191.126 497.469 191.048 497.371 190.91L496.555 191.489L497.371 190.91L495.615 188.431L504.388 188.428L502.63 190.909L503.446 191.487L502.63 190.909C502.533 191.046 502.378 191.125 502.217 191.125Z" stroke="#25316D" stroke-width="2" stroke-linecap="round" stroke-linejoin="round"/>
<path d="M488.292 163.622L488.292 163.622C488.272 163.401 488.444 163.226 488.642 163.226L513.624 163.219C513.822 163.219 513.993 163.394 513.973 163.615L513.687 166.788C513.535 168.463 513.074 170.095 512.328 171.599L513.224 172.043L512.328 171.599L512.195 171.867C505.073 170.952 497.784 170.985 490.347 171.886C489.328 170.158 488.706 168.221 488.525 166.217L488.292 163.622Z" stroke="#25316D" stroke-width="2" stroke-linecap="round" stroke-linejoin="round"/>
<path d="M495.811 153.97C497.81 146.691 499.217 139.082 497.315 131.615C496.596 129.167 495.542 126.393 493.496 124.745C492.174 123.693 490.388 123.764 489.855 125.618C489.056 128.396 492.161 130.436 494.541 130.958C499.233 131.938 504.993 129.607 508.77 126.752C510.027 125.757 513.54 122.242 511.294 120.529C507.335 117.365 504.34 124.585 504.006 127.296C503.599 130.87 503.921 134.506 504.245 138.009C504.763 143.958 505.738 149.976 506.916 155.792" stroke="#CB2027" stroke-width="2" stroke-miterlimit="1.5" stroke-linecap="round" stroke-linejoin="round"/>
<path d="M499.361 106.601C506.38 106.979 512.673 110.915 517.18 116.095M519.836 120.895C520.565 122.947 520.863 124.729 520.259 127.585" stroke="#25316D" stroke-width="2" stroke-miterlimit="1.5" stroke-linecap="round" stroke-linejoin="round"/>
<path d="M525.155 141.521C526.418 141.318 527.278 140.128 527.075 138.863L523.947 119.364C523.789 118.375 522.859 117.702 521.871 117.861C521.538 117.914 521.242 118.055 521.001 118.256C520.716 118.226 520.422 118.233 520.126 118.281C518.313 118.572 517.079 120.281 517.37 122.096C517.424 122.435 517.528 122.754 517.673 123.046C515.792 123.762 514.607 125.723 514.938 127.79C515.069 128.607 515.419 129.333 515.919 129.919C515.319 130.802 515.041 131.908 515.224 133.047C515.522 134.905 516.957 136.298 518.704 136.626C518.709 136.763 518.723 136.901 518.745 137.04C519.035 138.851 520.734 140.085 522.542 139.802C522.833 140.954 523.96 141.713 525.155 141.521Z" fill="white"/>
<path d="M531.495 140.603C530.232 140.806 529.043 139.946 528.84 138.681L525.713 119.182C525.554 118.193 526.226 117.262 527.214 117.103C527.547 117.05 527.872 117.09 528.165 117.206C528.426 117.088 528.706 117.003 529.003 116.955C530.816 116.664 532.522 117.899 532.814 119.715C532.868 120.054 532.869 120.389 532.824 120.712C534.834 120.802 536.572 122.293 536.904 124.36C537.035 125.176 536.929 125.976 536.638 126.689C537.484 127.34 538.094 128.304 538.277 129.442C538.575 131.3 537.647 133.073 536.09 133.932C536.129 134.063 536.159 134.199 536.181 134.338C536.472 136.149 535.245 137.853 533.439 138.151C533.523 139.337 532.69 140.411 531.495 140.603Z" fill="#CB2027"/>
</svg>
