<svg width="64" height="64" viewBox="0 0 64 64" fill="none" xmlns="http://www.w3.org/2000/svg">
<g clip-path="url(#clip0_518_4021)">
<path d="M21.5437 52.8545L16.2934 55.4791L7.51862 46.7042L10.143 41.4554C10.2727 41.1961 10.2834 40.8933 10.1725 40.6255C10.0616 40.3577 9.83989 40.1512 9.56489 40.0595L4 38.2041V25.7945L9.56738 23.939C9.84241 23.8474 10.0641 23.6409 10.1751 23.3731C10.286 23.1052 10.2753 22.8024 10.1456 22.5431L7.52178 17.2954L16.2966 8.52039L21.5442 11.1444C21.8035 11.274 22.1063 11.2848 22.3741 11.1739C22.6419 11.0629 22.8484 10.8412 22.9401 10.5662L24.7955 5H37.205L39.0603 10.566C39.152 10.841 39.3585 11.0627 39.6263 11.1737C39.8941 11.2846 40.1969 11.2739 40.4561 11.1443L45.7029 8.52126L54.4777 17.2961L51.8541 22.5434C51.7244 22.8027 51.7137 23.1055 51.8246 23.3734C51.9356 23.6412 52.1573 23.8477 52.4323 23.9394L58 25.7947V38.2045L52.4321 40.0603C52.1571 40.152 51.9354 40.3585 51.8245 40.6263C51.7135 40.8941 51.7243 41.1969 51.8539 41.4562L54.478 46.7044L45.7031 55.4794L40.4561 52.8554C40.1968 52.7257 39.894 52.715 39.6262 52.8259C39.3584 52.9368 39.1518 53.1586 39.0602 53.4336L37.2047 59H24.7952L22.9395 53.4327C22.8478 53.1577 22.6413 52.936 22.3735 52.8251C22.1057 52.7141 21.8029 52.7249 21.5437 52.8545Z" stroke="#25316D" stroke-width="2" stroke-linecap="round" stroke-linejoin="round"/>
<circle cx="31" cy="32" r="17" fill="white"/>
<path d="M47 32C47 40.8366 39.8366 48 31 48C22.1634 48 15 40.8366 15 32C15 23.1634 22.1634 16 31 16C35.5138 16 39.5911 17.8692 42.5 20.8757" stroke="#25316D" stroke-width="2" stroke-linecap="round"/>
<path d="M31.9998 31L23.4103 25.6316C22.5264 25.0791 21.4926 26.0785 22.0149 26.9806L30.9998 42.5L60.9998 15L31.9998 31Z" fill="#CB2027"/>
</g>
<defs>
<clipPath id="clip0_518_4021">
<rect width="58" height="56" fill="white" transform="translate(3 4)"/>
</clipPath>
</defs>
</svg>
