<svg width="64" height="64" viewBox="0 0 64 64" fill="none" xmlns="http://www.w3.org/2000/svg">
<path d="M32 58.6838V53.425" stroke="#25316D" stroke-width="2" stroke-linecap="round"/>
<path d="M56.1424 21.6338H6.90174C5.97764 21.6338 5.22852 22.3829 5.22852 23.307V51.3986C5.22852 52.3227 5.97764 53.0718 6.90174 53.0718H56.1424C57.0665 53.0718 57.8157 52.3227 57.8157 51.3986V23.307C57.8157 22.3829 57.0665 21.6338 56.1424 21.6338Z" fill="white" stroke="#25316D" stroke-width="2"/>
<path d="M10 42V26H28V42H10Z" stroke="#25316D" stroke-width="2"/>
<path d="M35 42V26H53V42H35Z" stroke="#25316D" stroke-width="2"/>
<path d="M6.83893 8.21325C6.97675 7.31012 7.78079 6.64087 8.72804 6.64087H54.5771C55.5244 6.64087 56.3283 7.31012 56.4663 8.21325L57.9941 18.2256C58.0535 18.6154 57.61 18.8921 57.2651 18.6803L52.5493 15.7823C51.9232 15.3975 51.1222 15.3975 50.4962 15.7823L45.9259 18.5908C45.2998 18.9756 44.4988 18.9756 43.8728 18.5908L39.3025 15.7823C38.6765 15.3975 37.8755 15.3975 37.2494 15.7823L32.6791 18.5908C32.0531 18.9756 31.2521 18.9756 30.626 18.5908L26.0558 15.7823C25.4297 15.3975 24.6287 15.3975 24.0026 15.7823L19.4325 18.5908C18.8063 18.9756 18.0054 18.9756 17.3792 18.5908L12.8091 15.7823C12.1829 15.3975 11.382 15.3975 10.7558 15.7823L6.04002 18.6803C5.69519 18.8921 5.25157 18.6154 5.31107 18.2256L6.83893 8.21325Z" fill="#CB2027"/>
<path d="M40.1504 58.7773H24" stroke="#25316D" stroke-width="2" stroke-linecap="round"/>
<path d="M20.7668 46H10" stroke="#CB2027" stroke-width="2" stroke-linecap="round"/>
<path d="M46.767 46H36" stroke="#CB2027" stroke-width="2" stroke-linecap="round"/>
<path d="M25.3812 49.0474H10" stroke="#CB2027" stroke-width="2" stroke-linecap="round"/>
<path d="M51.3813 49.0474H36" stroke="#CB2027" stroke-width="2" stroke-linecap="round"/>
</svg>
