<svg width="24" height="24" viewBox="0 0 24 24" fill="none" xmlns="http://www.w3.org/2000/svg">
<path d="M2.8125 17.625L7.3125 14.25L7.3125 16.7512L8.4375 17.625L7.3125 18.4988L7.3125 21L2.8125 17.625Z" fill="#303030"/>
<path d="M21.1875 6.37496L16.6875 3L16.6875 5.50116L15.5625 6.37496L16.6875 7.24876L16.6875 9.75L21.1875 6.37496Z" fill="#303030"/>
<path d="M13.4063 10.5938C13.5306 10.5938 13.6498 10.5444 13.7377 10.4565C13.8256 10.3685 13.875 10.2493 13.875 10.125C13.875 10.0007 13.8256 9.88145 13.7377 9.79354C13.6498 9.70564 13.5306 9.65625 13.4063 9.65625H12.4688V9.1875C12.4688 9.06318 12.4194 8.94395 12.3315 8.85604C12.2435 8.76814 12.1243 8.71875 12 8.71875C11.8757 8.71875 11.7565 8.76814 11.6685 8.85604C11.5806 8.94395 11.5313 9.06318 11.5313 9.1875V9.65625H10.5938C10.4694 9.65625 10.3502 9.70564 10.2623 9.79354C10.1744 9.88145 10.125 10.0007 10.125 10.125V12C10.125 12.1243 10.1744 12.2435 10.2623 12.3315C10.3502 12.4194 10.4694 12.4688 10.5938 12.4688H12.9375V13.4062H10.5938C10.4694 13.4062 10.3502 13.4556 10.2623 13.5435C10.1744 13.6315 10.125 13.7507 10.125 13.875C10.125 13.9993 10.1744 14.1185 10.2623 14.2065C10.3502 14.2944 10.4694 14.3438 10.5938 14.3438H11.5313V14.8125C11.5313 14.9368 11.5806 15.056 11.6685 15.144C11.7565 15.2319 11.8757 15.2812 12 15.2812C12.1243 15.2812 12.2435 15.2319 12.3315 15.144C12.4194 15.056 12.4688 14.9368 12.4688 14.8125V14.3438H13.4063C13.5306 14.3438 13.6498 14.2944 13.7377 14.2065C13.8256 14.1185 13.875 13.9993 13.875 13.875V12C13.875 11.8757 13.8256 11.7565 13.7377 11.6685C13.6498 11.5806 13.5306 11.5312 13.4063 11.5312H11.0625V10.5938H13.4063Z" fill="#303030"/>
<path d="M17.1563 19.0312L7.78125 19.0312L7.78125 21.8437L2.25 17.625L7.73915 13.4062L7.73915 16.2187L20.9063 16.2188L20.9063 10.125" stroke="#303030" stroke-linecap="round" stroke-linejoin="round"/>
<path d="M6.84375 4.96875H16.2188V2.15625L21.75 6.375L16.2608 10.5938V7.78125H3.09375V13.875" stroke="#303030" stroke-linecap="round" stroke-linejoin="round"/>
</svg>
