<svg width="588" height="340" viewBox="0 0 588 340" fill="none" xmlns="http://www.w3.org/2000/svg">
<path d="M45 261.104H295" stroke="#25316D" stroke-width="2" stroke-linecap="round" stroke-linejoin="round"/>
<path d="M101.086 270.31L101.23 270.205L101.329 270.056C102.104 268.895 103.501 268.201 105.439 267.988C107.373 267.774 109.708 268.06 112.107 268.72C114.497 269.377 116.895 270.391 118.938 271.582C120.996 272.782 122.625 274.122 123.548 275.398C127.463 280.809 126.755 287.688 122.419 290.852C121.421 291.58 119.804 292.033 117.742 292.146C115.707 292.258 113.358 292.033 111.01 291.52C108.664 291.007 106.353 290.214 104.392 289.212C102.417 288.204 100.866 287.021 99.9566 285.764C96.0419 280.353 96.7496 273.474 101.086 270.31Z" fill="white" stroke="#25316D" stroke-width="2"/>
<path d="M123.968 289.047C122.715 287.637 120.02 284.816 119.268 284.816" stroke="#25316D" stroke-width="2"/>
<path d="M229.618 257.791C231.275 266.111 236.25 275.695 231.038 290.597C225.826 305.499 213.865 317.4 200.87 313.499C190.898 310.506 194.872 300.751 200.37 297.999C205.529 295.417 210.87 296.999 212.37 303.499C215.81 318.405 199.725 320.639 174.87 318.499C150.015 316.36 146.139 306.202 143.37 301.999C134.87 289.097 128.777 292.737 124.516 290.597" stroke="#303030" stroke-width="2" stroke-linecap="round"/>
<path d="M120.807 279.919L120.802 279.923C120.512 280.096 120.126 280.027 119.911 279.749C118.986 278.534 117.452 276.62 115.637 274.729C113.832 272.848 111.695 270.932 109.562 269.768L108.561 271.481C108.553 271.493 108.553 271.493 108.553 271.493L108.553 271.493L108.554 271.494L108.569 271.504C108.583 271.512 108.605 271.527 108.635 271.547C108.695 271.587 108.785 271.648 108.9 271.73C109.13 271.894 109.458 272.138 109.836 272.456C110.599 273.095 111.546 274.009 112.331 275.131C113.116 276.253 113.709 277.541 113.83 278.939C113.947 280.307 113.622 281.863 112.438 283.575C111.733 284.407 110.492 284.843 109.934 285.026L109.822 285.062L109.722 285.124L109.722 285.124L109.721 285.124L109.72 285.125L109.711 285.13L109.675 285.152C109.663 285.16 109.648 285.169 109.63 285.179C109.603 285.196 109.57 285.215 109.531 285.238C109.405 285.313 109.221 285.42 108.994 285.547C108.539 285.801 107.92 286.131 107.254 286.442C106.582 286.754 105.891 287.032 105.288 287.196C104.631 287.374 104.282 287.358 104.169 287.317L103.527 287.084L103.081 287.593L103.081 287.593L103.08 287.594C103.08 287.594 103.079 287.595 103.078 287.596C103.076 287.598 103.072 287.602 103.067 287.608C103.063 287.612 103.058 287.617 103.053 287.622C103.027 287.648 102.985 287.69 102.929 287.742C102.814 287.846 102.646 287.983 102.438 288.114C102.018 288.379 101.514 288.567 100.982 288.505C100.979 288.501 100.877 288.464 100.659 288.293C100.419 288.106 100.128 287.83 99.7963 287.473C99.1356 286.764 98.3915 285.821 97.6836 284.863C96.9791 283.91 96.3256 282.962 95.8473 282.25C95.6085 281.895 95.414 281.599 95.2796 281.394C95.2125 281.291 95.1603 281.21 95.1252 281.156L95.0854 281.094L95.0756 281.079L95.0732 281.075L95.0727 281.074L95.0727 281.074L95.0726 281.074L94.8814 280.774L94.544 280.663L94.544 280.663L94.5438 280.663L94.5431 280.662L94.5382 280.661L94.5162 280.653C94.4961 280.647 94.4654 280.636 94.4248 280.622C94.3436 280.594 94.2227 280.552 94.0674 280.496C93.7569 280.384 93.3098 280.217 92.7694 280.002C91.6864 279.569 90.2388 278.941 88.7683 278.159C87.2914 277.374 85.8268 276.452 84.6878 275.438C83.5365 274.414 82.8291 273.394 82.649 272.429L82.6468 272.413C82.6439 272.393 82.6395 272.361 82.6341 272.316C82.6233 272.227 82.6089 272.09 82.5961 271.913C82.5705 271.559 82.5516 271.045 82.5814 270.423C82.6411 269.176 82.8953 267.528 83.6578 265.883C84.415 264.248 85.6794 262.601 87.7951 261.329C89.8839 260.074 92.8581 259.152 97.0978 259.029C97.1049 259.032 97.1121 259.035 97.1196 259.038C97.2607 259.097 97.4705 259.187 97.7403 259.306C98.2801 259.544 99.0599 259.9 100.012 260.367C101.919 261.302 104.51 262.68 107.25 264.452C112.774 268.024 118.716 273.08 121.055 279.19C121.15 279.438 121.065 279.743 120.807 279.919Z" fill="white" stroke="#25316D" stroke-width="2"/>
<path fill-rule="evenodd" clip-rule="evenodd" d="M106.203 149.523C141.828 178.116 100.464 225.12 100.464 225.12C100.464 225.12 101.246 230.823 99.054 233.111C91.498 241 104.695 261.314 104.695 261.314C104.695 261.314 89.3321 271.044 84.9526 280.116C84.7442 280.548 83.5424 281.526 83.0722 281.526C83.0722 281.526 74.5878 267.538 72.7314 261.314C64.7406 234.521 65.2103 217.129 65.2103 217.129C71.3209 203.028 74.6349 194.397 81.1922 179.996C87.1578 166.884 98.3231 158.601 106.203 149.523Z" fill="#58B9FD"/>
<path fill-rule="evenodd" clip-rule="evenodd" d="M155.523 123.829C155.523 123.829 160.447 119.767 162.933 120.426L163.113 123.663C163.113 123.663 170.489 128.767 180.511 128.932C190.538 129.152 198.297 124.322 199.952 120.426C199.952 120.426 205.848 121.741 206.089 125.693C206.089 125.693 237.235 135.296 245.112 140.676C252.986 145.996 257.047 149.509 258.846 158.73C260.638 167.893 267.128 197.525 268.608 221.341C252.762 216.29 239.65 216.184 223.455 216.184C185.121 170.685 158.638 225.872 123.411 260.58C123.411 260.58 134.498 196.357 130.57 196.851C126.646 197.29 72.6809 218.267 72.6809 218.267C72.6809 218.267 71.7465 203.44 72.6809 199.268C73.6152 195.097 91.8494 150.167 96.0185 144.078C100.188 137.93 107.564 133.046 120.7 130.304C133.842 127.561 155.523 123.829 155.523 123.829Z" fill="#58B9FD"/>
<path d="M121.652 47C121.117 48.0658 120.714 49.172 120.32 50.2985C120.009 51.1994 119.711 52.1686 119.228 52.9933M118.193 53.7065C116.434 54.3521 114.702 55.0699 113 55.8579M113.01 55.9237C113.483 56.2335 113.931 56.5684 114.433 56.8296C115.829 57.5504 117.31 58.0604 118.736 58.7074M119.454 59.887C120.129 61.6048 121.049 63.1882 121.769 64.8807M121.816 65C122.018 64.3732 122.324 63.7793 122.602 63.1882C123.284 61.7317 124.065 60.316 124.635 58.8087M124.635 58.89C125.354 58.4893 126.165 58.271 126.91 57.9309C128.002 57.4285 129.913 56.6142 131 56.0559M121.945 47.1017C122.831 49.0274 123.727 50.9636 124.54 52.9248M124.538 53.0849C126.014 53.8664 129.482 55.0716 131 55.7743" stroke="#25316D" stroke-width="2" stroke-miterlimit="1.5" stroke-linecap="round" stroke-linejoin="round"/>
<path d="M85.5 168C87.5 164.5 88.3416 161.193 89.5 158C90.9673 153.9 93.1631 147.877 96.0004 144.5" stroke="#25316D" stroke-width="2" stroke-miterlimit="1.5" stroke-linecap="round" stroke-linejoin="round"/>
<path d="M131.859 175.749C134.899 190.084 134.443 206.364 129.773 220.306M141.362 173.735C143.244 180.166 143.499 186.841 143.477 193.502C143.484 202.042 142.675 210.702 139.766 218.795" stroke="#25316D" stroke-width="2" stroke-miterlimit="1.5" stroke-linecap="round" stroke-linejoin="round"/>
<path d="M155.795 127.874C158.516 132.099 163.177 134.68 167.734 136.436C178.973 140.715 194.76 140.222 202.814 130.123M199.874 120.411C200.546 120.411 201.224 120.521 201.869 120.686C204.164 121.453 205.327 123.321 205.896 125.513M149.527 129.191C151.276 131.606 153.183 134.075 155.401 136.051C158.308 138.632 161.838 140.55 165.477 141.867" stroke="#25316D" stroke-width="2" stroke-miterlimit="1.5" stroke-linecap="round" stroke-linejoin="round"/>
<path d="M162.918 120.771C160.443 120.825 157.268 121.922 155.93 124.172" stroke="#25316D" stroke-width="2" stroke-miterlimit="1.5" stroke-linecap="round" stroke-linejoin="round"/>
<path d="M68.971 219.01C70.851 227.471 81.1901 227.505 85.4226 229.351C90.0457 231.402 95.8856 223.029 99.999 226M75.5515 268.366C80.722 258.965 84.3924 255.691 97.1737 254.265" stroke="#25316D" stroke-width="2" stroke-miterlimit="1.5" stroke-linecap="round" stroke-linejoin="round"/>
<path d="M199.461 101.597L161.637 92.1963L162.577 123.219C162.577 123.219 173.586 128.956 181.379 128.86C189.606 128.759 199.461 123.49 199.461 123.49L199.461 101.597Z" fill="white"/>
<path d="M148 72.0002C152 84.0002 155 83.5002 156.5 81.4327C158.133 85.8973 160.028 90.3878 162.001 94.0003C163.501 96.7468 179.501 107 189.075 111.434C200.415 104.811 205.501 98.0003 208.001 95.5003C208.001 93.7508 208.75 88.5819 209.5 81.4327C209.5 78.7564 215.5 81.4327 215.5 69.0002C215.706 66.7114 213 61.5002 210.815 65.5002C210.932 63.6104 211.001 61.9071 211.001 60.5003C230.501 35.5003 208.5 29.5004 201 28.0004C200 17.5004 177.5 24.0003 170.501 31.0003C166.374 33.0978 162.382 39.5732 159.501 43.0003C155 43.5002 153.189 46.9755 151.5 51.0002C151.5 52.5002 153.037 61.3112 154 65.5002C147.5 62.0002 146.839 69.9416 148 72.0002Z" fill="white"/>
<path d="M190.923 67.9641C190.901 71.3117 191.289 74.5488 192.448 77.6765C192.732 78.4996 193.038 79.2684 193.426 79.9821C193.453 80.0368 193.819 80.6401 193.803 80.6401C193.552 80.9694 192.35 81.9998 192 81.9998C190.508 82.1096 188.899 81.9936 187.5 81.4998M181.946 65.2208C179.093 63.6293 175.668 63.6293 172.952 65.4951M206.311 66.3729C203.256 64.7267 200.021 64.6716 196.814 65.824M195.5 91.4999C190 93.4999 184.415 91.7252 181.044 89.3108M163.111 65.8248C163.739 72.0805 158.47 65.2442 159 71.4999M171.87 56.9902C170.236 60.941 166.821 63.7401 162.875 65.1668" stroke="#25316D" stroke-width="2" stroke-miterlimit="1.5" stroke-linecap="round" stroke-linejoin="round"/>
<path d="M159.405 73.8924C159.405 73.8924 160.93 88.7627 161.328 92.7135C161.392 93.3127 161.654 93.8731 162.072 94.3055C168.58 101.329 176.475 106.104 185.71 108.792C186.327 108.957 186.988 108.957 187.589 108.738C194.556 106.104 201.217 102.098 207.517 96.4455C208.053 95.9517 208.386 95.2931 208.446 94.5797C208.949 88.5435 211.293 60.2832 211.293 60.2832" stroke="#25316D" stroke-width="2" stroke-miterlimit="1.5" stroke-linecap="round" stroke-linejoin="round"/>
<path d="M199.641 102.591L199.105 123.336C199.105 123.336 180.144 135.296 163.768 123.336M162.107 95.0195L162.413 119.823" stroke="#25316D" stroke-width="2" stroke-miterlimit="1.5" stroke-linecap="round" stroke-linejoin="round"/>
<path d="M202.602 73.3246C202.382 73.3278 202.164 73.2872 201.961 73.2051C201.757 73.123 201.572 73.001 201.416 72.8464C201.259 72.6917 201.135 72.5074 201.051 72.3042C200.966 72.1009 200.922 71.8828 200.922 71.6624C200.922 71.4421 200.966 71.224 201.051 71.0208C201.135 70.8175 201.26 70.6332 201.416 70.4786C201.572 70.324 201.757 70.2021 201.961 70.1201C202.165 70.038 202.383 69.9974 202.602 70.0007C203.037 70.0072 203.451 70.1852 203.756 70.4962C204.061 70.8072 204.232 71.2262 204.232 71.6628C204.232 72.0994 204.061 72.5184 203.756 72.8294C203.451 73.1403 203.036 73.3182 202.602 73.3246ZM179.656 73.3246C179.217 73.3246 178.796 73.1494 178.485 72.8377C178.175 72.526 178 72.1031 178 71.6623C178 71.2214 178.175 70.7986 178.485 70.4869C178.796 70.1751 179.217 70 179.656 70C180.09 70.0064 180.505 70.1844 180.81 70.4954C181.116 70.8065 181.287 71.2256 181.287 71.6623C181.287 72.0989 181.116 72.5181 180.81 72.8291C180.505 73.1402 180.09 73.3181 179.656 73.3246Z" fill="#25316D"/>
<path fill-rule="evenodd" clip-rule="evenodd" d="M166.371 99.6426C166.371 99.6426 176.693 112.867 186.178 113.58C194.255 114.238 199.287 107.818 199.287 107.818V102.99C199.287 102.99 187.987 109.409 186.178 108.916C184.375 108.367 166.371 99.6426 166.371 99.6426Z" fill="#25316D"/>
<path d="M176.029 54.956C180.817 57.8757 185.851 60.5812 191.583 60.8314C194.238 60.9454 197.489 60.0882 197.978 56.9987M213.428 52.9472C213.743 53.6516 214.024 54.3976 214.128 55.1787C214.618 59.0104 210.808 60.3111 207.661 60.1377C202.592 59.8577 197.978 56.8847 194.799 53.0379M215.839 51.706C216.783 50.632 217.657 49.4396 218.181 48.1178C221.643 39.498 213.463 31.9558 206.054 29.5219C202.977 28.5105 198.574 27.7157 195.567 29.372C193.401 30.5505 196.51 33.0263 198.085 32.8345C200.601 32.5206 201.371 29.2847 200.635 27.2448C200.042 25.6827 198.713 24.6751 197.211 24.023C194.275 22.7503 191.198 22.8477 188.086 23.336C181.55 24.3681 175.294 27.7123 170.121 31.6978C168.059 33.281 165.822 34.9511 164.319 37.106M160.614 42.9153C159.601 43.006 158.587 43.2255 157.644 43.5951C150.722 46.2837 152.5 55.9999 153.5 61.4999M160.125 89.5C159.877 88.7693 159.615 85.2194 157.644 80.4999C157.147 79.3105 154 87.4999 149 75.9999C144.5 60.8314 153.5 64.4999 154.5 65.9999M161.208 33.9083C160.823 35.2751 160.579 36.6108 160.544 38.0299C160.544 38.4203 160.544 38.8145 160.579 39.205C160.579 39.2434 160.649 39.5434 160.614 39.5677C160.579 39.5957 160.159 39.4037 160.125 39.3863C159.563 39.198 159.039 38.9993 158.481 38.811C156.419 38.0928 154.182 37.4266 151.979 37.3671" stroke="#25316D" stroke-width="2" stroke-miterlimit="1.5" stroke-linecap="round" stroke-linejoin="round"/>
<path d="M153 72.9999C154.065 74.6164 154.247 75.1564 155.238 76.8188" stroke="#25316D" stroke-width="2" stroke-miterlimit="1.5" stroke-linecap="round" stroke-linejoin="round"/>
<path d="M210.012 72.2369C210 70.9362 210.025 69.6358 210.151 68.3592C210.468 65.3245 211.898 62.6751 213.531 64.7224C213.809 65.0596 214.05 65.4929 214.252 65.9746C215.822 69.8283 214.72 75.4885 212.797 78.0417C212 79.1014 210.962 79.9203 210 80.2576" stroke="#25316D" stroke-width="2" stroke-miterlimit="1.5" stroke-linecap="round" stroke-linejoin="round"/>
<path fill-rule="evenodd" clip-rule="evenodd" d="M233.5 237.501C233.5 237.501 236.258 255.792 242.758 254.792C254.792 252.941 274.28 247.966 266.805 203.579C255.925 205.461 233.679 230.203 237.583 220.566C241.487 210.932 256 212.501 256 204.501C256 204.501 255.33 195.931 255 193.001C253.373 178.557 259.428 149.564 246 144.001C238.77 141.005 232.275 150.244 232.275 150.244L227.678 145.919C227.678 145.919 225.832 142.266 221.525 138.058C215.95 151.402 211.198 172.18 212.467 203.579L218.5 216.001C218.79 216.234 232.517 236.576 233.5 237.501Z" fill="#58B9FD"/>
<path d="M264.903 240.989C267.287 232.368 268.352 222.499 267.465 213.965" stroke="#25316D" stroke-width="2" stroke-miterlimit="1.5" stroke-linecap="round" stroke-linejoin="round"/>
<path d="M221.572 184.001C222.696 186.847 223.494 189.811 224.559 192.631C226.331 197.284 228.323 201.871 230.106 206.518" stroke="#25316D" stroke-width="2" stroke-miterlimit="1.5" stroke-linecap="round" stroke-linejoin="round"/>
<path d="M259 159.501C258 154.001 253.126 146.988 248.5 143.501C242.588 139.006 235.128 135.68 228 133.433" stroke="#25316D" stroke-width="2" stroke-miterlimit="1.5" stroke-linecap="round" stroke-linejoin="round"/>
<path d="M205.2 284.488L205.2 284.488L205.206 284.5C205.395 284.885 205.352 285.349 205.076 285.711C205.075 285.712 205.075 285.713 205.074 285.713L197.094 296.019H166.97L166.866 295.889L166.223 295.078C165.678 294.392 164.92 293.436 164.068 292.364C162.365 290.218 160.287 287.601 158.788 285.718L158.785 285.714C158.52 285.384 158.458 284.908 158.653 284.492C158.748 284.298 158.894 284.135 159.075 284.021C159.257 283.906 159.467 283.845 159.681 283.843C159.682 283.843 159.683 283.843 159.683 283.843L204.181 283.843H204.183C204.395 283.843 204.603 283.903 204.783 284.017C204.963 284.131 205.108 284.294 205.2 284.488ZM262.569 194.025L262.568 194.027C259.999 208.635 251.517 256.874 249.323 269.361C249.105 270.597 248.033 271.495 246.787 271.495H117.441C116.212 271.495 115.146 270.613 114.91 269.388C113.759 263.364 110.984 248.856 108.113 233.85C105.082 218.005 101.944 201.605 100.501 194.052L100.501 194.051C100.358 193.307 100.553 192.528 101.047 191.917C101.541 191.325 102.272 190.977 103.032 190.977L260.032 190.977L260.033 190.977C260.409 190.976 260.779 191.058 261.12 191.217C261.46 191.377 261.762 191.609 262.003 191.899L262.004 191.9C262.495 192.489 262.702 193.274 262.569 194.025Z" fill="white" stroke="#25316D" stroke-width="2"/>
<path d="M182.092 228.496C190.241 228.496 196.859 235.137 196.859 243.324V296.024H167.324V243.324C167.324 235.136 173.939 228.496 182.092 228.496Z" fill="white" stroke="#25316D" stroke-width="2"/>
<path fill-rule="evenodd" clip-rule="evenodd" d="M188.87 243.265C188.87 239.504 185.834 236.457 182.091 236.457C178.348 236.457 175.314 239.504 175.314 243.265V255.44C175.314 259.194 178.348 262.24 182.091 262.24C185.834 262.24 188.87 259.194 188.87 255.44V243.265Z" fill="#58B9FD"/>
<path d="M120 268.011L106.463 198.382C106.223 197.147 107.169 196 108.426 196H225" stroke="#25316D" stroke-width="2"/>
<path d="M225.332 250.982C225.692 250.982 225.986 251.274 225.986 251.639V257.876C225.986 258.241 225.692 258.533 225.332 258.533H222.875C222.511 258.533 222.221 258.241 222.221 257.876V251.639C222.221 251.274 222.511 250.982 222.875 250.982H225.332Z" fill="#686868"/>
<path d="M234.646 250.982C235.005 250.982 235.3 251.274 235.3 251.639V257.876C235.3 258.241 235.005 258.533 234.646 258.533H232.188C231.825 258.533 231.535 258.241 231.535 257.876V251.639C231.535 251.274 231.825 250.982 232.188 250.982H234.646Z" fill="#686868"/>
<path d="M369.088 139.499C392.217 161.239 457.179 191.675 531.988 139.499" stroke="#303030" stroke-width="2" stroke-linecap="round" stroke-linejoin="round" stroke-dasharray="3.57 7.15"/>
<path d="M369.088 201.363C392.217 179.623 457.179 149.188 531.988 201.363" stroke="#303030" stroke-width="2" stroke-linecap="round" stroke-linejoin="round" stroke-dasharray="3.57 7.15"/>
<path d="M345.709 114.572C345.709 112.319 347.535 110.493 349.788 110.493H356.161C356.161 110.493 358.884 114.572 362.535 114.572C366.186 114.572 368.908 110.493 368.908 110.493H375.282C377.534 110.493 379.361 112.319 379.361 114.572V132.928H345.709V114.572Z" fill="white"/>
<path d="M372.225 96.2172C372.225 102.412 367.888 108.454 362.537 108.454C357.187 108.454 352.85 102.412 352.85 96.2172C352.85 90.0221 354.889 85 362.537 85C370.185 85 372.225 90.0221 372.225 96.2172Z" fill="white"/>
<path fill-rule="evenodd" clip-rule="evenodd" d="M372.596 94.7613C372.597 103.355 366.106 108.454 362.537 108.454C357.948 108.454 352.479 103.355 352.479 94.7613C352.479 88.0592 355.91 85 362.537 85C369.165 85 372.596 88.0592 372.596 94.7613Z" stroke="#25316D" stroke-width="2" stroke-linecap="round" stroke-linejoin="round"/>
<path d="M355.506 110.534C352.325 110.534 346.737 109.063 346.353 113.043C345.8 118.769 344.965 133.183 344.965 133.183H350.55C350.55 133.183 352.337 126.425 352.337 123.75C352.337 128.837 352.337 133.183 352.337 133.183H362.535H373.644C373.644 133.183 373.644 128.19 373.644 123.75C373.644 126.377 375.313 133.183 375.313 133.183H380.106C380.106 133.183 379.27 118.769 378.718 113.043C378.334 109.063 372.745 110.534 369.565 110.534" stroke="#25316D" stroke-width="2" stroke-linecap="round" stroke-linejoin="round"/>
<path d="M517.844 114.572C517.844 112.319 519.67 110.493 521.923 110.493H528.296C528.296 110.493 531.018 114.572 534.67 114.572C538.321 114.572 541.043 110.493 541.043 110.493H547.416C549.669 110.493 551.495 112.319 551.495 114.572V132.928H517.844V114.572Z" fill="white"/>
<path d="M544.36 96.2172C544.36 102.412 540.022 108.454 534.672 108.454C529.322 108.454 524.984 102.412 524.984 96.2172C524.984 90.0221 527.024 85 534.672 85C542.32 85 544.36 90.0221 544.36 96.2172Z" fill="white"/>
<path fill-rule="evenodd" clip-rule="evenodd" d="M544.731 94.7613C544.731 103.355 538.24 108.454 534.672 108.454C530.082 108.454 524.613 103.355 524.613 94.7613C524.613 88.0592 528.045 85 534.672 85C541.3 85 544.731 88.0592 544.731 94.7613Z" stroke="#25316D" stroke-width="2" stroke-linecap="round" stroke-linejoin="round"/>
<path d="M527.641 110.534C524.46 110.534 518.871 109.063 518.487 113.043C517.935 118.769 517.1 133.183 517.1 133.183H522.685C522.685 133.183 524.472 126.425 524.472 123.75C524.472 128.837 524.472 133.183 524.472 133.183H534.67H545.779C545.779 133.183 545.779 128.19 545.779 123.75C545.779 126.377 547.448 133.183 547.448 133.183H552.241C552.241 133.183 551.405 118.769 550.852 113.043C550.468 109.063 544.88 110.534 541.7 110.534" stroke="#25316D" stroke-width="2" stroke-linecap="round" stroke-linejoin="round"/>
<path d="M479.149 143.369H418.028C413.206 143.369 409.297 147.278 409.297 152.101V178.295C409.297 183.117 413.206 187.027 418.028 187.027H479.149C483.971 187.027 487.88 183.117 487.88 178.295V152.101C487.88 147.278 483.971 143.369 479.149 143.369Z" fill="white"/>
<path d="M487.88 156.466C480.647 156.466 474.783 150.603 474.783 143.369M409.297 156.466C416.53 156.466 422.394 150.603 422.394 143.369M487.88 173.929C480.647 173.929 474.783 179.793 474.783 187.027M418.028 143.369H479.149C483.971 143.369 487.88 147.278 487.88 152.101V178.295C487.88 183.117 483.971 187.027 479.149 187.027H418.028C413.206 187.027 409.297 183.117 409.297 178.295V152.101C409.297 147.278 413.206 143.369 418.028 143.369Z" stroke="#25316D" stroke-width="2" stroke-linecap="round" stroke-linejoin="round"/>
<path d="M448.68 175.751C454.552 175.751 459.314 170.996 459.314 165.128C459.314 159.26 454.552 154.505 448.68 154.505C442.809 154.505 438.047 159.26 438.047 165.128C438.047 170.996 442.809 175.751 448.68 175.751Z" fill="#CB2027" stroke="#25316D" stroke-width="2"/>
<path d="M424.525 185.733C424.27 178.504 418.203 172.85 410.974 173.105" stroke="#25316D" stroke-width="2" stroke-linecap="square" stroke-linejoin="round"/>
<path d="M350.568 250.345V205.336C352.751 206.548 355.115 206.952 356.024 207.003C358.57 204.821 363.349 206.094 365.42 207.003C368.087 204.699 372.795 206.043 374.816 207.003C378.817 205.184 380.827 205.639 381.332 206.094C383.272 207.67 387.192 206.245 388.91 205.336L387.546 215.944L388.91 244.89C388.91 244.89 400.704 243.969 397.245 247.921C399.367 253.983 393.759 255.498 393.759 255.498H360.722C353.084 257.195 350.77 252.77 350.568 250.345Z" fill="white"/>
<path d="M366.246 219.078H368.901M381.182 219.078H379.54M378.578 219.078H373.994M372.862 219.078H370.033" stroke="#25316D" stroke-linecap="round"/>
<path d="M364.791 223.266H365.845M381.182 223.266H376.315M375.409 223.266H371.391M369.806 223.266H366.467" stroke="#25316D" stroke-linecap="round"/>
<path d="M359.285 227.453H364.543M381.182 227.453H378.445M365.958 227.453H371.674M372.862 227.453H377.076" stroke="#25316D" stroke-linecap="round"/>
<path d="M359.272 231.641H366.524M381.182 231.641H377.333M374.786 231.641H372.636M368.278 231.641H371.051" stroke="#25316D" stroke-linecap="round"/>
<path d="M380.73 213.758V215.342L378.372 213.758L377.618 215.342L376.014 213.758L375.435 215.342L373.656 213.758L373.365 215.342M371.295 215.342L371.298 213.758L369.226 215.342L368.94 213.758L367.156 215.342L366.582 213.758L365.086 215.342" stroke="#25316D" stroke-linecap="round" stroke-linejoin="round"/>
<path d="M361.064 245.083H397.928" stroke="#25316D" stroke-width="2" stroke-linecap="round"/>
<path d="M350.633 250.3C350.633 253.18 352.969 255.516 355.85 255.516C358.731 255.516 361.066 253.18 361.066 250.3V245.083" stroke="#25316D" stroke-width="2"/>
<path d="M392.002 255.5C394.883 255.5 397.928 253.18 397.928 250.3V245.083" stroke="#25316D" stroke-width="2"/>
<path d="M397.665 248.528L397.641 245.224H396.766V250.925C396.722 254.209 390.677 254.788 390.677 254.788C390.677 254.788 394.005 255.177 394.934 254.789C396.179 254.269 397.059 252.997 397.453 252.114C397.847 251.231 397.665 248.528 397.665 248.528Z" fill="#DAE8F1"/>
<path d="M392.332 255.75H356.564C354.565 256.014 350.565 255.025 350.565 248.959C350.565 242.892 350.565 216.285 350.565 205.381L353.538 206.55C354.611 206.972 355.804 206.979 356.882 206.57L358.37 206.005C359.431 205.603 360.602 205.603 361.663 206.005L363.181 206.581C364.242 206.984 365.413 206.984 366.473 206.581L367.991 206.005C369.052 205.603 370.223 205.603 371.284 206.005L372.802 206.581C373.863 206.984 375.034 206.984 376.094 206.581L377.612 206.005C378.673 205.603 379.844 205.603 380.905 206.005L382.423 206.581C383.484 206.984 384.655 206.984 385.716 206.581L388.88 205.381C388.88 205.381 387.522 213.078 387.522 216.19C387.522 221.262 388.748 237.055 388.88 245.11" stroke="#25316D" stroke-width="2"/>
<circle cx="0.696853" cy="0.696853" r="0.696853" transform="matrix(-1 0 0 1 379.842 237.839)" fill="#CB2027"/>
<path d="M379.164 240.025C380.01 240.025 380.695 239.339 380.695 238.493C380.695 237.647 380.01 236.961 379.164 236.961C378.318 236.961 377.632 237.647 377.632 238.493C377.632 239.339 378.318 240.025 379.164 240.025ZM379.164 240.025L378.234 241.512C378.129 241.68 377.871 241.595 377.885 241.398L377.923 240.9C377.935 240.748 377.771 240.646 377.639 240.723L377.208 240.975C377.038 241.075 376.848 240.879 376.953 240.712L377.847 239.276M379.164 240.025L380.093 241.512C380.198 241.68 380.457 241.595 380.442 241.398L380.404 240.9C380.393 240.748 380.556 240.646 380.688 240.723L381.119 240.975C381.289 241.075 381.479 240.879 381.374 240.712L380.48 239.276M378.653 238.493C378.653 238.775 378.882 239.003 379.164 239.003C379.446 239.003 379.674 238.775 379.674 238.493C379.674 238.211 379.446 237.982 379.164 237.982C378.882 237.982 378.653 238.211 378.653 238.493Z" stroke="#25316D" stroke-width="0.2" stroke-linecap="round" stroke-linejoin="round"/>
<path d="M373.799 237.367C374.206 237.589 374.517 238.001 374.681 238.428M374.825 238.955C374.919 239.659 374.649 240.361 374.132 240.846M373.414 237.21C372.709 236.958 371.837 237.05 371.251 237.539C370.971 237.771 370.767 238.102 370.651 238.445M370.529 238.821C370.467 239.267 370.52 239.758 370.721 240.17C371.24 241.244 372.587 241.831 373.95 241.02M374.025 238.524C373.564 238.348 373.137 238.082 372.67 237.919M372.645 237.916C372.259 238.105 371.669 238.294 371.295 238.505M374.035 238.582C374.034 239.149 373.807 239.722 373.452 240.158" stroke="#25316D" stroke-width="0.2" stroke-miterlimit="1.5" stroke-linecap="round" stroke-linejoin="round"/>
<path d="M373.162 239.197L372.709 239.6L372.019 238.814" stroke="#CB2027" stroke-width="0.2" stroke-miterlimit="1.5" stroke-linecap="round" stroke-linejoin="round"/>
<path d="M373.191 240.392C373.009 240.5 372.902 240.584 372.702 240.657M372.658 240.677C372.044 240.462 371.615 239.985 371.412 239.36C371.339 239.133 371.292 238.787 371.282 238.55" stroke="#25316D" stroke-width="0.2" stroke-miterlimit="1.5" stroke-linecap="round" stroke-linejoin="round"/>
<mask id="path-63-inside-1_994_23876" fill="white">
<rect width="4.30117" height="0.565943" rx="0.113189" transform="matrix(-1 0 0 1 368.51 241.036)"/>
</mask>
<rect width="4.30117" height="0.565943" rx="0.113189" transform="matrix(-1 0 0 1 368.51 241.036)" stroke="#25316D" stroke-width="0.4" stroke-linecap="round" stroke-linejoin="round" mask="url(#path-63-inside-1_994_23876)"/>
<path d="M368.41 238.785V238.465L366.359 237.192L364.309 238.465V238.785H368.41Z" stroke="#25316D" stroke-width="0.2" stroke-linecap="round" stroke-linejoin="round"/>
<path d="M368.059 239.564V240.923" stroke="#25316D" stroke-width="0.2" stroke-linecap="round" stroke-linejoin="round"/>
<path d="M367.379 239.564V240.923" stroke="#25316D" stroke-width="0.2" stroke-linecap="round" stroke-linejoin="round"/>
<path d="M366.697 239.564V240.923" stroke="#25316D" stroke-width="0.2" stroke-linecap="round" stroke-linejoin="round"/>
<path d="M366.018 239.564V240.923" stroke="#25316D" stroke-width="0.2" stroke-linecap="round" stroke-linejoin="round"/>
<path d="M365.34 239.564V240.923" stroke="#25316D" stroke-width="0.2" stroke-linecap="round" stroke-linejoin="round"/>
<path d="M364.773 239.564V240.923" stroke="#25316D" stroke-width="0.2" stroke-linecap="round" stroke-linejoin="round"/>
<rect width="4.07479" height="0.452755" rx="0.113189" transform="matrix(-1 0 0 1 368.395 239.112)" fill="#CB2027"/>
<circle cx="0.339566" cy="0.339566" r="0.339566" transform="matrix(-1 0 0 1 366.697 237.754)" fill="#CB2027"/>
<path d="M357.507 216.753C357.507 220.483 354.483 223.507 350.753 223.507C347.024 223.507 344 220.483 344 216.753C344 213.024 347.024 210 350.753 210C354.483 210 357.507 213.024 357.507 216.753Z" fill="white" stroke="#25316D" stroke-width="2"/>
<path d="M350.845 214.311C350.811 214.207 350.663 214.207 350.629 214.311L350.013 216.209C349.998 216.255 349.954 216.287 349.905 216.287H347.91C347.8 216.287 347.755 216.427 347.843 216.491L349.458 217.664C349.497 217.693 349.514 217.744 349.499 217.791L348.882 219.689C348.848 219.793 348.968 219.88 349.056 219.815L350.671 218.642C350.71 218.613 350.764 218.613 350.804 218.642L352.418 219.815C352.507 219.88 352.626 219.793 352.592 219.689L351.976 217.791C351.96 217.744 351.977 217.693 352.017 217.664L353.631 216.491C353.72 216.427 353.674 216.287 353.564 216.287H351.569C351.52 216.287 351.477 216.255 351.461 216.209L350.845 214.311Z" fill="#58B9FD"/>
<path d="M348.185 213.293C348.151 213.189 348.003 213.189 347.969 213.293L347.848 213.666C347.833 213.712 347.79 213.744 347.741 213.744H347.349C347.239 213.744 347.194 213.884 347.282 213.949L347.599 214.179C347.639 214.208 347.656 214.259 347.641 214.306L347.519 214.678C347.486 214.782 347.605 214.869 347.694 214.805L348.011 214.574C348.05 214.546 348.104 214.546 348.144 214.574L348.461 214.805C348.549 214.869 348.669 214.782 348.635 214.678L348.514 214.306C348.499 214.259 348.515 214.208 348.555 214.179L348.872 213.949C348.96 213.884 348.915 213.744 348.805 213.744H348.413C348.364 213.744 348.321 213.712 348.306 213.666L348.185 213.293Z" fill="#58B9FD"/>
<path d="M353.394 213.293C353.36 213.189 353.212 213.189 353.178 213.293L353.057 213.666C353.042 213.712 352.999 213.744 352.95 213.744H352.558C352.448 213.744 352.403 213.884 352.491 213.949L352.808 214.179C352.848 214.208 352.865 214.259 352.849 214.306L352.728 214.678C352.695 214.782 352.814 214.869 352.903 214.805L353.22 214.574C353.259 214.546 353.313 214.546 353.353 214.574L353.67 214.805C353.758 214.869 353.878 214.782 353.844 214.678L353.723 214.306C353.708 214.259 353.724 214.208 353.764 214.179L354.081 213.949C354.169 213.884 354.124 213.744 354.014 213.744H353.622C353.573 213.744 353.53 213.712 353.515 213.666L353.394 213.293Z" fill="#58B9FD"/>
<path d="M347.042 213.653L346.953 213.608L347.042 213.653C347.032 213.674 347.018 213.693 347.002 213.709L345.83 214.865C345.827 214.868 345.826 214.872 345.827 214.876L346.095 216.499C346.099 216.522 346.099 216.546 346.095 216.569L345.827 218.192C345.826 218.196 345.827 218.201 345.83 218.204L347.002 219.359C347.018 219.376 347.032 219.395 347.042 219.416L347.78 220.887C347.781 220.89 347.785 220.893 347.789 220.894L349.416 221.14L349.401 221.239L349.416 221.14C349.439 221.144 349.461 221.151 349.482 221.162L350.943 221.918C350.947 221.92 350.951 221.92 350.955 221.918L352.416 221.162C352.437 221.151 352.459 221.144 352.482 221.14L352.497 221.239L352.482 221.14L354.109 220.894C354.113 220.893 354.117 220.89 354.119 220.887L354.856 219.416C354.867 219.395 354.88 219.376 354.897 219.359L356.068 218.204C356.071 218.201 356.073 218.196 356.072 218.192L355.804 216.569C355.8 216.546 355.8 216.522 355.804 216.499L356.072 214.876C356.073 214.872 356.071 214.868 356.068 214.865L354.897 213.709C354.88 213.693 354.867 213.674 354.856 213.653L354.119 212.182C354.117 212.178 354.113 212.175 354.109 212.175L352.482 211.928C352.459 211.925 352.437 211.917 352.416 211.907L350.955 211.15C350.951 211.148 350.947 211.148 350.943 211.15L349.482 211.907C349.461 211.917 349.439 211.925 349.416 211.928L347.789 212.175C347.785 212.175 347.781 212.178 347.78 212.182L347.042 213.653Z" stroke="#CB2027" stroke-width="0.2"/>
<path d="M347.939 220.501L347.893 220.59L347.939 220.501C347.959 220.511 347.978 220.525 347.994 220.542L349.101 221.678C349.104 221.681 349.109 221.683 349.113 221.682L350.68 221.433C350.703 221.43 350.726 221.43 350.749 221.434L350.732 221.532L350.749 221.434L352.312 221.703C352.317 221.703 352.321 221.702 352.324 221.699L353.445 220.577L353.516 220.648L353.445 220.577C353.462 220.56 353.481 220.547 353.502 220.536L354.925 219.835C354.928 219.833 354.931 219.829 354.932 219.825L355.179 218.258C355.183 218.235 355.191 218.213 355.201 218.192L355.94 216.788C355.942 216.785 355.942 216.78 355.94 216.776L355.22 215.363C355.209 215.342 355.202 215.32 355.198 215.297L354.971 213.727C354.97 213.723 354.968 213.719 354.964 213.717L353.55 212.997C353.529 212.987 353.511 212.973 353.494 212.956L352.387 211.82C352.384 211.817 352.38 211.815 352.376 211.816L350.809 212.065L350.793 211.966L350.809 212.065C350.786 212.068 350.763 212.068 350.74 212.064L349.176 211.796C349.172 211.795 349.168 211.796 349.165 211.799L348.043 212.921C348.027 212.938 348.008 212.951 347.987 212.962L346.564 213.663C346.56 213.665 346.558 213.669 346.557 213.673L346.309 215.24C346.306 215.263 346.298 215.285 346.287 215.306L345.549 216.71C345.547 216.713 345.547 216.718 345.549 216.722L346.269 218.135C346.28 218.156 346.287 218.178 346.29 218.201L346.518 219.771C346.518 219.775 346.521 219.779 346.525 219.781L347.939 220.501Z" stroke="#CB2027" stroke-width="0.2"/>
<path d="M383.072 245.108L398.07 245.108" stroke="#25316D" stroke-width="0.606188" stroke-linecap="round" stroke-linejoin="round"/>
<path d="M546.914 250.345V205.336C544.732 206.548 542.368 206.952 541.458 207.003C538.912 204.821 534.134 206.094 532.062 207.003C529.395 204.699 524.687 206.043 522.667 207.003C518.666 205.184 516.655 205.639 516.15 206.094C514.21 207.67 510.29 206.245 508.573 205.336L509.937 215.944L508.573 244.89C508.573 244.89 496.778 243.969 500.237 247.921C498.116 253.983 503.723 255.498 503.723 255.498H536.76C544.398 257.195 546.712 252.77 546.914 250.345Z" fill="white"/>
<path d="M531.236 219.078H528.582M516.301 219.078H517.942M518.904 219.078H523.488M524.62 219.078H527.45" stroke="#25316D" stroke-linecap="round"/>
<path d="M532.691 223.266H531.638M516.301 223.266H521.168M522.073 223.266H526.092M527.676 223.266H531.015" stroke="#25316D" stroke-linecap="round"/>
<path d="M538.197 227.453H532.94M516.301 227.453H519.038M531.525 227.453H525.809M524.62 227.453H520.406" stroke="#25316D" stroke-linecap="round"/>
<path d="M538.21 231.641H530.959M516.301 231.641H520.149M522.696 231.641H524.847M529.204 231.641H526.431" stroke="#25316D" stroke-linecap="round"/>
<path d="M516.752 213.758V215.342L519.11 213.758L519.865 215.342L521.468 213.758L522.048 215.342L523.826 213.758L524.117 215.342M526.187 215.342L526.184 213.758L528.257 215.342L528.542 213.758L530.327 215.342L530.901 213.758L532.396 215.342" stroke="#25316D" stroke-linecap="round" stroke-linejoin="round"/>
<path d="M536.418 245.083H499.555" stroke="#25316D" stroke-width="2" stroke-linecap="round"/>
<path d="M546.849 250.3C546.849 253.18 544.513 255.516 541.633 255.516C538.752 255.516 536.416 253.18 536.416 250.3V245.083" stroke="#25316D" stroke-width="2"/>
<path d="M505.48 255.5C502.599 255.5 499.555 253.18 499.555 250.3V245.083" stroke="#25316D" stroke-width="2"/>
<path d="M499.817 248.528L499.841 245.224H500.716V250.925C500.76 254.209 506.806 254.788 506.806 254.788C506.806 254.788 503.477 255.177 502.549 254.789C501.303 254.269 500.423 252.997 500.029 252.114C499.635 251.231 499.817 248.528 499.817 248.528Z" fill="#DAE8F1"/>
<path d="M505.15 255.75H540.918C542.918 256.014 546.917 255.025 546.917 248.959C546.917 242.892 546.917 216.285 546.917 205.381L543.945 206.55C542.871 206.972 541.679 206.979 540.6 206.57L539.112 206.005C538.051 205.603 536.88 205.603 535.82 206.005L534.301 206.581C533.241 206.984 532.07 206.984 531.009 206.581L529.491 206.005C528.43 205.603 527.259 205.603 526.198 206.005L524.68 206.581C523.62 206.984 522.449 206.984 521.388 206.581L519.87 206.005C518.809 205.603 517.638 205.603 516.577 206.005L515.059 206.581C513.999 206.984 512.828 206.984 511.767 206.581L508.603 205.381C508.603 205.381 509.961 213.078 509.961 216.19C509.961 221.262 508.735 237.055 508.603 245.11" stroke="#25316D" stroke-width="2"/>
<circle cx="518.337" cy="238.536" r="0.696853" fill="#CB2027"/>
<path d="M518.319 240.025C517.473 240.025 516.787 239.339 516.787 238.493C516.787 237.647 517.473 236.961 518.319 236.961C519.165 236.961 519.851 237.647 519.851 238.493C519.851 239.339 519.165 240.025 518.319 240.025ZM518.319 240.025L519.249 241.512C519.353 241.68 519.612 241.595 519.597 241.398L519.559 240.9C519.548 240.748 519.712 240.646 519.843 240.723L520.274 240.975C520.444 241.075 520.634 240.879 520.53 240.712L519.636 239.276M518.319 240.025L517.389 241.512C517.285 241.68 517.026 241.595 517.041 241.398L517.078 240.9C517.09 240.748 516.926 240.646 516.795 240.723L516.363 240.975C516.193 241.075 516.004 240.879 516.108 240.712L517.002 239.276M518.829 238.493C518.829 238.775 518.601 239.003 518.319 239.003C518.037 239.003 517.808 238.775 517.808 238.493C517.808 238.211 518.037 237.982 518.319 237.982C518.601 237.982 518.829 238.211 518.829 238.493Z" stroke="#25316D" stroke-width="0.2" stroke-linecap="round" stroke-linejoin="round"/>
<path d="M523.684 237.367C523.276 237.589 522.965 238.001 522.802 238.428M522.657 238.955C522.563 239.659 522.833 240.361 523.35 240.846M524.068 237.21C524.773 236.958 525.645 237.05 526.231 237.539C526.511 237.771 526.715 238.102 526.831 238.445M526.954 238.821C527.016 239.267 526.962 239.758 526.762 240.17C526.243 241.244 524.895 241.831 523.533 241.02M523.457 238.524C523.919 238.348 524.345 238.082 524.812 237.919M524.837 237.916C525.224 238.105 525.813 238.294 526.187 238.505M523.448 238.582C523.449 239.149 523.675 239.722 524.031 240.158" stroke="#25316D" stroke-width="0.2" stroke-miterlimit="1.5" stroke-linecap="round" stroke-linejoin="round"/>
<path d="M524.32 239.197L524.773 239.6L525.463 238.814" stroke="#CB2027" stroke-width="0.2" stroke-miterlimit="1.5" stroke-linecap="round" stroke-linejoin="round"/>
<path d="M524.291 240.392C524.474 240.5 524.581 240.584 524.781 240.657M524.825 240.677C525.439 240.462 525.867 239.985 526.07 239.36C526.143 239.133 526.19 238.787 526.201 238.55" stroke="#25316D" stroke-width="0.2" stroke-miterlimit="1.5" stroke-linecap="round" stroke-linejoin="round"/>
<mask id="path-96-inside-2_994_23876" fill="white">
<rect x="528.973" y="241.036" width="4.30117" height="0.565943" rx="0.113189"/>
</mask>
<rect x="528.973" y="241.036" width="4.30117" height="0.565943" rx="0.113189" stroke="#25316D" stroke-width="0.4" stroke-linecap="round" stroke-linejoin="round" mask="url(#path-96-inside-2_994_23876)"/>
<path d="M529.073 238.785V238.465L531.123 237.192L533.174 238.465V238.785H529.073Z" stroke="#25316D" stroke-width="0.2" stroke-linecap="round" stroke-linejoin="round"/>
<path d="M529.424 239.564V240.923" stroke="#25316D" stroke-width="0.2" stroke-linecap="round" stroke-linejoin="round"/>
<path d="M530.104 239.564V240.923" stroke="#25316D" stroke-width="0.2" stroke-linecap="round" stroke-linejoin="round"/>
<path d="M530.785 239.564V240.923" stroke="#25316D" stroke-width="0.2" stroke-linecap="round" stroke-linejoin="round"/>
<path d="M531.465 239.564V240.923" stroke="#25316D" stroke-width="0.2" stroke-linecap="round" stroke-linejoin="round"/>
<path d="M532.143 239.564V240.923" stroke="#25316D" stroke-width="0.2" stroke-linecap="round" stroke-linejoin="round"/>
<path d="M532.709 239.564V240.923" stroke="#25316D" stroke-width="0.2" stroke-linecap="round" stroke-linejoin="round"/>
<rect x="529.088" y="239.112" width="4.07479" height="0.452755" rx="0.113189" fill="#CB2027"/>
<circle cx="531.125" cy="238.093" r="0.339566" fill="#CB2027"/>
<path d="M539.976 216.753C539.976 220.483 542.999 223.507 546.729 223.507C550.459 223.507 553.482 220.483 553.482 216.753C553.482 213.024 550.459 210 546.729 210C542.999 210 539.976 213.024 539.976 216.753Z" fill="white" stroke="#25316D" stroke-width="2"/>
<path d="M546.638 214.311C546.672 214.207 546.819 214.207 546.853 214.311L547.47 216.209C547.485 216.255 547.528 216.287 547.577 216.287H549.573C549.682 216.287 549.728 216.427 549.639 216.491L548.025 217.664C547.985 217.693 547.969 217.744 547.984 217.791L548.6 219.689C548.634 219.793 548.515 219.88 548.426 219.815L546.812 218.642C546.772 218.613 546.718 218.613 546.679 218.642L545.064 219.815C544.976 219.88 544.856 219.793 544.89 219.689L545.507 217.791C545.522 217.744 545.505 217.693 545.466 217.664L543.852 216.491C543.763 216.427 543.808 216.287 543.918 216.287H545.913C545.962 216.287 546.006 216.255 546.021 216.209L546.638 214.311Z" fill="#58B9FD"/>
<path d="M549.298 213.293C549.332 213.189 549.479 213.189 549.513 213.293L549.634 213.666C549.649 213.712 549.693 213.744 549.742 213.744H550.133C550.243 213.744 550.289 213.884 550.2 213.949L549.883 214.179C549.843 214.208 549.827 214.259 549.842 214.306L549.963 214.678C549.997 214.782 549.878 214.869 549.789 214.805L549.472 214.574C549.432 214.546 549.378 214.546 549.339 214.574L549.022 214.805C548.933 214.869 548.814 214.782 548.848 214.678L548.969 214.306C548.984 214.259 548.967 214.208 548.928 214.179L548.611 213.949C548.522 213.884 548.568 213.744 548.677 213.744H549.069C549.118 213.744 549.161 213.712 549.177 213.666L549.298 213.293Z" fill="#58B9FD"/>
<path d="M544.089 213.293C544.123 213.189 544.27 213.189 544.304 213.293L544.425 213.666C544.44 213.712 544.484 213.744 544.533 213.744H544.924C545.034 213.744 545.08 213.884 544.991 213.949L544.674 214.179C544.634 214.208 544.618 214.259 544.633 214.306L544.754 214.678C544.788 214.782 544.669 214.869 544.58 214.805L544.263 214.574C544.223 214.546 544.169 214.546 544.13 214.574L543.813 214.805C543.724 214.869 543.605 214.782 543.639 214.678L543.76 214.306C543.775 214.259 543.758 214.208 543.719 214.179L543.402 213.949C543.313 213.884 543.359 213.744 543.468 213.744H543.86C543.909 213.744 543.952 213.712 543.968 213.666L544.089 213.293Z" fill="#58B9FD"/>
<path d="M550.44 213.653L550.529 213.608L550.44 213.653C550.451 213.674 550.464 213.693 550.481 213.709L551.652 214.865C551.655 214.868 551.656 214.872 551.656 214.876L551.388 216.499C551.384 216.522 551.384 216.546 551.388 216.569L551.656 218.192C551.656 218.196 551.655 218.201 551.652 218.204L550.481 219.359C550.464 219.376 550.451 219.395 550.44 219.416L549.703 220.887C549.701 220.89 549.697 220.893 549.693 220.894L548.066 221.14L548.081 221.239L548.066 221.14C548.043 221.144 548.021 221.151 548 221.162L546.539 221.918C546.535 221.92 546.531 221.92 546.527 221.918L545.066 221.162C545.045 221.151 545.023 221.144 545 221.14L544.985 221.239L545 221.14L543.373 220.894C543.369 220.893 543.365 220.89 543.364 220.887L542.626 219.416C542.616 219.395 542.602 219.376 542.585 219.359L541.414 218.204C541.411 218.201 541.41 218.196 541.411 218.192L541.679 216.569C541.683 216.546 541.683 216.522 541.679 216.499L541.411 214.876C541.41 214.872 541.411 214.868 541.414 214.865L542.585 213.709C542.602 213.693 542.616 213.674 542.626 213.653L543.364 212.182C543.365 212.178 543.369 212.175 543.373 212.175L545 211.928C545.023 211.925 545.045 211.917 545.066 211.907L546.527 211.15C546.531 211.148 546.535 211.148 546.539 211.15L548 211.907C548.021 211.917 548.043 211.925 548.066 211.928L549.693 212.175C549.697 212.175 549.701 212.178 549.703 212.182L550.44 213.653Z" stroke="#CB2027" stroke-width="0.2"/>
<path d="M549.544 220.501L549.589 220.59L549.544 220.501C549.523 220.511 549.504 220.525 549.488 220.542L548.381 221.678C548.378 221.681 548.374 221.683 548.37 221.682L546.803 221.433C546.78 221.43 546.756 221.43 546.733 221.434L546.75 221.532L546.733 221.434L545.17 221.703C545.166 221.703 545.161 221.702 545.158 221.699L544.037 220.577L543.966 220.648L544.037 220.577C544.021 220.56 544.001 220.547 543.981 220.536L542.558 219.835C542.554 219.833 542.551 219.829 542.551 219.825L542.303 218.258C542.299 218.235 542.292 218.213 542.281 218.192L541.542 216.788C541.54 216.785 541.54 216.78 541.542 216.776L542.263 215.363C542.273 215.342 542.281 215.32 542.284 215.297L542.512 213.727C542.512 213.723 542.515 213.719 542.519 213.717L543.932 212.997C543.953 212.987 543.972 212.973 543.988 212.956L545.095 211.82C545.098 211.817 545.102 211.815 545.107 211.816L546.673 212.065L546.689 211.966L546.673 212.065C546.696 212.068 546.72 212.068 546.743 212.064L548.306 211.796C548.31 211.795 548.315 211.796 548.318 211.799L549.439 212.921C549.456 212.938 549.475 212.951 549.496 212.962L550.918 213.663C550.922 213.665 550.925 213.669 550.925 213.673L551.173 215.24C551.177 215.263 551.184 215.285 551.195 215.306L551.934 216.71C551.936 216.713 551.936 216.718 551.934 216.722L551.213 218.135C551.203 218.156 551.196 218.178 551.192 218.201L550.965 219.771C550.964 219.775 550.961 219.779 550.957 219.781L549.544 220.501Z" stroke="#CB2027" stroke-width="0.2"/>
<path d="M514.41 245.108L499.413 245.108" stroke="#25316D" stroke-width="0.606188" stroke-linecap="round" stroke-linejoin="round"/>
</svg>
