<svg width="64" height="64" viewBox="0 0 64 64" fill="none" xmlns="http://www.w3.org/2000/svg">
<path d="M40.4724 24.4588L18.8728 6.55777C17.1686 5.14542 14.6422 5.38198 13.2298 7.08615L5.55797 16.3431C4.14562 18.0473 4.38219 20.5737 6.08635 21.9861L27.686 39.8871C29.3901 41.2994 31.9165 41.0628 33.3289 39.3587L41.0007 30.1017C42.4131 28.3975 42.1765 25.8711 40.4724 24.4588Z" fill="white"/>
<path d="M26.365 25.7797C24.9527 27.4839 22.4262 27.7204 20.7221 26.3081C19.0179 24.8957 18.7814 22.3693 20.1937 20.6651C21.6061 18.961 24.1325 18.7244 25.8366 20.1368C27.5408 21.5491 27.7774 24.0755 26.365 25.7797Z" fill="white"/>
<path d="M39.7221 31.6445C37.1659 29.526 36.811 25.7364 38.9295 23.1801M11.9512 8.62898C14.5074 10.7475 18.2971 10.3927 20.4156 7.83641M34.6075 37.8158C32.0513 35.6973 28.2616 36.0522 26.1431 38.6084M18.8728 6.55777L40.4724 24.4588C42.1765 25.8711 42.4131 28.3975 41.0007 30.1017L33.3289 39.3587C31.9165 41.0628 29.3901 41.2994 27.686 39.8871L6.08635 21.9861C4.38219 20.5737 4.14562 18.0473 5.55797 16.3431L13.2298 7.08615C14.6422 5.38198 17.1686 5.14542 18.8728 6.55777ZM26.365 25.7797C24.9527 27.4839 22.4262 27.7204 20.7221 26.3081C19.0179 24.8957 18.7814 22.3693 20.1937 20.6651C21.6061 18.961 24.1325 18.7244 25.8366 20.1368C27.5408 21.5491 27.7774 24.0755 26.365 25.7797Z" stroke="#25316D" stroke-width="2" stroke-linecap="round" stroke-linejoin="round"/>
<circle cx="23.7837" cy="22.827" r="4.5" transform="rotate(39.6507 23.7837 22.827)" fill="#CB2027"/>
<path d="M8.76071 23.4313C10.7879 20.802 10.2998 17.0272 7.67054 15" stroke="#25316D" stroke-width="2" stroke-linecap="square" stroke-linejoin="round"/>
<path d="M58.9997 47.0708L55.9997 57.5C55.4999 57.4999 50.9999 54.9999 49.0002 56C49.0002 56 38.1476 59.7686 31.5002 58C27.4487 56.9221 25 54.5 22.0002 53C19.0004 51.5001 13.5 48 12.8119 47.0708C11.982 45.9501 11.9997 44.9999 12.812 43.5C13.4143 42.3877 13.9997 41.9998 17 42.4999L25.9997 47.0708C26.9997 47.9999 26.2496 46.3334 26.4997 45.9999C27.9997 44 30.5079 42.6562 31.9997 42.4999C33.4916 42.3437 33.3816 42.1236 38.9997 41C41.4997 40.5 44.0835 39.2166 46.2289 40.5C48.3743 41.7835 51.2539 42.7166 53.3993 44C55.1156 45.0268 57.9972 45.5 58.9997 47.0708Z" fill="white"/>
<path d="M59 47L51.0692 42.9298C49.1411 41.8065 44.3677 39.8058 40.6984 40.7894C37.0291 41.773 32.1171 43.31 30.1198 43.9555C28.8718 44.2709 27.0284 45.417 27.0218 47.1074C27.0135 49.2205 27.3832 50.3467 30.9839 50.1521C33.8645 49.9964 36.7363 49.703 37.8121 49.5757M55.6868 57.7124L50.6473 55.1863L41.6617 57.5041C38.7752 58.3704 31.7616 59.3166 26.7994 56.1704C21.8371 53.0243 16.2445 49.2721 14.0685 47.7893C13.0589 46.9303 11.4713 44.8171 13.198 43.2361C14.9247 41.6551 17.2524 42.6024 18.2004 43.2737L25.8529 47.1096" stroke="#25316D" stroke-width="2" stroke-linecap="round" stroke-linejoin="round"/>
</svg>
