<svg width="24" height="24" viewBox="0 0 24 24" fill="none" xmlns="http://www.w3.org/2000/svg">
<circle cx="16.5868" cy="13.1932" r="1.76793" transform="rotate(71.4181 16.5868 13.1932)" fill="#303030"/>
<path d="M20.0865 19.4353C19.6708 18.1989 20.3362 16.8597 21.5725 16.4441M15.571 6.00357C15.9866 7.23992 17.3258 7.90524 18.5622 7.48959M17.1017 20.4387C16.686 19.2024 15.3468 18.537 14.1105 18.9527M11.8133 12.1197L14.3613 19.6989C14.6384 20.5231 15.5312 20.9667 16.3555 20.6896L20.8327 19.1844C21.6569 18.9073 22.1005 18.0145 21.8234 17.1903L18.3113 6.74339C18.0342 5.91915 17.1414 5.47561 16.3172 5.7527L11.8399 7.25788C11.0157 7.53498 10.5721 8.42778 10.8492 9.25202L10.9536 9.56238M16.838 14.7136C16.0138 14.9906 15.121 14.5471 14.8439 13.7229C14.5668 12.8986 15.0104 12.0058 15.8346 11.7287C16.6588 11.4516 17.5516 11.8952 17.8287 12.7194C18.1058 13.5436 17.6623 14.4365 16.838 14.7136Z" stroke="#303030" stroke-linecap="round" stroke-linejoin="round"/>
<path d="M13.1249 15.5624L12.4754 15.9903C12.0368 16.2792 11.4486 16.1736 11.138 15.75V15.75C10.816 15.3109 10.9109 14.694 11.35 14.372L11.5642 14.2149" stroke="#303030"/>
<path d="M9.57219 11.5377L9.00384 11.9545C8.67783 12.1936 8.60734 12.6517 8.84641 12.9777V12.9777C9.07909 13.295 9.52099 13.3716 9.84688 13.1511L11.6054 11.9613" stroke="#303030"/>
<path d="M12.2218 13.757L10.9698 14.6054C10.5697 14.8766 10.0267 14.7827 9.74087 14.3929V14.3929C9.43253 13.9724 9.54554 13.3786 9.98679 13.1008L11.4373 12.1876" stroke="#303030"/>
<path d="M13.5587 6.59399C13.4656 6.51271 12.5486 5.64561 12.1156 5.26764C11.6827 4.88967 10.8475 4.57073 10.484 4.45851L6.81236 4.08334L3.74939 3.65129L1.98372 3.06272M8.12561 8.67523L12.3476 9.9C12.6885 10.0028 13.3523 10.3772 13.2798 11.0522C13.1892 11.896 12.7577 12.073 11.9314 11.9977C11.2703 11.9374 8.95009 11.4551 8.45795 11.3024C7.67744 11.2567 6.45625 11.0834 5.90758 10.91C4.21377 10.3746 2.80613 8.09141 1.78752 6.79018" stroke="#303030" stroke-linecap="round" stroke-linejoin="round"/>
<path d="M16.1931 12.9482C16.0359 12.9482 15.9074 12.8378 15.9074 12.703C15.9074 12.5681 16.0359 12.4578 16.1931 12.4578H16.4788C16.6359 12.4578 16.7645 12.5681 16.7645 12.703C16.7645 12.8378 16.8931 12.9482 17.0502 12.9482C17.2074 12.9482 17.3359 12.8378 17.3359 12.703C17.3359 12.3352 17.0217 12.041 16.6217 11.9797V11.7222C16.6217 11.5874 16.4931 11.4771 16.3359 11.4771C16.1788 11.4771 16.0502 11.5874 16.0502 11.7222V11.9797C15.6502 12.041 15.3359 12.3352 15.3359 12.703C15.3359 13.1075 15.7217 13.4385 16.1931 13.4385H16.4788C16.6359 13.4385 16.7645 13.5489 16.7645 13.6837C16.7645 13.8186 16.6359 13.9289 16.4788 13.9289H16.1931C16.0359 13.9289 15.9074 13.8186 15.9074 13.6837C15.9074 13.5489 15.7788 13.4385 15.6217 13.4385C15.4645 13.4385 15.3359 13.5489 15.3359 13.6837C15.3359 14.0515 15.6502 14.3457 16.0502 14.407V14.6645C16.0502 14.7993 16.1788 14.9097 16.3359 14.9097C16.4931 14.9097 16.6217 14.7993 16.6217 14.6645V14.407C17.0217 14.3457 17.3359 14.0515 17.3359 13.6837C17.3359 13.2792 16.9502 12.9482 16.4788 12.9482H16.1931Z" fill="#F3F3F3"/>
</svg>
