<svg width="64" height="64" viewBox="0 0 64 64" fill="none" xmlns="http://www.w3.org/2000/svg">
<rect x="8" y="21" width="48" height="23" fill="white"/>
<path d="M7.5 46.9999L19.5 38L19.5 44.6698L22.5 46.9999L19.5 49.33L19.5 56L7.5 46.9999Z" fill="#CB2027"/>
<path d="M56.5 16.9999L44.5 8L44.5 14.6698L41.5 16.9999L44.5 19.33L44.5 26L56.5 16.9999Z" fill="#CB2027"/>
<path d="M35.75 28.25C36.0815 28.25 36.3995 28.1183 36.6339 27.8839C36.8683 27.6495 37 27.3315 37 27C37 26.6685 36.8683 26.3505 36.6339 26.1161C36.3995 25.8817 36.0815 25.75 35.75 25.75H33.25V24.5C33.25 24.1685 33.1183 23.8505 32.8839 23.6161C32.6495 23.3817 32.3315 23.25 32 23.25C31.6685 23.25 31.3505 23.3817 31.1161 23.6161C30.8817 23.8505 30.75 24.1685 30.75 24.5V25.75H28.25C27.9185 25.75 27.6005 25.8817 27.3661 26.1161C27.1317 26.3505 27 26.6685 27 27V32C27 32.3315 27.1317 32.6495 27.3661 32.8839C27.6005 33.1183 27.9185 33.25 28.25 33.25H34.5V35.75H28.25C27.9185 35.75 27.6005 35.8817 27.3661 36.1161C27.1317 36.3505 27 36.6685 27 37C27 37.3315 27.1317 37.6495 27.3661 37.8839C27.6005 38.1183 27.9185 38.25 28.25 38.25H30.75V39.5C30.75 39.8315 30.8817 40.1495 31.1161 40.3839C31.3505 40.6183 31.6685 40.75 32 40.75C32.3315 40.75 32.6495 40.6183 32.8839 40.3839C33.1183 40.1495 33.25 39.8315 33.25 39.5V38.25H35.75C36.0815 38.25 36.3995 38.1183 36.6339 37.8839C36.8683 37.6495 37 37.3315 37 37V32C37 31.6685 36.8683 31.3505 36.6339 31.1161C36.3995 30.8817 36.0815 30.75 35.75 30.75H29.5V28.25H35.75Z" fill="#25316D"/>
<path d="M45.75 50.75L20.75 50.75L20.75 58.25L6 47L20.6377 35.75L20.6377 43.25L55.75 43.25L55.75 27" stroke="#25316D" stroke-width="2" stroke-linecap="round" stroke-linejoin="round"/>
<path d="M18.25 13.25H43.25V5.75L58 17L43.3623 28.25V20.75H8.25V37" stroke="#25316D" stroke-width="2" stroke-linecap="round" stroke-linejoin="round"/>
</svg>
