<svg width="64" height="64" viewBox="0 0 64 64" fill="none" xmlns="http://www.w3.org/2000/svg">
<path d="M10.4999 9.99951L4.99986 8C4.49986 8.5 4.21715 10.6513 4.50003 11.5C5 13 4.49986 12.4995 4.49986 15L4.49986 18.5L8.49986 23L12.4999 27.5L15.4999 29L20.4999 30L24.4999 31L22.9999 34L25.4999 35.5L25.9999 38.5L28.9999 39.5L30.4999 43L32.9999 42.5L34.9999 41.5L38.4999 52.5L41.9999 55.5L44.9999 55L56.9999 50.5L58.4999 46L56.9999 42.5L47.9999 16.5L44.9999 15L38.4999 17.5L34.9999 16.5L29.9999 12.4995L20.4999 11.4995L10.4999 9.99951Z" fill="white"/>
<circle cx="44.2299" cy="35.1825" r="4.71449" transform="rotate(71.4181 44.2299 35.1825)" fill="#CB2027"/>
<path d="M53.563 51.8277C52.4546 48.5307 54.2288 44.9595 57.5257 43.8511M41.5216 16.0098C42.63 19.3068 46.2012 21.081 49.4981 19.9726M45.6035 54.5036C44.4951 51.2066 40.9239 49.4324 37.6269 50.5408M31.5012 32.3196L38.2959 52.5307C39.0348 54.7287 41.4156 55.9114 43.6136 55.1725L55.5529 51.1587C57.7508 50.4198 58.9336 48.039 58.1947 45.841L48.8291 17.9827C48.0902 15.7847 45.7094 14.6019 43.5115 15.3409L31.5722 19.3547C29.3742 20.0936 28.1914 22.4744 28.9303 24.6724L29.2086 25.5M44.9005 39.2365C42.7025 39.9754 40.3217 38.7926 39.5828 36.5946C38.8438 34.3967 40.0266 32.0159 42.2246 31.2769C44.4226 30.538 46.8034 31.7208 47.5423 33.9188C48.2812 36.1167 47.0984 38.4975 44.9005 39.2365Z" stroke="#25316D" stroke-width="2" stroke-linecap="round" stroke-linejoin="round"/>
<path d="M35 41.5L33.268 42.641C32.0984 43.4116 30.5299 43.1298 29.7016 42.0003V42.0003C28.843 40.8294 29.0962 39.1842 30.2671 38.3256L30.8381 37.9069" stroke="#25316D" stroke-width="2"/>
<path d="M25.5255 30.7676L24.0099 31.8791C23.1405 32.5166 22.9526 33.7381 23.5901 34.6075V34.6075C24.2106 35.4536 25.389 35.6579 26.258 35.0699L30.9473 31.8972" stroke="#25316D" stroke-width="2"/>
<path d="M32.5912 36.6853L29.2526 38.9476C28.1855 39.6707 26.7376 39.4203 25.9753 38.3808V38.3808C25.1531 37.2595 25.4544 35.6761 26.6311 34.9353L30.499 32.5" stroke="#25316D" stroke-width="2"/>
<path d="M36.1565 17.5841C35.9082 17.3674 33.4628 15.0551 32.3083 14.0472C31.1537 13.0393 28.9266 12.1888 27.9573 11.8895L18.1663 10.8891L9.99836 9.73693L5.28993 8.16742M21.6683 23.1341L32.9269 26.4002C33.836 26.6743 35.606 27.6726 35.4127 29.4727C35.1711 31.7228 34.0206 32.195 31.817 31.994C30.0542 31.8332 23.8669 30.5472 22.5545 30.1398C20.4732 30.0182 17.2167 29.556 15.7536 29.0935C11.2367 27.6657 7.483 21.5773 4.76673 18.1073" stroke="#25316D" stroke-width="2" stroke-linecap="round" stroke-linejoin="round"/>
</svg>
