<svg width="588" height="340" viewBox="0 0 588 340" fill="none" xmlns="http://www.w3.org/2000/svg">
<path d="M45 260.103H262" stroke="#25316D" stroke-width="2" stroke-linecap="round" stroke-linejoin="round"/>
<path d="M101.086 269.31L101.23 269.205L101.329 269.056C102.104 267.895 103.501 267.201 105.439 266.988C107.373 266.774 109.708 267.06 112.107 267.72C114.497 268.377 116.895 269.391 118.938 270.582C120.996 271.782 122.625 273.122 123.548 274.398C127.463 279.809 126.755 286.688 122.419 289.852C121.421 290.58 119.804 291.033 117.742 291.146C115.707 291.258 113.358 291.033 111.01 290.52C108.664 290.007 106.353 289.214 104.392 288.212C102.417 287.204 100.866 286.021 99.9566 284.764C96.0419 279.353 96.7496 272.474 101.086 269.31Z" fill="white" stroke="#25316D" stroke-width="2"/>
<path d="M123.968 288.047C122.715 286.637 120.02 283.816 119.268 283.816" stroke="#25316D" stroke-width="2"/>
<path d="M229.617 256.792C231.274 265.112 236.249 274.696 231.037 289.598C225.825 304.5 213.865 316.401 200.869 312.5C190.897 309.507 194.872 299.752 200.369 297C205.528 294.418 210.869 296 212.369 302.5C215.809 317.405 199.725 319.64 174.869 317.5C150.014 315.36 146.138 305.202 143.369 301C134.869 288.098 128.776 291.737 124.515 289.598" stroke="#303030" stroke-width="2" stroke-linecap="round"/>
<path d="M120.808 278.92L120.803 278.923C120.513 279.097 120.127 279.028 119.912 278.749C118.987 277.534 117.453 275.621 115.638 273.729C113.833 271.849 111.696 269.932 109.563 268.768L108.562 270.481C108.554 270.494 108.554 270.494 108.554 270.494L108.554 270.494L108.555 270.495L108.57 270.504C108.584 270.513 108.606 270.527 108.636 270.547C108.696 270.587 108.786 270.648 108.901 270.73C109.131 270.894 109.459 271.139 109.837 271.456C110.6 272.095 111.547 273.01 112.332 274.131C113.117 275.253 113.71 276.541 113.831 277.94C113.948 279.307 113.622 280.863 112.439 282.575C111.734 283.408 110.493 283.843 109.935 284.026L109.823 284.063L109.723 284.124L109.723 284.125L109.722 284.125L109.721 284.126L109.712 284.131L109.676 284.153C109.664 284.16 109.649 284.169 109.631 284.18C109.604 284.196 109.571 284.216 109.532 284.239C109.406 284.313 109.222 284.42 108.995 284.547C108.54 284.801 107.921 285.132 107.255 285.442C106.583 285.755 105.892 286.033 105.289 286.197C104.632 286.375 104.283 286.358 104.17 286.317L103.528 286.085L103.082 286.593L103.082 286.593L103.081 286.594C103.081 286.595 103.08 286.595 103.079 286.596C103.077 286.599 103.073 286.603 103.068 286.608C103.064 286.612 103.059 286.617 103.054 286.623C103.028 286.649 102.986 286.691 102.93 286.742C102.815 286.846 102.647 286.984 102.439 287.115C102.019 287.379 101.515 287.568 100.983 287.505C100.98 287.502 100.878 287.465 100.66 287.294C100.42 287.107 100.129 286.83 99.7973 286.474C99.1366 285.764 98.3925 284.822 97.6846 283.864C96.9801 282.91 96.3266 281.962 95.8483 281.25C95.6094 280.895 95.415 280.6 95.2806 280.394C95.2134 280.291 95.1613 280.211 95.1261 280.156L95.0864 280.094L95.0766 280.079L95.0742 280.075L95.0737 280.075L95.0736 280.074L95.0736 280.074L94.8824 279.775L94.545 279.663L94.545 279.663L94.5448 279.663L94.5441 279.663L94.5392 279.661L94.5172 279.654C94.4971 279.647 94.4664 279.637 94.4258 279.623C94.3446 279.595 94.2236 279.552 94.0684 279.496C93.7579 279.384 93.3108 279.218 92.7704 279.002C91.6874 278.569 90.2398 277.942 88.7692 277.16C87.2924 276.375 85.8278 275.452 84.6888 274.439C83.5375 273.414 82.8301 272.395 82.65 271.429L82.6477 271.414C82.6449 271.394 82.6404 271.361 82.6351 271.317C82.6243 271.227 82.6099 271.091 82.5971 270.914C82.5715 270.559 82.5526 270.045 82.5824 269.424C82.6421 268.176 82.8963 266.529 83.6588 264.883C84.416 263.249 85.6804 261.601 87.796 260.33C89.8849 259.075 92.8591 258.153 97.0987 258.029C97.1058 258.032 97.1131 258.035 97.1206 258.038C97.2617 258.098 97.4714 258.187 97.7413 258.306C98.281 258.544 99.0609 258.9 100.013 259.367C101.92 260.302 104.511 261.681 107.251 263.452C112.775 267.025 118.717 272.081 121.056 278.191C121.151 278.438 121.066 278.744 120.808 278.92Z" fill="white" stroke="#25316D" stroke-width="2"/>
<path fill-rule="evenodd" clip-rule="evenodd" d="M106.204 148.524C141.83 177.116 100.466 224.121 100.466 224.121C100.466 224.121 101.247 229.823 99.0555 232.111C91.4995 240 104.696 260.314 104.696 260.314C104.696 260.314 89.3336 270.044 84.954 279.116C84.7456 279.548 83.5439 280.526 83.0736 280.526C83.0736 280.526 74.5893 266.538 72.7329 260.314C64.7421 233.521 65.2117 216.13 65.2117 216.13C71.3224 202.028 74.6364 193.397 81.1937 178.996C87.1592 165.885 98.3245 157.601 106.204 148.524Z" fill="#58B9FD"/>
<path fill-rule="evenodd" clip-rule="evenodd" d="M241.204 25.5007C239.215 25.5007 237.601 27.1037 237.601 29.112C237.601 31.1008 239.215 32.7228 241.204 32.7228C243.189 32.7228 244.802 31.1008 244.802 29.112C244.803 28.6373 244.71 28.1671 244.53 27.7285C244.349 27.2898 244.084 26.8913 243.75 26.5558C243.415 26.2202 243.018 25.9543 242.581 25.7733C242.144 25.5922 241.676 25.4996 241.204 25.5007ZM241.204 26.698C242.527 26.698 243.603 27.7795 243.603 29.112C243.603 30.4441 242.527 31.5256 241.204 31.5256C239.88 31.5256 238.804 30.4441 238.804 29.112C238.804 27.7795 239.88 26.698 241.204 26.698Z" fill="#25316D"/>
<path fill-rule="evenodd" clip-rule="evenodd" d="M155.525 122.828C155.525 122.828 160.448 118.767 162.935 119.425L163.115 122.663C163.115 122.663 170.491 127.767 180.512 127.932C190.539 128.152 198.299 123.322 199.954 119.425C199.954 119.425 205.85 120.741 206.09 124.693C206.09 124.693 228.627 134.295 236.504 139.676C244.378 144.996 248.438 148.509 250.237 157.73C252.029 166.893 258.52 196.525 260 220.341C240 262.5 239.652 215.183 223.457 215.183C185.123 169.685 158.64 224.872 123.413 259.58C123.413 259.58 134.5 195.357 130.571 195.85C126.648 196.289 72.6826 217.267 72.6826 217.267C72.6826 217.267 79.5657 202.439 80.5 198.268C81.4343 194.097 99.6685 149.167 103.838 143.077C108.007 136.93 115.384 132.046 128.519 129.303C141.661 126.561 155.525 122.828 155.525 122.828Z" fill="#58B9FD"/>
<path d="M97 159C99 155.5 99.83 150.606 103 146C105.897 141.79 109.5 138.5 112 136.5" stroke="#25316D" stroke-width="2" stroke-miterlimit="1.5" stroke-linecap="round" stroke-linejoin="round"/>
<path d="M131.86 174.749C134.899 189.083 134.443 205.364 129.774 219.305M141.362 172.735C143.245 179.165 143.499 185.841 143.477 192.502C143.484 201.041 142.676 209.701 139.767 217.795" stroke="#25316D" stroke-width="2" stroke-miterlimit="1.5" stroke-linecap="round" stroke-linejoin="round"/>
<path d="M155.795 126.874C158.516 131.1 163.177 133.68 167.734 135.437C178.974 139.716 194.76 139.223 202.814 129.124M199.874 119.412C200.547 119.412 201.224 119.521 201.869 119.686C204.164 120.453 205.328 122.321 205.896 124.513M149.528 128.191C151.276 130.606 153.183 133.076 155.402 135.051C158.309 137.632 161.838 139.55 165.477 140.868" stroke="#25316D" stroke-width="2" stroke-miterlimit="1.5" stroke-linecap="round" stroke-linejoin="round"/>
<path d="M162.92 119.77C160.444 119.825 157.27 120.922 155.931 123.171" stroke="#25316D" stroke-width="2" stroke-miterlimit="1.5" stroke-linecap="round" stroke-linejoin="round"/>
<path d="M68.9724 218.01C70.8525 226.471 81.1916 226.505 85.4241 228.351C90.0472 230.402 95.887 222.029 100 225M75.553 267.366C80.7235 257.965 84.3939 254.69 97.1752 253.264" stroke="#25316D" stroke-width="2" stroke-miterlimit="1.5" stroke-linecap="round" stroke-linejoin="round"/>
<path d="M199 103.487L166 94L166.82 125.307C166.82 125.307 176.425 131.095 183.224 130.999C190.402 130.897 199 125.58 199 125.58L199 103.487Z" fill="white"/>
<path d="M147.5 80C151.5 92 156 92 159.5 95C161.133 99.4646 164 104 169 105.5C171.998 106.399 183.5 114.066 193.074 118.5C199.5 120 204.5 119.5 207 117C210 113 215.75 112.649 216.5 105.5C216.5 102.824 215.5 84.4324 215.5 72C215.707 69.7112 215.5 71.0001 214.815 67.5001C214.931 65.6102 230 63.5 221 47.5C233.5 24 198 24.5 193.074 33.0002C192.074 22.5002 174.999 26.0002 168 33.0002C163.874 35.0977 162.381 48.073 159.5 51.5001C159.5 51.5001 148.189 56.4753 146.5 60.5C146.5 62 142.091 67.5912 144.5 71.0001C146.321 73.5762 146.339 77.9413 147.5 80Z" fill="white"/>
<path d="M159.872 49.967C163.787 40.3537 166.858 30.5168 177.669 26.8281C179.932 26.0455 182.408 25.7663 184.765 26.2134C187.348 26.6605 189.78 27.9458 191.495 29.9578C192.047 30.6284 192.485 31.3554 192.757 32.1376C192.796 32.2496 193.124 33.4225 193.124 33.4225C193.66 33.311 194.598 32.2496 195.044 31.8581C196.459 30.7964 197.985 29.9014 199.641 29.2307C206.777 26.4362 217.903 26.4922 222.374 33.9256C225.54 39.1796 222.989 46.3894 218.636 50.1341C216.827 51.6989 211.272 53.9352 210.294 50.2465C208.934 45.1605 215.656 43.6505 219.062 45.4389C224.136 48.0658 224.483 57.2328 222.374 61.1451C217.095 70.87 204.463 69.7522 200.674 70.6464M195.391 74.0568C192.142 73.8892 188.901 72.7151 186.449 70.5352M183.827 72.9943C184.6 75.7328 185.258 78.5277 183.996 81.2663C183.515 82.2724 182.778 83.1658 181.934 83.9484C181.339 84.5075 180.653 84.7866 180.771 85.6252C181.26 89.0904 181.107 90.7116 180.653 94.1768C180.543 95.0154 180.417 95.8536 180.145 96.6918C180.042 96.9713 179.995 97.362 179.624 97.362C178.165 97.1945 177.306 95.4061 176.781 94.2324C175.342 91.0467 175.35 89.5375 173.683 86.4634M173.462 86.1287C169.653 81.7689 162.943 84.1724 160.739 88.9232C158.393 94.0092 160.112 101.386 165.025 104.349C168.277 106.361 172.748 106.752 176.45 106.026M158.622 52.2028C156.225 52.9294 153.891 53.8228 151.813 55.2201C145.946 59.1324 144.345 66.2315 145.181 72.8823C146.348 82.272 152.471 89.8726 159.103 96.1883M158.279 40.6332C157.526 42.1984 156.871 43.8752 156.619 45.608C156.536 46.1667 156.481 46.7253 156.493 47.3404C156.493 47.396 156.532 48.2342 156.532 48.2342C155.464 48.4021 153.871 47.7315 152.802 47.5639C150.591 47.2844 148.28 47.2852 146.096 47.7323M168.384 106.753C167.469 116.479 167.311 119.72 166.925 123.801M215.423 71.7078C215.423 71.7078 215.825 99.4863 215.928 106.417C215.936 107.423 215.589 108.429 214.938 109.211C211.319 113.627 207.345 116.811 203.122 119.105C202.215 119.606 201.171 119.775 200.165 119.551C192.871 118.096 185.869 115.415 179.277 110.999M198.655 119.472L197.062 135.57" stroke="#25316D" stroke-width="2" stroke-miterlimit="1.5" stroke-linecap="round" stroke-linejoin="round"/>
<path d="M166.59 93.3939C168.758 94.7912 170.832 96.3008 172.945 97.8097M215.049 77.7445C212.64 77.0179 210.112 77.5765 208.252 79.1973M200.701 80.5398C197.807 78.6395 194.295 79.0314 191.937 81.5464M205.921 84.1721C205.988 87.0786 206.741 90.0407 208.208 92.5001C208.697 93.3384 209.281 94.1765 209.951 94.8472C210.03 94.9587 210.704 95.4614 210.696 95.4614C210.649 95.741 210.207 96.0209 210.034 96.1885C209.253 96.7475 208.334 97.1386 207.38 97.3622M208.429 105.523C204.881 106.64 201.226 106.585 197.906 104.797M208.058 155.657C201.194 150.962 191.736 147.611 183.393 148.951C176.64 150.067 170.643 153.757 164.689 156.887C159.122 159.848 153.339 162.309 147.377 164.375C143.084 165.885 138.573 167.17 134 167.225" stroke="#25316D" stroke-width="2" stroke-miterlimit="1.5" stroke-linecap="round" stroke-linejoin="round"/>
<path d="M197.511 86C197.11 86 196.726 85.8946 196.443 85.7071C196.159 85.5196 196 85.2652 196 85C196 84.7348 196.159 84.4804 196.443 84.2929C196.726 84.1054 197.11 84 197.511 84C197.908 84.0039 198.287 84.1109 198.565 84.298C198.844 84.4851 199 84.7373 199 85C199 85.2627 198.844 85.5148 198.565 85.702C198.287 85.8891 197.908 85.9961 197.511 86Z" fill="#25316D"/>
<path d="M211.511 85C211.11 85 210.726 84.8946 210.443 84.7071C210.159 84.5196 210 84.2652 210 84C210 83.7348 210.159 83.4804 210.443 83.2929C210.726 83.1054 211.11 83 211.511 83C211.908 83.0039 212.287 83.1109 212.565 83.298C212.844 83.4851 213 83.7373 213 84C213 84.2627 212.844 84.5148 212.565 84.702C212.287 84.8891 211.908 84.9961 211.511 85Z" fill="#25316D"/>
<path fill-rule="evenodd" clip-rule="evenodd" d="M178.516 111.173C178.516 111.173 196.589 118.999 198.73 119.054L197.886 126.265C197.886 126.265 179.896 115.589 178.516 111.173Z" fill="#25316D"/>
<path fill-rule="evenodd" clip-rule="evenodd" d="M227.833 207.925L221.5 244C221.5 244 230.579 255.648 240.5 257C252.5 245.5 254.596 234.137 258.5 224.5C262.404 214.867 258.5 201.5 258.5 193.5C258.5 193.5 257.83 183.93 257.5 181C255.873 166.556 250.428 150.482 237 144.918C229.77 141.922 232.275 149.243 232.275 149.243L227.678 144.918C227.678 144.918 225.832 141.265 221.525 137.057C215.95 150.401 211.198 171.18 212.467 202.578L225.813 205.897C226.103 206.13 226.85 207 227.833 207.925Z" fill="#58B9FD"/>
<path d="M257.5 186.5C257.833 191.5 261.5 211.5 260.5 216.5C259.768 220.158 257.993 231.067 255 234.5C250.658 239.481 244.167 255.167 243 255" stroke="#25316D" stroke-width="2" stroke-linecap="round"/>
<path d="M232.879 138.326C236 139.722 238.659 141.851 241.218 144.085C244.51 146.935 246.877 151.634 249 155.5" stroke="#25316D" stroke-width="2" stroke-miterlimit="1.5" stroke-linecap="round" stroke-linejoin="round"/>
<path d="M237.589 192.68C234.077 186.084 232.065 178.024 232.504 170.5" stroke="#25316D" stroke-width="2" stroke-miterlimit="1.5" stroke-linecap="round" stroke-linejoin="round"/>
<path d="M205.2 283.488L205.2 283.488L205.206 283.5C205.395 283.885 205.352 284.349 205.076 284.711C205.075 284.712 205.075 284.713 205.074 284.713L197.094 295.019H166.97L166.866 294.889L166.223 294.078C165.678 293.392 164.92 292.436 164.068 291.364C162.365 289.218 160.287 286.601 158.788 284.718L158.785 284.714C158.52 284.384 158.458 283.908 158.653 283.492C158.748 283.298 158.894 283.135 159.075 283.021C159.257 282.906 159.467 282.845 159.681 282.843C159.682 282.843 159.683 282.843 159.683 282.843L204.181 282.843H204.183C204.395 282.843 204.603 282.903 204.783 283.017C204.963 283.131 205.108 283.294 205.2 283.488ZM262.569 193.025L262.568 193.027C259.999 207.635 251.517 255.874 249.323 268.361C249.105 269.597 248.033 270.495 246.787 270.495H117.441C116.212 270.495 115.146 269.613 114.91 268.388C113.759 262.364 110.984 247.856 108.113 232.85C105.082 217.005 101.944 200.605 100.501 193.052L100.501 193.051C100.358 192.307 100.553 191.528 101.047 190.917C101.541 190.325 102.272 189.977 103.032 189.977L260.032 189.977L260.033 189.977C260.409 189.976 260.779 190.058 261.12 190.217C261.46 190.377 261.762 190.609 262.003 190.899L262.004 190.9C262.495 191.489 262.702 192.274 262.569 193.025Z" fill="white" stroke="#25316D" stroke-width="2"/>
<path d="M182.091 227.496C190.24 227.496 196.858 234.136 196.858 242.323V295.024H167.323V242.323C167.323 234.136 173.939 227.496 182.091 227.496Z" fill="white" stroke="#25316D" stroke-width="2"/>
<path fill-rule="evenodd" clip-rule="evenodd" d="M188.87 242.265C188.87 238.504 185.834 235.457 182.091 235.457C178.348 235.457 175.314 238.504 175.314 242.265V254.44C175.314 258.194 178.348 261.24 182.091 261.24C185.834 261.24 188.87 258.194 188.87 254.44V242.265Z" fill="#58B9FD"/>
<path d="M120 267.011L106.463 197.382C106.223 196.147 107.169 195 108.426 195H225" stroke="#25316D" stroke-width="2"/>
<path d="M225.332 249.983C225.692 249.983 225.986 250.274 225.986 250.64V256.877C225.986 257.242 225.692 257.533 225.332 257.533H222.875C222.511 257.533 222.221 257.242 222.221 256.877V250.64C222.221 250.274 222.511 249.983 222.875 249.983H225.332Z" fill="#686868"/>
<path d="M234.646 249.983C235.005 249.983 235.3 250.274 235.3 250.64V256.877C235.3 257.242 235.005 257.533 234.646 257.533H232.188C231.825 257.533 231.535 257.242 231.535 256.877V250.64C231.535 250.274 231.825 249.983 232.188 249.983H234.646Z" fill="#686868"/>
<path d="M286 289.5H272C269.333 287.333 264.4 278.9 266 262.5C274 262.5 285.5 263 291 262.5V264.5C294.833 264.167 302.3 265.3 301.5 272.5C300.5 281.5 298 281 292 282.5C290.702 282.824 289.719 282.962 289.529 282.669C288.723 285.173 287.57 287.734 286 289.5Z" fill="white"/>
<path d="M291.203 264.321C291.203 264.321 300.957 263.929 301.903 271.258C303.032 280.045 296.495 281.862 292.31 282.109" stroke="#25316D" stroke-width="2" stroke-miterlimit="1.5" stroke-linecap="round" stroke-linejoin="round"/>
<path d="M288.15 262.684H266.128C266.128 262.684 264.058 281.828 271.848 289.159H281M291.133 262.684C291.133 262.684 293.203 281.828 285.41 289.159M291.285 268.469H268.119" stroke="#25316D" stroke-width="2" stroke-miterlimit="1.5" stroke-linecap="round" stroke-linejoin="round"/>
<path d="M291.204 268.514C291.204 268.514 297.436 268.275 297.833 272.401C298.436 278.676 290.48 278.237 290.48 278.237M271.595 244.002C270.807 245.428 270.201 247.174 270.781 248.799C271.35 250.424 272.739 251.334 273.716 252.643C275.24 254.705 275.35 257.479 273.944 259.62M283.286 244.002C282.72 245.428 282.284 247.174 282.701 248.799C283.109 250.424 284.106 251.334 284.81 252.643C285.903 254.705 285.982 257.479 284.973 259.62M277.155 237.158C276.549 239.02 276.062 241.121 276.727 242.986C277.594 245.442 278.729 246.315 277.155 249.644" stroke="#25316D" stroke-width="2" stroke-miterlimit="1.5" stroke-linecap="round" stroke-linejoin="round"/>
<path d="M386.028 219.302C387.162 233.744 394.443 249.215 409.423 253.507C416.46 255.515 427.465 256.337 431.611 248.744C436.426 239.933 423.147 230.13 418.811 240.544C418.228 241.93 417.987 243.534 417.99 245.025C418.041 251.241 421.914 256.488 426.474 260.368C435.745 268.238 447.312 271.238 459.249 271.493" stroke="#25316D" stroke-width="2" stroke-miterlimit="1.5" stroke-linecap="round" stroke-linejoin="round"/>
<path d="M361 140H511C516.523 140 521 144.477 521 150V190C521 195.523 516.523 200 511 200H361C355.477 200 351 195.523 351 190V150C351 144.477 355.477 140 361 140Z" fill="white" stroke="#CB2027" stroke-width="2" stroke-linecap="round" stroke-linejoin="round"/>
<path d="M379.281 177.7C377.361 177.7 375.854 177.16 374.761 176.08C373.681 175 373.141 173.44 373.141 171.4V163.5H375.741V171.3C375.741 172.74 376.048 173.786 376.661 174.44C377.288 175.094 378.168 175.42 379.301 175.42C380.434 175.42 381.308 175.094 381.921 174.44C382.534 173.786 382.841 172.74 382.841 171.3V163.5H385.401V171.4C385.401 173.44 384.854 175 383.761 176.08C382.681 177.16 381.188 177.7 379.281 177.7ZM394.862 166.7C395.716 166.7 396.476 166.866 397.142 167.2C397.822 167.534 398.356 168.046 398.742 168.74C399.129 169.42 399.322 170.3 399.322 171.38V177.5H396.822V171.7C396.822 170.754 396.596 170.046 396.142 169.58C395.702 169.114 395.082 168.88 394.282 168.88C393.696 168.88 393.176 169 392.722 169.24C392.269 169.48 391.916 169.84 391.662 170.32C391.422 170.786 391.302 171.38 391.302 172.1V177.5H388.802V166.82H391.182V169.7L390.762 168.82C391.136 168.14 391.676 167.62 392.382 167.26C393.102 166.886 393.929 166.7 394.862 166.7ZM405.794 177.64C404.9 177.64 404.04 177.526 403.214 177.3C402.4 177.06 401.754 176.774 401.274 176.44L402.234 174.54C402.714 174.846 403.287 175.1 403.954 175.3C404.62 175.5 405.287 175.6 405.954 175.6C406.74 175.6 407.307 175.494 407.654 175.28C408.014 175.066 408.194 174.78 408.194 174.42C408.194 174.126 408.074 173.906 407.834 173.76C407.594 173.6 407.28 173.48 406.894 173.4C406.507 173.32 406.074 173.246 405.594 173.18C405.127 173.114 404.654 173.026 404.174 172.92C403.707 172.8 403.28 172.634 402.894 172.42C402.507 172.194 402.194 171.894 401.954 171.52C401.714 171.146 401.594 170.654 401.594 170.04C401.594 169.36 401.787 168.774 402.174 168.28C402.56 167.774 403.1 167.386 403.794 167.12C404.5 166.84 405.334 166.7 406.294 166.7C407.014 166.7 407.74 166.78 408.474 166.94C409.207 167.1 409.814 167.326 410.294 167.62L409.334 169.52C408.827 169.214 408.314 169.006 407.794 168.9C407.287 168.78 406.78 168.72 406.274 168.72C405.514 168.72 404.947 168.834 404.574 169.06C404.214 169.286 404.034 169.574 404.034 169.92C404.034 170.24 404.154 170.48 404.394 170.64C404.634 170.8 404.947 170.926 405.334 171.02C405.72 171.114 406.147 171.194 406.614 171.26C407.094 171.314 407.567 171.4 408.034 171.52C408.5 171.64 408.927 171.806 409.314 172.02C409.714 172.22 410.034 172.506 410.274 172.88C410.514 173.254 410.634 173.74 410.634 174.34C410.634 175.006 410.434 175.586 410.034 176.08C409.647 176.574 409.094 176.96 408.374 177.24C407.654 177.506 406.794 177.64 405.794 177.64ZM417.306 177.64C416.4 177.64 415.6 177.474 414.907 177.14C414.213 176.794 413.673 176.274 413.287 175.58C412.9 174.874 412.707 173.986 412.707 172.92V166.82H415.207V172.58C415.207 173.54 415.42 174.26 415.847 174.74C416.286 175.206 416.906 175.44 417.706 175.44C418.294 175.44 418.8 175.32 419.226 175.08C419.666 174.84 420.006 174.48 420.246 174C420.5 173.52 420.626 172.926 420.626 172.22V166.82H423.126V177.5H420.746V174.62L421.166 175.5C420.806 176.194 420.28 176.726 419.586 177.1C418.894 177.46 418.134 177.64 417.306 177.64ZM432.32 177.64C431.414 177.64 430.606 177.44 429.9 177.04C429.194 176.64 428.634 176.04 428.22 175.24C427.82 174.426 427.62 173.4 427.62 172.16C427.62 170.906 427.826 169.88 428.24 169.08C428.666 168.28 429.234 167.686 429.94 167.3C430.66 166.9 431.454 166.7 432.32 166.7C433.374 166.7 434.3 166.926 435.1 167.38C435.914 167.834 436.554 168.466 437.02 169.28C437.5 170.094 437.74 171.054 437.74 172.16C437.74 173.266 437.5 174.226 437.02 175.04C436.554 175.854 435.914 176.494 435.1 176.96C434.3 177.414 433.374 177.64 432.32 177.64ZM426.4 177.5V162.66H428.9V169.3L428.7 172.14L428.78 174.98V177.5H426.4ZM432.04 175.5C432.64 175.5 433.174 175.366 433.64 175.1C434.12 174.834 434.5 174.446 434.78 173.94C435.06 173.434 435.2 172.84 435.2 172.16C435.2 171.466 435.06 170.874 434.78 170.38C434.5 169.874 434.12 169.486 433.64 169.22C433.174 168.954 432.64 168.82 432.04 168.82C431.44 168.82 430.9 168.954 430.42 169.22C429.94 169.486 429.56 169.874 429.28 170.38C429 170.874 428.86 171.466 428.86 172.16C428.86 172.84 429 173.434 429.28 173.94C429.56 174.446 429.94 174.834 430.42 175.1C430.9 175.366 431.44 175.5 432.04 175.5ZM443.411 177.64C442.517 177.64 441.657 177.526 440.831 177.3C440.017 177.06 439.371 176.774 438.891 176.44L439.851 174.54C440.331 174.846 440.904 175.1 441.571 175.3C442.237 175.5 442.904 175.6 443.571 175.6C444.357 175.6 444.924 175.494 445.271 175.28C445.631 175.066 445.811 174.78 445.811 174.42C445.811 174.126 445.691 173.906 445.451 173.76C445.211 173.6 444.897 173.48 444.511 173.4C444.124 173.32 443.691 173.246 443.211 173.18C442.744 173.114 442.271 173.026 441.791 172.92C441.324 172.8 440.897 172.634 440.511 172.42C440.124 172.194 439.811 171.894 439.571 171.52C439.331 171.146 439.211 170.654 439.211 170.04C439.211 169.36 439.404 168.774 439.791 168.28C440.177 167.774 440.717 167.386 441.411 167.12C442.117 166.84 442.951 166.7 443.911 166.7C444.631 166.7 445.357 166.78 446.091 166.94C446.824 167.1 447.431 167.326 447.911 167.62L446.951 169.52C446.444 169.214 445.931 169.006 445.411 168.9C444.904 168.78 444.397 168.72 443.891 168.72C443.131 168.72 442.564 168.834 442.191 169.06C441.831 169.286 441.651 169.574 441.651 169.92C441.651 170.24 441.771 170.48 442.011 170.64C442.251 170.8 442.564 170.926 442.951 171.02C443.337 171.114 443.764 171.194 444.231 171.26C444.711 171.314 445.184 171.4 445.651 171.52C446.117 171.64 446.544 171.806 446.931 172.02C447.331 172.22 447.651 172.506 447.891 172.88C448.131 173.254 448.251 173.74 448.251 174.34C448.251 175.006 448.051 175.586 447.651 176.08C447.264 176.574 446.711 176.96 445.991 177.24C445.271 177.506 444.411 177.64 443.411 177.64ZM455.304 177.64C454.184 177.64 453.184 177.406 452.304 176.94C451.437 176.46 450.757 175.806 450.264 174.98C449.771 174.154 449.524 173.214 449.524 172.16C449.524 171.094 449.771 170.154 450.264 169.34C450.757 168.514 451.437 167.866 452.304 167.4C453.184 166.934 454.184 166.7 455.304 166.7C456.344 166.7 457.257 166.914 458.044 167.34C458.844 167.754 459.451 168.366 459.864 169.18L457.944 170.3C457.624 169.794 457.231 169.42 456.764 169.18C456.311 168.94 455.817 168.82 455.284 168.82C454.671 168.82 454.117 168.954 453.624 169.22C453.131 169.486 452.744 169.874 452.464 170.38C452.184 170.874 452.044 171.466 452.044 172.16C452.044 172.854 452.184 173.454 452.464 173.96C452.744 174.454 453.131 174.834 453.624 175.1C454.117 175.366 454.671 175.5 455.284 175.5C455.817 175.5 456.311 175.38 456.764 175.14C457.231 174.9 457.624 174.526 457.944 174.02L459.864 175.14C459.451 175.94 458.844 176.56 458.044 177C457.257 177.426 456.344 177.64 455.304 177.64ZM462.025 177.5V166.82H464.405V169.76L464.125 168.9C464.445 168.18 464.945 167.634 465.625 167.26C466.319 166.886 467.179 166.7 468.205 166.7V169.08C468.099 169.054 467.999 169.04 467.905 169.04C467.811 169.026 467.719 169.02 467.625 169.02C466.679 169.02 465.925 169.3 465.365 169.86C464.805 170.406 464.525 171.226 464.525 172.32V177.5H462.025ZM470.326 177.5V166.82H472.826V177.5H470.326ZM471.586 165.06C471.119 165.06 470.732 164.914 470.426 164.62C470.132 164.326 469.986 163.974 469.986 163.56C469.986 163.134 470.132 162.78 470.426 162.5C470.732 162.206 471.119 162.06 471.586 162.06C472.052 162.06 472.432 162.2 472.726 162.48C473.032 162.746 473.186 163.086 473.186 163.5C473.186 163.94 473.039 164.314 472.746 164.62C472.452 164.914 472.066 165.06 471.586 165.06ZM482.027 177.64C481.12 177.64 480.314 177.44 479.607 177.04C478.9 176.64 478.34 176.04 477.927 175.24C477.527 174.426 477.327 173.4 477.327 172.16C477.327 170.906 477.534 169.88 477.947 169.08C478.374 168.28 478.94 167.686 479.647 167.3C480.367 166.9 481.16 166.7 482.027 166.7C483.08 166.7 484.007 166.926 484.807 167.38C485.62 167.834 486.26 168.466 486.727 169.28C487.207 170.094 487.447 171.054 487.447 172.16C487.447 173.266 487.207 174.226 486.727 175.04C486.26 175.854 485.62 176.494 484.807 176.96C484.007 177.414 483.08 177.64 482.027 177.64ZM476.107 177.5V162.66H478.607V169.3L478.407 172.14L478.487 174.98V177.5H476.107ZM481.747 175.5C482.347 175.5 482.88 175.366 483.347 175.1C483.827 174.834 484.207 174.446 484.487 173.94C484.767 173.434 484.908 172.84 484.908 172.16C484.908 171.466 484.767 170.874 484.487 170.38C484.207 169.874 483.827 169.486 483.347 169.22C482.88 168.954 482.347 168.82 481.747 168.82C481.147 168.82 480.607 168.954 480.127 169.22C479.647 169.486 479.267 169.874 478.987 170.38C478.707 170.874 478.567 171.466 478.567 172.16C478.567 172.84 478.707 173.434 478.987 173.94C479.267 174.446 479.647 174.834 480.127 175.1C480.607 175.366 481.147 175.5 481.747 175.5ZM494.838 177.64C493.651 177.64 492.611 177.406 491.717 176.94C490.837 176.46 490.151 175.806 489.657 174.98C489.177 174.154 488.938 173.214 488.938 172.16C488.938 171.094 489.171 170.154 489.637 169.34C490.117 168.514 490.771 167.866 491.597 167.4C492.437 166.934 493.391 166.7 494.457 166.7C495.497 166.7 496.425 166.926 497.237 167.38C498.051 167.834 498.691 168.474 499.157 169.3C499.625 170.126 499.857 171.1 499.857 172.22C499.857 172.326 499.851 172.446 499.838 172.58C499.838 172.714 499.831 172.84 499.817 172.96H490.917V171.3H498.497L497.517 171.82C497.531 171.206 497.405 170.666 497.137 170.2C496.871 169.734 496.505 169.366 496.037 169.1C495.585 168.834 495.057 168.7 494.457 168.7C493.845 168.7 493.305 168.834 492.837 169.1C492.385 169.366 492.025 169.74 491.757 170.22C491.505 170.686 491.377 171.24 491.377 171.88V172.28C491.377 172.92 491.525 173.486 491.817 173.98C492.111 174.474 492.525 174.854 493.057 175.12C493.591 175.386 494.205 175.52 494.897 175.52C495.497 175.52 496.037 175.426 496.517 175.24C496.997 175.054 497.425 174.76 497.797 174.36L499.137 175.9C498.657 176.46 498.051 176.894 497.317 177.2C496.597 177.494 495.771 177.64 494.838 177.64Z" fill="#25316D"/>
</svg>
