<svg width="588" height="340" viewBox="0 0 588 340" fill="none" xmlns="http://www.w3.org/2000/svg">
<rect x="390.45" y="106.923" width="95.0804" height="126.774" rx="5.28224" fill="white"/>
<path d="M472.94 202.441C487.985 202.441 500.182 190.244 500.182 175.198C500.182 160.153 487.985 147.956 472.94 147.956C457.894 147.956 445.697 160.153 445.697 175.198C445.697 190.244 457.894 202.441 472.94 202.441Z" fill="white" stroke="#CB2027" stroke-width="2"/>
<path fill-rule="evenodd" clip-rule="evenodd" d="M472.939 200.86C458.766 200.86 447.277 189.371 447.277 175.198C447.277 161.025 458.766 149.535 472.939 149.535C487.112 149.535 498.602 161.025 498.602 175.198C498.602 189.371 487.112 200.86 472.939 200.86Z" fill="white"/>
<path d="M450 175C450 187.703 460.297 198 473 198C485.703 198 496 187.703 496 175C496 162.297 485.703 152 473 152C460.297 152 450 162.297 450 175Z" stroke="#25316D" stroke-width="2"/>
<path d="M471.717 172.928C470.373 172.928 469.273 171.907 469.273 170.659C469.273 169.41 470.373 168.389 471.717 168.389H474.161C475.505 168.389 476.605 169.41 476.605 170.659C476.605 171.907 477.705 172.928 479.049 172.928C480.393 172.928 481.493 171.907 481.493 170.659C481.493 167.254 478.805 164.531 475.383 163.964V161.581C475.383 160.333 474.283 159.311 472.939 159.311C471.595 159.311 470.495 160.333 470.495 161.581V163.964C467.073 164.531 464.385 167.254 464.385 170.659C464.385 174.403 467.684 177.467 471.717 177.467H474.161C475.505 177.467 476.605 178.488 476.605 179.737C476.605 180.985 475.505 182.006 474.161 182.006H471.717C470.373 182.006 469.273 180.985 469.273 179.737C469.273 178.488 468.173 177.467 466.829 177.467C465.485 177.467 464.385 178.488 464.385 179.737C464.385 183.141 467.073 185.864 470.495 186.431V188.814C470.495 190.063 471.595 191.084 472.939 191.084C474.283 191.084 475.383 190.063 475.383 188.814V186.431C478.805 185.864 481.493 183.141 481.493 179.737C481.493 175.992 478.194 172.928 474.161 172.928H471.717Z" fill="#25316D"/>
<path d="M495.381 198.231L519.469 220.976C521.184 222.595 523.857 222.621 525.603 221.036V221.036C527.512 219.302 527.584 216.324 525.76 214.501L502.631 191.385" stroke="#25316D" stroke-width="2" stroke-linecap="round"/>
<path d="M493.455 134.655V106.923C493.455 102.547 489.908 99 485.532 99H390.452C386.076 99 382.528 102.547 382.528 106.923V233.697C382.528 238.073 386.076 241.621 390.452 241.621H485.532C489.908 241.621 493.455 238.073 493.455 233.697V228.943M409.511 129.109H469.471" stroke="#25316D" stroke-width="2" stroke-linecap="round"/>
<path d="M408.939 162.387H424.786" stroke="#25316D" stroke-width="2" stroke-linecap="round"/>
<path d="M408.939 194.08H422.145" stroke="#25316D" stroke-width="2" stroke-linecap="round"/>
<rect x="406.299" y="209.927" width="42.258" height="15.8467" rx="5.28224" fill="#CB2027"/>
<path d="M45 260.103H295" stroke="#25316D" stroke-width="2" stroke-linecap="round" stroke-linejoin="round"/>
<path d="M94.6254 277.609L94.7694 277.504L94.8685 277.356C95.6427 276.194 97.0402 275.501 98.9784 275.287C100.912 275.073 103.248 275.359 105.646 276.019C108.036 276.677 110.434 277.69 112.477 278.882C114.535 280.082 116.164 281.421 117.087 282.697C121.002 288.108 120.294 294.987 115.958 298.152C114.96 298.879 113.343 299.332 111.281 299.446C109.246 299.558 106.897 299.332 104.55 298.819C102.203 298.306 99.8925 297.513 97.9308 296.511C95.9556 295.503 94.4046 294.32 93.4957 293.064C89.581 287.653 90.2887 280.774 94.6254 277.609Z" fill="white" stroke="#25316D" stroke-width="2"/>
<path d="M117.507 296.346C116.254 294.936 113.559 292.115 112.807 292.115" stroke="#25316D" stroke-width="2"/>
<path d="M176.5 278.5C182.5 292 192 320.037 168 317.5C154.507 316.074 157.795 307.54 161 305.5C166.5 302 168.854 304.358 171 308C174.626 314.153 168.775 322.065 154.5 319.5C131.504 315.368 142 310.5 132.5 303C129.34 300.505 121.761 298.64 117.5 296.5" stroke="#303030" stroke-width="2" stroke-linecap="round"/>
<path d="M114.241 287.896L114.235 287.899C113.946 288.073 113.56 288.004 113.345 287.726C112.37 286.447 110.529 284.606 108.458 282.828C106.38 281.044 103.996 279.259 101.912 278.122L100.784 279.756C100.781 279.759 100.781 279.759 100.781 279.759L100.782 279.759L100.783 279.76L100.793 279.769C100.803 279.778 100.82 279.793 100.842 279.813C100.887 279.853 100.955 279.915 101.042 279.998C101.217 280.163 101.469 280.411 101.767 280.731C102.366 281.374 103.145 282.299 103.869 283.433C105.294 285.664 106.429 288.574 105.751 291.685C105.033 292.431 103.895 292.829 103.367 293.002L103.255 293.039L103.155 293.101L103.155 293.101L103.155 293.101L103.153 293.102L103.145 293.107L103.109 293.129C103.077 293.148 103.028 293.177 102.965 293.215C102.838 293.289 102.654 293.396 102.428 293.523C101.973 293.777 101.354 294.108 100.687 294.418C100.016 294.731 99.3248 295.009 98.7216 295.173C98.0643 295.351 97.7158 295.334 97.603 295.293L96.9611 295.061L96.5147 295.569C96.5148 295.569 96.5148 295.569 96.5147 295.569C96.5145 295.569 96.5142 295.57 96.5137 295.57C96.5133 295.571 96.5127 295.571 96.512 295.572C96.5079 295.577 96.4994 295.586 96.4866 295.599C96.4611 295.625 96.4191 295.667 96.3624 295.718C96.2477 295.822 96.0796 295.96 95.8714 296.091C95.4513 296.355 94.9477 296.544 94.4152 296.482C94.4128 296.478 94.311 296.441 94.0924 296.27C93.8527 296.083 93.5616 295.806 93.2301 295.45C92.5693 294.74 91.8253 293.798 91.1173 292.84C90.4128 291.886 89.7593 290.938 89.281 290.227C89.0422 289.871 88.8478 289.576 88.7134 289.37C88.6462 289.267 88.594 289.187 88.5589 289.132L88.5192 289.07L88.5093 289.055L88.507 289.051L88.5065 289.051L88.5064 289.051L88.5064 289.05L88.3161 288.752L87.9812 288.64L87.981 288.64L87.981 288.64L87.9807 288.64L87.9781 288.639L87.9632 288.634C87.9493 288.629 87.9274 288.622 87.8981 288.612C87.8395 288.591 87.7511 288.559 87.6371 288.516C87.4088 288.431 87.0783 288.302 86.6774 288.132C85.8734 287.789 84.797 287.283 83.6979 286.625C82.5946 285.965 81.4979 285.169 80.6317 284.257C79.7641 283.343 79.1728 282.36 78.9839 281.321L78.9702 281.246L78.9457 281.175L78.9457 281.175L78.9455 281.175L78.9453 281.174L78.9443 281.171L78.9364 281.147C78.9289 281.124 78.9173 281.088 78.9023 281.038C78.8723 280.94 78.8289 280.791 78.779 280.599C78.679 280.214 78.5535 279.659 78.4555 278.99C78.2581 277.643 78.1794 275.884 78.6072 274.141C79.0305 272.417 79.946 270.713 81.754 269.404C83.5509 268.102 86.3197 267.125 90.5695 267.004C90.5887 267.011 90.6097 267.018 90.6323 267.025C90.7804 267.075 91.0006 267.151 91.2838 267.253C91.8503 267.455 92.6686 267.761 93.6673 268.167C95.6663 268.981 98.3799 270.196 101.241 271.805C106.988 275.037 113.112 279.735 115.464 285.768C115.459 285.8 115.448 285.858 115.421 285.947C115.356 286.162 115.235 286.438 115.074 286.734C114.916 287.025 114.734 287.307 114.563 287.532C114.478 287.645 114.402 287.735 114.338 287.803C114.269 287.875 114.237 287.899 114.241 287.896Z" fill="white" stroke="#25316D" stroke-width="2"/>
<path fill-rule="evenodd" clip-rule="evenodd" d="M106.204 148.524C141.83 177.116 100.466 224.121 100.466 224.121C100.466 224.121 97.5 239.331 97.5 242.5C97.5 256 102.696 267.314 102.696 267.314C102.696 267.314 85.3336 275.044 80.954 284.116C80.7456 284.548 79.5439 285.526 79.0736 285.526C79.0736 285.526 72.8564 265.724 71 259.5C63.0092 232.707 65.2117 216.13 65.2117 216.13C71.3223 202.028 74.6364 193.397 81.1936 178.996C87.1592 165.885 98.3245 157.601 106.204 148.524Z" fill="#58B9FD"/>
<path fill-rule="evenodd" clip-rule="evenodd" d="M241.203 25.5007C239.214 25.5007 237.601 27.1037 237.601 29.112C237.601 31.1008 239.214 32.7228 241.203 32.7228C243.188 32.7228 244.802 31.1008 244.802 29.112C244.802 28.6373 244.71 28.1671 244.529 27.7285C244.349 27.2898 244.084 26.8913 243.749 26.5558C243.415 26.2202 243.018 25.9543 242.581 25.7733C242.144 25.5922 241.676 25.4996 241.203 25.5007ZM241.203 26.698C242.526 26.698 243.602 27.7795 243.602 29.112C243.602 30.4441 242.526 31.5256 241.203 31.5256C239.88 31.5256 238.804 30.4441 238.804 29.112C238.804 27.7795 239.88 26.698 241.203 26.698Z" fill="#25316D"/>
<path fill-rule="evenodd" clip-rule="evenodd" d="M155.525 122.828C155.525 122.828 160.449 118.767 162.935 119.425L163.115 122.663C163.115 122.663 170.491 127.767 180.513 127.932C190.54 128.152 198.299 123.322 199.954 119.425C199.954 119.425 205.85 120.741 206.091 124.693C206.091 124.693 237.237 134.295 245.114 139.676C252.988 144.996 257.049 148.509 258.848 157.73C260.64 166.893 267.13 196.525 268.61 220.341C252.764 215.29 239.652 215.183 223.457 215.183C185.123 169.685 158.64 224.872 123.413 259.58C123.413 259.58 134.5 195.357 130.572 195.85C126.648 196.289 72.6829 217.267 72.6829 217.267C72.6829 217.267 71.7485 202.439 72.6828 198.268C73.6171 194.097 91.8513 149.167 96.0205 143.077C100.19 136.93 107.566 132.046 120.702 129.303C133.844 126.561 155.525 122.828 155.525 122.828Z" fill="#58B9FD"/>
<path d="M85.5 167C87.5 163.5 88.3416 160.193 89.5 157C90.9673 152.9 93.1631 146.877 96.0004 143.5" stroke="#25316D" stroke-width="2" stroke-miterlimit="1.5" stroke-linecap="round" stroke-linejoin="round"/>
<path d="M131.859 174.749C134.899 189.083 134.443 205.364 129.773 219.305M141.362 172.735C143.244 179.165 143.499 185.841 143.477 192.502C143.484 201.041 142.675 209.701 139.766 217.795" stroke="#25316D" stroke-width="2" stroke-miterlimit="1.5" stroke-linecap="round" stroke-linejoin="round"/>
<path d="M155.795 126.874C158.516 131.1 163.177 133.68 167.734 135.437C178.973 139.716 194.76 139.223 202.814 129.124M199.874 119.412C200.546 119.412 201.224 119.521 201.869 119.686C204.164 120.453 205.327 122.321 205.896 124.513M149.527 128.191C151.276 130.606 153.183 133.076 155.401 135.051C158.308 137.632 161.838 139.55 165.477 140.868" stroke="#25316D" stroke-width="2" stroke-miterlimit="1.5" stroke-linecap="round" stroke-linejoin="round"/>
<path d="M162.92 119.77C160.445 119.825 157.27 120.922 155.932 123.171" stroke="#25316D" stroke-width="2" stroke-miterlimit="1.5" stroke-linecap="round" stroke-linejoin="round"/>
<path d="M68.9719 218.01C70.852 226.471 81.1911 226.505 85.4236 228.351C90.0467 230.402 95.8865 222.029 100 225M75.5525 267.366C80.723 257.965 84.3934 254.69 97.1747 253.264" stroke="#25316D" stroke-width="2" stroke-miterlimit="1.5" stroke-linecap="round" stroke-linejoin="round"/>
<path d="M199.46 100.597L161.636 91.1965L162.576 122.22C162.576 122.22 173.585 127.956 181.378 127.86C189.605 127.759 199.46 122.491 199.46 122.491L199.46 100.597Z" fill="white"/>
<path d="M157.661 72.6596C157.661 92.3858 174.67 110.434 189.075 110.434C209.065 96.2219 213.062 91.1728 213.062 74.9036C221.211 62.6513 211.978 29.1321 184.993 29.1321C149.485 29.1321 151.616 61.9381 157.661 72.6596Z" fill="white"/>
<path d="M190.923 66.9643C190.901 70.3119 191.289 73.549 192.448 76.6767C192.732 77.4998 193.038 78.2686 193.426 78.9823C193.453 79.037 193.819 79.6403 193.803 79.6403C193.552 79.9696 192.628 79.9692 192.278 79.9692C190.787 80.079 189.295 79.5852 187.896 79.0914M181.946 64.221C179.093 62.6295 175.668 62.6295 172.952 64.4953M206.311 65.3731C203.256 63.7269 200.021 63.6718 196.814 64.8242M192.497 91.3289C188.415 91.4934 184.416 90.7254 181.044 88.311M163.111 64.825C163.739 71.0807 164.236 77.1176 164.766 83.3733M171.87 55.9904C170.236 59.9412 166.821 62.7403 162.876 64.167M155.875 58.3718C161.29 50.4151 166.832 36.1547 176.471 33.411C181.41 32.039 186.581 29.7339 187.898 35.5505C188.116 36.5385 203.142 50.9575 211.977 54.0927" stroke="#25316D" stroke-width="2" stroke-miterlimit="1.5" stroke-linecap="round" stroke-linejoin="round"/>
<path d="M219.461 52.2822C219.406 62.4341 209.315 56.923 201.376 56.4839C199.715 56.3741 198.081 56.0992 196.436 55.8249M193.42 58.24C187.306 59.6667 179.53 59.0638 174.913 54.2348M159.406 72.8922C159.406 72.8922 160.93 87.7625 161.329 91.7133C161.392 92.3125 161.654 92.8729 162.072 93.3053C168.58 100.329 176.476 105.103 185.71 107.792C186.327 107.957 186.989 107.957 187.59 107.738C194.556 105.104 201.217 101.097 207.518 95.4453C208.053 94.9515 208.386 94.2929 208.447 93.5795C208.949 87.5433 211.293 59.283 211.293 59.283" stroke="#25316D" stroke-width="2" stroke-miterlimit="1.5" stroke-linecap="round" stroke-linejoin="round"/>
<path d="M199.64 101.591L199.104 122.336C199.104 122.336 180.143 134.296 163.767 122.336M162.106 94.0193L162.412 118.822" stroke="#25316D" stroke-width="2" stroke-miterlimit="1.5" stroke-linecap="round" stroke-linejoin="round"/>
<path d="M200.941 71.5477C200.722 71.5509 200.504 71.5103 200.301 71.4282C200.097 71.3461 199.912 71.2242 199.755 71.0695C199.599 70.9149 199.475 70.7306 199.39 70.5273C199.306 70.3241 199.262 70.1059 199.262 69.8856C199.262 69.6653 199.306 69.4471 199.391 69.2439C199.475 69.0407 199.599 68.8564 199.756 68.7018C199.912 68.5471 200.097 68.4252 200.301 68.3432C200.505 68.2612 200.722 68.2206 200.942 68.2238C201.376 68.2303 201.791 68.4083 202.096 68.7193C202.401 69.0303 202.572 69.4494 202.572 69.886C202.572 70.3225 202.401 70.7416 202.096 71.0525C201.791 71.3634 201.376 71.5413 200.941 71.5477ZM177.995 71.5477C177.556 71.5477 177.135 71.3726 176.825 71.0608C176.515 70.7491 176.34 70.3263 176.34 69.8854C176.34 69.4445 176.515 69.0218 176.825 68.71C177.135 68.3983 177.556 68.2231 177.995 68.2231C178.43 68.2296 178.845 68.4075 179.15 68.7186C179.455 69.0296 179.627 69.4487 179.627 69.8854C179.627 70.3221 179.455 70.7412 179.15 71.0523C178.845 71.3633 178.43 71.5413 177.995 71.5477Z" fill="#25316D"/>
<path fill-rule="evenodd" clip-rule="evenodd" d="M166.371 98.6421C166.371 98.6421 176.693 111.866 186.178 112.58C194.255 113.238 199.287 106.818 199.287 106.818V101.989C199.287 101.989 187.987 108.409 186.178 107.915C184.375 107.366 166.371 98.6421 166.371 98.6421Z" fill="#25316D"/>
<path d="M156.166 60.1874L146.961 61.1862C144.216 61.4841 142.23 63.9513 142.525 66.6969L145.036 90.0315C145.331 92.7771 147.796 94.7613 150.542 94.4634L159.746 93.4645L156.166 60.1874Z" fill="white" stroke="#25316D" stroke-width="2"/>
<path d="M213.732 60.1586L222.963 60.8645C225.716 61.075 227.779 63.4779 227.57 66.2314L225.796 89.6344C225.587 92.3879 223.186 94.4494 220.433 94.2388L211.201 93.5329L213.732 60.1586Z" fill="white" stroke="#25316D" stroke-width="2"/>
<mask id="path-33-inside-1_908_12585" fill="white">
<path d="M219.28 62.19C221.473 62.3369 223.397 60.683 223.317 58.4865C223.17 54.4629 222.347 50.4788 220.872 46.6869C218.912 41.6504 215.846 37.0687 211.877 33.2468C207.908 29.4249 203.128 26.4506 197.855 24.522C192.583 22.5934 186.938 21.7547 181.298 22.0619C175.657 22.3691 170.15 23.815 165.144 26.3034C160.137 28.7918 155.746 32.2655 152.263 36.4933C148.779 40.721 146.284 45.6056 144.942 50.8219C143.928 54.7648 143.59 58.8287 143.935 62.8575C144.12 65.0301 146.201 66.439 148.348 66.0575L148.431 66.0428C150.634 65.6513 152.058 63.525 151.942 61.2901C151.79 58.3925 152.08 55.4819 152.809 52.6499C153.877 48.4959 155.865 44.606 158.639 41.2392C161.413 37.8724 164.91 35.1061 168.897 33.1244C172.884 31.1428 177.269 29.9913 181.761 29.7467C186.253 29.5021 190.748 30.1699 194.947 31.7058C199.146 33.2416 202.952 35.6102 206.113 38.6538C209.273 41.6974 211.715 45.3461 213.276 49.3569C214.345 52.1048 214.984 54.9794 215.178 57.889C215.327 60.1043 216.968 62.0351 219.184 62.1835L219.28 62.19Z"/>
</mask>
<path d="M219.28 62.19C221.473 62.3369 223.397 60.683 223.317 58.4865C223.17 54.4629 222.347 50.4788 220.872 46.6869C218.912 41.6504 215.846 37.0687 211.877 33.2468C207.908 29.4249 203.128 26.4506 197.855 24.522C192.583 22.5934 186.938 21.7547 181.298 22.0619C175.657 22.3691 170.15 23.815 165.144 26.3034C160.137 28.7918 155.746 32.2655 152.263 36.4933C148.779 40.721 146.284 45.6056 144.942 50.8219C143.928 54.7648 143.59 58.8287 143.935 62.8575C144.12 65.0301 146.201 66.439 148.348 66.0575L148.431 66.0428C150.634 65.6513 152.058 63.525 151.942 61.2901C151.79 58.3925 152.08 55.4819 152.809 52.6499C153.877 48.4959 155.865 44.606 158.639 41.2392C161.413 37.8724 164.91 35.1061 168.897 33.1244C172.884 31.1428 177.269 29.9913 181.761 29.7467C186.253 29.5021 190.748 30.1699 194.947 31.7058C199.146 33.2416 202.952 35.6102 206.113 38.6538C209.273 41.6974 211.715 45.3461 213.276 49.3569C214.345 52.1048 214.984 54.9794 215.178 57.889C215.327 60.1043 216.968 62.0351 219.184 62.1835L219.28 62.19Z" fill="white" stroke="#25316D" stroke-width="4" mask="url(#path-33-inside-1_908_12585)"/>
<path fill-rule="evenodd" clip-rule="evenodd" d="M249.766 211.574L249.418 214.644C249.418 214.644 264.13 233.296 274.051 234.649C283.992 236.02 290.028 224.281 293.932 214.644C297.837 205.01 300.623 194.332 297.934 191.802C297.934 191.802 299.373 184.889 297.934 184.251H278.59L254.208 152.892L249.611 148.567C249.611 148.567 247.766 144.914 243.459 140.705C237.883 154.05 233.131 174.828 234.401 206.227L247.746 209.545C248.037 209.778 248.783 210.649 249.766 211.574Z" fill="#58B9FD"/>
<mask id="path-35-inside-2_908_12585" fill="white">
<path d="M256.549 174.174C258.503 174.477 260.497 174.393 262.418 173.925C264.339 173.458 266.149 172.616 267.745 171.449C269.341 170.282 270.692 168.812 271.719 167.123C272.747 165.434 273.432 163.559 273.735 161.605C274.038 159.651 273.954 157.657 273.486 155.736C273.019 153.815 272.177 152.005 271.01 150.409C269.843 148.813 268.373 147.462 266.684 146.435C264.995 145.407 263.12 144.722 261.166 144.419L259.795 153.252C260.589 153.375 261.351 153.653 262.037 154.071C262.724 154.488 263.321 155.037 263.795 155.685C264.269 156.334 264.611 157.069 264.801 157.85C264.991 158.63 265.026 159.441 264.902 160.234C264.779 161.028 264.501 161.79 264.083 162.476C263.666 163.163 263.117 163.76 262.469 164.234C261.82 164.708 261.085 165.05 260.304 165.24C259.524 165.43 258.713 165.465 257.92 165.341L256.549 174.174Z"/>
</mask>
<path d="M256.549 174.174C258.503 174.477 260.497 174.393 262.418 173.925C264.339 173.458 266.149 172.616 267.745 171.449C269.341 170.282 270.692 168.812 271.719 167.123C272.747 165.434 273.432 163.559 273.735 161.605C274.038 159.651 273.954 157.657 273.486 155.736C273.019 153.815 272.177 152.005 271.01 150.409C269.843 148.813 268.373 147.462 266.684 146.435C264.995 145.407 263.12 144.722 261.166 144.419L259.795 153.252C260.589 153.375 261.351 153.653 262.037 154.071C262.724 154.488 263.321 155.037 263.795 155.685C264.269 156.334 264.611 157.069 264.801 157.85C264.991 158.63 265.026 159.441 264.902 160.234C264.779 161.028 264.501 161.79 264.083 162.476C263.666 163.163 263.117 163.76 262.469 164.234C261.82 164.708 261.085 165.05 260.304 165.24C259.524 165.43 258.713 165.465 257.92 165.341L256.549 174.174Z" fill="white" stroke="#25316D" stroke-width="4" mask="url(#path-35-inside-2_908_12585)"/>
<path fill-rule="evenodd" clip-rule="evenodd" d="M264.196 143.735C264.324 142.888 264.076 142.025 263.521 141.374C263.245 141.054 262.905 140.798 262.522 140.622C262.139 140.446 261.723 140.354 261.302 140.354H229.284C228.432 140.354 227.621 140.728 227.065 141.374C226.79 141.696 226.587 142.073 226.471 142.481C226.354 142.888 226.326 143.316 226.389 143.735C227.553 151.481 230.391 170.429 231.415 177.251C231.631 178.684 232.862 179.744 234.31 179.744H256.312C257.763 179.744 258.995 178.684 259.207 177.251C260.222 170.409 263.045 151.481 264.196 143.735Z" fill="white"/>
<path d="M263.207 143.588L263.208 143.586C263.292 143.027 263.129 142.455 262.762 142.025C262.58 141.815 262.356 141.646 262.104 141.53C261.852 141.414 261.578 141.354 261.302 141.354C261.302 141.354 261.301 141.354 261.301 141.354C261.301 141.354 261.301 141.354 261.301 141.354L229.284 141.354C228.725 141.354 228.19 141.599 227.824 142.025C227.643 142.237 227.509 142.486 227.432 142.756C227.355 143.026 227.337 143.309 227.378 143.587L263.207 143.588ZM263.207 143.588C262.696 147.028 261.855 152.676 260.988 158.49C259.905 165.765 258.782 173.301 258.217 177.104L258.217 177.104M263.207 143.588L258.217 177.104M258.217 177.104C258.078 178.045 257.269 178.744 256.312 178.744H234.31C233.358 178.744 232.546 178.047 232.404 177.102L258.217 177.104ZM232.404 177.102C232.011 174.482 231.35 170.072 230.619 165.195C229.447 157.377 228.095 148.357 227.378 143.587L232.404 177.102Z" stroke="#25316D" stroke-width="2"/>
<path d="M250.037 93.051C253.036 98.3441 252.875 103.945 250.037 109.216C245.402 117.836 235.951 124.414 238.089 134.235C238.461 135.909 239.211 137.558 240.289 139.089M259.24 108.793C260.69 112.428 260.151 116.118 257.982 119.479C254.443 124.974 248.079 128.901 248.643 135.486C248.742 136.606 249.077 137.732 249.628 138.796" stroke="#25316D" stroke-width="2" stroke-miterlimit="1.5" stroke-linecap="round" stroke-linejoin="round"/>
<path fill-rule="evenodd" clip-rule="evenodd" d="M276.587 187.55C276.587 187.55 287.959 190.488 297.115 183.804C297.115 183.804 299.409 169.709 295.331 158.277C293.88 154.22 280.762 151.461 280.762 151.461C280.762 151.461 276.692 152.677 275.152 154.375C275.152 154.375 267.246 154.783 264.104 154.954C263.392 154.993 262.835 155.572 262.835 156.287V161.04C262.835 161.638 263.237 162.178 263.818 162.334C264.905 162.641 266.511 163.084 266.511 163.084C266.511 163.084 265.617 167.817 267.625 169.305C267.625 169.305 266.105 173.106 268.012 174.924C268.012 174.924 266.379 178.997 268.709 181.045C271.042 183.093 275.856 183.536 276.587 187.55Z" fill="white"/>
<path d="M275.091 154.771L275.097 154.771C275.095 154.771 275.093 154.771 275.091 154.771Z" fill="#25316D" stroke="#25316D" stroke-width="2" stroke-linecap="round" stroke-linejoin="round"/>
<path d="M286.135 155.567L275.794 154.627H264.983C264.199 154.627 262.632 155.097 262.632 156.977C262.632 158.858 262.632 160.268 262.632 160.738C262.476 160.895 262.538 161.396 264.043 162.148C265.547 162.9 266.549 163.088 266.863 163.088L275.324 164.028M266.393 163.558C266.079 165.282 265.923 168.823 267.803 169.199C269.683 169.575 273.6 169.355 275.324 169.199M267.333 170.139C266.863 171.549 266.487 174.463 268.743 174.839C270.999 175.215 273.443 175.309 274.384 175.309M267.803 175.779C267.176 177.346 266.863 180.762 270.623 181.89C274.384 183.018 276.264 186.12 276.734 187.531C277.361 187.844 279.93 188.377 285.195 188.001C290.459 187.625 295.536 185.024 297.416 183.77C298.043 176.406 298.45 160.738 295.066 156.977C291.681 153.217 284.254 151.65 280.964 151.337C279.397 151.807 276.17 152.935 275.794 153.687M272.033 183.77C269.37 188.784 263.948 199.752 263.572 203.512C263.102 208.213 261.222 216.203 266.863 221.844M295.066 193.641C291.305 194.738 282.468 196.555 277.204 195.051" stroke="#25316D" stroke-width="2" stroke-linecap="round" stroke-linejoin="round"/>
<path d="M242.495 110.781C240.622 114.087 240.723 117.584 242.495 120.875C245.389 126.257 251.29 130.365 249.955 136.497C249.723 137.542 249.255 138.572 248.582 139.528M236.749 120.611C235.843 122.88 236.18 125.185 237.534 127.283C239.744 130.715 243.718 133.167 243.365 137.278C243.304 137.977 243.095 138.681 242.75 139.345" stroke="#25316D" stroke-width="0.004" stroke-miterlimit="1.5" stroke-linecap="round" stroke-linejoin="round"/>
<path d="M202.2 283.488L202.2 283.488L202.206 283.5C202.395 283.885 202.352 284.349 202.076 284.711C202.075 284.712 202.075 284.713 202.074 284.713L194.094 295.019H163.97L163.866 294.889L163.223 294.078C162.678 293.392 161.92 292.436 161.068 291.364C159.365 289.218 157.287 286.601 155.788 284.718L155.785 284.714C155.52 284.384 155.458 283.908 155.653 283.492C155.748 283.298 155.894 283.135 156.075 283.021C156.257 282.906 156.467 282.845 156.681 282.843C156.682 282.843 156.683 282.843 156.683 282.843L201.181 282.843H201.183C201.395 282.843 201.603 282.903 201.783 283.017C201.963 283.131 202.108 283.294 202.2 283.488ZM259.569 193.025L259.568 193.027C256.999 207.635 248.517 255.874 246.323 268.361C246.105 269.597 245.033 270.495 243.787 270.495H114.441C113.212 270.495 112.146 269.613 111.91 268.388C110.759 262.364 107.984 247.856 105.113 232.85C102.082 217.005 98.9442 200.605 97.5009 193.052L97.5007 193.051C97.3579 192.307 97.5532 191.528 98.0469 190.917C98.5413 190.325 99.2724 189.977 100.032 189.977L257.032 189.977L257.033 189.977C257.409 189.976 257.779 190.058 258.12 190.217C258.46 190.377 258.762 190.609 259.003 190.899L259.004 190.9C259.495 191.489 259.702 192.274 259.569 193.025Z" fill="white" stroke="#25316D" stroke-width="2"/>
<path d="M179.091 227.496C187.24 227.496 193.858 234.136 193.858 242.323V295.024H164.323V242.323C164.323 234.136 170.938 227.496 179.091 227.496Z" fill="white" stroke="#25316D" stroke-width="2"/>
<path fill-rule="evenodd" clip-rule="evenodd" d="M185.87 242.265C185.87 238.504 182.834 235.457 179.091 235.457C175.348 235.457 172.314 238.504 172.314 242.265V254.44C172.314 258.194 175.348 261.24 179.091 261.24C182.834 261.24 185.87 258.194 185.87 254.44V242.265Z" fill="#58B9FD"/>
<path d="M117 267.011L103.463 197.382C103.223 196.147 104.169 195 105.426 195H222" stroke="#25316D" stroke-width="2"/>
<path d="M222.332 249.983C222.692 249.983 222.986 250.274 222.986 250.64V256.877C222.986 257.242 222.692 257.533 222.332 257.533H219.875C219.511 257.533 219.221 257.242 219.221 256.877V250.64C219.221 250.274 219.511 249.983 219.875 249.983H222.332Z" fill="#686868"/>
<path d="M231.646 249.983C232.005 249.983 232.3 250.274 232.3 250.64V256.877C232.3 257.242 232.005 257.533 231.646 257.533H229.188C228.825 257.533 228.535 257.242 228.535 256.877V250.64C228.535 250.274 228.825 249.983 229.188 249.983H231.646Z" fill="#686868"/>
</svg>
