<svg width="552" height="502" viewBox="0 0 552 502" fill="none" xmlns="http://www.w3.org/2000/svg">
<g clip-path="url(#clip0_604_4558)">
<circle cx="273.093" cy="461.953" r="265.609" fill="#58B9FD"/>
<path d="M474.219 364.726H469.852V243.747C469.852 234.552 468.061 225.447 464.581 216.952C461.1 208.457 455.999 200.738 449.569 194.236C443.139 187.734 435.504 182.577 427.103 179.058C418.701 175.539 409.696 173.728 400.602 173.728H147.107C128.741 173.728 111.127 181.105 98.1399 194.236C85.1529 207.367 77.857 225.177 77.8569 243.747V907.444C77.8569 916.639 79.6481 925.744 83.1282 934.239C86.6084 942.734 91.7093 950.453 98.1397 956.955C104.57 963.457 112.204 968.615 120.606 972.133C129.008 975.652 138.013 977.463 147.107 977.463H400.601C418.968 977.463 436.582 970.086 449.569 956.955C462.556 943.824 469.852 926.015 469.852 907.444V450.84H474.219V364.726Z" fill="white"/>
<rect x="91" y="183.88" width="367" height="772" rx="59" fill="#E2EEFF"/>
<rect x="220.55" y="210.019" width="109.221" height="11.2717" rx="5.63586" fill="white"/>
<path d="M201.205 451.084C202.735 451.084 204.077 451.383 205.231 451.981C206.399 452.579 207.296 453.434 207.922 454.547C208.562 455.645 208.882 456.925 208.882 458.385C208.882 459.845 208.562 461.124 207.922 462.223C207.296 463.308 206.399 464.149 205.231 464.747C204.077 465.345 202.735 465.644 201.205 465.644H196.115V451.084H201.205ZM201.101 463.162C202.63 463.162 203.813 462.745 204.647 461.91C205.481 461.076 205.899 459.901 205.899 458.385C205.899 456.869 205.481 455.687 204.647 454.839C203.813 453.976 202.63 453.545 201.101 453.545H199.036V463.162H201.101ZM212.549 452.711C212.034 452.711 211.603 452.551 211.255 452.231C210.922 451.897 210.755 451.487 210.755 451C210.755 450.514 210.922 450.11 211.255 449.79C211.603 449.457 212.034 449.29 212.549 449.29C213.063 449.29 213.487 449.457 213.821 449.79C214.169 450.11 214.343 450.514 214.343 451C214.343 451.487 214.169 451.897 213.821 452.231C213.487 452.551 213.063 452.711 212.549 452.711ZM213.988 454.088V465.644H211.068V454.088H213.988ZM221.4 453.9C222.262 453.9 223.02 454.074 223.674 454.421C224.327 454.755 224.842 455.193 225.217 455.736V454.088H228.159V465.727C228.159 466.798 227.943 467.751 227.512 468.585C227.081 469.434 226.434 470.101 225.572 470.588C224.71 471.089 223.667 471.339 222.443 471.339C220.802 471.339 219.453 470.956 218.396 470.192C217.353 469.427 216.762 468.384 216.623 467.063H219.523C219.676 467.591 220.002 468.008 220.503 468.314C221.018 468.634 221.636 468.794 222.36 468.794C223.208 468.794 223.896 468.537 224.425 468.022C224.953 467.521 225.217 466.757 225.217 465.727V463.934C224.842 464.476 224.32 464.928 223.653 465.289C222.999 465.651 222.248 465.832 221.4 465.832C220.426 465.832 219.536 465.581 218.73 465.081C217.923 464.58 217.284 463.878 216.811 462.974C216.352 462.056 216.122 461.006 216.122 459.824C216.122 458.656 216.352 457.62 216.811 456.716C217.284 455.812 217.916 455.117 218.709 454.63C219.516 454.143 220.413 453.9 221.4 453.9ZM225.217 459.866C225.217 459.157 225.078 458.552 224.8 458.051C224.522 457.536 224.147 457.147 223.674 456.883C223.201 456.605 222.693 456.466 222.151 456.466C221.609 456.466 221.108 456.598 220.649 456.862C220.19 457.126 219.815 457.516 219.523 458.03C219.244 458.531 219.105 459.129 219.105 459.824C219.105 460.519 219.244 461.131 219.523 461.66C219.815 462.174 220.19 462.571 220.649 462.849C221.122 463.127 221.622 463.266 222.151 463.266C222.693 463.266 223.201 463.134 223.674 462.87C224.147 462.592 224.522 462.202 224.8 461.702C225.078 461.187 225.217 460.575 225.217 459.866ZM232.492 452.711C231.977 452.711 231.546 452.551 231.199 452.231C230.865 451.897 230.698 451.487 230.698 451C230.698 450.514 230.865 450.11 231.199 449.79C231.546 449.457 231.977 449.29 232.492 449.29C233.006 449.29 233.431 449.457 233.764 449.79C234.112 450.11 234.286 450.514 234.286 451C234.286 451.487 234.112 451.897 233.764 452.231C233.431 452.551 233.006 452.711 232.492 452.711ZM233.931 454.088V465.644H231.011V454.088H233.931ZM240.217 456.487V462.077C240.217 462.466 240.307 462.751 240.488 462.932C240.683 463.099 241.003 463.183 241.448 463.183H242.803V465.644H240.968C238.506 465.644 237.276 464.448 237.276 462.056V456.487H235.899V454.088H237.276V451.23H240.217V454.088H242.803V456.487H240.217ZM244.153 459.824C244.153 458.656 244.382 457.62 244.841 456.716C245.314 455.812 245.947 455.117 246.74 454.63C247.546 454.143 248.443 453.9 249.431 453.9C250.293 453.9 251.044 454.074 251.683 454.421C252.337 454.769 252.859 455.207 253.248 455.736V454.088H256.189V465.644H253.248V463.954C252.872 464.497 252.351 464.949 251.683 465.31C251.03 465.658 250.272 465.832 249.41 465.832C248.436 465.832 247.546 465.581 246.74 465.081C245.947 464.58 245.314 463.878 244.841 462.974C244.382 462.056 244.153 461.006 244.153 459.824ZM253.248 459.866C253.248 459.157 253.109 458.552 252.831 458.051C252.553 457.536 252.177 457.147 251.704 456.883C251.231 456.605 250.724 456.466 250.182 456.466C249.639 456.466 249.139 456.598 248.68 456.862C248.221 457.126 247.845 457.516 247.553 458.03C247.275 458.531 247.136 459.129 247.136 459.824C247.136 460.519 247.275 461.131 247.553 461.66C247.845 462.174 248.221 462.571 248.68 462.849C249.152 463.127 249.653 463.266 250.182 463.266C250.724 463.266 251.231 463.134 251.704 462.87C252.177 462.592 252.553 462.202 252.831 461.702C253.109 461.187 253.248 460.575 253.248 459.866ZM261.962 450.208V465.644H259.042V450.208H261.962ZM278.078 458.176C278.899 458.329 279.573 458.739 280.102 459.407C280.63 460.074 280.894 460.839 280.894 461.702C280.894 462.48 280.7 463.169 280.31 463.767C279.935 464.351 279.386 464.81 278.662 465.143C277.939 465.477 277.084 465.644 276.097 465.644H269.818V451.084H275.825C276.813 451.084 277.661 451.244 278.37 451.564C279.094 451.883 279.636 452.328 279.997 452.899C280.373 453.469 280.561 454.115 280.561 454.839C280.561 455.687 280.331 456.396 279.872 456.966C279.427 457.536 278.829 457.94 278.078 458.176ZM272.738 457.091H275.408C276.104 457.091 276.639 456.938 277.015 456.633C277.39 456.313 277.578 455.861 277.578 455.277C277.578 454.693 277.39 454.241 277.015 453.921C276.639 453.601 276.104 453.441 275.408 453.441H272.738V457.091ZM275.679 463.266C276.389 463.266 276.938 463.099 277.327 462.765C277.731 462.432 277.932 461.959 277.932 461.347C277.932 460.721 277.724 460.234 277.307 459.887C276.889 459.525 276.326 459.344 275.617 459.344H272.738V463.266H275.679ZM282.471 459.824C282.471 458.656 282.7 457.62 283.159 456.716C283.632 455.812 284.265 455.117 285.058 454.63C285.864 454.143 286.761 453.9 287.749 453.9C288.611 453.9 289.362 454.074 290.001 454.421C290.655 454.769 291.177 455.207 291.566 455.736V454.088H294.507V465.644H291.566V463.954C291.191 464.497 290.669 464.949 290.001 465.31C289.348 465.658 288.59 465.832 287.728 465.832C286.754 465.832 285.864 465.581 285.058 465.081C284.265 464.58 283.632 463.878 283.159 462.974C282.7 462.056 282.471 461.006 282.471 459.824ZM291.566 459.866C291.566 459.157 291.427 458.552 291.149 458.051C290.871 457.536 290.495 457.147 290.022 456.883C289.55 456.605 289.042 456.466 288.5 456.466C287.957 456.466 287.457 456.598 286.998 456.862C286.539 457.126 286.163 457.516 285.871 458.03C285.593 458.531 285.454 459.129 285.454 459.824C285.454 460.519 285.593 461.131 285.871 461.66C286.163 462.174 286.539 462.571 286.998 462.849C287.47 463.127 287.971 463.266 288.5 463.266C289.042 463.266 289.55 463.134 290.022 462.87C290.495 462.592 290.871 462.202 291.149 461.702C291.427 461.187 291.566 460.575 291.566 459.866ZM303.764 453.921C305.14 453.921 306.253 454.359 307.101 455.235C307.949 456.097 308.374 457.307 308.374 458.865V465.644H305.453V459.261C305.453 458.343 305.224 457.641 304.765 457.154C304.306 456.653 303.68 456.403 302.887 456.403C302.081 456.403 301.441 456.653 300.968 457.154C300.509 457.641 300.28 458.343 300.28 459.261V465.644H297.36V454.088H300.28V455.527C300.669 455.026 301.163 454.637 301.761 454.359C302.373 454.067 303.04 453.921 303.764 453.921ZM317.993 465.644L314.071 460.721V465.644H311.151V450.208H314.071V458.99L317.951 454.088H321.748L316.658 459.887L321.789 465.644H317.993ZM324.814 452.711C324.299 452.711 323.868 452.551 323.52 452.231C323.187 451.897 323.02 451.487 323.02 451C323.02 450.514 323.187 450.11 323.52 449.79C323.868 449.457 324.299 449.29 324.814 449.29C325.328 449.29 325.752 449.457 326.086 449.79C326.434 450.11 326.608 450.514 326.608 451C326.608 451.487 326.434 451.897 326.086 452.231C325.752 452.551 325.328 452.711 324.814 452.711ZM326.253 454.088V465.644H323.333V454.088H326.253ZM335.542 453.921C336.919 453.921 338.032 454.359 338.88 455.235C339.728 456.097 340.153 457.307 340.153 458.865V465.644H337.232V459.261C337.232 458.343 337.003 457.641 336.544 457.154C336.085 456.653 335.459 456.403 334.666 456.403C333.86 456.403 333.22 456.653 332.747 457.154C332.288 457.641 332.059 458.343 332.059 459.261V465.644H329.138V454.088H332.059V455.527C332.448 455.026 332.942 454.637 333.54 454.359C334.152 454.067 334.819 453.921 335.542 453.921ZM347.456 453.9C348.318 453.9 349.076 454.074 349.73 454.421C350.384 454.755 350.898 455.193 351.274 455.736V454.088H354.215V465.727C354.215 466.798 353.999 467.751 353.568 468.585C353.137 469.434 352.491 470.101 351.628 470.588C350.766 471.089 349.723 471.339 348.499 471.339C346.858 471.339 345.509 470.956 344.452 470.192C343.409 469.427 342.818 468.384 342.679 467.063H345.579C345.732 467.591 346.059 468.008 346.559 468.314C347.074 468.634 347.693 468.794 348.416 468.794C349.264 468.794 349.953 468.537 350.481 468.022C351.009 467.521 351.274 466.757 351.274 465.727V463.934C350.898 464.476 350.377 464.928 349.709 465.289C349.056 465.651 348.305 465.832 347.456 465.832C346.483 465.832 345.593 465.581 344.786 465.081C343.98 464.58 343.34 463.878 342.867 462.974C342.408 462.056 342.179 461.006 342.179 459.824C342.179 458.656 342.408 457.62 342.867 456.716C343.34 455.812 343.973 455.117 344.765 454.63C345.572 454.143 346.469 453.9 347.456 453.9ZM351.274 459.866C351.274 459.157 351.135 458.552 350.856 458.051C350.578 457.536 350.203 457.147 349.73 456.883C349.257 456.605 348.75 456.466 348.207 456.466C347.665 456.466 347.164 456.598 346.705 456.862C346.246 457.126 345.871 457.516 345.579 458.03C345.301 458.531 345.162 459.129 345.162 459.824C345.162 460.519 345.301 461.131 345.579 461.66C345.871 462.174 346.246 462.571 346.705 462.849C347.178 463.127 347.679 463.266 348.207 463.266C348.75 463.266 349.257 463.134 349.73 462.87C350.203 462.592 350.578 462.202 350.856 461.702C351.135 461.187 351.274 460.575 351.274 459.866Z" fill="#25316D"/>
<rect x="188.853" y="412.196" width="172.599" height="22.7104" rx="3.19628" fill="white"/>
<rect x="189.853" y="413.196" width="170.599" height="20.7104" rx="2.19628" stroke="#25316D" stroke-width="2" stroke-linecap="round" stroke-linejoin="round"/>
<path d="M188.853 308.094L275.152 260.962L361.452 308.094V324.888H188.853V308.094Z" fill="white"/>
<path d="M189.853 323.888V308.687L275.152 262.102L360.452 308.687V323.888H189.853Z" stroke="#25316D" stroke-width="2" stroke-linecap="round" stroke-linejoin="round"/>
<rect width="5.49854" height="54.505" transform="matrix(-1 0 0 1 212.52 353.149)" fill="white"/>
<path d="M207.021 353.149V407.654" stroke="#25316D" stroke-width="2" stroke-linecap="round" stroke-linejoin="round"/>
<path d="M212.52 353.149V407.654" stroke="#25316D" stroke-width="2" stroke-linecap="round" stroke-linejoin="round"/>
<rect width="5.02734" height="54.505" transform="matrix(-1 0 0 1 244.075 353.149)" fill="white"/>
<path d="M239.048 353.149V407.654" stroke="#25316D" stroke-width="2" stroke-linecap="round" stroke-linejoin="round"/>
<path d="M244.075 353.149V407.654" stroke="#25316D" stroke-width="2" stroke-linecap="round" stroke-linejoin="round"/>
<rect width="5.18457" height="54.505" transform="matrix(-1 0 0 1 275.788 353.149)" fill="white"/>
<path d="M270.604 353.149V407.654" stroke="#25316D" stroke-width="2" stroke-linecap="round" stroke-linejoin="round"/>
<path d="M275.788 353.149V407.654" stroke="#25316D" stroke-width="2" stroke-linecap="round" stroke-linejoin="round"/>
<rect width="5.18457" height="54.505" transform="matrix(-1 0 0 1 307.501 353.149)" fill="white"/>
<path d="M302.316 353.149V407.654" stroke="#25316D" stroke-width="2" stroke-linecap="round" stroke-linejoin="round"/>
<path d="M307.501 353.149V407.654" stroke="#25316D" stroke-width="2" stroke-linecap="round" stroke-linejoin="round"/>
<rect width="4.71289" height="54.505" transform="matrix(-1 0 0 1 338.742 353.149)" fill="white"/>
<path d="M338.742 353.149V407.654" stroke="#25316D" stroke-width="2" stroke-linecap="round" stroke-linejoin="round"/>
<path d="M334.029 353.149V407.654" stroke="#25316D" stroke-width="2" stroke-linecap="round" stroke-linejoin="round"/>
<rect x="194.395" y="335.981" width="161.515" height="16.1683" rx="2.19628" fill="white" stroke="#25316D" stroke-width="2" stroke-linecap="round" stroke-linejoin="round"/>
<circle cx="275.152" cy="296.121" r="10.8256" fill="#CB2027"/>
<path d="M287.578 296.121C287.578 303.056 282.015 308.678 275.152 308.678C268.29 308.678 262.727 303.056 262.727 296.121C262.727 289.186 268.29 283.564 275.152 283.564C282.015 283.564 287.578 289.186 287.578 296.121Z" stroke="#25316D" stroke-width="2" stroke-linecap="round" stroke-linejoin="round"/>
<path d="M193.395 407.828L356.909 407.828" stroke="#25316D" stroke-width="2" stroke-linecap="round"/>
<rect x="328.961" y="58.7207" width="61.5232" height="61.5232" rx="30.7616" fill="white"/>
<g clip-path="url(#clip1_604_4558)">
<rect x="346.708" y="85.9329" width="24.8459" height="18.3386" rx="1.18314" fill="white" stroke="#25316D" stroke-width="1.18314"/>
<path d="M354.233 94.4042C353.817 94.4042 353.476 94.0635 353.476 93.647C353.476 93.2305 353.817 92.8898 354.233 92.8898H354.99C355.407 92.8898 355.747 93.2305 355.747 93.647C355.747 94.0635 356.088 94.4042 356.505 94.4042C356.921 94.4042 357.262 94.0635 357.262 93.647C357.262 92.5112 356.429 91.6025 355.369 91.4132V90.6182C355.369 90.2017 355.028 89.861 354.612 89.861C354.195 89.861 353.854 90.2017 353.854 90.6182V91.4132C352.794 91.6025 351.961 92.5112 351.961 93.647C351.961 94.8964 352.984 95.9186 354.233 95.9186H354.99C355.407 95.9186 355.747 96.2594 355.747 96.6758C355.747 97.0923 355.407 97.433 354.99 97.433H354.233C353.817 97.433 353.476 97.0923 353.476 96.6758C353.476 96.2594 353.135 95.9186 352.719 95.9186C352.302 95.9186 351.961 96.2594 351.961 96.6758C351.961 97.8116 352.794 98.7203 353.854 98.9096V99.7047C353.854 100.121 354.195 100.462 354.612 100.462C355.028 100.462 355.369 100.121 355.369 99.7047V98.9096C356.429 98.7203 357.262 97.8116 357.262 96.6758C357.262 95.4264 356.24 94.4042 354.99 94.4042H354.233Z" fill="#25316D"/>
<path d="M349.074 77.0594L355.022 81.0247C355.187 81.1344 355.286 81.3191 355.286 81.5169V85.9329M359.722 85.3413V77.9467M365.047 85.3413V76.4678C365.047 76.1411 365.311 75.8762 365.638 75.8762H368.596" stroke="#25316D" stroke-width="1.18314"/>
<circle cx="347.3" cy="75.8763" r="1.77471" stroke="#25316D" stroke-width="1.18314"/>
<circle cx="359.723" cy="75.8763" r="1.77471" stroke="#25316D" stroke-width="1.18314"/>
<circle cx="370.962" cy="75.8763" r="1.77471" stroke="#25316D" stroke-width="1.18314"/>
<path d="M363.272 95.1023C363.272 93.632 364.464 92.4402 365.934 92.4402H372.737C373.064 92.4402 373.329 92.7051 373.329 93.0318V97.1728C373.329 97.4995 373.064 97.7643 372.737 97.7643H365.934C364.464 97.7643 363.272 96.5725 363.272 95.1023Z" fill="#CB2027" stroke="#25316D" stroke-width="1.18314"/>
<circle cx="365.934" cy="95.1022" r="0.887354" fill="white"/>
</g>
<rect x="77.8545" y="105.962" width="61.5232" height="61.5232" rx="30.7616" fill="white"/>
<rect x="92.4829" y="130.216" width="30.0568" height="22.5426" rx="1.77471" fill="white"/>
<path d="M97.2647 130.216H94.2576C93.2775 130.216 92.4829 131.011 92.4829 131.991V150.984C92.4829 151.964 93.2775 152.759 94.2576 152.759H120.765C121.745 152.759 122.54 151.964 122.54 150.984V131.991C122.54 131.011 121.745 130.216 120.765 130.216H118.441" stroke="#25316D" stroke-width="1.18314"/>
<path d="M101.855 140.682C101.374 140.682 100.981 140.288 100.981 139.807C100.981 139.326 101.374 138.933 101.855 138.933H102.729C103.21 138.933 103.604 139.326 103.604 139.807C103.604 140.288 103.997 140.682 104.478 140.682C104.959 140.682 105.353 140.288 105.353 139.807C105.353 138.496 104.391 137.446 103.167 137.228V136.31C103.167 135.829 102.773 135.435 102.292 135.435C101.811 135.435 101.418 135.829 101.418 136.31V137.228C100.194 137.446 99.2319 138.496 99.2319 139.807C99.2319 141.25 100.412 142.43 101.855 142.43H102.729C103.21 142.43 103.604 142.824 103.604 143.305C103.604 143.786 103.21 144.179 102.729 144.179H101.855C101.374 144.179 100.981 143.786 100.981 143.305C100.981 142.824 100.587 142.43 100.106 142.43C99.6254 142.43 99.2319 142.824 99.2319 143.305C99.2319 144.616 100.194 145.666 101.418 145.884V146.802C101.418 147.283 101.811 147.677 102.292 147.677C102.773 147.677 103.167 147.283 103.167 146.802V145.884C104.391 145.666 105.353 144.616 105.353 143.305C105.353 141.862 104.172 140.682 102.729 140.682H101.855Z" fill="#25316D"/>
<path d="M112.201 141.488C112.201 139.739 113.618 138.322 115.366 138.322H123.405C123.732 138.322 123.997 138.587 123.997 138.914V144.062C123.997 144.388 123.732 144.653 123.405 144.653H115.366C113.618 144.653 112.201 143.236 112.201 141.488Z" fill="#CB2027" stroke="#25316D" stroke-width="1.18314"/>
<circle cx="115.367" cy="141.488" r="1.02466" fill="white"/>
<path fill-rule="evenodd" clip-rule="evenodd" d="M113.409 122.673L108.452 120.753L103.589 122.901L101.669 127.858L103.817 132.721L108.774 134.641L113.637 132.493L115.557 127.536L113.409 122.673ZM108.912 130.216C110.056 130.216 110.983 129.289 110.983 128.146C110.983 127.002 110.056 126.075 108.912 126.075C107.769 126.075 106.842 127.002 106.842 128.146C106.842 129.289 107.769 130.216 108.912 130.216Z" fill="white"/>
<circle cx="108.912" cy="128.146" r="2.66206" stroke="#25316D" stroke-width="1.18314"/>
<path d="M111.355 122.406L112.593 121.787L114.68 123.874L114.061 125.111L113.756 125.722L114.403 125.937L115.715 126.375V129.326L114.403 129.764L113.755 129.979L114.061 130.589L114.679 131.826L112.592 133.913L111.355 133.295L110.745 132.99L110.529 133.637L110.092 134.949H107.14L106.703 133.637L106.487 132.99L105.877 133.295L104.641 133.913L102.553 131.826L103.172 130.589L103.477 129.979L102.83 129.763L101.517 129.326V126.375L102.83 125.937L103.477 125.721L103.172 125.111L102.553 123.874L104.64 121.787L105.877 122.406L106.487 122.711L106.703 122.064L107.14 120.751H110.092L110.529 122.064L110.745 122.711L111.355 122.406Z" stroke="#25316D" stroke-width="1.18314" stroke-linecap="round"/>
<rect x="161.587" y="58.7207" width="61.5232" height="61.5232" rx="30.7616" fill="white"/>
<path d="M176.968 86.5246C176.968 86.1979 177.233 85.933 177.56 85.933H206.631C206.958 85.933 207.223 86.1979 207.223 86.5246V90.8627H176.968V86.5246Z" fill="white" stroke="#25316D" stroke-width="1.18314"/>
<path d="M176.968 90.2995H207.223V102.497C207.223 102.824 206.958 103.089 206.631 103.089H177.56C177.233 103.089 176.968 102.824 176.968 102.497V90.2995Z" fill="white" stroke="#25316D" stroke-width="1.18314"/>
<path d="M180.837 97.9628V98.2166C180.837 98.3704 180.801 98.4917 180.729 98.5804C180.656 98.6679 180.551 98.7117 180.411 98.7117C180.271 98.7117 180.165 98.6679 180.093 98.5804C180.021 98.4917 179.985 98.3704 179.985 98.2166V97.9628C179.985 97.809 180.021 97.6883 180.093 97.6008C180.165 97.5132 180.271 97.4694 180.411 97.4694C180.551 97.4694 180.656 97.5132 180.729 97.6008C180.801 97.6883 180.837 97.809 180.837 97.9628ZM180.622 97.9628C180.622 97.7652 180.552 97.6664 180.411 97.6664C180.339 97.6664 180.286 97.6913 180.251 97.741C180.217 97.7906 180.2 97.8646 180.2 97.9628V98.2166C180.2 98.3148 180.217 98.3893 180.251 98.4402C180.286 98.4899 180.339 98.5147 180.411 98.5147C180.552 98.5147 180.622 98.4153 180.622 98.2166V97.9628ZM182.234 98.694H181.503V98.5254C181.503 98.4402 181.514 98.3692 181.537 98.3124C181.559 98.2544 181.589 98.2071 181.627 98.1704C181.665 98.1326 181.706 98.1024 181.751 98.0799L181.872 98.0196C181.918 97.9959 181.956 97.9711 181.984 97.945C182.014 97.9178 182.028 97.8829 182.028 97.8403V97.8084C182.028 97.7646 182.013 97.7303 181.982 97.7055C181.953 97.6794 181.905 97.6664 181.838 97.6664C181.798 97.6664 181.757 97.6723 181.716 97.6842C181.676 97.696 181.627 97.7126 181.569 97.7339L181.503 97.5511C181.569 97.5215 181.63 97.5008 181.684 97.4889C181.74 97.4759 181.793 97.4694 181.846 97.4694C181.941 97.4694 182.018 97.4848 182.074 97.5156C182.132 97.5463 182.174 97.5877 182.199 97.6398C182.225 97.6907 182.238 97.7469 182.238 97.8084V97.8403C182.238 97.9042 182.225 97.9586 182.199 98.0036C182.174 98.0486 182.141 98.0864 182.099 98.1172C182.058 98.148 182.013 98.1752 181.964 98.1988L181.844 98.2592C181.8 98.2805 181.767 98.31 181.746 98.3479C181.726 98.3858 181.715 98.4343 181.712 98.4934H182.234V98.694ZM183.774 97.9628V98.2166C183.774 98.3704 183.738 98.4917 183.666 98.5804C183.594 98.6679 183.488 98.7117 183.348 98.7117C183.209 98.7117 183.103 98.6679 183.031 98.5804C182.959 98.4917 182.923 98.3704 182.923 98.2166V97.9628C182.923 97.809 182.959 97.6883 183.031 97.6008C183.103 97.5132 183.209 97.4694 183.348 97.4694C183.488 97.4694 183.594 97.5132 183.666 97.6008C183.738 97.6883 183.774 97.809 183.774 97.9628ZM183.56 97.9628C183.56 97.7652 183.489 97.6664 183.348 97.6664C183.276 97.6664 183.223 97.6913 183.189 97.741C183.154 97.7906 183.137 97.8646 183.137 97.9628V98.2166C183.137 98.3148 183.154 98.3893 183.189 98.4402C183.223 98.4899 183.276 98.5147 183.348 98.5147C183.489 98.5147 183.56 98.4153 183.56 98.2166V97.9628ZM185.161 98.3656C185.161 98.4284 185.148 98.4863 185.122 98.5396C185.096 98.5916 185.054 98.6336 184.996 98.6656C184.939 98.6963 184.863 98.7117 184.767 98.7117C184.713 98.7117 184.656 98.7052 184.597 98.6922C184.539 98.6792 184.475 98.6573 184.405 98.6265L184.471 98.4437C184.533 98.4662 184.586 98.484 184.629 98.497C184.672 98.5088 184.716 98.5147 184.76 98.5147C184.823 98.5147 184.87 98.5023 184.902 98.4775C184.935 98.4514 184.952 98.4112 184.952 98.3568V98.3319C184.952 98.287 184.937 98.2509 184.909 98.2237C184.882 98.1953 184.839 98.1811 184.781 98.1811H184.593V97.9894H184.781C184.837 97.9894 184.878 97.9764 184.904 97.9504C184.93 97.9232 184.943 97.8883 184.943 97.8457V97.8208C184.943 97.7664 184.927 97.7273 184.897 97.7037C184.867 97.6788 184.823 97.6664 184.765 97.6664C184.724 97.6664 184.682 97.6723 184.639 97.6842C184.598 97.6948 184.548 97.7114 184.488 97.7339L184.423 97.5511C184.489 97.5203 184.551 97.499 184.607 97.4872C184.664 97.4753 184.719 97.4694 184.772 97.4694C184.864 97.4694 184.937 97.4848 184.992 97.5156C185.048 97.5463 185.088 97.5877 185.113 97.6398C185.139 97.6919 185.152 97.7492 185.152 97.8119V97.8368C185.152 97.8924 185.138 97.9415 185.11 97.9841C185.082 98.0255 185.046 98.0586 185.001 98.0835C185.05 98.1095 185.088 98.1444 185.117 98.1882C185.146 98.2308 185.161 98.2816 185.161 98.3408V98.3656ZM186.632 98.2183C186.632 98.384 186.593 98.5076 186.515 98.5893C186.437 98.6709 186.327 98.7117 186.185 98.7117C186.135 98.7117 186.084 98.7058 186.031 98.694C185.977 98.6821 185.918 98.6608 185.851 98.6301L185.928 98.4473C185.981 98.4721 186.028 98.4899 186.068 98.5005C186.109 98.51 186.147 98.5147 186.18 98.5147C186.254 98.5147 186.314 98.4922 186.359 98.4473C186.405 98.4023 186.428 98.326 186.428 98.2183V98.1545C186.388 98.1911 186.345 98.2183 186.3 98.2361C186.257 98.2538 186.212 98.2627 186.167 98.2627C186.097 98.2627 186.036 98.2467 185.983 98.2148C185.931 98.1829 185.89 98.1385 185.862 98.0817C185.834 98.0249 185.819 97.9592 185.819 97.8847V97.8492C185.819 97.783 185.835 97.7208 185.867 97.6629C185.899 97.6049 185.945 97.5582 186.004 97.5227C186.063 97.4872 186.134 97.4694 186.215 97.4694C186.347 97.4694 186.449 97.5138 186.522 97.6025C186.596 97.6913 186.632 97.8131 186.632 97.9681V98.2183ZM186.027 97.8847C186.027 97.9391 186.042 97.9841 186.071 98.0196C186.102 98.0539 186.145 98.071 186.199 98.071C186.283 98.071 186.36 98.0391 186.428 97.9752V97.9681C186.428 97.8664 186.409 97.7906 186.371 97.741C186.335 97.6913 186.281 97.6664 186.212 97.6664C186.154 97.6664 186.108 97.6853 186.075 97.7232C186.043 97.7611 186.027 97.8031 186.027 97.8492V97.8847ZM188.124 98.4207H187.998V98.694H187.792V98.4207H187.274V98.2485C187.327 98.1657 187.379 98.0817 187.431 97.9965C187.485 97.9101 187.534 97.8244 187.581 97.7392C187.627 97.6528 187.665 97.5688 187.694 97.4872H187.927C187.883 97.6078 187.824 97.7321 187.749 97.8599C187.675 97.9865 187.598 98.1101 187.518 98.2308H187.792V98.048H187.998V98.2308H188.124V98.4207ZM189.571 98.3319C189.571 98.4041 189.555 98.4692 189.523 98.5271C189.491 98.5839 189.445 98.6289 189.386 98.662C189.328 98.6952 189.258 98.7117 189.175 98.7117C189.044 98.7117 188.941 98.6673 188.868 98.5786C188.794 98.4899 188.758 98.368 188.758 98.213V97.9628C188.758 97.7972 188.797 97.6735 188.875 97.5919C188.953 97.5102 189.063 97.4694 189.205 97.4694C189.255 97.4694 189.306 97.4753 189.359 97.4872C189.414 97.499 189.474 97.5203 189.539 97.5511L189.462 97.7339C189.409 97.709 189.362 97.6919 189.322 97.6824C189.282 97.6717 189.245 97.6664 189.21 97.6664C189.136 97.6664 189.075 97.6889 189.029 97.7339C188.984 97.7776 188.962 97.8539 188.962 97.9628V98.0267C189.003 97.99 189.046 97.9628 189.09 97.945C189.135 97.9273 189.179 97.9184 189.223 97.9184C189.294 97.9184 189.355 97.9344 189.407 97.9663C189.459 97.9983 189.5 98.0427 189.528 98.0994C189.556 98.1562 189.571 98.2219 189.571 98.2964V98.3319ZM188.962 98.213C188.962 98.3148 188.981 98.3905 189.019 98.4402C189.057 98.4899 189.11 98.5147 189.178 98.5147C189.238 98.5147 189.283 98.4982 189.315 98.465C189.347 98.4307 189.363 98.3864 189.363 98.3319V98.2964C189.363 98.2408 189.348 98.1959 189.319 98.1616C189.289 98.1272 189.246 98.1101 189.191 98.1101C189.107 98.1101 189.031 98.142 188.962 98.2059V98.213ZM191.099 97.9628V98.2166C191.099 98.3704 191.063 98.4917 190.991 98.5804C190.919 98.6679 190.813 98.7117 190.673 98.7117C190.534 98.7117 190.428 98.6679 190.356 98.5804C190.283 98.4917 190.247 98.3704 190.247 98.2166V97.9628C190.247 97.809 190.283 97.6883 190.356 97.6008C190.428 97.5132 190.534 97.4694 190.673 97.4694C190.813 97.4694 190.919 97.5132 190.991 97.6008C191.063 97.6883 191.099 97.809 191.099 97.9628ZM190.884 97.9628C190.884 97.7652 190.814 97.6664 190.673 97.6664C190.601 97.6664 190.548 97.6913 190.514 97.741C190.479 97.7906 190.462 97.8646 190.462 97.9628V98.2166C190.462 98.3148 190.479 98.3893 190.514 98.4402C190.548 98.4899 190.601 98.5147 190.673 98.5147C190.814 98.5147 190.884 98.4153 190.884 98.2166V97.9628ZM191.712 97.6593L192.019 97.4872H192.197V98.694H191.987V97.7214L191.806 97.8208L191.712 97.6593ZM193.634 98.3656C193.634 98.4284 193.621 98.4863 193.595 98.5396C193.569 98.5916 193.527 98.6336 193.469 98.6656C193.412 98.6963 193.336 98.7117 193.24 98.7117C193.186 98.7117 193.129 98.7052 193.07 98.6922C193.012 98.6792 192.948 98.6573 192.878 98.6265L192.944 98.4437C193.006 98.4662 193.059 98.484 193.102 98.497C193.145 98.5088 193.189 98.5147 193.233 98.5147C193.296 98.5147 193.343 98.5023 193.375 98.4775C193.408 98.4514 193.425 98.4112 193.425 98.3568V98.3319C193.425 98.287 193.41 98.2509 193.382 98.2237C193.355 98.1953 193.312 98.1811 193.254 98.1811H193.066V97.9894H193.254C193.31 97.9894 193.351 97.9764 193.377 97.9504C193.403 97.9232 193.416 97.8883 193.416 97.8457V97.8208C193.416 97.7664 193.4 97.7273 193.37 97.7037C193.34 97.6788 193.296 97.6664 193.238 97.6664C193.197 97.6664 193.155 97.6723 193.112 97.6842C193.071 97.6948 193.021 97.7114 192.961 97.7339L192.896 97.5511C192.962 97.5203 193.024 97.499 193.08 97.4872C193.137 97.4753 193.192 97.4694 193.245 97.4694C193.336 97.4694 193.41 97.4848 193.465 97.5156C193.521 97.5463 193.561 97.5877 193.586 97.6398C193.612 97.6919 193.625 97.7492 193.625 97.8119V97.8368C193.625 97.8924 193.611 97.9415 193.583 97.9841C193.555 98.0255 193.519 98.0586 193.474 98.0835C193.523 98.1095 193.561 98.1444 193.59 98.1882C193.619 98.2308 193.634 98.2816 193.634 98.3408V98.3656ZM195.013 98.694H194.282V98.5254C194.282 98.4402 194.293 98.3692 194.315 98.3124C194.338 98.2544 194.368 98.2071 194.406 98.1704C194.444 98.1326 194.485 98.1024 194.53 98.0799L194.651 98.0196C194.697 97.9959 194.734 97.9711 194.763 97.945C194.792 97.9178 194.807 97.8829 194.807 97.8403V97.8084C194.807 97.7646 194.792 97.7303 194.761 97.7055C194.731 97.6794 194.683 97.6664 194.617 97.6664C194.577 97.6664 194.536 97.6723 194.495 97.6842C194.455 97.696 194.405 97.7126 194.347 97.7339L194.282 97.5511C194.348 97.5215 194.408 97.5008 194.463 97.4889C194.518 97.4759 194.572 97.4694 194.624 97.4694C194.72 97.4694 194.796 97.4848 194.853 97.5156C194.911 97.5463 194.953 97.5877 194.977 97.6398C195.003 97.6907 195.017 97.7469 195.017 97.8084V97.8403C195.017 97.9042 195.003 97.9586 194.977 98.0036C194.953 98.0486 194.919 98.0864 194.878 98.1172C194.837 98.148 194.792 98.1752 194.743 98.1988L194.623 98.2592C194.579 98.2805 194.546 98.31 194.525 98.3479C194.505 98.3858 194.494 98.4343 194.491 98.4934H195.013V98.694Z" fill="#25316D"/>
<rect x="179.87" y="93.2009" width="22.705" height="2.61981" fill="#CB2027"/>
<path d="M192.283 73.6759L197.726 75.784L200.085 81.1236L198.959 85.3659L192.637 85.3659L185.968 85.3659L184.835 81.4776L186.943 76.0343L192.283 73.6759Z" fill="white"/>
<path d="M194.715 82.0878C194.715 83.2313 193.788 84.1583 192.644 84.1583C191.501 84.1583 190.574 83.2313 190.574 82.0878C190.574 80.9443 191.501 80.0173 192.644 80.0173C193.788 80.0173 194.715 80.9443 194.715 82.0878Z" fill="white"/>
<circle cx="192.644" cy="82.0879" r="3.25363" fill="#CB2027"/>
<path d="M199.131 85.885L198.322 84.2666L200.039 83.6944V79.8901L198.323 79.3179L199.132 77.6992L196.442 75.0092L194.823 75.8186L194.251 74.1017H190.446L189.874 75.8183L188.256 75.0091L185.566 77.6992L186.375 79.3177L184.658 79.89V83.6944L186.375 84.2666L185.566 85.8848" stroke="#25316D" stroke-width="1.18314" stroke-linecap="round"/>
<rect x="245.319" y="19.6705" width="61.4322" height="61.4322" rx="30.7161" fill="white"/>
<g clip-path="url(#clip2_604_4558)">
<path d="M274.944 51.135V52.1281" stroke="#CB2027" stroke-width="1.18139" stroke-linecap="round"/>
<path d="M276.931 51.135V52.1281" stroke="#CB2027" stroke-width="1.18139" stroke-linecap="round"/>
<path d="M275.938 51.135V52.8728" stroke="#CB2027" stroke-width="1.18139" stroke-linecap="round"/>
<path d="M280.386 45.7524C280.348 45.9292 280.393 46.1139 280.507 46.2536L282.977 49.2549L282.523 51.3064L279.884 49.6316C279.739 49.5396 279.561 49.5153 279.397 49.5649C279.232 49.6145 279.098 49.7332 279.028 49.8901L278.547 50.97C278.495 51.065 278.407 51.1171 278.311 51.1171H273.634C273.537 51.1171 273.45 51.065 273.398 50.9701L272.917 49.8901C272.847 49.7332 272.712 49.6145 272.548 49.5649C272.383 49.5153 272.206 49.5396 272.061 49.6316L269.405 51.3164L268.904 49.2574L271.428 46.3328C271.549 46.1921 271.598 46.0025 271.558 45.821C271.355 44.8899 271.223 43.9733 271.223 42.9292C271.223 40.9887 272.094 39.1786 273.151 37.7034C274.184 36.2624 275.357 35.1926 275.938 34.7038C276.519 35.1922 277.696 36.2603 278.739 37.6936C279.807 39.1604 280.694 40.954 280.722 42.8649C280.722 43.9072 280.589 44.8226 280.386 45.7524Z" fill="white" stroke="#25316D" stroke-width="1.18139" stroke-linecap="round" stroke-linejoin="round"/>
<path d="M274.055 41.1523C274.055 42.1761 274.898 43.0062 275.938 43.0062C276.978 43.0062 277.821 42.1761 277.821 41.1523C277.821 40.1284 276.978 39.2983 275.938 39.2983C274.898 39.2983 274.055 40.1284 274.055 41.1523Z" fill="#CB2027"/>
<path d="M259.693 57.5727L263.533 52.8472L275.937 54.0286L273.87 58.4588L259.693 57.5727Z" fill="white" stroke="#25316D" stroke-width="1.18139" stroke-linejoin="round"/>
<path d="M261.761 65.2828L261.701 65.8705C261.399 65.8397 261.17 65.5858 261.17 65.2828H261.761ZM261.17 57.868C261.17 57.5418 261.435 57.2774 261.761 57.2774C262.087 57.2774 262.351 57.5418 262.351 57.868H261.17ZM261.17 65.2828V57.868H262.351V65.2828H261.17ZM275.877 67.316L261.701 65.8705L261.821 64.6952L275.997 66.1407L275.877 67.316Z" fill="#25316D"/>
<path d="M292.182 57.5727L288.342 52.8472L275.938 54.0286L278.005 58.4588L292.182 57.5727Z" fill="white" stroke="#25316D" stroke-width="1.18139" stroke-linejoin="round"/>
<path d="M290.114 65.2828L290.174 65.8705C290.476 65.8397 290.705 65.5858 290.705 65.2828H290.114ZM290.705 57.868C290.705 57.5418 290.44 57.2774 290.114 57.2774C289.788 57.2774 289.524 57.5418 289.524 57.868H290.705ZM290.705 65.2828V57.868H289.524V65.2828H290.705ZM275.998 67.316L290.174 65.8705L290.054 64.6952L275.878 66.1407L275.998 67.316Z" fill="#25316D"/>
<path d="M275.938 66.7755V54.1141" stroke="#25316D" stroke-width="1.18139" stroke-linecap="round"/>
<path d="M281.816 64.6042C282.453 64.6042 282.969 64.088 282.969 63.4512C282.969 62.8144 282.453 62.2982 281.816 62.2982C281.179 62.2982 280.663 62.8144 280.663 63.4512C280.663 64.088 281.179 64.6042 281.816 64.6042Z" fill="#CB2027"/>
<path d="M284.77 64.3089C285.406 64.3089 285.923 63.7927 285.923 63.1559C285.923 62.5191 285.406 62.0029 284.77 62.0029C284.133 62.0029 283.617 62.5191 283.617 63.1559C283.617 63.7927 284.133 64.3089 284.77 64.3089Z" fill="#CB2027"/>
<path d="M287.723 64.0135C288.36 64.0135 288.876 63.4973 288.876 62.8605C288.876 62.2237 288.36 61.7075 287.723 61.7075C287.086 61.7075 286.57 62.2237 286.57 62.8605C286.57 63.4973 287.086 64.0135 287.723 64.0135Z" fill="#CB2027"/>
<path d="M266.658 60.5261L265.665 61.5192L266.658 62.5122" stroke="#CB2027" stroke-width="1.18139" stroke-linecap="round" stroke-linejoin="round"/>
<path d="M270.818 61.1168L271.811 62.1092L270.818 63.1016" stroke="#CB2027" stroke-width="1.18139" stroke-linecap="round" stroke-linejoin="round"/>
<path d="M269.234 60.8215L268.241 62.8076" stroke="#CB2027" stroke-width="1.18139" stroke-linecap="round" stroke-linejoin="round"/>
</g>
<rect x="412.693" y="105.962" width="61.5232" height="61.5232" rx="30.7616" fill="white"/>
<path d="M446.798 130.705C446.798 135.876 442.606 140.067 437.436 140.067C432.265 140.067 428.074 135.876 428.074 130.705C428.074 125.534 432.265 121.343 437.436 121.343C442.606 121.343 446.798 125.534 446.798 130.705Z" fill="white" stroke="#25316D" stroke-width="1.18314"/>
<path d="M441.614 134.818C441.234 135.26 440.717 135.635 440.062 135.941C439.412 136.243 438.585 136.394 437.581 136.394C435.892 136.394 434.594 135.915 433.69 134.959C432.79 133.997 432.341 132.528 432.341 130.552C432.341 128.566 432.79 127.102 433.69 126.161C434.594 125.215 435.892 124.742 437.581 124.742C438.512 124.742 439.282 124.872 439.89 125.132C440.504 125.387 440.974 125.706 441.302 126.091C441.541 126.377 441.572 126.598 441.395 126.754L440.857 127.214C440.691 127.36 440.511 127.3 440.319 127.035C440.101 126.738 439.76 126.486 439.297 126.278C438.835 126.065 438.32 125.959 437.753 125.959C436.479 125.959 435.554 126.294 434.977 126.965C434.399 127.63 434.064 128.532 433.971 129.671H439.18C439.466 129.671 439.609 129.788 439.609 130.022V130.599C439.609 130.833 439.466 130.95 439.18 130.95H433.939C433.986 132.39 434.298 133.456 434.875 134.148C435.458 134.834 436.386 135.177 437.659 135.177C438.361 135.177 438.931 135.065 439.367 134.842C439.804 134.618 440.186 134.314 440.514 133.929C440.737 133.664 440.935 133.602 441.107 133.742L441.707 134.226C441.874 134.355 441.842 134.553 441.614 134.818Z" fill="#25316D"/>
<circle cx="449.268" cy="142.536" r="9.55133" fill="white"/>
<path fill-rule="evenodd" clip-rule="evenodd" d="M459.221 142.536C459.221 148.034 454.765 152.49 449.267 152.49C443.77 152.49 439.313 148.034 439.313 142.536C439.313 137.039 443.77 132.583 449.267 132.583C454.765 132.583 459.221 137.039 459.221 142.536ZM447.427 140.442C447.427 141.046 447.921 141.541 448.525 141.541H449.624C451.437 141.541 452.92 143.024 452.92 144.837C452.92 146.485 451.711 147.803 450.173 148.078V149.231C450.173 149.835 449.679 150.33 449.075 150.33C448.47 150.33 447.976 149.835 447.976 149.231V148.078C446.438 147.803 445.229 146.485 445.229 144.837C445.229 144.232 445.724 143.738 446.328 143.738C446.932 143.738 447.427 144.232 447.427 144.837C447.427 145.441 447.921 145.935 448.525 145.935H449.624C450.228 145.935 450.722 145.441 450.722 144.837C450.722 144.232 450.228 143.738 449.624 143.738H448.525C446.712 143.738 445.229 142.255 445.229 140.442C445.229 138.794 446.438 137.476 447.976 137.201V136.048C447.976 135.443 448.47 134.949 449.075 134.949C449.679 134.949 450.173 135.443 450.173 136.048V137.201C451.711 137.476 452.92 138.794 452.92 140.442C452.92 141.046 452.425 141.541 451.821 141.541C451.217 141.541 450.722 141.046 450.722 140.442C450.722 139.838 450.228 139.343 449.624 139.343H448.525C447.921 139.343 447.427 139.838 447.427 140.442Z" fill="#CB2027"/>
<path d="M455.877 130.208V130.208C455.877 128.178 454.237 126.529 452.207 126.518L450.553 126.508M450.553 126.508L452.754 128.716M450.553 126.508L453.164 124.301" stroke="#25316D" stroke-width="1.18314" stroke-linecap="round" stroke-linejoin="round"/>
<path d="M429.848 143.822V143.822C429.848 145.853 431.488 147.502 433.519 147.513L435.172 147.522M435.172 147.522L432.972 145.315M435.172 147.522L432.561 149.73" stroke="#CB2027" stroke-width="1.18314" stroke-linecap="round" stroke-linejoin="round"/>
</g>
<defs>
<clipPath id="clip0_604_4558">
<rect width="552" height="502" fill="white"/>
</clipPath>
<clipPath id="clip1_604_4558">
<rect width="37.8604" height="37.8604" fill="white" transform="translate(340.792 70.5521)"/>
</clipPath>
<clipPath id="clip2_604_4558">
<rect width="34.2602" height="34.2602" fill="white" transform="translate(258.808 33.3542)"/>
</clipPath>
</defs>
</svg>
