<svg width="24" height="24" viewBox="0 0 24 24" fill="none" xmlns="http://www.w3.org/2000/svg">
<path fill-rule="evenodd" clip-rule="evenodd" d="M20.8151 15.4752C20.8151 17.2143 19.5016 18.246 18.7796 18.246C17.8508 18.246 16.7441 17.2143 16.7441 15.4752C16.7442 14.119 17.4385 13.5 18.7796 13.5C20.1207 13.5 20.8151 14.119 20.8151 15.4752Z" stroke="#303030" stroke-linecap="round" stroke-linejoin="round"/>
<path d="M17.357 18.667C16.7134 18.667 15.5825 18.3694 15.5048 19.1747C15.3929 20.3334 15.5048 20.4376 15.5048 20.4376C15.5048 20.4376 16.5346 22.5001 18.7794 22.5001C21.3882 22.5001 22.054 20.4376 22.054 20.4376C22.054 20.4376 22.1658 20.3334 22.054 19.1747C21.9763 18.3694 20.8454 18.667 20.2019 18.667" stroke="#303030" stroke-linecap="round" stroke-linejoin="round"/>
<path fill-rule="evenodd" clip-rule="evenodd" d="M6.05648 3.15407C6.05652 4.61036 4.9566 5.47435 4.35197 5.47435C3.57422 5.47435 2.64746 4.61036 2.64746 3.15407C2.64747 2.01839 3.22894 1.5 4.35197 1.5C5.475 1.5 6.05648 2.01839 6.05648 3.15407Z" stroke="#303030" stroke-linecap="round" stroke-linejoin="round"/>
<path d="M3.16004 5.82676C2.6211 5.82676 1.67407 5.57753 1.60899 6.25185C1.51535 7.2222 1.60903 7.93745 1.60903 7.93745C1.60903 7.93745 2.47135 9.6646 4.3512 9.6646C6.53577 9.6646 7.09333 7.93745 7.09333 7.93745C7.09333 7.93745 7.18698 7.2222 7.09333 6.25185C7.02825 5.57753 6.08127 5.82676 5.54236 5.82676" stroke="#303030" stroke-linecap="round" stroke-linejoin="round"/>
<path d="M7.49342 20.0839V20.0839C6.20725 20.0722 5.17285 19.0223 5.18031 17.7361L5.20045 14.263M5.20045 14.263L6.58729 15.6705M5.20045 14.263L3.78602 15.9054" stroke="#303030" stroke-width="1.4" stroke-linecap="round" stroke-linejoin="round"/>
<path d="M18.9249 7.125V7.125C18.9249 5.83877 17.8844 4.79491 16.5982 4.79074L13.125 4.77946M13.125 4.77946L14.5199 6.17897M13.125 4.77946L14.7802 3.37994" stroke="#303030" stroke-width="1.4" stroke-linecap="round" stroke-linejoin="round"/>
<path d="M11.5179 11.25C11.1938 11.25 10.9286 10.9969 10.9286 10.6875C10.9286 10.3781 11.1938 10.125 11.5179 10.125H12.1071C12.4313 10.125 12.6964 10.3781 12.6964 10.6875C12.6964 10.9969 12.9616 11.25 13.2857 11.25C13.6098 11.25 13.875 10.9969 13.875 10.6875C13.875 9.84375 13.2268 9.16875 12.4018 9.02812V8.4375C12.4018 8.12812 12.1366 7.875 11.8125 7.875C11.4884 7.875 11.2232 8.12812 11.2232 8.4375V9.02812C10.3982 9.16875 9.75 9.84375 9.75 10.6875C9.75 11.6156 10.5455 12.375 11.5179 12.375H12.1071C12.4313 12.375 12.6964 12.6281 12.6964 12.9375C12.6964 13.2469 12.4313 13.5 12.1071 13.5H11.5179C11.1938 13.5 10.9286 13.2469 10.9286 12.9375C10.9286 12.6281 10.6634 12.375 10.3393 12.375C10.0152 12.375 9.75 12.6281 9.75 12.9375C9.75 13.7813 10.3982 14.4563 11.2232 14.5969V15.1875C11.2232 15.4969 11.4884 15.75 11.8125 15.75C12.1366 15.75 12.4018 15.4969 12.4018 15.1875V14.5969C13.2268 14.4563 13.875 13.7813 13.875 12.9375C13.875 12.0094 13.0795 11.25 12.1071 11.25H11.5179Z" fill="#303030"/>
</svg>
