<svg width="64" height="64" viewBox="0 0 64 64" fill="none" xmlns="http://www.w3.org/2000/svg">
<path d="M9.99992 23C11.1999 17.4 10.4999 11.3333 9.99992 8.99997H19C21.5 8.99997 22.5 8.99997 25.5 7.99997C28.5 6.99997 28 8.99997 31.5 8.99997H37.5C39.5 8.99997 44 8.3333 46 7.99997V47H55V52.5C55 55.3 52.3333 57 51 57.5C41.3333 57.3333 20.6 57.1 15 57.5C8 58 8.99992 52.5 8.99992 51.5C8.99992 50.5 8.49992 30 9.99992 23Z" fill="white"/>
<path d="M31.1136 25.2131H28.5128M16.4785 25.2131H20.5M24.6307 25.2131H27.4036" stroke="#25316D" stroke-width="2" stroke-linecap="round"/>
<path d="M37.9349 31H32.783M16.4785 31H22.5M29.5 31H25.7954" stroke="#25316D" stroke-width="2" stroke-linecap="round"/>
<path d="M37.9478 37.5244L32.5 37.5244M16.4785 37.5244H20.2496M29.1228 37.5244L24 37.5244" stroke="#25316D" stroke-width="2" stroke-linecap="round"/>
<path d="M16.9229 18V19.5528L19.2336 18L19.973 19.5528L21.5443 18L22.1121 19.5528L23.855 18L24.1402 19.5528M27.9718 19.5528L27.9692 18L30 19.5528L30.2799 18" stroke="#25316D" stroke-width="2" stroke-linecap="round" stroke-linejoin="round"/>
<path d="M55.1228 47.2454H19" stroke="#25316D" stroke-width="2" stroke-linecap="round"/>
<path d="M51.1228 57H15" stroke="#25316D" stroke-width="2" stroke-linecap="round"/>
<path d="M9 47V52C9 54.7613 11.2387 57 14 57C16.7613 57 19 54.7613 19 52V47" stroke="#25316D" stroke-width="2"/>
<path d="M50 57C52.7614 57 55 54.7613 55 52V47" stroke="#25316D" stroke-width="2"/>
<path d="M9 47C9.12647 39.1696 10.6075 23.4375 10.6075 18.5078C10.6075 15.482 9.30664 8 9.30664 8L11.6102 8.88711C13.0928 9.45808 14.7346 9.45808 16.2172 8.88711V8.88711C17.6998 8.31614 19.3416 8.31614 20.8243 8.88711V8.88711C22.3069 9.45808 23.9487 9.45808 25.4313 8.88711V8.88711C26.9139 8.31614 28.5557 8.31614 30.0383 8.88711V8.88711C31.521 9.45808 33.1732 9.45405 34.6559 8.88308V8.88308C36.1251 8.31728 37.7624 8.31328 39.2316 8.87909V8.87909C40.7258 9.45451 42.3822 9.4444 43.8692 8.85077L46.0004 8C46.0004 17.1793 46.0004 37.8067 46.0004 47" stroke="#25316D" stroke-width="2"/>
<path fill-rule="evenodd" clip-rule="evenodd" d="M45.501 31C39.702 31 35.001 26.299 35.001 20.5C35.001 14.701 39.702 10 45.501 10C51.3 10 56.001 14.701 56.001 20.5C56.001 26.299 51.3 31 45.501 31Z" fill="#CB2027"/>
<path d="M35.001 19.5C35.001 24.7467 39.2543 29 44.501 29C49.7477 29 54.001 24.7467 54.001 19.5C54.001 14.2533 49.7477 10 44.501 10C39.2543 10 35.001 14.2533 35.001 19.5Z" stroke="#25316D" stroke-width="2"/>
<path d="M44.001 18.5714C43.451 18.5714 43.001 18.1536 43.001 17.6429C43.001 17.1321 43.451 16.7143 44.001 16.7143H45.001C45.551 16.7143 46.001 17.1321 46.001 17.6429C46.001 18.1536 46.451 18.5714 47.001 18.5714C47.551 18.5714 48.001 18.1536 48.001 17.6429C48.001 16.25 46.901 15.1357 45.501 14.9036V13.9286C45.501 13.4179 45.051 13 44.501 13C43.951 13 43.501 13.4179 43.501 13.9286V14.9036C42.101 15.1357 41.001 16.25 41.001 17.6429C41.001 19.175 42.351 20.4286 44.001 20.4286H45.001C45.551 20.4286 46.001 20.8464 46.001 21.3571C46.001 21.8679 45.551 22.2857 45.001 22.2857H44.001C43.451 22.2857 43.001 21.8679 43.001 21.3571C43.001 20.8464 42.551 20.4286 42.001 20.4286C41.451 20.4286 41.001 20.8464 41.001 21.3571C41.001 22.75 42.101 23.8643 43.501 24.0964V25.0714C43.501 25.5821 43.951 26 44.501 26C45.051 26 45.501 25.5821 45.501 25.0714V24.0964C46.901 23.8643 48.001 22.75 48.001 21.3571C48.001 19.825 46.651 18.5714 45.001 18.5714H44.001Z" fill="white"/>
</svg>
