<svg width="64" height="64" viewBox="0 0 64 64" fill="none" xmlns="http://www.w3.org/2000/svg">
<mask id="path-1-inside-1_516_2318" fill="white">
<path d="M36 51C36 51.5523 36.4477 52 37 52L54 52C56.7614 52 59 49.7614 59 47V30C59 29.4477 58.5523 29 58 29L54.5546 29C54.2965 29 54.0483 29.0998 53.8621 29.2786L49.5776 33.3917C48.4167 34.5062 46.5833 34.5062 45.4224 33.3917L41.1379 29.2786C40.9517 29.0998 40.7035 29 40.4454 29H37C36.4477 29 36 29.4477 36 30V33.4454C36 34.2198 35.7005 34.9643 35.1642 35.523L31.051 39.8075C30.6796 40.1944 30.6796 40.8056 31.051 41.1925L35.1642 45.477C35.7005 46.0357 36 46.7802 36 47.5546V51Z"/>
<path d="M35 6C35 5.4477 34.5523 5 34 5H17C14.2386 5 12 7.2386 12 10L12 27C12 27.5523 12.4477 28 13 28H16.4454C16.7035 28 16.9517 27.9002 17.1379 27.7214L21.4224 23.6083C22.5833 22.4938 24.4167 22.4938 25.5776 23.6083L29.8621 27.7214C30.0483 27.9002 30.2965 28 30.5546 28H34C34.5523 28 35 27.5523 35 27V23.5546C35 22.7802 35.2995 22.0357 35.8358 21.477L39.949 17.1925C40.3204 16.8056 40.3204 16.1944 39.949 15.8075L35.8358 11.523C35.2995 10.9643 35 10.2198 35 9.4454L35 6Z"/>
<path d="M58 28C58.5523 28 59 27.5523 59 27L59 10C59 7.2386 56.7614 5 54 5L37 5C36.4477 5 36 5.4477 36 6L36 9.4454C36 9.7035 36.0998 9.9517 36.2786 10.1379L40.3917 14.4224C41.5062 15.5833 41.5062 17.4167 40.3917 18.5776L36.2786 22.8621C36.0998 23.0483 36 23.2965 36 23.5546V27C36 27.5523 36.4477 28 37 28H40.4454C41.2198 28 41.9643 28.2995 42.523 28.8358L46.8075 32.949C47.1944 33.3204 47.8056 33.3204 48.1925 32.949L52.477 28.8358C53.0357 28.2995 53.7802 28 54.5546 28L58 28Z"/>
</mask>
<path d="M36 51C36 51.5523 36.4477 52 37 52L54 52C56.7614 52 59 49.7614 59 47V30C59 29.4477 58.5523 29 58 29L54.5546 29C54.2965 29 54.0483 29.0998 53.8621 29.2786L49.5776 33.3917C48.4167 34.5062 46.5833 34.5062 45.4224 33.3917L41.1379 29.2786C40.9517 29.0998 40.7035 29 40.4454 29H37C36.4477 29 36 29.4477 36 30V33.4454C36 34.2198 35.7005 34.9643 35.1642 35.523L31.051 39.8075C30.6796 40.1944 30.6796 40.8056 31.051 41.1925L35.1642 45.477C35.7005 46.0357 36 46.7802 36 47.5546V51Z" fill="white"/>
<path d="M35 6C35 5.4477 34.5523 5 34 5H17C14.2386 5 12 7.2386 12 10L12 27C12 27.5523 12.4477 28 13 28H16.4454C16.7035 28 16.9517 27.9002 17.1379 27.7214L21.4224 23.6083C22.5833 22.4938 24.4167 22.4938 25.5776 23.6083L29.8621 27.7214C30.0483 27.9002 30.2965 28 30.5546 28H34C34.5523 28 35 27.5523 35 27V23.5546C35 22.7802 35.2995 22.0357 35.8358 21.477L39.949 17.1925C40.3204 16.8056 40.3204 16.1944 39.949 15.8075L35.8358 11.523C35.2995 10.9643 35 10.2198 35 9.4454L35 6Z" fill="white"/>
<path d="M58 28C58.5523 28 59 27.5523 59 27L59 10C59 7.2386 56.7614 5 54 5L37 5C36.4477 5 36 5.4477 36 6L36 9.4454C36 9.7035 36.0998 9.9517 36.2786 10.1379L40.3917 14.4224C41.5062 15.5833 41.5062 17.4167 40.3917 18.5776L36.2786 22.8621C36.0998 23.0483 36 23.2965 36 23.5546V27C36 27.5523 36.4477 28 37 28H40.4454C41.2198 28 41.9643 28.2995 42.523 28.8358L46.8075 32.949C47.1944 33.3204 47.8056 33.3204 48.1925 32.949L52.477 28.8358C53.0357 28.2995 53.7802 28 54.5546 28L58 28Z" fill="white"/>
<path d="M53.8621 29.2786L55.2474 30.7212L55.2472 30.7214L53.8621 29.2786ZM49.5776 33.3917L48.1925 31.9489L48.1925 31.9489L49.5776 33.3917ZM45.4224 33.3917L46.8075 31.9489L46.8075 31.9489L45.4224 33.3917ZM41.1379 29.2786L39.7528 30.7214L39.7526 30.7212L41.1379 29.2786ZM35.1642 35.523L36.607 36.908L36.607 36.9081L35.1642 35.523ZM31.051 39.8075L29.6082 38.4225L29.6082 38.4224L31.051 39.8075ZM31.051 41.1925L29.6082 42.5776L29.6082 42.5775L31.051 41.1925ZM35.1642 45.477L36.607 44.0919L36.607 44.092L35.1642 45.477ZM17.1379 27.7214L15.7526 26.2788L15.7528 26.2786L17.1379 27.7214ZM21.4224 23.6083L22.8075 25.0511L22.8075 25.0511L21.4224 23.6083ZM25.5776 23.6083L24.1925 25.0511L24.1925 25.0511L25.5776 23.6083ZM29.8621 27.7214L31.2472 26.2786L31.2474 26.2788L29.8621 27.7214ZM35.8358 21.477L34.393 20.092L34.393 20.0919L35.8358 21.477ZM39.949 17.1925L41.3918 18.5775L41.3918 18.5776L39.949 17.1925ZM39.949 15.8075L41.3918 14.4224L41.3918 14.4225L39.949 15.8075ZM35.8358 11.523L34.393 12.9081L34.393 12.908L35.8358 11.523ZM36.2786 10.1379L37.7212 8.75264L37.7214 8.75284L36.2786 10.1379ZM40.3917 14.4224L38.9489 15.8075L38.9489 15.8075L40.3917 14.4224ZM40.3917 18.5776L38.9489 17.1925L38.9489 17.1925L40.3917 18.5776ZM36.2786 22.8621L37.7214 24.2472L37.7212 24.2474L36.2786 22.8621ZM42.523 28.8358L43.908 27.393L43.9081 27.393L42.523 28.8358ZM46.8075 32.949L45.4225 34.3918L45.4224 34.3918L46.8075 32.949ZM48.1925 32.949L49.5776 34.3918L49.5775 34.3918L48.1925 32.949ZM52.477 28.8358L51.0919 27.393L51.092 27.393L52.477 28.8358ZM38 51C38 50.4477 37.5523 50 37 50V54C35.3431 54 34 52.6568 34 51H38ZM37 50L54 50V54L37 54V50ZM54 50C55.6568 50 57 48.6568 57 47H61C61 50.866 57.866 54 54 54V50ZM57 47V30H61V47H57ZM57 30C57 30.5523 57.4477 31 58 31V27C59.6569 27 61 28.3431 61 30H57ZM58 31L54.5546 31V27L58 27V31ZM54.5546 31C54.8126 31 55.0608 30.9003 55.2474 30.7212L52.4768 27.836C53.0358 27.2993 53.7804 27 54.5546 27V31ZM55.2472 30.7214L50.9627 34.8345L48.1925 31.9489L52.477 27.8358L55.2472 30.7214ZM50.9627 34.8345C49.0279 36.6919 45.9721 36.6919 44.0373 34.8345L46.8075 31.9489C47.1945 32.3205 47.8055 32.3205 48.1925 31.9489L50.9627 34.8345ZM44.0373 34.8345L39.7528 30.7214L42.523 27.8358L46.8075 31.9489L44.0373 34.8345ZM39.7526 30.7212C39.9392 30.9003 40.1874 31 40.4454 31V27C41.2196 27 41.9642 27.2993 42.5232 27.836L39.7526 30.7212ZM40.4454 31H37V27H40.4454V31ZM37 31C37.5523 31 38 30.5523 38 30H34C34 28.3431 35.3431 27 37 27V31ZM38 30V33.4454H34V30H38ZM38 33.4454C38 34.7361 37.5008 35.9769 36.607 36.908L33.7214 34.138C33.9002 33.9517 34 33.7035 34 33.4454H38ZM36.607 36.9081L32.4938 41.1926L29.6082 38.4224L33.7214 34.1379L36.607 36.9081ZM32.4938 41.1925C32.8653 40.8055 32.8653 40.1945 32.4938 39.8075L29.6082 42.5775C28.4939 41.4167 28.4939 39.5833 29.6082 38.4225L32.4938 41.1925ZM32.4938 39.8074L36.607 44.0919L33.7214 46.8621L29.6082 42.5776L32.4938 39.8074ZM36.607 44.092C37.5008 45.0231 38 46.2639 38 47.5546H34C34 47.2965 33.9002 47.0483 33.7214 46.862L36.607 44.092ZM38 47.5546V51H34V47.5546H38ZM33 6C33 6.55227 33.4477 7 34 7V3C35.6569 3 37 4.34313 37 6H33ZM34 7H17V3H34V7ZM17 7C15.3432 7 14 8.34317 14 10H10C10 6.13403 13.134 3 17 3V7ZM14 10L14 27H10L10 10H14ZM14 27C14 26.4477 13.5523 26 13 26V30C11.3432 30 10 28.6569 10 27H14ZM13 26H16.4454V30H13V26ZM16.4454 26C16.1874 26 15.9392 26.0997 15.7526 26.2788L18.5232 29.164C17.9642 29.7007 17.2196 30 16.4454 30V26ZM15.7528 26.2786L20.0373 22.1655L22.8075 25.0511L18.523 29.1642L15.7528 26.2786ZM20.0373 22.1655C21.9721 20.3081 25.0279 20.3081 26.9627 22.1655L24.1925 25.0511C23.8055 24.6795 23.1945 24.6795 22.8075 25.0511L20.0373 22.1655ZM26.9627 22.1655L31.2472 26.2786L28.477 29.1642L24.1925 25.0511L26.9627 22.1655ZM31.2474 26.2788C31.0608 26.0997 30.8126 26 30.5546 26V30C29.7804 30 29.0358 29.7007 28.4768 29.164L31.2474 26.2788ZM30.5546 26H34V30H30.5546V26ZM34 26C33.4477 26 33 26.4477 33 27H37C37 28.6569 35.6569 30 34 30V26ZM33 27V23.5546H37V27H33ZM33 23.5546C33 22.2639 33.4992 21.0231 34.393 20.092L37.2786 22.862C37.0998 23.0483 37 23.2965 37 23.5546H33ZM34.393 20.0919L38.5062 15.8074L41.3918 18.5776L37.2786 22.8621L34.393 20.0919ZM38.5062 15.8075C38.1347 16.1945 38.1347 16.8055 38.5062 17.1925L41.3918 14.4225C42.5061 15.5833 42.5061 17.4167 41.3918 18.5775L38.5062 15.8075ZM38.5062 17.1926L34.393 12.9081L37.2786 10.1379L41.3918 14.4224L38.5062 17.1926ZM34.393 12.908C33.4992 11.9769 33 10.7361 33 9.4454H37C37 9.70351 37.0998 9.95174 37.2786 10.138L34.393 12.908ZM33 9.4454L33 6H37L37 9.4454H33ZM58 26C57.4477 26 57 26.4477 57 27H61C61 28.6569 59.6569 30 58 30V26ZM57 27L57 10H61L61 27H57ZM57 10C57 8.34317 55.6568 7 54 7V3C57.866 3 61 6.13403 61 10H57ZM54 7L37 7V3L54 3V7ZM37 7C37.5523 7 38 6.55227 38 6H34C34 4.34313 35.3431 3 37 3V7ZM38 6L38 9.4454H34L34 6H38ZM38 9.4454C38 9.18744 37.9003 8.93917 37.7212 8.75264L34.836 11.5232C34.2993 10.9642 34 10.2196 34 9.4454H38ZM37.7214 8.75284L41.8345 13.0373L38.9489 15.8075L34.8358 11.523L37.7214 8.75284ZM41.8345 13.0373C43.6919 14.9721 43.6919 18.0279 41.8345 19.9627L38.9489 17.1925C39.3205 16.8055 39.3205 16.1945 38.9489 15.8075L41.8345 13.0373ZM41.8345 19.9627L37.7214 24.2472L34.8358 21.477L38.9489 17.1925L41.8345 19.9627ZM37.7212 24.2474C37.9003 24.0608 38 23.8126 38 23.5546H34C34 22.7804 34.2993 22.0358 34.836 21.4768L37.7212 24.2474ZM38 23.5546V27H34V23.5546H38ZM38 27C38 26.4477 37.5523 26 37 26V30C35.3431 30 34 28.6569 34 27H38ZM37 26H40.4454V30H37V26ZM40.4454 26C41.7361 26 42.9769 26.4992 43.908 27.393L41.138 30.2786C40.9517 30.0998 40.7035 30 40.4454 30V26ZM43.9081 27.393L48.1926 31.5062L45.4224 34.3918L41.1379 30.2786L43.9081 27.393ZM48.1925 31.5062C47.8055 31.1347 47.1945 31.1347 46.8075 31.5062L49.5775 34.3918C48.4167 35.5061 46.5833 35.5061 45.4225 34.3918L48.1925 31.5062ZM46.8074 31.5062L51.0919 27.393L53.8621 30.2786L49.5776 34.3918L46.8074 31.5062ZM51.092 27.393C52.0231 26.4992 53.2639 26 54.5546 26V30C54.2965 30 54.0483 30.0998 53.862 30.2786L51.092 27.393ZM54.5546 26L58 26V30L54.5546 30V26Z" fill="#25316D" mask="url(#path-1-inside-1_516_2318)"/>
<path d="M6 35C4.89543 35 4 35.8954 4 37L4 54C4 57.3137 6.6863 60 10 60L27 60C28.1046 60 29 59.1046 29 58V54.5546C29 54.0383 28.8003 53.542 28.4428 53.1696L24.3297 48.8851C23.5867 48.1111 23.5867 46.8889 24.3297 46.1149L28.4428 41.8304C28.8003 41.458 29 40.9617 29 40.4454V37C29 35.8954 28.1046 35 27 35H23.5546C23.0383 35 22.542 34.8003 22.1696 34.4428L17.8851 30.3297C17.1111 29.5867 15.8889 29.5867 15.1149 30.3297L10.8304 34.4428C10.458 34.8003 9.96169 35 9.44538 35H6Z" fill="#CB2027"/>
</svg>
