<svg width="64" height="64" viewBox="0 0 64 64" fill="none" xmlns="http://www.w3.org/2000/svg">
<g clip-path="url(#clip0_518_3933)">
<path d="M37 11C37 10.4477 37.4477 10 38 10H55C57.7614 10 60 12.2386 60 15V32C60 32.5523 59.5523 33 59 33H55.5546C55.2965 33 55.0483 32.9002 54.8621 32.7214L50.5776 28.6083C49.4167 27.4938 47.5833 27.4938 46.4224 28.6083L42.1379 32.7214C41.9517 32.9002 41.7035 33 41.4454 33H38C37.4477 33 37 32.5523 37 32V28.5546C37 27.7802 36.7005 27.0357 36.1642 26.477L32.051 22.1925C31.6796 21.8056 31.6796 21.1944 32.051 20.8075L36.1642 16.523C36.7005 15.9643 37 15.2198 37 14.4454V11Z" fill="white" stroke="#25316D" stroke-width="2"/>
<path d="M34 58C34 58.5523 33.5523 59 33 59H16C13.2386 59 11 56.7614 11 54V37C11 36.4477 11.4477 36 12 36H15.4454C15.7035 36 15.9517 36.0998 16.1379 36.2786L20.4224 40.3917C21.5833 41.5062 23.4167 41.5062 24.5776 40.3917L28.8621 36.2786C29.0483 36.0998 29.2965 36 29.5546 36H33C33.5523 36 34 36.4477 34 37V40.4454C34 41.2198 34.2995 41.9643 34.8358 42.523L38.949 46.8075C39.3204 47.1944 39.3204 47.8056 38.949 48.1925L34.8358 52.477C34.2995 53.0357 34 53.7802 34 54.5546V58Z" fill="white" stroke="#25316D" stroke-width="2"/>
<path d="M59 36C59.5523 36 60 36.4477 60 37V54C60 56.7614 57.7614 59 55 59H38C37.4477 59 37 58.5523 37 58V54.5546C37 54.2965 37.0998 54.0483 37.2786 53.8621L41.3917 49.5776C42.5062 48.4167 42.5062 46.5833 41.3917 45.4224L37.2786 41.1379C37.0998 40.9517 37 40.7035 37 40.4454V37C37 36.4477 37.4477 36 38 36H41.4454C42.2198 36 42.9643 35.7005 43.523 35.1642L47.8075 31.051C48.1944 30.6796 48.8056 30.6796 49.1925 31.051L53.477 35.1642C54.0357 35.7005 54.7802 36 55.5546 36H59Z" fill="white" stroke="#25316D" stroke-width="2"/>
<path d="M7 29C5.89543 29 5 28.1046 5 27L5 10C5 6.68629 7.6863 4 11 4L28 4C29.1046 4 30 4.89543 30 6V9.44538C30 9.96169 29.8003 10.458 29.4428 10.8304L25.3297 15.1149C24.5867 15.8889 24.5867 17.1111 25.3297 17.8851L29.4428 22.1696C29.8003 22.542 30 23.0383 30 23.5546V27C30 28.1046 29.1046 29 28 29H24.5546C24.0383 29 23.542 29.1997 23.1696 29.5572L18.8851 33.6703C18.1111 34.4133 16.8889 34.4133 16.1149 33.6703L11.8304 29.5572C11.458 29.1997 10.9617 29 10.4454 29H7Z" fill="#CB2027"/>
</g>
<defs>
<clipPath id="clip0_518_3933">
<rect width="56" height="56" fill="white" transform="translate(5 4)"/>
</clipPath>
</defs>
</svg>
