<svg width="64" height="64" viewBox="0 0 64 64" fill="none" xmlns="http://www.w3.org/2000/svg">
<path d="M31.5837 39.9998C30.2134 39.9998 28.9202 39.6859 27.6914 39.0534C26.465 38.4222 25.4387 37.5515 24.6047 36.4321C23.8387 35.3111 22.8745 34.415 21.7166 33.7566C21.2153 33.4716 20.881 33.0439 20.7792 32.7244C20.7324 32.5774 20.7492 32.5041 20.7571 32.4818C20.7571 32.4816 20.7572 32.4814 20.7573 32.4812C20.7612 32.4701 20.7837 32.4055 20.9366 32.3216C21.7049 31.8999 22.6483 31.5146 23.7777 31.1725C26.5597 30.3301 29.16 29.9165 31.5837 29.9165C34.0074 29.9165 36.6078 30.3301 39.3897 31.1725C40.5314 31.5182 41.4828 31.9082 42.2555 32.3352C42.4039 32.4172 42.426 32.4806 42.4303 32.4929L42.4305 32.4934C42.439 32.5178 42.4552 32.5929 42.4089 32.7397C42.3084 33.0577 41.979 33.4788 41.4883 33.7525C40.3037 34.4131 39.3227 35.3153 38.5521 36.4478C37.7599 37.5994 36.761 38.4713 35.5469 39.0783C34.32 39.6918 33.0035 39.9998 31.5837 39.9998Z" fill="#CB2027" stroke="#25316D" stroke-width="2"/>
<path d="M20.9563 40.9452L20.9739 40.9725L20.9934 40.9986C22.2506 42.6894 23.8071 44.0184 25.6559 44.9754C27.5102 45.9353 29.4905 46.4165 31.5833 46.4165C33.713 46.4165 35.7138 45.9369 37.5712 44.9754C39.4186 44.0191 40.956 42.6903 42.1738 40.9981C42.6195 40.4182 43.1314 39.9694 43.7097 39.6389C44.273 39.317 44.8382 39.1665 45.4188 39.1665H53.3333C54.4509 39.1665 55.3404 39.5336 56.07 40.2632C56.7996 40.9928 57.1667 41.8822 57.1667 42.9998V52.1297C52.618 55.024 46.7987 55.024 42.25 52.1297V50.0604V48.1172L40.6688 49.2467C39.2347 50.271 37.84 51.2466 36.3829 51.7144C34.8538 52.2052 33.2554 52.4519 31.5833 52.4519C29.9581 52.4519 28.3719 52.1971 26.8211 51.6865C25.3392 51.1985 23.9314 50.2102 22.4979 49.1863L20.9167 48.0568V50V52.1297C16.368 55.024 10.5487 55.024 6 52.1297V42.9998C6 41.8891 6.37214 41.002 7.11925 40.2708C7.87815 39.528 8.76461 39.1665 9.83333 39.1665H17.7479C18.3784 39.1665 18.9771 39.322 19.5581 39.6448C20.1423 39.9694 20.6038 40.4005 20.9563 40.9452Z" fill="white" stroke="#25316D" stroke-width="2"/>
<path fill-rule="evenodd" clip-rule="evenodd" d="M18 25.8266C18.0001 30.9565 14.1283 34 12 34C9.26224 34 6 30.9565 6 25.8266C6.00003 21.8261 8.04685 20 12 20C15.9532 20 18 21.8261 18 25.8266Z" fill="white" stroke="#25316D" stroke-width="2" stroke-linecap="round" stroke-linejoin="round"/>
<path fill-rule="evenodd" clip-rule="evenodd" d="M57 25.8266C57.0001 30.9565 53.1283 34 51 34C48.2622 34 45 30.9565 45 25.8266C45 21.8261 47.0468 20 51 20C54.9532 20 57 21.8261 57 25.8266Z" fill="white" stroke="#25316D" stroke-width="2" stroke-linecap="round" stroke-linejoin="round"/>
<path fill-rule="evenodd" clip-rule="evenodd" d="M38 16.8266C38.0001 21.9565 34.1283 25 32 25C29.2622 25 26 21.9565 26 16.8266C26 12.8261 28.0468 11 32 11C35.9532 11 38 12.8261 38 16.8266Z" fill="white" stroke="#25316D" stroke-width="2" stroke-linecap="round" stroke-linejoin="round"/>
<rect x="9" y="44" width="3" height="4" fill="#CB2027"/>
</svg>
