<svg width="32" height="32" viewBox="0 0 32 32" fill="none" xmlns="http://www.w3.org/2000/svg">
<rect x="0.5" y="0.5" width="31" height="31" rx="7.5" fill="#E2EEFF"/>
<mask id="mask0_692_4032" style="mask-type:alpha" maskUnits="userSpaceOnUse" x="6" y="6" width="20" height="20">
<rect x="6" y="6" width="20" height="20" fill="#D9D9D9"/>
</mask>
<g mask="url(#mask0_692_4032)">
<path d="M22.625 23.5C20.8333 23.5 19.0868 23.1007 17.3854 22.3021C15.684 21.5035 14.1771 20.4479 12.8646 19.1354C11.5521 17.8229 10.4965 16.316 9.69792 14.6146C8.89931 12.9132 8.5 11.1667 8.5 9.375C8.5 9.125 8.58333 8.91667 8.75 8.75C8.91667 8.58333 9.125 8.5 9.375 8.5H12.75C12.9444 8.5 13.1181 8.5625 13.2708 8.6875C13.4236 8.8125 13.5139 8.97222 13.5417 9.16667L14.0833 12.0833C14.1111 12.2778 14.1076 12.4549 14.0729 12.6146C14.0382 12.7743 13.9583 12.9167 13.8333 13.0417L11.8125 15.0833C12.3958 16.0833 13.1285 17.0208 14.0104 17.8958C14.8924 18.7708 15.8611 19.5278 16.9167 20.1667L18.875 18.2083C19 18.0833 19.1632 17.9896 19.3646 17.9271C19.566 17.8646 19.7639 17.8472 19.9583 17.875L22.8333 18.4583C23.0278 18.5 23.1875 18.5938 23.3125 18.7396C23.4375 18.8854 23.5 19.0556 23.5 19.25V22.625C23.5 22.875 23.4167 23.0833 23.25 23.25C23.0833 23.4167 22.875 23.5 22.625 23.5ZM11.0208 13.5L12.3958 12.125L12.0417 10.1667H10.1875C10.2569 10.7361 10.3542 11.2986 10.4792 11.8542C10.6042 12.4097 10.7847 12.9583 11.0208 13.5ZM21.8333 21.7917V19.9583L19.875 19.5625L18.4792 20.9583C19.0208 21.1944 19.5729 21.3819 20.1354 21.5208C20.6979 21.6597 21.2639 21.75 21.8333 21.7917Z" fill="#303030"/>
</g>
<rect x="0.5" y="0.5" width="31" height="31" rx="7.5" stroke="#686868"/>
</svg>
