<svg width="509" height="472" viewBox="0 0 509 472" fill="none" xmlns="http://www.w3.org/2000/svg">
<g clip-path="url(#clip0_249_13934)">
<path opacity="0.4" fill-rule="evenodd" clip-rule="evenodd" d="M268.5 1.5002C387.091 33.0243 592 -47.5 464.09 221C448.168 254.421 462.657 372.045 456.135 409.999C449.507 448.569 422.983 450.635 422.983 450.635H78.4998C78.4998 450.635 -9.04197 436.499 78.5012 320.499C128.277 254.543 27.6199 128.148 61.5001 68.9988C73.0886 48.7674 150 -29.9996 268.5 1.5002Z" fill="white"/>
<path d="M86.2857 66.6521C85.8816 66.6521 85.4776 66.6521 85.0735 66.6965C81.4367 62.6608 74.8816 60 67.4286 60C59.9306 60 53.3755 62.7052 49.7388 66.7408C42.0163 67.406 36 71.8851 36 77.2955C36 83.1937 43.049 87.9389 51.7143 87.9389C57.0571 88.0719 60.9633 87.9832 63.7918 87.7171C64.9592 87.8502 66.1714 87.9389 67.4286 87.9389C69.2245 87.9389 70.9306 87.8058 72.5918 87.4954C75.7347 87.7615 80.1796 87.9389 86.2857 87.9389C94.951 87.9389 102 83.1937 102 77.2955C102 71.3973 94.951 66.6521 86.2857 66.6521Z" fill="white"/>
<path d="M48.619 95.0885C48.4293 95.0885 48.2395 95.0885 48.0497 95.1091C46.3415 93.2354 43.2626 92 39.7619 92C36.2401 92 33.1612 93.256 31.4531 95.1297C27.8259 95.4385 25 97.5181 25 100.03C25 102.769 28.3109 104.972 32.381 104.972C34.8905 105.033 36.7252 104.992 38.0537 104.869C38.602 104.93 39.1714 104.972 39.7619 104.972C40.6054 104.972 41.4068 104.91 42.1871 104.766C43.6633 104.889 45.751 104.972 48.619 104.972C52.6891 104.972 56 102.769 56 100.03C56 97.2916 52.6891 95.0885 48.619 95.0885Z" fill="white"/>
<path d="M490.619 161.088C490.429 161.088 490.239 161.088 490.05 161.109C488.341 159.235 485.263 158 481.762 158C478.24 158 475.161 159.256 473.453 161.13C469.826 161.439 467 163.518 467 166.03C467 168.769 470.311 170.972 474.381 170.972C476.89 171.033 478.725 170.992 480.054 170.869C480.602 170.93 481.171 170.972 481.762 170.972C482.605 170.972 483.407 170.91 484.187 170.766C485.663 170.889 487.751 170.972 490.619 170.972C494.689 170.972 498 168.769 498 166.03C498 163.292 494.689 161.088 490.619 161.088Z" fill="white"/>
<path d="M487.571 11.7515C487.278 11.7515 486.984 11.7515 486.69 11.7832C484.045 8.9006 479.278 7 473.857 7C468.404 7 463.637 8.93228 460.992 11.8149C455.376 12.29 451 15.4894 451 19.3539C451 23.5669 456.127 26.9563 462.429 26.9563C466.314 27.0514 469.155 26.988 471.212 26.798C472.061 26.893 472.943 26.9563 473.857 26.9563C475.163 26.9563 476.404 26.8613 477.612 26.6396C479.898 26.8296 483.131 26.9563 487.571 26.9563C493.873 26.9563 499 23.5669 499 19.3539C499 15.1409 493.873 11.7515 487.571 11.7515Z" fill="white"/>
<path d="M318.949 128H295.5M187 128H201.5M210 128H250.5M260.5 128H285.5" stroke="#25316D" stroke-width="2" stroke-linecap="round"/>
<path d="M331.805 165H322.5M187 165H230M238 165H273.5M287.5 165H317" stroke="#25316D" stroke-width="2" stroke-linecap="round"/>
<path d="M380.449 202H334M187 202H211.181M321.5 202H271M260.5 202H223.272" stroke="#25316D" stroke-width="2" stroke-linecap="round"/>
<path d="M380.565 239H316.5M187 239H221M243.5 239H262.5M301 239H276.5" stroke="#25316D" stroke-width="2" stroke-linecap="round"/>
<path d="M191 81V95L211.833 81L218.5 95L232.667 81L237.786 95L253.5 81L256.071 95M274.357 95L274.333 81L292.643 95L295.167 81L310.929 95L316 81L329.214 95" stroke="#25316D" stroke-width="2" stroke-linecap="round" stroke-linejoin="round"/>
<path d="M364.753 357.753H39.0723" stroke="#25316D" stroke-width="2" stroke-linecap="round"/>
<path d="M456.928 403.84C456.928 429.293 436.293 449.927 410.841 449.927C385.389 449.927 364.754 429.293 364.754 403.84V357.753" stroke="#25316D" stroke-width="2"/>
<path d="M85.1592 449.927C59.7061 449.927 39.0723 429.293 39.0723 403.84V357.753" stroke="#25316D" stroke-width="2"/>
<path d="M41.371 388.19L41.5818 359H49.3117V409.363C49.6997 438.38 79.5 448 79.5 448C79.5 448 73.7066 446.928 65.5 443.5C54.5 438.905 46.7238 427.668 43.2417 419.866C39.7631 412.065 41.371 388.19 41.371 388.19Z" fill="#DAE8F1"/>
<path d="M88.5 452H404.5C422.167 454.333 457.5 445.6 457.5 392C457.5 338.4 457.5 103.333 457.5 7L431.241 17.3276C421.755 21.0582 411.22 21.1218 401.69 17.506L388.544 12.5183C379.174 8.96306 368.826 8.96306 359.456 12.5182L346.044 17.6067C336.674 21.1619 326.326 21.1619 316.956 17.6068L303.544 12.5183C294.174 8.96306 283.826 8.96306 274.456 12.5182L261.044 17.6067C251.674 21.1619 241.326 21.1619 231.956 17.6068L218.544 12.5183C209.174 8.96306 198.826 8.96306 189.456 12.5182L176.044 17.6067C166.674 21.1619 156.326 21.1619 146.956 17.6068L119 7C119 7 131 75 131 102.5C131 147.304 120.167 286.833 119 358" stroke="#25316D" stroke-width="2"/>
<circle cx="205.02" cy="299.918" r="6.15656" fill="#CB2027"/>
<path d="M204.876 313.066C197.402 313.066 191.343 307.007 191.343 299.533C191.343 292.059 197.402 286 204.876 286C212.35 286 218.409 292.059 218.409 299.533C218.409 307.007 212.35 313.066 204.876 313.066ZM204.876 313.066L213.09 326.212C214.014 327.69 216.3 326.94 216.168 325.202L215.836 320.802C215.735 319.461 217.181 318.557 218.342 319.236L222.151 321.464C223.655 322.343 225.331 320.618 224.408 319.14L216.509 306.452M204.876 313.066L196.662 326.212C195.738 327.69 193.453 326.94 193.584 325.202L193.916 320.802C194.017 319.461 192.571 318.557 191.411 319.236L187.601 321.464C186.097 322.343 184.421 320.618 185.344 319.14L193.243 306.452M209.387 299.533C209.387 302.024 207.367 304.044 204.876 304.044C202.385 304.044 200.365 302.024 200.365 299.533C200.365 297.042 202.385 295.022 204.876 295.022C207.367 295.022 209.387 297.042 209.387 299.533Z" stroke="#25316D" stroke-width="2" stroke-linecap="round" stroke-linejoin="round"/>
<path d="M252.232 289.591C248.633 291.549 245.884 295.192 244.442 298.959M243.163 303.618C242.333 309.839 244.717 316.034 249.287 320.322M255.632 288.203C261.857 285.973 269.565 286.79 274.74 291.103C277.213 293.16 279.015 296.084 280.041 299.108M281.121 302.429C281.669 306.369 281.195 310.706 279.426 314.349C274.841 323.841 262.935 329.021 250.9 321.859M250.231 299.81C254.309 298.253 258.078 295.905 262.204 294.462M262.425 294.433C265.838 296.103 271.045 297.773 274.353 299.64M250.146 300.32C250.155 305.328 252.155 310.394 255.297 314.242" stroke="#25316D" stroke-width="2" stroke-miterlimit="1.5" stroke-linecap="round" stroke-linejoin="round"/>
<path d="M257.878 305.749L261.877 309.314L267.974 302.369" stroke="#CB2027" stroke-width="2" stroke-miterlimit="1.5" stroke-linecap="round" stroke-linejoin="round"/>
<path d="M257.62 316.308C259.236 317.27 260.178 318.006 261.947 318.657M262.335 318.827C267.759 316.931 271.546 312.714 273.337 307.196C273.982 305.187 274.398 302.131 274.492 300.037" stroke="#25316D" stroke-width="2" stroke-miterlimit="1.5" stroke-linecap="round" stroke-linejoin="round"/>
<mask id="path-21-inside-1_249_13934" fill="white">
<rect x="299" y="322" width="38" height="5" rx="1"/>
</mask>
<rect x="299" y="322" width="38" height="5" rx="1" stroke="#25316D" stroke-width="4" stroke-linecap="round" stroke-linejoin="round" mask="url(#path-21-inside-1_249_13934)"/>
<path d="M300 302V299.353L318 288.177L336 299.353V302H300Z" stroke="#25316D" stroke-width="2" stroke-linecap="round" stroke-linejoin="round"/>
<path d="M303 309V321" stroke="#25316D" stroke-width="2" stroke-linecap="round" stroke-linejoin="round"/>
<path d="M309 309V321" stroke="#25316D" stroke-width="2" stroke-linecap="round" stroke-linejoin="round"/>
<path d="M315 309V321" stroke="#25316D" stroke-width="2" stroke-linecap="round" stroke-linejoin="round"/>
<path d="M321 309V321" stroke="#25316D" stroke-width="2" stroke-linecap="round" stroke-linejoin="round"/>
<path d="M327 309V321" stroke="#25316D" stroke-width="2" stroke-linecap="round" stroke-linejoin="round"/>
<path d="M332 309V321" stroke="#25316D" stroke-width="2" stroke-linecap="round" stroke-linejoin="round"/>
<rect x="300" y="305" width="36" height="4" rx="1" fill="#CB2027"/>
<circle cx="318" cy="296" r="3" fill="#CB2027"/>
<path d="M365.865 89.5C365.865 126.779 396.086 157 433.365 157C470.644 157 500.865 126.779 500.865 89.5C500.865 52.2208 470.644 22 433.365 22C396.086 22 365.865 52.2208 365.865 89.5Z" fill="white" stroke="#25316D" stroke-width="2"/>
<path d="M432.549 67.9271C432.848 67.0057 434.152 67.0057 434.451 67.9271L439.899 84.693C440.033 85.105 440.416 85.384 440.85 85.384H458.478C459.447 85.384 459.85 86.6236 459.066 87.193L444.804 97.555C444.454 97.8096 444.307 98.261 444.441 98.673L449.889 115.439C450.188 116.36 449.133 117.126 448.35 116.557L434.088 106.195C433.737 105.94 433.263 105.94 432.912 106.195L418.65 116.557C417.867 117.126 416.812 116.36 417.111 115.439L422.559 98.673C422.693 98.261 422.546 97.8096 422.196 97.555L407.934 87.193C407.15 86.6236 407.553 85.384 408.522 85.384H426.15C426.584 85.384 426.967 85.105 427.101 84.693L432.549 67.9271Z" fill="#58B9FD"/>
<path d="M456.049 58.927C456.348 58.0057 457.652 58.0057 457.951 58.9271L459.021 62.2188C459.155 62.6309 459.538 62.9098 459.972 62.9098H463.433C464.402 62.9098 464.804 64.1494 464.021 64.7188L461.22 66.7533C460.87 67.0079 460.723 67.4593 460.857 67.8713L461.927 71.1631C462.226 72.0844 461.172 72.8506 460.388 72.2812L457.588 70.2467C457.237 69.9921 456.763 69.9921 456.412 70.2467L453.612 72.2812C452.828 72.8506 451.774 72.0844 452.073 71.1631L453.143 67.8713C453.277 67.4593 453.13 67.0079 452.78 66.7533L449.979 64.7188C449.196 64.1494 449.598 62.9098 450.567 62.9098H454.028C454.462 62.9098 454.845 62.6309 454.979 62.2188L456.049 58.927Z" fill="#58B9FD"/>
<path d="M410.049 58.927C410.348 58.0057 411.652 58.0057 411.951 58.9271L413.021 62.2188C413.155 62.6309 413.538 62.9098 413.972 62.9098H417.433C418.402 62.9098 418.804 64.1494 418.021 64.7188L415.22 66.7533C414.87 67.0079 414.723 67.4593 414.857 67.8713L415.927 71.1631C416.226 72.0844 415.172 72.8506 414.388 72.2812L411.588 70.2467C411.237 69.9921 410.763 69.9921 410.412 70.2467L407.612 72.2812C406.828 72.8506 405.774 72.0844 406.073 71.1631L407.143 67.8713C407.277 67.4593 407.13 67.0079 406.78 66.7533L403.979 64.7188C403.196 64.1494 403.598 62.9098 404.567 62.9098H408.028C408.462 62.9098 408.845 62.6309 408.979 62.2188L410.049 58.927Z" fill="#58B9FD"/>
<path d="M485.017 89.1284L486.003 89.2915L485.017 89.1285C484.981 89.3443 484.981 89.5646 485.017 89.7804L486.003 89.6175L485.017 89.7805L487.887 107.155L475.353 119.524C475.197 119.678 475.067 119.856 474.969 120.051L467.079 135.795L449.668 138.434C449.452 138.467 449.242 138.535 449.048 138.635L449.508 139.523L449.048 138.635L433.411 146.734L417.774 138.635C417.58 138.535 417.37 138.467 417.154 138.434L399.743 135.795L391.853 120.051C391.755 119.856 391.625 119.678 391.469 119.524L378.935 107.155L381.805 89.7805C381.841 89.5646 381.841 89.3443 381.805 89.1284L378.935 71.754L391.469 59.3851C391.625 59.2314 391.755 59.0532 391.853 58.8576L399.743 43.114L417.154 40.4752C417.37 40.4424 417.58 40.3743 417.774 40.2737L433.411 32.1745L449.048 40.2737C449.242 40.3743 449.452 40.4424 449.668 40.4752L467.079 43.114L474.969 58.8576C475.067 59.0532 475.197 59.2314 475.353 59.3851L487.887 71.754L485.017 89.1284Z" stroke="#CB2027" stroke-width="2"/>
<path d="M482.285 72.8838L483.273 72.7277L482.285 72.8839C482.319 73.1 482.389 73.309 482.491 73.5026L483.376 73.0371L482.491 73.5027L490.69 89.0874L482.691 104.776C482.592 104.971 482.525 105.181 482.494 105.397L479.966 122.825L464.274 130.816C464.079 130.915 463.901 131.046 463.749 131.203L464.465 131.9L463.749 131.203L451.46 143.817L434.068 141.057C433.852 141.023 433.632 141.024 433.416 141.062L416.06 144.043L403.611 131.588C403.457 131.433 403.277 131.305 403.081 131.208L387.287 123.419L384.537 106.025C384.503 105.809 384.433 105.6 384.332 105.407L376.132 89.8219L384.131 74.1333C384.23 73.9383 384.297 73.7284 384.329 73.5119L386.856 56.0841L402.548 48.0933C402.743 47.994 402.921 47.8634 403.073 47.7067L415.362 35.0928L432.754 37.852C432.97 37.8863 433.191 37.8849 433.406 37.8478L450.762 34.8658L463.211 47.3211C463.366 47.4759 463.545 47.6042 463.741 47.701L479.535 55.49L482.285 72.8838Z" stroke="#CB2027" stroke-width="2"/>
<path fill-rule="evenodd" clip-rule="evenodd" d="M143.348 268.562L141.46 359H105.635L100.635 302.384H98.9874L76.8652 359H43.3652L61.2163 257.965L143.348 268.562Z" fill="white"/>
<path d="M170.365 358L37.8652 358" stroke="#25316D" stroke-width="2" stroke-linecap="round" stroke-linejoin="round"/>
<path fill-rule="evenodd" clip-rule="evenodd" d="M148.73 247.895C151.02 221.046 162.187 172.549 156.368 167.401C150.548 162.252 138.553 158.695 138.553 158.695C138.553 158.695 138.783 152.882 135.224 152.49C131.667 152.099 132.022 152.49 132.022 152.49C132.022 152.49 131.006 147.868 127.88 146.98C124.755 146.088 122.671 146.165 122.671 146.165L122.136 154.244C122.136 154.244 115.656 157.599 108.643 156.208C101.602 154.816 97.7149 151.337 97.7149 151.337L98.1717 144.672C98.1717 144.672 93.8003 144.063 92.5797 146.98C91.3608 149.89 91.666 150.101 91.666 150.101C91.666 150.101 88.0818 150.43 87.2187 152.49C86.3791 154.549 86.5325 155.076 86.5325 155.076C86.5325 155.076 82.6993 155.508 84.1221 157.118C84.1221 157.118 63.1874 156.208 58.6786 162.806C52.8673 171.31 52.7564 191.183 52.5214 201.493C52.2865 211.804 57.2042 271.308 57.2042 271.308C57.2042 271.308 81.3825 282.288 101.051 283.653C121.022 285.04 148.73 281.525 148.73 281.525C148.73 281.525 147.375 263.776 148.73 247.895Z" fill="#58B9FD"/>
<path d="M122.365 144L98.3652 138V151.5L104.832 155.035C108.305 156.934 112.389 157.383 116.192 156.284L122.365 154.5V144Z" fill="white"/>
<path d="M90.3652 120C90.3652 123.076 85.0235 124.5 89.3652 131.5C92.4665 136.5 96.6853 133.554 97.502 135C101.794 142.6 109.12 148 115.672 148C131.366 141 131.14 140 132.374 123.09C132.895 115.95 132.374 113 132.375 111C138.865 103 139.477 94.7637 135.865 92.9999C133.414 91.8029 128.471 87.4999 124.865 87.4999C123.076 87.4999 126.365 82.8457 111.865 84.9998C108.404 85.514 100.606 93.0642 98.3652 94.5C93.0929 97.8785 88.8176 102.193 88.3652 107.5C88.1575 109.937 88.975 112.842 89.3652 115C89.8021 117.416 89.5284 118.506 90.3652 120Z" fill="white"/>
<path d="M118.781 120.891C117.282 122.872 117.028 125.438 117.714 127.771C117.943 128.486 118.223 129.179 118.579 129.827C118.655 129.923 119.061 130.432 119.036 130.519C119.036 130.568 118.223 130.6 118.12 130.613C117.078 130.745 116.036 130.658 114.995 130.649M112.174 118.564C110.547 116.991 107.624 116.829 105.871 118.336M129.073 119.08C127.549 117.829 125.007 117.011 123.279 118.324M117.689 137.523C115.426 138.265 111.793 137.807 110.446 135.595M105.342 108.524C104.986 110.229 104.376 111.791 103.029 112.948C102.519 113.383 101.808 113.625 101.326 114.055C101.223 114.156 101.198 114.611 101.172 114.761C101.046 115.447 100.97 116.157 100.945 116.856C100.867 118.761 100.817 121.231 99.3685 122.672M97.3733 122.206C95.3401 119.73 91.6295 118.941 89.4446 121.695C89.0113 122.22 88.7079 122.84 88.5039 123.475C87.1822 127.384 89.3164 132.242 92.8754 134.177C94.2729 134.943 95.6452 135.306 97.2198 134.757" stroke="#25316D" stroke-width="2" stroke-miterlimit="1.5" stroke-linecap="round" stroke-linejoin="round"/>
<path d="M92.747 125.364C93.7636 126.649 94.8307 127.865 95.8473 129.134M107.015 107.29C110.497 109.418 114.157 111.39 118.324 111.572C120.254 111.655 122.618 111.03 122.974 108.779M134.207 105.826C134.436 106.339 134.64 106.883 134.716 107.452C135.071 110.245 132.302 111.193 130.014 111.067C126.329 110.863 122.974 108.696 120.662 105.892M135.96 104.921C136.646 104.139 137.282 103.27 137.663 102.306C140.18 96.024 134.232 90.5271 128.846 88.7532C126.608 88.0162 123.407 87.4369 121.22 88.644C119.646 89.5029 121.906 91.3073 123.051 91.1676C124.88 90.9388 125.44 88.5804 124.906 87.0937C124.474 85.9552 123.508 85.2208 122.416 84.7456C120.281 83.818 118.044 83.889 115.782 84.2449C111.029 84.9971 106.481 87.4344 102.72 90.3391C101.221 91.4929 99.5941 92.7101 98.5017 94.2807M95.8076 98.5146C95.0709 98.5807 94.3342 98.7406 93.6481 99.01C88.6157 100.97 88.6663 106.914 88.8956 111.455C88.9461 112.6 89.022 113.735 89.2008 114.867C89.3777 116.043 89.6828 117.224 90.0638 118.352M96.2392 91.9501C95.9593 92.9463 95.7823 93.9197 95.757 94.954C95.757 95.2386 95.7571 95.5259 95.7823 95.8104C95.7823 95.8384 95.8329 96.0571 95.8076 96.0748C95.7823 96.0952 95.4772 95.9552 95.4519 95.9426C95.0438 95.8054 94.6629 95.6606 94.2566 95.5233C92.7579 94.9999 91.131 94.5143 89.5294 94.471M132.403 113.242C131.971 121.935 131.26 129.946 130.193 137.072C130.015 138.273 129.376 139.359 128.412 140.098C124.321 143.227 119.9 145.359 115.274 146.833C114.106 147.207 112.835 147.102 111.717 146.54C107.091 144.164 102.694 141.051 98.5017 137.225M122.696 143.745L122.365 153.238" stroke="#25316D" stroke-width="2" stroke-miterlimit="1.5" stroke-linecap="round" stroke-linejoin="round"/>
<path d="M98.5019 137.224L97.8916 151.433C97.8916 151.433 106.481 160.421 120.941 154.492M138.604 158.083C138.757 155.555 137.511 152.901 134.842 152.379C134.207 152.254 133.571 152.258 132.937 152.381C132.733 152.419 132.529 152.482 132.327 152.558C132.302 152.57 132.073 152.686 132.073 152.686C131.946 152.498 131.971 152 131.921 151.769C131.793 151.166 131.59 150.571 131.311 150.028C129.964 147.448 127.244 145.94 124.346 146.099M136.623 160.364C124.906 167.877 109.15 167.194 96.2647 163.57C94.004 162.937 91.9203 161.943 89.7337 161.158M97.9674 144.588C95.5786 143.992 93.1391 145.266 92.249 147.525C92.0214 148.085 91.868 148.677 91.7921 149.275V150.198C91.2595 150.351 90.5462 150.2 89.9883 150.326C88.2603 150.711 87.3448 152.068 86.8374 153.65M117.485 166.198L117.79 172.099C117.79 172.099 118.306 180.348 118.365 181.5C118.395 182.066 116.363 182.732 115.865 181C117.485 176.5 121.865 182 121.865 182M107.016 165.737V171.869C107.016 171.869 107.512 179.003 108.365 176.5C109.865 172.099 104.365 177.5 104.365 177.5" stroke="#25316D" stroke-width="2" stroke-miterlimit="1.5" stroke-linecap="round" stroke-linejoin="round"/>
<path d="M125.202 124.75L125.808 125.346L125.202 124.75C125.235 124.717 125.253 124.673 125.253 124.626C125.253 124.579 125.235 124.535 125.202 124.502C125.174 124.473 125.136 124.454 125.096 124.45C125.056 124.454 125.019 124.473 124.99 124.502C124.958 124.535 124.939 124.579 124.939 124.626C124.939 124.673 124.958 124.717 124.99 124.75L124.379 125.351L124.99 124.75C125.019 124.779 125.056 124.798 125.096 124.802C125.136 124.798 125.174 124.779 125.202 124.75ZM108.44 124.626C108.44 124.722 108.514 124.799 108.609 124.803C108.652 124.8 108.693 124.782 108.724 124.75C108.756 124.717 108.775 124.673 108.775 124.626C108.775 124.579 108.756 124.535 108.724 124.502C108.693 124.47 108.652 124.452 108.609 124.449C108.514 124.454 108.44 124.53 108.44 124.626Z" fill="#25316D" stroke="#25316D" stroke-width="2"/>
<path d="M107.76 145.34C109.392 146.635 111.41 147.789 113.808 148.37C115.302 148.732 117.282 148.211 119.042 147.469C119.892 147.11 120.636 146.723 121.168 146.426C121.309 146.347 121.435 146.275 121.543 146.212V145.536C121.064 145.792 120.494 146.077 119.867 146.358C118.068 147.161 115.614 148.005 113.463 147.767L107.76 145.34ZM107.76 145.34C108.412 145.732 109.072 146.106 109.718 146.437C111.007 147.098 112.338 147.643 113.462 147.767L107.76 145.34Z" fill="#25316D" stroke="#25316D" stroke-width="2"/>
<path fill-rule="evenodd" clip-rule="evenodd" d="M64.3529 161.162C64.3529 161.162 79.0142 164.589 77.9879 193.876C77.7401 200.783 77.0645 208.98 77.0645 208.98L88.3444 207.815H108.71L119.317 231.449C119.317 231.449 80.8851 245.407 57.8652 238.5C50.1791 236.202 48.0957 226.77 49.8652 212C51.638 197.253 54.1862 170.948 64.3529 161.162Z" fill="#58B9FD"/>
<path fill-rule="evenodd" clip-rule="evenodd" d="M97.8008 196.507C97.8008 196.507 87.0518 190.38 84.6967 190.096C82.3416 189.831 77.2776 192.27 76.3574 192.764C75.418 193.275 74.6587 195.306 72.3551 197.903C71.6827 198.663 72.6221 201.048 75.2603 199.934C75.2603 199.934 74.5171 202.091 75.5081 203.327C75.5081 203.327 74.8003 204.793 76.0389 205.994H81.1383C81.1383 205.994 84.6613 209.669 91.2149 209.704L95.198 203.327L97.8008 196.507Z" fill="white"/>
<path fill-rule="evenodd" clip-rule="evenodd" d="M98.1219 195.927C98.405 196.103 98.5272 196.437 98.4211 196.739L95.8183 203.575C95.8022 203.61 95.7829 203.646 95.7668 203.681L91.7806 210.042C91.6583 210.235 91.446 210.36 91.2143 210.36C85.3009 210.34 81.7587 207.462 80.8739 206.65H76.0383C75.8613 206.65 75.7037 206.579 75.5782 206.473C74.4264 205.34 74.5873 204.053 74.7642 203.434C74.4457 202.869 74.3203 202.214 74.3203 201.598C74.3203 201.351 74.3395 201.1 74.3749 200.873C73.754 200.943 73.2232 200.837 72.8178 200.641C72.1068 200.288 71.6821 199.653 71.5405 199.053C71.3829 198.433 71.5244 197.833 71.8429 197.464C73.2071 195.943 74.021 194.601 74.6581 193.683C75.1535 192.942 75.5975 192.429 76.0222 192.181C76.6946 191.828 79.439 190.487 81.8648 189.832C82.9619 189.514 84.0075 189.355 84.7861 189.443C85.5293 189.531 87.0704 190.15 88.8593 191.016C92.8455 192.923 98.1219 195.927 98.1219 195.927ZM96.9701 196.809C95.5705 196.013 91.4975 193.754 88.2737 192.217C86.6651 191.44 85.3009 190.84 84.6285 190.769C83.7598 190.663 82.4858 190.981 81.2278 191.405C79.2106 192.092 77.2062 193.064 76.6753 193.346C76.3761 193.523 76.1091 193.911 75.7552 194.425C75.1021 195.378 74.2495 196.758 72.8532 198.347C72.8178 198.398 72.8178 198.453 72.8178 198.523C72.7985 198.664 72.8532 198.822 72.9239 198.966C73.1877 199.496 73.8956 199.794 74.9927 199.319C75.1153 199.275 75.2477 199.265 75.3758 199.289C75.5038 199.314 75.6228 199.373 75.7198 199.46C75.916 199.637 75.9675 199.9 75.8967 200.147C75.8967 200.147 75.6683 200.837 75.6683 201.598C75.6683 202.057 75.7198 202.551 76.0222 202.92C76.1798 203.116 76.2152 203.398 76.1091 203.629C76.1091 203.629 75.6844 204.512 76.3214 205.324H81.1409C81.334 205.324 81.5109 205.395 81.6332 205.536C81.6332 205.536 84.8569 208.874 90.8443 209.034L94.5989 203.045L96.9701 196.809Z" fill="#25316D"/>
<path fill-rule="evenodd" clip-rule="evenodd" d="M75.8614 196.49L80.5007 194.423C80.8385 194.263 81.2278 194.423 81.3694 194.76C81.527 195.094 81.3694 195.483 81.0316 195.643L76.3922 197.691C76.0576 197.851 75.6651 197.691 75.5236 197.357C75.4865 197.278 75.4659 197.193 75.4629 197.106C75.4599 197.019 75.4747 196.932 75.5063 196.851C75.5379 196.77 75.5856 196.697 75.6466 196.635C75.7077 196.572 75.7807 196.523 75.8614 196.49ZM75.3755 199.234L80.9447 198.317C81.3115 198.268 81.6493 198.519 81.7008 198.872C81.7748 199.244 81.527 199.575 81.1603 199.639L75.5943 200.541C75.2437 200.608 74.8898 200.355 74.8351 199.985C74.7804 199.632 75.0281 199.283 75.3755 199.234ZM75.8163 202.733L80.549 201.863C80.9093 201.789 81.2504 202.03 81.3179 202.399C81.3887 202.755 81.1506 203.095 80.7903 203.172L76.0576 204.042C75.6973 204.1 75.3402 203.859 75.2726 203.506C75.2179 203.134 75.456 202.791 75.8163 202.733Z" fill="#25316D"/>
<path fill-rule="evenodd" clip-rule="evenodd" d="M156.239 170.913C156.239 170.913 150.113 176.512 148.041 183.49C145.969 190.451 145.294 209.67 145.294 209.67C145.294 209.67 123.072 200.767 115.315 198.594C107.542 196.402 104.337 198.08 104.337 198.08C104.337 198.08 99.7335 194.832 97.4138 195.927C95.3419 196.915 92.028 203.026 91.1079 209.175C90.9309 210.517 91.4103 211.878 92.4013 212.815C93.6592 214.015 95.4641 215.674 96.9151 216.631C96.9151 216.631 97.6068 220.004 102.159 222.793C106.709 225.604 141.24 247.474 163.748 241.944C172.001 239.912 175.028 224.879 169.909 201.139C164.791 177.413 159.868 172.45 156.239 170.913Z" fill="#58B9FD"/>
<path d="M64.8673 161.478C68.4148 163.748 75.5949 169.481 75.9355 174.249C76.276 179.016 77.4964 185.884 78.064 188.722M52.3461 193.831C51.3528 200.642 49.3662 215.116 49.3662 218.521M49.3662 224.481C49.5081 228.029 49.7123 237.678 58.9075 239.381M72.1042 240.232C84.0238 239.097 109.566 235.975 116.377 232.569M57.2047 224.481C57.9142 221.217 60.44 214.179 64.8673 212.136C69.2945 210.092 76.645 209.298 79.7668 209.156" stroke="#25316D" stroke-width="2" stroke-miterlimit="1.5" stroke-linecap="round" stroke-linejoin="round"/>
<path d="M158.947 225.758C157.67 222.353 154.264 215.031 150.858 212.987M144.047 209.156C137.804 206.744 124.72 201.749 122.336 201.068M113.822 198.088L109.991 197.236M98.4972 219.798C100.484 221.501 104.627 224.907 105.308 224.907M110.843 227.887C115.1 230.157 124.295 235.038 127.019 236.401M131.702 238.529C142.628 242.219 165.588 247.128 170.015 237.252M171.292 230.867C172.427 227.035 172.058 214.264 168.312 195.533M167.035 188.722C165.9 183.898 162.352 173.652 157.244 171.269M155.115 172.12C152.419 174.39 147.027 181.23 147.027 190.425M145.75 194.682V206.602" stroke="#25316D" stroke-width="2" stroke-miterlimit="1.5" stroke-linecap="round" stroke-linejoin="round"/>
<path d="M147.878 266.199V281.525C143.337 282.376 132.723 283.994 126.593 283.653M57.6295 272.159C61.3189 273.578 69.6343 276.672 73.3804 277.693M55.0753 244.063L56.3524 263.645M143.621 285.782L142.365 358M105.365 358L100.2 298.553L76.8652 358M43.8652 358L57.6295 275.565" stroke="#25316D" stroke-width="2" stroke-miterlimit="1.5" stroke-linecap="round" stroke-linejoin="round"/>
<path d="M106.708 196.892C104.831 199.68 103.186 202.671 101.664 205.671C99.5527 209.869 97.6361 214.177 96.8897 218.845M98.6162 194.158C94.9809 198.868 91.3242 204.265 90.1097 210.201M98.7183 194.385L106.211 197.065M90.4092 210.684C91.6658 211.721 92.2393 212.674 93.3891 213.838C94.6501 215.107 95.1896 216.395 96.5315 217.612M94.0236 204.14C95.2089 204.608 96.3499 205.163 97.4796 205.726M92.9401 208.527C94.0749 209.204 95.1318 210.018 96.2822 210.684" stroke="#25316D" stroke-width="2" stroke-miterlimit="1.5" stroke-linecap="round" stroke-linejoin="round"/>
</g>
<defs>
<clipPath id="clip0_249_13934">
<rect width="509" height="471" fill="white" transform="translate(0 0.5)"/>
</clipPath>
</defs>
</svg>
