<svg width="588" height="340" viewBox="0 0 588 340" fill="none" xmlns="http://www.w3.org/2000/svg">
<path d="M401.051 177.521L402.051 177.521L401.051 177.521ZM467.527 242.622L458.63 235.261L456.704 246.646L467.527 242.622ZM465.02 113.524C464.471 113.582 464.073 114.074 464.131 114.624C464.188 115.173 464.681 115.571 465.23 115.513L465.02 113.524ZM455.809 117.083C456.348 116.961 456.687 116.426 456.566 115.888C456.445 115.349 455.91 115.01 455.371 115.131L455.809 117.083ZM450.638 116.328C450.106 116.478 449.797 117.03 449.946 117.562C450.096 118.093 450.648 118.403 451.18 118.254L450.638 116.328ZM442.13 121.329C442.642 121.123 442.891 120.541 442.685 120.028C442.479 119.516 441.897 119.267 441.384 119.473L442.13 121.329ZM436.901 121.423C436.401 121.658 436.186 122.254 436.421 122.754C436.656 123.253 437.251 123.468 437.751 123.234L436.901 121.423ZM429.381 127.809C429.848 127.513 429.987 126.896 429.692 126.429C429.396 125.962 428.779 125.823 428.312 126.119L429.381 127.809ZM424.263 128.879C423.817 129.206 423.721 129.832 424.048 130.277C424.375 130.722 425.001 130.818 425.446 130.491L424.263 128.879ZM418.225 136.673C418.616 136.282 418.615 135.649 418.224 135.259C417.834 134.869 417.201 134.869 416.81 135.26L418.225 136.673ZM413.482 138.88C413.126 139.302 413.179 139.933 413.601 140.289C414.022 140.646 414.653 140.593 415.01 140.171L413.482 138.88ZM409.547 147.915C409.824 147.437 409.662 146.825 409.184 146.548C408.706 146.271 408.094 146.434 407.817 146.912L409.547 147.915ZM405.541 151.276C405.308 151.777 405.525 152.372 406.025 152.605C406.526 152.838 407.121 152.621 407.354 152.12L405.541 151.276ZM404.123 161.032C404.266 160.499 403.949 159.95 403.416 159.808C402.882 159.665 402.334 159.981 402.191 160.515L404.123 161.032ZM401.116 165.313C401.017 165.857 401.377 166.377 401.921 166.476C402.464 166.575 402.985 166.215 403.083 165.672L401.116 165.313ZM402.09 175.116C402.109 174.564 401.676 174.102 401.124 174.083C400.572 174.065 400.11 174.498 400.091 175.049L402.09 175.116ZM400.095 180.012C400.114 180.564 400.578 180.996 401.13 180.976C401.682 180.957 402.113 180.493 402.094 179.941L400.095 180.012ZM403.142 189.408C403.039 188.865 402.515 188.51 401.972 188.613C401.43 188.717 401.074 189.241 401.178 189.783L403.142 189.408ZM402.305 194.58C402.454 195.112 403.006 195.422 403.538 195.273C404.069 195.124 404.38 194.572 404.231 194.04L402.305 194.58ZM407.585 202.925C407.345 202.428 406.747 202.219 406.25 202.459C405.753 202.7 405.544 203.298 405.784 203.795L407.585 202.925ZM408.124 208.133C408.407 208.607 409.021 208.761 409.495 208.478C409.969 208.194 410.124 207.58 409.84 207.106L408.124 208.133ZM415.411 214.82C415.051 214.401 414.42 214.353 414.001 214.713C413.582 215.072 413.534 215.704 413.894 216.123L415.411 214.82ZM417.249 219.728C417.641 220.118 418.274 220.116 418.663 219.724C419.053 219.332 419.051 218.699 418.659 218.31L417.249 219.728ZM425.897 224.526C425.454 224.196 424.827 224.287 424.497 224.73C424.167 225.173 424.259 225.799 424.701 226.13L425.897 224.526ZM428.733 228.94C429.196 229.241 429.816 229.111 430.117 228.648C430.419 228.186 430.288 227.566 429.825 227.264L428.733 228.94ZM438.132 232.025C437.638 231.777 437.037 231.976 436.789 232.469C436.541 232.963 436.739 233.564 437.233 233.812L438.132 232.025ZM441.67 235.906C442.175 236.13 442.765 235.902 442.989 235.396C443.212 234.891 442.984 234.301 442.479 234.077L441.67 235.906ZM451.433 237.551C450.909 237.375 450.342 237.656 450.165 238.179C449.989 238.703 450.27 239.27 450.793 239.446L451.433 237.551ZM455.465 240.91C455.995 241.063 456.55 240.758 456.703 240.227C456.857 239.697 456.552 239.142 456.021 238.989L455.465 240.91ZM465.36 241.241C464.817 241.139 464.294 241.496 464.192 242.038C464.089 242.581 464.446 243.104 464.989 243.206L465.36 241.241ZM467.457 113.31C466.669 113.365 465.856 113.436 465.02 113.524L465.23 115.513C466.043 115.428 466.833 115.359 467.597 115.305L467.457 113.31ZM455.371 115.131C453.824 115.479 452.243 115.877 450.638 116.328L451.18 118.254C452.75 117.812 454.297 117.423 455.809 117.083L455.371 115.131ZM441.384 119.473C439.89 120.074 438.392 120.723 436.901 121.423L437.751 123.234C439.207 122.55 440.669 121.916 442.13 121.329L441.384 119.473ZM428.312 126.119C426.94 126.987 425.588 127.906 424.263 128.879L425.446 130.491C426.733 129.547 428.047 128.653 429.381 127.809L428.312 126.119ZM416.81 135.26C415.66 136.412 414.548 137.618 413.482 138.88L415.01 140.171C416.039 138.953 417.113 137.787 418.225 136.673L416.81 135.26ZM407.817 146.912C407.004 148.313 406.244 149.768 405.541 151.276L407.354 152.12C408.031 150.667 408.764 149.266 409.547 147.915L407.817 146.912ZM402.191 160.515C401.775 162.068 401.415 163.667 401.116 165.313L403.083 165.672C403.373 164.079 403.721 162.533 404.123 161.032L402.191 160.515ZM400.091 175.049C400.064 175.864 400.051 176.688 400.051 177.521L402.051 177.521C402.051 176.71 402.064 175.908 402.09 175.116L400.091 175.049ZM400.051 177.521C400.051 178.362 400.066 179.192 400.095 180.012L402.094 179.941C402.065 179.145 402.051 178.338 402.051 177.521L400.051 177.521ZM401.178 189.783C401.493 191.43 401.87 193.028 402.305 194.58L404.231 194.04C403.811 192.543 403.447 190.999 403.142 189.408L401.178 189.783ZM405.784 203.795C406.509 205.295 407.291 206.74 408.124 208.133L409.84 207.106C409.037 205.764 408.284 204.37 407.585 202.925L405.784 203.795ZM413.894 216.123C414.973 217.379 416.094 218.581 417.249 219.728L418.659 218.31C417.54 217.198 416.455 216.035 415.411 214.82L413.894 216.123ZM424.701 226.13C426.029 227.119 427.376 228.055 428.733 228.94L429.825 227.264C428.501 226.401 427.189 225.489 425.897 224.526L424.701 226.13ZM437.233 233.812C438.725 234.563 440.208 235.26 441.67 235.906L442.479 234.077C441.046 233.444 439.593 232.761 438.132 232.025L437.233 233.812ZM450.793 239.446C452.432 239.999 453.997 240.484 455.465 240.91L456.021 238.989C454.579 238.571 453.042 238.094 451.433 237.551L450.793 239.446Z" fill="#303030"/>
<path d="M363.4 167.372H436.379V195.883C436.379 197.637 434.958 199.058 433.204 199.058H366.575C364.822 199.058 363.4 197.637 363.4 195.883V167.372Z" fill="white" stroke="#25316D" stroke-width="2"/>
<path d="M424.267 194.758H423.053L423.812 190.084H425.027L424.267 194.758Z" fill="#CB2027"/>
<path d="M428.669 190.199C428.429 190.104 428.049 190 427.58 190C426.38 190 425.535 190.637 425.53 191.547C425.52 192.218 426.135 192.591 426.595 192.814C427.065 193.043 427.224 193.193 427.224 193.397C427.22 193.71 426.845 193.854 426.495 193.854C426.01 193.854 425.75 193.78 425.355 193.605L425.195 193.531L425.025 194.58C425.31 194.709 425.835 194.824 426.38 194.829C427.654 194.829 428.484 194.202 428.494 193.232C428.499 192.7 428.174 192.293 427.474 191.959C427.05 191.746 426.789 191.601 426.789 191.383C426.794 191.183 427.01 190.98 427.489 190.98C427.884 190.97 428.174 191.064 428.394 191.159L428.504 191.208L428.669 190.199Z" fill="#CB2027"/>
<path d="M430.286 193.102C430.385 192.834 430.77 191.794 430.77 191.794C430.765 191.805 430.87 191.521 430.93 191.347L431.015 191.75C431.015 191.75 431.245 192.869 431.295 193.102C431.105 193.102 430.525 193.102 430.286 193.102ZM431.785 190.084H430.845C430.555 190.084 430.335 190.168 430.21 190.472L428.406 194.758H429.681C429.681 194.758 429.89 194.181 429.936 194.057C430.075 194.057 431.315 194.057 431.495 194.057C431.53 194.221 431.64 194.758 431.64 194.758H432.765L431.785 190.084Z" fill="#CB2027"/>
<path d="M422.038 190.084L420.849 193.271L420.718 192.625C420.498 191.879 419.809 191.069 419.039 190.666L420.129 194.753H421.413L423.322 190.084H422.038Z" fill="#CB2027"/>
<path d="M420.457 192.047C419.718 191.421 418.761 190.778 417.998 190.337H419.822C419.936 190.342 420.01 190.362 420.058 190.392C420.098 190.417 420.138 190.459 420.162 190.557L420.457 192.047Z" fill="#25316D"/>
<path d="M374.096 176.675V177.57C374.096 178.113 373.969 178.541 373.714 178.854C373.46 179.163 373.086 179.318 372.594 179.318C372.101 179.318 371.727 179.163 371.473 178.854C371.218 178.541 371.091 178.113 371.091 177.57V176.675C371.091 176.132 371.218 175.706 371.473 175.397C371.727 175.088 372.101 174.934 372.594 174.934C373.086 174.934 373.46 175.088 373.714 175.397C373.969 175.706 374.096 176.132 374.096 176.675ZM373.339 176.675C373.339 175.978 373.09 175.629 372.594 175.629C372.339 175.629 372.151 175.717 372.03 175.892C371.909 176.067 371.848 176.328 371.848 176.675V177.57C371.848 177.917 371.909 178.18 372.03 178.359C372.151 178.535 372.339 178.622 372.594 178.622C373.09 178.622 373.339 178.272 373.339 177.57V176.675ZM379.027 179.255H376.447V178.66C376.447 178.359 376.487 178.109 376.566 177.909C376.645 177.704 376.752 177.537 376.885 177.408C377.019 177.274 377.165 177.168 377.324 177.088L377.749 176.875C377.912 176.792 378.044 176.704 378.144 176.612C378.248 176.516 378.301 176.393 378.301 176.243V176.13C378.301 175.976 378.246 175.855 378.138 175.767C378.033 175.675 377.864 175.629 377.63 175.629C377.489 175.629 377.345 175.65 377.198 175.692C377.056 175.733 376.883 175.792 376.679 175.867L376.447 175.222C376.681 175.118 376.894 175.045 377.086 175.003C377.282 174.957 377.472 174.934 377.656 174.934C377.994 174.934 378.263 174.988 378.463 175.097C378.668 175.205 378.814 175.351 378.902 175.535C378.994 175.715 379.039 175.913 379.039 176.13V176.243C379.039 176.468 378.994 176.66 378.902 176.819C378.814 176.978 378.697 177.111 378.551 177.22C378.405 177.328 378.246 177.424 378.075 177.508L377.649 177.721C377.495 177.796 377.38 177.9 377.305 178.034C377.234 178.167 377.194 178.339 377.186 178.547H379.027V179.255ZM384.462 176.675V177.57C384.462 178.113 384.334 178.541 384.08 178.854C383.825 179.163 383.451 179.318 382.959 179.318C382.466 179.318 382.093 179.163 381.838 178.854C381.583 178.541 381.456 178.113 381.456 177.57V176.675C381.456 176.132 381.583 175.706 381.838 175.397C382.093 175.088 382.466 174.934 382.959 174.934C383.451 174.934 383.825 175.088 384.08 175.397C384.334 175.706 384.462 176.132 384.462 176.675ZM383.704 176.675C383.704 175.978 383.456 175.629 382.959 175.629C382.704 175.629 382.516 175.717 382.395 175.892C382.274 176.067 382.214 176.328 382.214 176.675V177.57C382.214 177.917 382.274 178.18 382.395 178.359C382.516 178.535 382.704 178.622 382.959 178.622C383.456 178.622 383.704 178.272 383.704 177.57V176.675ZM389.355 178.096C389.355 178.318 389.309 178.522 389.217 178.71C389.125 178.894 388.977 179.042 388.772 179.155C388.572 179.263 388.303 179.318 387.964 179.318C387.772 179.318 387.572 179.295 387.363 179.249C387.159 179.203 386.933 179.125 386.687 179.017L386.919 178.372C387.14 178.451 387.326 178.514 387.476 178.56C387.63 178.602 387.785 178.622 387.939 178.622C388.161 178.622 388.328 178.579 388.44 178.491C388.557 178.399 388.616 178.257 388.616 178.065V177.977C388.616 177.819 388.566 177.691 388.465 177.595C388.369 177.495 388.219 177.445 388.015 177.445H387.351V176.769H388.015C388.211 176.769 388.355 176.723 388.447 176.631C388.538 176.535 388.584 176.412 388.584 176.262V176.174C388.584 175.982 388.53 175.844 388.422 175.761C388.317 175.673 388.163 175.629 387.958 175.629C387.812 175.629 387.664 175.65 387.514 175.692C387.367 175.729 387.19 175.788 386.981 175.867L386.75 175.222C386.983 175.114 387.2 175.038 387.401 174.997C387.601 174.955 387.795 174.934 387.983 174.934C388.305 174.934 388.564 174.988 388.76 175.097C388.956 175.205 389.098 175.351 389.186 175.535C389.277 175.719 389.323 175.921 389.323 176.143V176.23C389.323 176.426 389.273 176.6 389.173 176.75C389.077 176.896 388.95 177.013 388.791 177.101C388.962 177.193 389.098 177.316 389.198 177.47C389.302 177.62 389.355 177.8 389.355 178.009V178.096ZM394.546 177.577C394.546 178.161 394.408 178.597 394.133 178.885C393.857 179.173 393.469 179.318 392.968 179.318C392.792 179.318 392.611 179.297 392.423 179.255C392.235 179.213 392.024 179.138 391.79 179.029L392.06 178.384C392.248 178.472 392.413 178.535 392.554 178.572C392.701 178.606 392.832 178.622 392.949 178.622C393.212 178.622 393.423 178.543 393.581 178.384C393.744 178.226 393.826 177.957 393.826 177.577V177.351C393.684 177.481 393.533 177.577 393.375 177.639C393.22 177.702 393.064 177.733 392.905 177.733C392.659 177.733 392.442 177.677 392.254 177.564C392.07 177.451 391.928 177.295 391.828 177.094C391.728 176.894 391.678 176.662 391.678 176.399V176.274C391.678 176.04 391.734 175.821 391.847 175.617C391.96 175.412 392.12 175.247 392.329 175.122C392.538 174.997 392.786 174.934 393.074 174.934C393.538 174.934 393.899 175.091 394.158 175.404C394.416 175.717 394.546 176.147 394.546 176.694V177.577ZM392.41 176.399C392.41 176.591 392.463 176.75 392.567 176.875C392.676 176.996 392.826 177.057 393.018 177.057C393.314 177.057 393.584 176.944 393.826 176.719V176.694C393.826 176.335 393.759 176.067 393.625 175.892C393.496 175.717 393.308 175.629 393.062 175.629C392.857 175.629 392.696 175.696 392.579 175.83C392.467 175.963 392.41 176.111 392.41 176.274V176.399ZM399.808 178.291H399.363V179.255H398.637V178.291H396.809V177.683C396.996 177.391 397.182 177.094 397.366 176.794C397.554 176.489 397.729 176.186 397.892 175.886C398.055 175.581 398.188 175.285 398.293 174.997H399.113C398.959 175.422 398.75 175.861 398.487 176.312C398.224 176.758 397.952 177.195 397.673 177.62H398.637V176.975H399.363V177.62H399.808V178.291ZM404.914 177.977C404.914 178.232 404.858 178.462 404.745 178.666C404.632 178.867 404.471 179.025 404.263 179.142C404.058 179.259 403.81 179.318 403.517 179.318C403.054 179.318 402.693 179.161 402.434 178.848C402.175 178.535 402.046 178.105 402.046 177.558V176.675C402.046 176.09 402.184 175.654 402.459 175.366C402.735 175.078 403.123 174.934 403.624 174.934C403.799 174.934 403.981 174.955 404.169 174.997C404.361 175.038 404.572 175.114 404.801 175.222L404.532 175.867C404.344 175.779 404.179 175.719 404.037 175.685C403.895 175.648 403.764 175.629 403.643 175.629C403.38 175.629 403.167 175.708 403.004 175.867C402.845 176.022 402.766 176.291 402.766 176.675V176.9C402.912 176.771 403.062 176.675 403.217 176.612C403.375 176.55 403.532 176.518 403.686 176.518C403.937 176.518 404.154 176.575 404.338 176.687C404.521 176.8 404.663 176.957 404.764 177.157C404.864 177.357 404.914 177.589 404.914 177.852V177.977ZM402.766 177.558C402.766 177.917 402.833 178.184 402.966 178.359C403.1 178.535 403.288 178.622 403.53 178.622C403.739 178.622 403.899 178.564 404.012 178.447C404.125 178.326 404.181 178.169 404.181 177.977V177.852C404.181 177.656 404.129 177.497 404.025 177.376C403.92 177.255 403.77 177.195 403.574 177.195C403.277 177.195 403.008 177.307 402.766 177.533V177.558ZM410.308 176.675V177.57C410.308 178.113 410.18 178.541 409.926 178.854C409.671 179.163 409.297 179.318 408.805 179.318C408.312 179.318 407.938 179.163 407.684 178.854C407.429 178.541 407.302 178.113 407.302 177.57V176.675C407.302 176.132 407.429 175.706 407.684 175.397C407.938 175.088 408.312 174.934 408.805 174.934C409.297 174.934 409.671 175.088 409.926 175.397C410.18 175.706 410.308 176.132 410.308 176.675ZM409.55 176.675C409.55 175.978 409.302 175.629 408.805 175.629C408.55 175.629 408.362 175.717 408.241 175.892C408.12 176.067 408.06 176.328 408.06 176.675V177.57C408.06 177.917 408.12 178.18 408.241 178.359C408.362 178.535 408.55 178.622 408.805 178.622C409.302 178.622 409.55 178.272 409.55 177.57V176.675ZM412.47 175.604L413.554 174.997H414.18V179.255H413.441V175.823L412.802 176.174L412.47 175.604ZM419.252 178.096C419.252 178.318 419.206 178.522 419.114 178.71C419.022 178.894 418.874 179.042 418.67 179.155C418.469 179.263 418.2 179.318 417.862 179.318C417.67 179.318 417.469 179.295 417.261 179.249C417.056 179.203 416.831 179.125 416.584 179.017L416.816 178.372C417.037 178.451 417.223 178.514 417.373 178.56C417.528 178.602 417.682 178.622 417.837 178.622C418.058 178.622 418.225 178.579 418.338 178.491C418.455 178.399 418.513 178.257 418.513 178.065V177.977C418.513 177.819 418.463 177.691 418.363 177.595C418.267 177.495 418.116 177.445 417.912 177.445H417.248V176.769H417.912C418.108 176.769 418.252 176.723 418.344 176.631C418.436 176.535 418.482 176.412 418.482 176.262V176.174C418.482 175.982 418.427 175.844 418.319 175.761C418.214 175.673 418.06 175.629 417.855 175.629C417.709 175.629 417.561 175.65 417.411 175.692C417.265 175.729 417.087 175.788 416.879 175.867L416.647 175.222C416.881 175.114 417.098 175.038 417.298 174.997C417.498 174.955 417.693 174.934 417.88 174.934C418.202 174.934 418.461 174.988 418.657 175.097C418.853 175.205 418.995 175.351 419.083 175.535C419.175 175.719 419.221 175.921 419.221 176.143V176.23C419.221 176.426 419.17 176.6 419.07 176.75C418.974 176.896 418.847 177.013 418.688 177.101C418.859 177.193 418.995 177.316 419.095 177.47C419.2 177.62 419.252 177.8 419.252 178.009V178.096ZM424.117 179.255H421.537V178.66C421.537 178.359 421.577 178.109 421.656 177.909C421.736 177.704 421.842 177.537 421.976 177.408C422.109 177.274 422.255 177.168 422.414 177.088L422.84 176.875C423.003 176.792 423.134 176.704 423.234 176.612C423.339 176.516 423.391 176.393 423.391 176.243V176.13C423.391 175.976 423.337 175.855 423.228 175.767C423.124 175.675 422.955 175.629 422.721 175.629C422.579 175.629 422.435 175.65 422.289 175.692C422.147 175.733 421.974 175.792 421.769 175.867L421.537 175.222C421.771 175.118 421.984 175.045 422.176 175.003C422.372 174.957 422.562 174.934 422.746 174.934C423.084 174.934 423.353 174.988 423.554 175.097C423.758 175.205 423.904 175.351 423.992 175.535C424.084 175.715 424.13 175.913 424.13 176.13V176.243C424.13 176.468 424.084 176.66 423.992 176.819C423.904 176.978 423.788 177.111 423.641 177.22C423.495 177.328 423.337 177.424 423.166 177.508L422.74 177.721C422.585 177.796 422.47 177.9 422.395 178.034C422.324 178.167 422.285 178.339 422.276 178.547H424.117V179.255Z" fill="#303030"/>
<path d="M362.4 160.224C362.4 157.918 364.269 156.049 366.575 156.049H433.204C435.51 156.049 437.379 157.918 437.379 160.224V168.392H362.4V160.224Z" fill="#58B9FD"/>
<rect x="478.459" y="132.406" width="63.6499" height="8.37496" rx="1.1787" fill="#58B9FD"/>
<mask id="path-11-inside-1_994_23778" fill="white">
<rect x="478.459" y="132.406" width="63.6498" height="8.37498" rx="1.1787"/>
</mask>
<rect x="478.459" y="132.406" width="63.6498" height="8.37498" rx="1.1787" stroke="#25316D" stroke-width="4" stroke-linecap="round" stroke-linejoin="round" mask="url(#path-11-inside-1_994_23778)"/>
<path d="M478.459 94.0156L510.284 76.6348L542.109 94.0156V100.209H478.459V94.0156Z" fill="white"/>
<path d="M479.459 99.2088V94.6089L510.284 77.7742L541.109 94.6089V99.2088H479.459Z" stroke="#25316D" stroke-width="2" stroke-linecap="round" stroke-linejoin="round"/>
<path d="M485.156 110.631V130.731" stroke="#25316D" stroke-width="2" stroke-linecap="round" stroke-linejoin="round"/>
<path d="M497.656 110.631V130.731" stroke="#25316D" stroke-width="2" stroke-linecap="round" stroke-linejoin="round"/>
<path d="M510.156 110.631V130.731" stroke="#25316D" stroke-width="2" stroke-linecap="round" stroke-linejoin="round"/>
<path d="M522.656 110.631V130.731" stroke="#25316D" stroke-width="2" stroke-linecap="round" stroke-linejoin="round"/>
<path d="M535.156 110.631V130.731" stroke="#25316D" stroke-width="2" stroke-linecap="round" stroke-linejoin="round"/>
<mask id="path-19-inside-2_994_23778" fill="white">
<rect x="480.131" y="103.932" width="60.2998" height="6.69998" rx="1.1787"/>
</mask>
<rect x="480.131" y="103.932" width="60.2998" height="6.69998" rx="1.1787" fill="white" stroke="#25316D" stroke-width="4" stroke-linecap="round" stroke-linejoin="round" mask="url(#path-19-inside-2_994_23778)"/>
<circle cx="510.283" cy="89.6006" r="3.99219" fill="#CB2027"/>
<path d="M514.862 89.6004C514.862 92.1579 512.81 94.2311 510.28 94.2311C507.749 94.2311 505.697 92.1579 505.697 89.6004C505.697 87.043 507.749 84.9697 510.28 84.9697C512.81 84.9697 514.862 87.043 514.862 89.6004Z" stroke="#25316D" stroke-width="2" stroke-linecap="round" stroke-linejoin="round"/>
<path d="M480.131 130.794L540.431 130.794" stroke="#25316D" stroke-width="2" stroke-linecap="round"/>
<path d="M540.611 221.752H481.451C476.784 221.752 473 225.536 473 230.203V255.557C473 260.225 476.784 264.009 481.451 264.009H540.611C545.279 264.009 549.062 260.225 549.062 255.557V230.203C549.062 225.536 545.279 221.752 540.611 221.752Z" fill="white"/>
<path d="M549.062 234.429C542.061 234.429 536.385 228.753 536.385 221.752M473 234.429C480.001 234.429 485.677 228.753 485.677 221.752M549.062 251.332C542.061 251.332 536.385 257.007 536.385 264.009M481.451 221.752H540.611C545.279 221.752 549.062 225.536 549.062 230.203V255.557C549.062 260.225 545.279 264.009 540.611 264.009H481.451C476.784 264.009 473 260.225 473 255.557V230.203C473 225.536 476.784 221.752 481.451 221.752Z" stroke="#25316D" stroke-width="2" stroke-linecap="round" stroke-linejoin="round"/>
<path d="M511.117 253.128C516.818 253.128 521.442 248.511 521.442 242.813C521.442 237.116 516.818 232.499 511.117 232.499C505.416 232.499 500.793 237.116 500.793 242.813C500.793 248.511 505.416 253.128 511.117 253.128Z" fill="#CB2027" stroke="#25316D" stroke-width="2"/>
<path d="M487.738 262.757C487.491 255.76 481.619 250.287 474.622 250.534" stroke="#25316D" stroke-width="2" stroke-linecap="square" stroke-linejoin="round"/>
<circle cx="465.208" cy="114.308" r="6.72978" fill="#E2EEFF" stroke="#303030" stroke-width="2"/>
<path d="M45 260.103H295" stroke="#25316D" stroke-width="2" stroke-linecap="round" stroke-linejoin="round"/>
<path d="M101.086 269.309L101.23 269.204L101.329 269.055C102.104 267.894 103.501 267.2 105.439 266.987C107.373 266.773 109.708 267.059 112.107 267.719C114.497 268.376 116.895 269.39 118.938 270.581C120.996 271.781 122.625 273.121 123.548 274.397C127.463 279.808 126.755 286.687 122.419 289.851C121.421 290.579 119.804 291.032 117.742 291.145C115.707 291.257 113.358 291.032 111.01 290.519C108.664 290.006 106.353 289.213 104.392 288.211C102.417 287.203 100.866 286.02 99.9566 284.763C96.0419 279.352 96.7496 272.473 101.086 269.309Z" fill="white" stroke="#25316D" stroke-width="2"/>
<path d="M123.968 288.046C122.715 286.636 120.02 283.815 119.268 283.815" stroke="#25316D" stroke-width="2"/>
<path d="M229.618 256.791C231.275 265.111 236.25 274.695 231.038 289.597C225.826 304.499 213.865 316.4 200.87 312.499C190.898 309.506 194.872 299.751 200.37 296.999C205.529 294.417 210.87 295.999 212.37 302.499C215.81 317.405 199.725 319.639 174.87 317.499C150.015 315.36 146.139 305.202 143.37 300.999C134.87 288.097 128.777 291.737 124.516 289.597" stroke="#303030" stroke-width="2" stroke-linecap="round"/>
<path d="M120.807 278.918L120.802 278.922C120.512 279.095 120.126 279.026 119.911 278.748C118.986 277.533 117.452 275.619 115.637 273.728C113.832 271.847 111.695 269.931 109.562 268.767L108.561 270.48C108.553 270.492 108.553 270.492 108.553 270.492L108.553 270.493L108.554 270.493L108.569 270.503C108.583 270.511 108.605 270.526 108.635 270.546C108.695 270.586 108.785 270.647 108.9 270.729C109.13 270.893 109.458 271.137 109.836 271.455C110.599 272.094 111.546 273.008 112.331 274.13C113.116 275.252 113.709 276.54 113.83 277.938C113.947 279.306 113.622 280.862 112.438 282.574C111.733 283.406 110.492 283.842 109.934 284.025L109.822 284.061L109.722 284.123L109.722 284.123L109.721 284.123L109.72 284.124L109.711 284.129L109.675 284.151C109.663 284.159 109.648 284.168 109.63 284.178C109.603 284.195 109.57 284.214 109.531 284.237C109.405 284.312 109.221 284.419 108.994 284.546C108.539 284.8 107.92 285.13 107.254 285.441C106.582 285.753 105.891 286.031 105.288 286.195C104.631 286.373 104.282 286.357 104.169 286.316L103.527 286.083L103.081 286.592L103.081 286.592L103.08 286.593C103.08 286.593 103.079 286.594 103.078 286.595C103.076 286.597 103.072 286.601 103.067 286.607C103.063 286.611 103.058 286.616 103.053 286.621C103.027 286.647 102.985 286.689 102.929 286.741C102.814 286.845 102.646 286.982 102.438 287.113C102.018 287.378 101.514 287.566 100.982 287.504C100.979 287.5 100.877 287.463 100.659 287.292C100.419 287.105 100.128 286.829 99.7963 286.472C99.1356 285.763 98.3915 284.82 97.6836 283.862C96.9791 282.909 96.3256 281.961 95.8473 281.249C95.6085 280.894 95.414 280.598 95.2796 280.393C95.2125 280.29 95.1603 280.209 95.1252 280.155L95.0854 280.093L95.0756 280.078L95.0732 280.074L95.0727 280.073L95.0727 280.073L95.0726 280.073L94.8814 279.773L94.544 279.662L94.544 279.662L94.5438 279.662L94.5431 279.661L94.5382 279.66L94.5162 279.652C94.4961 279.646 94.4654 279.635 94.4248 279.621C94.3436 279.593 94.2227 279.551 94.0674 279.495C93.7569 279.383 93.3098 279.217 92.7694 279.001C91.6864 278.568 90.2388 277.94 88.7683 277.158C87.2914 276.373 85.8268 275.451 84.6878 274.437C83.5365 273.413 82.8291 272.393 82.649 271.428L82.6468 271.412C82.6439 271.392 82.6395 271.36 82.6341 271.315C82.6233 271.226 82.6089 271.089 82.5961 270.912C82.5705 270.558 82.5516 270.044 82.5814 269.422C82.6411 268.175 82.8953 266.527 83.6578 264.882C84.415 263.248 85.6794 261.6 87.7951 260.329C89.8839 259.073 92.8581 258.151 97.0978 258.028C97.1049 258.031 97.1121 258.034 97.1196 258.037C97.2607 258.096 97.4705 258.186 97.7403 258.305C98.2801 258.543 99.0599 258.899 100.012 259.366C101.919 260.301 104.51 261.679 107.25 263.451C112.774 267.023 118.716 272.079 121.055 278.189C121.15 278.437 121.065 278.742 120.807 278.918Z" fill="white" stroke="#25316D" stroke-width="2"/>
<path fill-rule="evenodd" clip-rule="evenodd" d="M106.203 148.522C141.828 177.115 100.464 224.119 100.464 224.119C100.464 224.119 101.246 229.822 99.054 232.11C91.498 239.999 104.695 260.313 104.695 260.313C104.695 260.313 89.3321 270.043 84.9526 279.115C84.7442 279.547 83.5424 280.525 83.0722 280.525C83.0722 280.525 74.5878 266.537 72.7314 260.313C64.7406 233.52 65.2103 216.128 65.2103 216.128C71.3209 202.027 74.6349 193.396 81.1922 178.995C87.1578 165.883 98.3231 157.6 106.203 148.522Z" fill="#58B9FD"/>
<path fill-rule="evenodd" clip-rule="evenodd" d="M155.523 122.828C155.523 122.828 160.447 118.766 162.933 119.425L163.113 122.662C163.113 122.662 170.489 127.766 180.511 127.931C190.538 128.151 198.297 123.321 199.952 119.425C199.952 119.425 205.848 120.74 206.089 124.692C206.089 124.692 237.235 134.295 245.112 139.675C252.986 144.995 257.047 148.508 258.846 157.729C260.638 166.892 267.128 196.524 268.608 220.34C252.762 215.289 239.65 215.183 223.455 215.183C185.121 169.684 158.638 224.871 123.411 259.579C123.411 259.579 134.498 195.356 130.57 195.85C126.646 196.289 72.6809 217.266 72.6809 217.266C72.6809 217.266 71.7465 202.439 72.6809 198.267C73.6152 194.096 91.8494 149.167 96.0185 143.077C100.188 136.929 107.564 132.045 120.7 129.303C133.842 126.56 155.523 122.828 155.523 122.828Z" fill="#58B9FD"/>
<path d="M121.652 45.999C121.117 47.0648 120.714 48.171 120.32 49.2976C120.009 50.1984 119.711 51.1676 119.228 51.9924M118.193 52.7055C116.434 53.3512 114.702 54.0689 113 54.857M113.01 54.9228C113.483 55.2325 113.931 55.5674 114.433 55.8287C115.829 56.5494 117.31 57.0594 118.736 57.7064M119.454 58.886C120.129 60.6039 121.049 62.1872 121.769 63.8797M121.816 63.999C122.018 63.3722 122.324 62.7784 122.602 62.1872C123.284 60.7308 124.065 59.315 124.635 57.8077M124.635 57.889C125.354 57.4883 126.165 57.27 126.91 56.93C128.002 56.4275 129.913 55.6132 131 55.0549M121.945 46.1007C122.831 48.0264 123.727 49.9626 124.54 51.9238M124.538 52.0839C126.014 52.8654 129.482 54.0706 131 54.7733" stroke="#25316D" stroke-width="2" stroke-miterlimit="1.5" stroke-linecap="round" stroke-linejoin="round"/>
<path d="M85.5 166.999C87.5 163.499 88.3416 160.192 89.5 156.999C90.9673 152.899 93.1631 146.876 96.0004 143.499" stroke="#25316D" stroke-width="2" stroke-miterlimit="1.5" stroke-linecap="round" stroke-linejoin="round"/>
<path d="M131.859 174.748C134.899 189.083 134.443 205.363 129.773 219.305M141.362 172.734C143.244 179.165 143.499 185.84 143.477 192.502C143.484 201.041 142.675 209.701 139.766 217.794" stroke="#25316D" stroke-width="2" stroke-miterlimit="1.5" stroke-linecap="round" stroke-linejoin="round"/>
<path d="M155.795 126.873C158.516 131.098 163.177 133.679 167.734 135.435C178.973 139.715 194.76 139.221 202.814 129.122M199.874 119.41C200.546 119.41 201.224 119.52 201.869 119.685C204.164 120.452 205.327 122.32 205.896 124.512M149.527 128.19C151.276 130.605 153.183 133.074 155.401 135.05C158.308 137.631 161.838 139.549 165.477 140.866" stroke="#25316D" stroke-width="2" stroke-miterlimit="1.5" stroke-linecap="round" stroke-linejoin="round"/>
<path d="M162.918 119.77C160.443 119.824 157.268 120.921 155.93 123.171" stroke="#25316D" stroke-width="2" stroke-miterlimit="1.5" stroke-linecap="round" stroke-linejoin="round"/>
<path d="M68.971 218.009C70.851 226.47 81.1901 226.504 85.4226 228.35C90.0457 230.401 95.8856 222.028 99.999 224.999M75.5515 267.365C80.722 257.964 84.3924 254.69 97.1737 253.264" stroke="#25316D" stroke-width="2" stroke-miterlimit="1.5" stroke-linecap="round" stroke-linejoin="round"/>
<path d="M199.461 100.596L161.637 91.1953L162.577 122.218C162.577 122.218 173.586 127.955 181.379 127.859C189.606 127.758 199.461 122.489 199.461 122.489L199.461 100.596Z" fill="white"/>
<path d="M148 70.9993C152 82.9993 155 82.4993 156.5 80.4317C158.133 84.8963 160.028 89.3868 162.001 92.9993C163.501 95.7458 179.501 105.999 189.075 110.433C200.415 103.81 205.501 96.9993 208.001 94.4993C208.001 92.7498 208.75 87.5809 209.5 80.4317C209.5 77.7555 215.5 80.4317 215.5 67.9993C215.706 65.7104 213 60.4993 210.815 64.4993C210.932 62.6094 211.001 60.9061 211.001 59.4993C230.501 34.4993 208.5 28.4994 201 26.9994C200 16.4994 177.5 22.9993 170.501 29.9993C166.374 32.0968 162.382 38.5722 159.501 41.9993C155 42.4993 153.189 45.9745 151.5 49.9993C151.5 51.4993 153.037 60.3102 154 64.4993C147.5 60.9993 146.839 68.9406 148 70.9993Z" fill="white"/>
<path d="M190.923 66.9632C190.901 70.3107 191.289 73.5478 192.448 76.6755C192.732 77.4986 193.038 78.2674 193.426 78.9812C193.453 79.0359 193.819 79.6391 193.803 79.6391C193.552 79.9684 192.35 80.9988 192 80.9988C190.508 81.1086 188.899 80.9926 187.5 80.4988M181.946 64.2199C179.093 62.6283 175.668 62.6283 172.952 64.4941M206.311 65.3719C203.256 63.7257 200.021 63.6706 196.814 64.8231M195.5 90.4989C190 92.4989 184.415 90.7242 181.044 88.3099M163.111 64.8238C163.739 71.0795 158.47 64.2432 159 70.4989M171.87 55.9893C170.236 59.9401 166.821 62.7391 162.875 64.1659" stroke="#25316D" stroke-width="2" stroke-miterlimit="1.5" stroke-linecap="round" stroke-linejoin="round"/>
<path d="M159.405 72.8914C159.405 72.8914 160.93 87.7618 161.328 91.7126C161.392 92.3117 161.654 92.8722 162.072 93.3045C168.58 100.328 176.475 105.103 185.71 107.792C186.327 107.956 186.988 107.956 187.589 107.737C194.556 105.103 201.217 101.097 207.517 95.4446C208.053 94.9507 208.386 94.2921 208.446 93.5787C208.949 87.5426 211.293 59.2822 211.293 59.2822" stroke="#25316D" stroke-width="2" stroke-miterlimit="1.5" stroke-linecap="round" stroke-linejoin="round"/>
<path d="M199.641 101.591L199.105 122.335C199.105 122.335 180.144 134.295 163.768 122.335M162.107 94.0186L162.413 118.822" stroke="#25316D" stroke-width="2" stroke-miterlimit="1.5" stroke-linecap="round" stroke-linejoin="round"/>
<path d="M202.602 72.3236C202.382 72.3268 202.164 72.2862 201.961 72.2041C201.757 72.122 201.572 72.0001 201.416 71.8454C201.259 71.6907 201.135 71.5064 201.051 71.3032C200.966 71.0999 200.922 70.8818 200.922 70.6615C200.922 70.4411 200.966 70.223 201.051 70.0198C201.135 69.8166 201.26 69.6323 201.416 69.4776C201.572 69.323 201.757 69.2011 201.961 69.1191C202.165 69.037 202.383 68.9965 202.602 68.9997C203.037 69.0062 203.451 69.1842 203.756 69.4952C204.061 69.8062 204.232 70.2253 204.232 70.6618C204.232 71.0984 204.061 71.5174 203.756 71.8284C203.451 72.1393 203.036 72.3172 202.602 72.3236ZM179.656 72.3236C179.217 72.3236 178.796 72.1484 178.485 71.8367C178.175 71.525 178 71.1022 178 70.6613C178 70.2204 178.175 69.7976 178.485 69.4859C178.796 69.1742 179.217 68.999 179.656 68.999C180.09 69.0054 180.505 69.1834 180.81 69.4944C181.116 69.8055 181.287 70.2246 181.287 70.6613C181.287 71.098 181.116 71.5171 180.81 71.8281C180.505 72.1392 180.09 72.3172 179.656 72.3236Z" fill="#25316D"/>
<path fill-rule="evenodd" clip-rule="evenodd" d="M166.371 98.6416C166.371 98.6416 176.693 111.866 186.178 112.579C194.255 113.237 199.287 106.817 199.287 106.817V101.989C199.287 101.989 187.987 108.408 186.178 107.915C184.375 107.366 166.371 98.6416 166.371 98.6416Z" fill="#25316D"/>
<path d="M176.029 53.955C180.817 56.8748 185.851 59.5802 191.583 59.8304C194.238 59.9444 197.489 59.0872 197.978 55.9977M213.428 51.9463C213.743 52.6506 214.024 53.3966 214.128 54.1777C214.618 58.0095 210.808 59.3101 207.661 59.1367C202.592 58.8568 197.978 55.8838 194.799 52.0369M215.839 50.705C216.783 49.631 217.657 48.4386 218.181 47.1168C221.643 38.4971 213.463 30.9548 206.054 28.5209C202.977 27.5096 198.574 26.7148 195.567 28.371C193.401 29.5495 196.51 32.0253 198.085 31.8336C200.601 31.5197 201.371 28.2838 200.635 26.2438C200.042 24.6817 198.713 23.6741 197.211 23.022C194.275 21.7493 191.198 21.8467 188.086 22.335C181.55 23.3672 175.294 26.7113 170.121 30.6969C168.059 32.28 165.822 33.9501 164.319 36.105M160.614 41.9143C159.601 42.005 158.587 42.2245 157.644 42.5941C150.722 45.2827 152.5 54.9989 153.5 60.4989M160.125 88.499C159.877 87.7683 159.615 84.2184 157.644 79.4989C157.147 78.3095 154 86.4989 149 74.9989C144.5 59.8304 153.5 63.4989 154.5 64.9989M161.208 32.9073C160.823 34.2741 160.579 35.6098 160.544 37.0289C160.544 37.4194 160.544 37.8135 160.579 38.204C160.579 38.2424 160.649 38.5424 160.614 38.5667C160.579 38.5947 160.159 38.4027 160.125 38.3853C159.563 38.197 159.039 37.9983 158.481 37.8101C156.419 37.0918 154.182 36.4256 151.979 36.3662" stroke="#25316D" stroke-width="2" stroke-miterlimit="1.5" stroke-linecap="round" stroke-linejoin="round"/>
<path d="M153 71.9989C154.065 73.6155 154.247 74.1554 155.238 75.8178" stroke="#25316D" stroke-width="2" stroke-miterlimit="1.5" stroke-linecap="round" stroke-linejoin="round"/>
<path d="M210.012 71.2359C210 69.9352 210.025 68.6348 210.151 67.3582C210.468 64.3235 211.898 61.6741 213.531 63.7215C213.809 64.0586 214.05 64.4919 214.252 64.9736C215.822 68.8274 214.72 74.4875 212.797 77.0407C212 78.1005 210.962 78.9193 210 79.2566" stroke="#25316D" stroke-width="2" stroke-miterlimit="1.5" stroke-linecap="round" stroke-linejoin="round"/>
<path d="M299.5 167C298.3 167.4 292.667 175.166 290 179L280.5 188L299 196.5L304.5 188C306.5 188.833 312 190.6 314 191C316.5 191.5 321.5 193.5 327 191C332.5 188.5 333.74 181.059 334 179.5C334.5 176.5 332.5 176.5 326 177.5C319.576 178.488 314 173.5 315 172.5L321 166.5C323 164.5 321.5 162 320.5 161.5C319.5 161 312.5 164.5 311 165.5C309.5 166.5 301 166.5 299.5 167Z" fill="white"/>
<path d="M298.226 169.006C292.119 176.561 286.288 184.403 279.469 191.342C273.095 197.803 265.985 203.651 259.833 210.302M244.796 194.082C244.952 202.6 244.89 211.122 245.108 219.594C245.223 223.97 245.024 229.073 247.134 233.081C250.432 239.325 261.31 243.607 267.535 239.097M305 188.5C299.026 196.339 293.022 205.505 287.286 213.585C281.573 221.614 276.156 227.268 270.758 235.537M299.375 167.201C301.899 166.204 304.498 166.11 307.164 165.73C308.97 165.54 310.743 165.063 312.478 164.539C314.207 164.019 315.809 163.208 317.453 162.451C318.351 162.07 319.449 161.5 320.456 161.5C321.545 161.547 321.792 162.924 321.683 163.732C321.435 165.586 320.119 167.248 318.66 168.342M312.259 171.381C314.141 172.571 315.809 174.043 317.657 175.28C318.394 175.804 319.188 176.468 320.057 176.705C321.511 177.085 323.104 177.135 324.605 177.135C325.598 177.135 332.859 176.281 333.5 177.135C335.125 179.416 332.964 184.059 331.686 186.054C330.545 187.765 328.543 190.883 326.5 191.5C321.5 194 308.517 189.07 304.644 187.976" stroke="#25316D" stroke-width="2" stroke-miterlimit="1.5" stroke-linecap="round" stroke-linejoin="round"/>
<path fill-rule="evenodd" clip-rule="evenodd" d="M233.5 236.5C233.5 236.5 258.5 250 265 249C277.034 247.148 298.5 210 303.5 198.5C315.5 187 286.596 184.137 290.5 174.5C294.404 164.866 256 211.5 256 203.5C256 203.5 255.33 194.93 255 192C253.373 177.556 259.428 148.563 246 143C238.77 140.004 232.275 149.243 232.275 149.243L227.678 144.918C227.678 144.918 225.832 141.265 221.525 137.057C215.95 150.401 211.198 171.179 212.467 202.578L218.5 215C218.79 215.233 232.517 235.575 233.5 236.5Z" fill="#58B9FD"/>
<path d="M271.561 192.137C265.006 198.223 258.919 206.063 255.194 213.792" stroke="#25316D" stroke-width="2" stroke-miterlimit="1.5" stroke-linecap="round" stroke-linejoin="round"/>
<path d="M221.572 183C222.696 185.846 223.494 188.81 224.559 191.63C226.331 196.283 228.323 200.87 230.106 205.517" stroke="#25316D" stroke-width="2" stroke-miterlimit="1.5" stroke-linecap="round" stroke-linejoin="round"/>
<path d="M330 180.084C326.293 180.511 321.965 181.702 318.5 180.084C316.956 179.373 315.706 178.232 314.342 177.235M328.057 184.643C326.275 184.834 324.488 184.83 322.701 184.83C321.29 184.88 319.854 184.927 318.5 184.5C316.257 183.739 314.294 182.122 312.46 180.651M325.965 188.206C322.253 188.49 319.012 188.3 315.538 186.875C313.942 186.258 313.026 185.638 311.5 184.83M318.5 168.5C318.5 168.5 317.85 169.154 317.5 169.627C316.642 170.785 315.774 172.143 314.5 173" stroke="#25316D" stroke-width="2" stroke-miterlimit="1.5" stroke-linecap="round" stroke-linejoin="round"/>
<path d="M259 158.5C258 153 253.126 145.987 248.5 142.5C242.588 138.005 235.128 134.679 228 132.432" stroke="#25316D" stroke-width="2" stroke-miterlimit="1.5" stroke-linecap="round" stroke-linejoin="round"/>
<path d="M205.2 283.487L205.2 283.487L205.206 283.499C205.395 283.884 205.352 284.348 205.076 284.71C205.075 284.711 205.075 284.712 205.074 284.712L197.094 295.018H166.97L166.866 294.888L166.223 294.077C165.678 293.391 164.92 292.435 164.068 291.363C162.365 289.217 160.287 286.6 158.788 284.717L158.785 284.713C158.52 284.383 158.458 283.907 158.653 283.491C158.748 283.297 158.894 283.134 159.075 283.02C159.257 282.905 159.467 282.844 159.681 282.842C159.682 282.842 159.683 282.842 159.683 282.842L204.181 282.842H204.183C204.395 282.842 204.603 282.902 204.783 283.016C204.963 283.13 205.108 283.293 205.2 283.487ZM262.569 193.024L262.568 193.026C259.999 207.634 251.517 255.873 249.323 268.36C249.105 269.596 248.033 270.494 246.787 270.494H117.441C116.212 270.494 115.146 269.612 114.91 268.387C113.759 262.363 110.984 247.855 108.113 232.849C105.082 217.004 101.944 200.604 100.501 193.051L100.501 193.05C100.358 192.306 100.553 191.527 101.047 190.916C101.541 190.324 102.272 189.976 103.032 189.976L260.032 189.976L260.033 189.976C260.409 189.975 260.779 190.057 261.12 190.216C261.46 190.376 261.762 190.608 262.003 190.898L262.004 190.899C262.495 191.488 262.702 192.273 262.569 193.024Z" fill="white" stroke="#25316D" stroke-width="2"/>
<path d="M182.092 227.495C190.241 227.495 196.859 234.136 196.859 242.323V295.023H167.324V242.323C167.324 234.135 173.939 227.495 182.092 227.495Z" fill="white" stroke="#25316D" stroke-width="2"/>
<path fill-rule="evenodd" clip-rule="evenodd" d="M188.87 242.264C188.87 238.503 185.834 235.456 182.091 235.456C178.348 235.456 175.314 238.503 175.314 242.264V254.439C175.314 258.193 178.348 261.239 182.091 261.239C185.834 261.239 188.87 258.193 188.87 254.439V242.264Z" fill="#58B9FD"/>
<path d="M120 267.01L106.463 197.381C106.223 196.146 107.169 194.999 108.426 194.999H225" stroke="#25316D" stroke-width="2"/>
<path d="M225.332 249.981C225.692 249.981 225.986 250.273 225.986 250.638V256.875C225.986 257.24 225.692 257.532 225.332 257.532H222.875C222.511 257.532 222.221 257.24 222.221 256.875V250.638C222.221 250.273 222.511 249.981 222.875 249.981H225.332Z" fill="#686868"/>
<path d="M234.646 249.981C235.005 249.981 235.3 250.273 235.3 250.638V256.875C235.3 257.24 235.005 257.532 234.646 257.532H232.188C231.825 257.532 231.535 257.24 231.535 256.875V250.638C231.535 250.273 231.825 249.981 232.188 249.981H234.646Z" fill="#686868"/>
</svg>
