<svg width="64" height="64" viewBox="0 0 64 64" fill="none" xmlns="http://www.w3.org/2000/svg">
<path d="M31 14.4995L5 41.4995L24.999 46L49.999 17.5L31 14.4995Z" fill="white"/>
<path d="M4.87258 42.3373L31.0535 14.9297M4.87258 42.3373L5.63242 45.2127L7.10406 45.7192L8.63944 46.9871C12.4561 47.8234 20.8302 49.6185 23.793 50.1081C26.7557 50.5978 29.2758 48.403 30.1655 47.2444L31.0157 47.4567C33.6399 44.5496 39.4897 38.1075 41.8957 35.5955C44.9032 32.4554 45.9421 32.64 53.2355 30.7973C59.0703 29.3231 59.2416 20.632 58.598 16.4707M4.87258 42.3373L24.7282 46.309L50.2976 17.6905M31.0535 14.9297L39.5897 13.6753L41.0614 14.1817L42.5622 13.5757L55.9515 15.5106L56.3925 16.2166L58.598 16.4707M31.0535 14.9297L50.2976 17.6905M58.598 16.4707L50.2976 17.6905" stroke="#25316D" stroke-width="2"/>
<path d="M30.696 40.9951L47.4555 22.3196L47.4551 31.2042C47.4551 31.2042 46.5959 31.4362 45.3945 31.8594C39.6524 37.5279 30.696 46.3613 30.696 46.3613L30.696 40.9951Z" fill="#CB2027"/>
<rect x="12.5156" y="39" width="2.25421" height="1.93218" transform="rotate(15.4646 12.5156 39)" fill="#25316D"/>
<path d="M18.2362 40.0001L19.2096 42.3854L16.365 41.8071L18.2362 40.0001Z" fill="#25316D"/>
<rect x="21" y="41.1001" width="2.25421" height="2.25421" rx="1.12711" transform="rotate(-8.36037 21 41.1001)" fill="#25316D"/>
<ellipse cx="28.5111" cy="30.2672" rx="5.43099" ry="9.5" transform="rotate(38.7856 28.5111 30.2672)" fill="#CB2027"/>
<path d="M28.3692 29.4843C28.0687 29.2258 28.0534 28.7462 28.3353 28.4186C28.6171 28.091 29.0935 28.0345 29.394 28.293L29.9403 28.763C30.2408 29.0215 30.2561 29.501 29.9742 29.8286C29.6924 30.1562 29.7077 30.6358 30.0081 30.8943C30.3086 31.1528 30.7851 31.0962 31.0669 30.7686C31.8355 29.8752 31.8494 28.6434 31.2127 27.8365L31.7507 27.2111C32.0326 26.8835 32.0173 26.404 31.7168 26.1455C31.4163 25.887 30.9399 25.9435 30.6581 26.2711L30.12 26.8965C29.2271 26.3874 28.0112 26.5852 27.2426 27.4787C26.3971 28.4614 26.4429 29.9 27.3443 30.6755L27.8907 31.1455C28.1911 31.404 28.2064 31.8836 27.9246 32.2112C27.6428 32.5388 27.1663 32.5953 26.8658 32.3368L26.3195 31.8668C26.019 31.6083 26.0038 31.1288 26.2856 30.8012C26.5674 30.4736 26.5522 29.994 26.2517 29.7355C25.9512 29.477 25.4748 29.5336 25.193 29.8612C24.4243 30.7546 24.4104 31.9864 25.0471 32.7933L24.5091 33.4187C24.2273 33.7463 24.2425 34.2258 24.543 34.4843C24.8435 34.7428 25.3199 34.6863 25.6018 34.3587L26.1398 33.7333C27.0328 34.2424 28.2486 34.0446 29.0172 33.1511C29.8627 32.1684 29.8169 30.7298 28.9155 29.9543L28.3692 29.4843Z" fill="white"/>
</svg>
