<svg width="64" height="65" viewBox="0 0 64 65" fill="none" xmlns="http://www.w3.org/2000/svg">
<path d="M9.18168 32.735C8.17727 31.7306 7.7179 30.304 7.94755 28.9022L10.1588 15.4043C10.465 13.5351 11.9301 12.07 13.7993 11.7638L27.2974 9.55226C28.699 9.32284 30.1258 9.78205 31.1302 10.7865L54.4257 34.0822C56.1485 35.8051 56.1484 38.5984 54.4258 40.3214L38.7163 56.0305C36.9934 57.7534 34.2001 57.7534 32.4771 56.0305L9.18168 32.735Z" fill="white" stroke="#25316D" stroke-width="2"/>
<path fill-rule="evenodd" clip-rule="evenodd" d="M12.3817 31.5772C11.0149 30.788 10.1116 29.389 9.95498 27.8185L8.80104 16.2499C8.59215 14.1558 9.74326 12.162 11.6613 11.2958L22.257 6.5107C23.6952 5.86147 25.3586 5.94392 26.7255 6.73306L51.6184 21.105C53.963 22.4586 54.7663 25.4566 53.4126 27.8012L43.9709 44.1549C42.6172 46.4994 39.6192 47.3028 37.2746 45.9491L12.3817 31.5772ZM38.2917 30.671L36.4415 29.6029C35.9906 30.2928 35.4702 30.9093 34.8804 31.4524C34.1406 32.1169 33.4263 32.5704 32.7372 32.813L31.4767 31.1028C32.1086 30.8563 32.7424 30.4654 33.3779 29.93C33.8611 29.5229 34.279 29.0655 34.6316 28.5579L31.3113 26.6409C31.0122 26.9517 30.7018 27.2601 30.3803 27.5662C29.9472 27.9565 29.4973 28.2862 29.0304 28.5551C28.5587 28.8068 28.05 28.9425 27.5044 28.9623C26.9589 28.982 26.3745 28.812 25.7513 28.4522C25.117 28.086 24.6329 27.5882 24.2989 26.9587C23.9601 26.3119 23.8303 25.5602 23.9095 24.7035C23.9626 24.0784 24.1515 23.4087 24.4762 22.6946L22.6007 21.6119L23.3759 20.2692L25.2273 21.3381C25.5608 20.8351 25.9441 20.365 26.3772 19.928C26.946 19.354 27.5423 18.9123 28.1661 18.6029L29.4645 20.2476C28.8566 20.5808 28.3228 20.9785 27.863 21.4408C27.5485 21.7452 27.2744 22.06 27.0406 22.385L30.4136 24.3324C30.7251 24.0058 31.0449 23.6882 31.3729 23.3799C31.8012 22.9722 32.2456 22.6393 32.7062 22.3812C33.1731 22.1123 33.6762 21.9733 34.2153 21.9647C34.761 21.9447 35.3399 22.1114 35.952 22.4647C36.5751 22.8245 37.056 23.328 37.3948 23.9747C37.7288 24.6042 37.8586 25.356 37.7843 26.23C37.7227 26.8555 37.526 27.528 37.1943 28.2472L39.0668 29.3283L38.2917 30.671ZM35.5868 26.4896C35.5476 26.7074 35.477 26.9431 35.3749 27.1968L32.4299 25.4965C32.5341 25.3987 32.637 25.3053 32.7386 25.2163C33.0942 24.8831 33.4558 24.6552 33.8233 24.5326C34.1797 24.4036 34.5359 24.4419 34.892 24.6475C35.1814 24.8145 35.3925 25.0529 35.5253 25.3625C35.6471 25.6656 35.6676 26.0413 35.5868 26.4896ZM26.299 23.7471L29.2908 25.4744C29.1938 25.5679 29.0986 25.6585 29.0052 25.7461C28.6559 26.0684 28.303 26.2941 27.9467 26.4231C27.5854 26.5347 27.2268 26.4877 26.8707 26.2821C26.5702 26.1087 26.3504 25.8726 26.2112 25.574C26.0784 25.2643 26.0436 24.8877 26.1069 24.4439C26.1401 24.227 26.2042 23.9947 26.299 23.7471ZM14.163 16.0239C14.4978 15.4441 14.2991 14.7028 13.7194 14.3681C13.1396 14.0333 12.3983 14.232 12.0636 14.8117C11.7288 15.3915 11.9275 16.1329 12.5073 16.4676C13.087 16.8023 13.8283 16.6037 14.163 16.0239Z" fill="#CB2027"/>
</svg>
