<svg width="25" height="25" viewBox="0 0 25 25" fill="none" xmlns="http://www.w3.org/2000/svg">
<rect x="0.606934" y="0.245117" width="24" height="24" rx="12" fill="white"/>
<path d="M10.5851 4.16406L4.48047 20.5535H8.65419L14.7687 4.31759L10.5851 4.16406Z" fill="#25316D"/>
<path fill-rule="evenodd" clip-rule="evenodd" d="M12.6069 7.59481C10.037 7.59481 7.95361 9.67767 7.95361 12.247C7.95361 14.8164 10.037 16.8992 12.6069 16.8992C15.1769 16.8992 17.2603 14.8164 17.2603 12.247C17.2603 9.67767 15.1769 7.59481 12.6069 7.59481ZM4.23096 12.247C4.23096 7.6222 7.98101 3.87305 12.6069 3.87305C17.2329 3.87305 20.9829 7.6222 20.9829 12.247C20.9829 16.8718 17.2329 20.621 12.6069 20.621C7.98101 20.621 4.23096 16.8718 4.23096 12.247Z" fill="#CB2027"/>
<path d="M12.6206 10.6182L16.3758 20.5532H20.5515L16.9679 10.6182H12.6206Z" fill="#25316D"/>
<path d="M10.2618 4.19503L8.18945 10.8125L12.2837 10.8818L14.9971 4.22454C14.6427 4.05808 12.5412 3.53238 10.2618 4.19503Z" fill="#25316D"/>
</svg>
