<svg width="588" height="340" viewBox="0 0 588 340" fill="none" xmlns="http://www.w3.org/2000/svg">
<path d="M45 260.103H295" stroke="#25316D" stroke-width="2" stroke-linecap="round" stroke-linejoin="round"/>
<path d="M101.086 269.31L101.23 269.205L101.329 269.056C102.104 267.895 103.501 267.201 105.439 266.988C107.373 266.774 109.708 267.06 112.107 267.72C114.497 268.377 116.895 269.391 118.938 270.582C120.996 271.782 122.625 273.122 123.548 274.398C127.463 279.809 126.755 286.688 122.419 289.852C121.421 290.58 119.804 291.033 117.742 291.146C115.707 291.258 113.358 291.033 111.01 290.52C108.664 290.007 106.353 289.214 104.392 288.212C102.417 287.204 100.866 286.021 99.9566 284.764C96.0419 279.353 96.7496 272.474 101.086 269.31Z" fill="white" stroke="#25316D" stroke-width="2"/>
<path d="M123.968 288.047C122.715 286.637 120.02 283.816 119.268 283.816" stroke="#25316D" stroke-width="2"/>
<path d="M229.618 256.792C231.275 265.112 236.25 274.695 231.038 289.598C225.826 304.5 213.865 316.4 200.87 312.5C190.898 309.507 194.872 299.752 200.37 297C205.529 294.417 210.87 296 212.37 302.5C215.81 317.405 199.725 319.639 174.87 317.5C150.015 315.36 146.139 305.202 143.37 301C134.87 288.098 128.777 291.737 124.516 289.598" stroke="#303030" stroke-width="2" stroke-linecap="round"/>
<path d="M120.807 278.919L120.802 278.923C120.512 279.096 120.126 279.027 119.911 278.749C118.986 277.534 117.452 275.62 115.637 273.729C113.832 271.848 111.695 269.932 109.562 268.768L108.561 270.481C108.553 270.493 108.553 270.493 108.553 270.493L108.553 270.493L108.554 270.494L108.569 270.504C108.583 270.512 108.605 270.527 108.635 270.547C108.695 270.587 108.785 270.648 108.9 270.73C109.13 270.894 109.458 271.138 109.836 271.456C110.599 272.095 111.546 273.009 112.331 274.131C113.116 275.253 113.709 276.541 113.83 277.939C113.947 279.307 113.622 280.863 112.438 282.575C111.733 283.407 110.492 283.843 109.934 284.026L109.822 284.062L109.722 284.124L109.722 284.124L109.721 284.124L109.72 284.125L109.711 284.13L109.675 284.152C109.663 284.16 109.648 284.169 109.63 284.179C109.603 284.196 109.57 284.215 109.531 284.238C109.405 284.313 109.221 284.42 108.994 284.547C108.539 284.801 107.92 285.131 107.254 285.442C106.582 285.754 105.891 286.032 105.288 286.196C104.631 286.374 104.282 286.358 104.169 286.317L103.527 286.084L103.081 286.593L103.081 286.593L103.08 286.594C103.08 286.594 103.079 286.595 103.078 286.596C103.076 286.598 103.072 286.602 103.067 286.608C103.063 286.612 103.058 286.617 103.053 286.622C103.027 286.648 102.985 286.69 102.929 286.742C102.814 286.846 102.646 286.983 102.438 287.114C102.018 287.379 101.514 287.567 100.982 287.505C100.979 287.501 100.877 287.464 100.659 287.293C100.419 287.106 100.128 286.83 99.7963 286.473C99.1356 285.764 98.3915 284.821 97.6836 283.863C96.9791 282.91 96.3256 281.962 95.8473 281.25C95.6085 280.895 95.414 280.599 95.2796 280.394C95.2125 280.291 95.1603 280.21 95.1252 280.156L95.0854 280.094L95.0756 280.079L95.0732 280.075L95.0727 280.074L95.0727 280.074L95.0726 280.074L94.8814 279.774L94.544 279.663L94.544 279.663L94.5438 279.663L94.5431 279.662L94.5382 279.661L94.5162 279.653C94.4961 279.647 94.4654 279.636 94.4248 279.622C94.3436 279.594 94.2227 279.552 94.0674 279.496C93.7569 279.384 93.3098 279.217 92.7694 279.002C91.6864 278.569 90.2388 277.941 88.7683 277.159C87.2914 276.374 85.8268 275.452 84.6878 274.438C83.5365 273.414 82.8291 272.394 82.649 271.429L82.6468 271.413C82.6439 271.393 82.6395 271.361 82.6341 271.316C82.6233 271.227 82.6089 271.09 82.5961 270.913C82.5705 270.559 82.5516 270.045 82.5814 269.423C82.6411 268.176 82.8953 266.528 83.6578 264.883C84.415 263.248 85.6794 261.601 87.7951 260.329C89.8839 259.074 92.8581 258.152 97.0978 258.029C97.1049 258.032 97.1121 258.035 97.1196 258.038C97.2607 258.097 97.4705 258.187 97.7403 258.306C98.2801 258.544 99.0599 258.9 100.012 259.367C101.919 260.302 104.51 261.68 107.25 263.452C112.774 267.024 118.716 272.08 121.055 278.19C121.15 278.438 121.065 278.743 120.807 278.919Z" fill="white" stroke="#25316D" stroke-width="2"/>
<path fill-rule="evenodd" clip-rule="evenodd" d="M106.203 148.523C141.828 177.116 100.464 224.12 100.464 224.12C100.464 224.12 101.246 229.823 99.054 232.111C91.498 240 104.695 260.314 104.695 260.314C104.695 260.314 89.3321 270.044 84.9526 279.116C84.7442 279.548 83.5424 280.526 83.0722 280.526C83.0722 280.526 74.5878 266.538 72.7314 260.314C64.7406 233.521 65.2103 216.129 65.2103 216.129C71.3209 202.028 74.6349 193.397 81.1922 178.996C87.1578 165.884 98.3231 157.601 106.203 148.523Z" fill="#58B9FD"/>
<path fill-rule="evenodd" clip-rule="evenodd" d="M155.523 122.828C155.523 122.828 160.447 118.766 162.933 119.425L163.113 122.662C163.113 122.662 170.489 127.766 180.511 127.931C190.538 128.151 198.297 123.321 199.952 119.425C199.952 119.425 205.848 120.74 206.089 124.692C206.089 124.692 237.235 134.295 245.112 139.675C252.986 144.995 257.047 148.508 258.846 157.729C260.638 166.892 267.128 196.524 268.608 220.34C252.762 215.289 239.65 215.183 223.455 215.183C185.121 169.684 158.638 224.871 123.411 259.579C123.411 259.579 134.498 195.356 130.57 195.85C126.646 196.289 72.6809 217.266 72.6809 217.266C72.6809 217.266 71.7465 202.439 72.6809 198.267C73.6152 194.096 91.8494 149.167 96.0185 143.077C100.188 136.929 107.564 132.045 120.7 129.303C133.842 126.56 155.523 122.828 155.523 122.828Z" fill="#58B9FD"/>
<path d="M121.652 45.9995C121.117 47.0653 120.714 48.1715 120.32 49.2981C120.009 50.1989 119.711 51.1681 119.228 51.9928M118.193 52.706C116.434 53.3516 114.702 54.0694 113 54.8575M113.01 54.9233C113.483 55.233 113.931 55.5679 114.433 55.8292C115.829 56.5499 117.31 57.0599 118.736 57.7069M119.454 58.8865C120.129 60.6043 121.049 62.1877 121.769 63.8802M121.816 63.9995C122.018 63.3727 122.324 62.7789 122.602 62.1877C123.284 60.7313 124.065 59.3155 124.635 57.8082M124.635 57.8895C125.354 57.4888 126.165 57.2705 126.91 56.9305C128.002 56.428 129.913 55.6137 131 55.0554M121.945 46.1012C122.831 48.0269 123.727 49.9631 124.54 51.9243M124.538 52.0844C126.014 52.8659 129.482 54.0711 131 54.7738" stroke="#25316D" stroke-width="2" stroke-miterlimit="1.5" stroke-linecap="round" stroke-linejoin="round"/>
<path d="M85.5 167C87.5 163.5 88.3416 160.193 89.5 157C90.9673 152.9 93.1631 146.877 96.0004 143.499" stroke="#25316D" stroke-width="2" stroke-miterlimit="1.5" stroke-linecap="round" stroke-linejoin="round"/>
<path d="M131.859 174.748C134.899 189.083 134.443 205.363 129.773 219.305M141.362 172.734C143.244 179.165 143.499 185.84 143.477 192.502C143.484 201.041 142.675 209.701 139.766 217.794" stroke="#25316D" stroke-width="2" stroke-miterlimit="1.5" stroke-linecap="round" stroke-linejoin="round"/>
<path d="M155.795 126.874C158.516 131.099 163.177 133.68 167.734 135.436C178.973 139.715 194.76 139.222 202.814 129.123M199.874 119.411C200.546 119.411 201.224 119.521 201.869 119.686C204.164 120.453 205.327 122.321 205.896 124.513M149.527 128.191C151.276 130.606 153.183 133.075 155.401 135.051C158.308 137.632 161.838 139.55 165.477 140.867" stroke="#25316D" stroke-width="2" stroke-miterlimit="1.5" stroke-linecap="round" stroke-linejoin="round"/>
<path d="M162.918 119.77C160.443 119.824 157.268 120.921 155.93 123.171" stroke="#25316D" stroke-width="2" stroke-miterlimit="1.5" stroke-linecap="round" stroke-linejoin="round"/>
<path d="M68.971 218.009C70.851 226.47 81.1901 226.504 85.4226 228.35C90.0457 230.401 95.8856 222.028 99.999 224.999M75.5515 267.365C80.722 257.964 84.3924 254.69 97.1737 253.264" stroke="#25316D" stroke-width="2" stroke-miterlimit="1.5" stroke-linecap="round" stroke-linejoin="round"/>
<path d="M199.461 100.597L161.637 91.1963L162.577 122.219C162.577 122.219 173.586 127.956 181.379 127.86C189.606 127.759 199.461 122.49 199.461 122.49L199.461 100.597Z" fill="white"/>
<path d="M148 70.9998C152 82.9998 155 82.4998 156.5 80.4322C158.133 84.8968 160.028 89.3873 162.001 92.9998C163.501 95.7463 179.501 106 189.075 110.434C200.415 103.81 205.501 96.9998 208.001 94.4998C208.001 92.7503 208.75 87.5814 209.5 80.4322C209.5 77.7559 215.5 80.4322 215.5 67.9998C215.706 65.7109 213 60.4998 210.815 64.4998C210.932 62.6099 211.001 60.9066 211.001 59.4998C230.501 34.4998 208.5 28.4999 201 26.9999C200 16.4999 177.5 22.9998 170.501 29.9998C166.374 32.0973 162.382 38.5727 159.501 41.9998C155 42.4998 153.189 45.975 151.5 49.9998C151.5 51.4998 153.037 60.3107 154 64.4998C147.5 60.9998 146.839 68.9411 148 70.9998Z" fill="white"/>
<path d="M190.923 66.9641C190.901 70.3117 191.289 73.5488 192.448 76.6765C192.732 77.4996 193.038 78.2684 193.426 78.9821C193.453 79.0368 193.819 79.6401 193.803 79.6401C193.552 79.9694 192.35 80.9998 192 80.9998C190.508 81.1096 188.899 80.9936 187.5 80.4998M181.946 64.2208C179.093 62.6293 175.668 62.6293 172.952 64.4951M206.311 65.3729C203.256 63.7267 200.021 63.6716 196.814 64.824M195.5 90.4999C190 92.4999 184.415 90.7252 181.044 88.3108M163.111 64.8248C163.739 71.0805 158.47 64.2442 159 70.4999M171.87 55.9902C170.236 59.941 166.821 62.7401 162.875 64.1668" stroke="#25316D" stroke-width="2" stroke-miterlimit="1.5" stroke-linecap="round" stroke-linejoin="round"/>
<path d="M159.405 72.8919C159.405 72.8919 160.93 87.7622 161.328 91.7131C161.392 92.3122 161.654 92.8727 162.072 93.305C168.58 100.329 176.475 105.103 185.71 107.792C186.327 107.956 186.988 107.957 187.589 107.737C194.556 105.103 201.217 101.097 207.517 95.445C208.053 94.9512 208.386 94.2926 208.446 93.5792C208.949 87.5431 211.293 59.2827 211.293 59.2827" stroke="#25316D" stroke-width="2" stroke-miterlimit="1.5" stroke-linecap="round" stroke-linejoin="round"/>
<path d="M199.641 101.591L199.105 122.336C199.105 122.336 180.144 134.296 163.768 122.336M162.107 94.019L162.413 118.822" stroke="#25316D" stroke-width="2" stroke-miterlimit="1.5" stroke-linecap="round" stroke-linejoin="round"/>
<path d="M202.602 72.3246C202.382 72.3278 202.164 72.2872 201.961 72.2051C201.757 72.123 201.572 72.001 201.416 71.8464C201.259 71.6917 201.135 71.5074 201.051 71.3042C200.966 71.1009 200.922 70.8828 200.922 70.6624C200.922 70.4421 200.966 70.224 201.051 70.0208C201.135 69.8175 201.26 69.6332 201.416 69.4786C201.572 69.324 201.757 69.2021 201.961 69.1201C202.165 69.038 202.383 68.9974 202.602 69.0007C203.037 69.0072 203.451 69.1852 203.756 69.4962C204.061 69.8072 204.232 70.2262 204.232 70.6628C204.232 71.0994 204.061 71.5184 203.756 71.8294C203.451 72.1403 203.036 72.3182 202.602 72.3246ZM179.656 72.3246C179.217 72.3246 178.796 72.1494 178.485 71.8377C178.175 71.526 178 71.1031 178 70.6623C178 70.2214 178.175 69.7986 178.485 69.4869C178.796 69.1751 179.217 69 179.656 69C180.09 69.0064 180.505 69.1844 180.81 69.4954C181.116 69.8065 181.287 70.2256 181.287 70.6623C181.287 71.0989 181.116 71.5181 180.81 71.8291C180.505 72.1402 180.09 72.3181 179.656 72.3246Z" fill="#25316D"/>
<path fill-rule="evenodd" clip-rule="evenodd" d="M166.371 98.6416C166.371 98.6416 176.693 111.866 186.178 112.579C194.255 113.237 199.287 106.817 199.287 106.817V101.989C199.287 101.989 187.987 108.408 186.178 107.915C184.375 107.366 166.371 98.6416 166.371 98.6416Z" fill="#25316D"/>
<path d="M176.029 53.956C180.817 56.8757 185.851 59.5812 191.583 59.8314C194.238 59.9454 197.489 59.0882 197.978 55.9987M213.428 51.9472C213.743 52.6516 214.024 53.3976 214.128 54.1787C214.618 58.0104 210.808 59.3111 207.661 59.1377C202.592 58.8577 197.978 55.8847 194.799 52.0379M215.839 50.706C216.783 49.632 217.657 48.4396 218.181 47.1178C221.643 38.498 213.463 30.9558 206.054 28.5219C202.977 27.5105 198.574 26.7157 195.567 28.372C193.401 29.5505 196.51 32.0263 198.085 31.8345C200.601 31.5206 201.371 28.2847 200.635 26.2448C200.042 24.6827 198.713 23.6751 197.211 23.023C194.275 21.7503 191.198 21.8477 188.086 22.336C181.55 23.3681 175.294 26.7123 170.121 30.6978C168.059 32.281 165.822 33.9511 164.319 36.106M160.614 41.9153C159.601 42.006 158.587 42.2255 157.644 42.5951C150.722 45.2837 152.5 54.9999 153.5 60.4999M160.125 88.5C159.877 87.7693 159.615 84.2194 157.644 79.4999C157.147 78.3105 154 86.4999 149 74.9999C144.5 59.8314 153.5 63.4999 154.5 64.9999M161.208 32.9083C160.823 34.2751 160.579 35.6108 160.544 37.0299C160.544 37.4203 160.544 37.8145 160.579 38.205C160.579 38.2434 160.649 38.5434 160.614 38.5677C160.579 38.5957 160.159 38.4037 160.125 38.3863C159.563 38.198 159.039 37.9993 158.481 37.811C156.419 37.0928 154.182 36.4266 151.979 36.3671" stroke="#25316D" stroke-width="2" stroke-miterlimit="1.5" stroke-linecap="round" stroke-linejoin="round"/>
<path d="M153 71.9999C154.065 73.6164 154.247 74.1564 155.238 75.8188" stroke="#25316D" stroke-width="2" stroke-miterlimit="1.5" stroke-linecap="round" stroke-linejoin="round"/>
<path d="M210.012 71.2369C210 69.9362 210.025 68.6358 210.151 67.3592C210.468 64.3245 211.898 61.6751 213.531 63.7224C213.809 64.0596 214.05 64.4929 214.252 64.9746C215.822 68.8283 214.72 74.4885 212.797 77.0417C212 78.1014 210.962 78.9203 210 79.2576" stroke="#25316D" stroke-width="2" stroke-miterlimit="1.5" stroke-linecap="round" stroke-linejoin="round"/>
<path d="M299.5 167C298.3 167.4 292.667 175.166 290 179L280.5 188L299 196.5L304.5 188C306.5 188.833 312 190.6 314 191C316.5 191.5 321.5 193.5 327 191C332.5 188.5 333.74 181.059 334 179.5C334.5 176.5 332.5 176.5 326 177.5C319.576 178.488 314 173.5 315 172.5L321 166.5C323 164.5 321.5 162 320.5 161.5C319.5 161 312.5 164.5 311 165.5C309.5 166.5 301 166.5 299.5 167Z" fill="white"/>
<path d="M298.226 169.005C292.119 176.561 286.288 184.403 279.469 191.341C273.095 197.803 265.985 203.65 259.833 210.302M244.796 194.081C244.952 202.6 244.89 211.122 245.108 219.594C245.223 223.97 245.024 229.072 247.134 233.081C250.432 239.324 261.31 243.607 267.535 239.096M305 188.5C299.026 196.339 293.022 205.505 287.286 213.584C281.573 221.613 276.156 227.268 270.758 235.537M299.375 167.2C301.899 166.203 304.498 166.11 307.164 165.729C308.97 165.539 310.743 165.062 312.478 164.539C314.207 164.018 315.809 163.208 317.453 162.45C318.351 162.07 319.449 161.5 320.456 161.5C321.545 161.546 321.792 162.924 321.683 163.731C321.435 165.586 320.119 167.247 318.66 168.341M312.259 171.38C314.141 172.571 315.809 174.042 317.657 175.28C318.394 175.803 319.188 176.467 320.057 176.704C321.511 177.084 323.104 177.134 324.605 177.134C325.598 177.134 332.859 176.28 333.5 177.134C335.125 179.416 332.964 184.059 331.686 186.053C330.545 187.765 328.543 190.882 326.5 191.5C321.5 194 308.517 189.07 304.644 187.976" stroke="#25316D" stroke-width="2" stroke-miterlimit="1.5" stroke-linecap="round" stroke-linejoin="round"/>
<path fill-rule="evenodd" clip-rule="evenodd" d="M233.5 236.5C233.5 236.5 258.5 250 265 249C277.034 247.148 298.5 210 303.5 198.5C315.5 187 286.596 184.137 290.5 174.5C294.404 164.866 256 211.5 256 203.5C256 203.5 255.33 194.93 255 192C253.373 177.556 259.428 148.563 246 143C238.77 140.004 232.275 149.243 232.275 149.243L227.678 144.918C227.678 144.918 225.832 141.265 221.525 137.057C215.95 150.401 211.198 171.179 212.467 202.578L218.5 215C218.79 215.233 232.517 235.575 233.5 236.5Z" fill="#58B9FD"/>
<path d="M271.561 192.136C265.006 198.223 258.919 206.063 255.194 213.792" stroke="#25316D" stroke-width="2" stroke-miterlimit="1.5" stroke-linecap="round" stroke-linejoin="round"/>
<path d="M221.572 183C222.696 185.845 223.494 188.809 224.559 191.63C226.331 196.283 228.323 200.87 230.106 205.516" stroke="#25316D" stroke-width="2" stroke-miterlimit="1.5" stroke-linecap="round" stroke-linejoin="round"/>
<path d="M330 180.083C326.293 180.511 321.965 181.701 318.5 180.083C316.956 179.373 315.706 178.232 314.342 177.235M328.057 184.643C326.275 184.833 324.488 184.83 322.701 184.83C321.29 184.88 319.854 184.927 318.5 184.5C316.257 183.739 314.294 182.121 312.46 180.65M325.965 188.206C322.253 188.489 319.012 188.299 315.538 186.875C313.942 186.257 313.026 185.637 311.5 184.83M318.5 168.5C318.5 168.5 317.85 169.153 317.5 169.626C316.642 170.785 315.774 172.142 314.5 173" stroke="#25316D" stroke-width="2" stroke-miterlimit="1.5" stroke-linecap="round" stroke-linejoin="round"/>
<path d="M259 158.499C258 152.999 253.126 145.987 248.5 142.499C242.588 138.005 235.128 134.679 228 132.431" stroke="#25316D" stroke-width="2" stroke-miterlimit="1.5" stroke-linecap="round" stroke-linejoin="round"/>
<path d="M205.2 283.488L205.2 283.488L205.206 283.5C205.395 283.885 205.352 284.349 205.076 284.711C205.075 284.712 205.075 284.713 205.074 284.713L197.094 295.019H166.97L166.866 294.889L166.223 294.078C165.678 293.392 164.92 292.436 164.068 291.364C162.365 289.218 160.287 286.601 158.788 284.718L158.785 284.714C158.52 284.384 158.458 283.908 158.653 283.492C158.748 283.298 158.894 283.135 159.075 283.021C159.257 282.906 159.467 282.845 159.681 282.843C159.682 282.843 159.683 282.843 159.683 282.843L204.181 282.843H204.183C204.395 282.843 204.603 282.903 204.783 283.017C204.963 283.131 205.108 283.294 205.2 283.488ZM262.569 193.025L262.568 193.027C259.999 207.635 251.517 255.874 249.323 268.361C249.105 269.597 248.033 270.495 246.787 270.495H117.441C116.212 270.495 115.146 269.613 114.91 268.388C113.759 262.364 110.984 247.856 108.113 232.85C105.082 217.005 101.944 200.605 100.501 193.052L100.501 193.051C100.358 192.307 100.553 191.528 101.047 190.917C101.541 190.325 102.272 189.977 103.032 189.977L260.032 189.977L260.033 189.977C260.409 189.976 260.779 190.058 261.12 190.217C261.46 190.377 261.762 190.609 262.003 190.899L262.004 190.9C262.495 191.489 262.702 192.274 262.569 193.025Z" fill="white" stroke="#25316D" stroke-width="2"/>
<path d="M182.092 227.496C190.241 227.496 196.859 234.137 196.859 242.324V295.024H167.324V242.324C167.324 234.136 173.939 227.496 182.092 227.496Z" fill="white" stroke="#25316D" stroke-width="2"/>
<path fill-rule="evenodd" clip-rule="evenodd" d="M188.87 242.265C188.87 238.504 185.834 235.457 182.091 235.457C178.348 235.457 175.314 238.504 175.314 242.265V254.44C175.314 258.194 178.348 261.24 182.091 261.24C185.834 261.24 188.87 258.194 188.87 254.44V242.265Z" fill="#58B9FD"/>
<path d="M120 267.011L106.463 197.382C106.223 196.147 107.169 195 108.426 195H225" stroke="#25316D" stroke-width="2"/>
<path d="M225.332 249.983C225.692 249.983 225.986 250.274 225.986 250.64V256.877C225.986 257.242 225.692 257.533 225.332 257.533H222.875C222.511 257.533 222.221 257.242 222.221 256.877V250.64C222.221 250.274 222.511 249.983 222.875 249.983H225.332Z" fill="#686868"/>
<path d="M234.646 249.983C235.005 249.983 235.3 250.274 235.3 250.64V256.877C235.3 257.242 235.005 257.533 234.646 257.533H232.188C231.825 257.533 231.535 257.242 231.535 256.877V250.64C231.535 250.274 231.825 249.983 232.188 249.983H234.646Z" fill="#686868"/>
<path d="M414.792 246L402.968 246C399.672 246 397 243.328 397 240.032L397 213.409C397 211.739 397.7 210.145 398.93 209.014L499.07 116.986C500.3 115.855 501 114.261 501 112.591L501 85.9683C501 82.6721 498.328 80 495.032 80L483.42 80" stroke="#303030" stroke-width="2" stroke-linecap="round" stroke-linejoin="round" stroke-dasharray="3.49 5.49"/>
<path fill-rule="evenodd" clip-rule="evenodd" d="M448.831 204.182C425.242 204.182 406.12 185.06 406.12 161.472C406.12 137.884 425.242 118.762 448.831 118.762C472.419 118.762 491.541 137.884 491.541 161.472C491.541 185.06 472.419 204.182 448.831 204.182Z" fill="white"/>
<path d="M407.12 161.472C407.12 184.508 425.795 203.182 448.831 203.182C471.867 203.182 490.541 184.508 490.541 161.472C490.541 138.436 471.867 119.762 448.831 119.762C425.795 119.762 407.12 138.436 407.12 161.472Z" stroke="#25316D" stroke-width="2"/>
<path d="M446.799 157.837C444.561 157.837 442.731 156.137 442.731 154.06C442.731 151.982 444.561 150.283 446.799 150.283H450.866C453.104 150.283 454.934 151.982 454.934 154.06C454.934 156.137 456.764 157.837 459.002 157.837C461.239 157.837 463.069 156.137 463.069 154.06C463.069 148.394 458.595 143.862 452.9 142.917V138.951C452.9 136.874 451.07 135.174 448.832 135.174C446.595 135.174 444.765 136.874 444.765 138.951V142.917C439.07 143.862 434.596 148.394 434.596 154.06C434.596 160.292 440.087 165.391 446.799 165.391H450.866C453.104 165.391 454.934 167.091 454.934 169.168C454.934 171.246 453.104 172.945 450.866 172.945H446.799C444.561 172.945 442.731 171.246 442.731 169.168C442.731 167.091 440.901 165.391 438.663 165.391C436.426 165.391 434.596 167.091 434.596 169.168C434.596 174.834 439.07 179.366 444.765 180.311V184.277C444.765 186.354 446.595 188.054 448.832 188.054C451.07 188.054 452.9 186.354 452.9 184.277V180.311C458.595 179.366 463.069 174.834 463.069 169.168C463.069 162.936 457.578 157.837 450.866 157.837H446.799Z" fill="#CB2027"/>
<g clip-path="url(#clip0_977_12734)">
<path d="M432.139 234C433.339 228.4 432.639 222.334 432.139 220H441.139C443.639 220 444.639 220 447.639 219C450.639 218 450.139 220 453.639 220H459.639C461.639 220 466.139 219.334 468.139 219V258H477.139V263.5C477.139 266.3 474.472 268 473.139 268.5C463.472 268.334 442.739 268.1 437.139 268.5C430.139 269 431.139 263.5 431.139 262.5C431.139 261.5 430.639 241 432.139 234Z" fill="white"/>
<path d="M453.244 236.212H450.644M438.609 236.212H442.631M446.762 236.212H449.534" stroke="#25316D" stroke-width="2" stroke-linecap="round"/>
<path d="M460.066 242H454.914M438.609 242H444.631M451.631 242H447.926" stroke="#25316D" stroke-width="2" stroke-linecap="round"/>
<path d="M460.079 248.524L454.631 248.524M438.609 248.524H442.38M451.254 248.524L446.131 248.524" stroke="#25316D" stroke-width="2" stroke-linecap="round"/>
<path d="M439.051 229V230.552L441.362 229L442.101 230.552L443.672 229L444.24 230.552L445.983 229L446.268 230.552M450.1 230.552L450.097 229L452.128 230.552L452.408 229" stroke="#25316D" stroke-width="2" stroke-linecap="round" stroke-linejoin="round"/>
<path d="M477.265 258.244H441.143" stroke="#25316D" stroke-width="2" stroke-linecap="round"/>
<path d="M473.265 267.999H437.143" stroke="#25316D" stroke-width="2" stroke-linecap="round"/>
<path d="M431.145 257.999V262.999C431.145 265.76 433.383 267.999 436.145 267.999C438.906 267.999 441.145 265.76 441.145 262.999V257.999" stroke="#25316D" stroke-width="2"/>
<path d="M472.145 267.999C474.906 267.999 477.145 265.76 477.145 262.999V257.999" stroke="#25316D" stroke-width="2"/>
<path d="M431.143 258C431.269 250.17 432.75 234.437 432.75 229.508C432.75 226.482 431.449 219 431.449 219L433.753 219.887C435.235 220.458 436.877 220.458 438.36 219.887V219.887C439.842 219.316 441.484 219.316 442.967 219.887V219.887C444.449 220.458 446.091 220.458 447.574 219.887V219.887C449.056 219.316 450.698 219.316 452.181 219.887V219.887C453.664 220.458 455.316 220.454 456.798 219.883V219.883C458.268 219.317 459.905 219.313 461.374 219.879V219.879C462.868 220.455 464.525 220.444 466.012 219.851L468.143 219C468.143 228.179 468.143 248.807 468.143 258" stroke="#25316D" stroke-width="2"/>
<path d="M457.859 227.172C457.859 232.853 462.465 237.458 468.146 237.458C473.826 237.458 478.432 232.853 478.432 227.172C478.432 221.491 473.826 216.886 468.146 216.886C462.465 216.886 457.859 221.491 457.859 227.172Z" fill="white" stroke="#25316D" stroke-width="2"/>
<path d="M468.006 223.618C468.056 223.466 468.271 223.466 468.32 223.618L469.217 226.38C469.239 226.448 469.303 226.494 469.374 226.494H472.279C472.438 226.494 472.505 226.698 472.375 226.792L470.026 228.5C469.968 228.541 469.944 228.616 469.966 228.684L470.863 231.446C470.913 231.598 470.739 231.724 470.61 231.63L468.26 229.923C468.202 229.881 468.124 229.881 468.066 229.923L465.717 231.63C465.587 231.724 465.414 231.598 465.463 231.446L466.361 228.684C466.383 228.616 466.358 228.541 466.301 228.5L463.951 226.792C463.822 226.698 463.888 226.494 464.048 226.494H466.952C467.024 226.494 467.087 226.448 467.109 226.38L468.006 223.618Z" fill="#58B9FD"/>
<path d="M471.876 222.135C471.925 221.983 472.14 221.983 472.189 222.135L472.365 222.677C472.387 222.745 472.451 222.791 472.522 222.791H473.092C473.252 222.791 473.318 222.996 473.189 223.089L472.728 223.425C472.67 223.467 472.646 223.541 472.668 223.609L472.844 224.151C472.893 224.303 472.72 224.429 472.591 224.335L472.129 224C472.071 223.958 471.993 223.958 471.936 224L471.474 224.335C471.345 224.429 471.171 224.303 471.221 224.151L471.397 223.609C471.419 223.541 471.395 223.467 471.337 223.425L470.876 223.089C470.747 222.996 470.813 222.791 470.972 222.791H471.543C471.614 222.791 471.677 222.745 471.699 222.677L471.876 222.135Z" fill="#58B9FD"/>
<path d="M464.3 222.135C464.349 221.983 464.564 221.983 464.613 222.135L464.789 222.677C464.811 222.745 464.874 222.791 464.946 222.791H465.516C465.676 222.791 465.742 222.996 465.613 223.089L465.152 223.425C465.094 223.467 465.07 223.541 465.092 223.609L465.268 224.151C465.317 224.303 465.144 224.429 465.014 224.335L464.553 224C464.495 223.958 464.417 223.958 464.359 224L463.898 224.335C463.769 224.429 463.595 224.303 463.644 224.151L463.821 223.609C463.843 223.541 463.819 223.467 463.761 223.425L463.299 223.089C463.17 222.996 463.237 222.791 463.396 222.791H463.967C464.038 222.791 464.101 222.745 464.123 222.677L464.3 222.135Z" fill="#58B9FD"/>
<path d="M473.941 231.496L473.941 231.496L472.865 233.642L470.492 234.002C470.422 234.013 470.354 234.035 470.291 234.067C470.291 234.067 470.291 234.067 470.291 234.067L468.159 235.171L466.027 234.067C466.027 234.067 466.027 234.067 466.027 234.067C465.965 234.035 465.897 234.013 465.827 234.002L463.453 233.642L462.378 231.496L461.931 231.72L462.378 231.496C462.346 231.433 462.304 231.375 462.254 231.325L462.254 231.325L460.545 229.639L460.936 227.271C460.948 227.201 460.948 227.13 460.936 227.06L460.545 224.691L462.254 223.005L461.902 222.649L462.254 223.005C462.304 222.955 462.346 222.897 462.378 222.834L461.931 222.61L462.378 222.834L463.453 220.688L465.827 220.328L465.752 219.835L465.827 220.328C465.897 220.318 465.965 220.295 466.027 220.263L466.027 220.263L468.159 219.159L470.291 220.263C470.354 220.295 470.422 220.318 470.492 220.328L472.865 220.688L473.941 222.834L473.941 222.834C473.973 222.897 474.014 222.955 474.065 223.005C474.065 223.005 474.065 223.005 474.065 223.005L475.774 224.691L475.382 227.06C475.371 227.13 475.371 227.201 475.382 227.271L475.774 229.639L474.065 231.325C474.065 231.325 474.065 231.325 474.065 231.325C474.014 231.375 473.973 231.433 473.941 231.496ZM475.904 224.82C475.904 224.819 475.904 224.819 475.904 224.819L475.904 224.82Z" stroke="#CB2027"/>
<path d="M474.997 229.453L474.997 229.453L474.653 231.829L472.514 232.919C472.451 232.951 472.393 232.993 472.344 233.044C472.344 233.044 472.344 233.044 472.344 233.044L470.669 234.763L468.297 234.387C468.297 234.387 468.297 234.387 468.297 234.387C468.228 234.376 468.156 234.377 468.087 234.389L465.72 234.795L464.023 233.097L463.67 233.451L464.023 233.097C463.973 233.047 463.915 233.006 463.852 232.974L463.852 232.974L461.699 231.912L461.324 229.541C461.313 229.471 461.29 229.404 461.257 229.341L460.139 227.216L461.23 225.077L460.785 224.85L461.23 225.077C461.262 225.014 461.284 224.947 461.294 224.877L460.799 224.805L461.294 224.877L461.638 222.501L463.778 221.411L463.552 220.967L463.778 221.411C463.841 221.379 463.898 221.337 463.948 221.286L463.948 221.286L465.623 219.567L467.994 219.943C468.064 219.954 468.135 219.953 468.205 219.941L470.571 219.535L472.268 221.233L472.268 221.233C472.318 221.283 472.376 221.324 472.439 221.356C472.439 221.356 472.439 221.356 472.439 221.356L474.593 222.418L474.968 224.789C474.979 224.859 475.001 224.926 475.034 224.989L476.152 227.114L475.061 229.252C475.061 229.252 475.061 229.252 475.061 229.253C475.029 229.316 475.008 229.383 474.997 229.453ZM474.757 222.498C474.757 222.498 474.756 222.498 474.756 222.498L474.757 222.498Z" stroke="#CB2027"/>
</g>
<path d="M426.415 99.3662C426.641 90.7294 427.902 68.7003 427.991 67.1563C427.995 67.0961 427.992 67.0407 427.985 66.9808L426.834 57.6858C426.76 57.0894 427.226 56.563 427.827 56.563H435.909L444.479 57.6631C447.966 58.1106 451.495 58.108 454.981 57.6552L462.26 56.7096C462.859 56.6319 463.389 57.09 463.389 57.6935V98.1575C463.389 99.0486 461.882 100.454 460.991 100.476C456.709 100.582 447.686 101.002 441.889 99.063C436.496 97.2593 431.341 99.3866 427.57 100.311C426.96 100.46 426.398 99.9934 426.415 99.3662Z" fill="white"/>
<path d="M453.896 73.7769L447.896 73.7769M433.875 73.7769H437.896M442.027 73.7769H444.8" stroke="#25316D" stroke-width="2" stroke-linecap="round"/>
<path d="M455.331 79.5635H450.179M433.875 79.5635H439.896M446.896 79.5635H443.192" stroke="#25316D" stroke-width="2" stroke-linecap="round"/>
<path d="M433.875 86.0879H437.646" stroke="#25316D" stroke-width="2" stroke-linecap="round"/>
<path d="M454.893 92.0396C454.893 92.0396 453.492 93.835 452.393 93.5396C451.45 93.2862 450.893 91.5396 450.893 91.5396L448.893 93.0396" stroke="#25316D" stroke-width="2" stroke-linecap="round"/>
<path d="M434.316 66.5635V68.1163L436.627 66.5635L437.367 68.1163L438.938 66.5635L439.506 68.1163L441.249 66.5635L441.534 68.1163M445.365 68.1163L445.363 66.5635L447.394 68.1163L447.673 66.5635L449.394 68.1163L450.394 66.5635L451.394 68.1163L452.394 66.5635" stroke="#25316D" stroke-width="2" stroke-linecap="round" stroke-linejoin="round"/>
<path d="M463.391 73.063C463.391 66.1107 463.391 61.5271 463.391 57.7011C463.391 57.0977 462.861 56.6319 462.262 56.7096L454.983 57.6552C451.497 58.108 447.968 58.1106 444.481 57.6631L435.911 56.563H427.829C427.228 56.563 426.762 57.0894 426.836 57.6858L427.987 66.9808C427.994 67.0407 427.997 67.0961 427.993 67.1563C427.904 68.7003 426.643 90.7294 426.417 99.3662C426.4 99.9934 426.962 100.46 427.572 100.311C431.343 99.3866 436.498 97.2593 441.891 99.063C447.688 101.002 456.71 100.582 460.993 100.476C461.883 100.454 463.391 99.0388 463.391 98.1477C463.391 96.9283 463.391 95.5538 463.391 94.063" stroke="#25316D" stroke-width="2" stroke-linecap="round"/>
<path d="M474.418 75.7379L470.168 71.5379L471.568 70.1379C471.951 69.7546 472.422 69.5629 472.98 69.5629C473.538 69.5629 474.009 69.7546 474.393 70.1379L475.793 71.5379C476.176 71.9212 476.376 72.3837 476.393 72.9254C476.409 73.4671 476.226 73.9296 475.843 74.3129L474.418 75.7379ZM472.968 77.2129L460.643 89.9632H456.393V85.7132L468.718 72.9629L472.968 77.2129Z" fill="#CB2027"/>
<path d="M474.418 75.7379L470.168 71.5379L471.568 70.1379C471.951 69.7546 472.422 69.5629 472.98 69.5629C473.538 69.5629 474.009 69.7546 474.393 70.1379L475.793 71.5379C476.176 71.9212 476.376 72.3837 476.393 72.9254C476.409 73.4671 476.226 73.9296 475.843 74.3129L474.418 75.7379ZM472.968 77.2129L460.643 89.9632H456.393V85.7132L468.718 72.9629L472.968 77.2129Z" stroke="#25316D" stroke-width="2"/>
<defs>
<clipPath id="clip0_977_12734">
<rect width="64" height="64" fill="white" transform="translate(422 211)"/>
</clipPath>
</defs>
</svg>
