<svg width="588" height="340" viewBox="0 0 588 340" fill="none" xmlns="http://www.w3.org/2000/svg">
<path d="M45 261.079H295" stroke="#25316D" stroke-width="2" stroke-linecap="round" stroke-linejoin="round"/>
<path d="M101.086 270.285L101.23 270.18L101.329 270.032C102.104 268.87 103.501 268.177 105.439 267.963C107.373 267.75 109.708 268.035 112.107 268.695C114.497 269.353 116.895 270.366 118.938 271.558C120.996 272.758 122.625 274.097 123.548 275.373C127.463 280.784 126.755 287.663 122.419 290.828C121.421 291.555 119.804 292.008 117.742 292.122C115.707 292.234 113.358 292.008 111.01 291.495C108.664 290.982 106.353 290.189 104.392 289.187C102.417 288.179 100.866 286.996 99.9566 285.74C96.0419 280.329 96.7496 273.45 101.086 270.285Z" fill="white" stroke="#25316D" stroke-width="2"/>
<path d="M123.968 289.022C122.715 287.612 120.02 284.792 119.268 284.792" stroke="#25316D" stroke-width="2"/>
<path d="M229.617 257.792C231.274 266.112 236.249 275.696 231.037 290.598C225.825 305.5 213.864 317.401 200.869 313.5C190.897 310.507 194.871 300.752 200.369 298C205.528 295.418 210.869 297 212.369 303.5C215.809 318.405 199.724 320.64 174.869 318.5C150.014 316.36 146.138 306.202 143.369 302C134.869 289.098 128.776 292.737 124.515 290.598" stroke="#303030" stroke-width="2" stroke-linecap="round"/>
<path d="M120.808 279.895L120.803 279.899C120.513 280.072 120.127 280.003 119.912 279.725C118.987 278.51 117.453 276.596 115.638 274.705C113.833 272.824 111.696 270.907 109.563 269.744L108.562 271.456C108.554 271.469 108.554 271.469 108.554 271.469L108.554 271.469L108.555 271.47L108.57 271.479C108.584 271.488 108.606 271.503 108.636 271.523C108.696 271.562 108.786 271.624 108.901 271.706C109.131 271.869 109.459 272.114 109.837 272.432C110.6 273.071 111.547 273.985 112.332 275.107C113.117 276.229 113.71 277.517 113.831 278.915C113.948 280.282 113.622 281.838 112.439 283.551C111.734 284.383 110.493 284.818 109.935 285.002L109.823 285.038L109.723 285.1L109.723 285.1L109.722 285.1L109.721 285.101L109.712 285.106L109.676 285.128C109.664 285.136 109.649 285.145 109.631 285.155C109.604 285.171 109.571 285.191 109.532 285.214C109.406 285.289 109.222 285.396 108.995 285.522C108.54 285.777 107.921 286.107 107.255 286.417C106.583 286.73 105.892 287.008 105.289 287.172C104.632 287.35 104.283 287.334 104.17 287.293L103.528 287.06L103.082 287.568L103.082 287.568L103.081 287.569C103.081 287.57 103.08 287.571 103.079 287.571C103.077 287.574 103.073 287.578 103.068 287.583C103.064 287.587 103.059 287.592 103.054 287.598C103.028 287.624 102.986 287.666 102.93 287.717C102.815 287.821 102.647 287.959 102.439 288.09C102.019 288.354 101.515 288.543 100.983 288.481C100.98 288.477 100.878 288.44 100.66 288.269C100.42 288.082 100.129 287.805 99.7973 287.449C99.1366 286.739 98.3925 285.797 97.6846 284.839C96.9801 283.886 96.3266 282.937 95.8483 282.226C95.6094 281.87 95.415 281.575 95.2806 281.369C95.2134 281.266 95.1613 281.186 95.1261 281.131L95.0864 281.07L95.0766 281.054L95.0742 281.051L95.0737 281.05L95.0736 281.05L95.0736 281.05L94.8824 280.75L94.545 280.638L94.545 280.638L94.5448 280.638L94.5441 280.638L94.5392 280.637L94.5172 280.629C94.4971 280.622 94.4664 280.612 94.4258 280.598C94.3446 280.57 94.2236 280.528 94.0684 280.472C93.7579 280.36 93.3108 280.193 92.7704 279.977C91.6874 279.545 90.2398 278.917 88.7692 278.135C87.2924 277.35 85.8278 276.428 84.6888 275.414C83.5375 274.389 82.8301 273.37 82.65 272.405L82.6477 272.389C82.6449 272.369 82.6404 272.336 82.6351 272.292C82.6243 272.203 82.6099 272.066 82.5971 271.889C82.5715 271.535 82.5526 271.02 82.5824 270.399C82.6421 269.152 82.8963 267.504 83.6588 265.858C84.416 264.224 85.6804 262.577 87.796 261.305C89.8849 260.05 92.8591 259.128 97.0987 259.004C97.1058 259.007 97.1131 259.01 97.1206 259.014C97.2617 259.073 97.4714 259.163 97.7413 259.282C98.281 259.52 99.0609 259.875 100.013 260.343C101.92 261.278 104.511 262.656 107.251 264.428C112.775 268 118.717 273.056 121.056 279.166C121.151 279.414 121.066 279.719 120.808 279.895Z" fill="white" stroke="#25316D" stroke-width="2"/>
<path fill-rule="evenodd" clip-rule="evenodd" d="M106.204 149.499C141.83 178.091 100.466 225.096 100.466 225.096C100.466 225.096 101.247 230.798 99.0555 233.087C91.4995 240.975 104.696 261.29 104.696 261.29C104.696 261.29 89.3336 271.019 84.954 280.091C84.7456 280.523 83.5439 281.502 83.0736 281.502C83.0736 281.502 74.5893 267.514 72.7329 261.29C64.7421 234.497 65.2117 217.105 65.2117 217.105C71.3224 203.004 74.6364 194.373 81.1937 179.971C87.1592 166.86 98.3245 158.577 106.204 149.499Z" fill="#58B9FD"/>
<path fill-rule="evenodd" clip-rule="evenodd" d="M155.525 123.804C155.525 123.804 160.449 119.743 162.935 120.401L163.115 123.638C163.115 123.638 170.491 128.742 180.513 128.907C190.54 129.127 198.299 124.297 199.954 120.401C199.954 120.401 205.85 121.716 206.091 125.668C206.091 125.668 237.237 135.271 245.114 140.652C252.988 145.971 257.049 149.484 258.848 158.705C260.64 167.868 267.13 197.5 268.61 221.316C252.764 216.265 239.652 216.159 223.457 216.159C185.123 170.66 158.64 225.847 123.413 260.556C123.413 260.556 134.5 196.333 130.572 196.826C126.648 197.265 72.6829 218.242 72.6829 218.242C72.6829 218.242 71.7485 203.415 72.6828 199.243C73.6171 195.072 91.8513 150.143 96.0205 144.053C100.19 137.905 107.566 133.021 120.702 130.279C133.844 127.536 155.525 123.804 155.525 123.804Z" fill="#58B9FD"/>
<path d="M121.652 46.9753C121.117 48.0411 120.714 49.1473 120.32 50.2739C120.009 51.1747 119.711 52.1439 119.228 52.9687M118.193 53.6818C116.434 54.3275 114.702 55.0452 113 55.8333M113.01 55.8991C113.483 56.2088 113.931 56.5438 114.433 56.805C115.829 57.5257 117.31 58.0357 118.736 58.6827M119.454 59.8623C120.129 61.5802 121.049 63.1636 121.769 64.856M121.816 64.9753C122.018 64.3485 122.324 63.7547 122.602 63.1636C123.284 61.7071 124.065 60.2914 124.635 58.7841M124.635 58.8654C125.354 58.4646 126.165 58.2463 126.91 57.9063C128.002 57.4039 129.913 56.5895 131 56.0312M121.945 47.077C122.831 49.0027 123.727 50.9389 124.54 52.9002M124.538 53.0603C126.014 53.8418 129.482 55.0469 131 55.7496" stroke="#25316D" stroke-width="2" stroke-miterlimit="1.5" stroke-linecap="round" stroke-linejoin="round"/>
<path d="M85.5 167.975C87.5 164.475 88.3416 161.169 89.5 157.975C90.9673 153.875 93.1631 147.853 96.0004 144.475" stroke="#25316D" stroke-width="2" stroke-miterlimit="1.5" stroke-linecap="round" stroke-linejoin="round"/>
<path d="M131.86 175.724C134.899 190.058 134.443 206.339 129.774 220.28M141.362 173.71C143.245 180.14 143.499 186.816 143.477 193.477C143.484 202.016 142.676 210.677 139.767 218.77" stroke="#25316D" stroke-width="2" stroke-miterlimit="1.5" stroke-linecap="round" stroke-linejoin="round"/>
<path d="M155.795 127.849C158.516 132.075 163.177 134.655 167.734 136.412C178.974 140.691 194.76 140.198 202.814 130.099M199.874 120.387C200.547 120.387 201.224 120.497 201.869 120.662C204.164 121.429 205.328 123.297 205.896 125.488M149.528 129.167C151.276 131.582 153.183 134.051 155.402 136.027C158.309 138.607 161.839 140.526 165.478 141.843" stroke="#25316D" stroke-width="2" stroke-miterlimit="1.5" stroke-linecap="round" stroke-linejoin="round"/>
<path d="M162.92 120.745C160.445 120.8 157.27 121.897 155.932 124.147" stroke="#25316D" stroke-width="2" stroke-miterlimit="1.5" stroke-linecap="round" stroke-linejoin="round"/>
<path d="M68.9724 218.985C70.8525 227.446 81.1916 227.48 85.4241 229.326C90.0472 231.377 95.887 223.004 100 225.975M75.553 268.341C80.7235 258.94 84.3939 255.666 97.1752 254.24" stroke="#25316D" stroke-width="2" stroke-miterlimit="1.5" stroke-linecap="round" stroke-linejoin="round"/>
<path d="M199.46 101.573L161.636 92.1719L162.576 123.195C162.576 123.195 173.585 128.931 181.378 128.836C189.605 128.735 199.46 123.466 199.46 123.466L199.46 101.573Z" fill="white"/>
<path d="M148 71.9753C152 83.9753 155 83.4753 156.5 81.4078C158.132 85.8724 160.027 90.3629 162 93.9754C163.5 96.7219 179.5 106.975 189.074 111.409C200.415 104.786 205.5 97.9754 208 95.4754C208 93.7259 208.75 88.557 209.5 81.4078C209.5 78.7315 215.5 81.4078 215.5 68.9753C215.706 66.6865 213 61.4753 210.814 65.4753C210.931 63.5854 211 61.8822 211 60.4754C230.5 35.4754 208.499 29.4755 201 27.9755C200 17.4755 177.5 23.9754 170.5 30.9754C166.374 33.0729 162.381 39.5483 159.5 42.9754C155 43.4753 153.189 46.9506 151.5 50.9753C151.5 52.4753 153.037 61.2863 154 65.4753C147.5 61.9753 146.839 69.9167 148 71.9753Z" fill="white"/>
<path d="M190.924 67.9396C190.902 71.2872 191.29 74.5243 192.448 77.652C192.732 78.4751 193.038 79.2439 193.426 79.9576C193.453 80.0123 193.82 80.6155 193.803 80.6155C193.552 80.9448 192.35 81.9753 192 81.9753C190.509 82.085 188.899 81.9691 187.5 81.4753M181.946 65.1963C179.094 63.6047 175.668 63.6047 172.952 65.4705M206.311 66.3484C203.256 64.7021 200.022 64.6471 196.814 65.7995M195.5 91.4753C190 93.4753 184.416 91.7006 181.045 89.2863M163.111 65.8002C163.739 72.056 158.47 65.2196 159 71.4753M171.87 56.9657C170.236 60.9165 166.821 63.7156 162.876 65.1423" stroke="#25316D" stroke-width="2" stroke-miterlimit="1.5" stroke-linecap="round" stroke-linejoin="round"/>
<path d="M159.406 73.8675C159.406 73.8675 160.93 88.7378 161.329 92.6886C161.393 93.2878 161.654 93.8482 162.072 94.2806C168.58 101.304 176.476 106.079 185.71 108.768C186.328 108.932 186.989 108.932 187.59 108.713C194.557 106.079 201.218 102.073 207.518 96.4206C208.053 95.9268 208.387 95.2682 208.447 94.5548C208.949 88.5186 211.293 60.2583 211.293 60.2583" stroke="#25316D" stroke-width="2" stroke-miterlimit="1.5" stroke-linecap="round" stroke-linejoin="round"/>
<path d="M199.64 102.566L199.104 123.311C199.104 123.311 180.144 135.271 163.767 123.311M162.106 94.9944L162.412 119.797" stroke="#25316D" stroke-width="2" stroke-miterlimit="1.5" stroke-linecap="round" stroke-linejoin="round"/>
<path d="M202.602 73.2999C202.382 73.3031 202.164 73.2625 201.961 73.1804C201.757 73.0983 201.572 72.9764 201.416 72.8217C201.259 72.6671 201.135 72.4828 201.051 72.2795C200.966 72.0762 200.922 71.8581 200.922 71.6378C200.922 71.4175 200.966 71.1993 201.051 70.9961C201.135 70.7929 201.26 70.6086 201.416 70.454C201.572 70.2993 201.757 70.1774 201.961 70.0954C202.165 70.0134 202.383 69.9728 202.602 69.976C203.037 69.9825 203.451 70.1605 203.756 70.4715C204.061 70.7825 204.232 71.2016 204.232 71.6382C204.232 72.0747 204.061 72.4938 203.756 72.8047C203.451 73.1156 203.036 73.2935 202.602 73.2999ZM179.656 73.2999C179.217 73.2999 178.796 73.1248 178.485 72.813C178.175 72.5013 178 72.0785 178 71.6376C178 71.1967 178.175 70.7739 178.485 70.4622C178.796 70.1505 179.217 69.9753 179.656 69.9753C180.09 69.9818 180.505 70.1597 180.81 70.4708C181.116 70.7818 181.287 71.2009 181.287 71.6376C181.287 72.0743 181.116 72.4934 180.81 72.8045C180.505 73.1155 180.09 73.2935 179.656 73.2999Z" fill="#25316D"/>
<path fill-rule="evenodd" clip-rule="evenodd" d="M166.371 99.6174C166.371 99.6174 176.693 112.842 186.179 113.555C194.255 114.213 199.288 107.793 199.288 107.793V102.965C199.288 102.965 187.988 109.384 186.179 108.89C184.376 108.341 166.371 99.6174 166.371 99.6174Z" fill="#25316D"/>
<path d="M176.029 54.9315C180.817 57.8512 185.851 60.5566 191.583 60.8069C194.238 60.9208 197.489 60.0636 197.978 56.9742M213.428 52.9227C213.743 53.627 214.024 54.373 214.128 55.1542C214.618 58.9859 210.808 60.2866 207.661 60.1132C202.592 59.8332 197.978 56.8602 194.799 53.0134M215.839 51.6815C216.783 50.6075 217.657 49.415 218.181 48.0933C221.643 39.4735 213.463 31.9312 206.054 29.4973C202.977 28.486 198.574 27.6912 195.567 29.3474C193.401 30.526 196.51 33.0018 198.085 32.81C200.601 32.4961 201.371 29.2602 200.635 27.2202C200.042 25.6582 198.713 24.6506 197.211 23.9985C194.275 22.7258 191.198 22.8231 188.086 23.3115C181.55 24.3436 175.294 27.6877 170.121 31.6733C168.059 33.2564 165.822 34.9265 164.319 37.0815M160.614 42.8907C159.601 42.9814 158.587 43.2009 157.644 43.5706C150.722 46.2592 152.5 55.9753 153.5 61.4753M160.125 89.4755C159.877 88.7447 159.615 85.1949 157.644 80.4753C157.147 79.286 154 87.4753 149 75.9753C144.5 60.8069 153.5 64.4753 154.5 65.9753M161.208 33.8837C160.823 35.2506 160.579 36.5862 160.544 38.0053C160.544 38.3958 160.544 38.79 160.579 39.1804C160.579 39.2188 160.649 39.5188 160.614 39.5431C160.579 39.5711 160.159 39.3791 160.125 39.3618C159.563 39.1735 159.039 38.9748 158.481 38.7865C156.419 38.0683 154.182 37.4021 151.979 37.3426" stroke="#25316D" stroke-width="2" stroke-miterlimit="1.5" stroke-linecap="round" stroke-linejoin="round"/>
<path d="M153 72.9753C154.066 74.5919 154.247 75.1319 155.239 76.7943" stroke="#25316D" stroke-width="2" stroke-miterlimit="1.5" stroke-linecap="round" stroke-linejoin="round"/>
<path d="M210.012 72.2123C210 70.9115 210.025 69.6111 210.151 68.3346C210.468 65.2998 211.898 62.6504 213.531 64.6978C213.809 65.0349 214.05 65.4682 214.252 65.9499C215.822 69.8037 214.72 75.4638 212.797 78.017C212 79.0768 210.962 79.8956 210 80.2329" stroke="#25316D" stroke-width="2" stroke-miterlimit="1.5" stroke-linecap="round" stroke-linejoin="round"/>
<path d="M299.5 167.975C298.3 168.375 292.667 176.142 290 179.975L280.5 188.975L299 197.475L304.5 188.975C306.5 189.809 312 191.575 314 191.975C316.5 192.475 321.5 194.475 327 191.975C332.5 189.475 333.74 182.035 334 180.475C334.5 177.475 332.5 177.475 326 178.475C319.576 179.464 314 174.475 315 173.475L321 167.475C323 165.475 321.5 162.975 320.5 162.475C319.5 161.975 312.5 165.475 311 166.475C309.5 167.475 301 167.475 299.5 167.975Z" fill="white"/>
<path d="M298.226 169.981C292.119 177.537 286.288 185.379 279.469 192.317C273.095 198.779 265.985 204.626 259.833 211.278M244.796 195.057C244.952 203.576 244.89 212.098 245.108 220.569C245.223 224.946 245.024 230.048 247.134 234.057C250.432 240.3 261.31 244.583 267.535 240.072M305 189.475C299.026 197.315 293.022 206.481 287.286 214.56C281.573 222.589 276.156 228.243 270.758 236.513M299.375 168.176C301.899 167.179 304.498 167.085 307.164 166.705C308.97 166.515 310.743 166.038 312.478 165.514C314.207 164.994 315.809 164.183 317.453 163.426C318.351 163.046 319.449 162.475 320.456 162.475C321.545 162.522 321.792 163.9 321.683 164.707C321.435 166.562 320.119 168.223 318.66 169.317M312.259 172.356C314.141 173.547 315.809 175.018 317.657 176.255C318.394 176.779 319.188 177.443 320.057 177.68C321.511 178.06 323.104 178.11 324.605 178.11C325.598 178.11 332.859 177.256 333.5 178.11C335.125 180.392 332.964 185.034 331.686 187.029C330.545 188.741 328.543 191.858 326.5 192.475C321.5 194.975 308.517 190.046 304.644 188.952" stroke="#25316D" stroke-width="2" stroke-miterlimit="1.5" stroke-linecap="round" stroke-linejoin="round"/>
<path fill-rule="evenodd" clip-rule="evenodd" d="M233.5 237.475C233.5 237.475 258.5 250.975 265 249.975C277.034 248.124 298.5 210.975 303.5 199.475C315.5 187.975 286.596 185.112 290.5 175.475C294.404 165.842 256 212.475 256 204.475C256 204.475 255.33 195.905 255 192.975C253.373 178.532 259.428 149.539 246 143.975C238.77 140.979 232.275 150.218 232.275 150.218L227.678 145.893C227.678 145.893 225.832 142.24 221.525 138.032C215.95 151.376 211.198 172.155 212.467 203.553L218.5 215.975C218.79 216.208 232.517 236.55 233.5 237.475Z" fill="#58B9FD"/>
<path d="M271.561 193.112C265.006 199.199 258.919 207.039 255.194 214.768" stroke="#25316D" stroke-width="2" stroke-miterlimit="1.5" stroke-linecap="round" stroke-linejoin="round"/>
<path d="M221.572 183.975C222.696 186.821 223.494 189.785 224.559 192.606C226.331 197.258 228.323 201.845 230.106 206.492" stroke="#25316D" stroke-width="2" stroke-miterlimit="1.5" stroke-linecap="round" stroke-linejoin="round"/>
<path d="M330 181.059C326.293 181.486 321.965 182.677 318.5 181.059C316.956 180.349 315.706 179.208 314.342 178.21M328.057 185.619C326.275 185.809 324.488 185.806 322.701 185.806C321.29 185.856 319.854 185.902 318.5 185.475C316.257 184.715 314.294 183.097 312.46 181.626M325.965 189.181C322.253 189.465 319.012 189.275 315.538 187.85C313.942 187.233 313.026 186.613 311.5 185.806M318.5 169.475C318.5 169.475 317.85 170.129 317.5 170.602C316.642 171.761 315.774 173.118 314.5 173.975" stroke="#25316D" stroke-width="2" stroke-miterlimit="1.5" stroke-linecap="round" stroke-linejoin="round"/>
<path d="M259 159.475C258 153.975 253.126 146.963 248.5 143.475C242.588 138.98 235.128 135.655 228 133.407" stroke="#25316D" stroke-width="2" stroke-miterlimit="1.5" stroke-linecap="round" stroke-linejoin="round"/>
<path d="M205.2 284.463L205.2 284.463L205.206 284.475C205.395 284.86 205.352 285.324 205.076 285.687C205.075 285.687 205.075 285.688 205.074 285.689L197.094 295.995H166.97L166.866 295.864L166.223 295.054C165.678 294.367 164.92 293.412 164.068 292.339C162.365 290.193 160.287 287.577 158.788 285.693L158.785 285.689C158.52 285.359 158.458 284.883 158.653 284.467C158.748 284.273 158.894 284.11 159.075 283.996C159.257 283.881 159.467 283.82 159.681 283.819C159.682 283.819 159.683 283.819 159.683 283.819L204.181 283.819H204.183C204.395 283.818 204.603 283.878 204.783 283.992C204.963 284.106 205.108 284.269 205.2 284.463ZM262.569 194L262.568 194.003C259.999 208.61 251.517 256.85 249.323 269.336C249.105 270.573 248.033 271.47 246.787 271.47H117.441C116.212 271.47 115.146 270.589 114.91 269.364C113.759 263.34 110.984 248.832 108.113 233.826C105.082 217.981 101.944 201.581 100.501 194.027L100.501 194.026C100.358 193.283 100.553 192.503 101.047 191.893C101.541 191.301 102.272 190.952 103.032 190.952L260.032 190.952L260.033 190.952C260.409 190.951 260.779 191.033 261.12 191.193C261.46 191.352 261.762 191.585 262.003 191.874L262.004 191.875C262.495 192.464 262.702 193.249 262.569 194Z" fill="white" stroke="#25316D" stroke-width="2"/>
<path d="M182.091 228.471C190.24 228.471 196.858 235.112 196.858 243.299V295.999H167.323V243.299C167.323 235.112 173.938 228.471 182.091 228.471Z" fill="white" stroke="#25316D" stroke-width="2"/>
<path fill-rule="evenodd" clip-rule="evenodd" d="M188.87 243.241C188.87 239.479 185.834 236.432 182.091 236.432C178.348 236.432 175.314 239.479 175.314 243.241V255.415C175.314 259.169 178.348 262.216 182.091 262.216C185.834 262.216 188.87 259.169 188.87 255.415V243.241Z" fill="#58B9FD"/>
<path d="M120 267.986L106.463 198.357C106.223 197.122 107.169 195.975 108.426 195.975H225" stroke="#25316D" stroke-width="2"/>
<path d="M225.332 250.958C225.692 250.958 225.986 251.25 225.986 251.615V257.852C225.986 258.217 225.692 258.509 225.332 258.509H222.875C222.511 258.509 222.221 258.217 222.221 257.852V251.615C222.221 251.25 222.511 250.958 222.875 250.958H225.332Z" fill="#686868"/>
<path d="M234.646 250.958C235.005 250.958 235.3 251.25 235.3 251.615V257.852C235.3 258.217 235.005 258.509 234.646 258.509H232.188C231.825 258.509 231.535 258.217 231.535 257.852V251.615C231.535 251.25 231.825 250.958 232.188 250.958H234.646Z" fill="#686868"/>
<line x1="464.958" y1="101.738" x2="464.958" y2="234.362" stroke="#303030" stroke-width="2" stroke-linecap="round" stroke-dasharray="5.71 5.71"/>
<path d="M424.86 111.802C445.753 123.021 397.483 226.486 445.026 234.476" stroke="#303030" stroke-width="2" stroke-linecap="round" stroke-dasharray="5.71 5.71"/>
<path d="M502.159 142.127C483.888 150.573 526.099 228.461 484.524 234.476" stroke="#303030" stroke-width="2" stroke-linecap="round" stroke-dasharray="5.71 5.71"/>
<path d="M405.703 244.236L419.382 227.427L463.578 231.63L456.212 247.388L405.703 244.236Z" fill="white" stroke="#25316D" stroke-width="2" stroke-linejoin="round"/>
<path d="M413.068 271.662L412.967 272.657C412.456 272.605 412.068 272.175 412.068 271.662H413.068ZM412.068 245.287C412.068 244.735 412.516 244.287 413.068 244.287C413.62 244.287 414.068 244.735 414.068 245.287H412.068ZM412.068 271.662V245.287H414.068V271.662H412.068ZM463.476 277.799L412.967 272.657L413.169 270.667L463.679 275.809L463.476 277.799Z" fill="#25316D"/>
<path d="M521.454 244.236L507.774 227.427L463.578 231.63L470.944 247.388L521.454 244.236Z" fill="white" stroke="#25316D" stroke-width="2" stroke-linejoin="round"/>
<path d="M514.088 271.662L514.19 272.657C514.7 272.605 515.088 272.175 515.088 271.662H514.088ZM515.088 245.287C515.088 244.735 514.641 244.287 514.088 244.287C513.536 244.287 513.088 244.735 513.088 245.287H515.088ZM515.088 271.662V245.287H513.088V271.662H515.088ZM463.68 277.799L514.19 272.657L513.987 270.667L463.478 275.809L463.68 277.799Z" fill="#25316D"/>
<path d="M463.578 276.971V231.934" stroke="#25316D" stroke-width="2" stroke-linecap="round"/>
<path d="M484.523 269.248C486.792 269.248 488.631 267.412 488.631 265.147C488.631 262.882 486.792 261.046 484.523 261.046C482.254 261.046 480.415 262.882 480.415 265.147C480.415 267.412 482.254 269.248 484.523 269.248Z" fill="#CB2027"/>
<path d="M495.046 268.197C497.315 268.197 499.154 266.361 499.154 264.096C499.154 261.831 497.315 259.995 495.046 259.995C492.777 259.995 490.938 261.831 490.938 264.096C490.938 266.361 492.777 268.197 495.046 268.197Z" fill="#CB2027"/>
<path d="M505.569 267.147C507.838 267.147 509.677 265.311 509.677 263.046C509.677 260.781 507.838 258.944 505.569 258.944C503.3 258.944 501.461 260.781 501.461 263.046C501.461 265.311 503.3 267.147 505.569 267.147Z" fill="#CB2027"/>
<path d="M430.515 254.742L426.977 258.274L430.515 261.806" stroke="#CB2027" stroke-width="2" stroke-linecap="round" stroke-linejoin="round"/>
<path d="M445.338 256.843L448.876 260.373L445.338 263.903" stroke="#CB2027" stroke-width="2" stroke-linecap="round" stroke-linejoin="round"/>
<path d="M439.695 255.792L436.157 262.857" stroke="#CB2027" stroke-width="2" stroke-linecap="round" stroke-linejoin="round"/>
<path fill-rule="evenodd" clip-rule="evenodd" d="M461.599 91.1406C462.151 91.1406 462.599 91.5883 462.599 92.1406V95.3592C462.599 95.9115 462.151 96.3592 461.599 96.3592C461.047 96.3592 460.599 95.9115 460.599 95.3592V92.1406C460.599 91.5883 461.047 91.1406 461.599 91.1406Z" fill="#CB2027"/>
<path fill-rule="evenodd" clip-rule="evenodd" d="M466.756 91.1406C467.309 91.1406 467.756 91.5883 467.756 92.1406V95.3592C467.756 95.9115 467.309 96.3592 466.756 96.3592C466.204 96.3592 465.756 95.9115 465.756 95.3592V92.1406C465.756 91.5883 466.204 91.1406 466.756 91.1406Z" fill="#CB2027"/>
<path fill-rule="evenodd" clip-rule="evenodd" d="M464.156 91.1406C464.708 91.1406 465.156 91.5883 465.156 92.1406V97.7731C465.156 98.3254 464.708 98.7731 464.156 98.7731C463.603 98.7731 463.156 98.3254 463.156 97.7731V92.1406C463.156 91.5883 463.603 91.1406 464.156 91.1406Z" fill="#CB2027"/>
<path fill-rule="evenodd" clip-rule="evenodd" d="M468.077 90.7646C468.764 90.7646 469.406 90.4184 469.753 89.8353C469.947 89.5101 470.133 89.185 470.313 88.8593L474.533 91.6134C475.111 91.991 475.895 91.6858 476.055 91.0209L477.319 85.7518C477.397 85.4279 477.303 85.0868 477.069 84.8465L473.277 80.5619C474.735 73.1223 472.314 66.2896 465.371 60.3491C464.674 59.7531 463.638 59.7531 462.941 60.3491C455.978 66.3068 453.543 73.0429 455.027 80.5046L454.264 81.282L451.244 84.8465C451.009 85.0868 450.915 85.4276 450.993 85.7518L452.258 91.0209C452.418 91.6858 453.201 91.991 453.78 91.6134L457.999 88.8593C458.179 89.185 458.365 89.5101 458.559 89.8353C458.906 90.4184 459.549 90.7646 460.235 90.7646H468.077Z" fill="white"/>
<path fill-rule="evenodd" clip-rule="evenodd" d="M469.389 90.2747C469.531 90.1492 469.654 90.0019 469.753 89.8353C469.947 89.5101 470.133 89.185 470.313 88.8593L474.533 91.6134C475.111 91.991 475.895 91.6858 476.055 91.0209L477.319 85.7518C477.397 85.4279 477.303 85.0868 477.069 84.8465L473.277 80.5619C474.735 73.1223 472.314 66.2896 465.371 60.3491C464.674 59.7531 463.638 59.7531 462.941 60.3491C455.978 66.3068 453.543 73.0429 455.027 80.5046L454.264 81.282L451.244 84.8465C451.009 85.0868 450.915 85.4276 450.993 85.7518L452.258 91.0209C452.418 91.6858 453.201 91.991 453.78 91.6134L457.999 88.8593C458.179 89.185 458.365 89.5101 458.559 89.8353C458.658 90.0019 458.782 90.1492 458.923 90.2747C459.277 90.588 459.745 90.7646 460.235 90.7646H468.077C468.567 90.7646 469.035 90.588 469.389 90.2747ZM460.249 88.7646H468.063C468.236 88.4738 468.402 88.1835 468.562 87.8933L469.602 86.0071L474.443 89.1665L475.249 85.808L471.124 81.1472L471.314 80.1771C472.611 73.5631 470.556 67.4562 464.156 61.942C457.728 67.4796 455.671 73.4914 456.989 80.1143L457.195 81.1516L455.742 82.6311L453.061 85.796L453.87 89.1665L458.71 86.0071L459.751 87.8933C459.911 88.1835 460.077 88.4738 460.249 88.7646ZM475.374 85.285C475.374 85.2855 475.375 85.2844 475.374 85.285Z" fill="#25316D"/>
<path d="M460.652 72.2145C460.652 74.1196 462.221 75.6641 464.156 75.6641C466.091 75.6641 467.66 74.1196 467.66 72.2145C467.66 70.3092 466.091 68.7646 464.156 68.7646C462.221 68.7646 460.652 70.3092 460.652 72.2145Z" fill="#CB2027"/>
<path d="M437.692 105.795C437.692 113.288 431.495 119.396 423.81 119.396C416.126 119.396 409.929 113.288 409.929 105.795C409.929 98.3011 416.126 92.1938 423.81 92.1938C431.495 92.1938 437.692 98.3011 437.692 105.795Z" fill="#CB2027" stroke="#25316D" stroke-width="2"/>
<path fill-rule="evenodd" clip-rule="evenodd" d="M436.88 105.821C436.88 112.952 431.036 118.733 423.827 118.733C416.618 118.733 410.774 112.952 410.774 105.821C410.774 98.6896 416.618 92.9084 423.827 92.9084C431.036 92.9084 436.88 98.6896 436.88 105.821ZM421.594 102.786C421.594 103.503 422.181 104.089 422.899 104.089H424.204C426.358 104.089 428.12 105.848 428.12 107.999C428.12 109.953 426.684 111.517 424.857 111.843V113.211C424.857 113.928 424.269 114.514 423.552 114.514C422.834 114.514 422.246 113.928 422.246 113.211V111.843C420.419 111.517 418.983 109.953 418.983 107.999C418.983 107.282 419.57 106.696 420.288 106.696C421.006 106.696 421.594 107.282 421.594 107.999C421.594 108.715 422.181 109.302 422.899 109.302H424.204C424.922 109.302 425.509 108.715 425.509 107.999C425.509 107.282 424.922 106.696 424.204 106.696H422.899C420.745 106.696 418.983 104.936 418.983 102.786C418.983 100.831 420.419 99.2676 422.246 98.9418V97.5735C422.246 96.8567 422.834 96.2703 423.552 96.2703C424.269 96.2703 424.857 96.8567 424.857 97.5735V98.9418C426.684 99.2676 428.12 100.831 428.12 102.786C428.12 103.503 427.533 104.089 426.815 104.089C426.097 104.089 425.509 103.503 425.509 102.786C425.509 102.069 424.922 101.483 424.204 101.483H422.899C422.181 101.483 421.594 102.069 421.594 102.786Z" fill="white"/>
<path d="M502.193 122.935L502.047 123.94C501.912 124.865 501.329 125.663 500.49 126.074C499.516 126.55 498.355 126.428 497.502 125.76L497.345 125.637C496.135 124.69 494.41 124.785 493.312 125.86C492.289 126.86 492.095 128.435 492.843 129.654L493.156 130.165C493.545 130.799 493.66 131.563 493.476 132.283C493.206 133.342 492.334 134.14 491.255 134.316L491.109 134.34C489.68 134.572 488.631 135.807 488.631 137.254C488.631 138.702 489.68 139.936 491.109 140.169L491.41 140.218C492.409 140.381 493.238 141.078 493.571 142.033C493.86 142.862 493.737 143.78 493.239 144.503L492.988 144.868C492.165 146.065 492.322 147.681 493.361 148.697C494.431 149.744 496.112 149.837 497.291 148.914L497.451 148.789C498.347 148.087 499.548 147.911 500.608 148.326L500.933 148.453C501.945 148.849 502.676 149.747 502.858 150.818L502.928 151.227C503.141 152.48 504.227 153.396 505.498 153.396C506.768 153.396 507.854 152.48 508.067 151.227L508.137 150.818C508.319 149.747 509.05 148.849 510.062 148.453L510.577 148.251C511.503 147.889 512.554 148.103 513.264 148.798C514.246 149.759 515.816 149.759 516.797 148.798L516.926 148.673C517.929 147.691 518.017 146.107 517.128 145.02L516.92 144.766C516.208 143.895 516.029 142.704 516.455 141.662L516.561 141.404C516.977 140.386 517.893 139.657 518.978 139.48L519.507 139.394C520.731 139.195 521.631 138.137 521.631 136.896C521.631 135.655 520.731 134.597 519.507 134.397L519.202 134.347C518.015 134.154 517.072 133.248 516.831 132.07L516.722 131.536C516.576 130.821 516.645 130.079 516.921 129.403L517.331 128.4C517.714 127.464 517.492 126.39 516.769 125.683C515.803 124.738 514.242 124.755 513.276 125.7C512.566 126.394 511.503 126.619 510.577 126.257L510.167 126.097C509.094 125.677 508.328 124.713 508.161 123.573L508.068 122.935C507.855 121.477 506.605 120.396 505.131 120.396C503.657 120.396 502.406 121.477 502.193 122.935Z" fill="white" stroke="#CB2027" stroke-width="2"/>
<circle cx="505.131" cy="136.896" r="6.5" stroke="#CB2027" stroke-width="2"/>
<path fill-rule="evenodd" clip-rule="evenodd" d="M348.181 136.244L366.501 145.619L404.523 136.748L408.163 138.566L376.487 150.73L406.692 166.187L402.881 167.609L366.015 154.752L346.803 162.129C345.525 162.5 344 158.607 345.525 158.607C346.75 158.042 348.908 157.029 352.44 155.34C354.978 154.126 356.335 152.809 356.979 151.6L356.706 151.505C357.063 151.108 357.389 150.489 357.473 149.718C357.472 148.942 357.213 148.293 356.899 147.86L357.181 147.794C356.669 146.523 355.46 145.071 353.065 143.594C349.732 141.539 347.694 140.303 346.536 139.611C345.525 139.007 346.803 136.244 348.181 136.244ZM361.908 149.914C361.841 151.166 362.803 152.235 364.055 152.302C365.308 152.369 366.377 151.407 366.443 150.155C366.51 148.902 365.549 147.833 364.296 147.766C363.044 147.7 361.974 148.661 361.908 149.914Z" fill="#25316D"/>
<path d="M349 134C349 138.971 344.971 143 340 143C335.029 143 331 138.971 331 134C331 129.029 335.029 125 340 125C344.971 125 349 129.029 349 134ZM335.2 134C335.2 136.651 337.349 138.8 340 138.8C342.651 138.8 344.8 136.651 344.8 134C344.8 131.349 342.651 129.2 340 129.2C337.349 129.2 335.2 131.349 335.2 134Z" fill="#25316D"/>
<path d="M349 163C349 167.971 344.971 172 340 172C335.029 172 331 167.971 331 163C331 158.029 335.029 154 340 154C344.971 154 349 158.029 349 163ZM335.2 163C335.2 165.651 337.349 167.8 340 167.8C342.651 167.8 344.8 165.651 344.8 163C344.8 160.349 342.651 158.2 340 158.2C337.349 158.2 335.2 160.349 335.2 163Z" fill="#25316D"/>
</svg>
