<svg width="422" height="465" viewBox="0 0 422 465" fill="none" xmlns="http://www.w3.org/2000/svg">
<path opacity="0.4" d="M421 266.5C421 376.129 442.5 465 222.5 465C-2.00043 465 23.9997 376.129 23.9997 266.5C23.9997 156.871 112.871 68 222.5 68C332.128 68 421 156.871 421 266.5Z" fill="white"/>
<path d="M187 147C186.256 137.703 191.217 135.176 194.329 135.001C194.735 134.978 195.114 134.756 195.295 134.393C201.017 122.908 211.365 118.017 216.851 116.73C217.451 116.589 217.993 117.064 218.124 117.666C218.371 118.796 218.952 119.815 219.591 121.691C219.809 122.333 220.582 122.612 221.152 122.246C235.183 113.233 238.604 117.552 242.5 119.5C245.445 120.973 243.251 126.794 241.454 130.181C241.206 130.647 241.347 131.221 241.826 131.441C243.719 132.314 247 133.292 247 135C247 142.686 242.405 145.929 239.324 146.812C238.854 146.946 238.5 147.358 238.5 147.847V153.773C238.5 154.636 239.623 155.173 240.474 155.032C242.115 154.761 244.149 155.678 245.5 160C247.414 166.126 240.624 170.298 236.532 171.813C236.202 171.935 235.953 172.21 235.877 172.553L234.071 180.68C234.025 180.888 233.914 181.076 233.753 181.216L230.39 184.159C230.146 184.373 230.02 184.692 230.054 185.016L230.898 193.033C230.955 193.571 230.573 194.057 230.036 194.129L216.111 195.985C216.037 195.995 215.963 195.997 215.888 195.99L205.909 195.083C205.394 195.036 205 194.604 205 194.087V184.945C205 184.662 204.88 184.392 204.669 184.202L200.27 180.243C200.095 180.086 199.983 179.874 199.947 179.643C199.572 177.222 198.641 173 197.5 173C196 173 192 171 190 170.5C188 170 187 165 187 162.5C187 160.526 188.948 158.715 189.96 158.027C189.274 158.438 187.784 156.805 187 147Z" fill="white"/>
<path fill-rule="evenodd" clip-rule="evenodd" d="M145.966 290.678C149.996 290.612 152.734 287.774 154.96 284.734C158.367 280.084 161.207 275.056 164.504 270.34C165.881 268.373 167.347 266.451 168.729 264.484C168.977 264.125 170.034 262.785 169.725 262.539C168.156 261.331 167.18 261.13 165.316 260.527C164.857 260.394 164.401 260.236 163.945 260.08C163.865 260.058 163.548 259.902 163.467 259.924C163.402 259.947 163.282 260.349 163.257 260.394C163.029 260.907 162.788 261.421 162.557 261.914C161.688 263.836 160.828 265.758 159.913 267.657C158.82 269.936 150.481 284.98 143.369 288.578C142.003 289.249 140.3 289.361 138.794 289.226C137.926 289.158 137.048 289.025 136.234 288.711M182.166 363.097C184.207 361.376 186.727 360.192 189.031 358.851C189.745 358.426 190.461 358.002 191.199 357.599C191.578 357.376 191.98 357.107 192.428 357.04C193.166 356.951 193.948 357.263 194.641 357.487C195.714 357.866 196.786 358.225 197.837 358.672C198.173 358.828 198.641 358.962 198.955 359.185C199 359.208 198.864 359.253 198.819 359.298C198.731 359.386 198.618 359.476 198.53 359.565C198.216 359.833 197.927 360.102 197.613 360.371C196.741 361.13 195.847 361.891 194.909 362.605C192.159 364.728 189.277 366.695 186.526 368.841" fill="#DAE8F1"/>
<path fill-rule="evenodd" clip-rule="evenodd" d="M173.785 372.082C176.626 370.473 179.569 369.043 182.362 367.345C183.084 366.919 184.037 366.584 184.69 366.069C184.697 366.069 184.313 365.601 184.279 365.579C183.83 365.064 183.319 364.617 182.847 364.125C182.091 363.343 181.335 362.561 180.565 361.801C180.261 361.489 179.505 360.863 179.505 360.863C179.505 360.863 172.494 365.042 170.715 366.763M174.64 373.893C166.877 381.693 163.929 393.83 165.03 404.111C165.511 408.581 166.758 413.03 168.47 417.188C168.533 417.344 168.168 417.879 168.079 418.037C167.505 419.02 166.034 419.824 165.03 420.339C164.083 420.831 163.028 417.746 162.679 416.964C160.942 413.007 159.313 408.782 158.756 404.491C157.536 395.059 159.818 385.784 164.051 377.402C165.743 374.049 167.827 370.205 170.866 367.88M263.528 342.065C273.608 345.552 283.622 349.216 293.724 352.658C296.049 353.464 298.418 354.112 300.721 354.917C301.302 355.118 301.882 355.319 302.442 355.565C302.51 355.61 302.912 355.743 302.912 355.811C302.955 356.303 302.307 357.331 302.128 357.823C301.726 359.074 301.972 359.745 301.57 360.974C301.435 361.444 301.347 362.114 301.078 362.539C301.011 362.65 300.855 362.404 300.721 362.338C300.52 362.225 300.319 362.137 300.118 362.024C299.447 361.712 298.776 361.444 298.083 361.197C295.983 360.438 293.792 359.924 291.646 359.343C287.913 358.336 272.625 352.882 268.646 351.43C266.053 350.49 263.417 349.865 260.757 349.128" fill="#DAE8F1"/>
<path fill-rule="evenodd" clip-rule="evenodd" d="M250.273 340.948C253.045 342.423 255.974 343.629 258.857 344.859C259.594 345.171 260.332 345.485 261.069 345.819C261.182 345.865 261.74 346.043 261.762 346.133C261.807 346.244 261.695 346.513 261.672 346.624C261.561 347.138 261.449 347.674 261.338 348.189C260.891 350.133 258.968 354.56 258.857 354.515C258.007 354.135 257.135 353.844 256.263 353.575C252.911 352.48 249.246 351.988 246.072 350.402" fill="#DAE8F1"/>
<path fill-rule="evenodd" clip-rule="evenodd" d="M231.476 327.559C236.528 330.152 241.758 332.431 246.966 334.667C248.329 335.247 249.693 335.805 251.034 336.433C251.258 336.544 252.263 336.857 252.353 337.081C252.441 337.305 252.017 338.064 251.906 338.31C251.481 339.428 250.966 340.545 250.542 341.684C250.23 342.49 249.939 343.317 249.648 344.121C249.625 344.189 249.401 344.859 249.379 344.859C249.022 344.792 248.464 344.166 248.128 343.965C247.077 343.384 245.959 342.892 244.842 342.468C240.731 340.948 236.796 339.159 232.84 337.282C231.119 336.476 229.353 335.785 227.699 334.868" fill="#DAE8F1"/>
<path fill-rule="evenodd" clip-rule="evenodd" d="M152.274 288.846C173.492 298.413 194.127 309.141 214.198 320.854C218.02 323.065 220.926 324.497 224.86 326.507C225.285 326.731 230.202 329.726 230.224 329.748C230.604 330.531 228.883 335.046 228.571 335.918C228.436 336.32 228.28 337.37 227.945 337.684C227.923 337.707 225.106 336.052 223.385 335.136C218.401 332.499 213.148 330.419 208.186 327.738C202.978 324.944 198.083 321.658 193.054 318.573C186.461 314.528 179.677 310.817 173.164 306.616C165.037 301.386 157.285 295.529 149.234 290.165M300.138 283.101C302.731 285.985 306.308 289.651 308.097 293.115C309.416 295.685 310.421 298.323 310.891 301.207C314.175 321.949 286.974 330.531 272.044 336.187C265.138 338.802 262.299 339.717 256.174 342.467C254.833 343.071 252.419 342.825 250.408 341.282C249.313 340.433 251.212 338.511 251.458 337.147C251.569 336.544 249.089 335.604 249.514 335.337C255.906 331.291 264.4 328.632 270.077 326.731C279.173 323.67 287.89 321.256 295.804 315.713C299.648 313.008 300.899 307.644 301.793 302.815C302.442 299.328 301.301 295.529 300.138 292.266C299.043 289.271 297.591 286.678 295.804 284.063" fill="#DAE8F1"/>
<path fill-rule="evenodd" clip-rule="evenodd" d="M344.641 248.95C340.192 251.967 335.408 255.432 331.072 258.65C319.763 267.054 307.493 274.966 294.685 280.845C290.148 282.945 286.616 285.493 281.99 282.297L284.425 284.89C292.271 288.892 303.536 281.604 313.37 275.526C320.322 271.21 327.341 266.831 333.979 262.025C337.644 259.364 341.488 256.817 345.065 254.023C345.131 253.978 345.266 253.867 345.422 253.754L345.533 253.912C348.932 250.737 352.419 247.586 355.301 243.92C361.046 236.612 364.936 227.783 365.873 218.507C366.298 214.282 367.996 210.527 368.735 206.37C368.913 205.387 368.958 204.18 368.735 203.196C368.735 203.129 368.041 202.235 367.996 202.257C366.79 202.548 366.343 204.94 366.119 205.901C365.27 209.7 364.511 213.522 363.527 217.3C362.431 221.547 361.247 225.771 359.325 229.727C355.838 236.924 350.495 243.473 344.641 248.95ZM286.058 240.21C288.851 244.903 292.137 249.33 295.623 253.532C297.032 255.231 298.775 256.728 300.094 258.472C300.273 258.695 299.602 258.761 299.356 258.896C298.886 259.163 298.439 259.454 297.971 259.746C297.12 260.326 296.294 260.952 295.444 261.578C295.176 261.779 294.751 262.226 294.439 262.293C294.349 262.316 293.656 261.467 293.545 261.354C292.628 260.416 284.515 249.44 280.357 245.91" fill="#DAE8F1"/>
<path fill-rule="evenodd" clip-rule="evenodd" d="M204.015 194.046C204.015 194.046 210.412 195.968 216.63 195.563C222.875 195.184 232.381 192.808 232.381 192.808C232.381 192.808 234.48 194.577 235.466 197.662C235.466 197.662 242.67 200.038 249.269 198.698C255.843 197.384 261.075 199.052 267.75 206.662C274.425 214.272 288.077 236.419 288.077 236.419C288.077 236.419 285.598 240.792 280.694 245.974C275.814 251.158 265.12 259.551 265.12 259.551L258.371 264.254L259.836 291.759L261.278 295.5L240.901 305.31L212.914 319.569L192.082 309.28L170.317 297.802L173.262 287.867L172.157 263.57C172.157 263.57 159.034 258.287 151.28 252.043L144.029 245.974C144.029 245.974 155.146 223.702 160.574 214.474C166.004 205.271 170.3 198.547 185.105 200.013C197.821 201.277 198.781 198.319 200.652 195.917C200.652 195.917 202.524 193.414 204.015 194.046Z" fill="#58B9FD"/>
<path d="M22.4306 273.885C28.7284 282.961 35.534 291.684 42.6559 300.128M57.9612 323.083C59.4679 325.131 61.0607 327.128 62.5524 329.202M17.5966 333.145C22.706 342.12 31.3373 353.22 43.0173 352.486C47.9852 352.182 50.1594 344.168 45.8109 341.54C43.0552 339.87 40.3045 342.399 39.6017 345.028C38.7396 348.239 40.0342 351.677 41.6268 354.458C47.3228 364.318 57.5793 370.74 66.6959 377.085M404.348 260.31C395.98 271.358 390.141 283.872 382.582 295.425M372.772 329.555C369.763 333.829 367.135 338.327 364.125 342.55M405.334 286.728C403.084 290.141 400.91 293.63 398.786 297.118M418.784 340.2C415.017 349.604 400.43 378.449 386.601 370.866C381.367 368.009 381.039 356.784 388.599 357.239C394.817 357.643 394.463 366.087 392.668 369.955C388.649 378.652 379.851 383.456 371.659 387.374M66.696 454.751C74.0302 455.079 208.897 453.359 216.229 453.258M226.266 454.27C229.73 453.942 233.219 454.22 236.708 454.321C240.626 454.421 367.741 454.371 371.659 454.22M185.52 462.141C241.919 462.193 343.095 461.181 330.632 461.509M111.057 463C119.198 462.748 166.075 462.344 174.211 462.318" stroke="#25316D" stroke-width="2" stroke-miterlimit="1.5" stroke-linecap="round" stroke-linejoin="round"/>
<path d="M89.5481 454.916C86.4207 451.849 84.869 447.583 85.7221 443.252C86.2488 440.576 88.3772 437.833 91.3523 438.247C93.3786 438.507 94.8215 440.444 95.4809 442.229C95.5222 442.338 96.1075 444.471 95.8093 444.515C95.409 444.579 94.7148 443.665 94.5408 443.426C93.4048 441.859 93.3068 439.726 93.5071 437.877C94.0859 432.566 98.7323 424.165 105.277 425.384C111.608 426.581 110.291 436.222 109.016 440.64C108.646 441.923 108.252 443.948 107.283 444.949C107.118 445.124 107.518 444.535 107.64 444.339C107.795 444.079 107.96 443.825 108.137 443.578C108.683 442.773 109.296 442.012 109.96 441.315C112.006 439.16 115.656 436.44 118.659 438.573C121.734 440.749 119.127 445.581 117.665 447.821C117.14 448.605 116.579 449.39 116.015 450.173C115.862 450.369 115.708 450.586 115.556 450.803C115.488 450.89 115.277 451.173 115.353 451.087C116.892 449.324 118.67 447.974 120.751 446.908C121.734 446.385 122.737 445.972 123.819 445.732C126.485 445.145 128.753 446.474 128.242 449.52C127.848 451.849 126.333 454.046 124.542 455.548M89.323 422.035C89.8438 424.184 90.4379 426.333 91.037 428.482M120.397 422.035C119.611 423.781 118.842 425.55 118.013 427.295M135.073 444.7C135.672 444.296 136.269 443.89 136.878 443.513M329.011 453.866C325.421 451.463 322.185 447.773 322.386 443.196C322.463 441.579 322.942 439.606 324.357 438.596C327.367 436.421 330.35 439.707 331.792 442.084C332.271 442.868 332.676 443.651 333.056 444.46C333.207 444.764 333.358 445.092 333.485 445.396C333.561 445.547 333.763 446.002 333.688 445.851C331.134 440.391 332.145 433.539 334.648 428.229C335.684 426.031 337.453 423.274 340.236 423.552C344.911 424.033 345.367 430.227 345.114 433.791C345.064 434.626 344.989 435.461 344.861 436.27C344.633 437.61 344.381 438.949 343.951 440.214C343.901 440.391 343.597 441.351 343.345 441.301C341.448 440.896 341.625 437.356 342.005 436.016C342.864 432.932 345.543 429.923 348.73 429.14C350.55 428.685 352.876 428.963 354.089 430.555C356.744 434.07 353.912 439.504 352.117 442.74C351.485 443.879 350.777 444.991 350.02 446.078C349.791 446.432 349.539 446.786 349.286 447.139C349.159 447.318 348.805 447.747 348.932 447.62C351.359 445.497 353.938 442.893 357.351 442.716C360.056 442.589 361.724 444.535 361.396 447.215C361.118 449.567 359.5 452.146 357.78 453.764M326.735 427.345C326.862 427.824 327.013 428.305 327.164 428.786M364.429 432.35C363.823 433.211 363.217 434.07 362.609 434.928M348.147 411.164C348.072 412.379 348.022 413.567 347.996 414.78M222.925 406.411C222.368 407.473 221.812 408.536 221.257 409.598M126.607 224.409C126.524 225.016 126.435 225.623 126.382 226.255M275.309 172.683C275.46 173.568 275.637 174.453 275.788 175.363M187.936 134.147C188.922 133.212 190.287 132.63 191.651 132.504C192.158 132.454 192.688 132.479 193.193 132.504C193.269 132.529 193.674 132.605 193.7 132.555C193.75 132.529 193.547 132.024 193.523 131.948C193.346 131.316 193.193 130.659 193.092 130.001C192.865 128.56 192.79 126.968 192.941 125.451M304.18 225.522C304.079 226.23 303.977 226.912 303.902 227.62M195.185 134.587C194.096 134.691 193.028 135.004 192.077 135.579C184.91 139.808 186.951 150.277 189.549 157.065M196.578 132.681C198.99 125.841 204.626 119.966 210.542 116.964C213.348 115.528 217.57 114.484 218.846 118.687C219.031 119.34 219.147 119.993 219.171 120.671C219.217 121.794 219.1 122.891 218.893 123.961M219.287 124.405C223.184 119.497 229.585 116.077 235.501 116.521C237.983 116.703 240.812 117.539 242.576 119.653C245.637 123.308 243.48 128.739 240.627 131.584C239.561 132.655 238.214 133.621 236.776 133.856C236.683 133.882 235.245 133.96 235.269 133.725C235.339 133.02 236.011 132.394 236.474 132.028C237.867 130.958 239.63 130.618 241.253 130.88C242.065 131.01 242.855 131.323 243.574 131.741C247.749 134.247 247.238 140.304 244.014 143.463C242.784 144.664 241.346 145.526 239.815 146.1C237.798 146.909 235.733 147.118 233.622 147.04M230.166 147.483C224.644 148.162 218.962 145.63 214.995 141.296M218.521 144.899C213.533 147.849 207.664 147.301 203.003 143.855M201.356 145.499C201.565 147.379 201.634 149.781 200.613 151.4C199.847 152.601 198.34 153.227 198.085 154.741C197.922 155.707 198.062 156.725 198.155 157.691C198.34 159.676 198.734 161.686 198.734 163.696C198.757 164.923 198.619 166.568 197.76 167.456M196.809 167.455C196.415 165.393 196.137 163.278 195.487 161.294C194.305 157.717 189.734 156.803 187.739 160.093C186.998 161.346 187.09 162.338 187.136 163.826C187.299 169.178 192.008 172.102 196.578 172.781" stroke="#25316D" stroke-width="2" stroke-miterlimit="1.5" stroke-linecap="round" stroke-linejoin="round"/>
<path d="M190.366 163.999C191.433 164.913 192.499 165.879 193.567 166.819M230.342 148.14C230.713 149.471 231.2 150.724 231.989 151.795C232.754 152.813 233.729 153.518 234.192 154.797C235.098 157.382 234.261 160.384 235.12 162.995M236.732 163.42C236.711 162.119 236.753 160.819 236.967 159.542C237.502 156.508 239.92 153.858 242.681 155.906C243.151 156.243 243.558 156.676 243.9 157.158C246.554 161.012 244.692 166.672 241.44 169.225C240.092 170.285 238.337 171.104 236.711 171.441" stroke="#25316D" stroke-width="2" stroke-miterlimit="1.5" stroke-linecap="round" stroke-linejoin="round"/>
<path d="M242.436 160.59C241.23 162.104 240.117 163.696 238.98 165.262M238.238 147.379C238.261 149.781 238.191 152.209 238.076 154.61M203.744 157.438C206.203 155.558 209.404 154.853 212.164 156.341M221.189 155.793C223.602 154.305 226.709 153.939 229.237 155.375M205.182 164.949C206.992 165.863 209.382 166.333 211.167 165.053M222.024 164.322C223.925 165.132 226.059 165.236 227.846 164.035M218.358 162.43C218.196 164.823 218.381 167.306 219.24 169.563C219.54 170.398 219.912 171.187 220.399 171.932C220.492 172.09 220.956 172.632 220.933 172.812C220.862 173.151 220.143 173.557 219.865 173.693C218.614 174.302 217.105 174.234 215.783 173.918M213.892 178.787C216.534 179.84 219.371 180.114 222.029 178.938" stroke="#25316D" stroke-width="2" stroke-miterlimit="1.5" stroke-linecap="round" stroke-linejoin="round"/>
<path d="M197.922 172.579C197.922 172.579 199.337 177.983 199.987 180.489C200.196 181.299 200.753 181.977 201.518 182.317C204.812 183.831 214.02 188.086 217.221 189.575C217.94 189.914 218.752 189.862 219.449 189.496C222.209 187.956 229.538 183.936 232.345 182.369C233.041 181.977 233.551 181.299 233.714 180.515C234.294 177.774 235.592 171.456 235.592 171.456M205.1 184.035C205.378 187.271 205.506 190.532 205.834 193.768M229.321 184.086C229.548 187.22 229.826 190.33 229.953 193.465" stroke="#25316D" stroke-width="2" stroke-miterlimit="1.5" stroke-linecap="round" stroke-linejoin="round"/>
<path d="M203.812 193.97C206.568 195.26 209.956 195.462 212.964 195.538C215.366 195.589 217.767 195.462 220.17 195.285C224.215 194.982 228.107 194.476 231.9 192.984M202.22 194.4C201.006 195.488 199.843 196.726 199.236 198.268M201.208 200.139C206.518 202.389 212.256 202.971 217.995 202.667C221.257 202.516 224.517 202.137 227.652 201.176M232.254 192.858C233.947 193.945 234.834 195.74 235.44 197.586M288.53 235.331C281.68 247.314 270.479 256.037 259.204 263.646M283.773 227.165C276.289 237.935 266.379 247.567 255.355 254.697M144.163 246.203C149.477 250.98 155.199 254.923 161.382 258.513C164.955 260.587 168.752 262.686 172.762 263.799M148.264 237.075C155.178 245.267 164.798 250.803 174.668 254.697M285.674 240.337C290.325 246.606 294.8 252.927 300.161 258.615" stroke="#25316D" stroke-width="2" stroke-miterlimit="1.5" stroke-linecap="round" stroke-linejoin="round"/>
<path d="M150.252 246.298C146.241 252.995 142.41 259.726 137.637 265.914M266.511 262.559C271.667 269.184 276.699 275.857 282.083 282.303M169.85 262.983C164.693 269.608 158.853 280.301 153.468 286.749M292.474 263.646C305.14 252.043 323.116 248.705 337.45 239.679" stroke="#25316D" stroke-width="2" stroke-miterlimit="1.5" stroke-linecap="round" stroke-linejoin="round"/>
<path d="M143.078 268.092C130.412 256.487 112.436 253.149 98.1017 244.125M284.385 284.832C291.084 288.676 298.314 284.251 304.206 280.964C318.818 272.873 332.697 263.242 346.071 253.281M151.168 289.277C144.468 293.12 137.238 288.695 131.347 285.408C116.734 277.319 102.855 267.686 89.4808 257.725M349.384 250.626C358.485 242.03 364.502 231.438 366.146 219C366.549 215.839 367.207 212.755 367.941 209.645C368.396 207.825 369.052 205.929 369.129 204.033C369.179 202.465 367.889 201.151 366.247 201.859C365.311 202.288 364.679 203.249 364.198 204.134M86.1691 255.07C77.0678 246.475 71.0507 235.882 69.4074 223.443C69.0029 220.283 68.3457 217.199 67.6126 214.089C67.1576 212.269 66.5002 210.373 66.4243 208.477C66.3738 206.909 67.6629 205.595 69.3062 206.302C70.2417 206.732 70.8738 207.693 71.3542 208.578" stroke="#25316D" stroke-width="2" stroke-miterlimit="1.5" stroke-linecap="round" stroke-linejoin="round"/>
<path d="M361.695 215.788C362.303 212.628 362.883 209.443 363.744 206.333M73.8565 220.233C73.2498 217.073 72.6684 213.887 71.8088 210.778M364.325 203.173C363.667 201.125 363.414 198.345 362.1 196.6C360.456 194.375 358.788 197.914 358.737 199.356C358.636 201.783 360.001 203.704 360.456 205.979C360.937 208.583 360.154 211.668 359.824 214.272M71.2275 207.617C71.8849 205.57 72.1377 202.789 73.4523 201.044C75.0956 198.82 76.7642 202.359 76.8147 203.8C76.9158 206.227 75.5506 208.148 75.0956 210.424C74.6153 213.028 75.3989 216.112 75.7277 218.716M358.763 198.496C358.357 198.723 358.004 198.976 357.675 199.305C355.552 201.403 357.043 204.311 357.194 206.813C357.347 209.62 356.791 212.451 356.64 215.232M76.7893 202.94C77.1938 203.168 77.5476 203.42 77.8764 203.749C80 205.847 78.5085 208.755 78.3568 211.258C78.2051 214.064 78.761 216.895 78.9127 219.677M340.054 218.848C339.195 221.275 337.122 223.626 337.299 226.28C337.577 230.275 340.686 233.638 339.6 237.834M95.4976 223.291C96.3573 225.719 98.4302 228.07 98.2531 230.724C97.975 234.719 94.8655 238.082 95.9526 242.278M341.04 219.151C341.648 220.541 342.001 221.957 341.849 223.474C341.773 224.258 341.495 225.016 341.344 225.8C341.318 225.952 341.596 226.28 341.672 226.381C342.051 226.912 342.507 227.418 342.91 227.974C344.351 229.971 345.54 233.284 348.524 233.131M94.5116 223.595C93.9048 224.985 93.5508 226.401 93.7025 227.918C93.7784 228.702 94.0565 229.46 94.2081 230.244C94.2334 230.396 93.9555 230.724 93.8795 230.826C93.5003 231.356 93.0454 231.862 92.6409 232.418C91.1998 234.415 90.0116 237.728 87.0284 237.575M349.814 231.185C351.153 229.567 352.241 227.747 353.175 225.876C353.732 224.789 354.288 223.626 354.389 222.412C354.616 219.328 352.644 215.662 349.106 216.143C348.321 216.244 347.639 216.775 346.981 217.154C346.526 217.407 346.071 217.66 345.617 217.912C344.884 218.342 342.634 219.202 341.749 217.912M85.7388 235.629C84.399 234.011 83.3118 232.191 82.3764 230.32C81.8202 229.233 81.2642 228.07 81.163 226.856C80.9354 223.772 82.9075 220.106 86.4469 220.587C87.2307 220.688 87.9132 221.219 88.5704 221.598L89.9357 222.356C90.6688 222.786 92.9188 223.646 93.8038 222.356M341.471 217.912C342.228 217.255 342.835 216.471 343.365 215.611C343.771 214.929 344.099 214.17 344.655 213.589C345.238 212.957 346.097 212.578 346.856 212.223C347.74 211.794 348.649 211.212 349.611 211.01C351.481 210.631 353.378 211.743 354.944 212.577M94.0817 222.356C93.3234 221.699 92.7165 220.915 92.1856 220.055C91.7812 219.373 91.4526 218.614 90.8964 218.033C90.3148 217.401 89.4553 217.022 88.6968 216.668C87.812 216.238 86.902 215.657 85.9413 215.454C84.0705 215.075 82.1742 216.187 80.6068 217.022M130.121 286.249C117.67 294.49 114.748 311.657 122.259 324.399M156.26 290.9C168 296.361 179.364 302.581 190.842 308.598C203.685 315.297 216.731 321.465 229.17 328.975M126.89 328.975C154.291 343.991 184.041 354.079 213.369 364.646M232.001 326.371C225.857 340.098 220.599 354.104 215.214 368.136M231.824 327.736C236.475 330.062 246.867 334.131 251.418 336.635M251.419 337.991C246.185 349.52 242.14 361.604 236.554 372.982M216.605 367.276C222.09 368.767 229.953 372.257 235.187 374.481M219.639 364.874C224.618 366.264 229.6 367.882 234.504 369.526M225.781 363.787C227.93 364.519 230.055 365.329 232.152 366.138M284.131 286.804C261.808 294.111 237.487 306.803 216.731 317.32M302.517 285.655C305.016 288.972 307.345 292.549 308.939 296.364C318.964 320.648 286.289 330.787 268.788 337.374C264.767 338.866 260.846 340.619 256.851 342.183M135.064 327.633C143.859 333.07 153.438 337.089 162.926 341.134M167.687 342.981C170.224 344.243 172.766 345.483 175.269 346.797M243.125 308.512C249.167 305.63 255.336 302.825 261.631 300.474M171.28 351.164C172.545 352.605 173.807 354.072 175.071 355.513C178.434 359.306 181.949 362.922 185.211 366.764" stroke="#25316D" stroke-width="2" stroke-miterlimit="1.5" stroke-linecap="round" stroke-linejoin="round"/>
<path d="M186.222 368.963C190.165 365.601 194.439 362.54 198.56 359.406M194.642 357.738C193.705 358.547 192.745 359.332 191.759 360.089M189.533 361.783C188.826 362.264 188.169 362.795 187.46 363.3M250.711 341.438C254.426 342.929 258.32 344.32 261.884 346.165M240.951 364.773C244.996 365.936 249.27 367.149 253.112 368.944M165.24 347.204C163.282 348.364 161.34 349.545 159.428 350.785M173.579 372.527C176.311 370.631 179.193 368.784 182.125 367.268" stroke="#25316D" stroke-width="2" stroke-miterlimit="1.5" stroke-linecap="round" stroke-linejoin="round"/>
<path d="M252.321 372.299C254.259 366.507 256.708 360.89 258.817 355.156C260.372 350.894 261.588 346.516 263.103 342.239M174.707 373.156C171.619 367.885 168.068 362.891 164.826 357.714C162.426 353.863 160.336 349.828 157.976 345.955M263.884 342.318C271.334 344.682 278.771 347.09 286.134 349.567C290.892 351.2 295.577 353.043 300.409 354.463M157.228 346.191C150.422 350.037 143.64 353.921 136.943 357.86C132.622 360.435 125.599 364.881 121.163 367.263M280.236 419.523C288.084 398.712 295.818 377.957 302.831 356.813M157.097 425.109C145.138 406.355 133.302 387.635 122.091 368.382M276.289 417.599C278.572 409.837 281.634 402.292 284.326 394.717C288.943 381.534 293.444 368.265 297.848 355.008M160.563 422.415C156.734 415.287 152.186 408.534 147.994 401.673C140.767 389.721 134.644 379.358 127.587 367.251M281.594 420.131C277.711 418.989 273.545 417.846 269.954 415.997M157.055 424.903C160.619 422.988 164.461 421.012 167.596 418.465M253.163 373.301C262.83 380.556 267.252 391.616 268.146 403.413C268.453 407.222 268.812 411.713 267.517 415.352M174.088 374.309C166.119 383.397 164.065 395.128 165.616 406.857C166.098 410.648 166.67 415.118 168.686 418.412M284.346 349.382C284.183 356.779 286.633 364.173 292.401 369.093M138.654 357.31C140.335 364.517 139.456 372.255 134.825 378.256" stroke="#25316D" stroke-width="2" stroke-miterlimit="1.5" stroke-linecap="round" stroke-linejoin="round"/>
<path d="M234.408 266.645C229.63 275.143 222.727 281.347 214.09 285.721C205.433 281.338 198.519 275.116 193.74 266.591C188.972 258.088 186.295 247.231 186.196 233.509L214.088 222.816L241.98 233.509C241.881 247.26 239.193 258.133 234.408 266.645Z" stroke="white" stroke-width="2"/>
<path fill-rule="evenodd" clip-rule="evenodd" d="M214.011 278.278C200.773 271.66 192.803 259.342 192.761 238.436L214.088 230.262L235.416 238.436C235.374 259.385 227.371 271.707 214.088 278.318L214.011 278.278Z" fill="white"/>
<path d="M224.177 248.067C225.58 250.416 226.197 253.242 225.714 256.153C224.645 262.589 218.566 266.955 212.149 265.889M209.722 265.218C204.677 263.213 201.53 257.875 202.457 252.29C203.53 245.83 209.609 241.465 216.028 242.531C218.592 242.957 220.825 244.179 222.512 245.918" stroke="#25316D" stroke-width="2" stroke-miterlimit="1.5" stroke-linecap="round" stroke-linejoin="round"/>
<path d="M206.106 252.078L212.007 262.165L214.671 258.929M215.432 257.978L225.9 244.655L217.716 250.936M216.765 251.507L212.387 255.504L206.297 250.936" stroke="#25316D" stroke-width="2" stroke-linecap="round" stroke-linejoin="round"/>
<path d="M212.387 255.694L206.297 251.507L212.007 261.975L219.809 252.114C220.554 251.172 219.311 249.957 218.386 250.723L212.387 255.694Z" fill="#CB2027" stroke="#25316D" stroke-linecap="round" stroke-linejoin="round"/>
<path d="M261.715 386.3C260.045 387.294 258.334 388.13 256.454 388.626C255.117 388.926 253.695 389.057 252.306 388.817C250.065 388.429 246.945 386.173 249.536 383.879C250.694 382.853 252.571 382.641 254.077 382.682C255.696 382.668 257.325 383.038 258.87 383.519M262.752 382.999C263.006 381.566 263.36 380.12 263.925 378.748C265.084 376.059 269.551 372.036 271.431 376.384C271.639 376.883 271.763 377.494 271.8 378.078C272.081 381.687 268.713 385.139 265.831 386.761M166.697 385.771C166.154 384.421 165.511 383.08 164.675 381.853C162.988 379.459 157.79 376.439 156.844 381.08C156.743 381.611 156.748 382.235 156.831 382.814C157.298 386.404 161.303 389.089 164.458 390.084M265.453 391.046C267.401 390.765 269.379 390.4 271.341 390.075M165.708 394.202C163.744 394.327 161.733 394.374 159.746 394.461M267.512 396.121C270.101 395.632 272.675 395.186 275.251 394.598M164.737 399.59C162.103 399.645 159.492 399.736 156.85 399.69M168.213 385.529C168.974 385.2 169.735 384.973 170.544 384.822C171.104 384.695 171.689 384.619 172.258 384.619C174.266 384.619 179.112 385.579 178 388.688C177.545 389.877 176.281 390.585 175.168 391.016C172.615 392.002 168.977 391.849 166.378 390.99" stroke="#25316D" stroke-width="2" stroke-miterlimit="1.5" stroke-linecap="round" stroke-linejoin="round"/>
<path d="M174.452 222.437C175.244 235.28 175.144 247.972 172.727 260.638M254.299 226.154C255.209 237.657 256.903 249.286 258.698 260.714M198.857 212.022C204.647 220.592 213.672 226.382 223.253 229.845M215.62 234.346C217.49 235.357 219.411 236.317 221.333 237.228M221.736 308.802C217.64 310.8 213.443 312.746 209.525 315.047" stroke="#25316D" stroke-width="2" stroke-miterlimit="1.5" stroke-linecap="round" stroke-linejoin="round"/>
<path fill-rule="evenodd" clip-rule="evenodd" d="M218.199 189.674L230 193.495L229.329 184.287C229.329 184.287 219.562 189.852 218.199 189.674Z" fill="#25316D"/>
<path d="M216.333 72.0349V66.9841C216.333 64.5227 218.307 62.5274 220.742 62.5274C223.178 62.5274 225.152 64.5227 225.152 66.9841V72.0349M214.569 83.9193H226.915C228.214 83.9193 229.267 82.8551 229.267 81.5424V74.4118C229.267 73.099 228.214 72.0349 226.915 72.0349H214.569C213.271 72.0349 212.218 73.099 212.218 74.4118V81.5424C212.218 82.8551 213.271 83.9193 214.569 83.9193ZM223.388 77.9771C223.388 79.2898 222.335 80.354 221.036 80.354C219.738 80.354 218.685 79.2898 218.685 77.9771C218.685 76.6643 219.738 75.6002 221.036 75.6002C222.335 75.6002 223.388 76.6643 223.388 77.9771Z" stroke="#25316D" stroke-width="2"/>
<circle cx="221" cy="77" r="2" fill="#CB2027"/>
<path d="M208.055 86.3835C210.73 89.1978 214.74 90.8205 218.542 91.2169M223.122 91.2449C229.02 90.4789 234.108 86.7761 236.912 81.5403M205.95 83.611C202.381 78.4587 201.239 71.2014 203.917 65.4059C205.194 62.6369 207.429 60.2698 209.945 58.5888M212.721 56.7849C216.194 55.3169 220.281 54.6862 224.051 55.4126C233.866 57.2816 241.528 66.9112 237.923 79.6864" stroke="#25316D" stroke-width="2" stroke-miterlimit="1.5" stroke-linecap="round" stroke-linejoin="round"/>
<ellipse cx="301.264" cy="108.948" rx="12.5" ry="4" fill="#CB2027"/>
<path d="M314.764 109.348C314.764 111.226 309.167 112.748 302.264 112.748M314.764 109.348C314.764 107.47 309.167 105.948 302.264 105.948C295.36 105.948 289.764 107.47 289.764 109.348M314.764 109.348V112.748M302.264 112.748C295.36 112.748 289.764 111.226 289.764 109.348M302.264 112.748V116.148M289.764 109.348V112.748M291.737 111.615V114.448M296.343 112.748V115.581M302.264 116.148C309.167 116.148 314.764 114.626 314.764 112.748M302.264 116.148C295.36 116.148 289.764 114.626 289.764 112.748M308.185 112.748V115.581M312.79 111.615V114.448M293.053 115.015V117.848M297.658 116.148V118.981M303.579 116.148V119.548M309.501 116.148V118.981M314.106 114.448V117.281M291.737 118.415V121.248M296.343 119.548V122.381M302.264 119.548V122.948M302.264 119.548C309.167 119.548 314.764 118.026 314.764 116.148M302.264 119.548C295.36 119.548 289.764 118.026 289.764 116.148M302.264 122.948C309.167 122.948 314.764 121.426 314.764 119.548V116.148M302.264 122.948C295.36 122.948 289.764 121.426 289.764 119.548V116.148M308.185 119.548V122.381M312.79 118.415V121.248M314.764 112.748V116.148M289.764 112.748V116.148" stroke="#25316D" stroke-width="2" stroke-linecap="round" stroke-linejoin="round"/>
<path d="M323.742 153.446C320.331 155.301 317.726 158.754 316.359 162.325M315.147 166.741C314.36 172.637 316.62 178.51 320.951 182.573M326.965 152.13C332.865 150.016 340.171 150.791 345.076 154.878C347.42 156.828 349.128 159.6 350.1 162.466M351.124 165.614C351.643 169.349 351.195 173.459 349.518 176.912C345.172 185.909 333.887 190.819 322.48 184.03M321.846 163.131C325.711 161.656 329.284 159.43 333.195 158.062M333.404 158.035C336.638 159.618 341.574 161.2 344.709 162.971M321.766 163.614C321.774 168.362 323.67 173.163 326.647 176.811" stroke="#25316D" stroke-width="2" stroke-miterlimit="1.5" stroke-linecap="round" stroke-linejoin="round"/>
<path d="M329.094 168.761L332.884 172.139L338.663 165.557" stroke="#CB2027" stroke-width="2" stroke-miterlimit="1.5" stroke-linecap="round" stroke-linejoin="round"/>
<path d="M328.85 178.769C330.381 179.681 331.274 180.378 332.951 180.995M333.318 181.156C338.46 179.359 342.049 175.363 343.747 170.132C344.358 168.228 344.752 165.331 344.841 163.346" stroke="#25316D" stroke-width="2" stroke-miterlimit="1.5" stroke-linecap="round" stroke-linejoin="round"/>
<circle cx="141.5" cy="115.5" r="4.5" fill="#CB2027"/>
<path d="M159.399 112.118C156.079 112.118 153.387 109.427 153.387 106.107M123.33 112.118C126.65 112.118 129.342 109.427 129.342 106.107M159.399 120.134C156.079 120.134 153.387 122.825 153.387 126.145M123.33 120.134C126.65 120.134 129.342 122.825 129.342 126.145M127.338 106.107H155.391C157.604 106.107 159.399 107.901 159.399 110.114V122.137C159.399 124.351 157.604 126.145 155.391 126.145H127.338C125.124 126.145 123.33 124.351 123.33 122.137V110.114C123.33 107.901 125.124 106.107 127.338 106.107ZM145.372 116.126C145.372 118.339 143.578 120.134 141.364 120.134C139.151 120.134 137.357 118.339 137.357 116.126C137.357 113.913 139.151 112.118 141.364 112.118C143.578 112.118 145.372 113.913 145.372 116.126Z" stroke="#25316D" stroke-width="2" stroke-linecap="round" stroke-linejoin="round"/>
<circle cx="101.5" cy="164.5" r="4.5" fill="#CB2027"/>
<path d="M101.395 174.111C95.9322 174.111 91.5035 169.682 91.5035 164.219C91.5035 158.756 95.9322 154.327 101.395 154.327C106.858 154.327 111.287 158.756 111.287 164.219C111.287 169.682 106.858 174.111 101.395 174.111ZM101.395 174.111L107.399 183.719C108.074 184.799 109.745 184.251 109.649 182.981L109.406 179.765C109.332 178.785 110.389 178.124 111.237 178.62L114.022 180.249C115.121 180.892 116.346 179.63 115.671 178.55L109.898 169.276M101.395 174.111L95.3912 183.719C94.7162 184.799 93.0454 184.251 93.1414 182.981L93.3843 179.765C93.4583 178.785 92.4015 178.124 91.5529 178.62L88.7686 180.249C87.669 180.892 86.444 179.63 87.119 178.55L92.8924 169.276M104.692 164.219C104.692 166.04 103.216 167.516 101.395 167.516C99.5742 167.516 98.098 166.04 98.098 164.219C98.098 162.398 99.5742 160.922 101.395 160.922C103.216 160.922 104.692 162.398 104.692 164.219Z" stroke="#25316D" stroke-width="2" stroke-linecap="round" stroke-linejoin="round"/>
</svg>
