<svg width="474" height="359" viewBox="0 0 474 359" fill="none" xmlns="http://www.w3.org/2000/svg">
<g clip-path="url(#clip0_1352_11469)">
<g clip-path="url(#clip1_1352_11469)">
<path fill-rule="evenodd" clip-rule="evenodd" d="M318.233 64.5C261.498 85.599 147.32 -28.2088 51.7331 13C28.2162 23.1385 -0.266602 56 -0.266602 56V358.5H388.733H474.233L474.233 157.5C474.233 157.5 474.233 114.213 474.233 91.5C474.233 68.7874 374.809 43.4599 318.233 64.5Z" fill="#BFD9FF"/>
<path d="M195.934 141.326C192.869 147.327 188.624 152.451 183.461 156.656C179.099 160.208 188.618 179.938 217.618 188.438C191.618 204.938 157.571 168.939 151.528 169.796C102.92 176.684 21.7156 166.017 34.6174 95.438C43.1176 48.938 144.118 38.4379 188.618 73.9379C209.312 90.4459 211.888 110.095 195.934 141.326Z" fill="white"/>
<g clip-path="url(#clip2_1352_11469)">
<path d="M153.192 108.541L158.574 123.655H164.587L159.202 108.541H153.192Z" fill="#CB2027"/>
<path d="M67.9883 98.364C61.1882 98.364 55.6768 104.171 55.6768 111.332C55.6768 118.493 61.1882 124.303 67.9883 124.303C69.8029 124.303 71.5247 123.885 73.0749 123.144L75.5648 126.245L79.8609 122.415L77.5342 119.519C79.2616 117.287 80.297 114.438 80.297 111.332C80.2998 104.171 74.7883 98.364 67.9883 98.364ZM67.9883 118.375C64.3027 118.375 61.3036 115.215 61.3036 111.332C61.3036 107.449 64.3027 104.289 67.9883 104.289C71.6739 104.289 74.673 107.449 74.673 111.332C74.673 112.61 74.3466 113.807 73.7811 114.842L70.9986 111.376L66.6997 115.206L69.1558 118.265C68.776 118.336 68.3878 118.375 67.9883 118.375Z" fill="#25316D"/>
<path d="M100.15 98.3635H92.4999H86.904H86.873V123.654H92.4999V114.998H95.1051L99.6347 123.651H106.061L101.455 114.853C104.291 114.219 106.418 111.569 106.418 108.394V104.968C106.418 101.319 103.613 98.3635 100.15 98.3635ZM92.5308 104.292H100.15C100.504 104.292 100.791 104.594 100.791 104.968V108.397C100.791 108.771 100.504 109.073 100.15 109.073H92.5308V104.292Z" fill="#25316D"/>
<path d="M135.03 98.3634H121.785V98.4938H121.754V123.653H127.381V114.998H135.03C138.491 114.998 141.299 112.04 141.299 108.394V104.968C141.299 101.319 138.494 98.3634 135.03 98.3634ZM135.672 108.394C135.672 108.768 135.385 109.07 135.03 109.07H127.412V104.292H135.03C135.385 104.292 135.672 104.594 135.672 104.968V108.394Z" fill="#25316D"/>
<path d="M185.693 98.4949H178.972L173.626 107.121L168.278 98.4949H161.56L170.835 113.461V123.655H176.462V113.39L185.693 98.4949Z" fill="#25316D"/>
<path d="M149.38 98.4945L140.419 123.654H146.428L155.389 98.4945H149.38Z" fill="#25316D"/>
</g>
<path fill-rule="evenodd" clip-rule="evenodd" d="M312.74 253.578C312.74 253.578 304.765 255.746 302.891 260.531C302.891 260.531 309.117 272.582 298.512 277.234C298.512 277.234 281.169 285.351 260.954 278.547C260.954 278.547 253.885 276.547 253.001 267.047C253.001 267.047 230.307 269.957 224.952 277.234C224.952 277.234 201.804 285.925 195.733 303C187.733 325.5 185.733 333.5 180.733 362C226.949 401.321 355.794 390.529 354.234 368.984C353.766 362.516 355.185 336.578 356.378 327.484C356.378 327.484 320.822 300.804 312.74 253.578Z" fill="#58B9FD"/>
<path d="M403.233 148.5C391.633 136.9 371.067 131.667 362.233 130.5C357.733 143 348.233 170.3 346.233 179.5C343.733 191 339.233 202 335.233 212C332.033 220 318.9 244.333 312.733 255.5C311.733 257.5 311.733 256.5 310.733 260C307.933 278.4 336.9 316 351.733 332.5L357.233 326C358.233 321.333 360.233 309.9 360.233 301.5C360.233 291 373.233 264 376.233 248.5C378.633 236.1 392.567 185.667 399.233 162C400.923 156 402.233 150 403.233 148.5Z" fill="#58B9FD"/>
<path d="M310.174 194.831C310.174 194.831 311.878 198.239 311.878 201.647L308.733 235.499L301.655 240.833C301.939 246.797 302.11 261.078 301.233 261.499C288.733 267.499 274.233 266.499 263.233 261.999C261.519 261.297 263.233 247.999 263.233 245.999C263.233 233.951 261.425 232.374 259.733 235.499C259.203 236.479 250.733 254.499 243.726 270.65C234.886 272.73 221.733 278.499 208.233 286.999C201.733 291.091 197.709 299.212 194.733 299.499C189.898 299.964 184.932 290.499 184.094 285.132C179.835 257.872 228.292 242.407 228.392 236.574C234.356 225.5 237.867 185.734 239.467 178.645C241.075 171.519 249.853 161.009 252.245 159.052C259.742 152.919 281.21 155.361 288.025 159.052C290.013 155.928 297.225 152.407 310.174 163.311C326.36 176.942 315.141 194.831 310.174 194.831Z" fill="white"/>
<path fill-rule="evenodd" clip-rule="evenodd" d="M414.559 97.6719C414.559 97.6719 411.429 112.066 401.995 114.829L395.504 136.816L394.713 141.617L401.995 148.465L397.483 164.28L385.765 204.836L377.264 241.882L366.845 281.762C366.845 281.762 361.445 300.961 360.407 304.716C359.36 308.53 357.959 318.56 357.959 318.56L353.733 360.5L346.4 322.254C346.4 322.254 354.035 277.701 360.407 269.085C366.77 260.531 377.264 202.066 377.264 202.066L395.504 144.465L389.159 139.954L396.856 113.66C396.856 113.66 406.51 103.318 414.559 97.6719Z" fill="#30AAFF"/>
<path d="M434.692 81.9864C432.465 85.4419 422.223 92.1172 417.492 95.063C414.906 101.598 409.454 114.25 402.75 115.439C402.75 115.439 398.665 132.003 395.816 143.67L376.762 133.962L384.288 111.173C382.85 107.427 380.621 105.567 378.63 103.16C378.203 102.693 375.771 94.7761 374.608 90.8762C374.469 88.2681 372.065 82.0526 371.467 81.107C370.988 80.3506 369.916 76.6828 369.44 74.9435C367.06 70.4965 366.153 68.1746 371.358 67.9907C375.522 67.8435 381.705 83.2156 383.293 88.4818C384.732 92.2891 386.063 87.3365 389.018 85.4821C393.455 81.5755 393.845 69.2894 393.875 66.5738C394.393 57.9215 396.006 49.0701 397.243 45.0175C400.493 41.4807 401.558 43.7361 402.187 45.4834L400.49 59.3669L400.49 72.3743C400.888 73.9356 402.245 73.9241 402.874 73.7232C403.933 71.6989 406.106 68.5024 406.712 66.5738C407.517 64.0098 409.837 57.5191 410.191 57.1757C410.474 56.901 412.718 50.1352 414.172 46.7866C414.556 45.9727 415.799 44.5727 417.699 45.4834C419.6 46.3941 419.749 47.8758 419.586 48.5029C419.823 48.6686 417.381 54.7398 416.526 57.1757C415.664 59.6283 411.525 72.9872 410.191 76.0608C408.856 79.1344 411.016 79.0335 411.079 78.5768C411.13 78.2115 415.612 72.5212 417.699 69.7352C417.661 69.5228 425.607 57.7056 426.74 56.7117C427.178 56.328 430.509 56.7141 430.143 59.367C429.777 62.0198 423.885 70.7371 423.31 71.233C422.851 71.6297 419 79.259 416.526 83.6792C414.815 88.2427 413.326 88.3708 414.306 88.4818C416.552 87.2403 420.337 85.8858 421.417 85.4821C422.497 85.0784 425.741 81.9876 426.74 81.1073C428.778 78.9159 430.866 78.101 431.655 77.9675C435.733 77.4831 435.379 80.4449 434.692 81.9864Z" fill="white"/>
<path d="M395.816 143.67C398.665 132.003 402.75 115.439 402.75 115.439C409.454 114.25 414.906 101.598 417.492 95.063C422.223 92.1172 432.465 85.4419 434.692 81.9864C435.379 80.4449 435.733 77.4831 431.655 77.9675C430.866 78.101 428.778 78.9159 426.74 81.1073C425.741 81.9876 422.497 85.0784 421.417 85.4821C420.337 85.8858 416.552 87.2403 414.306 88.4818C413.326 88.3708 414.815 88.2427 416.526 83.6792C419 79.259 422.851 71.6297 423.31 71.233C423.885 70.7371 429.777 62.0198 430.143 59.367C430.509 56.7141 427.178 56.328 426.74 56.7117C425.607 57.7056 417.661 69.5228 417.699 69.7352C415.612 72.5212 411.13 78.2115 411.079 78.5768C411.016 79.0335 408.856 79.1344 410.191 76.0608C411.525 72.9872 415.664 59.6283 416.526 57.1757C417.381 54.7398 419.823 48.6686 419.586 48.5029C419.749 47.8758 419.6 46.3941 417.699 45.4834C415.799 44.5727 414.556 45.9727 414.172 46.7866C412.718 50.1352 410.474 56.901 410.191 57.1757C409.837 57.5191 407.517 64.0098 406.712 66.5738C406.106 68.5024 403.933 71.6989 402.874 73.7232C402.245 73.9241 400.888 73.9356 400.49 72.3743L400.49 59.3669L402.187 45.4834C401.558 43.7361 400.493 41.4807 397.243 45.0175C396.006 49.0701 394.393 57.9215 393.875 66.5738C393.845 69.2894 393.455 81.5755 389.018 85.4821C386.063 87.3365 384.732 92.2891 383.293 88.4818C381.705 83.2156 375.522 67.8435 371.358 67.9907C366.153 68.1746 367.06 70.4965 369.44 74.9435C369.916 76.6828 370.988 80.3506 371.467 81.107C372.065 82.0526 374.469 88.2681 374.608 90.8762C375.771 94.7761 378.203 102.693 378.63 103.16C380.621 105.567 382.85 107.427 384.288 111.173L376.587 134.593" stroke="#25316D" stroke-width="2"/>
<path d="M292.069 206.612C292.644 209.846 293.055 213.012 294.261 216.11C294.663 217.121 295.144 218.131 295.79 219.006C295.953 219.209 296.594 219.748 296.607 220.017C296.62 220.152 294.954 220.489 294.791 220.556C292.811 220.961 290.792 220.758 288.844 220.287M308.073 199.629C304.826 197.878 300.115 197.272 296.806 199.158M283.74 199.63C280.139 197.811 275.5 197.744 271.841 199.496" stroke="#25316D" stroke-width="2" stroke-miterlimit="1.5" stroke-linecap="round" stroke-linejoin="round"/>
<path d="M313.124 200.801C313.124 200.801 310.411 224.975 309.487 233.252C309.284 235.025 308.338 236.667 306.894 237.718C300.257 242.513 293.912 245.207 286.891 245.733C286.387 245.733 285.879 245.732 285.384 245.601C277.559 243.695 270.365 240.477 263.79 235.945M291.199 157.858C300.615 157.117 310.048 161.765 315.293 169.648C320.927 178.069 319.734 190.263 310.729 195.787" stroke="#25316D" stroke-width="2" stroke-miterlimit="1.5" stroke-linecap="round" stroke-linejoin="round"/>
<path d="M294.004 166.388C304.905 170.7 304.122 186.329 295.785 192.729M279.25 169.825C286.426 175.282 285.26 186.803 279.913 193.135M312.907 202.161C313.91 209.234 315.858 215.5 320.325 221.092C322.049 223.315 324.17 224.999 326.127 226.952M285.092 156.553C278.632 155.744 272.176 154.734 265.654 155.408C251.55 156.958 242.779 168.141 239.563 181.345C236.673 193.202 237.031 205.395 235.582 217.453C234.671 224.998 232.776 233.285 228.083 239.415C223.081 246.017 215.243 249.25 208.116 252.957C198.059 258.211 187.808 264.949 185.104 276.668C184.397 279.769 184.061 282.933 184.255 286.101C185.581 290.732 189.633 299.895 195.233 299.495" stroke="#25316D" stroke-width="2" stroke-miterlimit="1.5" stroke-linecap="round" stroke-linejoin="round"/>
<path d="M264.96 184.278C269.281 199.301 268.769 216.345 262.764 230.829C257.378 243.831 248.739 254.541 245.403 268.486M253.326 199.773C254.404 209.474 253.635 220.32 249.013 229.078C243.941 238.711 235.537 246.055 230.663 255.823M301.678 241.34V261.615C301.678 261.615 278.737 271.522 263.356 261.615M263.356 236.218V258.788M262.919 259.327C259.419 259.596 256.043 261.615 255.288 265.186M254.996 266.061C252.181 267.139 249.442 268.42 246.535 269.295M299.752 272.194C296.098 274.213 291.745 274.955 287.649 275.428C279.391 276.237 269.904 275.764 262.534 271.518M402.439 148.237C392.166 140.557 379.697 134.023 367.042 131.328M399.364 162.111C391.632 155.105 381.694 150.861 372.049 147.089C369.167 146.01 366.237 145.066 363.269 144.259C361.585 143.787 359.875 143.113 358.134 142.911" stroke="#25316D" stroke-width="2" stroke-miterlimit="1.5" stroke-linecap="round" stroke-linejoin="round"/>
<path d="M401.631 149.793C393.633 177.077 386.21 204.899 379.52 232.52M377.863 238.854C374.806 258.931 367.338 277.657 362.151 297.125C360.441 303.528 359.12 310.195 358.152 316.797C357.732 319.563 357.971 322.457 357.304 325.219M362.177 130.594C357.317 147.368 351.785 163.874 346.306 180.379C344.181 186.846 342.722 193.583 340.244 199.915C333.205 217.903 323.533 235.148 314.921 252.392M348.241 195.253C351.953 194.976 355.125 195.438 358.713 196.13M345.325 199.173C350.424 202.407 354.48 206.584 358.709 210.761M217.783 317.27C220.31 330.406 222.029 343.878 225.334 356.882M222.736 279.341C214.239 283.114 204.996 288.368 199.34 295.915C193.463 303.797 191.996 314.371 189.495 323.668C184.047 343.812 179.332 364.562 176.213 385.245M175.303 394.069C174.905 407.205 173.986 423.17 186.579 431.256C188.399 432.4 190.427 433.346 192.513 433.885M197.798 434.556C203.913 433.748 209.564 431.119 215.229 428.896" stroke="#25316D" stroke-width="2" stroke-miterlimit="1.5" stroke-linecap="round" stroke-linejoin="round"/>
<path d="M309.766 309.734C296.355 312.69 282.746 314.228 269.044 314.78M261.175 314.29H254.856" stroke="#25316D" stroke-width="2" stroke-miterlimit="1.5" stroke-linecap="round" stroke-linejoin="round"/>
<path d="M293.991 230.854L279.463 227.125C279.463 227.125 278.261 232.315 284.558 234.929C290.514 237.466 293.991 230.854 293.991 230.854Z" stroke="#25316D" stroke-width="2" stroke-miterlimit="1.5" stroke-linecap="round" stroke-linejoin="round"/>
<path d="M300.558 209.816C300.017 209.816 299.498 209.601 299.115 209.219C298.732 208.836 298.517 208.317 298.517 207.776C298.517 207.234 298.732 206.715 299.115 206.332C299.498 205.949 300.017 205.734 300.558 205.734C301.1 205.734 301.619 205.949 302.002 206.332C302.385 206.715 302.6 207.234 302.6 207.776C302.599 208.317 302.384 208.836 302.001 209.219C301.619 209.601 301.099 209.816 300.558 209.816ZM278.302 209.816C277.761 209.816 277.242 209.601 276.859 209.219C276.476 208.836 276.261 208.317 276.26 207.776C276.26 207.234 276.476 206.715 276.858 206.332C277.241 205.949 277.76 205.734 278.302 205.734C278.843 205.734 279.363 205.949 279.745 206.332C280.128 206.715 280.343 207.234 280.343 207.776C280.343 208.317 280.128 208.836 279.745 209.219C279.362 209.601 278.843 209.816 278.302 209.816Z" fill="#25316D"/>
<path fill-rule="evenodd" clip-rule="evenodd" d="M300.557 241.859C300.557 241.859 289.922 245.902 286.046 245.363C282.167 244.824 268.558 239.906 268.558 239.906C268.558 239.906 275.888 248.193 286.046 250.482C292.387 251.966 301.48 245.363 301.48 245.363L300.557 241.859Z" fill="#25316D"/>
<path d="M364.138 48.7698C369.671 50.6284 375.143 52.8834 380.527 55.1364M372.81 15.9411C378.127 22.9873 383.638 30.0466 388.347 37.5174M400.185 10.3364C400.17 14.6329 400.162 18.9331 400.181 23.2484" stroke="#25316D" stroke-width="2" stroke-miterlimit="1.5" stroke-linecap="round" stroke-linejoin="round"/>
</g>
<path d="M155.606 273.123C152.28 275.627 148.355 278.584 144.16 280.102C143.622 280.299 143.072 280.474 142.528 280.602C140.648 281.04 139.963 280.352 140.526 279.03C141.04 277.823 142.4 276.64 143.699 275.644C146.339 273.614 151.367 270.519 154.693 269.431C157.255 268.593 159.09 269.667 157.485 271.574" stroke="#25316D" stroke-width="2" stroke-miterlimit="1.5" stroke-linecap="round" stroke-linejoin="round"/>
<path d="M155.727 268.884C155.683 265.244 155.375 262.413 154.672 258.835C154.448 257.705 154.134 256.586 153.756 255.498C153.476 254.687 153.168 253.885 152.776 253.119C151.236 250.073 144.79 239.366 141.114 242.603C137.497 245.787 141.075 251.789 139.904 253.438C137.747 256.475 132.697 258.143 134.674 262.746C135.531 264.748 137.466 266.219 139.337 267.215C142.241 268.759 145.342 269.753 148.423 270.841C148.673 270.93 149.578 271.341 149.828 271.427M142.036 276.454C139.584 276.521 136.944 277.043 134.624 275.971C132.675 275.069 129.233 270.797 134.624 266.696M159.858 268.653C162.992 267.038 164.988 264.156 164.197 260.509C163.894 259.118 163.02 257.288 161.474 256.95C160.635 256.766 159.766 257.075 159.375 257.863C158.85 258.932 159.511 260.05 160.719 259.806" stroke="#25316D" stroke-width="2" stroke-miterlimit="1.5" stroke-linecap="round" stroke-linejoin="round"/>
<path d="M64.5147 332.074L64.5125 332.073L63.8438 331.521C63.273 330.843 63.9258 330.461 64.8374 330.759C66.0206 331.146 67.8092 332.247 68.7484 332.969C69.2106 333.324 69.6945 333.745 69.8773 334.174C70.0777 334.644 69.8338 334.889 69.1652 334.733C68.9716 334.688 68.776 334.626 68.5844 334.555C67.0931 334.016 65.6974 332.965 64.5147 332.074Z" fill="#25316D"/>
<path d="M64.469 330.564C64.4848 329.27 64.5944 328.262 64.8442 326.989C64.9242 326.587 65.0358 326.189 65.1702 325.802C65.2699 325.514 65.3795 325.228 65.5188 324.956C66.0669 323.872 68.3602 320.063 69.6678 321.214C70.9547 322.347 69.6816 324.483 70.0984 325.069C70.8658 326.15 72.6623 326.743 71.9591 328.381C71.6539 329.093 70.9656 329.616 70.2999 329.971C69.2668 330.52 68.1637 330.873 67.0674 331.261C66.9785 331.292 66.6565 331.438 66.5677 331.469" fill="#25316D"/>
<path d="M71.9766 333.003C71.151 333.384 70.2506 332.628 69.3785 332.604C69.3785 332.604 67.6162 332.231 67.928 331.517C71.1917 330.791 71.9766 329.703 71.9766 329.703C73.8946 331.162 72.6699 332.682 71.9766 333.003Z" fill="#25316D"/>
<path d="M63.3396 329.534C62.2246 328.959 61.5145 327.934 61.796 326.636C61.9036 326.141 62.2147 325.49 62.7648 325.37C63.0631 325.305 63.3722 325.414 63.5115 325.695C63.6982 326.075 63.4631 326.473 63.0335 326.386" stroke="#25316D" stroke-width="2" stroke-miterlimit="1.5" stroke-linecap="round" stroke-linejoin="round"/>
</g>
<defs>
<clipPath id="clip0_1352_11469">
<rect width="474" height="359" fill="white" transform="matrix(-1 0 0 1 474 0)"/>
</clipPath>
<clipPath id="clip1_1352_11469">
<path d="M475 0H32C14.3269 0 0 14.3269 0 32V359H475V0Z" fill="white"/>
</clipPath>
<clipPath id="clip2_1352_11469">
<rect width="134" height="30" fill="white" transform="translate(53.6172 96.9379)"/>
</clipPath>
</defs>
</svg>
