<svg width="526" height="409" viewBox="0 0 526 409" fill="none" xmlns="http://www.w3.org/2000/svg">
<path opacity="0.4" fill-rule="evenodd" clip-rule="evenodd" d="M247.663 18.591C370.18 11.7069 477.095 82.844 502.091 202.981C517.294 276.056 460.984 389.636 460.984 389.636H77.0428C77.0428 389.636 -35.0001 352.5 113 219.5C195.482 145.378 136.944 24.8122 247.663 18.591Z" fill="white"/>
<path fill-rule="evenodd" clip-rule="evenodd" d="M323.321 331.275L324.364 389.64H373.489V371H375.424L382.993 389.64H430.644L419.788 318.828L323.321 331.275Z" fill="white"/>
<path fill-rule="evenodd" clip-rule="evenodd" d="M299 84.6803C299 78.5112 294.478 73.5 288.914 73.5H89.0859C83.5209 73.5 79 78.5112 79 84.6803V351.321C79 357.487 83.5209 362.5 89.0859 362.5H288.914C294.478 362.5 299 357.487 299 351.321V84.6803Z" fill="white"/>
<path d="M79.353 74.3819C80.0536 89.854 79.6886 223.192 79.5003 238.693M79.2953 246C78.8243 257.975 78.9882 345.63 79.2912 357.611M83.1218 73.5111C91.5493 73.4413 255.367 73.7092 263.806 74.0586M270.074 74.0324H298.59M298.59 74.3033V137.185M299 143.752V357.611M79.9221 362.5C84.6172 362.418 293.877 361.242 298.59 361.364M79.8973 99.6272C88.448 99.799 175.147 100.003 183.708 100.081M190.552 99.8835C196.615 99.8514 288.716 100.504 294.779 100.562M94.0735 81.3215C91.1564 82.1194 89.4602 85.8674 91.0088 88.532M92.6884 90.0055C93.6144 90.5151 94.4705 90.7801 95.5316 90.8005C97.0965 90.8354 98.7849 89.9036 99.4978 88.4824C100.018 87.4457 100.145 86.2896 100.038 85.1451C99.9359 84.0851 99.5592 82.9407 98.752 82.2068C98.1212 81.6331 97.4243 81.4526 96.6089 81.2924M119.942 81.1031C117.902 80.9487 115.767 82.0583 114.829 83.9046M114.567 86.2867C114.874 88.3252 116.033 90.6782 118.324 90.8879M121.843 81.8748C123.954 83.1329 124.374 86.211 123.445 88.3194C123.043 89.228 122.273 90.1802 121.286 90.4772M142.468 81.3215C143.877 81.0681 145.394 81.4846 146.459 82.4572C147.88 83.7561 148.45 86.3741 147.597 88.1213M140.218 82.3611C137.822 84.0909 137.313 87.9903 139.895 89.8133C141.211 90.7394 142.922 90.7772 144.439 90.4365" stroke="#25316D" stroke-width="2" stroke-miterlimit="1.5" stroke-linecap="round" stroke-linejoin="round"/>
<path fill-rule="evenodd" clip-rule="evenodd" d="M309.113 201.172C309.113 198.842 308.18 196.609 306.536 194.954C304.877 193.315 302.64 192.383 300.305 192.383H73.8738C71.5381 192.383 69.2996 193.315 67.6406 194.954C65.9976 196.609 65.0635 198.842 65.0635 201.172V260.219C65.0635 262.548 65.9976 264.784 67.6406 266.438C69.2996 268.078 71.5381 269.009 73.8738 269.009H300.305C302.64 269.009 304.877 268.078 306.536 266.438C308.18 264.784 309.113 262.548 309.113 260.219V201.172Z" fill="#25316D"/>
<path fill-rule="evenodd" clip-rule="evenodd" d="M132.808 210.422C132.808 209.351 132.596 208.29 132.184 207.3C131.773 206.31 131.17 205.411 130.41 204.654C128.879 203.126 126.803 202.262 124.647 202.262H83.6021C82.5279 202.262 81.4642 202.473 80.472 202.883C79.4797 203.294 78.5783 203.896 77.8193 204.654C77.0591 205.411 76.456 206.31 76.0445 207.3C75.6329 208.29 75.421 209.351 75.4209 210.422V251.367C75.4209 253.519 76.2878 255.589 77.8193 257.115C78.5784 257.874 79.4798 258.475 80.472 258.886C81.4642 259.297 82.5279 259.509 83.6021 259.509H124.647C126.803 259.509 128.879 258.642 130.41 257.115C131.941 255.589 132.808 253.519 132.808 251.367V210.422Z" fill="white"/>
<path fill-rule="evenodd" clip-rule="evenodd" d="M132.277 132.367C132.277 130.714 131.617 129.136 130.451 127.973C129.287 126.809 127.708 126.154 126.061 126.15H94.7952C93.1374 126.15 91.5567 126.809 90.3902 127.973C89.8112 128.549 89.3519 129.234 89.0384 129.988C88.725 130.742 88.5636 131.551 88.5635 132.367V163.556C88.5635 165.195 89.2237 166.772 90.3902 167.935C90.9684 168.513 91.655 168.971 92.4109 169.284C93.1667 169.596 93.9769 169.757 94.7952 169.757H126.061C127.703 169.757 129.284 169.099 130.451 167.935C131.617 166.775 132.274 165.2 132.277 163.556V132.367ZM132.277 297.093C132.277 295.438 131.617 293.862 130.451 292.698C129.284 291.537 127.703 290.877 126.061 290.877H94.7952C93.1374 290.877 91.5567 291.537 90.3902 292.698C89.8112 293.275 89.3518 293.96 89.0384 294.714C88.7249 295.468 88.5635 296.277 88.5635 297.093V328.283C88.5635 329.923 89.2237 331.498 90.3902 332.663C91.5588 333.828 93.143 334.483 94.7952 334.484H126.061C127.703 334.484 129.284 333.824 130.451 332.663C131.617 331.502 132.274 329.926 132.277 328.283V297.093Z" fill="#58B9FD"/>
<path fill-rule="evenodd" clip-rule="evenodd" d="M87.2743 231.124L99.0646 242.896C99.9889 243.808 101.471 243.808 102.382 242.896L123.05 222.281C123.27 222.064 123.444 221.807 123.563 221.522C123.682 221.238 123.743 220.934 123.743 220.626C123.743 220.318 123.682 220.013 123.563 219.729C123.444 219.445 123.27 219.187 123.05 218.971C122.833 218.752 122.575 218.578 122.29 218.459C122.005 218.34 121.7 218.279 121.391 218.279C121.083 218.279 120.777 218.34 120.492 218.459C120.207 218.578 119.949 218.752 119.732 218.971L100.723 237.933L90.5921 227.814C89.6678 226.904 88.1861 226.904 87.2743 227.814C87.0547 228.03 86.8803 228.288 86.7613 228.572C86.6423 228.856 86.5811 229.161 86.5811 229.469C86.5811 229.777 86.6423 230.081 86.7613 230.366C86.8803 230.65 87.0547 230.907 87.2743 231.124Z" fill="#CB2027"/>
<path fill-rule="evenodd" clip-rule="evenodd" d="M97.2471 313.268L106.228 322.236C106.668 322.674 107.265 322.92 107.887 322.92C108.509 322.92 109.106 322.674 109.546 322.236L125.29 306.531C125.73 306.092 125.977 305.496 125.977 304.875C125.977 304.253 125.73 303.658 125.29 303.218C124.849 302.78 124.253 302.534 123.631 302.534C123.009 302.534 122.412 302.78 121.971 303.218L107.887 317.271L100.565 309.954C100.125 309.516 99.5282 309.27 98.9062 309.27C98.2842 309.27 97.6875 309.516 97.2471 309.954C96.8069 310.394 96.5596 310.99 96.5596 311.611C96.5596 312.232 96.8069 312.828 97.2471 313.268Z" fill="white"/>
<path d="M115.736 152.274C115.736 153.175 115.502 154.025 115.034 154.822C114.583 155.602 113.907 156.252 113.006 156.772C112.122 157.275 111.073 157.569 109.86 157.656V159.762H108.196V157.63C106.463 157.474 105.067 156.954 104.01 156.07C102.953 155.169 102.407 153.955 102.372 152.43H106.272C106.376 153.678 107.017 154.432 108.196 154.692V149.726C106.948 149.414 105.943 149.102 105.18 148.79C104.417 148.478 103.759 147.975 103.204 147.282C102.649 146.589 102.372 145.644 102.372 144.448C102.372 142.94 102.909 141.709 103.984 140.756C105.076 139.803 106.48 139.257 108.196 139.118V137.012H109.86V139.118C111.524 139.257 112.85 139.759 113.838 140.626C114.843 141.493 115.407 142.689 115.528 144.214H111.602C111.55 143.711 111.368 143.278 111.056 142.914C110.761 142.533 110.363 142.264 109.86 142.108V147.022C111.16 147.351 112.183 147.672 112.928 147.984C113.691 148.279 114.349 148.773 114.904 149.466C115.459 150.142 115.736 151.078 115.736 152.274ZM106.168 144.266C106.168 144.838 106.341 145.306 106.688 145.67C107.035 146.017 107.537 146.303 108.196 146.528V142.03C107.572 142.117 107.078 142.351 106.714 142.732C106.35 143.113 106.168 143.625 106.168 144.266ZM109.86 154.744C110.519 154.623 111.03 154.354 111.394 153.938C111.775 153.522 111.966 153.019 111.966 152.43C111.966 151.858 111.784 151.399 111.42 151.052C111.056 150.705 110.536 150.419 109.86 150.194V154.744Z" fill="white"/>
<path fill-rule="evenodd" clip-rule="evenodd" d="M194.89 139.864C194.89 139.593 194.837 139.326 194.733 139.076C194.629 138.827 194.477 138.6 194.285 138.41C194.093 138.219 193.865 138.068 193.614 137.966C193.364 137.863 193.095 137.811 192.824 137.813H147.4C146.274 137.813 145.354 138.727 145.354 139.864C145.354 140.988 146.274 141.914 147.4 141.914H192.824C193.97 141.914 194.89 140.988 194.89 139.864ZM194.89 304.593C194.89 303.458 193.97 302.542 192.824 302.542H147.4C146.274 302.542 145.354 303.458 145.354 304.593C145.354 305.72 146.274 306.644 147.4 306.644H192.824C193.97 306.644 194.89 305.72 194.89 304.593Z" fill="#58B9FD"/>
<path fill-rule="evenodd" clip-rule="evenodd" d="M213.678 222.863C213.678 221.416 212.498 220.252 211.042 220.252H150.077C148.622 220.252 147.467 221.416 147.467 222.863C147.467 224.294 148.622 225.474 150.077 225.474H211.042C212.498 225.474 213.678 224.294 213.678 222.863Z" fill="white"/>
<path fill-rule="evenodd" clip-rule="evenodd" d="M228.837 152.789C228.838 152.52 228.785 152.253 228.681 152.004C228.578 151.754 228.427 151.528 228.236 151.338C228.045 151.147 227.818 150.996 227.568 150.893C227.318 150.79 227.05 150.738 226.78 150.738H147.415C147.144 150.738 146.877 150.79 146.627 150.893C146.377 150.996 146.15 151.147 145.959 151.337C145.768 151.528 145.616 151.754 145.513 152.004C145.41 152.253 145.357 152.52 145.357 152.789C145.359 153.333 145.576 153.854 145.961 154.239C146.347 154.623 146.869 154.839 147.415 154.84H226.78C227.325 154.839 227.848 154.623 228.233 154.239C228.619 153.854 228.836 153.333 228.837 152.789ZM228.837 317.52C228.837 316.381 227.919 315.469 226.78 315.469H147.415C147.144 315.468 146.877 315.52 146.627 315.623C146.377 315.726 146.15 315.877 145.959 316.068C145.767 316.258 145.616 316.484 145.513 316.734C145.41 316.983 145.357 317.25 145.357 317.52C145.357 318.643 146.275 319.57 147.415 319.57H226.78C227.919 319.57 228.837 318.643 228.837 317.52Z" fill="#58B9FD"/>
<path fill-rule="evenodd" clip-rule="evenodd" d="M259.014 239.312C259.014 238.618 258.717 237.942 258.252 237.454C257.752 236.973 257.085 236.703 256.391 236.699H150.057C149.339 236.699 148.662 236.967 148.196 237.454C147.689 237.942 147.435 238.618 147.435 239.312C147.435 240.002 147.689 240.661 148.196 241.151C148.662 241.638 149.339 241.92 150.057 241.92H256.391C257.067 241.92 257.744 241.638 258.252 241.151C258.717 240.661 259.014 240.002 259.014 239.312Z" fill="white"/>
<path fill-rule="evenodd" clip-rule="evenodd" d="M43.5201 178.693L55.9676 190.811C56.2869 191.113 56.7703 191.113 57.0748 190.792C57.3768 190.489 57.3794 189.986 57.0571 189.702L44.61 177.584C44.2903 177.283 43.807 177.282 43.505 177.586C43.2004 177.907 43.2004 178.392 43.5201 178.693ZM61.9843 169.833L65.2621 182.192C65.3668 182.604 65.8153 182.861 66.2253 182.737C66.6383 182.633 66.879 182.209 66.7744 181.797L63.4966 169.437C63.3723 169.028 62.9434 168.768 62.5338 168.892C62.1207 168.997 61.86 169.424 61.9843 169.833ZM40.0126 203.494L53.8874 202.405C54.3114 202.365 54.6345 201.982 54.6144 201.559C54.574 201.136 54.1905 200.814 53.7665 200.834L39.8917 201.942C39.7887 201.946 39.6875 201.971 39.5944 202.015C39.5013 202.059 39.4181 202.122 39.3501 202.199C39.282 202.276 39.2304 202.367 39.1985 202.465C39.1666 202.562 39.1549 202.666 39.1643 202.768C39.2047 203.211 39.5682 203.534 40.0126 203.494Z" fill="#25316D"/>
<path fill-rule="evenodd" clip-rule="evenodd" d="M63.8151 300.663L48.159 316.31C48.0863 316.382 48.0287 316.467 47.9893 316.561C47.95 316.654 47.9297 316.755 47.9297 316.857C47.9297 316.959 47.95 317.059 47.9893 317.153C48.0287 317.247 48.0863 317.332 48.159 317.404C48.465 317.709 48.9646 317.709 49.2707 317.404L64.9264 301.771C65.2321 301.466 65.2321 300.968 64.9264 300.663C64.7789 300.516 64.5791 300.434 64.3708 300.434C64.1624 300.434 63.9626 300.516 63.8151 300.663ZM277.424 371.075C275.036 371.075 273.116 373.009 273.116 375.369C273.116 377.747 275.036 379.685 277.424 379.685C279.808 379.685 281.728 377.747 281.728 375.369C281.728 373.009 279.808 371.075 277.424 371.075ZM277.424 372.647C278.939 372.647 280.171 373.876 280.171 375.369C280.171 376.88 278.939 378.109 277.424 378.109C275.905 378.109 274.673 376.88 274.673 375.369C274.673 373.876 275.905 372.647 277.424 372.647Z" fill="#25316D"/>
<path fill-rule="evenodd" clip-rule="evenodd" d="M268.664 157.119C265.104 157.119 262.225 159.993 262.225 163.512C262.225 167.063 265.104 169.936 268.664 169.936C272.223 169.936 275.103 167.063 275.103 163.512C275.103 159.993 272.223 157.119 268.664 157.119ZM268.664 158.669C271.351 158.669 273.52 160.864 273.52 163.512C273.52 166.191 271.351 168.387 268.664 168.387C265.977 168.387 263.812 166.191 263.812 163.512C263.812 160.864 265.977 158.669 268.664 158.669ZM403.859 141.555C403.395 142.808 402.809 144.383 402.45 145.354C402.318 145.709 402.034 145.991 401.679 146.122C400.708 146.481 399.128 147.064 397.87 147.528C397.574 147.637 397.319 147.834 397.139 148.093C396.958 148.351 396.861 148.658 396.861 148.973C396.861 149.287 396.958 149.594 397.139 149.853C397.319 150.111 397.574 150.308 397.87 150.417C399.128 150.881 400.708 151.463 401.679 151.823C401.855 151.888 402.015 151.991 402.148 152.124C402.281 152.256 402.384 152.416 402.45 152.592C402.809 153.562 403.395 155.138 403.859 156.39C403.968 156.685 404.166 156.94 404.424 157.12C404.683 157.3 404.991 157.396 405.307 157.396C405.622 157.396 405.93 157.3 406.189 157.12C406.448 156.94 406.645 156.685 406.754 156.39C407.219 155.138 407.804 153.562 408.163 152.592C408.296 152.236 408.579 151.955 408.934 151.823C409.905 151.463 411.485 150.881 412.743 150.417C413.039 150.308 413.294 150.111 413.475 149.853C413.655 149.594 413.752 149.287 413.752 148.973C413.752 148.328 413.348 147.752 412.743 147.528C411.473 147.06 410.204 146.591 408.934 146.122C408.758 146.057 408.598 145.954 408.465 145.822C408.332 145.689 408.229 145.529 408.163 145.354C407.804 144.383 407.219 142.808 406.754 141.555C406.645 141.26 406.448 141.005 406.189 140.825C405.93 140.645 405.622 140.549 405.307 140.549C404.991 140.549 404.683 140.645 404.425 140.825C404.166 141.005 403.968 141.26 403.859 141.555ZM405.307 142.149L406.697 145.895C406.84 146.282 407.066 146.634 407.358 146.926C407.65 147.218 408.002 147.443 408.39 147.586L412.146 148.973L408.39 150.359C408.002 150.502 407.65 150.728 407.358 151.019C407.066 151.311 406.84 151.663 406.697 152.05L405.307 155.797L403.916 152.05C403.772 151.663 403.547 151.312 403.255 151.02C402.962 150.728 402.611 150.503 402.223 150.359L398.467 148.973L402.223 147.586C402.611 147.442 402.962 147.217 403.255 146.925C403.547 146.633 403.772 146.282 403.916 145.895L405.307 142.149Z" fill="#58B9FD"/>
<path fill-rule="evenodd" clip-rule="evenodd" d="M417.789 165.25C417.418 166.252 416.95 167.511 416.663 168.287C416.619 168.406 416.549 168.515 416.459 168.605C416.369 168.695 416.261 168.765 416.141 168.809C415.363 169.096 414.101 169.562 413.095 169.933C412.829 170.031 412.599 170.209 412.437 170.441C412.274 170.674 412.188 170.951 412.188 171.235C412.188 171.815 412.547 172.335 413.095 172.537L416.141 173.66C416.383 173.75 416.572 173.94 416.663 174.182C416.95 174.958 417.418 176.218 417.789 177.22C417.888 177.485 418.067 177.715 418.3 177.877C418.534 178.039 418.812 178.126 419.096 178.126C419.678 178.126 420.2 177.764 420.4 177.22C420.77 176.218 421.239 174.958 421.526 174.182C421.617 173.94 421.806 173.75 422.051 173.66C422.826 173.373 424.088 172.907 425.093 172.537C425.36 172.439 425.591 172.261 425.753 172.028C425.916 171.796 426.004 171.519 426.004 171.235C426.004 170.654 425.641 170.135 425.093 169.933C424.088 169.562 422.826 169.096 422.051 168.809C421.931 168.765 421.822 168.696 421.731 168.606C421.64 168.516 421.57 168.407 421.526 168.287C421.239 167.511 420.77 166.252 420.4 165.25C420.302 164.984 420.124 164.754 419.891 164.592C419.658 164.43 419.38 164.344 419.096 164.344C418.514 164.344 417.993 164.705 417.789 165.25ZM419.096 166.23L420.06 168.829C420.182 169.16 420.374 169.46 420.624 169.71C420.874 169.959 421.175 170.151 421.507 170.273L424.111 171.235L421.507 172.197C421.175 172.318 420.874 172.51 420.624 172.76C420.374 173.009 420.182 173.309 420.06 173.64L419.096 176.239L418.133 173.64C418.009 173.31 417.816 173.009 417.565 172.76C417.315 172.511 417.013 172.319 416.681 172.197L414.078 171.235L416.681 170.273C417.013 170.151 417.315 169.959 417.565 169.709C417.816 169.46 418.009 169.16 418.133 168.829L419.096 166.23Z" fill="#25316D"/>
<path d="M161.197 377.493C172.494 377.493 181.651 368.36 181.651 357.089C181.651 345.821 172.494 336.684 161.197 336.684C149.9 336.684 140.742 345.821 140.742 357.089C140.742 368.36 149.9 377.493 161.197 377.493Z" fill="#CB2027"/>
<path fill-rule="evenodd" clip-rule="evenodd" d="M172.213 362.468C172.29 362.197 172.283 361.903 172.201 361.624L171.535 359.419C171.424 359.079 171.206 358.782 170.91 358.586C171.008 358.205 170.992 357.805 170.849 357.432C170.646 356.897 170.322 356.041 170.095 355.464C169.94 355.048 169.643 354.7 169.256 354.481C169.373 354.003 169.331 353.5 169.135 353.048C168.972 352.656 168.75 352.155 168.558 351.702C168.346 351.208 167.965 350.804 167.483 350.563C167.001 350.321 166.449 350.258 165.925 350.383L163.664 350.926C163.566 349.897 163.344 348.102 162.855 345.991C162.277 343.492 160.835 342.84 159.73 342.704C159.464 342.673 159.193 342.7 158.939 342.784C158.684 342.868 158.451 343.007 158.256 343.191C158.061 343.376 157.909 343.603 157.811 343.853C157.713 344.104 157.672 344.373 157.69 344.642C158.445 355.287 153.937 359.434 151.974 360.697C151.575 360.95 151.278 361.334 151.133 361.783C150.988 362.232 151.005 362.717 151.18 363.154C151.879 364.915 153.31 368.477 154.004 370.222C154.187 370.676 154.529 371.049 154.966 371.272C155.402 371.495 155.905 371.553 156.381 371.436C157.965 371.067 161.188 370.396 165.035 369.985C169.856 369.484 172.14 367.395 172.838 366.645C172.839 366.638 172.847 366.634 172.855 366.626C173.154 366.272 173.271 365.797 173.16 365.348C173.023 364.809 172.762 363.735 172.615 363.166C172.552 362.899 172.412 362.656 172.213 362.468ZM170.041 359.89L170.695 362.073L170.494 362.461C170.369 362.706 170.377 362.992 170.516 363.226C170.624 363.407 170.799 363.531 171.003 363.584H170.996L171.116 363.614L171.621 365.654C170.951 366.355 168.938 368.01 164.871 368.439C160.935 368.854 157.636 369.544 156.023 369.917C156.016 369.917 156.015 369.925 156.008 369.925C155.898 369.95 155.782 369.935 155.681 369.882C155.581 369.83 155.503 369.743 155.461 369.638C154.759 367.893 153.336 364.331 152.636 362.581C152.553 362.367 152.626 362.129 152.816 362.005C154.961 360.636 160.077 356.166 159.256 344.529C159.252 344.491 159.257 344.452 159.271 344.416C159.284 344.381 159.305 344.348 159.332 344.321C159.36 344.297 159.392 344.278 159.428 344.267C159.463 344.256 159.5 344.253 159.537 344.257C160.204 344.34 160.983 344.823 161.333 346.342C162.07 349.508 162.169 351.932 162.169 351.932C162.184 352.166 162.295 352.385 162.482 352.524C162.668 352.664 162.91 352.713 163.135 352.664C163.135 352.664 164.997 352.215 166.29 351.902C166.635 351.823 166.985 351.996 167.119 352.317L167.696 353.663C167.74 353.761 167.761 353.869 167.756 353.977C167.752 354.085 167.722 354.19 167.67 354.285C167.575 354.462 167.491 354.609 167.491 354.609C167.368 354.835 167.371 355.103 167.488 355.336C167.605 355.57 167.827 355.721 168.085 355.751C168.085 355.751 168.193 355.766 168.336 355.785C168.472 355.8 168.585 355.894 168.635 356.015L169.382 357.983C169.401 358.033 169.409 358.086 169.405 358.14C169.401 358.193 169.385 358.245 169.358 358.292C169.255 358.476 169.16 358.653 169.16 358.653C169.039 358.865 169.021 359.125 169.118 359.347C169.221 359.57 169.412 359.732 169.653 359.792L170.041 359.89Z" fill="white"/>
<path d="M377.993 70.267C378.157 63.7767 375.339 57.1188 371.318 52.1533M365.944 46.7078C358.076 40.6395 347.699 39.0009 338.207 41.8768M377.206 76.0353C375.337 86.347 368.117 96.2759 358.113 99.9607C353.336 101.726 347.903 101.881 342.948 100.894M337.541 99.7456C331.707 97.3745 325.851 93.9442 322.224 88.6084C312.877 74.8146 315.487 53.7154 334.825 42.874" stroke="#25316D" stroke-width="2" stroke-miterlimit="1.5" stroke-linecap="round" stroke-linejoin="round"/>
<path fill-rule="evenodd" clip-rule="evenodd" d="M346.274 84.6686C346.596 85.1816 347.078 85.5751 347.646 85.7884C348.214 86.0018 348.836 86.0233 349.418 85.8496C351.933 85.1073 356.952 83.6127 359.227 82.9436C359.732 82.7917 360.185 82.5 360.531 82.1023C360.878 81.7045 361.104 81.217 361.184 80.6961V80.686C361.551 78.0205 361.804 71.6962 357.371 65.4767L352.519 54.5531C352.227 53.8905 351.684 53.3707 351.007 53.108C350.331 52.8453 349.578 52.8612 348.914 53.1523C348.32 53.4089 347.848 53.8862 347.6 54.4831C347.352 55.0801 347.346 55.75 347.584 56.3512L349.857 62.2258C348.873 62.3095 347.583 62.6857 346.913 64.0235C346.043 63.9085 344.587 63.9191 343.507 64.9644L340.437 57.7309C340.256 57.3077 339.991 56.9254 339.658 56.6074C339.325 56.2894 338.93 56.0422 338.499 55.8808C337.618 55.5464 336.654 55.5984 335.816 55.9957H335.805C335.125 56.3269 334.598 56.9077 334.337 57.6168C334.075 58.3259 334.098 59.1084 334.402 59.8008L338.729 69.7835C337.765 69.595 336.466 69.4593 335.103 69.6055C333.207 69.8148 331.205 70.5777 329.78 72.4904C329.392 73.0133 329.194 73.6613 329.403 74.2467C329.529 74.6022 329.812 74.9678 330.378 75.2396C330.933 75.522 331.876 75.7413 333.385 75.7625C339.945 75.888 344.534 81.9925 346.263 84.6686H346.274ZM330.88 73.7137C330.901 73.6718 330.975 73.5045 331.038 73.4212C332.159 71.8948 333.762 71.32 335.271 71.1526C337.65 70.9019 339.819 71.6543 339.819 71.6543C339.962 71.7051 340.117 71.7124 340.265 71.6751C340.412 71.6379 340.545 71.5578 340.647 71.4451C340.751 71.3355 340.82 71.1978 340.846 71.0491C340.872 70.9004 340.854 70.7474 340.793 70.609C340.793 70.609 337.43 62.8632 335.837 59.1837C335.544 58.5044 335.827 57.7203 336.497 57.4067C336.721 57.297 336.964 57.2339 337.213 57.2213C337.461 57.2087 337.71 57.2469 337.943 57.3336C338.176 57.4224 338.389 57.557 338.569 57.7294C338.749 57.9018 338.893 58.1084 338.991 58.337C340.385 61.6091 342.616 66.8771 342.616 66.8771C342.676 67.0193 342.777 67.1407 342.905 67.2262C343.034 67.3118 343.185 67.3576 343.34 67.3581C343.654 67.3581 343.937 67.17 344.063 66.8771C344.901 64.9018 347.165 65.6542 347.165 65.6542C347.265 65.6856 347.37 65.6962 347.475 65.6855C347.579 65.6747 347.681 65.6428 347.772 65.5917C347.865 65.5441 347.946 65.4776 348.011 65.3965C348.076 65.3155 348.123 65.2217 348.149 65.1212C348.401 64.2534 349.051 63.9296 349.627 63.8147C350.277 63.6891 350.864 63.8041 350.864 63.8041C351.001 63.8306 351.143 63.8204 351.275 63.7745C351.407 63.7286 351.525 63.6487 351.616 63.5429C351.797 63.3235 351.847 63.02 351.745 62.7588C351.745 62.7588 349.993 58.2432 349.04 55.7865C348.851 55.3161 349.082 54.7831 349.543 54.5844C349.828 54.4595 350.151 54.4521 350.441 54.5637C350.732 54.6754 350.966 54.897 351.094 55.1804C352.655 58.6925 355.977 66.1771 355.977 66.1771C356 66.2291 356.03 66.271 356.049 66.3234C360.202 72.0935 359.979 77.9786 359.646 80.4662C359.559 80.9261 359.227 81.3132 358.773 81.4384C356.502 82.118 351.48 83.6127 348.977 84.3549C348.721 84.4318 348.447 84.4223 348.197 84.3278C347.946 84.2332 347.735 84.059 347.594 83.8321H347.584C345.698 80.9054 340.584 74.341 333.416 74.2049C332.41 74.1841 331.719 74.0899 331.269 73.9229C331.143 73.881 331.048 73.8392 330.975 73.7868C330.941 73.765 330.91 73.7406 330.88 73.7137Z" fill="#25316D"/>
<path fill-rule="evenodd" clip-rule="evenodd" d="M350.119 71.2775C350.434 71.3189 350.748 71.2775 351.042 71.1519C351.624 70.9056 352.207 70.6617 352.791 70.4203C353.211 70.2434 353.546 69.9125 353.727 69.4961C353.909 69.0796 353.923 68.6095 353.766 68.183C353.135 66.4478 351.798 62.7476 351.798 62.7476C351.726 62.5521 351.58 62.3927 351.391 62.3045C351.202 62.2164 350.986 62.2065 350.79 62.2771C350.381 62.4234 350.172 62.8731 350.318 63.27L352.3 68.7164C352.33 68.8208 352.289 68.9358 352.183 68.9776L350.433 69.7199C350.408 69.7302 350.381 69.7354 350.353 69.7352C350.326 69.735 350.299 69.7294 350.273 69.7187C350.248 69.7081 350.225 69.6925 350.206 69.673C350.187 69.6534 350.171 69.6303 350.161 69.6049L348.139 64.7233C348.1 64.6289 348.043 64.5432 347.971 64.4711C347.898 64.399 347.812 64.3418 347.718 64.3029C347.623 64.2641 347.522 64.2443 347.42 64.2447C347.317 64.245 347.216 64.2656 347.122 64.3052C346.724 64.462 346.536 64.9219 346.693 65.3192L348.705 70.3471C348.74 70.4275 348.743 70.5188 348.711 70.601C348.68 70.6831 348.617 70.7496 348.537 70.7859L347.017 71.5489C346.976 71.5704 346.93 71.5834 346.884 71.587C346.837 71.5906 346.79 71.5848 346.745 71.57C346.659 71.5377 346.588 71.4742 346.546 71.3921C345.697 69.6256 344.052 66.2077 344.052 66.2077C343.874 65.821 343.402 65.6536 343.014 65.8417C342.627 66.0298 342.459 66.4897 342.648 66.8764L345.131 72.0717C345.362 72.5316 345.76 72.8871 346.242 73.0439C346.482 73.1272 346.737 73.1617 346.99 73.1455C347.244 73.1294 347.492 73.0628 347.72 72.9497C348.202 72.7096 348.778 72.4166 349.239 72.1867C349.648 71.988 349.941 71.6642 350.119 71.2775Z" fill="#25316D"/>
<path d="M384.071 156.996C393.383 167.472 384.531 173.435 378.226 174.89L375.823 176.662L376.547 193.548C367.093 203.001 353.66 198.979 348.125 195.787L347.803 183.809L339.495 179.482L335.659 145.885L331.955 138.874C328.649 130.541 328.516 125.911 345.315 117.843C358.754 111.388 373.842 124.589 379.706 131.996C389.865 136.652 386.849 150.602 384.071 156.996Z" fill="white"/>
<path fill-rule="evenodd" clip-rule="evenodd" d="M317 307C314.309 275.466 301.193 218.504 308.028 212.458C314.864 206.409 328.952 202.231 328.952 202.231C328.952 202.231 328.683 195.404 332.863 194.944C337.041 194.484 336.623 194.944 336.623 194.944C336.623 194.944 337.817 189.515 341.488 188.472C345.159 187.424 347.607 187.515 347.607 187.515L348.235 197.004C348.235 197.004 355.846 200.944 364.083 199.311C372.352 197.676 376.918 193.589 376.918 193.589L376.382 185.761C376.382 185.761 381.516 185.046 382.95 188.472C384.381 191.89 384.023 192.138 384.023 192.138C384.023 192.138 388.233 192.524 389.247 194.944C390.233 197.362 390.053 197.981 390.053 197.981C390.053 197.981 394.555 198.488 392.884 200.38C392.884 200.38 417.472 199.311 422.768 207.06C429.594 217.049 429.724 240.39 430 252.5C430.276 264.61 424.5 334.5 424.5 334.5C424.5 334.5 396.101 347.396 373 349C349.543 350.628 317 346.5 317 346.5C317 346.5 318.591 325.654 317 307Z" fill="#58B9FD"/>
<path d="M352.175 157.83C353.936 160.157 354.235 163.17 353.429 165.91C353.16 166.75 352.831 167.565 352.413 168.326C352.324 168.438 351.847 169.036 351.876 169.138C351.876 169.195 352.831 169.234 352.952 169.248C354.175 169.403 355.399 169.301 356.623 169.291M359.936 155.096C361.846 153.249 365.28 153.058 367.339 154.829M340.087 155.703C341.877 154.233 344.863 153.272 346.893 154.814M353.459 177.365C356.116 178.236 360.383 177.698 361.965 175.1M367.961 143.305C368.378 145.307 369.095 147.141 370.677 148.501C371.275 149.012 372.111 149.296 372.677 149.801C372.798 149.919 372.828 150.454 372.858 150.63C373.006 151.436 373.095 152.269 373.125 153.09C373.216 155.328 373.275 158.229 374.976 159.921M377.32 159.374C379.708 156.466 384.066 155.54 386.632 158.774C387.141 159.391 387.497 160.118 387.737 160.865C389.29 165.456 386.783 171.161 382.603 173.435C380.961 174.334 379.349 174.76 377.5 174.116" stroke="#25316D" stroke-width="2" stroke-miterlimit="1.5" stroke-linecap="round" stroke-linejoin="round"/>
<path d="M382.753 163.083C381.559 164.593 380.305 166.02 379.111 167.511M365.994 141.855C361.905 144.354 357.607 146.67 352.712 146.884C350.445 146.982 347.668 146.248 347.251 143.604M334.057 140.135C333.788 140.738 333.548 141.377 333.459 142.046C333.041 145.326 336.295 146.439 338.982 146.291C343.31 146.051 347.251 143.506 349.965 140.213M331.998 139.073C331.192 138.154 330.445 137.133 329.998 136.001C327.042 128.623 334.027 122.166 340.354 120.083C342.981 119.217 346.742 118.537 349.31 119.955C351.159 120.963 348.504 123.083 347.159 122.919C345.011 122.65 344.354 119.88 344.981 118.134C345.488 116.796 346.623 115.934 347.906 115.376C350.413 114.286 353.04 114.37 355.698 114.788C361.28 115.671 366.622 118.534 371.04 121.946C372.8 123.301 374.711 124.73 375.994 126.575M379.158 131.548C380.023 131.626 380.889 131.813 381.695 132.13C387.605 134.431 387.546 141.413 387.277 146.747C387.217 148.091 387.128 149.425 386.918 150.755C386.71 152.136 386.352 153.523 385.904 154.848M378.651 123.838C378.98 125.008 379.188 126.151 379.218 127.366C379.218 127.7 379.217 128.038 379.188 128.372C379.188 128.405 379.128 128.661 379.158 128.682C379.188 128.706 379.546 128.542 379.576 128.527C380.055 128.366 380.503 128.196 380.98 128.035C382.74 127.42 384.651 126.849 386.532 126.799M336.176 148.846C336.683 159.056 337.518 168.466 338.772 176.834C338.981 178.246 339.731 179.521 340.863 180.389C345.669 184.064 350.86 186.569 356.294 188.299C357.666 188.738 359.159 188.615 360.472 187.956C365.905 185.165 371.069 181.509 375.994 177.015M347.577 184.673L347.965 195.822" stroke="#25316D" stroke-width="2" stroke-miterlimit="1.5" stroke-linecap="round" stroke-linejoin="round"/>
<path d="M375.994 177.014L376.71 193.702C376.71 193.702 366.622 204.26 349.638 197.295M328.893 201.513C328.712 198.544 330.176 195.426 333.31 194.814C334.057 194.667 334.803 194.671 335.548 194.816C335.787 194.86 336.027 194.934 336.265 195.024C336.294 195.038 336.564 195.176 336.564 195.174C336.712 194.954 336.682 194.368 336.742 194.097C336.892 193.388 337.13 192.691 337.459 192.052C339.041 189.022 342.235 187.251 345.639 187.437M331.219 204.192C344.981 213.016 363.487 212.215 378.621 207.958C381.277 207.214 383.724 206.047 386.292 205.125M376.621 185.662C379.427 184.962 382.292 186.46 383.338 189.113C383.605 189.77 383.785 190.466 383.875 191.168V192.252C384.5 192.432 385.338 192.254 385.993 192.402C388.023 192.854 389.098 194.449 389.694 196.307M353.698 211.044L356.921 245.066M365.994 210.503L369.934 245.066" stroke="#25316D" stroke-width="2" stroke-miterlimit="1.5" stroke-linecap="round" stroke-linejoin="round"/>
<path d="M344.54 212.383C344.816 215.355 345.002 218.334 345.308 221.297C345.477 222.99 345.679 224.69 345.938 226.381C346.211 228.381 346.478 230.463 347.327 232.313C347.435 232.51 347.513 232.703 347.653 232.885C348.61 234.421 349.375 231.526 349.386 230.837C349.422 230.215 349.369 229.592 349.346 228.97C349.129 223.46 348.828 215.773 347.891 210.324M370.327 209.855C370.603 212.825 370.965 217.866 371.273 220.829C371.442 222.521 371.642 224.222 371.903 225.912C372.174 227.912 372.441 229.995 373.292 231.844C373.4 232.041 373.478 232.234 373.616 232.417C374.575 233.952 375.34 231.057 375.351 230.368C375.387 229.746 375.334 229.123 375.311 228.502C375.092 222.992 374.944 217.346 374.034 211.9" stroke="#25316D" stroke-width="2" stroke-miterlimit="1.5" stroke-linecap="round" stroke-linejoin="round"/>
<path d="M345.007 162.485C344.941 162.553 344.852 162.593 344.758 162.599C344.664 162.593 344.575 162.553 344.509 162.485C344.439 162.414 344.399 162.317 344.399 162.217C344.399 162.116 344.439 162.02 344.509 161.948C344.575 161.881 344.664 161.84 344.758 161.835C344.852 161.84 344.941 161.881 345.007 161.948C345.077 162.02 345.117 162.116 345.117 162.217C345.117 162.317 345.077 162.414 345.007 162.485ZM364.495 162.217C364.495 162.426 364.33 162.595 364.121 162.599C364.024 162.595 363.932 162.555 363.864 162.485C363.793 162.414 363.754 162.317 363.754 162.217C363.754 162.116 363.793 162.02 363.864 161.948C363.932 161.879 364.024 161.838 364.121 161.834C364.33 161.839 364.495 162.007 364.495 162.217Z" fill="#25316D" stroke="#25316D" stroke-width="2"/>
<path d="M366.894 185.222C364.736 187.303 361.786 189.371 358.057 190.275C356.244 190.714 353.873 190.081 351.802 189.207C350.796 188.782 349.915 188.325 349.286 187.974C349.081 187.859 348.903 187.756 348.757 187.669V186.484C349.365 186.815 350.124 187.203 350.972 187.582C353.08 188.524 355.925 189.497 358.403 189.223L366.894 185.222ZM366.894 185.222C365.561 186.095 364.122 186.971 362.741 187.679C361.231 188.453 359.69 189.081 358.403 189.223L366.894 185.222Z" fill="#25316D" stroke="#25316D" stroke-width="2"/>
<path fill-rule="evenodd" clip-rule="evenodd" d="M416.104 205.129C416.104 205.129 398.883 209.154 400.089 243.553C400.38 251.666 401.173 261.293 401.173 261.293L387.925 259.925H364.005L351.546 287.684C351.546 287.684 399.53 303.517 426.567 295.404C435.595 292.705 438.255 281.981 436.177 264.633C434.095 247.312 428.045 216.624 416.104 205.129Z" fill="#58B9FD"/>
<path fill-rule="evenodd" clip-rule="evenodd" d="M110.158 390.408H443.489C443.924 390.408 444.275 390.062 444.275 389.639C444.275 389.202 443.924 388.852 443.489 388.852H110.158C110.055 388.852 109.952 388.872 109.857 388.912C109.761 388.952 109.675 389.01 109.602 389.083C109.529 389.156 109.471 389.243 109.432 389.338C109.393 389.434 109.373 389.536 109.373 389.639C109.373 390.062 109.724 390.408 110.158 390.408Z" fill="#25316D"/>
<path fill-rule="evenodd" clip-rule="evenodd" d="M376.818 246.643C376.818 246.643 389.443 239.447 392.21 239.113C394.976 238.802 400.924 241.667 402.004 242.248C403.108 242.847 404 245.233 406.705 248.283C407.495 249.176 406.392 251.977 403.293 250.669C403.293 250.669 404.166 253.202 403.002 254.654C403.002 254.654 403.833 256.376 402.378 257.786H396.389C396.389 257.786 392.251 262.102 384.554 262.144L379.875 254.654L376.818 246.643Z" fill="white"/>
<path fill-rule="evenodd" clip-rule="evenodd" d="M376.441 245.962C376.108 246.169 375.965 246.561 376.089 246.916L379.147 254.945C379.165 254.987 379.188 255.028 379.207 255.069L383.889 262.541C384.033 262.767 384.282 262.914 384.554 262.914C391.5 262.891 395.66 259.51 396.699 258.556H402.379C402.587 258.556 402.772 258.473 402.919 258.349C404.272 257.018 404.083 255.507 403.875 254.779C404.249 254.116 404.397 253.347 404.397 252.623C404.397 252.333 404.374 252.039 404.333 251.771C405.062 251.854 405.685 251.73 406.161 251.5C406.997 251.085 407.495 250.339 407.662 249.634C407.847 248.906 407.681 248.201 407.306 247.768C405.704 245.981 404.748 244.405 404 243.327C403.418 242.456 402.897 241.853 402.398 241.563C401.608 241.148 398.385 239.573 395.535 238.803C394.247 238.43 393.019 238.243 392.104 238.347C391.231 238.45 389.421 239.177 387.32 240.195C382.638 242.434 376.441 245.962 376.441 245.962ZM377.794 246.999C379.438 246.064 384.221 243.41 388.008 241.604C389.897 240.692 391.5 239.987 392.289 239.904C393.31 239.78 394.806 240.153 396.284 240.651C398.653 241.457 401.007 242.6 401.631 242.931C401.982 243.139 402.296 243.595 402.711 244.198C403.478 245.317 404.48 246.938 406.12 248.804C406.161 248.865 406.161 248.929 406.161 249.012C406.184 249.178 406.12 249.362 406.037 249.532C405.727 250.154 404.896 250.504 403.607 249.947C403.463 249.895 403.307 249.882 403.157 249.912C403.007 249.941 402.867 250.01 402.753 250.112C402.522 250.32 402.462 250.629 402.545 250.919C402.545 250.919 402.813 251.73 402.813 252.623C402.813 253.162 402.753 253.743 402.398 254.176C402.213 254.406 402.171 254.738 402.296 255.009C402.296 255.009 402.794 256.046 402.046 257H396.386C396.159 257 395.951 257.082 395.807 257.248C395.807 257.248 392.021 261.169 384.989 261.357L380.579 254.323L377.794 246.999Z" fill="#25316D"/>
<path fill-rule="evenodd" clip-rule="evenodd" d="M402.587 246.624L397.138 244.197C396.741 244.008 396.284 244.197 396.117 244.592C395.932 244.984 396.117 245.441 396.514 245.629L401.963 248.034C402.356 248.223 402.817 248.034 402.984 247.642C403.027 247.55 403.051 247.449 403.055 247.347C403.058 247.245 403.041 247.143 403.004 247.048C402.967 246.953 402.911 246.866 402.839 246.794C402.767 246.721 402.682 246.663 402.587 246.624ZM403.157 249.847L396.616 248.769C396.185 248.713 395.789 249.007 395.728 249.421C395.641 249.859 395.932 250.247 396.363 250.322L402.9 251.382C403.312 251.461 403.728 251.163 403.792 250.729C403.857 250.315 403.566 249.904 403.157 249.847ZM402.64 253.956L397.081 252.935C396.658 252.848 396.257 253.131 396.178 253.564C396.095 253.983 396.374 254.382 396.798 254.473L402.356 255.494C402.78 255.562 403.199 255.279 403.278 254.865C403.343 254.427 403.063 254.024 402.64 253.956Z" fill="#25316D"/>
<path fill-rule="evenodd" clip-rule="evenodd" d="M308.18 216.582C308.18 216.582 315.375 223.159 317.809 231.355C320.242 239.531 321.036 262.103 321.036 262.103C321.036 262.103 347.136 251.647 356.247 249.095C365.377 246.52 369.14 248.491 369.14 248.491C369.14 248.491 374.548 244.677 377.272 245.962C379.706 247.123 383.598 254.3 384.679 261.523C384.887 263.099 384.324 264.697 383.16 265.798C381.682 267.208 379.562 269.156 377.858 270.28C377.858 270.28 377.046 274.242 371.699 277.517C366.355 280.82 325.797 306.506 299.36 300.011C289.667 297.625 286.112 279.968 292.124 252.084C298.136 224.217 303.917 218.387 308.18 216.582Z" fill="#58B9FD"/>
<path d="M415.5 205.5C411.333 208.167 402.9 214.9 402.5 220.5C402.1 226.1 400.667 234.167 400 237.5M433 243.5C434.167 251.5 436.5 268.5 436.5 272.5M436.5 282C436.333 286.167 433.3 295 422.5 297M407 298C393 296.667 363 293 355 289M424.5 279.5C423.667 275.667 420.7 267.4 415.5 265C410.3 262.6 401.667 261.667 398 261.5" stroke="#25316D" stroke-width="2" stroke-miterlimit="1.5" stroke-linecap="round" stroke-linejoin="round"/>
<path d="M305 281C306.5 277 310.5 268.4 314.5 266M322.5 261.5C329.834 258.667 345.2 252.8 348 252M358 248.5L362.5 247.5M376 274C373.667 276 368.8 280 368 280M361.5 283.5C356.5 286.167 345.7 291.9 342.5 293.5M337 296C324.167 300.333 297.2 306.1 292 294.5M290.5 287C289.167 282.5 289.6 267.5 294 245.5M295.5 237.5C296.833 231.833 301 219.8 307 217M309.5 218C312.667 220.667 319 228.7 319 239.5M320.5 244.5V258.5" stroke="#25316D" stroke-width="2" stroke-miterlimit="1.5" stroke-linecap="round" stroke-linejoin="round"/>
<path d="M318 328.5V346.5C323.333 347.5 335.8 349.4 343 349M424 335.5C419.667 337.167 409.9 340.8 405.5 342M427 302.5L425.5 325.5M323 351.5L324.5 390M373 390L374 366.5L383.5 390M431 388.5L424 339.5" stroke="#25316D" stroke-width="2" stroke-miterlimit="1.5" stroke-linecap="round" stroke-linejoin="round"/>
<path d="M366.357 247.095C368.561 250.371 370.493 253.883 372.281 257.407C374.76 262.338 377.011 267.398 377.888 272.881M375.86 243.884C380.13 249.416 384.425 255.756 385.851 262.728M375.74 244.151L366.94 247.298M385.5 263.295C384.024 264.513 383.35 265.632 382 267C380.518 268.49 379.885 270.003 378.309 271.432M381.254 255.609C379.862 256.159 378.522 256.811 377.195 257.471M382.527 260.762C381.194 261.556 379.953 262.512 378.602 263.295" stroke="#25316D" stroke-width="2" stroke-miterlimit="1.5" stroke-linecap="round" stroke-linejoin="round"/>
</svg>
