<svg width="526" height="409" viewBox="0 0 526 409" fill="none" xmlns="http://www.w3.org/2000/svg">
<g clip-path="url(#clip0_259_1078)">
<path opacity="0.4" fill-rule="evenodd" clip-rule="evenodd" d="M335.5 100C389.957 76.7006 415.5 72 480.5 144.5C530.325 200.075 536.505 287.368 514.5 349C497.183 397.5 306.999 435.5 264.5 384C227.128 338.713 269 241 269 241C269 241 279.527 123.948 335.5 100Z" fill="white"/>
<path opacity="0.4" d="M262 122.5C262 190.155 203.349 245 131 245C58.6507 245 0 190.155 0 122.5C0 54.8451 0 -4.5 131 1.23084e-05C203.349 1.23084e-05 262 54.8451 262 122.5Z" fill="white"/>
<path d="M525.032 349.603H308.032" stroke="#25316D" stroke-width="2" stroke-linecap="round" stroke-linejoin="round"/>
<path d="M468.946 358.809L468.802 358.704L468.703 358.556C467.929 357.394 466.531 356.701 464.593 356.487C462.659 356.274 460.324 356.559 457.925 357.219C455.535 357.877 453.137 358.89 451.094 360.082C449.036 361.282 447.407 362.621 446.484 363.898C442.569 369.308 443.277 376.187 447.614 379.352C448.611 380.079 450.229 380.532 452.29 380.646C454.326 380.758 456.674 380.532 459.022 380.019C461.368 379.506 463.679 378.713 465.641 377.712C467.616 376.703 469.167 375.52 470.076 374.264C473.99 368.853 473.283 361.974 468.946 358.809Z" fill="white" stroke="#25316D" stroke-width="2"/>
<path d="M446.064 377.546C447.318 376.136 450.013 373.316 450.765 373.316" stroke="#25316D" stroke-width="2"/>
<path d="M340.253 345.792C338.596 354.112 333.62 363.696 338.832 378.598C344.045 393.5 356.005 405.401 369 401.5C378.972 398.507 374.998 388.752 369.5 386C364.341 383.418 359 385 357.5 391.5C354.06 406.405 370.145 408.64 395 406.5C419.855 404.36 423.732 394.202 426.5 390C435 377.098 441.094 380.737 445.354 378.598" stroke="#303030" stroke-width="2" stroke-linecap="round"/>
<path d="M449.224 368.419L449.229 368.423C449.519 368.596 449.905 368.527 450.12 368.249C451.045 367.034 452.579 365.12 454.395 363.228C456.199 361.348 458.336 359.431 460.469 358.268L461.471 359.98C461.479 359.993 461.479 359.993 461.479 359.993L461.478 359.993L461.477 359.994L461.462 360.003C461.449 360.012 461.426 360.027 461.396 360.046C461.337 360.086 461.246 360.148 461.131 360.229C460.901 360.393 460.574 360.638 460.195 360.956C459.433 361.594 458.485 362.509 457.7 363.63C456.915 364.752 456.322 366.04 456.202 367.439C456.084 368.806 456.41 370.362 457.594 372.075C458.298 372.907 459.539 373.342 460.098 373.525L460.21 373.562L460.31 373.624L460.31 373.624L460.31 373.624L460.312 373.625L460.32 373.63L460.356 373.652C460.368 373.659 460.384 373.668 460.401 373.679C460.428 373.695 460.462 373.715 460.5 373.738C460.627 373.812 460.811 373.919 461.037 374.046C461.492 374.301 462.111 374.631 462.777 374.941C463.449 375.254 464.14 375.532 464.743 375.696C465.401 375.874 465.749 375.857 465.862 375.817L466.504 375.584L466.95 376.092L466.95 376.092L466.951 376.093C466.952 376.094 466.952 376.094 466.953 376.095C466.955 376.098 466.959 376.102 466.964 376.107C466.968 376.111 466.973 376.116 466.978 376.122C467.004 376.148 467.046 376.19 467.103 376.241C467.217 376.345 467.385 376.483 467.594 376.614C468.014 376.878 468.517 377.067 469.05 377.005C469.052 377.001 469.154 376.964 469.373 376.793C469.612 376.606 469.903 376.329 470.235 375.973C470.896 375.263 471.64 374.321 472.348 373.363C473.052 372.41 473.706 371.461 474.184 370.75C474.423 370.394 474.617 370.099 474.752 369.893C474.819 369.79 474.871 369.71 474.906 369.655L474.946 369.594L474.956 369.578L474.958 369.575L474.959 369.574L474.959 369.574L474.959 369.574L475.15 369.274L475.487 369.162L475.487 369.162L475.487 369.162L475.488 369.162L475.493 369.16L475.515 369.153C475.535 369.146 475.566 369.136 475.606 369.122C475.688 369.094 475.809 369.051 475.964 368.995C476.274 368.884 476.721 368.717 477.262 368.501C478.345 368.068 479.792 367.441 481.263 366.659C482.74 365.874 484.204 364.951 485.343 363.938C486.495 362.913 487.202 361.894 487.382 360.928L487.384 360.913C487.387 360.893 487.392 360.86 487.397 360.816C487.408 360.727 487.422 360.59 487.435 360.413C487.461 360.059 487.48 359.544 487.45 358.923C487.39 357.675 487.136 356.028 486.373 354.382C485.616 352.748 484.352 351.101 482.236 349.829C480.147 348.574 477.173 347.652 472.933 347.528C472.926 347.531 472.919 347.534 472.912 347.537C472.771 347.597 472.561 347.686 472.291 347.805C471.751 348.044 470.971 348.399 470.019 348.866C468.112 349.801 465.521 351.18 462.781 352.952C457.258 356.524 451.315 361.58 448.976 367.69C448.882 367.937 448.966 368.243 449.224 368.419Z" fill="white" stroke="#25316D" stroke-width="2"/>
<path fill-rule="evenodd" clip-rule="evenodd" d="M463.827 238.023C428.202 266.615 469.566 313.62 469.566 313.62C469.566 313.62 468.784 319.322 470.976 321.611C478.532 329.499 465.336 349.813 465.336 349.813C465.336 349.813 480.698 359.543 485.078 368.615C485.286 369.047 486.488 370.025 486.958 370.025C486.958 370.025 495.442 356.038 497.299 349.813C505.29 323.021 504.82 305.629 504.82 305.629C498.709 291.528 495.395 282.896 488.838 268.495C482.873 255.384 471.707 247.101 463.827 238.023Z" fill="#58B9FD"/>
<path fill-rule="evenodd" clip-rule="evenodd" d="M414.507 212.328C414.507 212.328 409.584 208.266 407.098 208.925L403.5 208.925C403.5 208.925 395.298 207.679 390 207.5C382.205 207.237 371.734 212.821 370.078 208.925C370.078 208.925 364.182 210.24 363.942 214.192C363.942 214.192 341.406 223.795 333.528 229.175C325.654 234.495 321.594 238.008 319.795 247.229C318.003 256.392 311.512 286.024 310.032 309.84C330.032 351.999 330.381 304.682 346.576 304.682C384.91 259.184 411.392 314.371 446.619 349.079C446.619 349.079 435.532 284.856 439.461 285.349C443.384 285.789 497.35 306.766 497.35 306.766C497.35 306.766 490.467 291.939 489.532 287.767C488.598 283.596 470.364 238.666 466.195 232.577C462.025 226.429 454.649 221.545 441.513 218.803C428.372 216.06 414.507 212.328 414.507 212.328Z" fill="#58B9FD"/>
<path d="M473.032 248.499C471.032 244.999 470.202 240.105 467.032 235.499C464.135 231.289 460.532 227.999 458.032 225.999" stroke="#25316D" stroke-width="2" stroke-miterlimit="1.5" stroke-linecap="round" stroke-linejoin="round"/>
<path d="M438.173 264.248C435.133 278.582 435.589 294.863 440.259 308.804M428.67 262.234C426.788 268.664 426.533 275.34 426.555 282.001C426.548 290.54 427.357 299.201 430.266 307.294" stroke="#25316D" stroke-width="2" stroke-miterlimit="1.5" stroke-linecap="round" stroke-linejoin="round"/>
<path d="M414.238 216.373C411.516 220.599 406.856 223.179 402.299 224.936C391.059 229.215 375.273 228.722 367.218 218.623M370.158 208.911C369.486 208.911 368.809 209.021 368.163 209.185C365.869 209.952 364.705 211.82 364.137 214.012M420.505 217.691C418.756 220.106 416.849 222.575 414.631 224.551C411.724 227.131 408.194 229.05 404.555 230.367" stroke="#25316D" stroke-width="2" stroke-miterlimit="1.5" stroke-linecap="round" stroke-linejoin="round"/>
<path d="M407.112 209.269C409.587 209.324 412.762 210.421 414.101 212.67" stroke="#25316D" stroke-width="2" stroke-miterlimit="1.5" stroke-linecap="round" stroke-linejoin="round"/>
<path d="M501.059 307.509C499.179 315.97 488.84 316.004 484.608 317.85C479.985 319.901 474.145 311.528 470.031 314.499M494.479 356.865C489.308 347.464 485.638 344.19 472.857 342.764" stroke="#25316D" stroke-width="2" stroke-miterlimit="1.5" stroke-linecap="round" stroke-linejoin="round"/>
<path d="M371.032 209.5L391 202.5L401.5 195.5L403.212 214.806C403.212 214.806 393.607 220.595 386.808 220.498C379.63 220.396 371.032 215.079 371.032 215.079V209.5Z" fill="white"/>
<path fill-rule="evenodd" clip-rule="evenodd" d="M391.516 200.673C391.516 200.673 373.443 208.498 371.302 208.554L372.145 215.765C372.145 215.765 390.136 205.088 391.516 200.673Z" fill="#25316D"/>
<path d="M371.377 208.971V216.5" stroke="#25316D" stroke-width="2" stroke-miterlimit="1.5" stroke-linecap="round" stroke-linejoin="round"/>
<path d="M401.648 196.252C402.563 205.979 402.721 209.22 403.107 213.3" stroke="#25316D" stroke-width="2" stroke-miterlimit="1.5" stroke-linecap="round" stroke-linejoin="round"/>
<path d="M422.532 169.499C419.5 178.5 413.5 183 410 186C408.367 190.465 408 194.999 401.032 194.999C399.5 196.5 395 203.787 376.958 207.999C370.532 209.499 365.532 208.999 363.032 206.499C360.032 202.499 354.282 202.148 353.532 194.999C353.532 192.323 354.532 173.932 354.532 161.499C354.326 159.21 354.532 160.499 355.217 156.999C355.101 155.11 340.032 152.999 349.032 136.999C336.532 113.499 372.032 113.999 376.958 122.499C377.958 111.999 395.033 115.499 402.032 122.499C406.158 124.597 407.651 137.572 410.532 140.999C410.532 140.999 420 145.5 423.532 149.999C424.5 153 425.532 156.325 425.532 160.499C425.532 164.5 423.693 167.441 422.532 169.499Z" fill="white"/>
<path d="M410.16 139.466C406.245 129.853 403.174 120.016 392.363 116.327C390.1 115.545 387.624 115.266 385.267 115.713C382.684 116.16 380.252 117.445 378.537 119.457C377.985 120.128 377.547 120.855 377.275 121.637C377.235 121.749 376.908 122.922 376.908 122.922C376.372 122.81 375.434 121.749 374.988 121.357C373.573 120.296 372.047 119.401 370.391 118.73C363.255 115.935 352.129 115.991 347.658 123.425C344.492 128.679 347.043 135.889 351.396 139.633C353.205 141.198 358.76 143.434 359.738 139.746C361.098 134.66 354.376 133.15 350.97 134.938C345.896 137.565 345.549 146.732 347.658 150.644C352.937 160.369 365.569 159.251 369.358 160.146M374.641 163.556C377.89 163.388 381.131 162.214 383.583 160.035M386.205 162.494C385.432 165.232 384.774 168.027 386.035 170.766C386.516 171.772 387.254 172.665 388.097 173.448C388.693 174.007 389.379 174.286 389.26 175.125C388.772 178.59 388.925 180.211 389.379 183.676C389.489 184.515 389.615 185.353 389.887 186.191C389.99 186.471 390.037 186.861 390.408 186.861C391.867 186.694 392.726 184.905 393.25 183.732C394.689 180.546 394.682 179.037 396.349 175.963M396.57 175.628C400.379 171.268 407.089 173.672 409.293 178.423C411.639 183.508 409.92 190.886 405.007 193.848C401.755 195.86 397.284 196.251 393.582 195.525M411.41 141.702C413.807 142.429 416.141 143.322 418.219 144.719C424.086 148.632 425.686 155.731 424.851 162.382C423.684 171.771 417.561 179.372 410.929 185.688M411.753 130.132C412.506 131.698 413.161 133.374 413.413 135.107C413.496 135.666 413.551 136.225 413.539 136.84C413.539 136.895 413.5 137.733 413.5 137.733C414.568 137.901 416.161 137.231 417.229 137.063C419.441 136.784 421.752 136.784 423.936 137.232M354.609 161.207C354.609 161.207 354.207 188.986 354.104 195.916C354.096 196.922 354.443 197.928 355.094 198.71C358.713 203.126 362.687 206.31 366.91 208.604C367.817 209.105 368.861 209.275 369.867 209.05C377.161 207.595 384.163 204.914 390.755 200.498" stroke="#25316D" stroke-width="2" stroke-miterlimit="1.5" stroke-linecap="round" stroke-linejoin="round"/>
<path d="M354.983 167.244C357.392 166.517 359.92 167.076 361.78 168.697M369.331 170.039C372.224 168.139 375.737 168.531 378.095 171.046M364.111 173.671C364.044 176.578 363.29 179.54 361.824 181.999C361.335 182.838 360.751 183.676 360.081 184.346C360.002 184.458 359.328 184.961 359.336 184.961C359.383 185.24 359.825 185.52 359.998 185.688C360.779 186.247 361.698 186.638 362.652 186.861M361.603 195.022C365.151 196.14 368.806 196.084 372.126 194.296" stroke="#25316D" stroke-width="2" stroke-miterlimit="1.5" stroke-linecap="round" stroke-linejoin="round"/>
<path d="M372.521 175.499C372.922 175.499 373.306 175.394 373.59 175.206C373.873 175.019 374.032 174.764 374.032 174.499C374.032 174.234 373.873 173.98 373.59 173.792C373.306 173.605 372.922 173.499 372.521 173.499C372.124 173.503 371.746 173.61 371.467 173.797C371.188 173.984 371.032 174.237 371.032 174.499C371.032 174.762 371.188 175.014 371.467 175.201C371.746 175.388 372.124 175.495 372.521 175.499Z" fill="#25316D"/>
<path d="M358.521 174.499C358.922 174.499 359.306 174.394 359.59 174.206C359.873 174.019 360.032 173.764 360.032 173.499C360.032 173.234 359.873 172.98 359.59 172.792C359.306 172.605 358.922 172.499 358.521 172.499C358.124 172.503 357.746 172.61 357.467 172.797C357.188 172.984 357.032 173.237 357.032 173.499C357.032 173.762 357.188 174.014 357.467 174.201C357.746 174.388 358.124 174.495 358.521 174.499Z" fill="#25316D"/>
<path d="M404 181.5C403 187.309 401.613 186.991 399.5 188.5" stroke="#25316D" stroke-width="2" stroke-miterlimit="1.5" stroke-linecap="round" stroke-linejoin="round"/>
<path fill-rule="evenodd" clip-rule="evenodd" d="M342.2 297.425L348.532 333.499C348.532 333.499 339.454 345.147 329.532 346.499C317.532 334.999 315.437 323.636 311.532 313.999C307.628 304.366 311.532 290.999 311.532 282.999C311.532 282.999 312.202 273.429 312.532 270.499C314.159 256.056 319.604 239.981 333.032 234.417C340.263 231.422 337.757 238.743 337.757 238.743L342.354 234.417C342.354 234.417 344.2 230.765 348.507 226.556C354.083 239.901 358.834 260.679 357.565 292.077L344.219 295.396C343.929 295.629 343.182 296.5 342.2 297.425Z" fill="#58B9FD"/>
<path d="M312.532 275.999C312.199 280.999 308.532 300.999 309.532 305.999C310.264 309.657 312.04 320.566 315.032 323.999C319.374 328.98 325.866 344.666 327.032 344.499" stroke="#25316D" stroke-width="2" stroke-linecap="round"/>
<path d="M337.154 227.825C334.033 229.221 331.374 231.35 328.815 233.584C325.523 236.434 323.156 241.133 321.033 244.999" stroke="#25316D" stroke-width="2" stroke-miterlimit="1.5" stroke-linecap="round" stroke-linejoin="round"/>
<path d="M332.444 282.179C335.955 275.583 337.968 267.523 337.529 259.999" stroke="#25316D" stroke-width="2" stroke-miterlimit="1.5" stroke-linecap="round" stroke-linejoin="round"/>
<path d="M364.832 372.987L364.832 372.987L364.826 372.999C364.638 373.384 364.68 373.848 364.957 374.21C364.957 374.211 364.958 374.212 364.958 374.213L372.938 384.519H403.063L403.166 384.388L403.809 383.578C404.354 382.891 405.112 381.936 405.964 380.863C407.667 378.717 409.745 376.101 411.244 374.217L411.247 374.213C411.513 373.883 411.575 373.407 411.379 372.991C411.285 372.797 411.138 372.634 410.957 372.52C410.775 372.405 410.565 372.344 410.351 372.343C410.35 372.343 410.35 372.343 410.349 372.343L365.851 372.343H365.849C365.637 372.342 365.429 372.402 365.249 372.516C365.069 372.63 364.924 372.793 364.832 372.987ZM307.464 282.524L307.464 282.527C310.033 297.134 318.515 345.374 320.709 357.86C320.927 359.097 321.999 359.994 323.246 359.994H452.591C453.821 359.994 454.886 359.113 455.122 357.888C456.273 351.864 459.048 337.356 461.919 322.35C464.95 306.505 468.088 290.105 469.531 282.551L469.531 282.55C469.674 281.807 469.479 281.027 468.985 280.417C468.491 279.825 467.76 279.476 467 279.476L310 279.476L309.999 279.476C309.624 279.475 309.253 279.557 308.913 279.717C308.572 279.876 308.271 280.109 308.029 280.398L308.029 280.399C307.537 280.988 307.33 281.773 307.464 282.524Z" fill="white" stroke="#25316D" stroke-width="2"/>
<path d="M387.942 316.995C379.793 316.995 373.175 323.636 373.175 331.823V384.523H402.709V331.823C402.709 323.635 396.094 316.995 387.942 316.995Z" fill="white" stroke="#25316D" stroke-width="2"/>
<path fill-rule="evenodd" clip-rule="evenodd" d="M381.162 331.764C381.162 328.003 384.198 324.956 387.941 324.956C391.684 324.956 394.718 328.003 394.718 331.764V343.939C394.718 347.693 391.684 350.74 387.941 350.74C384.198 350.74 381.162 347.693 381.162 343.939V331.764Z" fill="#58B9FD"/>
<path d="M450.032 356.51L463.569 286.881C463.809 285.646 462.864 284.499 461.606 284.499H345.032" stroke="#25316D" stroke-width="2"/>
<path d="M344.7 339.482C344.341 339.482 344.047 339.773 344.047 340.139V346.376C344.047 346.741 344.341 347.032 344.7 347.032H347.158C347.521 347.032 347.812 346.741 347.812 346.376V340.139C347.812 339.773 347.521 339.482 347.158 339.482H344.7Z" fill="#686868"/>
<path d="M335.387 339.482C335.027 339.482 334.733 339.773 334.733 340.139V346.376C334.733 346.741 335.027 347.032 335.387 347.032H337.844C338.207 347.032 338.498 346.741 338.498 346.376V340.139C338.498 339.773 338.207 339.482 337.844 339.482H335.387Z" fill="#686868"/>
<path d="M349 252.004C355.864 247.309 365.322 243.957 373.665 245.298C380.419 246.414 386.415 250.104 392.369 253.234C397.936 256.195 403.72 258.655 409.681 260.721C413.974 262.231 418.485 263.517 423.058 263.572" stroke="#25316D" stroke-width="2" stroke-miterlimit="1.5" stroke-linecap="round" stroke-linejoin="round"/>
<path d="M478.865 111.252C482.832 111.635 487.053 113.714 488.16 117.857C488.678 119.803 488.85 122.835 486.741 123.938C484.293 125.219 481.661 121.518 484.548 120.376C484.932 120.223 485.374 120.164 485.785 120.172C487.495 120.217 488.919 121.308 489.964 122.582C492.084 125.171 492.852 128.368 492.864 131.654" stroke="#25316D" stroke-width="2" stroke-miterlimit="1.5" stroke-linecap="round" stroke-linejoin="round"/>
<path d="M279.5 36.2596L281.75 40.8193C282.042 41.4096 282.605 41.8187 283.256 41.9134L288.288 42.6445L284.647 46.1938C284.176 46.6533 283.961 47.3153 284.072 47.9641L284.931 52.9757L280.431 50.6095C279.848 50.3032 279.152 50.3032 278.569 50.6095L274.069 52.9757L274.928 47.9641C275.039 47.3153 274.824 46.6533 274.353 46.1938L270.712 42.6445L275.744 41.9134C276.395 41.8187 276.958 41.4096 277.25 40.8193L279.5 36.2596Z" fill="white" stroke="#25316D" stroke-width="2"/>
<path d="M259 21.2596L260.222 23.7351C260.513 24.3253 261.076 24.7345 261.728 24.8291L264.459 25.2261L262.483 27.153C262.011 27.6125 261.796 28.2745 261.907 28.9233L262.374 31.6441L259.931 30.3595C259.348 30.0532 258.652 30.0532 258.069 30.3595L255.626 31.6441L256.093 28.9233C256.204 28.2745 255.989 27.6125 255.517 27.153L253.541 25.2261L256.272 24.8291C256.924 24.7345 257.487 24.3253 257.778 23.7351L256.882 23.2925L257.778 23.7351L259 21.2596Z" fill="white" stroke="#25316D" stroke-width="2"/>
<path d="M40.9998 160C32.4998 160 67.5 212 120.5 187" stroke="#CB2027" stroke-width="2" stroke-linecap="round" stroke-dasharray="6.46 6.46"/>
<path d="M75.5 40C31 9.00001 -16.022 80.3081 30 109" stroke="#CB2027" stroke-width="2" stroke-linecap="round" stroke-dasharray="6.46 6.46"/>
<path d="M146.5 38C163.5 -1.99996 268 96.5 240.5 145" stroke="#CB2027" stroke-width="2" stroke-linecap="round" stroke-dasharray="6.46 6.46"/>
<path d="M129.5 203V173L178.5 176L187 158V160.5V209.5L129.5 203Z" fill="white"/>
<path d="M244.5 203V173L195.5 176L187 158V160.5V209.5L244.5 203Z" fill="white"/>
<path d="M121 172.423L136.482 153.399L186.5 158.155L178.164 175.99L121 172.423Z" fill="white" stroke="#25316D" stroke-width="2" stroke-linejoin="round"/>
<path d="M129.336 203.461L129.235 204.456C128.724 204.404 128.336 203.975 128.336 203.461H129.336ZM128.336 173.612C128.336 173.06 128.784 172.612 129.336 172.612C129.888 172.612 130.336 173.06 130.336 173.612H128.336ZM128.336 203.461V173.612H130.336V203.461H128.336ZM186.398 210.276L129.235 204.456L129.437 202.467L186.601 208.286L186.398 210.276Z" fill="#25316D"/>
<path d="M252 172.423L236.518 153.399L186.5 158.155L194.836 175.99L252 172.423Z" fill="white" stroke="#25316D" stroke-width="2" stroke-linejoin="round"/>
<path d="M243.664 203.462L243.765 204.456C244.276 204.404 244.664 203.975 244.664 203.462H243.664ZM244.664 173.612C244.664 173.06 244.216 172.612 243.664 172.612C243.112 172.612 242.664 173.06 242.664 173.612H244.664ZM244.664 203.462V173.612H242.664V203.462H244.664ZM186.602 210.276L243.765 204.456L243.563 202.467L186.399 208.286L186.602 210.276Z" fill="#25316D"/>
<path d="M186.5 209.471V158.5" stroke="#25316D" stroke-width="2" stroke-linecap="round"/>
<path d="M207.649 170.661C210.217 170.661 212.298 168.583 212.298 166.019C212.298 163.456 210.217 161.378 207.649 161.378C205.081 161.378 203 163.456 203 166.019C203 168.583 205.081 170.661 207.649 170.661Z" fill="#CB2027"/>
<path d="M219.558 169.472C222.126 169.472 224.207 167.394 224.207 164.831C224.207 162.267 222.126 160.189 219.558 160.189C216.991 160.189 214.909 162.267 214.909 164.831C214.909 167.394 216.991 169.472 219.558 169.472Z" fill="#CB2027"/>
<path d="M231.467 168.283C234.035 168.283 236.117 166.205 236.117 163.642C236.117 161.078 234.035 159 231.467 159C228.9 159 226.818 161.078 226.818 163.642C226.818 166.205 228.9 168.283 231.467 168.283Z" fill="#CB2027"/>
<path d="M145.004 160L141 163.998L145.004 167.995" stroke="#CB2027" stroke-width="2" stroke-linecap="round" stroke-linejoin="round"/>
<path d="M161.78 162.378L165.784 166.373L161.78 170.368" stroke="#CB2027" stroke-width="2" stroke-linecap="round" stroke-linejoin="round"/>
<path d="M155.394 161.189L151.39 169.184" stroke="#CB2027" stroke-width="2" stroke-linecap="round" stroke-linejoin="round"/>
<path fill-rule="evenodd" clip-rule="evenodd" d="M157.908 145.234C158.319 145.234 158.652 145.567 158.652 145.978V148.372C158.652 148.783 158.319 149.115 157.908 149.115C157.497 149.115 157.164 148.783 157.164 148.372V145.978C157.164 145.567 157.497 145.234 157.908 145.234Z" fill="#CB2027"/>
<path fill-rule="evenodd" clip-rule="evenodd" d="M161.744 145.234C162.155 145.234 162.488 145.567 162.488 145.978V148.372C162.488 148.783 162.155 149.115 161.744 149.115C161.333 149.115 161 148.783 161 148.372V145.978C161 145.567 161.333 145.234 161.744 145.234Z" fill="#CB2027"/>
<path fill-rule="evenodd" clip-rule="evenodd" d="M159.81 145.234C160.221 145.234 160.554 145.567 160.554 145.978V150.167C160.554 150.578 160.221 150.911 159.81 150.911C159.399 150.911 159.066 150.578 159.066 150.167V145.978C159.066 145.567 159.399 145.234 159.81 145.234Z" fill="#CB2027"/>
<path fill-rule="evenodd" clip-rule="evenodd" d="M162.726 144.954C163.237 144.954 163.715 144.697 163.973 144.263C164.117 144.021 164.256 143.779 164.389 143.537L167.528 145.586C167.958 145.867 168.541 145.639 168.66 145.145L169.6 141.226C169.658 140.985 169.588 140.731 169.414 140.553L166.594 137.366C167.678 131.833 165.878 126.751 160.714 122.332C160.195 121.889 159.425 121.889 158.906 122.332C153.728 126.764 151.916 131.774 153.021 137.323L152.453 137.902L150.206 140.553C150.032 140.731 149.962 140.985 150.02 141.226L150.961 145.145C151.079 145.639 151.662 145.867 152.093 145.586L155.231 143.537C155.365 143.779 155.503 144.021 155.647 144.263C155.905 144.697 156.383 144.954 156.894 144.954H162.726Z" fill="white"/>
<path fill-rule="evenodd" clip-rule="evenodd" d="M163.702 144.59C163.808 144.497 163.899 144.387 163.973 144.263C164.117 144.021 164.256 143.779 164.389 143.537L167.528 145.586C167.958 145.867 168.541 145.639 168.66 145.145L169.6 141.226C169.658 140.985 169.588 140.731 169.414 140.553L166.594 137.366C167.678 131.833 165.878 126.751 160.714 122.332C160.195 121.889 159.425 121.889 158.906 122.332C153.728 126.764 151.916 131.774 153.021 137.323L152.453 137.902L150.206 140.553C150.032 140.731 149.962 140.985 150.02 141.226L150.961 145.145C151.079 145.639 151.662 145.867 152.093 145.586L155.231 143.537C155.365 143.779 155.503 144.021 155.647 144.263C155.721 144.387 155.813 144.497 155.918 144.59C156.181 144.823 156.529 144.954 156.894 144.954H162.726C163.091 144.954 163.439 144.823 163.702 144.59ZM156.904 143.467H162.716C162.844 143.251 162.968 143.035 163.087 142.819L163.861 141.416L167.461 143.766L168.06 141.268L164.992 137.801L165.134 137.08C166.098 132.161 164.57 127.618 159.81 123.517C155.029 127.636 153.499 132.107 154.479 137.033L154.633 137.805L153.552 138.905L151.558 141.259L152.159 143.766L155.76 141.416L156.533 142.819C156.652 143.035 156.776 143.251 156.904 143.467ZM168.154 140.879C168.154 140.879 168.154 140.878 168.154 140.879Z" fill="#25316D"/>
<path d="M157.204 131.158C157.204 132.574 158.371 133.723 159.81 133.723C161.249 133.723 162.416 132.574 162.416 131.158C162.416 129.74 161.249 128.592 159.81 128.592C158.371 128.592 157.204 129.74 157.204 131.158Z" fill="#CB2027"/>
<path d="M195.839 144.714C195.839 150.06 191.416 154.427 185.92 154.427C180.423 154.427 176 150.06 176 144.714C176 139.367 180.423 135 185.92 135C191.416 135 195.839 139.367 195.839 144.714Z" fill="#CB2027" stroke="#25316D" stroke-width="2"/>
<path fill-rule="evenodd" clip-rule="evenodd" d="M195 145C195 149.971 190.971 154 186 154C181.029 154 177 149.971 177 145C177 140.029 181.029 136 186 136C190.971 136 195 140.029 195 145ZM184.293 142.506C184.293 143.032 184.724 143.462 185.251 143.462H186.208C187.789 143.462 189.082 144.753 189.082 146.331C189.082 147.765 188.028 148.912 186.687 149.151V150.155C186.687 150.681 186.256 151.112 185.729 151.112C185.203 151.112 184.772 150.681 184.772 150.155V149.151C183.431 148.912 182.377 147.765 182.377 146.331C182.377 145.805 182.808 145.374 183.335 145.374C183.862 145.374 184.293 145.805 184.293 146.331C184.293 146.856 184.724 147.287 185.251 147.287H186.208C186.735 147.287 187.166 146.856 187.166 146.331C187.166 145.805 186.735 145.374 186.208 145.374H185.251C183.67 145.374 182.377 144.083 182.377 142.506C182.377 141.071 183.431 139.924 184.772 139.685V138.681C184.772 138.155 185.203 137.725 185.729 137.725C186.256 137.725 186.687 138.155 186.687 138.681V139.685C188.028 139.924 189.082 141.071 189.082 142.506C189.082 143.032 188.651 143.462 188.124 143.462C187.597 143.462 187.166 143.032 187.166 142.506C187.166 141.98 186.735 141.55 186.208 141.55H185.251C184.724 141.55 184.293 141.98 184.293 142.506Z" fill="white"/>
<path d="M214.275 119.924L214.163 120.685C214.061 121.386 213.62 121.99 212.984 122.301C212.246 122.662 211.367 122.57 210.72 122.064L210.602 121.971C209.685 121.253 208.378 121.325 207.546 122.14C206.772 122.897 206.624 124.09 207.191 125.014L207.428 125.401C207.723 125.881 207.81 126.46 207.671 127.006C207.466 127.808 206.805 128.412 205.988 128.545L205.877 128.563C204.795 128.74 204 129.675 204 130.772C204 131.868 204.795 132.804 205.877 132.98L206.106 133.017C206.862 133.141 207.49 133.668 207.743 134.392C207.961 135.02 207.868 135.715 207.491 136.263L207.301 136.54C206.677 137.447 206.797 138.671 207.583 139.44C208.394 140.233 209.667 140.304 210.561 139.605L210.682 139.51C211.361 138.978 212.271 138.845 213.074 139.159L213.32 139.256C214.087 139.556 214.64 140.235 214.778 141.047L214.831 141.357C214.993 142.306 215.815 143 216.778 143C217.74 143 218.563 142.306 218.724 141.357L218.777 141.047C218.915 140.235 219.469 139.556 220.236 139.256L220.626 139.103C221.327 138.829 222.124 138.991 222.662 139.517C223.406 140.245 224.594 140.245 225.338 139.517L225.435 139.422C226.195 138.678 226.262 137.478 225.589 136.655L225.431 136.462C224.892 135.802 224.757 134.9 225.079 134.111L225.159 133.915C225.474 133.144 226.168 132.592 226.99 132.458L227.391 132.393C228.319 132.242 229 131.44 229 130.5C229 129.56 228.319 128.758 227.391 128.607L227.16 128.57C226.261 128.423 225.546 127.736 225.364 126.844L225.281 126.44C225.17 125.898 225.223 125.335 225.432 124.824L225.743 124.064C226.033 123.355 225.864 122.541 225.317 122.005C224.585 121.29 223.402 121.302 222.67 122.018C222.132 122.544 221.327 122.715 220.626 122.441L220.315 122.319C219.502 122.001 218.922 121.271 218.796 120.407L218.725 119.924C218.564 118.819 217.617 118 216.5 118C215.383 118 214.436 118.819 214.275 119.924Z" fill="white" stroke="#25316D" stroke-width="2"/>
<circle cx="216.5" cy="130.5" r="4.68182" stroke="#25316D" stroke-width="2"/>
<path d="M145.322 189.745L144.458 198.739L142.983 198.597L143.361 194.663L139.129 194.257L138.752 198.191L137.276 198.049L138.14 189.056L139.615 189.197L139.245 193.054L143.477 193.46L143.847 189.604L145.322 189.745ZM153.504 192.412L148.123 202.473L146.596 202.327L148.379 198.998L146.244 191.715L147.888 191.872L149.371 197.5L151.977 192.265L153.504 192.412ZM155.99 193.722C156.274 193.4 156.641 193.153 157.093 192.979C157.555 192.797 158.053 192.731 158.588 192.783C159.218 192.843 159.773 193.049 160.253 193.4C160.733 193.75 161.092 194.22 161.332 194.809C161.572 195.39 161.658 196.038 161.589 196.754C161.52 197.47 161.312 198.098 160.964 198.64C160.617 199.172 160.169 199.573 159.621 199.843C159.082 200.104 158.502 200.205 157.881 200.146C157.329 200.093 156.847 199.938 156.437 199.681C156.035 199.424 155.725 199.116 155.507 198.755L155.407 199.791L153.932 199.649L154.852 190.073L156.327 190.215L155.99 193.722ZM160.088 196.61C160.135 196.118 160.072 195.685 159.899 195.312C159.736 194.93 159.494 194.633 159.175 194.419C158.866 194.198 158.521 194.069 158.141 194.033C157.77 193.997 157.408 194.058 157.053 194.215C156.707 194.374 156.413 194.624 156.171 194.967C155.938 195.31 155.798 195.727 155.75 196.219C155.703 196.711 155.761 197.152 155.924 197.542C156.096 197.924 156.337 198.226 156.646 198.447C156.965 198.669 157.309 198.798 157.68 198.834C158.06 198.87 158.423 198.809 158.769 198.651C159.124 198.485 159.419 198.226 159.653 197.874C159.896 197.523 160.041 197.101 160.088 196.61ZM164.763 194.538C165.013 194.196 165.325 193.943 165.698 193.779C166.08 193.607 166.517 193.544 167.009 193.591L166.862 195.118L166.487 195.082C165.909 195.027 165.455 195.131 165.125 195.396C164.803 195.661 164.608 196.156 164.538 196.88L164.178 200.633L162.702 200.491L163.387 193.361L164.862 193.503L164.763 194.538ZM169.195 192.966C168.927 192.94 168.712 192.828 168.548 192.629C168.384 192.431 168.315 192.198 168.341 191.93C168.367 191.663 168.479 191.447 168.677 191.283C168.876 191.12 169.109 191.051 169.376 191.076C169.635 191.101 169.846 191.213 170.01 191.411C170.174 191.61 170.243 191.843 170.217 192.11C170.192 192.378 170.079 192.593 169.881 192.757C169.682 192.921 169.454 192.99 169.195 192.966ZM169.829 193.98L169.144 201.11L167.669 200.968L168.354 193.838L169.829 193.98ZM170.935 197.651C171.003 196.935 171.211 196.315 171.557 195.791C171.912 195.268 172.359 194.88 172.897 194.627C173.444 194.366 174.033 194.266 174.662 194.326C175.128 194.371 175.576 194.519 176.004 194.769C176.443 195.011 176.779 195.313 177.014 195.676L177.345 192.233L178.833 192.376L177.913 201.952L176.425 201.809L176.528 200.735C176.254 201.057 175.89 201.309 175.437 201.492C174.993 201.676 174.494 201.741 173.942 201.688C173.321 201.629 172.767 201.419 172.279 201.058C171.801 200.69 171.437 200.211 171.189 199.622C170.951 199.024 170.866 198.367 170.935 197.651ZM176.768 198.238C176.815 197.746 176.753 197.309 176.581 196.927C176.417 196.545 176.18 196.244 175.871 196.023C175.561 195.802 175.217 195.673 174.837 195.636C174.457 195.6 174.095 195.661 173.749 195.819C173.403 195.969 173.11 196.215 172.868 196.557C172.636 196.892 172.496 197.305 172.449 197.797C172.401 198.288 172.459 198.729 172.622 199.119C172.793 199.51 173.033 199.821 173.342 200.05C173.66 200.273 174.005 200.401 174.376 200.437C174.756 200.474 175.118 200.413 175.464 200.254C175.81 200.096 176.1 199.845 176.333 199.502C176.576 199.151 176.721 198.729 176.768 198.238Z" fill="#25316D"/>
<path d="M191.878 203.546C191.274 203.609 190.72 203.562 190.216 203.406C189.711 203.241 189.3 202.979 188.983 202.62C188.667 202.261 188.482 201.823 188.427 201.306L190.005 201.141C190.08 201.525 190.264 201.828 190.558 202.05C190.86 202.271 191.256 202.356 191.748 202.305C192.256 202.251 192.64 202.089 192.899 201.818C193.157 201.538 193.266 201.204 193.226 200.817C193.194 200.515 193.078 200.279 192.877 200.108C192.685 199.936 192.449 199.813 192.171 199.737C191.902 199.661 191.528 199.587 191.05 199.515C190.448 199.421 189.953 199.316 189.566 199.2C189.187 199.074 188.851 198.857 188.557 198.548C188.263 198.239 188.087 197.804 188.028 197.244C187.974 196.726 188.056 196.26 188.274 195.845C188.492 195.43 188.822 195.095 189.266 194.84C189.71 194.584 190.238 194.424 190.85 194.36C191.72 194.269 192.455 194.414 193.052 194.796C193.658 195.168 194.03 195.73 194.17 196.482L192.541 196.653C192.481 196.328 192.296 196.064 191.987 195.862C191.679 195.659 191.292 195.582 190.826 195.63C190.404 195.675 190.07 195.818 189.826 196.062C189.581 196.305 189.48 196.63 189.522 197.035C189.551 197.311 189.657 197.53 189.84 197.694C190.03 197.849 190.26 197.964 190.53 198.04C190.799 198.117 191.164 198.192 191.625 198.265C192.237 198.367 192.737 198.48 193.125 198.605C193.521 198.729 193.867 198.95 194.161 199.268C194.464 199.576 194.645 200.014 194.704 200.583C194.752 201.04 194.672 201.484 194.465 201.915C194.266 202.346 193.942 202.711 193.495 203.01C193.054 203.301 192.515 203.479 191.878 203.546ZM199.813 202.741C199.14 202.811 198.517 202.724 197.942 202.479C197.367 202.226 196.895 201.839 196.527 201.32C196.158 200.793 195.935 200.162 195.858 199.43C195.782 198.706 195.874 198.047 196.135 197.453C196.395 196.859 196.785 196.383 197.305 196.023C197.825 195.664 198.426 195.448 199.106 195.377C199.787 195.306 200.42 195.392 201.003 195.636C201.586 195.88 202.066 196.265 202.444 196.792C202.822 197.319 203.048 197.944 203.124 198.668C203.2 199.392 203.104 200.052 202.835 200.646C202.566 201.241 202.163 201.723 201.627 202.093C201.098 202.453 200.494 202.669 199.813 202.741ZM199.678 201.461C200.058 201.421 200.402 201.293 200.71 201.078C201.027 200.862 201.27 200.562 201.439 200.178C201.608 199.794 201.666 199.344 201.612 198.827C201.557 198.31 201.413 197.885 201.177 197.552C200.941 197.211 200.65 196.967 200.303 196.82C199.957 196.674 199.594 196.62 199.215 196.66C198.835 196.7 198.492 196.827 198.183 197.042C197.883 197.257 197.657 197.555 197.505 197.937C197.353 198.31 197.304 198.755 197.358 199.273C197.438 200.04 197.694 200.614 198.127 200.996C198.566 201.368 199.084 201.523 199.678 201.461ZM205.427 192.362L206.429 201.93L204.955 202.084L203.953 192.517L205.427 192.362ZM214.07 193.927L214.816 201.051L213.342 201.206L213.254 200.365C213.052 200.683 212.77 200.947 212.409 201.159C212.056 201.362 211.668 201.486 211.245 201.53C210.685 201.588 210.169 201.525 209.696 201.339C209.232 201.152 208.847 200.844 208.54 200.415C208.243 199.984 208.06 199.445 207.992 198.799L207.553 194.61L209.014 194.457L209.43 198.426C209.497 199.064 209.708 199.538 210.063 199.85C210.417 200.153 210.87 200.275 211.422 200.217C211.973 200.159 212.391 199.946 212.675 199.576C212.966 199.197 213.078 198.689 213.012 198.051L212.596 194.082L214.07 193.927ZM217.86 194.746L218.273 198.689C218.301 198.956 218.382 199.144 218.515 199.252C218.656 199.35 218.877 199.384 219.179 199.352L220.084 199.257L220.213 200.486L219.049 200.608C218.385 200.677 217.861 200.575 217.475 200.302C217.089 200.029 216.859 199.543 216.786 198.845L216.373 194.901L215.533 194.989L215.407 193.787L216.247 193.699L216.061 191.928L217.548 191.772L217.734 193.543L219.466 193.362L219.592 194.564L217.86 194.746ZM221.476 192.197C221.209 192.225 220.975 192.158 220.775 191.996C220.575 191.834 220.461 191.619 220.433 191.352C220.405 191.085 220.472 190.851 220.634 190.651C220.796 190.451 221.011 190.337 221.278 190.309C221.537 190.282 221.766 190.35 221.966 190.512C222.166 190.674 222.28 190.888 222.308 191.156C222.336 191.423 222.269 191.656 222.107 191.856C221.945 192.056 221.735 192.17 221.476 192.197ZM222.299 193.065L223.045 200.189L221.571 200.343L220.825 193.219L222.299 193.065ZM228.083 199.779C227.41 199.849 226.787 199.762 226.212 199.517C225.637 199.264 225.165 198.878 224.797 198.358C224.428 197.831 224.205 197.2 224.128 196.468C224.052 195.744 224.144 195.085 224.405 194.491C224.665 193.898 225.055 193.421 225.575 193.062C226.095 192.702 226.696 192.487 227.377 192.415C228.057 192.344 228.69 192.43 229.273 192.674C229.856 192.918 230.337 193.303 230.714 193.83C231.092 194.357 231.318 194.983 231.394 195.707C231.47 196.431 231.374 197.09 231.105 197.684C230.836 198.279 230.433 198.761 229.897 199.131C229.368 199.492 228.764 199.707 228.083 199.779ZM227.949 198.499C228.328 198.459 228.672 198.332 228.98 198.116C229.297 197.9 229.541 197.6 229.71 197.216C229.878 196.833 229.936 196.382 229.882 195.865C229.827 195.348 229.683 194.923 229.447 194.59C229.211 194.249 228.92 194.005 228.573 193.858C228.227 193.712 227.864 193.658 227.485 193.698C227.106 193.738 226.762 193.865 226.453 194.081C226.153 194.295 225.927 194.593 225.776 194.975C225.623 195.348 225.574 195.794 225.628 196.311C225.708 197.078 225.965 197.652 226.397 198.034C226.837 198.406 227.354 198.561 227.949 198.499ZM236.061 191.505C236.621 191.447 237.133 191.511 237.597 191.697C238.07 191.883 238.455 192.191 238.753 192.622C239.051 193.053 239.234 193.591 239.301 194.238L239.742 198.44L238.281 198.593L237.863 194.611C237.797 193.973 237.586 193.502 237.232 193.2C236.877 192.888 236.424 192.762 235.872 192.819C235.32 192.877 234.899 193.096 234.607 193.475C234.324 193.844 234.215 194.348 234.282 194.986L234.699 198.968L233.225 199.122L232.479 191.998L233.953 191.844L234.038 192.658C234.249 192.34 234.531 192.08 234.884 191.877C235.246 191.674 235.639 191.55 236.061 191.505Z" fill="#25316D"/>
<path d="M142.178 42.0341L142.53 42.5735L143.166 42.4769C143.711 42.3941 144.268 42.3923 144.912 42.3923C157.977 42.3923 168.49 52.2731 168.49 64.4199C168.49 76.5666 157.977 86.4475 144.912 86.4475C135.385 86.4475 128.474 86.0644 123.611 85.4948L123.425 85.4731L123.244 85.5198C120.741 86.1668 118.158 86.4475 115.419 86.4475C113.517 86.4475 111.675 86.2619 109.886 85.98L109.744 85.9576L109.602 85.9761C105.256 86.5416 99.208 86.7351 90.8751 86.4481L90.8579 86.4475H90.8407C77.7757 86.4475 67.2627 76.5666 67.2627 64.4199C67.2627 53.2795 76.2332 43.9637 87.8692 42.5771L88.3335 42.5218L88.5888 42.13C94.0903 33.685 104.026 28 115.419 28C126.746 28 136.679 33.5931 142.178 42.0341Z" fill="white" stroke="#25316D" stroke-width="2"/>
<path d="M102.085 51.192C102.085 51.7573 101.952 52.2907 101.685 52.792C101.419 53.2933 100.992 53.704 100.405 54.024C99.8187 54.3333 99.0667 54.488 98.1494 54.488H96.1334V59H94.3094V47.88H98.1494C99.0027 47.88 99.7227 48.0293 100.309 48.328C100.907 48.616 101.349 49.0107 101.637 49.512C101.936 50.0133 102.085 50.5733 102.085 51.192ZM98.1494 53C98.8427 53 99.36 52.8453 99.7014 52.536C100.043 52.216 100.213 51.768 100.213 51.192C100.213 49.976 99.5254 49.368 98.1494 49.368H96.1334V53H98.1494ZM111.809 50.184V59H109.985V57.96C109.697 58.3227 109.318 58.6107 108.849 58.824C108.39 59.0267 107.9 59.128 107.377 59.128C106.684 59.128 106.06 58.984 105.505 58.696C104.961 58.408 104.529 57.9813 104.209 57.416C103.9 56.8507 103.745 56.168 103.745 55.368V50.184H105.553V55.096C105.553 55.8853 105.75 56.4933 106.145 56.92C106.54 57.336 107.078 57.544 107.761 57.544C108.444 57.544 108.982 57.336 109.377 56.92C109.782 56.4933 109.985 55.8853 109.985 55.096V50.184H111.809ZM116.04 51.496C116.349 51.0693 116.77 50.7227 117.304 50.456C117.848 50.1787 118.45 50.04 119.112 50.04C119.89 50.04 120.594 50.2267 121.224 50.6C121.853 50.9733 122.349 51.5067 122.712 52.2C123.074 52.8827 123.256 53.6667 123.256 54.552C123.256 55.4373 123.074 56.232 122.712 56.936C122.349 57.6293 121.848 58.1733 121.208 58.568C120.578 58.952 119.88 59.144 119.112 59.144C118.429 59.144 117.821 59.0107 117.288 58.744C116.765 58.4773 116.349 58.136 116.04 57.72V59H114.216V47.16H116.04V51.496ZM121.4 54.552C121.4 53.944 121.272 53.4213 121.016 52.984C120.77 52.536 120.44 52.2 120.024 51.976C119.618 51.7413 119.181 51.624 118.712 51.624C118.253 51.624 117.816 51.7413 117.4 51.976C116.994 52.2107 116.664 52.552 116.408 53C116.162 53.448 116.04 53.976 116.04 54.584C116.04 55.192 116.162 55.7253 116.408 56.184C116.664 56.632 116.994 56.9733 117.4 57.208C117.816 57.4427 118.253 57.56 118.712 57.56C119.181 57.56 119.618 57.4427 120.024 57.208C120.44 56.9627 120.77 56.6107 121.016 56.152C121.272 55.6933 121.4 55.16 121.4 54.552ZM126.883 47.16V59H125.059V47.16H126.883ZM130.206 49.016C129.875 49.016 129.598 48.904 129.374 48.68C129.15 48.456 129.038 48.1787 129.038 47.848C129.038 47.5173 129.15 47.24 129.374 47.016C129.598 46.792 129.875 46.68 130.206 46.68C130.526 46.68 130.798 46.792 131.022 47.016C131.246 47.24 131.358 47.5173 131.358 47.848C131.358 48.1787 131.246 48.456 131.022 48.68C130.798 48.904 130.526 49.016 130.206 49.016ZM131.102 50.184V59H129.278V50.184H131.102ZM132.889 54.584C132.889 53.6773 133.07 52.8827 133.433 52.2C133.806 51.5067 134.318 50.9733 134.969 50.6C135.62 50.2267 136.366 50.04 137.209 50.04C138.276 50.04 139.156 50.296 139.849 50.808C140.553 51.3093 141.028 52.0293 141.273 52.968H139.305C139.145 52.5307 138.889 52.1893 138.537 51.944C138.185 51.6987 137.742 51.576 137.209 51.576C136.462 51.576 135.865 51.8427 135.417 52.376C134.98 52.8987 134.761 53.6347 134.761 54.584C134.761 55.5333 134.98 56.2747 135.417 56.808C135.865 57.3413 136.462 57.608 137.209 57.608C138.265 57.608 138.964 57.144 139.305 56.216H141.273C141.017 57.112 140.537 57.8267 139.833 58.36C139.129 58.8827 138.254 59.144 137.209 59.144C136.366 59.144 135.62 58.9573 134.969 58.584C134.318 58.2 133.806 57.6667 133.433 56.984C133.07 56.2907 132.889 55.4907 132.889 54.584ZM94.0764 67.416C94.0764 66.328 94.327 65.352 94.8284 64.488C95.3404 63.624 96.0284 62.952 96.8924 62.472C97.767 61.9813 98.7217 61.736 99.7564 61.736C100.94 61.736 101.991 62.0293 102.908 62.616C103.836 63.192 104.508 64.0133 104.924 65.08H102.732C102.444 64.4933 102.044 64.056 101.532 63.768C101.02 63.48 100.428 63.336 99.7564 63.336C99.0204 63.336 98.3644 63.5013 97.7884 63.832C97.2124 64.1627 96.759 64.6373 96.4284 65.256C96.1084 65.8747 95.9484 66.5947 95.9484 67.416C95.9484 68.2373 96.1084 68.9573 96.4284 69.576C96.759 70.1947 97.2124 70.6747 97.7884 71.016C98.3644 71.3467 99.0204 71.512 99.7564 71.512C100.428 71.512 101.02 71.368 101.532 71.08C102.044 70.792 102.444 70.3547 102.732 69.768H104.924C104.508 70.8347 103.836 71.656 102.908 72.232C101.991 72.808 100.94 73.096 99.7564 73.096C98.711 73.096 97.7564 72.856 96.8924 72.376C96.0284 71.8853 95.3404 71.208 94.8284 70.344C94.327 69.48 94.0764 68.504 94.0764 67.416ZM108.883 61.16V73H107.059V61.16H108.883ZM115.102 73.144C114.27 73.144 113.518 72.9573 112.846 72.584C112.174 72.2 111.646 71.6667 111.262 70.984C110.878 70.2907 110.686 69.4907 110.686 68.584C110.686 67.688 110.883 66.8933 111.278 66.2C111.673 65.5067 112.211 64.9733 112.894 64.6C113.577 64.2267 114.339 64.04 115.182 64.04C116.025 64.04 116.787 64.2267 117.47 64.6C118.153 64.9733 118.691 65.5067 119.086 66.2C119.481 66.8933 119.678 67.688 119.678 68.584C119.678 69.48 119.475 70.2747 119.07 70.968C118.665 71.6613 118.11 72.2 117.406 72.584C116.713 72.9573 115.945 73.144 115.102 73.144ZM115.102 71.56C115.571 71.56 116.009 71.448 116.414 71.224C116.83 71 117.166 70.664 117.422 70.216C117.678 69.768 117.806 69.224 117.806 68.584C117.806 67.944 117.683 67.4053 117.438 66.968C117.193 66.52 116.867 66.184 116.462 65.96C116.057 65.736 115.619 65.624 115.15 65.624C114.681 65.624 114.243 65.736 113.838 65.96C113.443 66.184 113.129 66.52 112.894 66.968C112.659 67.4053 112.542 67.944 112.542 68.584C112.542 69.5333 112.782 70.2693 113.262 70.792C113.753 71.304 114.366 71.56 115.102 71.56ZM129.465 64.184V73H127.641V71.96C127.353 72.3227 126.975 72.6107 126.505 72.824C126.047 73.0267 125.556 73.128 125.033 73.128C124.34 73.128 123.716 72.984 123.161 72.696C122.617 72.408 122.185 71.9813 121.865 71.416C121.556 70.8507 121.401 70.168 121.401 69.368V64.184H123.209V69.096C123.209 69.8853 123.407 70.4933 123.801 70.92C124.196 71.336 124.735 71.544 125.417 71.544C126.1 71.544 126.639 71.336 127.033 70.92C127.439 70.4933 127.641 69.8853 127.641 69.096V64.184H129.465ZM131.264 68.552C131.264 67.6667 131.445 66.8827 131.808 66.2C132.181 65.5173 132.683 64.9893 133.312 64.616C133.952 64.232 134.661 64.04 135.44 64.04C136.016 64.04 136.581 64.168 137.136 64.424C137.701 64.6693 138.149 65 138.48 65.416V61.16H140.32V73H138.48V71.672C138.181 72.0987 137.765 72.4507 137.232 72.728C136.709 73.0053 136.107 73.144 135.424 73.144C134.656 73.144 133.952 72.952 133.312 72.568C132.683 72.1733 132.181 71.6293 131.808 70.936C131.445 70.232 131.264 69.4373 131.264 68.552ZM138.48 68.584C138.48 67.976 138.352 67.448 138.096 67C137.851 66.552 137.525 66.2107 137.12 65.976C136.715 65.7413 136.277 65.624 135.808 65.624C135.339 65.624 134.901 65.7413 134.496 65.976C134.091 66.2 133.76 66.536 133.504 66.984C133.259 67.4213 133.136 67.944 133.136 68.552C133.136 69.16 133.259 69.6933 133.504 70.152C133.76 70.6107 134.091 70.9627 134.496 71.208C134.912 71.4427 135.349 71.56 135.808 71.56C136.277 71.56 136.715 71.4427 137.12 71.208C137.525 70.9733 137.851 70.632 138.096 70.184C138.352 69.7253 138.48 69.192 138.48 68.584Z" fill="#25316D"/>
<path d="M90.9157 114.034L91.2671 114.574L91.9036 114.477C92.4488 114.394 93.0054 114.392 93.6496 114.392C106.714 114.392 117.228 124.273 117.228 136.42C117.228 148.567 106.714 158.448 93.6496 158.448C84.1221 158.448 77.2117 158.064 72.3479 157.495L72.1623 157.473L71.9813 157.52C69.4784 158.167 66.8957 158.448 64.156 158.448C62.2546 158.448 60.4122 158.262 58.6237 157.98L58.4815 157.958L58.3389 157.976C53.993 158.542 47.9454 158.735 39.6124 158.448L39.5952 158.448H39.578C26.5131 158.448 16 148.567 16 136.42C16 125.28 24.9705 115.964 36.6065 114.577L37.0708 114.522L37.3261 114.13C42.8276 105.685 52.7633 100 64.156 100C75.4833 100 85.4167 105.593 90.9157 114.034Z" fill="white" stroke="#25316D" stroke-width="2"/>
<path d="M52.268 123.192C52.268 123.757 52.1347 124.291 51.868 124.792C51.6013 125.293 51.1747 125.704 50.588 126.024C50.0013 126.333 49.2493 126.488 48.332 126.488H46.316V131H44.492V119.88H48.332C49.1853 119.88 49.9053 120.029 50.492 120.328C51.0893 120.616 51.532 121.011 51.82 121.512C52.1187 122.013 52.268 122.573 52.268 123.192ZM48.332 125C49.0253 125 49.5427 124.845 49.884 124.536C50.2253 124.216 50.396 123.768 50.396 123.192C50.396 121.976 49.708 121.368 48.332 121.368H46.316V125H48.332ZM55.8316 123.464C56.0983 123.016 56.4503 122.669 56.8876 122.424C57.3356 122.168 57.8636 122.04 58.4716 122.04V123.928H58.0076C57.293 123.928 56.749 124.109 56.3756 124.472C56.013 124.835 55.8316 125.464 55.8316 126.36V131H54.0076V122.184H55.8316V123.464ZM61.0762 121.016C60.7456 121.016 60.4682 120.904 60.2442 120.68C60.0202 120.456 59.9082 120.179 59.9082 119.848C59.9082 119.517 60.0202 119.24 60.2442 119.016C60.4682 118.792 60.7456 118.68 61.0762 118.68C61.3962 118.68 61.6682 118.792 61.8922 119.016C62.1162 119.24 62.2282 119.517 62.2282 119.848C62.2282 120.179 62.1162 120.456 61.8922 120.68C61.6682 120.904 61.3962 121.016 61.0762 121.016ZM61.9722 122.184V131H60.1482V122.184H61.9722ZM67.775 129.368L70.271 122.184H72.207L68.847 131H66.671L63.327 122.184H65.279L67.775 129.368ZM72.9777 126.552C72.9777 125.667 73.1591 124.883 73.5217 124.2C73.8951 123.517 74.3964 122.989 75.0257 122.616C75.6657 122.232 76.3697 122.04 77.1377 122.04C77.8311 122.04 78.4337 122.179 78.9457 122.456C79.4684 122.723 79.8844 123.059 80.1937 123.464V122.184H82.0337V131H80.1937V129.688C79.8844 130.104 79.4631 130.451 78.9297 130.728C78.3964 131.005 77.7884 131.144 77.1057 131.144C76.3484 131.144 75.6551 130.952 75.0257 130.568C74.3964 130.173 73.8951 129.629 73.5217 128.936C73.1591 128.232 72.9777 127.437 72.9777 126.552ZM80.1937 126.584C80.1937 125.976 80.0657 125.448 79.8097 125C79.5644 124.552 79.2391 124.211 78.8337 123.976C78.4284 123.741 77.9911 123.624 77.5217 123.624C77.0524 123.624 76.6151 123.741 76.2097 123.976C75.8044 124.2 75.4737 124.536 75.2177 124.984C74.9724 125.421 74.8497 125.944 74.8497 126.552C74.8497 127.16 74.9724 127.693 75.2177 128.152C75.4737 128.611 75.8044 128.963 76.2097 129.208C76.6257 129.443 77.0631 129.56 77.5217 129.56C77.9911 129.56 78.4284 129.443 78.8337 129.208C79.2391 128.973 79.5644 128.632 79.8097 128.184C80.0657 127.725 80.1937 127.192 80.1937 126.584ZM86.5575 123.672V128.552C86.5575 128.883 86.6322 129.123 86.7815 129.272C86.9415 129.411 87.2082 129.48 87.5815 129.48H88.7015V131H87.2615C86.4402 131 85.8108 130.808 85.3735 130.424C84.9362 130.04 84.7175 129.416 84.7175 128.552V123.672H83.6775V122.184H84.7175V119.992H86.5575V122.184H88.7015V123.672H86.5575ZM42.8137 139.416C42.8137 138.328 43.0643 137.352 43.5657 136.488C44.0777 135.624 44.7657 134.952 45.6297 134.472C46.5043 133.981 47.459 133.736 48.4937 133.736C49.6777 133.736 50.7283 134.029 51.6457 134.616C52.5737 135.192 53.2457 136.013 53.6617 137.08H51.4697C51.1817 136.493 50.7817 136.056 50.2697 135.768C49.7577 135.48 49.1657 135.336 48.4937 135.336C47.7577 135.336 47.1017 135.501 46.5257 135.832C45.9497 136.163 45.4963 136.637 45.1657 137.256C44.8457 137.875 44.6857 138.595 44.6857 139.416C44.6857 140.237 44.8457 140.957 45.1657 141.576C45.4963 142.195 45.9497 142.675 46.5257 143.016C47.1017 143.347 47.7577 143.512 48.4937 143.512C49.1657 143.512 49.7577 143.368 50.2697 143.08C50.7817 142.792 51.1817 142.355 51.4697 141.768H53.6617C53.2457 142.835 52.5737 143.656 51.6457 144.232C50.7283 144.808 49.6777 145.096 48.4937 145.096C47.4483 145.096 46.4937 144.856 45.6297 144.376C44.7657 143.885 44.0777 143.208 43.5657 142.344C43.0643 141.48 42.8137 140.504 42.8137 139.416ZM57.6207 133.16V145H55.7967V133.16H57.6207ZM63.8394 145.144C63.0074 145.144 62.2554 144.957 61.5834 144.584C60.9114 144.2 60.3834 143.667 59.9994 142.984C59.6154 142.291 59.4234 141.491 59.4234 140.584C59.4234 139.688 59.6208 138.893 60.0154 138.2C60.4101 137.507 60.9488 136.973 61.6314 136.6C62.3141 136.227 63.0768 136.04 63.9194 136.04C64.7621 136.04 65.5248 136.227 66.2074 136.6C66.8901 136.973 67.4288 137.507 67.8234 138.2C68.2181 138.893 68.4154 139.688 68.4154 140.584C68.4154 141.48 68.2128 142.275 67.8074 142.968C67.4021 143.661 66.8474 144.2 66.1434 144.584C65.4501 144.957 64.6821 145.144 63.8394 145.144ZM63.8394 143.56C64.3088 143.56 64.7461 143.448 65.1514 143.224C65.5674 143 65.9034 142.664 66.1594 142.216C66.4154 141.768 66.5434 141.224 66.5434 140.584C66.5434 139.944 66.4208 139.405 66.1754 138.968C65.9301 138.52 65.6048 138.184 65.1994 137.96C64.7941 137.736 64.3568 137.624 63.8874 137.624C63.4181 137.624 62.9808 137.736 62.5754 137.96C62.1808 138.184 61.8661 138.52 61.6314 138.968C61.3968 139.405 61.2794 139.944 61.2794 140.584C61.2794 141.533 61.5194 142.269 61.9994 142.792C62.4901 143.304 63.1034 143.56 63.8394 143.56ZM78.2026 136.184V145H76.3786V143.96C76.0906 144.323 75.7119 144.611 75.2426 144.824C74.7839 145.027 74.2932 145.128 73.7706 145.128C73.0772 145.128 72.4532 144.984 71.8986 144.696C71.3546 144.408 70.9226 143.981 70.6026 143.416C70.2932 142.851 70.1386 142.168 70.1386 141.368V136.184H71.9466V141.096C71.9466 141.885 72.1439 142.493 72.5386 142.92C72.9332 143.336 73.4719 143.544 74.1546 143.544C74.8372 143.544 75.3759 143.336 75.7706 142.92C76.1759 142.493 76.3786 141.885 76.3786 141.096V136.184H78.2026ZM80.0012 140.552C80.0012 139.667 80.1825 138.883 80.5452 138.2C80.9185 137.517 81.4198 136.989 82.0492 136.616C82.6892 136.232 83.3985 136.04 84.1772 136.04C84.7532 136.04 85.3185 136.168 85.8732 136.424C86.4385 136.669 86.8865 137 87.2172 137.416V133.16H89.0572V145H87.2172V143.672C86.9185 144.099 86.5025 144.451 85.9692 144.728C85.4465 145.005 84.8438 145.144 84.1612 145.144C83.3932 145.144 82.6892 144.952 82.0492 144.568C81.4198 144.173 80.9185 143.629 80.5452 142.936C80.1825 142.232 80.0012 141.437 80.0012 140.552ZM87.2172 140.584C87.2172 139.976 87.0892 139.448 86.8332 139C86.5878 138.552 86.2625 138.211 85.8572 137.976C85.4518 137.741 85.0145 137.624 84.5452 137.624C84.0758 137.624 83.6385 137.741 83.2332 137.976C82.8278 138.2 82.4972 138.536 82.2412 138.984C81.9958 139.421 81.8732 139.944 81.8732 140.552C81.8732 141.16 81.9958 141.693 82.2412 142.152C82.4972 142.611 82.8278 142.963 83.2332 143.208C83.6492 143.443 84.0865 143.56 84.5452 143.56C85.0145 143.56 85.4518 143.443 85.8572 143.208C86.2625 142.973 86.5878 142.632 86.8332 142.184C87.0892 141.725 87.2172 141.192 87.2172 140.584Z" fill="#25316D"/>
<path d="M141.985 238.329C141.891 237.785 141.373 237.42 140.829 237.515L131.962 239.057C131.418 239.152 131.053 239.669 131.148 240.214C131.243 240.758 131.76 241.122 132.304 241.027L140.186 239.657L141.557 247.538C141.651 248.082 142.169 248.447 142.713 248.352C143.258 248.258 143.622 247.74 143.527 247.196L141.985 238.329ZM316.5 388.522C316.512 387.97 316.074 387.513 315.521 387.501L306.524 387.308C305.971 387.296 305.514 387.734 305.502 388.286C305.49 388.838 305.928 389.295 306.481 389.307L314.479 389.479L314.307 397.477C314.295 398.029 314.733 398.486 315.285 398.498C315.838 398.51 316.295 398.072 316.307 397.52L316.5 388.522ZM138.363 240.709C138.077 241.181 138.228 241.796 138.7 242.082C139.173 242.368 139.788 242.217 140.074 241.744L138.363 240.709ZM137.204 247.331C137.421 246.823 137.186 246.235 136.678 246.018C136.17 245.8 135.582 246.036 135.365 246.544L137.204 247.331ZM133.207 252.747C133.062 253.28 133.376 253.83 133.909 253.975C134.442 254.12 134.992 253.806 135.137 253.273L133.207 252.747ZM133.888 259.461C133.962 258.913 133.578 258.41 133.031 258.336C132.484 258.262 131.98 258.646 131.906 259.193L133.888 259.461ZM131.426 265.729C131.418 266.282 131.859 266.736 132.411 266.744C132.964 266.752 133.418 266.311 133.426 265.759L131.426 265.729ZM133.675 272.074C133.625 271.524 133.138 271.119 132.588 271.169C132.038 271.219 131.633 271.706 131.684 272.256L133.675 272.074ZM132.585 278.717C132.686 279.26 133.208 279.618 133.751 279.517C134.294 279.416 134.653 278.894 134.552 278.351L132.585 278.717ZM135.975 284.554C135.83 284.021 135.28 283.706 134.747 283.851C134.214 283.996 133.9 284.545 134.044 285.078L135.975 284.554ZM135.985 291.32C136.167 291.842 136.737 292.117 137.259 291.934C137.78 291.752 138.055 291.182 137.873 290.66L135.985 291.32ZM140.163 296.603C139.949 296.094 139.363 295.855 138.854 296.069C138.345 296.283 138.106 296.869 138.32 297.378L140.163 296.603ZM141.001 303.279C141.243 303.776 141.842 303.982 142.338 303.74C142.835 303.498 143.041 302.9 142.799 302.403L141.001 303.279ZM145.75 308.088C145.483 307.604 144.875 307.427 144.392 307.694C143.908 307.96 143.731 308.568 143.998 309.052L145.75 308.088ZM147.265 314.679C147.553 315.15 148.169 315.299 148.64 315.011C149.111 314.723 149.26 314.107 148.972 313.636L147.265 314.679ZM152.409 319.009C152.102 318.55 151.481 318.426 151.022 318.733C150.563 319.04 150.44 319.661 150.747 320.121L152.409 319.009ZM154.457 325.445C154.781 325.892 155.406 325.991 155.853 325.667C156.3 325.343 156.4 324.718 156.076 324.271L154.457 325.445ZM159.938 329.4C159.598 328.964 158.969 328.887 158.534 329.227C158.099 329.567 158.022 330.195 158.362 330.631L159.938 329.4ZM162.424 335.655C162.778 336.079 163.409 336.135 163.833 335.781C164.256 335.427 164.312 334.796 163.958 334.372L162.424 335.655ZM168.156 339.231C167.789 338.819 167.156 338.783 166.744 339.151C166.332 339.518 166.296 340.151 166.664 340.563L168.156 339.231ZM171.048 345.327C171.428 345.727 172.061 345.744 172.461 345.364C172.862 344.984 172.879 344.351 172.499 343.95L171.048 345.327ZM176.98 348.535C176.588 348.146 175.955 348.148 175.566 348.54C175.177 348.932 175.179 349.565 175.571 349.954L176.98 348.535ZM180.235 354.452C180.638 354.83 181.271 354.809 181.648 354.406C182.026 354.003 182.005 353.37 181.602 352.993L180.235 354.452ZM186.344 357.309C185.93 356.943 185.298 356.982 184.932 357.395C184.566 357.809 184.605 358.441 185.019 358.807L186.344 357.309ZM189.93 363.027C190.354 363.381 190.985 363.324 191.339 362.9C191.693 362.476 191.636 361.845 191.212 361.491L189.93 363.027ZM196.193 365.529C195.759 365.187 195.13 365.262 194.788 365.696C194.447 366.13 194.522 366.759 194.956 367.101L196.193 365.529ZM200.105 371.034C200.549 371.363 201.175 371.269 201.504 370.826C201.833 370.382 201.74 369.756 201.296 369.427L200.105 371.034ZM206.503 373.167C206.05 372.852 205.426 372.963 205.111 373.417C204.796 373.87 204.907 374.493 205.361 374.809L206.503 373.167ZM210.731 378.425C211.193 378.727 211.813 378.596 212.114 378.133C212.416 377.67 212.285 377.051 211.822 376.75L210.731 378.425ZM217.257 380.168C216.785 379.882 216.17 380.032 215.884 380.505C215.597 380.977 215.748 381.592 216.22 381.878L217.257 380.168ZM221.798 385.138C222.28 385.409 222.889 385.238 223.16 384.756C223.431 384.275 223.26 383.665 222.778 383.394L221.798 385.138ZM228.43 386.441C227.94 386.188 227.336 386.381 227.083 386.871C226.83 387.362 227.022 387.965 227.513 388.219L228.43 386.441ZM233.334 391.086C233.835 391.32 234.43 391.105 234.664 390.605C234.899 390.105 234.684 389.509 234.183 389.275L233.334 391.086ZM240.012 391.865C239.502 391.651 238.916 391.891 238.703 392.4C238.489 392.909 238.728 393.495 239.237 393.709L240.012 391.865ZM245.292 396.095C245.81 396.285 246.385 396.02 246.575 395.501C246.766 394.983 246.5 394.408 245.982 394.218L245.292 396.095ZM252.045 396.282C251.518 396.117 250.957 396.411 250.792 396.938C250.627 397.465 250.921 398.026 251.448 398.191L252.045 396.282ZM257.684 399.956C258.22 400.091 258.764 399.767 258.899 399.232C259.034 398.696 258.71 398.152 258.175 398.017L257.684 399.956ZM264.394 399.391C263.852 399.289 263.329 399.646 263.227 400.189C263.125 400.732 263.482 401.255 264.025 401.357L264.394 399.391ZM270.487 402.34C271.036 402.404 271.532 402.01 271.595 401.462C271.658 400.913 271.265 400.417 270.716 400.354L270.487 402.34ZM277.062 400.832C276.51 400.814 276.048 401.246 276.029 401.798C276.01 402.35 276.443 402.813 276.995 402.831L277.062 400.832ZM283.517 402.757C284.069 402.725 284.489 402.252 284.457 401.7C284.424 401.149 283.951 400.728 283.4 400.761L283.517 402.757ZM289.681 400.064C289.136 400.155 288.768 400.67 288.859 401.215C288.949 401.759 289.464 402.128 290.009 402.037L289.681 400.064ZM296.401 400.587C296.931 400.432 297.235 399.877 297.08 399.347C296.926 398.817 296.37 398.512 295.84 398.667L296.401 400.587ZM301.772 396.509C301.267 396.732 301.038 397.322 301.261 397.827C301.484 398.333 302.075 398.562 302.58 398.339L301.772 396.509ZM308.392 395.277C308.861 394.986 309.006 394.37 308.715 393.901C308.424 393.431 307.808 393.286 307.338 393.577L308.392 395.277ZM312.432 389.903C312.008 390.256 311.95 390.887 312.304 391.311C312.657 391.736 313.288 391.793 313.712 391.439L312.432 389.903ZM140.182 237.925C139.538 238.84 138.932 239.768 138.363 240.709L140.074 241.744C140.619 240.843 141.2 239.953 141.818 239.076L140.182 237.925ZM135.365 246.544C134.498 248.568 133.781 250.638 133.207 252.747L135.137 253.273C135.687 251.25 136.374 249.268 137.204 247.331L135.365 246.544ZM131.906 259.193C131.616 261.342 131.458 263.522 131.426 265.729L133.426 265.759C133.457 263.628 133.609 261.527 133.888 259.461L131.906 259.193ZM131.684 272.256C131.879 274.392 132.181 276.547 132.585 278.717L134.552 278.351C134.158 276.239 133.865 274.145 133.675 272.074L131.684 272.256ZM134.044 285.078C134.607 287.15 135.255 289.232 135.985 291.32L137.873 290.66C137.158 288.615 136.524 286.578 135.975 284.554L134.044 285.078ZM138.32 297.378C139.147 299.344 140.042 301.312 141.001 303.279L142.799 302.403C141.855 300.468 140.976 298.533 140.163 296.603L138.32 297.378ZM143.998 309.052C145.033 310.932 146.123 312.808 147.265 314.679L148.972 313.636C147.845 311.79 146.77 309.94 145.75 308.088L143.998 309.052ZM150.747 320.121C151.939 321.904 153.176 323.679 154.457 325.445L156.076 324.271C154.81 322.525 153.587 320.77 152.409 319.009L150.747 320.121ZM158.362 330.631C159.679 332.318 161.034 333.993 162.424 335.655L163.958 334.372C162.582 332.727 161.241 331.069 159.938 329.4L158.362 330.631ZM166.664 340.563C168.095 342.167 169.557 343.755 171.048 345.327L172.499 343.95C171.021 342.393 169.573 340.82 168.156 339.231L166.664 340.563ZM175.571 349.954C177.1 351.473 178.656 352.973 180.235 354.452L181.602 352.993C180.037 351.527 178.496 350.04 176.98 348.535L175.571 349.954ZM185.019 358.807C186.635 360.237 188.273 361.644 189.93 363.027L191.212 361.491C189.57 360.121 187.946 358.726 186.344 357.309L185.019 358.807ZM194.956 367.101C196.656 368.439 198.373 369.751 200.105 371.034L201.296 369.427C199.58 368.155 197.878 366.855 196.193 365.529L194.956 367.101ZM205.361 374.809C207.139 376.046 208.929 377.252 210.731 378.425L211.822 376.75C210.038 375.588 208.265 374.393 206.503 373.167L205.361 374.809ZM216.22 381.878C218.072 383.002 219.932 384.089 221.798 385.138L222.778 383.394C220.932 382.357 219.091 381.281 217.257 380.168L216.22 381.878ZM227.513 388.219C229.451 389.219 231.392 390.175 233.334 391.086L234.183 389.275C232.265 388.375 230.346 387.43 228.43 386.441L227.513 388.219ZM239.237 393.709C241.259 394.558 243.278 395.354 245.292 396.095L245.982 394.218C243.997 393.487 242.006 392.702 240.012 391.865L239.237 393.709ZM251.448 398.191C253.537 398.843 255.617 399.433 257.684 399.956L258.175 398.017C256.145 397.503 254.1 396.924 252.045 396.282L251.448 398.191ZM264.025 401.357C266.199 401.765 268.354 402.094 270.487 402.34L270.716 400.354C268.632 400.113 266.524 399.791 264.394 399.391L264.025 401.357ZM276.995 402.831C279.2 402.906 281.376 402.883 283.517 402.757L283.4 400.761C281.324 400.883 279.21 400.905 277.062 400.832L276.995 402.831ZM290.009 402.037C292.187 401.676 294.32 401.194 296.401 400.587L295.84 398.667C293.839 399.251 291.784 399.715 289.681 400.064L290.009 402.037ZM302.58 398.339C304.581 397.455 306.52 396.437 308.392 395.277L307.338 393.577C305.547 394.687 303.69 395.662 301.772 396.509L302.58 398.339ZM313.712 391.439C314.557 390.735 315.384 389.997 316.192 389.223L314.808 387.778C314.033 388.521 313.241 389.229 312.432 389.903L313.712 391.439Z" fill="#CB2027"/>
<circle cx="444.5" cy="45.5" r="5.5" stroke="#25316D" stroke-width="2"/>
</g>
<defs>
<clipPath id="clip0_259_1078">
<rect width="526" height="409" fill="white"/>
</clipPath>
</defs>
</svg>
