<svg width="64" height="64" viewBox="0 0 64 64" fill="none" xmlns="http://www.w3.org/2000/svg">
<g clip-path="url(#clip0_518_3980)">
<path d="M13.284 42.1442C17.2185 49.1372 22.8928 54.2567 29.9987 57.8799C37.1202 54.2505 42.8039 49.1172 46.7398 42.1014C50.6671 35.101 52.8873 26.1664 52.9959 14.8708L29.9999 6.0708L7.00391 14.8708C7.11268 26.1902 9.34188 35.1377 13.284 42.1442Z" stroke="#25316D" stroke-width="2"/>
<path fill-rule="evenodd" clip-rule="evenodd" d="M30.0656 51.9667C41.2378 46.4579 47.9645 36.2051 48 18.8031L30 12L12 18.8031C12.0355 36.2411 18.7895 46.4975 30 52L30.0656 51.9667Z" fill="white"/>
<path d="M47.6584 19.5C47.6601 19.3232 47.6612 19.1457 47.6615 18.9674L29.7976 12.1216L11.9336 18.9674C11.9689 36.4787 18.6447 46.7958 29.7324 52.3392L29.7976 52.3727C37.4117 48.5833 42.9543 42.5534 45.7059 33.5" stroke="#25316D" stroke-width="2" stroke-linecap="round"/>
<path d="M28.9998 33L20.4103 27.6316C19.5264 27.0791 18.4926 28.0785 19.0149 28.9806L27.9998 44.5L57.9998 17L28.9998 33Z" fill="#CB2027"/>
</g>
<defs>
<clipPath id="clip0_518_3980">
<rect width="52" height="54" fill="white" transform="translate(6 5)"/>
</clipPath>
</defs>
</svg>
