<svg width="20" height="20" viewBox="0 0 20 20" fill="none" xmlns="http://www.w3.org/2000/svg">
<path d="M18.125 15.625H16.663V14.375H17.288V11.875H15.1387V12.5H13.75V11.25C13.75 11.0842 13.8158 10.9253 13.9331 10.8081C14.0503 10.6908 14.2092 10.625 14.375 10.625H18.125C18.2908 10.625 18.4497 10.6908 18.5669 10.8081C18.6842 10.9253 18.75 11.0842 18.75 11.25V15C18.75 15.1658 18.6842 15.3247 18.5669 15.4419C18.4497 15.5592 18.2908 15.625 18.125 15.625Z" fill="#303030"/>
<path d="M15 18.7499H11.25C11.0842 18.7499 10.9253 18.684 10.8081 18.5668C10.6908 18.4496 10.625 18.2907 10.625 18.1249V14.3749C10.625 14.2091 10.6908 14.0502 10.8081 13.933C10.9253 13.8157 11.0842 13.7499 11.25 13.7499H15C15.1658 13.7499 15.3247 13.8157 15.4419 13.933C15.5592 14.0502 15.625 14.2091 15.625 14.3749V18.1249C15.625 18.2907 15.5592 18.4496 15.4419 18.5668C15.3247 18.684 15.1658 18.7499 15 18.7499ZM12.0101 17.4999H14.2069V14.9999H12.0101V17.4999ZM9.59635 12.4111C9.14476 12.2935 8.73521 12.0515 8.41421 11.7127C8.09321 11.374 7.87364 10.952 7.78041 10.4947C7.68718 10.0374 7.72404 9.56319 7.8868 9.12581C8.05239 8.68083 8.11328 8.625 8.47983 8.317C8.84931 8.03191 9.29133 7.85613 9.75569 7.80963C10.22 7.76312 10.6881 7.84775 11.1068 8.05391C11.5255 8.26007 11.878 8.57949 12.1243 8.97591C12.3705 9.37233 12.5007 9.82986 12.5 10.2965H13.75C13.7507 9.58142 13.547 8.58435 13.1627 7.98123C12.7785 7.3781 12.2298 6.89741 11.5814 6.59584C10.933 6.29427 10.2118 6.1844 9.503 6.27918C8.79419 6.37395 8.12726 6.66943 7.58084 7.13076C7.03442 7.59209 6.63131 8.20005 6.41903 8.88294C6.20675 9.56582 6.19416 10.2952 6.38274 10.985C6.57132 11.6748 6.9532 12.2963 7.48337 12.7762C8.01354 13.2561 8.66988 13.5745 9.375 13.6936L9.59635 12.4111Z" fill="#303030"/>
<path d="M18.056 8.46875L16.2185 9.94285L15.331 9.05535L16.8373 7.73035L15.3623 5.18035L13.5276 6.09068C13.024 5.67147 12.4536 5.33978 11.8401 5.10943L11.4748 3.10371H8.52478L8.31979 5.10943C7.70141 5.33334 7.12787 5.66561 6.62604 6.09068L4.64352 5.29895L3.16852 7.84895L4.93618 9.08928C4.82055 9.73624 4.82055 10.3986 4.93618 11.0455L3.12477 12.3511L4.59977 14.9011L6.62604 14.0437C7.12967 14.463 7.70009 14.7947 8.31354 15.025L8.83989 17.5H9.68989V18.75H8.52478C8.23573 18.7498 7.9557 18.6494 7.73235 18.4659C7.509 18.2824 7.35614 18.0272 7.29978 17.7437L6.98103 16.1688C6.69806 16.0307 6.42455 15.8741 6.16227 15.7L4.64352 16.2125C4.51438 16.2545 4.37934 16.2756 4.24352 16.275C4.02398 16.2765 3.80801 16.2194 3.61793 16.1095C3.42784 15.9996 3.27054 15.841 3.16227 15.65L1.68727 13.1C1.54139 12.8494 1.48718 12.5558 1.53393 12.2696C1.58068 11.9835 1.72548 11.7224 1.94352 11.5312L3.14352 10.4813C3.13102 10.3188 3.12477 10.1625 3.12477 10C3.12477 9.8375 3.13727 9.68125 3.14977 9.525L1.94352 8.46875C1.72548 8.27758 1.58068 8.01654 1.53393 7.73035C1.48718 7.44416 1.54139 7.15062 1.68727 6.9L3.16227 4.35C3.27054 4.159 3.42784 4.00037 3.61793 3.89049C3.80801 3.78062 4.02398 3.72349 4.24352 3.725C4.37934 3.72438 4.51438 3.74547 4.64352 3.7875L6.15602 4.3C6.42044 4.12581 6.69604 3.96922 6.98103 3.83125L7.29978 2.25625C7.35614 1.97276 7.509 1.71756 7.73235 1.53409C7.9557 1.35063 8.23573 1.25023 8.52478 1.25H11.4748C11.7638 1.25023 12.0438 1.35063 12.2672 1.53409C12.4905 1.71756 12.6434 1.97276 12.6998 2.25625L13.0185 3.83125C13.3015 3.96926 13.575 4.12585 13.8373 4.3L15.356 3.7875C15.4852 3.74547 15.6202 3.72438 15.756 3.725C15.9756 3.72349 16.1915 3.78062 16.3816 3.89049C16.5717 4.00037 16.729 4.159 16.8373 4.35L18.3123 6.9C18.4582 7.15062 18.5124 7.44416 18.4656 7.73035C18.4189 8.01654 18.2741 8.27758 18.056 8.46875Z" fill="#303030"/>
</svg>
