<svg width="548" height="444" viewBox="0 0 548 444" fill="none" xmlns="http://www.w3.org/2000/svg">
<g clip-path="url(#clip0_590_3261)">
<path fill-rule="evenodd" clip-rule="evenodd" d="M263.782 20.1632C369.294 24.1023 402.956 15.1723 448.132 111.011C481.89 182.626 577.418 188.66 539.92 258.373C492.104 347.27 536.184 423.375 435.578 422.684C336.471 422.003 86.1035 441.923 33.2366 357.733C-11.4956 286.498 -1.68812 214.032 33.2369 137.466C78.2485 38.7869 155.778 16.131 263.782 20.1632Z" fill="#E2EEFF"/>
<path d="M56.2939 325.644C56.2939 320.757 60.2472 316.808 65.1147 316.808C69.981 316.808 73.9344 320.757 73.9344 325.644C73.9344 330.539 69.9742 334.532 65.1147 334.532C60.2541 334.532 56.2939 330.539 56.2939 325.644Z" stroke="#25316D" stroke-width="2"/>
<path d="M332.636 387.877C332.636 388.484 334.651 388.636 335.658 388.636C337.672 385.854 341.852 380.443 342.457 381.049C343.061 381.656 349.759 379.785 353.032 378.774L368.14 367.394L345.478 350.705L335.658 358.291C321.305 365.118 313.751 374.222 312.996 376.498C312.24 378.774 314.507 381.808 316.017 378.774C317.226 376.346 323.571 371.187 326.593 368.911C325.838 373.463 324.327 382.87 324.327 384.084C324.327 385.298 326.845 386.107 328.104 386.36M332.636 387.877C332.636 387.27 335.658 380.038 337.169 376.498M332.636 387.877C331.125 387.624 328.104 386.967 328.104 386.36M328.104 386.36C328.104 385.753 330.118 377.509 331.125 373.463" stroke="#25316D" stroke-width="2" stroke-linecap="round"/>
<path d="M61.0373 250.418C65.6843 255.901 68.4996 262.959 68.4996 270.711C68.4996 287.852 54.6244 301.783 37.5346 301.783M30.9571 301.088C17.0202 298.062 6.56543 285.583 6.56543 270.711C6.56543 253.506 20.4406 239.579 37.5346 239.579C44.3631 239.579 50.6772 241.784 55.7975 245.566" stroke="#25316D" stroke-width="2" stroke-miterlimit="1.5" stroke-linecap="round" stroke-linejoin="round"/>
<path d="M35.4386 252.488C35.7267 251.571 36.5582 250.979 37.5049 250.979C38.4516 250.979 39.283 251.571 39.5794 252.488C41.1682 257.394 43.0986 263.38 43.0986 263.38H54.5165C55.4591 263.38 56.2906 263.972 56.5869 264.889C56.8792 265.752 56.554 266.777 55.7925 267.316C53.1459 269.257 51.7999 270.228 49.9559 271.576M46.5643 274.056C46.5643 274.056 48.4948 280.042 50.0918 284.947C50.3799 285.864 50.0589 286.836 49.2974 287.373C48.5318 287.968 47.5028 287.968 46.7414 287.373C42.5677 284.356 37.5049 280.635 37.5049 280.635C37.5049 280.635 37.5584 280.635 35.0229 282.469M31.9112 284.732C30.4212 285.811 29.812 286.298 28.2685 287.373C27.507 287.968 26.478 287.968 25.7124 287.373C24.951 286.836 24.6299 285.864 24.9262 284.947C26.515 280.042 28.4454 274.056 28.4454 274.056M25.2597 271.738C25.2597 271.738 23.391 270.336 19.2173 267.316C18.4558 266.777 18.1348 265.752 18.4229 264.89C18.7193 263.973 19.5507 263.381 20.4974 263.381H31.9112C31.9112 263.381 32.7797 260.685 34.1915 256.317" stroke="#25316D" stroke-width="2" stroke-miterlimit="1.5" stroke-linecap="round" stroke-linejoin="round"/>
<path d="M36.3243 253.673C36.6229 252.75 37.9286 252.75 38.2272 253.673L41.6309 264.193C41.7644 264.606 42.1487 264.885 42.5824 264.885H53.6062C54.5739 264.885 54.9773 266.123 54.1956 266.693L45.2698 273.206C44.9208 273.46 44.7748 273.91 44.9078 274.321L48.3154 284.853C48.6137 285.776 47.5574 286.54 46.7746 285.969L37.8651 279.468C37.514 279.212 37.0375 279.212 36.6863 279.468L27.7769 285.969C26.994 286.54 25.9377 285.776 26.236 284.853L29.6436 274.321C29.7766 273.91 29.6306 273.46 29.2816 273.206L20.3558 266.693C19.5741 266.123 19.9776 264.885 20.9452 264.885H31.9691C32.4028 264.885 32.787 264.606 32.9205 264.193L36.3243 253.673Z" fill="#CB2027"/>
<path d="M527.5 356.579H0" stroke="#25316D" stroke-width="2" stroke-linecap="round" stroke-linejoin="round"/>
<path fill-rule="evenodd" clip-rule="evenodd" d="M437.849 205.583C437.849 205.583 438.99 204.922 440.286 204.174C442.319 202.992 443.023 200.383 441.842 198.332C441.558 197.842 441.27 197.336 440.986 196.845C440.707 196.358 440.336 195.932 439.893 195.589C439.45 195.247 438.943 194.996 438.404 194.851C437.864 194.705 437.3 194.668 436.746 194.742C436.192 194.816 435.658 194.998 435.174 195.28L432.737 196.691L437.849 205.583Z" fill="#25316D"/>
<path fill-rule="evenodd" clip-rule="evenodd" d="M513.959 347.767C513.959 345.217 511.901 343.15 509.361 343.15H473.379C470.839 343.15 468.781 345.217 468.781 347.767V357.729H513.959V347.767Z" fill="#25316D"/>
<path fill-rule="evenodd" clip-rule="evenodd" d="M426.148 235.429C439.303 227.802 444.37 211.892 437.467 199.884C430.564 187.877 414.306 184.328 401.155 191.955L426.148 235.429Z" fill="#CB2027"/>
<path d="M317.519 371.149C313.222 377.088 313.917 384.781 318.846 388.377C323.774 391.973 331.274 390.26 335.571 384.321C339.868 378.383 339.173 370.689 334.244 367.093C329.316 363.497 321.816 365.211 317.519 371.149Z" fill="white" stroke="#25316D"/>
<path fill-rule="evenodd" clip-rule="evenodd" d="M425.592 235.751C425.769 236.053 426.16 236.16 426.465 235.982C439.936 228.17 445.086 211.854 438.018 199.561C430.951 187.271 414.31 183.591 400.834 191.403C400.529 191.58 400.426 191.973 400.599 192.275L425.592 235.751ZM426.382 234.556L402.032 192.203C414.767 185.176 430.276 188.66 436.911 200.206C443.55 211.751 438.809 226.996 426.382 234.556Z" fill="#25316D"/>
<path d="M313.977 378.849L313.969 378.844C313.671 378.641 313.571 378.285 313.681 377.993C316.181 371.464 321.774 366.721 326.857 363.586C329.385 362.026 331.756 360.884 333.494 360.132C334.362 359.757 335.07 359.479 335.559 359.297C335.803 359.206 335.992 359.138 336.119 359.094C336.128 359.09 336.137 359.087 336.146 359.084C345.143 359.346 349.657 363.906 351.979 368.397C353.161 370.683 353.778 372.967 354.099 374.686C354.259 375.543 354.345 376.254 354.39 376.747C354.393 376.783 354.396 376.817 354.399 376.851C351.998 377.911 349.109 378.59 346.71 379.009C345.419 379.234 344.288 379.381 343.481 379.471C343.078 379.516 342.756 379.547 342.537 379.567C342.427 379.577 342.343 379.583 342.287 379.588L342.225 379.593L342.21 379.594L342.207 379.594L342.206 379.594L313.977 378.849ZM313.977 378.849C314.313 379.051 314.761 378.971 315.009 378.648C315.009 378.648 315.01 378.648 315.01 378.647L315.803 379.256C316.831 377.906 318.575 375.735 320.62 373.648L313.977 378.849ZM326.999 369.762C327.007 369.774 327.007 369.774 327.007 369.774L327.006 369.774L327.005 369.775L326.989 369.786C326.974 369.795 326.95 369.811 326.918 369.832C326.854 369.875 326.757 369.94 326.634 370.028C326.388 370.203 326.039 370.464 325.634 370.803C324.821 371.485 323.808 372.462 322.969 373.661C322.13 374.86 321.493 376.241 321.364 377.743C321.236 379.223 321.593 380.906 322.881 382.753L323.002 382.926C323.007 382.929 323.011 382.933 323.016 382.936C323.082 382.982 323.183 383.053 323.261 383.115C323.319 383.16 323.392 383.221 323.463 383.294C323.494 383.326 323.529 383.364 323.565 383.41C323.591 383.425 323.624 383.444 323.666 383.467C323.834 383.558 324.065 383.669 324.32 383.787C324.494 383.867 324.666 383.944 324.828 384.017C324.902 384.051 324.975 384.083 325.044 384.115L325.063 384.123C325.129 384.153 325.205 384.188 325.282 384.224L325.473 384.203L325.764 384.382L325.764 384.382L325.764 384.382L325.764 384.382L325.766 384.383L325.775 384.389L325.814 384.412C325.848 384.433 325.9 384.464 325.968 384.504C326.102 384.583 326.299 384.697 326.54 384.833C327.025 385.104 327.685 385.456 328.395 385.787C329.112 386.12 329.85 386.418 330.497 386.593C331.197 386.783 331.585 386.771 331.725 386.72L332.367 386.487L332.814 386.996L332.814 386.996L332.814 386.997L326.999 369.762Z" fill="white" stroke="#25316D" stroke-width="2"/>
<path fill-rule="evenodd" clip-rule="evenodd" d="M322.337 376.322C322.337 376.322 319.333 379.67 318.974 385.933C318.956 386.284 318.653 386.553 318.301 386.532C318.217 386.528 318.135 386.507 318.058 386.471C317.982 386.435 317.914 386.383 317.858 386.32C317.802 386.257 317.759 386.183 317.731 386.103C317.704 386.023 317.692 385.939 317.698 385.854C318.085 379.075 321.392 375.458 321.392 375.458C321.448 375.395 321.516 375.344 321.592 375.308C321.668 375.271 321.75 375.251 321.834 375.247C321.918 375.243 322.002 375.256 322.081 375.285C322.16 375.314 322.233 375.359 322.294 375.417C322.556 375.665 322.574 376.053 322.337 376.322Z" fill="#25316D"/>
<path fill-rule="evenodd" clip-rule="evenodd" d="M336.423 237.586C333.45 248.412 325.659 279.902 324.871 315.19L338.679 344.635C338.679 344.635 337.225 347.54 336.423 351.463L329.614 356.014C329.614 356.014 349.015 366.38 353.268 378.661C353.268 378.661 353.268 379.532 356.053 380.29C356.053 380.29 363.617 375.23 369.651 372.704C375.684 370.195 384.729 359.943 383.247 340.842C381.765 321.716 369.441 297.589 361.724 280.641C355.379 266.695 344.805 247.242 336.423 237.586Z" fill="#58B9FD"/>
<path fill-rule="evenodd" clip-rule="evenodd" d="M313.706 106.724C311.59 106.724 309.874 108.429 309.874 110.565C309.874 112.681 311.59 114.406 313.706 114.406C315.818 114.406 317.534 112.681 317.534 110.565C317.535 110.06 317.436 109.56 317.244 109.093C317.052 108.627 316.77 108.203 316.414 107.846C316.059 107.489 315.636 107.206 315.172 107.014C314.707 106.821 314.209 106.722 313.706 106.724ZM313.706 107.997C315.114 107.997 316.258 109.148 316.258 110.565C316.258 111.982 315.114 113.132 313.706 113.132C312.298 113.132 311.154 111.982 311.154 110.565C311.154 109.148 312.298 107.997 313.706 107.997Z" fill="#25316D"/>
<path fill-rule="evenodd" clip-rule="evenodd" d="M283.96 210.253C283.96 210.253 278.723 205.933 276.079 206.633L275.887 210.077C275.887 210.077 268.04 215.506 257.381 215.682C246.715 215.916 238.461 210.778 236.7 206.633C236.7 206.633 230.428 208.033 230.173 212.236C230.173 212.236 197.042 222.451 188.662 228.175C180.287 233.833 175.967 237.57 174.054 247.378C172.148 257.126 165.244 288.646 163.669 313.979C180.525 308.607 194.473 308.493 211.7 308.493C252.477 260.096 280.647 318.799 318.119 355.719C318.119 355.719 306.325 287.404 310.504 287.928C314.677 288.395 372.082 310.71 372.082 310.71C372.082 310.71 366.6 290.281 365.606 285.844C364.613 281.406 351.692 238.27 347.257 231.793C342.822 225.253 334.975 220.058 321.002 217.141C307.024 214.223 283.96 210.253 283.96 210.253Z" fill="#58B9FD"/>
<path d="M309.133 265.482C305.9 280.73 306.385 298.048 311.352 312.878M299.025 263.34C297.023 270.18 296.752 277.281 296.776 284.367C296.768 293.45 297.628 302.662 300.722 311.272" stroke="#25316D" stroke-width="2" stroke-miterlimit="1.5" stroke-linecap="round" stroke-linejoin="round"/>
<path d="M283.673 214.557C280.778 219.051 275.82 221.796 270.973 223.665C259.017 228.217 242.225 227.692 233.657 216.95M236.785 206.619C236.069 206.619 235.349 206.735 234.663 206.911C232.222 207.727 230.984 209.714 230.379 212.045M290.339 215.958C288.479 218.527 286.451 221.153 284.091 223.255C280.999 226 277.244 228.041 273.373 229.442" stroke="#25316D" stroke-width="2" stroke-miterlimit="1.5" stroke-linecap="round" stroke-linejoin="round"/>
<path d="M276.094 207C278.727 207.058 282.104 208.225 283.528 210.618" stroke="#25316D" stroke-width="2" stroke-miterlimit="1.5" stroke-linecap="round" stroke-linejoin="round"/>
<path d="M374.183 337.049C368.895 333.4 362.067 332.051 357.564 334.015C352.647 336.196 347.587 342.992 343.212 346.153M362.096 375.739C362.096 366.636 354.54 352.981 340.945 351.464" stroke="#25316D" stroke-width="2" stroke-miterlimit="1.5" stroke-linecap="round" stroke-linejoin="round"/>
<path d="M237.226 186.606L277.459 176.606L276.459 209.606C276.459 209.606 264.749 215.708 256.459 215.606C247.708 215.499 237.225 209.894 237.225 209.894L237.226 186.606Z" fill="white"/>
<path d="M281.687 156.888C281.687 177.871 263.595 197.069 248.272 197.069C227.008 181.951 222.756 176.581 222.756 159.275C214.088 146.242 223.909 110.586 252.613 110.586C290.384 110.586 288.118 145.483 281.687 156.888Z" fill="white"/>
<path d="M246.305 150.83C246.328 154.391 245.916 157.834 244.683 161.161C244.381 162.036 244.055 162.854 243.643 163.613C243.614 163.672 243.224 164.313 243.242 164.313C243.509 164.664 244.492 164.663 244.864 164.663C246.45 164.78 248.037 164.255 249.525 163.729M255.854 147.912C258.889 146.219 262.533 146.219 265.422 148.203M229.937 149.137C233.186 147.386 236.627 147.327 240.039 148.553M244.631 176.747C248.973 176.922 253.227 176.105 256.814 173.537M275.89 148.554C275.222 155.208 274.692 161.63 274.129 168.284M266.573 139.156C268.311 143.359 271.943 146.336 276.14 147.854M283.587 141.689C277.827 133.226 271.932 118.057 261.679 115.138C256.424 113.679 250.925 111.227 249.523 117.414C249.291 118.465 233.307 133.803 223.91 137.138" stroke="#25316D" stroke-width="2" stroke-miterlimit="1.5" stroke-linecap="round" stroke-linejoin="round"/>
<path d="M215.949 135.212C216.007 146.011 226.741 140.148 235.187 139.681C236.954 139.565 238.692 139.272 240.441 138.98M243.65 141.549C250.154 143.067 258.424 142.426 263.336 137.289M279.831 157.135C279.831 157.135 278.21 172.953 277.786 177.156C277.718 177.793 277.44 178.389 276.995 178.849C270.072 186.32 261.674 191.399 251.851 194.259C251.194 194.434 250.491 194.435 249.851 194.201C242.441 191.399 235.355 187.138 228.654 181.125C228.084 180.6 227.729 179.9 227.665 179.141C227.131 172.72 224.637 142.659 224.637 142.659" stroke="#25316D" stroke-width="2" stroke-miterlimit="1.5" stroke-linecap="round" stroke-linejoin="round"/>
<path d="M237.034 187.663L237.604 209.729C237.604 209.729 257.772 222.451 275.192 209.729M276.959 179.608L276.634 205.992" stroke="#25316D" stroke-width="2" stroke-miterlimit="1.5" stroke-linecap="round" stroke-linejoin="round"/>
<path d="M235.649 155.705C235.882 155.708 236.114 155.665 236.33 155.578C236.547 155.49 236.744 155.361 236.91 155.196C237.077 155.032 237.209 154.836 237.299 154.619C237.389 154.403 237.435 154.171 237.435 153.937C237.435 153.702 237.389 153.47 237.299 153.254C237.208 153.038 237.076 152.842 236.91 152.678C236.744 152.513 236.547 152.383 236.33 152.296C236.114 152.209 235.882 152.166 235.648 152.169C235.186 152.176 234.745 152.365 234.42 152.696C234.096 153.027 233.914 153.473 233.914 153.937C233.914 154.402 234.096 154.847 234.421 155.178C234.745 155.509 235.186 155.698 235.649 155.705ZM260.057 155.705C260.524 155.705 260.972 155.519 261.302 155.187C261.632 154.855 261.818 154.406 261.818 153.937C261.818 153.468 261.632 153.018 261.302 152.686C260.972 152.355 260.524 152.168 260.057 152.168C259.594 152.175 259.153 152.365 258.829 152.695C258.504 153.026 258.322 153.472 258.322 153.937C258.322 154.401 258.504 154.847 258.829 155.178C259.153 155.509 259.594 155.698 260.057 155.705Z" fill="#25316D"/>
<path fill-rule="evenodd" clip-rule="evenodd" d="M272.422 184.526C272.422 184.526 261.442 198.593 251.352 199.351C242.761 200.052 237.408 193.222 237.408 193.222V188.086C237.408 188.086 249.428 194.915 251.352 194.39C253.27 193.806 272.422 184.526 272.422 184.526Z" fill="#25316D"/>
<path d="M283.221 143.55L293.456 144.661C296.201 144.959 298.187 147.426 297.891 150.172L295.139 175.754C294.843 178.499 292.378 180.483 289.633 180.185L279.399 179.075L283.221 143.55Z" fill="white" stroke="#25316D" stroke-width="2"/>
<path d="M222.102 143.522L211.838 144.307C209.085 144.517 207.022 146.92 207.231 149.673L209.176 175.33C209.385 178.084 211.786 180.145 214.539 179.935L224.803 179.15L222.102 143.522Z" fill="white" stroke="#25316D" stroke-width="2"/>
<mask id="path-31-inside-1_590_3261" fill="white">
<path d="M215.89 145.768C213.697 145.915 211.774 144.261 211.839 142.064C211.97 137.699 212.848 133.373 214.449 129.26C216.533 123.903 219.795 119.029 224.017 114.963C228.238 110.898 233.323 107.734 238.932 105.683C244.54 103.631 250.545 102.739 256.545 103.066C262.544 103.393 268.402 104.931 273.728 107.578C279.053 110.225 283.724 113.92 287.43 118.417C291.135 122.914 293.79 128.11 295.217 133.658C296.317 137.934 296.668 142.343 296.266 146.71C296.066 148.882 293.987 150.29 291.84 149.909L291.25 149.804C289.047 149.412 287.621 147.287 287.757 145.053C287.949 141.885 287.645 138.7 286.849 135.603C285.712 131.184 283.598 127.046 280.647 123.465C277.697 119.884 273.977 116.941 269.736 114.833C265.495 112.725 260.83 111.501 256.052 111.24C251.274 110.98 246.492 111.691 242.026 113.324C237.559 114.958 233.51 117.478 230.148 120.715C226.786 123.953 224.189 127.834 222.529 132.1C221.36 135.104 220.675 138.25 220.489 141.432C220.359 143.649 218.716 145.579 216.501 145.727L215.89 145.768Z"/>
</mask>
<path d="M215.89 145.768C213.697 145.915 211.774 144.261 211.839 142.064C211.97 137.699 212.848 133.373 214.449 129.26C216.533 123.903 219.795 119.029 224.017 114.963C228.238 110.898 233.323 107.734 238.932 105.683C244.54 103.631 250.545 102.739 256.545 103.066C262.544 103.393 268.402 104.931 273.728 107.578C279.053 110.225 283.724 113.92 287.43 118.417C291.135 122.914 293.79 128.11 295.217 133.658C296.317 137.934 296.668 142.343 296.266 146.71C296.066 148.882 293.987 150.29 291.84 149.909L291.25 149.804C289.047 149.412 287.621 147.287 287.757 145.053C287.949 141.885 287.645 138.7 286.849 135.603C285.712 131.184 283.598 127.046 280.647 123.465C277.697 119.884 273.977 116.941 269.736 114.833C265.495 112.725 260.83 111.501 256.052 111.24C251.274 110.98 246.492 111.691 242.026 113.324C237.559 114.958 233.51 117.478 230.148 120.715C226.786 123.953 224.189 127.834 222.529 132.1C221.36 135.104 220.675 138.25 220.489 141.432C220.359 143.649 218.716 145.579 216.501 145.727L215.89 145.768Z" fill="white" stroke="#25316D" stroke-width="4" mask="url(#path-31-inside-1_590_3261)"/>
<path fill-rule="evenodd" clip-rule="evenodd" d="M183.714 304.654L184.084 307.919C184.084 307.919 168.435 327.761 157.881 329.199C147.307 330.658 140.886 318.171 136.733 307.919C132.58 297.672 129.616 286.313 132.477 283.622C132.477 283.622 130.946 276.268 132.477 275.591H153.053L178.988 242.232L183.878 237.632C183.878 237.632 185.842 233.746 190.423 229.27C196.354 243.464 201.408 265.567 200.058 298.966L185.862 302.496C185.553 302.744 184.759 303.67 183.714 304.654Z" fill="#58B9FD"/>
<mask id="path-33-inside-2_590_3261" fill="white">
<path d="M176.499 264.871C174.42 265.194 172.299 265.104 170.255 264.606C168.212 264.109 166.286 263.214 164.589 261.972C162.891 260.731 161.455 259.167 160.362 257.37C159.268 255.574 158.54 253.579 158.217 251.501C157.895 249.423 157.985 247.301 158.482 245.258C158.98 243.214 159.875 241.289 161.116 239.591C162.358 237.894 163.921 236.457 165.718 235.364C167.515 234.271 169.509 233.542 171.587 233.22L173.045 242.615C172.201 242.746 171.39 243.042 170.66 243.487C169.93 243.931 169.295 244.514 168.791 245.204C168.286 245.894 167.923 246.676 167.72 247.507C167.518 248.337 167.482 249.199 167.613 250.043C167.744 250.888 168.04 251.698 168.484 252.428C168.928 253.158 169.512 253.793 170.202 254.298C170.891 254.802 171.674 255.166 172.504 255.368C173.334 255.57 174.196 255.607 175.041 255.476L176.499 264.871Z"/>
</mask>
<path d="M176.499 264.871C174.42 265.194 172.299 265.104 170.255 264.606C168.212 264.109 166.286 263.214 164.589 261.972C162.891 260.731 161.455 259.167 160.362 257.37C159.268 255.574 158.54 253.579 158.217 251.501C157.895 249.423 157.985 247.301 158.482 245.258C158.98 243.214 159.875 241.289 161.116 239.591C162.358 237.894 163.921 236.457 165.718 235.364C167.515 234.271 169.509 233.542 171.587 233.22L173.045 242.615C172.201 242.746 171.39 243.042 170.66 243.487C169.93 243.931 169.295 244.514 168.791 245.204C168.286 245.894 167.923 246.676 167.72 247.507C167.518 248.337 167.482 249.199 167.613 250.043C167.744 250.888 168.04 251.698 168.484 252.428C168.928 253.158 169.512 253.793 170.202 254.298C170.891 254.802 171.674 255.166 172.504 255.368C173.334 255.57 174.196 255.607 175.041 255.476L176.499 264.871Z" fill="white" stroke="#25316D" stroke-width="4" mask="url(#path-33-inside-2_590_3261)"/>
<path d="M169.353 232.345L169.352 232.343C169.26 231.73 169.439 231.104 169.841 230.632C170.04 230.401 170.286 230.216 170.562 230.089C170.839 229.962 171.139 229.896 171.443 229.896C171.443 229.896 171.443 229.896 171.443 229.896C171.443 229.896 171.443 229.896 171.443 229.896L205.501 229.896C206.114 229.896 206.7 230.165 207.102 230.632C207.301 230.864 207.447 231.138 207.532 231.433C207.616 231.729 207.637 232.039 207.591 232.344L169.353 232.345ZM169.353 232.345C169.896 236.003 170.791 242.007 171.712 248.189C172.865 255.93 174.06 263.95 174.66 267.997L174.661 267.997M169.353 232.345L174.661 267.997M174.661 267.997C174.813 269.03 175.701 269.796 176.75 269.796H200.155C201.199 269.796 202.089 269.031 202.245 267.995L174.661 267.997ZM202.245 267.995C202.663 265.208 203.366 260.519 204.143 255.333C205.39 247.015 206.829 237.419 207.591 232.344L202.245 267.995Z" fill="white" stroke="#25316D" stroke-width="2"/>
<path d="M183.425 178.579C180.234 184.209 180.406 190.167 183.425 195.774C188.356 204.943 198.408 211.94 196.134 222.387C195.738 224.167 194.941 225.922 193.794 227.55M173.636 195.324C172.093 199.19 172.667 203.116 174.974 206.691C178.738 212.536 185.508 216.713 184.908 223.717C184.802 224.909 184.446 226.107 183.86 227.239" stroke="#25316D" stroke-width="2" stroke-miterlimit="1.5" stroke-linecap="round" stroke-linejoin="round"/>
<path fill-rule="evenodd" clip-rule="evenodd" d="M155.184 279.099C155.184 279.099 143.086 282.224 133.348 275.114C133.348 275.114 130.907 260.122 135.245 247.961C136.789 243.645 150.742 240.71 150.742 240.71C150.742 240.71 155.072 242.004 156.711 243.811C156.711 243.811 165.12 244.245 168.462 244.427C169.219 244.468 169.812 245.084 169.812 245.844V250.9C169.812 251.536 169.384 252.111 168.767 252.276C167.61 252.603 165.902 253.074 165.902 253.074C165.902 253.074 166.853 258.109 164.716 259.692C164.716 259.692 166.334 263.735 164.305 265.669C164.305 265.669 166.042 270.001 163.564 272.179C161.082 274.358 155.961 274.829 155.184 279.099Z" fill="white"/>
<path d="M156.768 244.168L156.763 244.169C156.764 244.168 156.766 244.168 156.768 244.168Z" fill="#25316D" stroke="#25316D" stroke-width="2" stroke-linecap="round" stroke-linejoin="round"/>
<path d="M145.028 245.079L156.028 244.079H167.528C168.361 244.079 170.028 244.579 170.028 246.579C170.028 248.579 170.028 250.079 170.028 250.579C170.194 250.745 170.128 251.279 168.528 252.079C166.928 252.879 165.861 253.079 165.528 253.079L156.528 254.079M166.028 253.579C166.361 255.412 166.528 259.179 164.528 259.579C162.528 259.979 158.361 259.745 156.528 259.579M165.028 260.579C165.528 262.079 165.928 265.179 163.528 265.579C161.128 265.979 158.528 266.079 157.528 266.079M164.528 266.579C165.194 268.245 165.528 271.879 161.528 273.079C157.528 274.279 155.528 277.579 155.028 279.079C154.361 279.412 151.628 279.979 146.028 279.579C140.428 279.179 135.028 276.412 133.028 275.079C132.361 267.245 131.928 250.579 135.528 246.579C139.128 242.579 147.028 240.912 150.528 240.579C152.195 241.079 155.628 242.279 156.028 243.079M160.028 275.079C162.861 280.412 168.628 292.079 169.028 296.079C169.528 301.079 171.528 309.579 165.528 315.579M135.528 285.579C139.528 286.745 148.928 288.679 154.528 287.079" stroke="#25316D" stroke-width="2" stroke-linecap="round" stroke-linejoin="round"/>
<path d="M191.448 197.439C193.44 200.955 193.333 204.675 191.448 208.176C188.369 213.901 182.092 218.27 183.512 224.793C183.759 225.905 184.257 227 184.973 228.017M197.56 207.895C198.524 210.309 198.165 212.76 196.725 214.992C194.375 218.642 190.147 221.251 190.522 225.624C190.588 226.368 190.81 227.116 191.176 227.823" stroke="#25316D" stroke-width="0.004" stroke-miterlimit="1.5" stroke-linecap="round" stroke-linejoin="round"/>
<path fill-rule="evenodd" clip-rule="evenodd" d="M234.102 382.709C233.719 382.217 233.649 381.539 233.925 380.964C234.196 380.41 234.768 380.059 235.394 380.059H282.731C283.361 380.059 283.934 380.41 284.207 380.985C284.341 381.265 284.394 381.577 284.359 381.886C284.324 382.194 284.203 382.487 284.01 382.729C280.823 386.735 275.172 393.845 275.172 393.845H242.725C242.725 393.845 237.205 386.714 234.102 382.709Z" fill="white"/>
<path fill-rule="evenodd" clip-rule="evenodd" d="M233.6 383.101C233.065 382.402 232.966 381.476 233.349 380.695C233.533 380.307 233.823 379.979 234.185 379.75C234.547 379.521 234.967 379.4 235.395 379.401H282.732C283.16 379.403 283.579 379.525 283.942 379.754C284.304 379.982 284.596 380.309 284.783 380.695C285.163 381.497 285.058 382.444 284.512 383.122C281.325 387.127 275.672 394.253 275.672 394.253C275.551 394.398 275.368 394.481 275.173 394.481H242.726C242.528 394.481 242.343 394.398 242.219 394.233L233.6 383.101ZM234.605 382.32L243.038 393.203H274.865L283.512 382.32C283.63 382.17 283.703 381.991 283.724 381.802C283.746 381.612 283.714 381.421 283.633 381.249C283.547 381.083 283.418 380.944 283.259 380.847C283.1 380.749 282.918 380.697 282.732 380.695H235.395C235.012 380.695 234.666 380.902 234.498 381.249C234.333 381.6 234.374 382.01 234.605 382.32ZM176.494 285.11C176.297 284.002 176.601 282.849 177.326 281.981C177.682 281.553 178.128 281.209 178.632 280.973C179.135 280.737 179.684 280.616 180.24 280.617H332.352C333.487 280.617 334.563 281.138 335.285 282.006C336.007 282.894 336.302 284.043 336.089 285.151C333.099 300.801 323.279 352.111 320.761 365.289C320.416 367.087 318.849 368.394 317.024 368.394H194.329C192.485 368.394 190.904 367.067 190.583 365.244C188.25 351.962 179.227 300.648 176.494 285.11Z" fill="#25316D"/>
<path fill-rule="evenodd" clip-rule="evenodd" d="M242.763 337.363C242.763 328.426 249.982 321.172 258.893 321.172C267.802 321.172 275.025 328.426 275.025 337.363V393.845H242.763V337.363Z" fill="white"/>
<path fill-rule="evenodd" clip-rule="evenodd" d="M242.121 337.363C242.121 328.071 249.633 320.527 258.892 320.527C268.156 320.527 275.665 328.071 275.665 337.363V393.844C275.665 394.2 275.378 394.485 275.025 394.485H242.759C242.409 394.485 242.121 394.2 242.121 393.844V337.363ZM243.401 337.363V393.224H274.387V337.363C274.387 328.782 267.449 321.812 258.892 321.812C250.336 321.812 243.401 328.782 243.401 337.363Z" fill="#25316D"/>
<path fill-rule="evenodd" clip-rule="evenodd" d="M251.682 337.301C251.682 333.3 254.911 330.059 258.892 330.059C262.874 330.059 266.101 333.3 266.101 337.301V350.252C266.101 354.245 262.874 357.485 258.892 357.485C254.911 357.485 251.682 354.245 251.682 350.252V337.301ZM212.201 346.209C212.201 345.82 212.513 345.51 212.896 345.51H215.51C215.897 345.51 216.206 345.82 216.206 346.209V352.843C216.206 353.232 215.897 353.542 215.51 353.542H212.896C212.513 353.542 212.201 353.232 212.201 352.843V346.209ZM202.293 346.209C202.293 345.82 202.606 345.51 202.989 345.51H205.603C205.989 345.51 206.298 345.82 206.298 346.209V352.843C206.298 353.232 205.989 353.542 205.603 353.542H202.989C202.606 353.542 202.293 353.232 202.293 352.843V346.209Z" fill="#25316D"/>
<path d="M204.974 352.222C203.211 361.073 200.441 380.443 203.463 387.119C207.24 395.464 218.571 411.395 232.924 409.877C247.276 408.36 238.967 398.498 235.19 397.739C231.413 396.981 223.859 400.015 224.614 402.291C225.369 404.567 235.945 420.498 262.384 418.222C288.823 415.946 295.622 401.533 299.399 397.739C302.42 394.705 312.241 389.395 316.773 387.119" stroke="#303030" stroke-width="2" stroke-linecap="round"/>
<path fill-rule="evenodd" clip-rule="evenodd" d="M190.921 285.16H326.991C327.462 285.16 327.926 285.266 328.352 285.469C328.777 285.672 329.152 285.967 329.449 286.334C329.748 286.699 329.962 287.126 330.076 287.584C330.19 288.042 330.202 288.52 330.11 288.983L315.474 362.557C315.404 362.888 315.069 363.115 314.721 363.053C314.375 362.991 314.15 362.64 314.22 362.292C314.22 362.292 326.022 302.992 328.856 288.735C328.967 288.181 328.824 287.586 328.462 287.152C328.284 286.932 328.06 286.755 327.806 286.634C327.551 286.513 327.273 286.452 326.991 286.453H190.921C190.571 286.453 190.283 286.168 190.283 285.817C190.283 285.449 190.571 285.16 190.921 285.16Z" fill="white"/>
<path d="M493.426 344.635V264.98L439.037 202.015" stroke="#25316D" stroke-width="2" stroke-linecap="round"/>
<path d="M379.5 76.9995L374 75C373.5 75.5 373.217 77.6513 373.5 78.5C374 80 373.5 79.4995 373.5 82L373.5 85.5L377.5 90L381.5 94.5L384.5 96L389.5 97L393.5 98L392 101L394.5 102.5L395 105.5L398 106.5L399.5 110L402 109.5L404 108.5L407.5 119.5L411 122.5L414 122L426 117.5L427.5 113L426 109.5L417 83.5L414 82L407.5 84.5L404 83.5L399 79.4995L389.5 78.4995L379.5 76.9995Z" fill="white"/>
<circle cx="413.23" cy="102.183" r="4.71449" transform="rotate(71.4181 413.23 102.183)" fill="#CB2027"/>
<path d="M422.563 118.828C421.455 115.531 423.229 111.96 426.526 110.851M410.522 83.0098C411.63 86.3068 415.202 88.081 418.499 86.9726M414.604 121.504C413.496 118.207 409.924 116.432 406.627 117.541M400.502 99.3196L407.296 119.531C408.035 121.729 410.416 122.911 412.614 122.173L424.553 118.159C426.751 117.42 427.934 115.039 427.195 112.841L417.83 84.9827C417.091 82.7847 414.71 81.6019 412.512 82.3409L400.573 86.3547C398.375 87.0936 397.192 89.4744 397.931 91.6724L398.209 92.5M413.901 106.236C411.703 106.975 409.322 105.793 408.583 103.595C407.844 101.397 409.027 99.0159 411.225 98.2769C413.423 97.538 415.804 98.7208 416.543 100.919C417.282 103.117 416.099 105.498 413.901 106.236Z" stroke="#25316D" stroke-width="2" stroke-linecap="round" stroke-linejoin="round"/>
<path d="M404 108.5L402.268 109.641C401.098 110.412 399.53 110.13 398.702 109V109C397.843 107.829 398.096 106.184 399.267 105.326L399.838 104.907" stroke="#25316D" stroke-width="2"/>
<path d="M394.526 97.7676L393.01 98.8791C392.141 99.5166 391.953 100.738 392.59 101.607V101.607C393.211 102.454 394.389 102.658 395.258 102.07L399.947 98.8972" stroke="#25316D" stroke-width="2"/>
<path d="M401.592 103.686L398.253 105.948C397.186 106.671 395.738 106.421 394.976 105.381V105.381C394.154 104.26 394.455 102.676 395.632 101.936L399.5 99.5002" stroke="#25316D" stroke-width="2"/>
<path d="M405.157 84.5841C404.908 84.3674 402.463 82.0551 401.308 81.0472C400.154 80.0393 397.927 79.1888 396.957 78.8895L387.166 77.8891L378.998 76.7369L374.29 75.1674M390.668 90.1341L401.927 93.4002C402.836 93.6743 404.606 94.6726 404.413 96.4727C404.171 98.7228 403.021 99.195 400.817 98.994C399.054 98.8332 392.867 97.5472 391.555 97.1398C389.473 97.0182 386.217 96.556 384.754 96.0935C380.237 94.6657 376.483 88.5773 373.767 85.1073" stroke="#25316D" stroke-width="2" stroke-linecap="round" stroke-linejoin="round"/>
<path d="M127 143L120.297 153.055C120.111 153.333 119.799 153.5 119.465 153.5L112 153.5M112 161L125.5 161M112 170L128 170C128.552 170 129 170.448 129 171L129 176" stroke="#25316D" stroke-width="2"/>
<circle cx="129" cy="140" r="3" transform="rotate(90 129 140)" stroke="#25316D" stroke-width="2"/>
<circle cx="129" cy="161" r="3" transform="rotate(90 129 161)" stroke="#25316D" stroke-width="2"/>
<circle cx="129" cy="180" r="3" transform="rotate(90 129 180)" stroke="#25316D" stroke-width="2"/>
<path d="M82.1104 138.571C82.1104 137.151 83.1288 136 84.3851 136H105.616C106.872 136 107.891 137.151 107.891 138.571V181.429C107.891 182.849 106.872 184 105.616 184H84.3851C83.1288 184 82.1104 182.849 82.1104 181.429V138.571Z" fill="white"/>
<path d="M80 136.786C80 135.247 81.1851 134 82.6471 134H107.353C108.815 134 110 135.247 110 136.786V183.214C110 184.753 108.815 186 107.353 186H82.6471C81.1851 186 80 184.753 80 183.214V136.786Z" stroke="#25316D" stroke-width="2"/>
<path d="M92 139H99" stroke="#25316D" stroke-width="2" stroke-linecap="round"/>
<path d="M89.1429 152.857C88.75 152.857 88.4286 152.568 88.4286 152.214C88.4286 151.861 88.75 151.571 89.1429 151.571H89.8571C90.25 151.571 90.5714 151.861 90.5714 152.214C90.5714 152.568 90.8929 152.857 91.2857 152.857C91.6786 152.857 92 152.568 92 152.214C92 151.25 91.2143 150.479 90.2143 150.318V149.643C90.2143 149.289 89.8929 149 89.5 149C89.1071 149 88.7857 149.289 88.7857 149.643V150.318C87.7857 150.479 87 151.25 87 152.214C87 153.275 87.9643 154.143 89.1429 154.143H89.8571C90.25 154.143 90.5714 154.432 90.5714 154.786C90.5714 155.139 90.25 155.429 89.8571 155.429H89.1429C88.75 155.429 88.4286 155.139 88.4286 154.786C88.4286 154.432 88.1071 154.143 87.7143 154.143C87.3214 154.143 87 154.432 87 154.786C87 155.75 87.7857 156.521 88.7857 156.682V157.357C88.7857 157.711 89.1071 158 89.5 158C89.8929 158 90.2143 157.711 90.2143 157.357V156.682C91.2143 156.521 92 155.75 92 154.786C92 153.725 91.0357 152.857 89.8571 152.857H89.1429Z" fill="#25316D"/>
<path d="M97.9802 155.68C97.9802 155.92 97.9202 156.14 97.8002 156.34C97.6802 156.54 97.5202 156.7 97.3202 156.82C97.1202 156.94 96.9002 157 96.6602 157H94.7402C94.5002 157 94.2768 156.94 94.0702 156.82C93.8702 156.7 93.7102 156.54 93.5902 156.34C93.4702 156.14 93.4102 155.92 93.4102 155.68V155.38C93.4102 155.254 93.4535 155.147 93.5402 155.06C93.6335 154.967 93.7435 154.92 93.8702 154.92H94.1502C94.2702 154.92 94.3735 154.967 94.4602 155.06C94.5535 155.147 94.6002 155.254 94.6002 155.38V155.68C94.6002 155.714 94.6135 155.747 94.6402 155.78C94.6735 155.807 94.7068 155.82 94.7402 155.82H96.6602C96.6935 155.82 96.7235 155.807 96.7502 155.78C96.7768 155.747 96.7902 155.714 96.7902 155.68V154.62C96.7902 154.534 96.7502 154.49 96.6702 154.49H94.7402C94.5002 154.49 94.2768 154.43 94.0702 154.31C93.8702 154.19 93.7102 154.03 93.5902 153.83C93.4702 153.624 93.4102 153.4 93.4102 153.16V151.57C93.4102 151.324 93.4702 151.1 93.5902 150.9C93.7102 150.7 93.8702 150.54 94.0702 150.42C94.2768 150.3 94.5002 150.24 94.7402 150.24H96.6602C96.9002 150.24 97.1202 150.3 97.3202 150.42C97.5202 150.54 97.6802 150.7 97.8002 150.9C97.9202 151.1 97.9802 151.324 97.9802 151.57V155.68ZM96.7902 153.17V151.57C96.7902 151.477 96.7468 151.43 96.6602 151.43H94.7402C94.7068 151.43 94.6735 151.444 94.6402 151.47C94.6135 151.497 94.6002 151.53 94.6002 151.57V153.16C94.6002 153.2 94.6135 153.234 94.6402 153.26C94.6735 153.287 94.7068 153.3 94.7402 153.3H96.6702C96.7502 153.3 96.7902 153.257 96.7902 153.17Z" fill="#25316D"/>
<path d="M103.371 155.68C103.371 155.92 103.311 156.14 103.191 156.34C103.071 156.54 102.911 156.7 102.711 156.82C102.511 156.94 102.291 157 102.051 157H100.131C99.8908 157 99.6674 156.94 99.4608 156.82C99.2608 156.7 99.1008 156.54 98.9808 156.34C98.8608 156.14 98.8008 155.92 98.8008 155.68V155.38C98.8008 155.254 98.8441 155.147 98.9308 155.06C99.0241 154.967 99.1341 154.92 99.2608 154.92H99.5408C99.6608 154.92 99.7641 154.967 99.8508 155.06C99.9441 155.147 99.9908 155.254 99.9908 155.38V155.68C99.9908 155.714 100.004 155.747 100.031 155.78C100.064 155.807 100.097 155.82 100.131 155.82H102.051C102.084 155.82 102.114 155.807 102.141 155.78C102.167 155.747 102.181 155.714 102.181 155.68V154.62C102.181 154.534 102.141 154.49 102.061 154.49H100.131C99.8908 154.49 99.6674 154.43 99.4608 154.31C99.2608 154.19 99.1008 154.03 98.9808 153.83C98.8608 153.624 98.8008 153.4 98.8008 153.16V151.57C98.8008 151.324 98.8608 151.1 98.9808 150.9C99.1008 150.7 99.2608 150.54 99.4608 150.42C99.6674 150.3 99.8908 150.24 100.131 150.24H102.051C102.291 150.24 102.511 150.3 102.711 150.42C102.911 150.54 103.071 150.7 103.191 150.9C103.311 151.1 103.371 151.324 103.371 151.57V155.68ZM102.181 153.17V151.57C102.181 151.477 102.137 151.43 102.051 151.43H100.131C100.097 151.43 100.064 151.444 100.031 151.47C100.004 151.497 99.9908 151.53 99.9908 151.57V153.16C99.9908 153.2 100.004 153.234 100.031 153.26C100.064 153.287 100.097 153.3 100.131 153.3H102.061C102.141 153.3 102.181 153.257 102.181 153.17Z" fill="#25316D"/>
<rect x="84" y="171" width="22" height="7" rx="1" fill="#CB2027"/>
<g clip-path="url(#clip1_590_3261)">
<rect x="286" y="24" width="42" height="31" rx="2" fill="white" stroke="#25316D" stroke-width="2"/>
<path d="M298.72 38.3201C298.016 38.3201 297.44 37.7441 297.44 37.0401C297.44 36.3361 298.016 35.7601 298.72 35.7601H300C300.704 35.7601 301.28 36.3361 301.28 37.0401C301.28 37.7441 301.856 38.3201 302.56 38.3201C303.264 38.3201 303.84 37.7441 303.84 37.0401C303.84 35.1201 302.432 33.5841 300.64 33.2641V31.9201C300.64 31.2161 300.064 30.6401 299.36 30.6401C298.656 30.6401 298.08 31.2161 298.08 31.9201V33.2641C296.288 33.5841 294.88 35.1201 294.88 37.0401C294.88 39.1521 296.608 40.8801 298.72 40.8801H300C300.704 40.8801 301.28 41.4561 301.28 42.1601C301.28 42.8641 300.704 43.4401 300 43.4401H298.72C298.016 43.4401 297.44 42.8641 297.44 42.1601C297.44 41.4561 296.864 40.8801 296.16 40.8801C295.456 40.8801 294.88 41.4561 294.88 42.1601C294.88 44.0801 296.288 45.6161 298.08 45.9361V47.2801C298.08 47.9841 298.656 48.5601 299.36 48.5601C300.064 48.5601 300.64 47.9841 300.64 47.2801V45.9361C302.432 45.6161 303.84 44.0801 303.84 42.1601C303.84 40.0481 302.112 38.3201 300 38.3201H298.72Z" fill="#25316D"/>
<path d="M290 9L300.055 15.7031C300.333 15.8886 300.5 16.2008 300.5 16.5352V24M308 23V10.5M317 23V8C317 7.44772 317.448 7 318 7H323" stroke="#25316D" stroke-width="2"/>
<circle cx="287" cy="7" r="3" stroke="#25316D" stroke-width="2"/>
<circle cx="308" cy="7" r="3" stroke="#25316D" stroke-width="2"/>
<circle cx="327" cy="7" r="3" stroke="#25316D" stroke-width="2"/>
<path d="M314 39.5C314 37.0147 316.015 35 318.5 35H330C330.552 35 331 35.4477 331 36V43C331 43.5523 330.552 44 330 44H318.5C316.015 44 314 41.9853 314 39.5Z" fill="#CB2027" stroke="#25316D" stroke-width="2"/>
<circle cx="318.5" cy="39.5" r="1.5" fill="white"/>
</g>
<rect x="162" y="52" width="48" height="23" fill="white"/>
<path d="M161.5 77.9999L173.5 69L173.5 75.6698L176.5 77.9999L173.5 80.33L173.5 87L161.5 77.9999Z" fill="#CB2027"/>
<path d="M210.5 48.0001L198.5 39.0002L198.5 45.67L195.5 48.0001L198.5 50.3303L198.5 57.0002L210.5 48.0001Z" fill="#CB2027"/>
<path d="M189.75 59.25C190.082 59.25 190.399 59.1183 190.634 58.8839C190.868 58.6495 191 58.3315 191 58C191 57.6685 190.868 57.3505 190.634 57.1161C190.399 56.8817 190.082 56.75 189.75 56.75H187.25V55.5C187.25 55.1685 187.118 54.8505 186.884 54.6161C186.649 54.3817 186.332 54.25 186 54.25C185.668 54.25 185.351 54.3817 185.116 54.6161C184.882 54.8505 184.75 55.1685 184.75 55.5V56.75H182.25C181.918 56.75 181.601 56.8817 181.366 57.1161C181.132 57.3505 181 57.6685 181 58V63C181 63.3315 181.132 63.6495 181.366 63.8839C181.601 64.1183 181.918 64.25 182.25 64.25H188.5V66.75H182.25C181.918 66.75 181.601 66.8817 181.366 67.1161C181.132 67.3505 181 67.6685 181 68C181 68.3315 181.132 68.6495 181.366 68.8839C181.601 69.1183 181.918 69.25 182.25 69.25H184.75V70.5C184.75 70.8315 184.882 71.1495 185.116 71.3839C185.351 71.6183 185.668 71.75 186 71.75C186.332 71.75 186.649 71.6183 186.884 71.3839C187.118 71.1495 187.25 70.8315 187.25 70.5V69.25H189.75C190.082 69.25 190.399 69.1183 190.634 68.8839C190.868 68.6495 191 68.3315 191 68V63C191 62.6685 190.868 62.3505 190.634 62.1161C190.399 61.8817 190.082 61.75 189.75 61.75H183.5V59.25H189.75Z" fill="#25316D"/>
<path d="M199.75 81.75L174.75 81.75L174.75 89.25L160 78L174.638 66.75L174.638 74.25L209.75 74.25L209.75 58" stroke="#25316D" stroke-width="2" stroke-linecap="round" stroke-linejoin="round"/>
<path d="M172.25 44.25H197.25V36.75L212 48L197.362 59.25V51.75H162.25V68" stroke="#25316D" stroke-width="2" stroke-linecap="round" stroke-linejoin="round"/>
</g>
<defs>
<clipPath id="clip0_590_3261">
<rect width="548" height="443" fill="white" transform="translate(0 0.5)"/>
</clipPath>
<clipPath id="clip1_590_3261">
<rect width="64" height="64" fill="white" transform="translate(276 -2)"/>
</clipPath>
</defs>
</svg>
