<svg width="64" height="64" viewBox="0 0 64 64" fill="none" xmlns="http://www.w3.org/2000/svg">
<path fill-rule="evenodd" clip-rule="evenodd" d="M8 5C6.89543 5 6 5.89543 6 7V17.8571C6 18.9617 6.89543 19.8571 8 19.8571H56C57.1046 19.8571 58 18.9617 58 17.8571V7C58 5.89543 57.1046 5 56 5H8ZM13.6181 8.71457C13.0658 8.71457 12.6181 9.16229 12.6181 9.71457V15.1431C12.6181 15.6954 13.0658 16.1431 13.6181 16.1431H19.1817C19.734 16.1431 20.1817 15.6954 20.1817 15.1431V9.71457C20.1817 9.16229 19.734 8.71457 19.1817 8.71457H13.6181Z" fill="white"/>
<path d="M7 7C7 6.44772 7.44772 6 8 6V4C6.34315 4 5 5.34315 5 7H7ZM7 17.8571V7H5V17.8571H7ZM8 18.8571C7.44772 18.8571 7 18.4094 7 17.8571H5C5 19.514 6.34315 20.8571 8 20.8571V18.8571ZM56 18.8571H8V20.8571H56V18.8571ZM57 17.8571C57 18.4094 56.5523 18.8571 56 18.8571V20.8571C57.6569 20.8571 59 19.514 59 17.8571H57ZM57 7V17.8571H59V7H57ZM56 6C56.5523 6 57 6.44772 57 7H59C59 5.34315 57.6569 4 56 4V6ZM8 6H56V4H8V6ZM13.6181 9.71457V7.71457C12.5135 7.71457 11.6181 8.61 11.6181 9.71457H13.6181ZM13.6181 15.1431V9.71457H11.6181V15.1431H13.6181ZM13.6181 15.1431H13.6181H11.6181C11.6181 16.2477 12.5135 17.1431 13.6181 17.1431V15.1431ZM19.1817 15.1431H13.6181V17.1431H19.1817V15.1431ZM19.1817 15.1431V17.1431C20.2863 17.1431 21.1817 16.2477 21.1817 15.1431H19.1817ZM19.1817 9.71457V15.1431H21.1817V9.71457H19.1817ZM19.1817 9.71457H19.1817H21.1817C21.1817 8.61 20.2863 7.71457 19.1817 7.71457V9.71457ZM13.6181 9.71457H19.1817V7.71457H13.6181V9.71457Z" fill="#25316D"/>
<path fill-rule="evenodd" clip-rule="evenodd" d="M8 24C6.89543 24 6 24.8954 6 26V38C6 39.1046 6.89543 40 8 40H56C57.1046 40 58 39.1046 58 38V26C58 24.8954 57.1046 24 56 24H8ZM13.8727 28.2363C13.3204 28.2363 12.8727 28.684 12.8727 29.2363V34.6649C12.8727 35.2172 13.3204 35.6649 13.8727 35.6649H19.7273C20.2795 35.6649 20.7273 35.2172 20.7273 34.6649V29.2363C20.7273 28.684 20.2795 28.2363 19.7273 28.2363H13.8727Z" fill="#CB2027"/>
<path d="M6.5 26C6.5 25.1716 7.17157 24.5 8 24.5V23.5C6.61929 23.5 5.5 24.6193 5.5 26H6.5ZM6.5 38V26H5.5V38H6.5ZM8 39.5C7.17157 39.5 6.5 38.8284 6.5 38H5.5C5.5 39.3807 6.61929 40.5 8 40.5V39.5ZM56 39.5H8V40.5H56V39.5ZM57.5 38C57.5 38.8284 56.8284 39.5 56 39.5V40.5C57.3807 40.5 58.5 39.3807 58.5 38H57.5ZM57.5 26V38H58.5V26H57.5ZM56 24.5C56.8284 24.5 57.5 25.1716 57.5 26H58.5C58.5 24.6193 57.3807 23.5 56 23.5V24.5ZM8 24.5H56V23.5H8V24.5ZM13.3727 29.2363C13.3727 28.9602 13.5966 28.7363 13.8727 28.7363V27.7363C13.0443 27.7363 12.3727 28.4079 12.3727 29.2363H13.3727ZM13.3727 34.6649V29.2363H12.3727V34.6649H13.3727ZM13.8727 35.1649C13.5966 35.1649 13.3727 34.941 13.3727 34.6649H12.3727C12.3727 35.4933 13.0443 36.1649 13.8727 36.1649V35.1649ZM19.7273 35.1649H13.8727V36.1649H19.7273V35.1649ZM20.2273 34.6649C20.2273 34.941 20.0034 35.1649 19.7273 35.1649V36.1649C20.5557 36.1649 21.2273 35.4933 21.2273 34.6649H20.2273ZM20.2273 29.2363V34.6649H21.2273V29.2363H20.2273ZM19.7273 28.7363C20.0034 28.7363 20.2273 28.9602 20.2273 29.2363H21.2273C21.2273 28.4079 20.5557 27.7363 19.7273 27.7363V28.7363ZM13.8727 28.7363H19.7273V27.7363H13.8727V28.7363Z" fill="#CB2027"/>
<path fill-rule="evenodd" clip-rule="evenodd" d="M8 44.0938C6.89543 44.0938 6 44.9892 6 46.0937V56.9509C6 58.0555 6.89543 58.9509 8 58.9509H56C57.1046 58.9509 58 58.0555 58 56.9509V46.0938C58 44.9892 57.1046 44.0938 56 44.0938H8ZM13.6178 47.8079C13.0655 47.8079 12.6178 48.2556 12.6178 48.8079V54.2365C12.6178 54.7887 13.0655 55.2365 13.6178 55.2365H19.1814C19.7337 55.2365 20.1814 54.7887 20.1814 54.2365V48.8079C20.1814 48.2556 19.7337 47.8079 19.1814 47.8079H13.6178Z" fill="white"/>
<path d="M7 46.0937C7 45.5415 7.44772 45.0938 8 45.0938V43.0938C6.34315 43.0938 5 44.4369 5 46.0937H7ZM7 56.9509V46.0937H5V56.9509H7ZM8 57.9509C7.44772 57.9509 7 57.5032 7 56.9509H5C5 58.6077 6.34315 59.9509 8 59.9509V57.9509ZM56 57.9509H8V59.9509H56V57.9509ZM57 56.9509C57 57.5032 56.5523 57.9509 56 57.9509V59.9509C57.6569 59.9509 59 58.6077 59 56.9509H57ZM57 46.0938V56.9509H59V46.0938H57ZM56 45.0938C56.5523 45.0938 57 45.5415 57 46.0938H59C59 44.4369 57.6569 43.0938 56 43.0938V45.0938ZM8 45.0938H56V43.0938H8V45.0938ZM13.6178 48.8079V46.8079C12.5132 46.8079 11.6178 47.7033 11.6178 48.8079H13.6178ZM13.6178 54.2365V48.8079H11.6178V54.2365H13.6178ZM13.6178 54.2365H13.6178H11.6178C11.6178 55.341 12.5132 56.2365 13.6178 56.2365V54.2365ZM19.1814 54.2365H13.6178V56.2365H19.1814V54.2365ZM19.1814 54.2365V56.2365C20.286 56.2365 21.1814 55.341 21.1814 54.2365H19.1814ZM19.1814 48.8079V54.2365H21.1814V48.8079H19.1814ZM19.1814 48.8079H19.1814H21.1814C21.1814 47.7033 20.286 46.8079 19.1814 46.8079V48.8079ZM13.6178 48.8079H19.1814V46.8079H13.6178V48.8079Z" fill="#25316D"/>
</svg>
