<svg width="64" height="64" viewBox="0 0 64 64" fill="none" xmlns="http://www.w3.org/2000/svg">
<path d="M20.5 16L23.8287 18.4184L22.5572 22.3316H18.4428L17.1713 18.4184L20.5 16Z" fill="#CB2027"/>
<path d="M22.9381 12.4938L25.3698 13.9384L23.9252 16.3701L21.4935 14.9255L22.9381 12.4938Z" fill="#CB2027"/>
<path d="M18.5 11L19.799 13.25H17.201L18.5 11Z" fill="#CB2027"/>
<path d="M31.5 9.23607L36.4986 24.6201C36.7663 25.4441 37.5342 26.002 38.4007 26.002H54.5764L41.49 35.5099C40.789 36.0192 40.4957 36.9219 40.7634 37.7459L45.762 53.1299L32.6756 43.6221C31.9746 43.1128 31.0254 43.1128 30.3244 43.6221L17.238 53.1299L22.2366 37.7459C22.5043 36.9219 22.211 36.0192 21.51 35.5099L8.42363 26.002H24.5993C25.4658 26.002 26.2337 25.4441 26.5014 24.6201L31.5 9.23607Z" fill="white" stroke="#25316D" stroke-width="2"/>
<path d="M31.0401 29.2382C31.3285 29.0888 31.6715 29.0888 31.9599 29.2382L32.6048 29.5722C32.702 29.6226 32.8067 29.6566 32.9149 29.673L33.6329 29.7818C33.9541 29.8305 34.2316 30.0321 34.3771 30.3225L34.7025 30.9718C34.7515 31.0696 34.8162 31.1587 34.8941 31.2355L35.4111 31.7456C35.6423 31.9738 35.7483 32.3 35.6953 32.6204L35.5769 33.337C35.5591 33.4449 35.5591 33.5551 35.5769 33.663L35.6953 34.3796C35.7483 34.7 35.6423 35.0262 35.4111 35.2544L34.8941 35.7645C34.8162 35.8413 34.7515 35.9304 34.7025 36.0282L34.3771 36.6775C34.2316 36.9679 33.9541 37.1695 33.6329 37.2182L32.9149 37.327C32.8067 37.3434 32.702 37.3774 32.6048 37.4278L31.9599 37.7618C31.6715 37.9112 31.3285 37.9112 31.0401 37.7618L30.3952 37.4278C30.298 37.3774 30.1933 37.3434 30.0851 37.327L29.3671 37.2182C29.0459 37.1695 28.7684 36.9679 28.6229 36.6775L28.2975 36.0282C28.2485 35.9304 28.1838 35.8413 28.1059 35.7645L27.5889 35.2544C27.3577 35.0262 27.2517 34.7 27.3047 34.3796L27.4231 33.663C27.4409 33.5551 27.4409 33.4449 27.4231 33.337L27.3047 32.6204C27.2517 32.3 27.3577 31.9738 27.5889 31.7456L28.1059 31.2355C28.1838 31.1587 28.2485 31.0696 28.2975 30.9718L28.6229 30.3225C28.7684 30.0321 29.0459 29.8305 29.3671 29.7818L30.0851 29.673C30.1933 29.6566 30.298 29.6226 30.3952 29.5722L31.0401 29.2382Z" fill="#CB2027"/>
</svg>
