<svg width="588" height="340" viewBox="0 0 588 340" fill="none" xmlns="http://www.w3.org/2000/svg">
<path d="M45 260.103H295" stroke="#25316D" stroke-width="2" stroke-linecap="round" stroke-linejoin="round"/>
<path d="M101.086 269.31L101.23 269.205L101.329 269.057C102.104 267.895 103.501 267.201 105.439 266.988C107.373 266.774 109.708 267.06 112.107 267.72C114.497 268.377 116.895 269.391 118.938 270.582C120.996 271.782 122.625 273.122 123.548 274.398C127.463 279.809 126.755 286.688 122.419 289.852C121.421 290.58 119.804 291.033 117.742 291.146C115.707 291.258 113.358 291.033 111.01 290.52C108.664 290.007 106.353 289.214 104.392 288.212C102.417 287.204 100.866 286.021 99.9566 284.764C96.0419 279.354 96.7496 272.475 101.086 269.31Z" fill="white" stroke="#25316D" stroke-width="2"/>
<path d="M123.968 288.047C122.715 286.637 120.02 283.816 119.268 283.816" stroke="#25316D" stroke-width="2"/>
<path d="M183.5 271.5C189.5 285 199 313.037 175 310.5C161.507 309.074 164.795 300.54 168 298.5C173.5 295 175.854 297.358 178 301C181.626 307.153 175.775 315.065 161.5 312.5C138.504 308.368 149 303.5 139.5 296C136.34 293.505 128.761 291.64 124.5 289.5" stroke="#303030" stroke-width="2" stroke-linecap="round"/>
<path d="M120.808 278.92L120.803 278.923C120.513 279.097 120.127 279.027 119.912 278.749C118.987 277.534 117.453 275.621 115.638 273.729C113.833 271.849 111.696 269.932 109.563 268.768L108.562 270.481C108.554 270.494 108.554 270.494 108.554 270.493L108.554 270.494L108.555 270.495L108.57 270.504C108.584 270.513 108.606 270.527 108.636 270.547C108.696 270.587 108.786 270.648 108.901 270.73C109.131 270.894 109.459 271.139 109.837 271.456C110.6 272.095 111.547 273.01 112.332 274.131C113.117 275.253 113.71 276.541 113.831 277.94C113.948 279.307 113.622 280.863 112.439 282.575C111.734 283.408 110.493 283.843 109.935 284.026L109.823 284.063L109.723 284.124L109.723 284.124L109.722 284.124L109.721 284.126L109.712 284.131L109.676 284.152C109.664 284.16 109.649 284.169 109.631 284.179C109.604 284.196 109.571 284.216 109.532 284.239C109.406 284.313 109.222 284.42 108.995 284.547C108.54 284.801 107.921 285.132 107.255 285.442C106.583 285.755 105.892 286.033 105.289 286.196C104.632 286.375 104.283 286.358 104.17 286.317L103.528 286.084L103.082 286.593L103.082 286.593L103.081 286.594C103.081 286.594 103.08 286.595 103.079 286.596C103.077 286.598 103.073 286.602 103.068 286.608C103.064 286.612 103.059 286.617 103.054 286.623C103.028 286.649 102.986 286.69 102.93 286.742C102.815 286.846 102.647 286.984 102.439 287.115C102.019 287.379 101.515 287.567 100.983 287.505C100.98 287.502 100.878 287.465 100.66 287.294C100.42 287.107 100.129 286.83 99.7973 286.474C99.1366 285.764 98.3925 284.822 97.6846 283.864C96.9801 282.91 96.3266 281.962 95.8483 281.25C95.6094 280.895 95.415 280.6 95.2806 280.394C95.2134 280.291 95.1613 280.211 95.1261 280.156L95.0864 280.094L95.0766 280.079L95.0742 280.075L95.0737 280.074L95.0736 280.074L95.0736 280.074L94.8824 279.775L94.545 279.663L94.545 279.663L94.5448 279.663L94.5441 279.663L94.5392 279.661L94.5172 279.654C94.4971 279.647 94.4664 279.636 94.4258 279.622C94.3446 279.594 94.2236 279.552 94.0684 279.496C93.7579 279.384 93.3108 279.218 92.7704 279.002C91.6874 278.569 90.2398 277.942 88.7692 277.16C87.2924 276.375 85.8278 275.452 84.6888 274.438C83.5375 273.414 82.8301 272.395 82.65 271.429L82.6477 271.414C82.6449 271.394 82.6404 271.361 82.6351 271.316C82.6243 271.227 82.6099 271.091 82.5971 270.914C82.5715 270.559 82.5526 270.045 82.5824 269.424C82.6421 268.176 82.8963 266.529 83.6588 264.883C84.416 263.249 85.6804 261.601 87.796 260.33C89.8849 259.074 92.8591 258.153 97.0987 258.029C97.1058 258.032 97.1131 258.035 97.1206 258.038C97.2617 258.098 97.4714 258.187 97.7413 258.306C98.281 258.544 99.0609 258.9 100.013 259.367C101.92 260.302 104.511 261.68 107.251 263.452C112.775 267.025 118.717 272.081 121.056 278.19C121.151 278.438 121.066 278.744 120.808 278.92Z" fill="white" stroke="#25316D" stroke-width="2"/>
<path fill-rule="evenodd" clip-rule="evenodd" d="M113.5 148C131 187.5 99.0001 222.5 99.0001 222.5C99.0001 222.5 97.9903 229.121 97.5001 232C95.6668 242.769 100.5 256 100.5 256C100.5 256 95.5001 262 85.3041 271.186C85.0957 271.618 81.3041 273.186 80.3041 272.186C80.3041 272.186 80.3565 263.224 78.5001 257C70.5093 230.207 74.5001 215 74.5001 215C80.6107 200.899 89.4428 179.901 96.0001 165.5C101.966 152.389 105.62 157.078 113.5 148Z" fill="#58B9FD"/>
<path d="M90.5 178.5C92.5 175 94.3416 169.693 95.5 166.5C96.9673 162.4 101.663 157.478 104.5 154.1" stroke="#25316D" stroke-width="2" stroke-miterlimit="1.5" stroke-linecap="round" stroke-linejoin="round"/>
<path d="M131.86 174.749C134.899 189.083 134.443 205.364 129.774 219.305M141.362 172.735C143.245 179.165 143.499 185.841 143.477 192.502C143.484 201.041 142.676 209.701 139.767 217.795" stroke="#25316D" stroke-width="2" stroke-miterlimit="1.5" stroke-linecap="round" stroke-linejoin="round"/>
<path d="M82.4999 218C84.5843 227.38 92.5869 219.09 97.9999 223M80.5 258.5C84 256.5 83.7188 251.926 96.5 250.5" stroke="#25316D" stroke-width="2" stroke-miterlimit="1.5" stroke-linecap="round" stroke-linejoin="round"/>
<path d="M223.5 132C229.1 138.4 226.833 146.333 225 149.5C220.5 144 203 141 201 140C199.574 139.287 194.337 136.139 191.091 134.165C192.185 135.388 190.681 137.755 179 141C164.6 145 156 137.667 153.5 133.5L143 139L124 143.5C123.667 144.5 121.7 145.9 116.5 143.5C110 140.5 111.5 132 113 128.5C114.5 125 132 112.5 137.5 108C141.9 104.4 137.667 87.1667 135 79C134.667 70.8334 138.8 52.2001 158 43.0001C182 31.5001 201.5 46.0001 202 46.5001C202.5 47.0001 202.5 49.0001 208 60.0001C212.053 68.1057 211.892 73.4398 211.19 75.5336C211.588 76.0974 212.42 77.6427 214 81C218 89.5 214 93 210 97.5C206 102 209 102.5 208 105C207 107.5 207 113.5 209 117.5C211 121.5 216.5 124 223.5 132Z" fill="white"/>
<path fill-rule="evenodd" clip-rule="evenodd" d="M181.935 146.275C181.505 146.525 181.076 146.835 180.733 147.199C178.701 149.271 179.988 152.444 180.846 154.751C181.048 155.361 181.276 155.973 181.505 156.575C181.792 157.289 182.105 157.995 182.421 158.696C183.165 160.32 183.966 162.998 186.285 162.585C188.348 162.213 187.146 159.793 186.487 158.762C184.827 156.239 183.509 153.331 183.023 150.337C182.793 148.928 182.909 147.266 184.367 146.589" fill="#DAE8F1"/>
<path fill-rule="evenodd" clip-rule="evenodd" d="M184.024 161.011C180.991 165.506 179.96 170.613 180.303 175.954C180.417 177.952 180.619 180.036 181.276 181.938C182.106 184.334 182.193 186.681 184.024 188.463C184.969 189.382 188.232 189.734 188.805 188.463C189.692 186.484 187.859 184.005 187.203 182.207C186.143 179.286 185.885 176.095 186.257 173.015C186.745 168.691 190.209 164.326 187.174 160.165" fill="#DAE8F1"/>
<path fill-rule="evenodd" clip-rule="evenodd" d="M227.814 151.541C227.814 151.541 216.204 141.4 193.988 139.09C193.988 139.09 192.871 135.366 190.123 134.355C190.123 134.355 184.998 141.772 173.776 142.407C162.527 143.044 157.001 136.661 154.11 134.033C154.11 134.033 152.164 134.42 150.789 135.768L149.902 136.574C149.902 136.574 127.173 142.086 120.359 144.62C113.546 147.15 112 148.759 112 148.759V197C112 197 118.692 217.429 120.359 231C122.074 244.954 122 260 122 260L162 264.5L184.597 189.362C184.597 189.362 179.988 182.439 179.988 175.729C179.96 169.015 182.764 163.224 183.938 160.393C183.938 160.393 179.016 152.032 179.846 148.145C180.676 144.256 186.086 146.587 188.72 148.442C191.325 150.295 195.474 154.497 195.474 154.497C195.474 154.497 203.061 150.329 211.666 151.946C220.26 153.563 224.665 155.418 224.665 155.418L227.814 151.541ZM256 189.362C256 189.362 250.117 170.018 235.97 158.292L234.922 163.173C234.922 163.173 238.449 167.333 238.298 173.498C238.146 179.664 236.274 184.865 231.874 189.362H256Z" fill="#58B9FD"/>
<path d="M185.771 47.396C186.716 47.9777 187.518 48.7018 188.234 49.5479C192.613 54.6551 190.237 62.2376 185.341 66.0024M172.458 49.5682C176.353 53.7073 176.925 60.8281 172.402 64.7373" stroke="#25316D" stroke-width="2" stroke-miterlimit="1.5" stroke-linecap="round" stroke-linejoin="round"/>
<path d="M202.259 66.6126C203.291 65.8275 204.177 64.9387 204.95 63.9075C208.585 58.9895 206.698 52.6477 203.061 48.2625C199.31 43.7574 194.187 41.4062 188.518 40.3811C186.171 39.958 182.852 39.7546 179.931 39.8319M208.386 60.4783C211.943 64.896 212.785 71.0507 210.885 76.3368M163.041 54.106C161.896 57.34 161.695 60.7753 162.354 64.1374C163.07 67.9469 164.729 71.3476 164.559 75.3361C164.414 78.5375 163.041 81.3728 161.038 83.8115M178.957 78.0026C176.353 76.3572 173.347 75.9585 170.628 77.5775M199.969 78.7165C197.25 77.4311 193.9 76.9694 191.181 78.5579M186.887 81.2061C185.427 84.9566 185.543 89.5716 186.83 93.373C187.145 94.2985 187.546 95.2157 188.061 96.0517C188.175 96.2734 188.805 96.8571 188.834 97.0849C188.862 97.1744 187.688 97.4571 187.546 97.4897C186.143 97.8538 184.711 98.1182 183.224 98.1019M186.773 107.832C183.165 108.656 178.585 107.846 176.782 104.181M208.272 104.757C207.613 106.589 207.184 108.465 207.098 110.407C206.754 119.603 215.417 123.544 221.165 128.979C225.273 132.86 227.37 138.119 226.842 143.749C226.675 145.535 226.309 147.313 225.548 148.95M203.862 116.031C204.32 119.104 205.294 122.031 207.383 124.388C210.338 127.683 214.485 129.402 216.698 133.415M217.929 135.754C218.439 136.669 218.852 137.67 219.08 138.695M160.922 41.5323C138.107 48.9643 134.757 67.9754 135.931 83.5674C136.533 91.4489 140.483 99.845 137.65 107.663C136.332 111.235 132.839 113.82 129.805 115.864C123.88 119.867 116.782 122.757 112.974 129.225M235.026 163.611C240.058 170.186 239.517 181.357 233.393 187.07M235.172 161.969C236.308 158.497 237.201 154.787 237.55 151.143C237.671 149.902 237.762 147.862 236.234 147.384C234.381 146.804 232.569 147.579 231.099 148.714C228.776 150.502 226.939 152.819 224.765 154.767M224.665 155.418C222.894 154.442 220.982 153.921 219.052 153.347C211.518 151.114 202.947 151.196 195.647 154.295M194.215 153.107C191.638 150.488 188.518 147.815 185.026 146.579C183.537 146.06 181.534 145.787 180.389 147.091C179.386 148.238 179.701 150.079 180.045 151.415C180.875 154.582 182.278 157.578 183.938 160.393M183.252 162.632C178.957 169.588 179.073 179.841 183.309 186.797M192.155 118.736C191.382 124.012 190.723 129.274 189.808 134.525M157.145 108.975C156.171 117.168 154.883 125.308 153.795 133.484M188.433 136.627C180.102 143.096 169.253 144.543 160.064 139.173C157.802 137.853 155.628 136.201 154.11 134.033" stroke="#25316D" stroke-width="2" stroke-miterlimit="1.5" stroke-linecap="round" stroke-linejoin="round"/>
<path d="M192.755 136.462C195.074 139.057 195.761 143.554 193.385 146.367C192.297 147.634 190.751 148.313 189.149 148.659M178.499 153.587C174.006 158.074 165.016 156.768 162.126 151.069M151.906 134.883C147.154 137.908 144.893 144.53 148.842 149.135C149.587 149.995 150.474 150.724 151.448 151.303C154.653 153.217 158.231 152.863 161.638 151.871M139.596 143.29C132.038 144.858 124.94 147.866 118.384 151.962M133.299 150.781C131.524 151.275 129.29 151.696 127.773 152.841" stroke="#25316D" stroke-width="2" stroke-miterlimit="1.5" stroke-linecap="round" stroke-linejoin="round"/>
<path d="M153.48 138.093C155.827 141.262 159.378 143.709 163.127 144.913C164.329 145.295 165.59 145.696 166.849 145.736M214.101 179.046C213.798 180.008 213.263 180.995 212.336 181.477C210.629 182.363 209.13 180.635 209.016 179.075M203.909 179.046C204.212 180.008 204.747 180.995 205.675 181.477C207.381 182.363 208.882 180.635 208.996 179.075M206.468 70.949C206.468 83.2156 205.351 95.4903 203.348 107.771C203.09 109.24 202.374 110.592 201.314 111.619C195.159 117.41 188.175 120.493 180.56 121.582C179.988 121.659 179.417 121.612 178.872 121.447C170.943 119.009 163.7 114.723 157.145 108.684M208.156 78.6881C209.846 80.7484 210.456 83.3966 210.633 85.996C210.798 88.4367 210.542 91.0076 209.273 93.1574C208.272 94.8537 206.726 96.1412 205.093 97.1968M206.84 74.6283C208.3 75.3016 209.702 76.1172 210.859 77.2826C213.404 79.8718 214.673 84.1085 214.878 87.6617" stroke="#25316D" stroke-width="2" stroke-miterlimit="1.5" stroke-linecap="round" stroke-linejoin="round"/>
<path d="M214.223 91.3166C212.59 96.0089 209.244 99.5438 204.349 100.746M154.883 77.614C161.496 81.6188 163.3 91.2657 160.981 98.1587C160.322 100.119 159.435 102.041 158.003 103.561" stroke="#25316D" stroke-width="2" stroke-miterlimit="1.5" stroke-linecap="round" stroke-linejoin="round"/>
<path d="M149.988 77.3905C154.568 79.9146 157.66 85.8272 157.861 91.0259M158.117 94.0931C157.918 98.108 157.717 102.349 155.199 105.682M149.414 77.3213C143.89 79.7722 141.342 85.4367 141.429 91.2781M154.827 106.083C148.241 105.835 142.631 100.858 141.744 94.2782M176.726 39.3723C163.013 46.3975 155.455 58.2248 155.199 75.7471" stroke="#25316D" stroke-width="2" stroke-miterlimit="1.5" stroke-linecap="round" stroke-linejoin="round"/>
<path d="M165.236 40.6638C153.27 47.811 148.517 59.2559 148.289 75.747M173.118 39C170.026 39.2197 167.622 40.0617 165.246 40.6617" stroke="#25316D" stroke-width="2" stroke-miterlimit="1.5" stroke-linecap="round" stroke-linejoin="round"/>
<path d="M195.668 87.6677C194.561 87.6677 193.664 86.7707 193.664 85.6643C193.664 84.5558 194.561 83.6588 195.668 83.6588C196.774 83.6588 197.671 84.5558 197.671 85.6643C197.671 86.7707 196.774 87.6677 195.668 87.6677ZM175.938 87.6677C174.832 87.6677 173.935 86.7707 173.935 85.6643C173.935 84.5558 174.832 83.6588 175.938 83.6588C177.045 83.6588 177.942 84.5558 177.942 85.6643C177.942 86.7707 177.045 87.6677 175.938 87.6677ZM223.762 174.405C222.444 174.405 221.376 173.337 221.376 172.019C221.376 170.701 222.444 169.631 223.762 169.631C225.08 169.631 226.15 170.701 226.15 172.019C226.15 173.337 225.08 174.405 223.762 174.405ZM196.32 174.405C195.002 174.405 193.935 173.337 193.935 172.019C193.935 170.701 195.002 169.631 196.32 169.631C197.638 169.631 198.706 170.701 198.706 172.019C198.706 173.337 197.638 174.405 196.32 174.405Z" fill="#25316D"/>
<path d="M178.973 121.49C182.785 121.988 192.115 118.433 192.115 118.433L191.742 122.342C185.793 125.72 178.973 126.052 178.973 126.052C167.504 122.401 160.005 111.534 160.005 111.534C163.196 113.663 175.192 120.988 178.973 121.49Z" fill="#25316D"/>
<path d="M113 138.212C113.933 140.505 116.089 143.081 118.668 143.53" stroke="#25316D" stroke-width="2" stroke-miterlimit="1.5" stroke-linecap="round" stroke-linejoin="round"/>
<path d="M215.2 283.488L215.2 283.488L215.206 283.5C215.395 283.885 215.352 284.349 215.076 284.711C215.075 284.712 215.075 284.713 215.074 284.713L207.094 295.019H176.97L176.866 294.889L176.223 294.078C175.678 293.392 174.92 292.436 174.068 291.364C172.365 289.218 170.287 286.601 168.788 284.718L168.785 284.714C168.52 284.384 168.458 283.908 168.653 283.492C168.748 283.298 168.894 283.135 169.075 283.021C169.257 282.906 169.467 282.845 169.681 282.843C169.682 282.843 169.683 282.843 169.683 282.843L214.181 282.843H214.183C214.395 282.843 214.603 282.903 214.783 283.017C214.963 283.131 215.108 283.294 215.2 283.488ZM272.569 193.025L272.568 193.027C269.999 207.635 261.517 255.874 259.323 268.361C259.105 269.597 258.033 270.495 256.787 270.495H127.441C126.212 270.495 125.146 269.613 124.91 268.388C123.759 262.364 120.984 247.856 118.113 232.85C115.082 217.005 111.944 200.605 110.501 193.052L110.501 193.051C110.358 192.307 110.553 191.528 111.047 190.917C111.541 190.325 112.272 189.977 113.032 189.977L270.032 189.977L270.033 189.977C270.409 189.976 270.779 190.058 271.12 190.217C271.46 190.377 271.762 190.609 272.003 190.899L272.004 190.9C272.495 191.489 272.702 192.274 272.569 193.025Z" fill="white" stroke="#25316D" stroke-width="2"/>
<path d="M192.091 227.496C200.24 227.496 206.858 234.136 206.858 242.323V295.024H177.323V242.323C177.323 234.136 183.939 227.496 192.091 227.496Z" fill="white" stroke="#25316D" stroke-width="2"/>
<path fill-rule="evenodd" clip-rule="evenodd" d="M198.87 242.265C198.87 238.504 195.834 235.457 192.091 235.457C188.348 235.457 185.314 238.504 185.314 242.265V254.44C185.314 258.194 188.348 261.24 192.091 261.24C195.834 261.24 198.87 258.194 198.87 254.44V242.265Z" fill="#58B9FD"/>
<path d="M130 267.011L116.463 197.382C116.223 196.147 117.169 195 118.426 195H235" stroke="#25316D" stroke-width="2"/>
<path d="M235.332 249.983C235.692 249.983 235.986 250.274 235.986 250.639V256.876C235.986 257.242 235.692 257.533 235.332 257.533H232.875C232.511 257.533 232.221 257.242 232.221 256.876V250.639C232.221 250.274 232.511 249.983 232.875 249.983H235.332Z" fill="#686868"/>
<path d="M244.646 249.983C245.005 249.983 245.3 250.274 245.3 250.639V256.876C245.3 257.242 245.005 257.533 244.646 257.533H242.188C241.825 257.533 241.535 257.242 241.535 256.876V250.639C241.535 250.274 241.825 249.983 242.188 249.983H244.646Z" fill="#686868"/>
<ellipse cx="437.696" cy="171.155" rx="66.6" ry="60.68" fill="white"/>
<path d="M398.231 219.559C389.769 214.032 382.878 206.729 378.13 198.267C373.382 189.805 370.911 180.426 370.92 170.916C370.928 161.405 373.416 152.031 378.179 143.576C382.943 135.12 389.846 127.828 398.318 122.314" stroke="#25316D" stroke-width="2" stroke-linecap="round" stroke-linejoin="round"/>
<path d="M477.163 219.559C485.626 214.032 492.516 206.729 497.264 198.267C502.012 189.805 504.483 180.426 504.474 170.916C504.466 161.405 501.979 152.031 497.215 143.576C492.452 135.12 485.548 127.828 477.076 122.314" stroke="#25316D" stroke-width="2" stroke-linecap="round" stroke-linejoin="round"/>
<path d="M446.099 90.4011L445.476 89.6194L446.099 90.4011C446.652 89.9607 447.272 89.8246 447.766 89.9869C449.338 90.5084 450.857 91.1508 452.306 91.904L452.307 91.9042C452.745 92.1317 453.075 92.637 453.17 93.3056L453.17 93.3066C453.991 99.01 458.501 103.517 464.204 104.338C464.873 104.436 465.376 104.765 465.604 105.204L465.604 105.205C466.358 106.655 467 108.172 467.522 109.743C467.684 110.237 467.548 110.857 467.107 111.41L467.889 112.033L467.107 111.41C465.334 113.637 464.275 116.459 464.275 119.526C464.275 122.591 465.334 125.413 467.107 127.64C467.55 128.199 467.685 128.816 467.522 129.306L467.522 129.307C467 130.881 466.358 132.398 465.604 133.848L465.604 133.848C465.376 134.288 464.873 134.617 464.203 134.715C458.501 135.536 453.991 140.043 453.17 145.746L453.17 145.747C453.075 146.416 452.745 146.921 452.307 147.149L452.306 147.149C450.857 147.902 449.34 148.544 447.767 149.066C447.275 149.228 446.654 149.091 446.099 148.649L446.098 148.649C443.872 146.878 441.05 145.817 437.982 145.817C434.917 145.817 432.095 146.878 429.868 148.652L430.492 149.434L429.868 148.652C429.315 149.092 428.695 149.228 428.201 149.066C426.627 148.544 425.111 147.902 423.661 147.149L423.66 147.149C423.222 146.921 422.893 146.416 422.797 145.747L422.797 145.746C421.973 140.043 417.467 135.536 411.764 134.715C411.093 134.617 410.588 134.287 410.36 133.848L410.36 133.848C409.607 132.398 408.965 130.882 408.443 129.31C408.281 128.816 408.418 128.197 408.861 127.639C410.631 125.413 411.692 122.592 411.692 119.526C411.692 116.458 410.631 113.636 408.86 111.41L408.86 111.41C408.418 110.855 408.282 110.235 408.445 109.744L408.446 109.742C408.964 108.172 409.606 106.656 410.36 105.206C410.59 104.765 411.096 104.436 411.764 104.338C417.466 103.517 421.973 99.0102 422.794 93.3075C422.892 92.637 423.222 92.1316 423.66 91.9042L423.661 91.904C425.111 91.1506 426.627 90.5083 428.201 89.987C428.695 89.8246 429.315 89.9606 429.868 90.4011L429.868 90.4011C432.095 92.1743 434.917 93.2358 437.982 93.2358C441.05 93.2358 443.872 92.1744 446.099 90.4011ZM424.732 119.526C424.732 126.728 430.572 132.567 437.773 132.567C444.975 132.567 450.814 126.728 450.814 119.526C450.814 112.325 444.975 106.485 437.773 106.485C430.572 106.485 424.732 112.325 424.732 119.526Z" fill="white" stroke="#CB2027" stroke-width="2"/>
<circle cx="437.919" cy="119.462" r="12.217" fill="white"/>
<path d="M446.099 192.066L445.476 191.284L446.099 192.066C446.652 191.625 447.272 191.489 447.766 191.651C449.338 192.173 450.857 192.815 452.306 193.569L452.307 193.569C452.745 193.796 453.075 194.302 453.17 194.97L453.17 194.971C453.991 200.675 458.501 205.182 464.204 206.003C464.873 206.1 465.376 206.43 465.604 206.869L465.604 206.869C466.358 208.319 467 209.836 467.522 211.408C467.684 211.901 467.548 212.522 467.107 213.074L467.889 213.697L467.107 213.074C465.334 215.301 464.275 218.123 464.275 221.191C464.275 224.256 465.334 227.078 467.107 229.304C467.55 229.863 467.685 230.481 467.522 230.97L467.522 230.971C467 232.545 466.358 234.062 465.604 235.513L465.604 235.513C465.376 235.952 464.873 236.282 464.203 236.379C458.501 237.2 453.991 241.707 453.17 247.411L453.17 247.412C453.075 248.08 452.745 248.586 452.307 248.813L452.306 248.813C450.857 249.567 449.34 250.209 447.767 250.73C447.275 250.892 446.654 250.756 446.099 250.314L446.098 250.313C443.872 248.543 441.05 247.481 437.982 247.481C434.917 247.481 432.095 248.543 429.868 250.316L430.492 251.098L429.868 250.316C429.315 250.757 428.695 250.893 428.201 250.73C426.627 250.209 425.111 249.567 423.661 248.813L423.66 248.813C423.222 248.586 422.893 248.08 422.797 247.412L422.797 247.41C421.973 241.708 417.467 237.2 411.764 236.379C411.093 236.281 410.588 235.951 410.36 235.513L410.36 235.513C409.607 234.063 408.965 232.546 408.443 230.975C408.281 230.48 408.418 229.862 408.861 229.304C410.631 227.078 411.692 224.256 411.692 221.191C411.692 218.123 410.631 215.301 408.86 213.075L408.86 213.074C408.418 212.519 408.282 211.899 408.445 211.409L408.446 211.407C408.964 209.837 409.606 208.32 410.36 206.87C410.59 206.429 411.096 206.1 411.764 206.003C417.466 205.182 421.973 200.675 422.794 194.972C422.892 194.302 423.222 193.796 423.66 193.569L423.661 193.569C425.111 192.815 426.627 192.173 428.201 191.652C428.695 191.489 429.315 191.625 429.868 192.066L429.868 192.066C432.095 193.839 434.917 194.9 437.982 194.9C441.05 194.9 443.872 193.839 446.099 192.066ZM424.732 221.191C424.732 228.392 430.572 234.232 437.773 234.232C444.975 234.232 450.814 228.392 450.814 221.191C450.814 213.989 444.975 208.15 437.773 208.15C430.572 208.15 424.732 213.989 424.732 221.191Z" fill="white" stroke="#CB2027" stroke-width="2"/>
<circle cx="437.919" cy="221.127" r="12.217" fill="white"/>
<rect width="78.478" height="57.0749" transform="matrix(-1 0 0 1 476.937 142.427)" fill="white"/>
<path d="M466.234 200.502C466.786 200.502 467.234 200.054 467.234 199.502C467.234 198.95 466.786 198.502 466.234 198.502V200.502ZM399.165 152.422C398.774 152.031 398.141 152.031 397.751 152.422L391.387 158.786C390.996 159.176 390.996 159.809 391.387 160.2C391.777 160.59 392.41 160.59 392.801 160.2L398.458 154.543L404.115 160.2C404.505 160.59 405.138 160.59 405.529 160.2C405.919 159.809 405.919 159.176 405.529 158.786L399.165 152.422ZM466.234 198.502H402.025V200.502H466.234V198.502ZM399.458 195.935V153.129H397.458V195.935H399.458ZM402.025 198.502C400.607 198.502 399.458 197.353 399.458 195.935H397.458C397.458 198.457 399.503 200.502 402.025 200.502V198.502Z" fill="#25316D"/>
<path d="M409.16 141.427C408.608 141.427 408.16 141.875 408.16 142.427C408.16 142.98 408.608 143.427 409.16 143.427V141.427ZM476.229 189.508C476.62 189.898 477.253 189.898 477.644 189.508L484.008 183.144C484.398 182.753 484.398 182.12 484.008 181.73C483.617 181.339 482.984 181.339 482.593 181.73L476.937 187.386L471.28 181.73C470.889 181.339 470.256 181.339 469.866 181.73C469.475 182.12 469.475 182.753 469.866 183.144L476.229 189.508ZM409.16 143.427H473.369V141.427H409.16V143.427ZM475.937 145.995V188.801H477.937V145.995H475.937ZM473.369 143.427C474.787 143.427 475.937 144.577 475.937 145.995H477.937C477.937 143.472 475.892 141.427 473.369 141.427V143.427Z" fill="#25316D"/>
<path d="M424.209 174.309H430.34M437.697 181.666V162.047H445.055C446.356 162.047 447.603 162.564 448.523 163.484C449.443 164.403 449.96 165.651 449.96 166.952V169.404C449.96 170.705 449.443 171.953 448.523 172.873C447.603 173.792 446.356 174.309 445.055 174.309H443.828M457.317 162.047V181.666M430.34 181.666V168.178C430.34 166.552 429.694 164.993 428.544 163.843C427.395 162.693 425.835 162.047 424.209 162.047C422.583 162.047 421.023 162.693 419.874 163.843C418.724 164.993 418.078 166.552 418.078 168.178V181.666" stroke="#CB2027" stroke-width="2" stroke-linecap="round" stroke-linejoin="round"/>
<path d="M101.346 43C101.388 45.2331 101.536 47.5089 101.641 49.7422M101.599 57.3863V64M93 53.5215H97.9573M104.803 53.4785C106.531 53.3496 108.263 53.1771 110 53.2202" stroke="#25316D" stroke-width="2" stroke-miterlimit="1.5" stroke-linecap="round" stroke-linejoin="round"/>
</svg>
