<svg width="46" height="47" viewBox="0 0 46 47" fill="none" xmlns="http://www.w3.org/2000/svg">
<mask id="path-1-inside-1_420_1384" fill="white">
<path fill-rule="evenodd" clip-rule="evenodd" d="M7.88019 0.5L25.5048 10.657L25.5155 25.0022L13.3005 31.8341L0 24.169V40.5C0 43.8137 2.68629 46.5 6 46.5H31.499L22.9836 41.5559L22.9839 33.5L29.9834 29.5L46 38.7994V6.5C46 3.18629 43.3137 0.5 40 0.5H7.88019Z"/>
</mask>
<path fill-rule="evenodd" clip-rule="evenodd" d="M7.88019 0.5L25.5048 10.657L25.5155 25.0022L13.3005 31.8341L0 24.169V40.5C0 43.8137 2.68629 46.5 6 46.5H31.499L22.9836 41.5559L22.9839 33.5L29.9834 29.5L46 38.7994V6.5C46 3.18629 43.3137 0.5 40 0.5H7.88019Z" fill="white"/>
<path d="M7.88019 0.5L6.88156 2.23284L0.404266 -1.5H7.88019V0.5ZM25.5048 10.657L26.5034 8.92415L27.5039 9.50074L27.5048 10.6555L25.5048 10.657ZM25.5155 25.0022L27.5155 25.0008L27.5163 26.1747L26.4917 26.7478L25.5155 25.0022ZM13.3005 31.8341L14.2768 33.5796L13.2857 34.1339L12.3019 33.5669L13.3005 31.8341ZM0 24.169H-2V20.7081L0.998631 22.4362L0 24.169ZM31.499 46.5L32.5032 44.7704L38.9269 48.5H31.499V46.5ZM22.9836 41.5559L21.9794 43.2855L20.9836 42.7073L20.9836 41.5558L22.9836 41.5559ZM22.9839 33.5L20.9839 33.5L20.984 32.3394L21.9916 31.7636L22.9839 33.5ZM29.9834 29.5L28.9911 27.7635L29.9913 27.1919L30.9876 27.7704L29.9834 29.5ZM46 38.7994H48V42.2732L44.9958 40.529L46 38.7994ZM8.87882 -1.23284L26.5034 8.92415L24.5062 12.3898L6.88156 2.23284L8.87882 -1.23284ZM27.5048 10.6555L27.5155 25.0008L23.5155 25.0037L23.5048 10.6585L27.5048 10.6555ZM26.4917 26.7478L14.2768 33.5796L12.3242 30.0885L24.5392 23.2567L26.4917 26.7478ZM12.3019 33.5669L-0.998631 25.9019L0.998631 22.4362L14.2991 30.1012L12.3019 33.5669ZM2 24.169V40.5H-2V24.169H2ZM2 40.5C2 42.7091 3.79086 44.5 6 44.5V48.5C1.58173 48.5 -2 44.9183 -2 40.5H2ZM6 44.5H31.499V48.5H6V44.5ZM30.4948 48.2296L21.9794 43.2855L23.9879 39.8263L32.5032 44.7704L30.4948 48.2296ZM20.9836 41.5558L20.9839 33.5L24.9839 33.5001L24.9836 41.556L20.9836 41.5558ZM21.9916 31.7636L28.9911 27.7635L30.9757 31.2364L23.9763 35.2365L21.9916 31.7636ZM30.9876 27.7704L47.0042 37.0698L44.9958 40.529L28.9792 31.2296L30.9876 27.7704ZM44 38.7994V6.5H48V38.7994H44ZM44 6.5C44 4.29086 42.2091 2.5 40 2.5V-1.5C44.4183 -1.5 48 2.08172 48 6.5H44ZM40 2.5H7.88019V-1.5H40V2.5Z" fill="#25316D" mask="url(#path-1-inside-1_420_1384)"/>
</svg>
