<svg width="64" height="64" viewBox="0 0 64 64" fill="none" xmlns="http://www.w3.org/2000/svg">
<path d="M22.4014 48.6127C22.4014 47.5877 23.2323 46.7568 24.2572 46.7568H28.0416C28.0416 46.7568 29.5105 48.9579 31.4808 48.9579C33.451 48.9579 34.9199 46.7568 34.9199 46.7568H38.7043C39.7293 46.7568 40.5602 47.5877 40.5602 48.6127C40.5602 52.9687 37.0289 56.5 32.6728 56.5H30.2887C25.9326 56.5 22.4014 52.9687 22.4014 48.6127Z" fill="white"/>
<path d="M36.708 39.0529C36.708 42.3959 34.3675 45.6561 31.4805 45.6561C28.5934 45.6561 26.2529 42.3959 26.2529 39.0529C26.2529 35.71 27.3535 33 31.4805 33C35.6075 33 36.708 35.71 36.708 39.0529Z" fill="white"/>
<path fill-rule="evenodd" clip-rule="evenodd" d="M36.9096 38.2673C36.9097 42.9048 33.407 45.6561 31.4816 45.6561C29.0049 45.6561 26.0537 42.9048 26.0537 38.2673C26.0537 34.6508 27.9054 33 31.4816 33C35.0579 33 36.9096 34.6508 36.9096 38.2673Z" stroke="#25316D" stroke-width="2" stroke-linecap="round" stroke-linejoin="round"/>
<path d="M27.688 46.7786C25.9717 46.7786 22.9559 45.985 22.7487 48.1323C22.4505 51.2223 22.7488 51.5 22.7488 51.5C22.7488 51.5 25.4948 57 31.4811 57C38.4378 57 40.2133 51.5 40.2133 51.5C40.2133 51.5 40.5115 51.2223 40.2133 48.1323C40.0061 45.985 36.9905 46.7786 35.2743 46.7786" stroke="#25316D" stroke-width="2" stroke-linecap="round" stroke-linejoin="round"/>
<path d="M7.15918 21.5647C7.15918 20.4983 8.02369 19.6338 9.09013 19.6338H11.8823C11.8823 19.6338 13.1124 21.477 14.7623 21.477C16.4122 21.477 17.6423 19.6338 17.6423 19.6338H20.4344C21.5009 19.6338 22.3654 20.4983 22.3654 21.5647V22.1682C22.3654 26.3672 18.9614 29.7713 14.7623 29.7713C10.5632 29.7713 7.15918 26.3672 7.15918 22.1682V21.5647Z" fill="white"/>
<path d="M19.1399 13.1825C19.1399 15.9819 17.18 18.712 14.7623 18.712C12.3447 18.712 10.3848 15.9819 10.3848 13.1825C10.3848 10.3831 11.3064 8.11377 14.7623 8.11377C18.2183 8.11377 19.1399 10.3831 19.1399 13.1825Z" fill="white"/>
<path fill-rule="evenodd" clip-rule="evenodd" d="M19.3085 12.5246C19.3086 16.4081 16.3755 18.712 14.7631 18.712C12.6891 18.712 10.2178 16.4081 10.2178 12.5246C10.2178 9.49615 11.7684 8.11377 14.7631 8.11377C17.7579 8.11377 19.3085 9.49615 19.3085 12.5246Z" stroke="#25316D" stroke-width="2" stroke-linecap="round" stroke-linejoin="round"/>
<path d="M11.586 19.6518C10.1488 19.6518 7.62336 18.9872 7.44983 20.7854C7.20012 23.373 7.44991 25.2803 7.44991 25.2803C7.44991 25.2803 9.74943 29.886 14.7624 29.886C20.5879 29.886 22.0747 25.2803 22.0747 25.2803C22.0747 25.2803 22.3245 23.373 22.0747 20.7854C21.9012 18.9872 19.3759 19.6518 17.9388 19.6518" stroke="#25316D" stroke-width="2" stroke-linecap="round" stroke-linejoin="round"/>
<path d="M40.7939 21.5647C40.7939 20.4983 41.6585 19.6338 42.7249 19.6338H45.5171C45.5171 19.6338 46.7472 21.477 48.3971 21.477C50.0469 21.477 51.277 19.6338 51.277 19.6338H54.0692C55.1356 19.6338 56.0002 20.4983 56.0002 21.5647V22.1682C56.0002 26.3672 52.5961 29.7713 48.3971 29.7713C44.198 29.7713 40.7939 26.3672 40.7939 22.1682V21.5647Z" fill="white"/>
<path d="M52.7746 13.1825C52.7746 15.9819 50.8147 18.712 48.3971 18.712C45.9794 18.712 44.0195 15.9819 44.0195 13.1825C44.0195 10.3831 44.9411 8.11377 48.3971 8.11377C51.853 8.11377 52.7746 10.3831 52.7746 13.1825Z" fill="white"/>
<path fill-rule="evenodd" clip-rule="evenodd" d="M52.9433 12.5246C52.9434 16.4081 50.0102 18.712 48.3979 18.712C46.3239 18.712 43.8525 16.4081 43.8525 12.5246C43.8526 9.49615 45.4031 8.11377 48.3979 8.11377C51.3926 8.11377 52.9433 9.49615 52.9433 12.5246Z" stroke="#25316D" stroke-width="2" stroke-linecap="round" stroke-linejoin="round"/>
<path d="M45.2207 19.6518C43.7836 19.6518 41.2581 18.9872 41.0846 20.7854C40.8349 23.373 41.0847 25.2803 41.0847 25.2803C41.0847 25.2803 43.3842 29.886 48.3971 29.886C54.2227 29.886 55.7095 25.2803 55.7095 25.2803C55.7095 25.2803 55.9592 23.373 55.7095 20.7854C55.536 18.9872 53.0107 19.6518 51.5736 19.6518" stroke="#25316D" stroke-width="2" stroke-linecap="round" stroke-linejoin="round"/>
<path d="M19.947 49.5561V49.5561C16.5172 49.5251 13.7588 46.7254 13.7787 43.2955L13.8324 34.0337M13.8324 34.0337L17.5306 37.7871M13.8324 34.0337L10.0606 38.4136" stroke="#CB2027" stroke-width="2" stroke-linecap="round" stroke-linejoin="round"/>
<path d="M43.1399 49.5561V49.5561C46.5697 49.5251 49.3281 46.7254 49.3082 43.2955L49.2545 34.0337M49.2545 34.0337L45.5563 37.7871M49.2545 34.0337L53.0263 38.4136" stroke="#CB2027" stroke-width="2" stroke-linecap="round" stroke-linejoin="round"/>
</svg>
