<svg width="64" height="64" viewBox="0 0 64 64" fill="none" xmlns="http://www.w3.org/2000/svg">
<path d="M31.9546 19.3638L44.1184 61.6365H19.7909L31.9546 19.3638Z" fill="white"/>
<path d="M19.9111 61.0908L23.3319 49.318M44.1839 61.0908L43.1649 57.6362M34.4101 27.9544L31.9566 19.6362L28.9848 29.8635M34.4101 27.9544L28.9848 29.8635M34.4101 27.9544L37.4401 38.2271M28.9848 29.8635L37.4401 38.2271M28.9848 29.8635L23.3319 49.318M37.4401 38.2271L23.3319 49.318M37.4401 38.2271L43.1649 57.6362M23.3319 49.318L43.1649 57.6362" stroke="#25316D" stroke-width="2" stroke-linecap="round" stroke-dasharray="0.36 0.27"/>
<circle cx="32.0003" cy="17.8181" r="3.27273" fill="#303030"/>
<path d="M38.1276 22.8896C38.7798 22.3734 39.3211 21.6829 39.6978 20.8692C40.0746 20.0554 40.2731 19.1475 40.2725 18.2225C40.2718 17.2975 40.0719 16.3899 39.694 15.5768C39.3161 14.7639 38.7738 14.0745 38.1208 13.5595" stroke="#CB2027" stroke-width="2" stroke-linecap="round" stroke-linejoin="round"/>
<path d="M43.3969 27.0404C44.641 26.0534 45.665 24.74 46.3746 23.2035C47.0844 21.6668 47.4564 19.9571 47.4551 18.2186C47.4538 16.4801 47.0793 14.7711 46.3673 13.2358C45.6554 11.7006 44.6295 10.3892 43.3841 9.40453" stroke="#CB2027" stroke-width="2" stroke-linecap="round" stroke-linejoin="round"/>
<path d="M48.2648 32.8198C50.3374 31.1766 52.0367 28.9956 53.2121 26.4525C54.3876 23.9092 55.0021 21.0833 55 18.2124C54.9979 15.3414 54.3792 12.5167 53.1999 9.97562C52.0208 7.43475 50.3183 5.25689 48.2434 3.61759" stroke="#CB2027" stroke-width="2" stroke-linecap="round" stroke-linejoin="round"/>
<path d="M25.8724 22.8896C25.2202 22.3734 24.6789 21.6829 24.3022 20.8692C23.9254 20.0554 23.7269 19.1475 23.7275 18.2225C23.7282 17.2975 23.9281 16.3899 24.306 15.5768C24.6839 14.7639 25.2262 14.0745 25.8792 13.5595" stroke="#CB2027" stroke-width="2" stroke-linecap="round" stroke-linejoin="round"/>
<path d="M20.6031 27.0404C19.359 26.0534 18.335 24.74 17.6254 23.2035C16.9156 21.6668 16.5436 19.9571 16.5449 18.2186C16.5462 16.4801 16.9207 14.7711 17.6327 13.2358C18.3446 11.7006 19.3705 10.3892 20.6159 9.40453" stroke="#CB2027" stroke-width="2" stroke-linecap="round" stroke-linejoin="round"/>
<path d="M15.7352 32.8198C13.6626 31.1766 11.9633 28.9956 10.7879 26.4525C9.61244 23.9092 8.99789 21.0833 9.00001 18.2124C9.00213 15.3414 9.62085 12.5167 10.8001 9.97562C11.9792 7.43475 13.6817 5.25689 15.7566 3.61759" stroke="#CB2027" stroke-width="2" stroke-linecap="round" stroke-linejoin="round"/>
</svg>
