<svg width="64" height="64" viewBox="0 0 64 64" fill="none" xmlns="http://www.w3.org/2000/svg">
<path d="M38.4951 31C40.8951 29 52.8284 25.1666 58.4951 23.5C57.4951 22.5 50.9951 23 48.4951 23.5C46.4951 23.9 39.3284 29.3333 35.9951 32C35.8284 32.5 36.0951 33 38.4951 31Z" fill="white"/>
<path d="M28.4951 32C22.4978 26.9972 7.99503 24.5 7.99565 23.5C8.99567 22.5 15.4956 23 17.9956 23.5C19.9956 23.9 27.1618 29.3333 30.4952 32C30.6618 32.5 28.9946 32.4167 28.4951 32Z" fill="white"/>
<path d="M59.4949 16.4504C60.3282 16.9504 61.4949 22.1504 59.4949 22.9504C56.9949 23.9504 56.4951 22.4505 57.4951 20.9505C58.4951 19.4505 60.4951 19.9504 60.4951 20.4504C60.4951 20.9504 55.4951 22.9505 51.9951 22.9504C43.6993 22.9504 38.9951 32.4504 32.9951 32.4504C26.9951 32.4504 22.8966 23.8129 14.9951 22.9505C12.6658 22.6962 8.99512 22.9504 8.99512 22.9504M8.99512 22.9504C8.99512 23.9504 7.79512 24.9504 6.99512 24.9504C5.99512 24.9504 5.99512 23.4505 5.99512 22.9505C5.99512 22.4505 6.99512 20.4504 8.99512 22.9504ZM8.99512 22.9504C10.9951 25.4504 5.99512 18.4504 3.49512 20.4504" stroke="#25316D" stroke-width="2" stroke-linecap="round"/>
<circle cx="32.9951" cy="23.9504" r="7" fill="#CB2027"/>
<path d="M7.99512 17.5V54" stroke="#25316D" stroke-width="2" stroke-linecap="round" stroke-linejoin="round"/>
<path d="M57.9951 17.5V54" stroke="#25316D" stroke-width="2" stroke-linecap="round" stroke-linejoin="round"/>
</svg>
