<svg width="64" height="64" viewBox="0 0 64 64" fill="none" xmlns="http://www.w3.org/2000/svg">
<rect x="9" y="8" width="36" height="48" rx="2" fill="white"/>
<path d="M40.09 44.2472C45.7867 44.2472 50.4047 39.6292 50.4047 33.9326C50.4047 28.2359 45.7867 23.6179 40.09 23.6179C34.3934 23.6179 29.7754 28.2359 29.7754 33.9326C29.7754 39.6292 34.3934 44.2472 40.09 44.2472Z" fill="white" stroke="#CB2027" stroke-width="2"/>
<path d="M41.0319 28.0258C38.8335 26.3546 35.6967 26.782 34.0256 28.9804C32.3544 31.1787 32.7818 34.3156 34.9802 35.9867C37.1785 37.6578 34.3444 32.6914 36.0155 30.4931C37.6866 28.2947 43.2303 29.6969 41.0319 28.0258Z" fill="#CB2027"/>
<path d="M50.4043 44.2473L57.8649 51.2106C58.5064 51.8092 59.4996 51.8161 60.1492 51.2263V51.2263C60.8775 50.5652 60.8877 49.4237 60.1715 48.7496L53 42" stroke="#25316D" stroke-width="2" stroke-linecap="round"/>
<path d="M48 18.5V8C48 6.34315 46.6569 5 45 5H9C7.34315 5 6 6.34315 6 8V56C6 57.6569 7.34315 59 9 59H45C46.6569 59 48 57.6569 48 56V54.2M16.2162 16.4H38.9189" stroke="#25316D" stroke-width="2" stroke-linecap="round"/>
<path d="M16 29H22" stroke="#25316D" stroke-width="2" stroke-linecap="round"/>
<path d="M16 41H21" stroke="#25316D" stroke-width="2" stroke-linecap="round"/>
<rect x="15" y="47" width="16" height="6" rx="2" fill="#CB2027"/>
</svg>
