<svg width="197" height="256" viewBox="0 0 197 256" fill="none" xmlns="http://www.w3.org/2000/svg">
<path d="M85.6087 235.754C87.6555 242.07 89.4588 247.681 90.5431 251.024C91.1829 252.995 93.0258 254.331 95.1066 254.331H125.013C127.094 254.331 128.937 252.995 129.574 251.024C132.071 243.307 138.384 223.762 142.67 210.496M76.2607 206.79C78.1773 212.735 80.7451 220.687 83.2363 228.405" stroke="#02558D" stroke-width="2" stroke-miterlimit="1.5" stroke-linecap="round" stroke-linejoin="round"/>
<path d="M93.2503 189.623H72.4284C71.0157 189.623 69.8721 190.786 69.8721 192.168V204.253C69.8721 205.677 71.0157 206.801 72.4284 206.801H147.687C149.097 206.801 150.241 205.677 150.241 204.253V192.168C150.241 190.786 149.097 189.623 147.687 189.623H101.395M125.594 42.6523C125.594 42.6523 102.836 109.166 110.058 189.62" stroke="#02558D" stroke-width="2" stroke-miterlimit="1.5" stroke-linecap="round" stroke-linejoin="round"/>
<path d="M136.331 95.2693C136.331 95.2693 116.91 117.756 108.647 145.768M133.05 145.768C133.05 145.768 114.136 169.379 110.062 189.623M88.1787 83.7868C88.1787 83.7868 105.385 99.9291 110.408 120.519" stroke="#02558D" stroke-width="2" stroke-miterlimit="1.5" stroke-linecap="round" stroke-linejoin="round"/>
<path d="M125.001 42.2219C122.578 30.7395 125.508 19.3872 131.345 9.4165C132.679 7.12907 134.154 4.97185 135.767 2.85711C135.968 2.59949 136.965 1 137.248 1C137.871 1.0453 138.729 2.89959 138.932 3.33273C140.15 6.13823 140.192 9.46178 139.918 12.44C139.227 19.9053 136.668 27.2432 133.217 33.8903C131.716 36.7836 130.202 39.7618 128.073 42.2644M117.731 64.6235C110.962 59.7032 105.711 53.0985 103.97 44.8122C103.497 42.5248 103.279 40.2374 103.358 37.9047C103.361 37.732 103.44 35.7927 103.5 35.7927C106.336 35.9654 108.862 38.9408 110.407 41.0556C114.654 46.927 116.774 54.3498 117.87 61.4301M116.885 79.2115C119.903 72.6521 125.899 68.6802 132.781 67.0411C134.375 66.6504 135.968 66.3928 137.613 66.3051C138.233 66.2626 139.006 66.0475 139.411 66.608C141.293 69.2408 138.876 73.0824 137.081 74.982C132.472 79.9447 125.021 82.1472 118.408 81.9321M98.07 94.7932C96.4394 88.8368 96.2894 82.7502 98.5966 76.9665C99.2364 75.3699 99.9668 73.558 101.088 72.219C101.119 72.1765 101.507 72.3917 101.549 72.4341C101.991 72.6946 102.382 73.0824 102.693 73.4703C103.99 75.1972 104.454 77.3572 104.805 79.4266C105.787 85.2981 104.813 91.4697 101.238 96.2597M100.573 102.001C94.8286 100.662 88.507 100.707 83.3178 103.858C82.0439 104.634 80.9001 105.582 79.864 106.664C79.7536 106.791 78.9014 107.527 78.9411 107.654C79.0713 108.13 79.7168 108.56 80.099 108.821C81.4918 109.769 83.2357 110.072 84.8805 110.072C90.3924 110.202 96.7621 108.388 101.028 104.764M87.9068 82.6228C87.0773 79.8173 86.1545 76.9694 84.7333 74.4215C82.3609 70.1495 78.5788 66.4778 74.2615 64.2356C72.5176 63.2844 70.6095 62.5936 68.6477 62.3785C68.2202 62.336 67.0453 61.9906 66.6886 62.2935C66.0347 62.8541 65.9695 63.9327 66.0092 64.7112C66.1139 66.6533 66.9321 68.768 67.9654 70.4071C71.9486 76.7514 78.8675 80.5081 85.6449 83.2711M136.351 94.1449C136.438 90.5637 137.409 87.0675 138.881 83.8288C139.861 81.6292 141.061 79.5569 142.454 77.6148C144.167 75.2397 146.236 73.0824 148.696 71.4858C149.135 71.1829 150.514 70.0618 151.091 70.1467C152.04 70.2345 152.603 72.0463 152.762 72.737C153.382 75.5878 152.722 78.7812 151.587 81.414C149.016 87.4129 143.439 92.0755 137.452 94.3629M128.18 105.67C128.63 100.101 128.268 93.9298 125.12 89.0973C124.395 88.0187 123.501 87.0675 122.535 86.1616C122.411 86.0738 121.794 85.3406 121.672 85.3406C121.123 85.4708 120.661 86.204 120.404 86.6372C119.605 87.9734 119.458 89.6578 119.526 91.1668C119.772 96.5201 122.371 101.398 126.043 105.152M121.607 117.798C126.51 113.614 132.834 112.275 139.102 113.353C140.671 113.656 142.907 114.001 144.314 114.865C144.756 115.123 144.212 116.719 144.085 117.022C143.295 119.007 141.344 120.346 139.419 121.079C134.287 122.978 127.826 122.115 122.807 120.215M132.588 145.077C133.234 141.884 134.352 138.863 136.014 136.058C138.191 132.346 141.209 129.238 145.104 127.381C146.534 126.735 148.609 125.439 149.506 127.338C150.74 130.013 149.642 133.079 148.345 135.497C145.648 140.502 140.02 145.422 134.686 147.625M126.153 156.647C128.311 154.79 131.076 153.884 133.856 153.581C135.813 153.409 137.758 153.409 139.697 153.797C140.88 154.012 142.049 154.272 143.187 154.66C144.082 154.963 145.812 155.393 146.466 156.172C148.045 158.026 145.005 160.486 143.64 161.177C140.693 162.646 137.194 162.473 134.077 161.653C131.708 161.092 129.14 160.098 127.068 158.759M122.026 160.141C118.408 156.084 116.548 151.682 116.035 146.286C115.922 145.122 115.849 143.956 115.962 142.79C115.987 142.532 115.945 141.754 116.251 141.581C118.009 140.763 120.013 142.877 120.848 144.129C123.155 147.713 123.518 152.07 123.311 156.214M88.2805 147.019C87.9804 147.84 87.6605 148.619 87.3661 149.437" stroke="#02558D" stroke-width="2" stroke-miterlimit="1.5" stroke-linecap="round" stroke-linejoin="round"/>
<path d="M53.6577 235.402C52.2696 239.685 51.0466 243.49 50.3113 245.758C49.8774 247.094 48.6276 248 47.2165 248H26.9352C25.5241 248 24.2742 247.094 23.8422 245.758C22.1489 240.524 17.8676 227.269 14.961 218.273M59.9971 215.76C58.6973 219.791 56.956 225.184 55.2665 230.418" stroke="#02558D" stroke-width="2" stroke-miterlimit="1.5" stroke-linecap="round" stroke-linejoin="round"/>
<path d="M26.4841 204.118H12.3635C11.4055 204.118 10.6299 204.907 10.6299 205.844V214.04C10.6299 215.005 11.4055 215.768 12.3635 215.768H63.4011C64.3572 215.768 65.1328 215.005 65.1328 214.04V205.844C65.1328 204.907 64.3572 204.118 63.4011 204.118H32.0075M46.501 113C46.501 113 32.9847 149.555 37.8823 204.116" stroke="#02558D" stroke-width="2" stroke-miterlimit="1.5" stroke-linecap="round" stroke-linejoin="round"/>
<path d="M53.5 149C53.5 149 55.6959 167.5 36.9216 188M23 183C23 183 31.5 194.5 37.8815 204.118M19.501 141C19.501 141 21.501 155.5 36.9216 160" stroke="#02558D" stroke-width="2" stroke-miterlimit="1.5" stroke-linecap="round" stroke-linejoin="round"/>
<path d="M45.2556 113.507C43.6122 105.72 45.5992 98.0212 49.558 91.2595C50.4622 89.7083 51.4625 88.2453 52.5568 86.8112C52.6931 86.6365 53.3689 85.5518 53.5609 85.5518C53.9833 85.5825 54.565 86.84 54.7032 87.1337C55.5287 89.0363 55.5575 91.2902 55.3713 93.3099C54.9029 98.3726 53.1673 103.349 50.827 107.857C49.8095 109.819 48.7823 111.838 47.3386 113.536M40.3253 128.699C35.735 125.362 32.1736 120.883 30.9929 115.263C30.6723 113.712 30.5244 112.161 30.5782 110.579C30.5801 110.462 30.6339 109.147 30.6742 109.147C32.5979 109.264 34.3104 111.282 35.3587 112.716C38.2385 116.698 39.6764 121.732 40.4194 126.533M39.7513 138.592C41.7979 134.143 45.8642 131.45 50.5314 130.338C51.6122 130.073 52.6931 129.899 53.8085 129.839C54.229 129.81 54.7531 129.664 55.0277 130.045C56.3044 131.83 54.6648 134.435 53.4476 135.723C50.3221 139.089 45.269 140.583 40.7842 140.437M52.9523 148.719C53.0118 146.29 53.6703 143.919 54.6687 141.723C55.3329 140.231 56.1469 138.826 57.0915 137.509C58.253 135.898 59.6564 134.435 61.3248 133.352C61.6224 133.147 62.5574 132.387 62.949 132.444C63.5922 132.504 63.9742 133.733 64.0817 134.201C64.5022 136.134 64.0548 138.3 63.285 140.085C61.5417 144.154 57.7596 147.316 53.6991 148.867" stroke="#02558D" stroke-width="2" stroke-miterlimit="1.5" stroke-linecap="round" stroke-linejoin="round"/>
<path d="M22.1799 147.105C22.9705 142.992 24.7011 139.243 27.8364 136.414C28.7037 135.634 29.6905 134.75 30.7735 134.271C30.8052 134.254 30.9767 134.501 30.9899 134.54C31.1807 134.831 31.3023 135.184 31.3757 135.513C31.6478 136.952 31.2838 138.405 30.8779 139.77C29.7182 143.637 27.2782 147.101 23.6686 148.945" stroke="#02558D" stroke-width="2" stroke-miterlimit="1.5" stroke-linecap="round" stroke-linejoin="round"/>
<path d="M25.9047 154.638C21.9419 155.181 17.9486 156.741 15.4248 159.994C14.8057 160.794 14.3109 161.671 13.9165 162.607C13.8774 162.715 13.5159 163.387 13.5719 163.458C13.7696 163.728 14.2827 163.844 14.5878 163.917C15.6998 164.18 16.8779 163.95 17.9197 163.551C21.4427 162.299 25.0379 159.606 26.8627 156.278" stroke="#02558D" stroke-width="2" stroke-miterlimit="1.5" stroke-linecap="round" stroke-linejoin="round"/>
<path d="M19.4852 141.156C18.3489 139.529 17.1434 137.896 15.6819 136.562C13.2381 134.324 10.0165 132.775 6.75778 132.26C5.4317 132.023 4.05594 131.988 2.74778 132.272C2.46369 132.336 1.6338 132.366 1.46943 132.638C1.16921 133.139 1.35903 133.847 1.55178 134.339C2.03639 135.566 3.01701 136.75 4.03382 137.582C7.95891 140.807 13.2165 141.737 18.1695 142.059" stroke="#02558D" stroke-width="2" stroke-miterlimit="1.5" stroke-linecap="round" stroke-linejoin="round"/>
<path d="M21.9996 183.582C20.0462 182.55 18.2957 181.243 16.7894 179.624C14.7926 177.497 13.3493 174.938 12.8882 172.048C12.7425 170.994 12.297 169.395 13.7047 169.176C15.6816 168.886 17.4654 170.188 18.7894 171.495C21.5279 174.21 23.6492 178.814 24.0592 182.706M28.292 189.987C27.4977 188.227 27.4387 186.254 27.7747 184.388C28.0375 183.082 28.4105 181.817 29.0346 180.63C29.4014 179.902 29.7951 179.191 30.2656 178.525C30.6342 178.001 31.2458 176.959 31.8776 176.683C33.3867 176.011 34.4039 178.46 34.5916 179.48C34.9823 181.679 34.1989 183.922 33.0672 185.792C32.2483 187.226 31.1095 188.706 29.8411 189.797M29.773 193.341C26.4404 194.917 23.2201 195.283 19.612 194.581C18.8334 194.432 18.0606 194.256 17.3236 193.959C17.1609 193.893 16.6463 193.771 16.5926 193.539C16.3975 192.239 18.1575 191.34 19.1316 191.037C21.9053 190.224 24.8089 190.823 27.4653 191.752" stroke="#02558D" stroke-width="2" stroke-miterlimit="1.5" stroke-linecap="round" stroke-linejoin="round"/>
<path d="M60.3536 184.576C60.1501 185.133 59.9331 185.661 59.7334 186.216" stroke="#02558D" stroke-width="2" stroke-miterlimit="1.5" stroke-linecap="round" stroke-linejoin="round"/>
<path d="M50 170.256C53.3252 167.418 57.6141 166.51 61.8647 167.242C62.9283 167.447 64.445 167.681 65.3992 168.267C65.6987 168.442 65.3301 169.524 65.2437 169.73C64.708 171.076 63.3853 171.984 62.0798 172.481C58.5991 173.769 54.2179 173.184 50.814 171.895" stroke="#02558D" stroke-width="2" stroke-miterlimit="1.5" stroke-linecap="round" stroke-linejoin="round"/>
<path d="M48.879 168.787C49.1842 165.01 48.9385 160.825 46.8036 157.548C46.3121 156.816 45.7055 156.171 45.0508 155.557C44.9663 155.497 44.5478 155 44.4652 155C44.0928 155.088 43.7798 155.586 43.6051 155.879C43.0637 156.785 42.9639 157.928 43.01 158.951C43.177 162.582 44.9394 165.889 47.4295 168.435" stroke="#02558D" stroke-width="2" stroke-miterlimit="1.5" stroke-linecap="round" stroke-linejoin="round"/>
<path d="M178.426 239.524C177.47 242.475 176.628 245.096 176.121 246.658C175.822 247.578 174.961 248.202 173.989 248.202H160.019C159.047 248.202 158.186 247.578 157.888 246.658C156.722 243.053 153.773 233.922 151.771 227.725M182.793 225.994C181.898 228.771 180.698 232.486 179.534 236.091" stroke="#02558D" stroke-width="2" stroke-miterlimit="1.5" stroke-linecap="round" stroke-linejoin="round"/>
<path d="M159.708 217.975H149.981C149.321 217.975 148.787 218.518 148.787 219.164V224.809C148.787 225.475 149.321 226 149.981 226H185.138C185.796 226 186.331 225.475 186.331 224.809V219.164C186.331 218.518 185.796 217.975 185.138 217.975H163.513M173.496 155.21C173.496 155.21 164.186 180.39 167.559 217.973" stroke="#02558D" stroke-width="2" stroke-miterlimit="1.5" stroke-linecap="round" stroke-linejoin="round"/>
<path d="M179.757 183.021C179.757 183.021 179.831 192.751 166.898 206.872M162.095 208.66C162.095 208.66 163.164 211.35 167.56 217.975M154.898 174.497C154.898 174.497 156.276 184.485 166.898 187.585" stroke="#02558D" stroke-width="2" stroke-miterlimit="1.5" stroke-linecap="round" stroke-linejoin="round"/>
<path d="M172.118 159.487C174.593 158.006 177.313 157.174 180.205 157.487C181.004 157.574 181.911 157.675 182.654 158.012C182.677 158.021 182.629 158.222 182.615 158.246C182.553 158.478 182.428 158.702 182.292 158.891C181.678 159.691 180.764 160.171 179.877 160.589C177.359 161.768 174.46 162.104 171.855 161.097" stroke="#02558D" stroke-width="2" stroke-miterlimit="1.5" stroke-linecap="round" stroke-linejoin="round"/>
<path d="M169.956 164.858C167.859 163.072 165.225 161.736 162.395 161.933C161.7 161.982 161.022 162.13 160.361 162.357C160.288 162.387 159.776 162.51 159.765 162.571C159.717 162.796 159.893 163.113 159.996 163.303C160.371 163.995 161.03 164.495 161.713 164.847C163.973 166.082 167.006 166.693 169.553 166.103" stroke="#02558D" stroke-width="2" stroke-miterlimit="1.5" stroke-linecap="round" stroke-linejoin="round"/>
<path d="M173.936 155.373C174.25 154.043 174.536 152.674 174.55 151.311C174.579 149.029 173.896 146.663 172.665 144.753C172.178 143.963 171.564 143.24 170.818 142.698C170.655 142.582 170.259 142.169 170.044 142.21C169.649 142.285 169.372 142.708 169.208 143.033C168.8 143.845 168.642 144.892 168.681 145.796C168.825 149.293 170.76 152.42 172.869 155.112" stroke="#02558D" stroke-width="2" stroke-miterlimit="1.5" stroke-linecap="round" stroke-linejoin="round"/>
<path d="M153.832 173.996C152.644 173.045 151.629 171.935 150.819 170.645C149.743 168.947 149.098 167.029 149.16 165.014C149.197 164.282 149.103 163.143 150.083 163.176C151.458 163.236 152.497 164.348 153.224 165.403C154.725 167.594 155.565 170.984 155.339 173.67M157.262 179.143C156.952 177.85 157.167 176.508 157.636 175.288C157.982 174.439 158.398 173.631 158.974 172.909C159.316 172.463 159.675 172.033 160.079 171.644C160.396 171.337 160.945 170.711 161.408 170.606C162.516 170.346 162.888 172.135 162.883 172.849C162.863 174.387 162.042 175.804 161.035 176.923C160.295 177.787 159.334 178.641 158.334 179.215M157.83 181.604C155.371 182.239 153.145 182.07 150.795 181.129C150.287 180.927 149.787 180.709 149.327 180.412C149.225 180.346 148.893 180.198 148.886 180.034C148.923 179.129 150.23 178.748 150.928 178.669C152.91 178.477 154.797 179.259 156.474 180.231" stroke="#02558D" stroke-width="2" stroke-miterlimit="1.5" stroke-linecap="round" stroke-linejoin="round"/>
<path d="M183.039 204.514C182.898 204.897 182.749 205.261 182.611 205.643" stroke="#02558D" stroke-width="2" stroke-miterlimit="1.5" stroke-linecap="round" stroke-linejoin="round"/>
<path d="M179.757 182.594C183.176 179.987 187.586 179.153 191.957 179.825C193.05 180.014 194.61 180.229 195.591 180.767C195.899 180.927 195.52 181.922 195.431 182.11C194.88 183.347 193.52 184.181 192.178 184.637C188.599 185.821 184.094 185.283 180.594 184.1" stroke="#02558D" stroke-width="2" stroke-miterlimit="1.5" stroke-linecap="round" stroke-linejoin="round"/>
<path d="M161.439 209.767C157.893 207.531 155.705 203.811 154.951 199.628C154.781 198.575 154.489 197.091 154.685 196.024C154.738 195.691 155.797 195.706 156.004 195.724C157.345 195.814 158.564 196.771 159.422 197.836C161.676 200.687 162.599 204.948 162.595 208.511" stroke="#02558D" stroke-width="2" stroke-miterlimit="1.5" stroke-linecap="round" stroke-linejoin="round"/>
<path d="M179.634 181.882C179.983 178.136 179.702 173.985 177.264 170.735C176.703 170.009 176.01 169.37 175.262 168.76C175.166 168.701 174.688 168.208 174.593 168.208C174.168 168.296 173.811 168.789 173.611 169.08C172.993 169.979 172.879 171.112 172.931 172.127C173.122 175.728 175.135 179.008 177.979 181.533" stroke="#02558D" stroke-width="2" stroke-miterlimit="1.5" stroke-linecap="round" stroke-linejoin="round"/>
</svg>
