<svg width="133" height="249" viewBox="0 0 133 249" fill="none" xmlns="http://www.w3.org/2000/svg">
<path d="M44.0333 229.865C45.9154 235.673 47.5737 240.832 48.5707 243.907C49.159 245.719 50.8537 246.947 52.767 246.947H80.2672C82.1806 246.947 83.8753 245.719 84.461 243.907C86.757 236.81 92.5622 218.838 96.5034 206.639M35.4375 203.232C37.1999 208.699 39.561 216.011 41.8518 223.107" stroke="#02558D" stroke-width="2" stroke-miterlimit="1.5" stroke-linecap="round" stroke-linejoin="round"/>
<path d="M51.0616 187.446H31.9151C30.6161 187.446 29.5645 188.516 29.5645 189.786V200.899C29.5645 202.209 30.6161 203.242 31.9151 203.242H101.119C102.415 203.242 103.467 202.209 103.467 200.899V189.786C103.467 188.516 102.415 187.446 101.119 187.446H58.5511M80.8032 52.3009C80.8032 52.3009 59.8761 113.463 66.5169 187.443" stroke="#02558D" stroke-width="2" stroke-miterlimit="1.5" stroke-linecap="round" stroke-linejoin="round"/>
<path d="M90.6714 100.684C90.6714 100.684 72.8135 121.361 65.2147 147.12M87.6543 147.12C87.6543 147.12 70.2623 168.831 66.5163 187.446M46.3936 90.1254C46.3936 90.1254 62.2158 104.969 66.8339 123.902" stroke="#02558D" stroke-width="2" stroke-miterlimit="1.5" stroke-linecap="round" stroke-linejoin="round"/>
<path d="M80.254 51.9052C78.0256 41.3466 80.7199 30.9078 86.0877 21.7393C87.3138 19.6359 88.6701 17.6523 90.1539 15.7077C90.3388 15.4708 91.2551 14 91.5154 14C92.0881 14.0417 92.8769 15.7467 93.0643 16.145C94.1837 18.7248 94.2227 21.7809 93.9702 24.5195C93.335 31.3842 90.9818 38.1317 87.8085 44.244C86.4288 46.9044 85.036 49.643 83.0784 51.9442M73.5689 72.5043C67.3446 67.98 62.5157 61.9067 60.9148 54.2871C60.48 52.1837 60.2795 50.0804 60.3524 47.9353C60.355 47.7765 60.4279 45.9933 60.4826 45.9933C63.091 46.1521 65.4131 48.8881 66.8344 50.8327C70.7392 56.2317 72.689 63.0573 73.6964 69.5679M72.7905 85.9186C75.5655 79.887 81.0792 76.2347 87.4075 74.7274C88.8732 74.3682 90.3387 74.1313 91.8512 74.0506C92.4213 74.0116 93.132 73.8137 93.5042 74.3292C95.2354 76.7502 93.0122 80.2827 91.3618 82.0294C87.1238 86.5928 80.2722 88.6181 74.1911 88.4203M55.4897 100.247C53.9902 94.7695 53.8523 89.1726 55.9739 83.8543C56.5622 82.3861 57.2339 80.72 58.2647 79.4887C58.2934 79.4497 58.65 79.6475 58.689 79.6866C59.0951 79.926 59.4544 80.2827 59.7407 80.6393C60.933 82.2273 61.3599 84.2135 61.6827 86.1164C62.586 91.5155 61.6905 97.1905 58.4026 101.595M57.7909 106.874C52.509 105.643 46.6961 105.685 41.9244 108.582C40.753 109.295 39.7012 110.167 38.7485 111.162C38.6469 111.279 37.8634 111.956 37.8998 112.073C38.0196 112.51 38.6131 112.906 38.9646 113.145C40.2453 114.018 41.8489 114.296 43.3614 114.296C48.4298 114.416 54.287 112.747 58.21 109.415M46.1442 89.0555C45.3815 86.4757 44.5328 83.8569 43.226 81.514C41.0445 77.5858 37.5667 74.2094 33.5968 72.1477C31.9932 71.273 30.2386 70.6378 28.4346 70.44C28.0415 70.4009 26.9612 70.0833 26.6332 70.3619C26.0319 70.8773 25.972 71.8691 26.0084 72.585C26.1047 74.3708 26.8571 76.3154 27.8073 77.8227C31.47 83.6564 37.8322 87.1109 44.0643 89.6516M90.6901 99.6505C90.7708 96.3574 91.6638 93.1425 93.0175 90.1644C93.9182 88.1417 95.0219 86.2362 96.3027 84.4504C97.8776 82.2663 99.7806 80.2827 102.043 78.8145C102.446 78.5359 103.714 77.5051 104.245 77.5832C105.117 77.6639 105.635 79.3299 105.781 79.9651C106.351 82.5865 105.744 85.5229 104.701 87.9439C102.337 93.4601 97.2086 97.7475 91.7028 99.8509M83.1773 110.248C83.5913 105.128 83.258 99.4526 80.3633 95.009C79.6969 94.0172 78.8743 93.1425 77.9866 92.3095C77.872 92.2288 77.3045 91.5545 77.1926 91.5545C76.6876 91.6743 76.2633 92.3485 76.0264 92.7468C75.2923 93.9755 75.1569 95.5244 75.2193 96.9119C75.4458 101.835 77.8356 106.32 81.2119 109.772M77.1327 121.4C81.6415 117.553 87.457 116.321 93.2205 117.313C94.6626 117.592 96.7192 117.909 98.013 118.703C98.4191 118.94 97.9193 120.408 97.8021 120.687C97.0758 122.512 95.2822 123.743 93.512 124.417C88.7924 126.164 82.852 125.37 78.2365 123.623M87.2305 146.485C87.824 143.548 88.8523 140.771 90.3804 138.191C92.3822 134.778 95.1573 131.92 98.7393 130.212C100.054 129.619 101.962 128.426 102.787 130.173C103.922 132.633 102.912 135.452 101.72 137.675C99.2391 142.278 94.0639 146.802 89.1595 148.828M81.3134 157.124C83.2971 155.416 85.8404 154.583 88.3968 154.305C90.1956 154.146 91.984 154.146 93.7671 154.503C94.8553 154.7 95.9304 154.94 96.9769 155.297C97.7995 155.575 99.39 155.971 99.9914 156.687C101.444 158.392 98.6481 160.654 97.3934 161.289C94.6835 162.64 91.4659 162.481 88.5998 161.726C86.4209 161.211 84.0598 160.297 82.1542 159.066M77.518 160.336C74.1911 156.606 72.4808 152.558 72.0096 147.596C71.9054 146.526 71.8378 145.454 71.9419 144.381C71.9653 144.144 71.9263 143.429 72.2074 143.27C73.824 142.517 75.6671 144.462 76.435 145.613C78.5566 148.908 78.8899 152.915 78.6999 156.726M46.4878 148.27C46.2119 149.025 45.9177 149.741 45.647 150.494" stroke="#02558D" stroke-width="2" stroke-miterlimit="1.5" stroke-linecap="round" stroke-linejoin="round"/>
</svg>
