<svg width="30" height="30" viewBox="0 0 30 30" fill="none" xmlns="http://www.w3.org/2000/svg">
<rect width="30" height="30" rx="8" fill="#686868"/>
<path d="M23.75 9.80963C23.1059 10.0829 22.4148 10.2682 21.6887 10.351C22.4301 9.92585 22.9977 9.25154 23.2667 8.45051C22.5712 8.84421 21.8035 9.13009 20.9855 9.28505C20.3305 8.61597 19.3988 8.19922 18.3653 8.19922C16.3828 8.19922 14.7752 9.73844 14.7752 11.6358C14.7752 11.9049 14.8069 12.1677 14.8682 12.419C11.885 12.2755 9.23973 10.907 7.46928 8.82745C7.1598 9.33425 6.98374 9.92479 6.98374 10.5552C6.98374 11.7478 7.61801 12.8001 8.58033 13.4158C7.992 13.397 7.43866 13.242 6.95423 12.9844V13.0273C6.95423 14.6922 8.19213 16.0816 9.83353 16.3979C9.5328 16.4754 9.21568 16.5183 8.88762 16.5183C8.6558 16.5183 8.43162 16.4963 8.21181 16.4545C8.66889 17.8209 9.99429 18.8146 11.5646 18.8418C10.3366 19.7632 8.78811 20.3109 7.10624 20.3109C6.81647 20.3109 6.53103 20.2941 6.25 20.2638C7.83893 21.2407 9.7253 21.8103 11.7527 21.8103C18.3567 21.8103 21.9664 16.5728 21.9664 12.0305L21.9544 11.5855C22.6597 11.1038 23.2699 10.4986 23.75 9.80963Z" fill="white"/>
</svg>
