<svg width="588" height="340" viewBox="0 0 588 340" fill="none" xmlns="http://www.w3.org/2000/svg">
<path d="M45 260.103H295" stroke="#25316D" stroke-width="2" stroke-linecap="round" stroke-linejoin="round"/>
<path d="M101.086 269.31L101.23 269.205L101.329 269.056C102.104 267.895 103.501 267.201 105.439 266.988C107.373 266.774 109.708 267.06 112.107 267.72C114.497 268.377 116.895 269.391 118.938 270.582C120.996 271.782 122.625 273.122 123.548 274.398C127.463 279.809 126.755 286.688 122.419 289.852C121.421 290.58 119.804 291.033 117.742 291.146C115.707 291.258 113.358 291.033 111.01 290.52C108.664 290.007 106.353 289.214 104.392 288.212C102.417 287.204 100.866 286.021 99.9566 284.764C96.0419 279.353 96.7496 272.474 101.086 269.31Z" fill="white" stroke="#25316D" stroke-width="2"/>
<path d="M123.968 288.047C122.715 286.637 120.02 283.816 119.268 283.816" stroke="#25316D" stroke-width="2"/>
<path d="M229.617 256.792C231.274 265.112 236.249 274.696 231.037 289.598C225.825 304.5 213.865 316.401 200.869 312.5C190.897 309.507 194.872 299.752 200.369 297C205.528 294.418 210.869 296 212.369 302.5C215.809 317.405 199.725 319.64 174.869 317.5C150.014 315.36 146.138 305.202 143.369 301C134.869 288.098 128.776 291.737 124.515 289.598" stroke="#303030" stroke-width="2" stroke-linecap="round"/>
<path d="M120.808 278.92L120.803 278.923C120.513 279.097 120.127 279.028 119.912 278.749C118.987 277.534 117.453 275.621 115.637 273.729C113.833 271.849 111.696 269.932 109.563 268.768L108.562 270.481C108.554 270.494 108.553 270.494 108.553 270.494L108.554 270.494L108.555 270.495L108.57 270.504C108.583 270.513 108.606 270.527 108.636 270.547C108.695 270.587 108.786 270.648 108.901 270.73C109.131 270.894 109.458 271.139 109.837 271.456C110.599 272.095 111.547 273.01 112.332 274.131C113.117 275.253 113.71 276.541 113.83 277.94C113.948 279.307 113.622 280.863 112.438 282.575C111.734 283.408 110.493 283.843 109.934 284.026L109.823 284.063L109.722 284.124L109.722 284.125L109.722 284.125L109.721 284.126L109.712 284.131L109.676 284.153C109.664 284.16 109.649 284.169 109.631 284.18C109.604 284.196 109.571 284.216 109.532 284.239C109.405 284.313 109.221 284.42 108.995 284.547C108.54 284.801 107.921 285.132 107.255 285.442C106.583 285.755 105.892 286.033 105.289 286.197C104.631 286.375 104.283 286.358 104.17 286.317L103.528 286.085L103.082 286.593L103.082 286.593L103.081 286.594C103.08 286.595 103.08 286.595 103.079 286.596C103.077 286.599 103.073 286.603 103.068 286.608C103.064 286.612 103.059 286.617 103.054 286.623C103.028 286.649 102.986 286.691 102.93 286.742C102.815 286.846 102.647 286.984 102.439 287.115C102.018 287.379 101.515 287.568 100.982 287.505C100.98 287.502 100.878 287.465 100.66 287.294C100.42 287.107 100.129 286.83 99.7972 286.474C99.1365 285.764 98.3924 284.822 97.6845 283.864C96.9799 282.91 96.3265 281.962 95.8481 281.25C95.6093 280.895 95.4149 280.6 95.2805 280.394C95.2133 280.291 95.1612 280.211 95.126 280.156L95.0863 280.094L95.0764 280.079L95.0741 280.075L95.0736 280.075L95.0735 280.074L95.0735 280.074L94.8822 279.775L94.5449 279.663L94.5448 279.663L94.5447 279.663L94.544 279.663L94.5391 279.661L94.517 279.654C94.497 279.647 94.4663 279.637 94.4257 279.623C94.3444 279.595 94.2235 279.552 94.0683 279.496C93.7578 279.384 93.3107 279.218 92.7702 279.002C91.6873 278.569 90.2397 277.942 88.7691 277.16C87.2923 276.375 85.8277 275.452 84.6886 274.439C83.5374 273.414 82.83 272.395 82.6499 271.429L82.6476 271.414C82.6448 271.394 82.6403 271.361 82.6349 271.317C82.6242 271.227 82.6098 271.091 82.597 270.914C82.5713 270.559 82.5525 270.045 82.5822 269.424C82.642 268.176 82.8962 266.529 83.6587 264.883C84.4159 263.249 85.6803 261.601 87.7959 260.33C89.8847 259.075 92.859 258.153 97.0986 258.029C97.1057 258.032 97.113 258.035 97.1205 258.038C97.2616 258.098 97.4713 258.187 97.7411 258.306C98.2809 258.544 99.0608 258.9 100.013 259.367C101.92 260.302 104.511 261.681 107.251 263.452C112.774 267.025 118.717 272.081 121.056 278.191C121.15 278.438 121.066 278.744 120.808 278.92Z" fill="white" stroke="#25316D" stroke-width="2"/>
<path fill-rule="evenodd" clip-rule="evenodd" d="M106.204 148.524C141.83 177.116 100.466 224.121 100.466 224.121C100.466 224.121 101.247 229.823 99.0555 232.111C91.4995 240 104.696 260.314 104.696 260.314C104.696 260.314 89.3336 270.044 84.954 279.116C84.7456 279.548 83.5439 280.526 83.0736 280.526C83.0736 280.526 74.5893 266.538 72.7329 260.314C64.7421 233.521 65.2117 216.13 65.2117 216.13C71.3224 202.028 74.6364 193.397 81.1937 178.996C87.1592 165.885 98.3245 157.601 106.204 148.524Z" fill="#58B9FD"/>
<path fill-rule="evenodd" clip-rule="evenodd" d="M155.525 122.828C155.525 122.828 160.448 118.767 162.935 119.425L163.115 122.663C163.115 122.663 170.491 127.767 180.512 127.932C190.539 128.152 198.299 123.322 199.954 119.425C199.954 119.425 205.85 120.741 206.09 124.693C206.09 124.693 237.237 134.295 245.114 139.676C252.988 144.996 257.048 148.509 258.848 157.73C260.639 166.893 267.13 196.525 268.61 220.341C252.764 215.29 239.652 215.183 223.457 215.183C185.123 169.685 158.64 224.872 123.413 259.58C123.413 259.58 134.5 195.357 130.571 195.85C126.648 196.289 72.6826 217.267 72.6826 217.267C72.6826 217.267 71.7483 202.439 72.6826 198.268C73.6169 194.097 91.8511 149.167 96.0202 143.077C100.189 136.93 107.566 132.046 120.702 129.303C133.843 126.561 155.525 122.828 155.525 122.828Z" fill="#58B9FD"/>
<path d="M121.651 46C121.116 47.0658 120.714 48.172 120.32 49.2985C120.009 50.1994 119.711 51.1686 119.228 51.9933M118.193 52.7065C116.434 53.3521 114.702 54.0699 113 54.8579M113.01 54.9237C113.483 55.2335 113.931 55.5684 114.433 55.8296C115.829 56.5504 117.31 57.0604 118.735 57.7074M119.454 58.887C120.129 60.6048 121.049 62.1882 121.768 63.8807M121.816 64C122.017 63.3732 122.323 62.7793 122.602 62.1882C123.284 60.7317 124.065 59.316 124.635 57.8087M124.635 57.89C125.354 57.4893 126.165 57.271 126.909 56.9309C128.002 56.4285 129.913 55.6142 131 55.0559M121.945 46.1017C122.831 48.0274 123.727 49.9636 124.54 51.9248M124.538 52.0849C126.013 52.8664 129.482 54.0716 131 54.7743" stroke="#25316D" stroke-width="2" stroke-miterlimit="1.5" stroke-linecap="round" stroke-linejoin="round"/>
<path d="M85.5 167C87.5 163.5 88.3416 160.193 89.5 157C90.9673 152.9 93.1631 146.877 96.0004 143.5" stroke="#25316D" stroke-width="2" stroke-miterlimit="1.5" stroke-linecap="round" stroke-linejoin="round"/>
<path d="M131.86 174.749C134.899 189.083 134.443 205.364 129.774 219.305M141.362 172.735C143.245 179.165 143.499 185.841 143.477 192.502C143.484 201.041 142.676 209.701 139.767 217.795" stroke="#25316D" stroke-width="2" stroke-miterlimit="1.5" stroke-linecap="round" stroke-linejoin="round"/>
<path d="M155.795 126.874C158.516 131.1 163.177 133.68 167.734 135.437C178.974 139.716 194.76 139.223 202.814 129.124M199.875 119.412C200.547 119.412 201.224 119.521 201.869 119.686C204.164 120.453 205.328 122.321 205.896 124.513M149.528 128.191C151.277 130.606 153.184 133.076 155.402 135.051C158.309 137.632 161.839 139.55 165.478 140.868" stroke="#25316D" stroke-width="2" stroke-miterlimit="1.5" stroke-linecap="round" stroke-linejoin="round"/>
<path d="M162.92 119.77C160.445 119.825 157.27 120.922 155.931 123.171" stroke="#25316D" stroke-width="2" stroke-miterlimit="1.5" stroke-linecap="round" stroke-linejoin="round"/>
<path d="M68.9723 218.01C70.8524 226.471 81.1915 226.505 85.424 228.351C90.047 230.402 95.8869 222.029 100 225M75.5529 267.366C80.7234 257.965 84.3938 254.691 97.1751 253.264" stroke="#25316D" stroke-width="2" stroke-miterlimit="1.5" stroke-linecap="round" stroke-linejoin="round"/>
<path d="M199.46 100.597L161.636 91.1965L162.576 122.22C162.576 122.22 173.585 127.956 181.378 127.86C189.605 127.759 199.46 122.491 199.46 122.491L199.46 100.597Z" fill="white"/>
<path d="M148 71C152 83 155 82.5 156.5 80.4324C158.132 84.897 160.027 89.3876 162 93.0001C163.5 95.7466 179.5 106 189.074 110.434C200.415 103.811 205.5 97.0001 208 94.5001C208 92.7505 208.75 87.5816 209.5 80.4324C209.5 77.7562 215.5 80.4324 215.5 68C215.706 65.7112 213 60.5 210.815 64.5C210.931 62.6101 211 60.9068 211 59.5001C230.5 34.5001 208.499 28.5001 201 27.0001C200 16.5001 177.5 23.0001 170.5 30.0001C166.374 32.0976 162.381 38.5729 159.5 42.0001C155 42.5 153.189 45.9753 151.5 50C151.5 51.5 153.037 60.3109 154 64.5C147.5 61 146.839 68.9413 148 71Z" fill="white"/>
<path d="M190.923 66.9644C190.901 70.312 191.29 73.5491 192.448 76.6767C192.732 77.4999 193.038 78.2687 193.426 78.9824C193.453 79.0371 193.819 79.6403 193.803 79.6403C193.552 79.9696 192.35 81 192 81C190.509 81.1098 188.899 80.9938 187.5 80.5M181.946 64.2211C179.094 62.6295 175.668 62.6295 172.952 64.4953M206.311 65.3732C203.256 63.7269 200.021 63.6718 196.814 64.8243M195.5 90.5001C190 92.5001 184.416 90.7254 181.044 88.3111M163.111 64.825C163.739 71.0807 158.47 64.2444 159 70.5001M171.87 55.9905C170.236 59.9413 166.821 62.7404 162.876 64.1671" stroke="#25316D" stroke-width="2" stroke-miterlimit="1.5" stroke-linecap="round" stroke-linejoin="round"/>
<path d="M159.405 72.8922C159.405 72.8922 160.93 87.7625 161.329 91.7133C161.392 92.3124 161.654 92.8729 162.072 93.3052C168.58 100.329 176.476 105.103 185.71 107.792C186.327 107.957 186.989 107.957 187.59 107.738C194.556 105.104 201.217 101.097 207.517 95.4453C208.053 94.9515 208.386 94.2928 208.446 93.5795C208.949 87.5433 211.293 59.283 211.293 59.283" stroke="#25316D" stroke-width="2" stroke-miterlimit="1.5" stroke-linecap="round" stroke-linejoin="round"/>
<path d="M199.64 101.591L199.104 122.336C199.104 122.336 180.143 134.296 163.767 122.336M162.106 94.019L162.412 118.822" stroke="#25316D" stroke-width="2" stroke-miterlimit="1.5" stroke-linecap="round" stroke-linejoin="round"/>
<path d="M202.601 72.3246C202.382 72.3278 202.164 72.2872 201.961 72.2051C201.757 72.123 201.572 72.001 201.415 71.8464C201.259 71.6917 201.135 71.5074 201.05 71.3042C200.966 71.1009 200.922 70.8828 200.922 70.6624C200.922 70.4421 200.966 70.224 201.05 70.0208C201.135 69.8175 201.259 69.6332 201.416 69.4786C201.572 69.324 201.757 69.2021 201.961 69.1201C202.164 69.038 202.382 68.9974 202.602 69.0007C203.036 69.0072 203.451 69.1852 203.756 69.4962C204.061 69.8072 204.232 70.2262 204.232 70.6628C204.232 71.0994 204.061 71.5184 203.756 71.8294C203.451 72.1403 203.036 72.3182 202.601 72.3246ZM179.655 72.3246C179.216 72.3246 178.795 72.1494 178.485 71.8377C178.175 71.526 178 71.1031 178 70.6623C178 70.2214 178.175 69.7986 178.485 69.4869C178.795 69.1751 179.216 69 179.655 69C180.09 69.0064 180.505 69.1844 180.81 69.4954C181.115 69.8065 181.286 70.2256 181.286 70.6623C181.286 71.0989 181.115 71.5181 180.81 71.8291C180.505 72.1402 180.09 72.3181 179.655 72.3246Z" fill="#25316D"/>
<path fill-rule="evenodd" clip-rule="evenodd" d="M166.371 98.6421C166.371 98.6421 176.693 111.866 186.179 112.58C194.255 113.238 199.287 106.818 199.287 106.818V101.989C199.287 101.989 187.987 108.409 186.179 107.915C184.375 107.366 166.371 98.6421 166.371 98.6421Z" fill="#25316D"/>
<path d="M176.029 53.956C180.817 56.8757 185.851 59.5812 191.583 59.8314C194.238 59.9454 197.489 59.0882 197.978 55.9987M213.428 51.9472C213.743 52.6516 214.024 53.3976 214.128 54.1787C214.617 58.0104 210.808 59.3111 207.661 59.1377C202.592 58.8577 197.978 55.8847 194.799 52.0379M215.839 50.706C216.783 49.632 217.657 48.4396 218.181 47.1178C221.643 38.498 213.463 30.9558 206.054 28.5219C202.977 27.5105 198.574 26.7157 195.567 28.372C193.401 29.5505 196.51 32.0263 198.085 31.8345C200.601 31.5206 201.37 28.2847 200.635 26.2448C200.042 24.6827 198.713 23.6751 197.211 23.023C194.275 21.7503 191.198 21.8477 188.086 22.336C181.55 23.3681 175.294 26.7123 170.121 30.6978C168.059 32.281 165.822 33.9511 164.319 36.106M160.614 41.9153C159.601 42.006 158.587 42.2255 157.644 42.5951C150.722 45.2837 152.5 54.9999 153.5 60.4999M160.125 88.5C159.877 87.7693 159.615 84.2194 157.644 79.4999C157.147 78.3105 154 86.4999 149 74.9999C144.5 59.8314 153.5 63.4999 154.5 64.9999M161.207 32.9083C160.822 34.2751 160.579 35.6108 160.544 37.0299C160.544 37.4203 160.544 37.8145 160.579 38.205C160.579 38.2434 160.649 38.5434 160.614 38.5677C160.579 38.5957 160.159 38.4037 160.125 38.3863C159.563 38.198 159.039 37.9993 158.481 37.811C156.419 37.0928 154.182 36.4266 151.979 36.3671" stroke="#25316D" stroke-width="2" stroke-miterlimit="1.5" stroke-linecap="round" stroke-linejoin="round"/>
<path d="M153 72.0001C154.065 73.6167 154.247 74.1566 155.239 75.819" stroke="#25316D" stroke-width="2" stroke-miterlimit="1.5" stroke-linecap="round" stroke-linejoin="round"/>
<path d="M210.012 71.2369C210 69.9362 210.025 68.6358 210.151 67.3592C210.468 64.3245 211.898 61.6751 213.531 63.7224C213.809 64.0596 214.05 64.4929 214.252 64.9746C215.822 68.8283 214.72 74.4885 212.797 77.0417C211.999 78.1014 210.962 78.9203 210 79.2576" stroke="#25316D" stroke-width="2" stroke-miterlimit="1.5" stroke-linecap="round" stroke-linejoin="round"/>
<path d="M299.5 167C298.3 167.4 292.667 175.167 290 179L280.5 188L299 196.5L304.5 188C306.5 188.833 312 190.6 314 191C316.5 191.5 321.5 193.5 327 191C332.5 188.5 333.74 181.06 334 179.5C334.5 176.5 332.5 176.5 326 177.5C319.576 178.488 314 173.5 315 172.5L321 166.5C323 164.5 321.5 162 320.5 161.5C319.5 161 312.5 164.5 311 165.5C309.5 166.5 301 166.5 299.5 167Z" fill="white"/>
<path d="M298.225 169.006C292.119 176.561 286.288 184.403 279.469 191.342C273.095 197.803 265.985 203.651 259.832 210.302M244.796 194.082C244.952 202.6 244.89 211.122 245.108 219.594C245.223 223.97 245.024 229.073 247.134 233.081C250.432 239.325 261.31 243.607 267.535 239.097M305 188.5C299.026 196.339 293.022 205.505 287.285 213.585C281.573 221.614 276.156 227.268 270.757 235.537M299.375 167.201C301.899 166.204 304.498 166.11 307.164 165.73C308.97 165.54 310.743 165.063 312.477 164.539C314.207 164.019 315.809 163.208 317.453 162.451C318.351 162.07 319.449 161.5 320.456 161.5C321.545 161.547 321.792 162.924 321.683 163.732C321.435 165.586 320.119 167.248 318.66 168.342M312.259 171.381C314.141 172.571 315.809 174.043 317.657 175.28C318.394 175.804 319.188 176.468 320.057 176.705C321.511 177.085 323.104 177.135 324.605 177.135C325.598 177.135 332.858 176.281 333.5 177.135C335.125 179.416 332.964 184.059 331.686 186.054C330.545 187.765 328.543 190.883 326.5 191.5C321.5 194 308.517 189.07 304.644 187.976" stroke="#25316D" stroke-width="2" stroke-miterlimit="1.5" stroke-linecap="round" stroke-linejoin="round"/>
<path fill-rule="evenodd" clip-rule="evenodd" d="M233.5 236.5C233.5 236.5 258.5 250 265 249C277.034 247.148 298.5 210 303.5 198.5C315.5 187 286.595 184.137 290.5 174.5C294.404 164.866 256 211.5 256 203.5C256 203.5 255.33 194.93 255 192C253.373 177.556 259.428 148.563 246 143C238.769 140.004 232.275 149.243 232.275 149.243L227.678 144.918C227.678 144.918 225.832 141.265 221.525 137.057C215.949 150.401 211.198 171.179 212.467 202.578L218.5 215C218.79 215.233 232.517 235.575 233.5 236.5Z" fill="#58B9FD"/>
<path d="M271.56 192.137C265.006 198.223 258.919 206.063 255.194 213.792" stroke="#25316D" stroke-width="2" stroke-miterlimit="1.5" stroke-linecap="round" stroke-linejoin="round"/>
<path d="M221.572 183C222.696 185.846 223.494 188.81 224.559 191.63C226.331 196.283 228.323 200.87 230.106 205.517" stroke="#25316D" stroke-width="2" stroke-miterlimit="1.5" stroke-linecap="round" stroke-linejoin="round"/>
<path d="M330 180.084C326.293 180.511 321.964 181.702 318.5 180.084C316.955 179.373 315.705 178.232 314.341 177.235M328.057 184.643C326.274 184.834 324.488 184.83 322.701 184.83C321.289 184.88 319.854 184.927 318.5 184.5C316.257 183.739 314.294 182.122 312.46 180.651M325.965 188.206C322.253 188.49 319.012 188.3 315.538 186.875C313.941 186.258 313.025 185.638 311.5 184.83M318.5 168.5C318.5 168.5 317.85 169.154 317.5 169.627C316.642 170.785 315.773 172.143 314.5 173" stroke="#25316D" stroke-width="2" stroke-miterlimit="1.5" stroke-linecap="round" stroke-linejoin="round"/>
<path d="M259 158.5C258 153 253.125 145.987 248.499 142.5C242.588 138.005 235.128 134.679 228 132.432" stroke="#25316D" stroke-width="2" stroke-miterlimit="1.5" stroke-linecap="round" stroke-linejoin="round"/>
<path d="M205.2 283.488L205.2 283.488L205.206 283.5C205.395 283.885 205.352 284.349 205.076 284.711C205.075 284.712 205.075 284.713 205.074 284.713L197.094 295.019H166.97L166.866 294.889L166.223 294.078C165.678 293.392 164.92 292.436 164.068 291.364C162.365 289.218 160.287 286.601 158.788 284.718L158.785 284.714C158.52 284.384 158.458 283.908 158.653 283.492C158.748 283.298 158.894 283.135 159.075 283.021C159.257 282.906 159.467 282.845 159.681 282.843C159.682 282.843 159.683 282.843 159.683 282.843L204.181 282.843H204.183C204.395 282.843 204.603 282.903 204.783 283.017C204.963 283.131 205.108 283.294 205.2 283.488ZM262.569 193.025L262.568 193.027C259.999 207.635 251.517 255.874 249.323 268.361C249.105 269.597 248.033 270.495 246.787 270.495H117.441C116.212 270.495 115.146 269.613 114.91 268.388C113.759 262.364 110.984 247.856 108.113 232.85C105.082 217.005 101.944 200.605 100.501 193.052L100.501 193.051C100.358 192.307 100.553 191.528 101.047 190.917C101.541 190.325 102.272 189.977 103.032 189.977L260.032 189.977L260.033 189.977C260.409 189.976 260.779 190.058 261.12 190.217C261.46 190.377 261.762 190.609 262.003 190.899L262.004 190.9C262.495 191.489 262.702 192.274 262.569 193.025Z" fill="white" stroke="#25316D" stroke-width="2"/>
<path d="M182.091 227.496C190.24 227.496 196.858 234.136 196.858 242.323V295.024H167.323V242.323C167.323 234.136 173.939 227.496 182.091 227.496Z" fill="white" stroke="#25316D" stroke-width="2"/>
<path fill-rule="evenodd" clip-rule="evenodd" d="M188.87 242.265C188.87 238.504 185.834 235.457 182.091 235.457C178.348 235.457 175.314 238.504 175.314 242.265V254.44C175.314 258.194 178.348 261.24 182.091 261.24C185.834 261.24 188.87 258.194 188.87 254.44V242.265Z" fill="#58B9FD"/>
<path d="M120 267.011L106.463 197.382C106.223 196.147 107.169 195 108.426 195H225" stroke="#25316D" stroke-width="2"/>
<path d="M225.332 249.983C225.692 249.983 225.986 250.274 225.986 250.64V256.877C225.986 257.242 225.692 257.533 225.332 257.533H222.875C222.511 257.533 222.221 257.242 222.221 256.877V250.64C222.221 250.274 222.511 249.983 222.875 249.983H225.332Z" fill="#686868"/>
<path d="M234.646 249.983C235.005 249.983 235.3 250.274 235.3 250.64V256.877C235.3 257.242 235.005 257.533 234.646 257.533H232.188C231.825 257.533 231.535 257.242 231.535 256.877V250.64C231.535 250.274 231.825 249.983 232.188 249.983H234.646Z" fill="#686868"/>
<path d="M495.049 106.834C495.178 110.19 495.085 113.594 494.974 116.951M514.2 104.707C511.535 109.018 508.902 113.436 505.89 117.509M522.22 121.416C519.939 122.296 517.657 123.181 515.373 124.082" stroke="#25316D" stroke-width="2" stroke-miterlimit="1.5" stroke-linecap="round" stroke-linejoin="round"/>
<path d="M454.748 127.456C454.748 126.146 455.81 125.083 457.121 125.083H497.461C504.014 125.083 509.326 130.395 509.326 136.948V177.288C509.326 178.599 508.264 179.661 506.953 179.661H498.777C498.165 179.661 497.576 179.425 497.134 179L486.967 169.24C484.212 166.595 479.862 166.595 477.107 169.24L466.94 179C466.498 179.425 465.909 179.661 465.297 179.661H457.121C455.81 179.661 454.748 178.599 454.748 177.288V169.113C454.748 167.275 454.037 165.508 452.765 164.183L443.004 154.016C442.123 153.098 442.123 151.647 443.004 150.729L452.765 140.562C454.037 139.236 454.748 137.47 454.748 135.632V127.456Z" fill="white"/>
<path d="M449.466 236.749C449.466 238.06 448.404 239.122 447.093 239.122H406.753C400.2 239.122 394.888 233.81 394.888 227.258V186.917C394.888 185.607 395.95 184.544 397.261 184.544H405.437C406.049 184.544 406.638 184.781 407.08 185.205L417.247 194.966C420.002 197.61 424.352 197.61 427.107 194.966L437.274 185.205C437.716 184.781 438.305 184.544 438.917 184.544H447.093C448.404 184.544 449.466 185.607 449.466 186.917V195.093C449.466 196.931 450.177 198.697 451.45 200.023L461.21 210.19C462.091 211.108 462.091 212.558 461.21 213.477L451.45 223.644C450.177 224.969 449.466 226.736 449.466 228.574V236.749Z" fill="white"/>
<path d="M506.954 184.544C508.265 184.544 509.327 185.607 509.327 186.917V227.258C509.327 233.81 504.015 239.123 497.462 239.123H457.122C455.811 239.123 454.749 238.06 454.749 236.75V228.574C454.749 227.961 454.986 227.372 455.41 226.93L465.17 216.763C467.815 214.009 467.815 209.658 465.17 206.903L455.41 196.736C454.986 196.295 454.749 195.706 454.749 195.093V186.917C454.749 185.607 455.811 184.544 457.122 184.544H465.298C467.135 184.544 468.902 183.834 470.228 182.561L480.395 172.801C481.313 171.919 482.763 171.919 483.681 172.801L493.848 182.561C495.174 183.834 496.941 184.544 498.778 184.544H506.954Z" fill="white"/>
<path d="M497.827 178.279L497.827 178.279L487.66 168.519C484.518 165.503 479.556 165.503 476.415 168.519L466.248 178.279L466.247 178.279C465.992 178.524 465.651 178.661 465.297 178.661H457.121C456.363 178.661 455.748 178.047 455.748 177.288V169.113C455.748 167.017 454.937 165.002 453.486 163.49L453.486 163.49L443.726 153.323C443.726 153.323 443.726 153.323 443.726 153.323C443.216 152.792 443.216 151.953 443.726 151.422C443.726 151.422 443.726 151.422 443.726 151.422L453.486 141.255L453.486 141.255C454.937 139.743 455.748 137.728 455.748 135.632V127.456C455.748 126.698 456.363 126.083 457.121 126.083H497.461C503.462 126.083 508.326 130.948 508.326 136.948V177.288C508.326 178.047 507.712 178.661 506.953 178.661H498.777C498.423 178.661 498.082 178.524 497.827 178.279ZM406.387 185.927L406.388 185.927L416.555 195.687C419.696 198.703 424.658 198.703 427.8 195.687L437.967 185.927L437.967 185.927C438.222 185.681 438.563 185.544 438.917 185.544H447.093C447.852 185.544 448.466 186.159 448.466 186.917V195.093C448.466 197.189 449.277 199.204 450.728 200.716L451.45 200.023L450.728 200.716L460.489 210.883C460.999 211.414 460.999 212.253 460.489 212.784L450.728 222.951L451.45 223.644L450.728 222.951C449.277 224.463 448.466 226.478 448.466 228.574V236.749C448.466 237.508 447.852 238.122 447.093 238.122H406.753C400.752 238.122 395.888 233.258 395.888 227.258V186.917C395.888 186.159 396.503 185.544 397.261 185.544H405.437C405.791 185.544 406.132 185.681 406.387 185.927ZM456.131 227.623L456.131 227.623L465.892 217.456C468.908 214.314 468.908 209.353 465.892 206.211L456.131 196.044L456.131 196.044C455.886 195.788 455.749 195.448 455.749 195.093V186.917C455.749 186.159 456.363 185.544 457.122 185.544H465.298C467.393 185.544 469.408 184.734 470.92 183.282L470.228 182.561L470.92 183.282L481.087 173.522C481.618 173.012 482.458 173.012 482.989 173.522L493.156 183.282L493.848 182.561L493.156 183.282C494.668 184.734 496.683 185.544 498.778 185.544H506.954C507.712 185.544 508.327 186.159 508.327 186.917V227.258C508.327 233.258 503.463 238.123 497.462 238.123H457.122C456.363 238.123 455.749 237.508 455.749 236.75V228.574C455.749 228.219 455.886 227.879 456.131 227.623Z" stroke="#25316D" stroke-width="2"/>
<path d="M377.746 159.324C375.124 159.324 373 157.199 373 154.578L373 114.238C373 106.374 379.374 100 387.237 100L427.578 100C430.199 100 432.324 102.125 432.324 104.746V112.922C432.324 114.147 431.85 115.325 431.002 116.208L421.241 126.375C419.478 128.212 419.478 131.112 421.241 132.949L431.002 143.116C431.85 144 432.324 145.177 432.324 146.402V154.578C432.324 157.199 430.199 159.324 427.578 159.324H419.402C418.177 159.324 416.999 159.798 416.115 160.646L405.949 170.407C404.112 172.17 401.212 172.17 399.375 170.407L389.208 160.646C388.324 159.798 387.147 159.324 385.921 159.324H377.746Z" fill="#CB2027"/>
</svg>
