<svg width="20" height="20" viewBox="0 0 20 20" fill="none" xmlns="http://www.w3.org/2000/svg">
<mask id="mask0_734_9550" style="mask-type:alpha" maskUnits="userSpaceOnUse" x="0" y="0" width="20" height="20">
<rect width="20" height="20" fill="#D9D9D9"/>
</mask>
<g mask="url(#mask0_734_9550)">
<path d="M3.33464 17.5C2.8763 17.5 2.48394 17.3368 2.15755 17.0104C1.83116 16.684 1.66797 16.2917 1.66797 15.8333V4.16667C1.66797 3.70833 1.83116 3.31597 2.15755 2.98958C2.48394 2.66319 2.8763 2.5 3.33464 2.5H15.0013C15.4596 2.5 15.852 2.66319 16.1784 2.98958C16.5048 3.31597 16.668 3.70833 16.668 4.16667V5.83333H18.3346V7.5H16.668V9.16667H18.3346V10.8333H16.668V12.5H18.3346V14.1667H16.668V15.8333C16.668 16.2917 16.5048 16.684 16.1784 17.0104C15.852 17.3368 15.4596 17.5 15.0013 17.5H3.33464ZM3.33464 15.8333H15.0013V4.16667H3.33464V15.8333ZM5.0013 14.1667H9.16797V10.8333H5.0013V14.1667ZM10.0013 8.33333H13.3346V5.83333H10.0013V8.33333ZM5.0013 10H9.16797V5.83333H5.0013V10ZM10.0013 14.1667H13.3346V9.16667H10.0013V14.1667Z" fill="#303030"/>
</g>
</svg>
