<svg width="24" height="24" viewBox="0 0 24 24" fill="none" xmlns="http://www.w3.org/2000/svg">
<mask id="mask0_868_15685" style="mask-type:alpha" maskUnits="userSpaceOnUse" x="0" y="0" width="24" height="24">
<rect width="24" height="24" fill="#D9D9D9"/>
</mask>
<g mask="url(#mask0_868_15685)">
<path d="M20.998 21V5H2.99805V13H0.998047V5C0.998047 4.45 1.19388 3.97917 1.58555 3.5875C1.97721 3.19583 2.44805 3 2.99805 3H20.998C21.548 3 22.0189 3.19583 22.4105 3.5875C22.8022 3.97917 22.998 4.45 22.998 5V19C22.998 19.55 22.8022 20.0208 22.4105 20.4125C22.0189 20.8042 21.548 21 20.998 21ZM8.99805 14C7.89805 14 6.95638 13.6083 6.17305 12.825C5.38971 12.0417 4.99805 11.1 4.99805 10C4.99805 8.9 5.38971 7.95833 6.17305 7.175C6.95638 6.39167 7.89805 6 8.99805 6C10.098 6 11.0397 6.39167 11.823 7.175C12.6064 7.95833 12.998 8.9 12.998 10C12.998 11.1 12.6064 12.0417 11.823 12.825C11.0397 13.6083 10.098 14 8.99805 14ZM8.99805 12C9.54805 12 10.0189 11.8042 10.4105 11.4125C10.8022 11.0208 10.998 10.55 10.998 10C10.998 9.45 10.8022 8.97917 10.4105 8.5875C10.0189 8.19583 9.54805 8 8.99805 8C8.44805 8 7.97721 8.19583 7.58555 8.5875C7.19388 8.97917 6.99805 9.45 6.99805 10C6.99805 10.55 7.19388 11.0208 7.58555 11.4125C7.97721 11.8042 8.44805 12 8.99805 12ZM0.998047 22V19.2C0.998047 18.6333 1.14388 18.1125 1.43555 17.6375C1.72721 17.1625 2.11471 16.8 2.59805 16.55C3.63138 16.0333 4.68138 15.6458 5.74805 15.3875C6.81471 15.1292 7.89805 15 8.99805 15C10.098 15 11.1814 15.1292 12.248 15.3875C13.3147 15.6458 14.3647 16.0333 15.398 16.55C15.8814 16.8 16.2689 17.1625 16.5605 17.6375C16.8522 18.1125 16.998 18.6333 16.998 19.2V22H0.998047ZM2.99805 20H14.998V19.2C14.998 19.0167 14.9522 18.85 14.8605 18.7C14.7689 18.55 14.648 18.4333 14.498 18.35C13.598 17.9 12.6897 17.5625 11.773 17.3375C10.8564 17.1125 9.93138 17 8.99805 17C8.06471 17 7.13971 17.1125 6.22305 17.3375C5.30638 17.5625 4.39805 17.9 3.49805 18.35C3.34805 18.4333 3.22721 18.55 3.13555 18.7C3.04388 18.85 2.99805 19.0167 2.99805 19.2V20Z" fill="#303030"/>
</g>
</svg>
