<svg width="64" height="64" viewBox="0 0 64 64" fill="none" xmlns="http://www.w3.org/2000/svg">
<rect x="37" y="32" width="22" height="28" fill="#CB2027"/>
<path fill-rule="evenodd" clip-rule="evenodd" d="M51.5146 41C51.5146 42.6569 50.1715 44 48.5146 44C46.8578 44 45.5146 42.6569 45.5146 41C45.5146 39.3431 46.8578 38 48.5146 38C49.3103 38 50.0734 38.3161 50.636 38.8787C51.1986 39.4413 51.5146 40.2044 51.5146 41Z" stroke="white" stroke-width="1.5" stroke-linecap="round" stroke-linejoin="round"/>
<path d="M44 48.5C44 47.5 44.5568 47 45.948 47C47 47 50 47 51.082 47C52.4729 47 53.029 47.5 53.029 48.5" stroke="white" stroke-width="1.5" stroke-linecap="round" stroke-linejoin="round"/>
<path d="M5 33C5 30.7909 6.79086 29 9 29H15.25C15.25 29 17.9195 33 21.5 33C25.0805 33 27.75 29 27.75 29H34C36.2091 29 38 30.7909 38 33V51H5V33Z" fill="white"/>
<path d="M31 15C31 21.0751 26.7467 27 21.5 27C16.2533 27 12 21.0751 12 15C12 8.92487 14 4 21.5 4C29 4 31 8.92487 31 15Z" fill="white"/>
<path fill-rule="evenodd" clip-rule="evenodd" d="M31.3651 13.5723C31.3653 22 24.9999 27 21.5009 27C16.9999 27 11.6367 22 11.6367 13.5723C11.6368 7 15.0018 4 21.5009 4C28 4 31.3651 7 31.3651 13.5723Z" stroke="#25316D" stroke-width="2" stroke-linecap="round" stroke-linejoin="round"/>
<path d="M42.501 32H59.001V60H37.001V57.5" stroke="#25316D" stroke-width="2" stroke-linecap="round" stroke-linejoin="round"/>
<path d="M42.501 54H54.5" stroke="white" stroke-width="2" stroke-linecap="round" stroke-linejoin="round"/>
<path d="M14.6074 29.0398C11.4885 29.0398 6.00794 27.5975 5.63135 31.4999C5.08943 37.1154 4.27051 51.2498 4.27051 51.2498H9.74765C9.74765 51.2498 11.5002 44.6226 11.5002 41.9999C11.5002 46.9882 11.5002 51.2498 11.5002 51.2498H21.5008H32.3942C32.3942 51.2498 32.3942 46.3541 32.3942 41.9999C32.3942 44.5762 34.0308 51.2498 34.0308 51.2498H38.7311C38.7311 51.2498 37.9117 37.1154 37.3698 31.4999C36.9932 27.5975 31.5129 29.0398 28.3942 29.0398" stroke="#25316D" stroke-width="2" stroke-linecap="round" stroke-linejoin="round"/>
</svg>
