<svg width="64" height="64" viewBox="0 0 64 64" fill="none" xmlns="http://www.w3.org/2000/svg">
<g clip-path="url(#clip0_462_1326)">
<rect x="10" y="26" width="42" height="31" rx="2" fill="white" stroke="#25316D" stroke-width="2"/>
<path d="M22.7199 40.3201C22.0159 40.3201 21.4399 39.7441 21.4399 39.0401C21.4399 38.3361 22.0159 37.7601 22.7199 37.7601H23.9999C24.7039 37.7601 25.2799 38.3361 25.2799 39.0401C25.2799 39.7441 25.8559 40.3201 26.5599 40.3201C27.2639 40.3201 27.8399 39.7441 27.8399 39.0401C27.8399 37.1201 26.4319 35.5841 24.6399 35.2641V33.9201C24.6399 33.2161 24.0639 32.6401 23.3599 32.6401C22.6559 32.6401 22.0799 33.2161 22.0799 33.9201V35.2641C20.2879 35.5841 18.8799 37.1201 18.8799 39.0401C18.8799 41.1521 20.6079 42.8801 22.7199 42.8801H23.9999C24.7039 42.8801 25.2799 43.4561 25.2799 44.1601C25.2799 44.8641 24.7039 45.4401 23.9999 45.4401H22.7199C22.0159 45.4401 21.4399 44.8641 21.4399 44.1601C21.4399 43.4561 20.8639 42.8801 20.1599 42.8801C19.4559 42.8801 18.8799 43.4561 18.8799 44.1601C18.8799 46.0801 20.2879 47.6161 22.0799 47.9361V49.2801C22.0799 49.9841 22.6559 50.5601 23.3599 50.5601C24.0639 50.5601 24.6399 49.9841 24.6399 49.2801V47.9361C26.4319 47.6161 27.8399 46.0801 27.8399 44.1601C27.8399 42.0481 26.1119 40.3201 23.9999 40.3201H22.7199Z" fill="#25316D"/>
<path d="M14 11L24.0547 17.7031C24.3329 17.8886 24.5 18.2008 24.5 18.5352V26M32 25V12.5M41 25V10C41 9.44772 41.4477 9 42 9H47" stroke="#25316D" stroke-width="2"/>
<circle cx="11" cy="9" r="3" stroke="#25316D" stroke-width="2"/>
<circle cx="32" cy="9" r="3" stroke="#25316D" stroke-width="2"/>
<circle cx="51" cy="9" r="3" stroke="#25316D" stroke-width="2"/>
<path d="M38 41.5C38 39.0147 40.0147 37 42.5 37H54C54.5523 37 55 37.4477 55 38V45C55 45.5523 54.5523 46 54 46H42.5C40.0147 46 38 43.9853 38 41.5Z" fill="#CB2027" stroke="#25316D" stroke-width="2"/>
<circle cx="42.5" cy="41.5" r="1.5" fill="white"/>
</g>
<defs>
<clipPath id="clip0_462_1326">
<rect width="64" height="64" fill="white"/>
</clipPath>
</defs>
</svg>
