<svg width="24" height="24" viewBox="0 0 24 24" fill="none" xmlns="http://www.w3.org/2000/svg">
<rect x="1.77344" y="7.875" width="19.0532" height="14.2899" rx="1.125" fill="#F3F3F3"/>
<path d="M20.8267 21.0399V9C20.8267 8.37868 20.323 7.875 19.7017 7.875H18.2285H4.80463H2.89844C2.27712 7.875 1.77344 8.37868 1.77344 9V21.0399C1.77344 21.6612 2.27712 22.1649 2.89844 22.1649H19.7017C20.323 22.1649 20.8267 21.6612 20.8267 21.0399Z" fill="#F3F3F3" stroke="#303030"/>
<path d="M7.71458 14.5092C7.40973 14.5092 7.16031 14.2598 7.16031 13.955C7.16031 13.6501 7.40973 13.4007 7.71458 13.4007H8.26886C8.57371 13.4007 8.82314 13.6501 8.82314 13.955C8.82314 14.2598 9.07256 14.5092 9.37741 14.5092C9.68226 14.5092 9.93169 14.2598 9.93169 13.955C9.93169 13.1236 9.32198 12.4584 8.546 12.3199V11.7379C8.546 11.433 8.29657 11.1836 7.99172 11.1836C7.68687 11.1836 7.43745 11.433 7.43745 11.7379V12.3199C6.66146 12.4584 6.05176 13.1236 6.05176 13.955C6.05176 14.8695 6.80003 15.6178 7.71458 15.6178H8.26886C8.57371 15.6178 8.82314 15.8672 8.82314 16.1721C8.82314 16.4769 8.57371 16.7263 8.26886 16.7263H7.71458C7.40973 16.7263 7.16031 16.4769 7.16031 16.1721C7.16031 15.8672 6.91088 15.6178 6.60603 15.6178C6.30118 15.6178 6.05176 15.8672 6.05176 16.1721C6.05176 17.0035 6.66146 17.6686 7.43745 17.8072V18.3892C7.43745 18.694 7.68687 18.9435 7.99172 18.9435C8.29657 18.9435 8.546 18.694 8.546 18.3892V17.8072C9.32198 17.6686 9.93169 17.0035 9.93169 16.1721C9.93169 15.2575 9.18341 14.5092 8.26886 14.5092H7.71458Z" fill="#303030"/>
<path d="M14.3984 15.0198C14.3984 13.9806 15.2409 13.1382 16.2801 13.1382H21.376C21.514 13.1382 21.626 13.2501 21.626 13.3882V16.6515C21.626 16.7896 21.514 16.9015 21.376 16.9015H16.2801C15.2409 16.9015 14.3984 16.059 14.3984 15.0198Z" fill="#303030" stroke="#303030"/>
<circle cx="16.2794" cy="15.0201" r="0.649542" fill="#F3F3F3"/>
<path fill-rule="evenodd" clip-rule="evenodd" d="M15.0388 2.09298L11.8963 0.875977L8.81368 2.2375L7.59668 5.37999L8.9582 8.46262L12.1007 9.67963L15.1833 8.3181L16.4003 5.17561L15.0388 2.09298ZM12.1882 6.87471C12.9131 6.87471 13.5007 6.28709 13.5007 5.56221C13.5007 4.83734 12.9131 4.24971 12.1882 4.24971C11.4633 4.24971 10.8757 4.83734 10.8757 5.56221C10.8757 6.28709 11.4633 6.87471 12.1882 6.87471Z" fill="#F3F3F3"/>
<circle cx="12.1875" cy="5.5625" r="1.8125" stroke="#303030"/>
<path d="M13.7921 2.03558L14.4962 1.68364L15.6917 2.87923L15.3399 3.58301L15.0821 4.09861L15.6289 4.28094L16.375 4.52969V6.22052L15.6285 6.46929L15.0816 6.65158L15.3394 7.16725L15.6912 7.87084L14.4956 9.06643L13.7921 8.71463L13.2764 8.45678L13.0941 9.00372L12.8454 9.75H11.1546L10.9058 9.00375L10.7235 8.45686L10.2079 8.71464L9.50448 9.06629L8.3089 7.8707L8.66065 7.1672L8.91849 6.65151L8.37151 6.46924L7.625 6.22047V4.52965L8.37157 4.28081L8.9185 4.09851L8.66068 3.58286L8.30885 2.8792L9.50442 1.68361L10.2079 2.0354L10.7235 2.29329L10.9058 1.74632L11.1546 1H12.8454L13.0942 1.74647L13.2765 2.29335L13.7921 2.03558Z" stroke="#303030" stroke-linecap="round"/>
</svg>
