<svg width="64" height="64" viewBox="0 0 64 64" fill="none" xmlns="http://www.w3.org/2000/svg">
<rect x="4.72754" y="21" width="50.8086" height="38.1064" rx="3" fill="white"/>
<path d="M12.8107 21H7.72754C6.07069 21 4.72754 22.3431 4.72754 24V56.1064C4.72754 57.7633 6.07068 59.1064 7.72754 59.1064H52.5361C54.193 59.1064 55.5361 57.7633 55.5361 56.1064V24C55.5361 22.3431 54.193 21 52.5361 21H48.6077" stroke="#25316D" stroke-width="2"/>
<path d="M20.5709 38.6907C19.758 38.6907 19.0929 38.0255 19.0929 37.2126C19.0929 36.3997 19.758 35.7345 20.5709 35.7345H22.049C22.8619 35.7345 23.5271 36.3997 23.5271 37.2126C23.5271 38.0255 24.1922 38.6907 25.0051 38.6907C25.8181 38.6907 26.4832 38.0255 26.4832 37.2126C26.4832 34.9955 24.8573 33.2218 22.788 32.8523V31.3003C22.788 30.4874 22.1229 29.8223 21.31 29.8223C20.497 29.8223 19.8319 30.4874 19.8319 31.3003V32.8523C17.7626 33.2218 16.1367 34.9955 16.1367 37.2126C16.1367 39.6514 18.1321 41.6468 20.5709 41.6468H22.049C22.8619 41.6468 23.5271 42.3119 23.5271 43.1249C23.5271 43.9378 22.8619 44.6029 22.049 44.6029H20.5709C19.758 44.6029 19.0929 43.9378 19.0929 43.1249C19.0929 42.3119 18.4277 41.6468 17.6148 41.6468C16.8018 41.6468 16.1367 42.3119 16.1367 43.1249C16.1367 45.342 17.7626 47.1157 19.8319 47.4852V49.0371C19.8319 49.8501 20.497 50.5152 21.31 50.5152C22.1229 50.5152 22.788 49.8501 22.788 49.0371V47.4852C24.8573 47.1157 26.4832 45.342 26.4832 43.1249C26.4832 40.6861 24.4878 38.6907 22.049 38.6907H20.5709Z" fill="#25316D"/>
<path d="M38.0596 40.0532C38.0596 37.0979 40.4553 34.7021 43.4106 34.7021H56.9996C57.5519 34.7021 57.9996 35.1499 57.9996 35.7021V44.4043C57.9996 44.9566 57.5519 45.4043 56.9996 45.4043H43.4106C40.4553 45.4043 38.0596 43.0085 38.0596 40.0532Z" fill="#CB2027" stroke="#25316D" stroke-width="2"/>
<circle cx="43.4108" cy="40.0534" r="1.73211" fill="white"/>
<path fill-rule="evenodd" clip-rule="evenodd" d="M40.1015 8.24876L31.7216 5.00342L23.5012 8.63415L20.2559 17.0141L23.8866 25.2345L32.2666 28.4798L40.4869 24.8491L43.7323 16.4691L40.1015 8.24876ZM32.5 21C34.433 21 36 19.433 36 17.5C36 15.567 34.433 14 32.5 14C30.567 14 29 15.567 29 17.5C29 19.433 30.567 21 32.5 21Z" fill="white"/>
<circle cx="32.5" cy="17.5" r="4.5" stroke="#25316D" stroke-width="2"/>
<path d="M36.63 7.79674L38.7223 6.7508L42.2502 10.2788L41.2044 12.3704L40.6888 13.4016L41.7826 13.7663L44 14.5056V19.495L41.7815 20.2344L40.6876 20.5989L41.2032 21.6303L42.2488 23.7214L38.7208 27.2494L36.6298 26.2038L35.5985 25.6881L35.2339 26.782L34.4945 29H29.5052L28.7659 26.7821L28.4014 25.6883L27.3701 26.2038L25.2795 27.249L21.7515 23.721L22.7969 21.6301L23.3126 20.5987L22.2186 20.2342L20 19.4949V14.5055L22.2188 13.7659L23.3126 13.4013L22.797 12.37L21.7513 10.2787L25.2793 6.75069L27.37 7.79626L28.4014 8.31204L28.766 7.2181L29.5054 5H34.4947L35.2342 7.2185L35.5987 8.31226L36.63 7.79674Z" stroke="#25316D" stroke-width="2" stroke-linecap="round"/>
</svg>
