<svg width="64" height="64" viewBox="0 0 64 64" fill="none" xmlns="http://www.w3.org/2000/svg">
<path d="M53 15L46.2969 25.0547C46.1114 25.3329 45.7992 25.5 45.4648 25.5L38 25.5M39 33L51.5 33M39 42L54 42C54.5523 42 55 42.4477 55 43L55 48" stroke="#25316D" stroke-width="2"/>
<circle cx="55" cy="12" r="3" transform="rotate(90 55 12)" stroke="#25316D" stroke-width="2"/>
<circle cx="55" cy="33" r="3" transform="rotate(90 55 33)" stroke="#25316D" stroke-width="2"/>
<circle cx="55" cy="52" r="3" transform="rotate(90 55 52)" stroke="#25316D" stroke-width="2"/>
<path d="M8.11035 10.5714C8.11035 9.15126 9.12878 8 10.3851 8H31.616C32.8722 8 33.8907 9.15126 33.8907 10.5714V53.4286C33.8907 54.8487 32.8722 56 31.616 56H10.3851C9.12878 56 8.11035 54.8487 8.11035 53.4286V10.5714Z" fill="white"/>
<path d="M6 8.78571C6 7.2472 7.18512 6 8.64706 6H33.3529C34.8148 6 36 7.2472 36 8.78571V55.2143C36 56.7527 34.8148 58 33.3529 58H8.64706C7.18512 58 6 56.7527 6 55.2143V8.78571Z" stroke="#25316D" stroke-width="2"/>
<path d="M18 11H25" stroke="#25316D" stroke-width="2" stroke-linecap="round"/>
<path d="M15.1429 24.8571C14.75 24.8571 14.4286 24.5679 14.4286 24.2143C14.4286 23.8607 14.75 23.5714 15.1429 23.5714H15.8571C16.25 23.5714 16.5714 23.8607 16.5714 24.2143C16.5714 24.5679 16.8929 24.8571 17.2857 24.8571C17.6786 24.8571 18 24.5679 18 24.2143C18 23.25 17.2143 22.4786 16.2143 22.3179V21.6429C16.2143 21.2893 15.8929 21 15.5 21C15.1071 21 14.7857 21.2893 14.7857 21.6429V22.3179C13.7857 22.4786 13 23.25 13 24.2143C13 25.275 13.9643 26.1429 15.1429 26.1429H15.8571C16.25 26.1429 16.5714 26.4321 16.5714 26.7857C16.5714 27.1393 16.25 27.4286 15.8571 27.4286H15.1429C14.75 27.4286 14.4286 27.1393 14.4286 26.7857C14.4286 26.4321 14.1071 26.1429 13.7143 26.1429C13.3214 26.1429 13 26.4321 13 26.7857C13 27.75 13.7857 28.5214 14.7857 28.6821V29.3571C14.7857 29.7107 15.1071 30 15.5 30C15.8929 30 16.2143 29.7107 16.2143 29.3571V28.6821C17.2143 28.5214 18 27.75 18 26.7857C18 25.725 17.0357 24.8571 15.8571 24.8571H15.1429Z" fill="#25316D"/>
<path d="M23.9802 27.6802C23.9802 27.9202 23.9202 28.1402 23.8002 28.3402C23.6802 28.5402 23.5202 28.7002 23.3202 28.8202C23.1202 28.9402 22.9002 29.0002 22.6602 29.0002H20.7402C20.5002 29.0002 20.2768 28.9402 20.0702 28.8202C19.8702 28.7002 19.7102 28.5402 19.5902 28.3402C19.4702 28.1402 19.4102 27.9202 19.4102 27.6802V27.3802C19.4102 27.2536 19.4535 27.1469 19.5402 27.0602C19.6335 26.9669 19.7435 26.9202 19.8702 26.9202H20.1502C20.2702 26.9202 20.3735 26.9669 20.4602 27.0602C20.5535 27.1469 20.6002 27.2536 20.6002 27.3802V27.6802C20.6002 27.7136 20.6135 27.7469 20.6402 27.7802C20.6735 27.8069 20.7068 27.8202 20.7402 27.8202H22.6602C22.6935 27.8202 22.7235 27.8069 22.7502 27.7802C22.7768 27.7469 22.7902 27.7136 22.7902 27.6802V26.6202C22.7902 26.5336 22.7502 26.4902 22.6702 26.4902H20.7402C20.5002 26.4902 20.2768 26.4302 20.0702 26.3102C19.8702 26.1902 19.7102 26.0302 19.5902 25.8302C19.4702 25.6236 19.4102 25.4002 19.4102 25.1602V23.5702C19.4102 23.3236 19.4702 23.1002 19.5902 22.9002C19.7102 22.7002 19.8702 22.5402 20.0702 22.4202C20.2768 22.3002 20.5002 22.2402 20.7402 22.2402H22.6602C22.9002 22.2402 23.1202 22.3002 23.3202 22.4202C23.5202 22.5402 23.6802 22.7002 23.8002 22.9002C23.9202 23.1002 23.9802 23.3236 23.9802 23.5702V27.6802ZM22.7902 25.1702V23.5702C22.7902 23.4769 22.7468 23.4302 22.6602 23.4302H20.7402C20.7068 23.4302 20.6735 23.4436 20.6402 23.4702C20.6135 23.4969 20.6002 23.5302 20.6002 23.5702V25.1602C20.6002 25.2002 20.6135 25.2336 20.6402 25.2602C20.6735 25.2869 20.7068 25.3002 20.7402 25.3002H22.6702C22.7502 25.3002 22.7902 25.2569 22.7902 25.1702Z" fill="#25316D"/>
<path d="M29.3708 27.6802C29.3708 27.9202 29.3108 28.1402 29.1908 28.3402C29.0708 28.5402 28.9108 28.7002 28.7108 28.8202C28.5108 28.9402 28.2908 29.0002 28.0508 29.0002H26.1308C25.8908 29.0002 25.6674 28.9402 25.4608 28.8202C25.2608 28.7002 25.1008 28.5402 24.9808 28.3402C24.8608 28.1402 24.8008 27.9202 24.8008 27.6802V27.3802C24.8008 27.2536 24.8441 27.1469 24.9308 27.0602C25.0241 26.9669 25.1341 26.9202 25.2608 26.9202H25.5408C25.6608 26.9202 25.7641 26.9669 25.8508 27.0602C25.9441 27.1469 25.9908 27.2536 25.9908 27.3802V27.6802C25.9908 27.7136 26.0041 27.7469 26.0308 27.7802C26.0641 27.8069 26.0974 27.8202 26.1308 27.8202H28.0508C28.0841 27.8202 28.1141 27.8069 28.1408 27.7802C28.1674 27.7469 28.1808 27.7136 28.1808 27.6802V26.6202C28.1808 26.5336 28.1408 26.4902 28.0608 26.4902H26.1308C25.8908 26.4902 25.6674 26.4302 25.4608 26.3102C25.2608 26.1902 25.1008 26.0302 24.9808 25.8302C24.8608 25.6236 24.8008 25.4002 24.8008 25.1602V23.5702C24.8008 23.3236 24.8608 23.1002 24.9808 22.9002C25.1008 22.7002 25.2608 22.5402 25.4608 22.4202C25.6674 22.3002 25.8908 22.2402 26.1308 22.2402H28.0508C28.2908 22.2402 28.5108 22.3002 28.7108 22.4202C28.9108 22.5402 29.0708 22.7002 29.1908 22.9002C29.3108 23.1002 29.3708 23.3236 29.3708 23.5702V27.6802ZM28.1808 25.1702V23.5702C28.1808 23.4769 28.1374 23.4302 28.0508 23.4302H26.1308C26.0974 23.4302 26.0641 23.4436 26.0308 23.4702C26.0041 23.4969 25.9908 23.5302 25.9908 23.5702V25.1602C25.9908 25.2002 26.0041 25.2336 26.0308 25.2602C26.0641 25.2869 26.0974 25.3002 26.1308 25.3002H28.0608C28.1408 25.3002 28.1808 25.2569 28.1808 25.1702Z" fill="#25316D"/>
<rect x="10" y="43" width="22" height="7" rx="1" fill="#CB2027"/>
</svg>
