<svg width="24" height="24" viewBox="0 0 24 24" fill="none" xmlns="http://www.w3.org/2000/svg">
<path d="M19.875 5.625L17.3613 9.39551C17.2918 9.49984 17.1747 9.5625 17.0493 9.5625L14.25 9.5625M14.625 12.375L19.3125 12.375M14.625 15.75L20.25 15.75C20.4571 15.75 20.625 15.9179 20.625 16.125L20.625 18" stroke="#303030"/>
<circle cx="20.625" cy="4.5" r="1" transform="rotate(90 20.625 4.5)" stroke="#303030"/>
<circle cx="20.625" cy="12.375" r="1" transform="rotate(90 20.625 12.375)" stroke="#303030"/>
<circle cx="20.625" cy="19.5" r="1" transform="rotate(90 20.625 19.5)" stroke="#303030"/>
<path d="M3 3.96429C3 3.43172 3.38191 3 3.85303 3H11.8146C12.2857 3 12.6676 3.43172 12.6676 3.96429V20.0357C12.6676 20.5683 12.2857 21 11.8146 21H3.85303C3.38191 21 3 20.5683 3 20.0357V3.96429Z" fill="#F3F3F3"/>
<path d="M2.25 3.29464C2.25 2.7177 2.69442 2.25 3.24265 2.25H12.5074C13.0556 2.25 13.5 2.7177 13.5 3.29464V20.7054C13.5 21.2823 13.0556 21.75 12.5074 21.75H3.24265C2.69442 21.75 2.25 21.2823 2.25 20.7054V3.29464Z" stroke="#303030"/>
<path d="M6.75 4.125H9.375" stroke="#303030" stroke-linecap="round"/>
<path d="M7.76786 10.5536C7.44375 10.5536 7.17857 10.3246 7.17857 10.0446C7.17857 9.76473 7.44375 9.53571 7.76786 9.53571H8.35714C8.68125 9.53571 8.94643 9.76473 8.94643 10.0446C8.94643 10.3246 9.21161 10.5536 9.53572 10.5536C9.85982 10.5536 10.125 10.3246 10.125 10.0446C10.125 9.28125 9.47679 8.67054 8.65179 8.5433V8.00893C8.65179 7.72902 8.38661 7.5 8.0625 7.5C7.73839 7.5 7.47321 7.72902 7.47321 8.00893V8.5433C6.64821 8.67054 6 9.28125 6 10.0446C6 10.8844 6.79554 11.5714 7.76786 11.5714H8.35714C8.68125 11.5714 8.94643 11.8004 8.94643 12.0804C8.94643 12.3603 8.68125 12.5893 8.35714 12.5893H7.76786C7.44375 12.5893 7.17857 12.3603 7.17857 12.0804C7.17857 11.8004 6.91339 11.5714 6.58929 11.5714C6.26518 11.5714 6 11.8004 6 12.0804C6 12.8438 6.64821 13.4545 7.47321 13.5817V14.1161C7.47321 14.396 7.73839 14.625 8.0625 14.625C8.38661 14.625 8.65179 14.396 8.65179 14.1161V13.5817C9.47679 13.4545 10.125 12.8438 10.125 12.0804C10.125 11.2406 9.32946 10.5536 8.35714 10.5536H7.76786Z" fill="#303030"/>
<rect x="3.75" y="16.125" width="8.25" height="2.625" rx="0.375" fill="#303030"/>
</svg>
