<svg width="24" height="24" viewBox="0 0 24 24" fill="none" xmlns="http://www.w3.org/2000/svg">
<g id="Icon">
<path id="Vector 423" d="M2.83691 13.6396L5.99707 13.3872L6.10634 14.4549M3.80594 20.8859L6.71278 20.3803L6.63171 19.5882M6.10634 14.4549L8.32866 14.1052C8.51165 14.0764 8.69903 14.099 8.86993 14.1704L10.9256 15.0301L13.1422 14.8517C13.9542 14.7864 14.6751 15.3682 14.7828 16.1756V16.1756M6.10634 14.4549L6.63171 19.5882M10.2094 17.1365L14.3869 16.6807C14.6373 16.6534 14.8161 16.4253 14.7828 16.1756V16.1756M14.7828 16.1756L19.1478 14.483C19.7562 14.2471 20.4424 14.5323 20.7044 15.1299V15.1299C20.9622 15.7181 20.7192 16.4055 20.1491 16.701L13.5375 20.1276C13.046 20.5629 11.5828 21.2229 9.66174 20.3803C7.7407 19.5378 6.84129 19.5012 6.63171 19.5882" stroke="#303030" stroke-width="1.5" stroke-linecap="round" stroke-linejoin="round"/>
<circle id="Ellipse 1373" cx="4.60645" cy="18.5688" r="0.462891" fill="#303030"/>
<path id="Vector 80" d="M13.952 4.5828L13.0941 5.00238L12.0219 4.16321L10.9496 5.21217L11.593 6.26112L11.3785 7.10029L10.0918 7.31008V8.77862L11.3785 8.98841L11.6708 9.82757L10.9496 10.8765L12.0219 11.9255L13.0941 11.0863L14.1664 11.5059L14.3809 12.7646H15.6676L15.882 11.5059L16.9543 11.0863L17.8121 11.9255L18.8844 10.8765L18.0266 9.82757L18.4555 8.77862L19.7422 8.56883V7.31008L18.4555 7.10029L18.241 6.05133L18.6699 5.00238L17.8121 4.16321L16.9543 5.00238L15.882 4.5828L15.6676 3.11426H14.1664L13.952 4.5828Z" stroke="#303030" stroke-width="1.5" stroke-linejoin="round"/>
<circle id="Ellipse 1372" cx="14.9165" cy="7.93894" r="1.53562" stroke="#303030" stroke-width="1.5"/>
</g>
</svg>
