<?xml version="1.0" encoding="utf-8"?>
<!-- Generator: Adobe Illustrator 26.0.3, SVG Export Plug-In . SVG Version: 6.00 Build 0)  -->
<svg version="1.0" id="Layer_1" xmlns="http://www.w3.org/2000/svg" xmlns:xlink="http://www.w3.org/1999/xlink" x="0px" y="0px"
	 viewBox="0 0 936 641.8" style="enable-background:new 0 0 936 641.8;" xml:space="preserve">
<style type="text/css">
	.st0{fill:#D12053;}
	.st1{fill:#E2136E;}
	.st2{fill:#9E1638;}
	.st3{fill:#231F20;}
</style>
<polygon class="st0" points="610.9,313.1 632.2,409 771.9,338.3 "/>
<polygon class="st1" points="650.6,169.8 610.9,313.1 771.9,338.3 "/>
<polygon class="st0" points="480.1,148.8 646.5,168.6 607.2,311.2 "/>
<polygon class="st2" points="478.7,176.8 497.3,176.8 549.3,243.3 "/>
<polygon class="st0" points="776.3,337.4 727.9,270.4 806.2,256.4 "/>
<polygon class="st1" points="768.2,357.1 773.2,342.1 651,404.1 "/>
<polygon class="st2" points="607.5,316.9 633,431.5 557.3,493 "/>
<polygon class="st1" points="798.6,290.5 843,289.8 810.9,257 "/>
<path class="st1" d="M93,270.5c2.2,0.2,4.3,0.6,6.7,0.6c2.3,0,4.2-0.4,6.7-0.6v71.2c7-11.9,15.8-19.8,28.8-19.8
	c23.5,0,33.6,23.2,33.6,44.6c0,25.6-13.7,50.1-37.6,50.1c-9.8,0.2-18.9-5-23.6-13.6c-4,3.5-7.6,7.7-11.3,11.6h-3L93,270.5z
	 M106,375.2c0,20.8,8.8,35.2,23.3,35.2c18.8,0,24.8-25.2,24.8-43.2c0-20.8-6.9-37.2-23.1-37.3C112,329.8,106,352.3,106,375.2"/>
<path class="st3" d="M230,316.5l-14.1,18.2c13.3,19.4,27.1,38.5,40.4,58.1l13.5,21.2v1.1c-3.3-0.2-6.3-0.6-9.1-0.6
	c-2.8,0-6.3,0.4-9.3,0.6c-3.7-6.8-7.3-13.1-11.5-19.2l-36.4-53.9c-0.8-0.9-2.8-1.5-2.8-0.6v73.8c-2.7-0.2-5-0.6-7.3-0.6
	c-2.3,0-5,0.4-7.3,0.6V270.5c2.3,0.2,4.9,0.6,7.3,0.6c2.5,0,4.7-0.5,7.3-0.6v65.3c0,1.3,2.5,0.4,4.1-1.3c3.2-3.3,6.1-6.7,8.9-10.4
	l41-53.7c2.1,0.2,4.3,0.6,6.6,0.6s4.1-0.5,6.5-0.6L230,316.5z"/>
<path class="st3" d="M340.1,398.9c0,7.5-0.5,11.4,9.3,8.9v4.2c-1.6,0.8-3.3,1.4-5,1.9c-8.6,1.7-15.8,0.2-17.1-11.1l-1.5,1.7
	c-5.9,7.7-15,12.2-24.7,12.1c-11.8,0-22.1-9.3-22.1-23.5c0-22,15.2-24.8,30.8-27.7c13.2-2.5,17.7-3.6,17.7-12.9
	c0-14.3-7-22.5-19.5-22.5c-8.7-0.2-16.6,5.1-19.8,13.3h-1.8v-10.7c7.5-6.5,17-10.3,26.9-10.6c17.5,0,27,10.6,27,32.3L340.1,398.9z
	 M326.8,367.1l-5.8,1.3c-11.3,2.5-28.3,4.4-28.3,22c0,12.1,6.1,18.2,16.3,18.2c5.3-0.6,10.1-3.3,13.5-7.4c1.2-1.4,4.6-4.7,4.6-6.1
	L326.8,367.1z"/>
<path class="st3" d="M369.8,396.3c4,7.5,11.3,14.3,19.1,14.3c9.3-0.5,16.5-8.2,16.3-17.5c0-26-39.3-9.1-39.3-42.7
	c0-18.5,12.1-28.4,27.1-28.4c6.6-0.1,13.1,1.6,18.8,5c-1.6,4.5-2.9,9-3.9,13.6h-1.5c-2.2-6.3-8-12.7-14.1-12.7
	c-8.3,0-15.2,5.6-15.2,16c0,24.6,39.3,11.5,39.3,42.3c0,20.6-16,30.4-30.7,30.4c-7.4,0-14.5-2.1-20.7-6.1c1.5-4.6,2.7-9.3,3.5-14.1
	L369.8,396.3z"/>
<path class="st3" d="M438.8,270.5c2.2,0.2,4.4,0.6,6.7,0.6s4.2-0.4,6.7-0.6v70.1c5.9-11.7,15-18.7,26.9-18.7
	c19.3,0,26.8,13.2,26.8,37.5v55.8c-2.5-0.2-4.5-0.6-6.7-0.6s-4.5,0.4-6.7,0.6v-51.4c0-21.2-4.3-32-18.5-32
	c-15,0-21.8,10.8-21.8,30.8v52.5c-2.5-0.2-4.5-0.6-6.7-0.6s-4.4,0.4-6.7,0.6L438.8,270.5z"/>
</svg>
