<?xml version="1.0" encoding="utf-8"?>
<!-- Generator: Adobe Illustrator 24.0.2, SVG Export Plug-In . SVG Version: 6.00 Build 0)  -->
<svg version="1.1" id="Layer_1" xmlns="http://www.w3.org/2000/svg" xmlns:xlink="http://www.w3.org/1999/xlink" x="0px" y="0px"
	 viewBox="0 0 92.61 92.61" style="enable-background:new 0 0 92.61 92.61;" xml:space="preserve">
<style type="text/css">
	.st0{fill:#834BFF;}
	.st1{fill:#FFFFFF;}
</style>
<g>
	<g>
		<path class="st0" d="M81.85,71.85c0,5.5-4.5,10-10,10H20.76c-5.5,0-10-4.5-10-10V20.76c0-5.5,4.5-10,10-10h51.09
			c5.5,0,10,4.5,10,10V71.85z"/>
	</g>
	<path class="st1" d="M61.91,40.1c-0.79-2-1.98-3.79-3.56-5.37c-1.58-1.58-3.37-2.77-5.37-3.56c-2-0.79-4.04-1.19-6.12-1.19
		c-2.09,0-4.13,0.4-6.13,1.19c-1.99,0.79-3.79,1.98-5.37,3.56L20.61,49.48c-0.61,0.61-0.92,1.33-0.92,2.17
		c0.01,0.83,0.3,1.54,0.88,2.12c0.62,0.61,1.32,0.89,2.11,0.84c0.79-0.05,1.49-0.37,2.08-0.97l5.94-5.93
		c0.15,1.85,0.61,3.63,1.38,5.33c0.77,1.7,1.87,3.27,3.29,4.69c1.58,1.58,3.37,2.77,5.37,3.56c2,0.79,4.03,1.18,6.1,1.18
		s4.1-0.4,6.09-1.2c1.99-0.81,3.78-2,5.36-3.58c1.59-1.59,2.78-3.38,3.58-5.37s1.2-4.02,1.21-6.1C63.09,44.14,62.7,42.1,61.91,40.1z
		 M56.4,50.14c-0.51,1.26-1.26,2.39-2.26,3.39c-1.01,1-2.14,1.76-3.4,2.27c-1.26,0.51-2.55,0.77-3.87,0.77
		c-1.32,0.01-2.62-0.24-3.89-0.74c-1.28-0.51-2.42-1.27-3.44-2.29c-1.02-1.01-1.78-2.16-2.29-3.43c-0.5-1.28-0.75-2.58-0.74-3.9
		c0.01-1.32,0.26-2.62,0.76-3.88c0.5-1.27,1.26-2.41,2.26-3.41s2.13-1.75,3.4-2.25s2.56-0.76,3.87-0.76c1.32,0,2.61,0.26,3.89,0.76
		c1.27,0.51,2.42,1.27,3.43,2.29c1.02,1.01,1.78,2.16,2.29,3.43c0.51,1.28,0.76,2.57,0.76,3.89C57.17,47.59,56.91,48.88,56.4,50.14z
		"/>
</g>
</svg>
